%FSTAX23Y23*%
%MOIN*%
%SFA1B1*%

%IPPOS*%
%ADD10C,0.003937*%
%ADD11C,0.009843*%
%ADD12C,0.007874*%
%ADD13C,0.006000*%
%ADD14C,0.005000*%
%ADD15C,0.005905*%
%ADD16C,0.003000*%
%ADD17C,0.010000*%
%LNpower_board-1*%
%LPD*%
G54D10*
X0147Y00304D02*
D01*
X0147Y00304*
X0147Y00304*
X0147Y00305*
X0147Y00305*
X0147Y00305*
X0147Y00305*
X0147Y00305*
X0147Y00305*
X0147Y00305*
X0147Y00305*
X0147Y00305*
X0147Y00306*
X01469Y00306*
X01469Y00306*
X01469Y00306*
X01469Y00306*
X01469Y00306*
X01469Y00306*
X01469Y00306*
X01469Y00306*
X01468Y00306*
X01468Y00306*
X01468*
X01468Y00306*
X01468Y00306*
X01468Y00306*
X01468Y00306*
X01467Y00306*
X01467Y00306*
X01467Y00306*
X01467Y00306*
X01467Y00306*
X01467Y00306*
X01467Y00305*
X01467Y00305*
X01467Y00305*
X01467Y00305*
X01466Y00305*
X01466Y00305*
X01466Y00305*
X01466Y00305*
X01466Y00305*
X01466Y00304*
X01466Y00304*
X01466Y00304*
X01466Y00304*
X01466Y00304*
X01466Y00304*
X01466Y00304*
X01466Y00303*
X01466Y00303*
X01466Y00303*
X01467Y00303*
X01467Y00303*
X01467Y00303*
X01467Y00303*
X01467Y00303*
X01467Y00303*
X01467Y00302*
X01467Y00302*
X01467Y00302*
X01467Y00302*
X01468Y00302*
X01468Y00302*
X01468Y00302*
X01468Y00302*
X01468Y00302*
X01468*
X01468Y00302*
X01469Y00302*
X01469Y00302*
X01469Y00302*
X01469Y00302*
X01469Y00302*
X01469Y00302*
X01469Y00302*
X01469Y00303*
X0147Y00303*
X0147Y00303*
X0147Y00303*
X0147Y00303*
X0147Y00303*
X0147Y00303*
X0147Y00303*
X0147Y00303*
X0147Y00304*
X0147Y00304*
X0147Y00304*
X0147Y00304*
X0147Y00304*
X0365Y01053D02*
D01*
X0365Y01053*
X0365Y01054*
X0365Y01054*
X0365Y01054*
X0365Y01054*
X0365Y01054*
X0365Y01054*
X0365Y01054*
X0365Y01054*
X0365Y01055*
X0365Y01055*
X0365Y01055*
X03649Y01055*
X03649Y01055*
X03649Y01055*
X03649Y01055*
X03649Y01055*
X03649Y01055*
X03649Y01055*
X03649Y01055*
X03648Y01055*
X03648Y01055*
X03648*
X03648Y01055*
X03648Y01055*
X03648Y01055*
X03648Y01055*
X03647Y01055*
X03647Y01055*
X03647Y01055*
X03647Y01055*
X03647Y01055*
X03647Y01055*
X03647Y01055*
X03647Y01055*
X03647Y01054*
X03647Y01054*
X03646Y01054*
X03646Y01054*
X03646Y01054*
X03646Y01054*
X03646Y01054*
X03646Y01054*
X03646Y01053*
X03646Y01053*
X03646Y01053*
X03646Y01053*
X03646Y01053*
X03646Y01053*
X03646Y01053*
X03646Y01052*
X03646Y01052*
X03647Y01052*
X03647Y01052*
X03647Y01052*
X03647Y01052*
X03647Y01052*
X03647Y01052*
X03647Y01052*
X03647Y01052*
X03647Y01051*
X03647Y01051*
X03648Y01051*
X03648Y01051*
X03648Y01051*
X03648Y01051*
X03648Y01051*
X03648*
X03648Y01051*
X03649Y01051*
X03649Y01051*
X03649Y01051*
X03649Y01051*
X03649Y01051*
X03649Y01052*
X03649Y01052*
X03649Y01052*
X0365Y01052*
X0365Y01052*
X0365Y01052*
X0365Y01052*
X0365Y01052*
X0365Y01052*
X0365Y01052*
X0365Y01053*
X0365Y01053*
X0365Y01053*
X0365Y01053*
X0365Y01053*
X0365Y01053*
X026Y01018D02*
D01*
X026Y01018*
X026Y01019*
X026Y01019*
X026Y01019*
X026Y01019*
X026Y01019*
X026Y01019*
X026Y01019*
X026Y01019*
X026Y0102*
X026Y0102*
X026Y0102*
X02599Y0102*
X02599Y0102*
X02599Y0102*
X02599Y0102*
X02599Y0102*
X02599Y0102*
X02599Y0102*
X02599Y0102*
X02598Y0102*
X02598Y0102*
X02598*
X02598Y0102*
X02598Y0102*
X02598Y0102*
X02598Y0102*
X02597Y0102*
X02597Y0102*
X02597Y0102*
X02597Y0102*
X02597Y0102*
X02597Y0102*
X02597Y0102*
X02597Y0102*
X02597Y01019*
X02597Y01019*
X02596Y01019*
X02596Y01019*
X02596Y01019*
X02596Y01019*
X02596Y01019*
X02596Y01019*
X02596Y01018*
X02596Y01018*
X02596Y01018*
X02596Y01018*
X02596Y01018*
X02596Y01018*
X02596Y01018*
X02596Y01017*
X02596Y01017*
X02597Y01017*
X02597Y01017*
X02597Y01017*
X02597Y01017*
X02597Y01017*
X02597Y01017*
X02597Y01017*
X02597Y01017*
X02597Y01016*
X02597Y01016*
X02598Y01016*
X02598Y01016*
X02598Y01016*
X02598Y01016*
X02598Y01016*
X02598*
X02598Y01016*
X02599Y01016*
X02599Y01016*
X02599Y01016*
X02599Y01016*
X02599Y01016*
X02599Y01017*
X02599Y01017*
X02599Y01017*
X026Y01017*
X026Y01017*
X026Y01017*
X026Y01017*
X026Y01017*
X026Y01017*
X026Y01017*
X026Y01018*
X026Y01018*
X026Y01018*
X026Y01018*
X026Y01018*
X026Y01018*
X015Y01003D02*
D01*
X015Y01003*
X015Y01004*
X015Y01004*
X015Y01004*
X015Y01004*
X015Y01004*
X015Y01004*
X015Y01004*
X015Y01004*
X015Y01005*
X015Y01005*
X015Y01005*
X01499Y01005*
X01499Y01005*
X01499Y01005*
X01499Y01005*
X01499Y01005*
X01499Y01005*
X01499Y01005*
X01499Y01005*
X01498Y01005*
X01498Y01005*
X01498*
X01498Y01005*
X01498Y01005*
X01498Y01005*
X01498Y01005*
X01497Y01005*
X01497Y01005*
X01497Y01005*
X01497Y01005*
X01497Y01005*
X01497Y01005*
X01497Y01005*
X01497Y01005*
X01497Y01004*
X01497Y01004*
X01496Y01004*
X01496Y01004*
X01496Y01004*
X01496Y01004*
X01496Y01004*
X01496Y01004*
X01496Y01003*
X01496Y01003*
X01496Y01003*
X01496Y01003*
X01496Y01003*
X01496Y01003*
X01496Y01003*
X01496Y01002*
X01496Y01002*
X01497Y01002*
X01497Y01002*
X01497Y01002*
X01497Y01002*
X01497Y01002*
X01497Y01002*
X01497Y01002*
X01497Y01002*
X01497Y01001*
X01497Y01001*
X01498Y01001*
X01498Y01001*
X01498Y01001*
X01498Y01001*
X01498Y01001*
X01498*
X01498Y01001*
X01499Y01001*
X01499Y01001*
X01499Y01001*
X01499Y01001*
X01499Y01001*
X01499Y01002*
X01499Y01002*
X01499Y01002*
X015Y01002*
X015Y01002*
X015Y01002*
X015Y01002*
X015Y01002*
X015Y01002*
X015Y01002*
X015Y01003*
X015Y01003*
X015Y01003*
X015Y01003*
X015Y01003*
X015Y01003*
X00169Y00479D02*
D01*
X00169Y00479*
X00169Y00479*
X00169Y00479*
X00169Y00479*
X00169Y00478*
X00169Y00478*
X00169Y00478*
X00169Y00478*
X00169Y00478*
X00169Y00478*
X0017Y00478*
X0017Y00478*
X0017Y00478*
X0017Y00477*
X0017Y00477*
X0017Y00477*
X0017Y00477*
X0017Y00477*
X0017Y00477*
X00171Y00477*
X00171Y00477*
X00171Y00477*
X00171*
X00171Y00477*
X00171Y00477*
X00171Y00477*
X00172Y00477*
X00172Y00477*
X00172Y00477*
X00172Y00477*
X00172Y00477*
X00172Y00478*
X00172Y00478*
X00172Y00478*
X00172Y00478*
X00173Y00478*
X00173Y00478*
X00173Y00478*
X00173Y00478*
X00173Y00478*
X00173Y00479*
X00173Y00479*
X00173Y00479*
X00173Y00479*
X00173Y00479*
D01*
X00173Y00479*
X00173Y00479*
X00173Y00479*
X00173Y0048*
X00173Y0048*
X00173Y0048*
X00173Y0048*
X00173Y0048*
X00173Y0048*
X00172Y0048*
X00172Y0048*
X00172Y00481*
X00172Y00481*
X00172Y00481*
X00172Y00481*
X00172Y00481*
X00172Y00481*
X00172Y00481*
X00171Y00481*
X00171Y00481*
X00171Y00481*
X00171Y00481*
X00171*
X00171Y00481*
X00171Y00481*
X0017Y00481*
X0017Y00481*
X0017Y00481*
X0017Y00481*
X0017Y00481*
X0017Y00481*
X0017Y00481*
X0017Y00481*
X0017Y0048*
X00169Y0048*
X00169Y0048*
X00169Y0048*
X00169Y0048*
X00169Y0048*
X00169Y0048*
X00169Y0048*
X00169Y00479*
X00169Y00479*
X00169Y00479*
X00169Y00479*
G54D11*
X01402Y01059D02*
D01*
X01402Y01059*
X01402Y0106*
X01402Y0106*
X01401Y0106*
X01401Y01061*
X01401Y01061*
X01401Y01061*
X01401Y01062*
X01401Y01062*
X014Y01062*
X014Y01062*
X014Y01063*
X014Y01063*
X01399Y01063*
X01399Y01063*
X01399Y01063*
X01399Y01064*
X01398Y01064*
X01398Y01064*
X01398Y01064*
X01397Y01064*
X01397Y01064*
X01397*
X01396Y01064*
X01396Y01064*
X01396Y01064*
X01395Y01064*
X01395Y01064*
X01395Y01063*
X01394Y01063*
X01394Y01063*
X01394Y01063*
X01393Y01063*
X01393Y01062*
X01393Y01062*
X01393Y01062*
X01393Y01062*
X01392Y01061*
X01392Y01061*
X01392Y01061*
X01392Y0106*
X01392Y0106*
X01392Y0106*
X01392Y01059*
X01392Y01059*
X01392Y01059*
X01392Y01058*
X01392Y01058*
X01392Y01058*
X01392Y01057*
X01392Y01057*
X01392Y01057*
X01393Y01056*
X01393Y01056*
X01393Y01056*
X01393Y01056*
X01393Y01055*
X01394Y01055*
X01394Y01055*
X01394Y01055*
X01395Y01055*
X01395Y01054*
X01395Y01054*
X01396Y01054*
X01396Y01054*
X01396Y01054*
X01397Y01054*
X01397*
X01397Y01054*
X01398Y01054*
X01398Y01054*
X01398Y01054*
X01399Y01054*
X01399Y01055*
X01399Y01055*
X01399Y01055*
X014Y01055*
X014Y01055*
X014Y01056*
X014Y01056*
X01401Y01056*
X01401Y01056*
X01401Y01057*
X01401Y01057*
X01401Y01057*
X01401Y01058*
X01402Y01058*
X01402Y01058*
X01402Y01059*
X01402Y01059*
X02694Y00433D02*
D01*
X02694Y00433*
X02694Y00434*
X02694Y00434*
X02694Y00434*
X02694Y00435*
X02693Y00435*
X02693Y00435*
X02693Y00436*
X02693Y00436*
X02693Y00436*
X02692Y00437*
X02692Y00437*
X02692Y00437*
X02692Y00437*
X02691Y00437*
X02691Y00438*
X02691Y00438*
X0269Y00438*
X0269Y00438*
X0269Y00438*
X02689Y00438*
X02689Y00438*
X02689*
X02688Y00438*
X02688Y00438*
X02688Y00438*
X02687Y00438*
X02687Y00438*
X02687Y00438*
X02686Y00437*
X02686Y00437*
X02686Y00437*
X02686Y00437*
X02685Y00437*
X02685Y00436*
X02685Y00436*
X02685Y00436*
X02685Y00435*
X02684Y00435*
X02684Y00435*
X02684Y00434*
X02684Y00434*
X02684Y00434*
X02684Y00433*
X02684Y00433*
X02684Y00433*
X02684Y00432*
X02684Y00432*
X02684Y00432*
X02684Y00431*
X02684Y00431*
X02685Y00431*
X02685Y0043*
X02685Y0043*
X02685Y0043*
X02685Y0043*
X02686Y00429*
X02686Y00429*
X02686Y00429*
X02686Y00429*
X02687Y00429*
X02687Y00429*
X02687Y00428*
X02688Y00428*
X02688Y00428*
X02688Y00428*
X02689Y00428*
X02689*
X02689Y00428*
X0269Y00428*
X0269Y00428*
X0269Y00428*
X02691Y00429*
X02691Y00429*
X02691Y00429*
X02692Y00429*
X02692Y00429*
X02692Y00429*
X02692Y0043*
X02693Y0043*
X02693Y0043*
X02693Y0043*
X02693Y00431*
X02693Y00431*
X02694Y00431*
X02694Y00432*
X02694Y00432*
X02694Y00432*
X02694Y00433*
X02694Y00433*
X04516Y00422D02*
D01*
X04516Y00422*
X04516Y00422*
X04516Y00423*
X04516Y00423*
X04516Y00423*
X04516Y00424*
X04515Y00424*
X04515Y00424*
X04515Y00425*
X04515Y00425*
X04515Y00425*
X04514Y00425*
X04514Y00426*
X04514Y00426*
X04514Y00426*
X04513Y00426*
X04513Y00426*
X04513Y00426*
X04512Y00426*
X04512Y00427*
X04512Y00427*
X04511Y00427*
X04511*
X04511Y00427*
X0451Y00427*
X0451Y00426*
X0451Y00426*
X04509Y00426*
X04509Y00426*
X04509Y00426*
X04508Y00426*
X04508Y00426*
X04508Y00425*
X04508Y00425*
X04507Y00425*
X04507Y00425*
X04507Y00424*
X04507Y00424*
X04507Y00424*
X04506Y00423*
X04506Y00423*
X04506Y00423*
X04506Y00422*
X04506Y00422*
X04506Y00422*
X04506Y00421*
X04506Y00421*
X04506Y00421*
X04506Y0042*
X04506Y0042*
X04507Y0042*
X04507Y00419*
X04507Y00419*
X04507Y00419*
X04507Y00419*
X04508Y00418*
X04508Y00418*
X04508Y00418*
X04508Y00418*
X04509Y00417*
X04509Y00417*
X04509Y00417*
X0451Y00417*
X0451Y00417*
X0451Y00417*
X04511Y00417*
X04511Y00417*
X04511*
X04512Y00417*
X04512Y00417*
X04512Y00417*
X04513Y00417*
X04513Y00417*
X04513Y00417*
X04514Y00417*
X04514Y00418*
X04514Y00418*
X04514Y00418*
X04515Y00418*
X04515Y00419*
X04515Y00419*
X04515Y00419*
X04515Y00419*
X04516Y0042*
X04516Y0042*
X04516Y0042*
X04516Y00421*
X04516Y00421*
X04516Y00421*
X04516Y00422*
X03109Y00263D02*
D01*
X03109Y00263*
X03109Y00263*
X03109Y00264*
X03109Y00264*
X03109Y00264*
X03109Y00265*
X03109Y00265*
X03109Y00265*
X03108Y00265*
X03108Y00266*
X03108Y00266*
X03108Y00266*
X03108Y00266*
X03107Y00267*
X03107Y00267*
X03107Y00267*
X03106Y00267*
X03106Y00267*
X03106Y00267*
X03105Y00267*
X03105Y00267*
X03105Y00267*
X03104*
X03104Y00267*
X03104Y00267*
X03103Y00267*
X03103Y00267*
X03103Y00267*
X03102Y00267*
X03102Y00267*
X03102Y00267*
X03101Y00266*
X03101Y00266*
X03101Y00266*
X03101Y00266*
X03101Y00265*
X031Y00265*
X031Y00265*
X031Y00265*
X031Y00264*
X031Y00264*
X031Y00264*
X031Y00263*
X031Y00263*
X031Y00263*
X031Y00262*
X031Y00262*
X031Y00262*
X031Y00261*
X031Y00261*
X031Y00261*
X031Y0026*
X031Y0026*
X03101Y0026*
X03101Y00259*
X03101Y00259*
X03101Y00259*
X03101Y00259*
X03102Y00258*
X03102Y00258*
X03102Y00258*
X03103Y00258*
X03103Y00258*
X03103Y00258*
X03104Y00258*
X03104Y00258*
X03104Y00258*
X03105*
X03105Y00258*
X03105Y00258*
X03106Y00258*
X03106Y00258*
X03106Y00258*
X03107Y00258*
X03107Y00258*
X03107Y00258*
X03108Y00259*
X03108Y00259*
X03108Y00259*
X03108Y00259*
X03108Y0026*
X03109Y0026*
X03109Y0026*
X03109Y00261*
X03109Y00261*
X03109Y00261*
X03109Y00262*
X03109Y00262*
X03109Y00262*
X03109Y00263*
G54D12*
X0047Y00862D02*
D01*
X0047Y00863*
X0047Y00863*
X00469Y00863*
X00469Y00863*
X00469Y00864*
X00469Y00864*
X00469Y00864*
X00469Y00864*
X00469Y00865*
X00469Y00865*
X00468Y00865*
X00468Y00865*
X00468Y00865*
X00468Y00866*
X00468Y00866*
X00467Y00866*
X00467Y00866*
X00467Y00866*
X00467Y00866*
X00466Y00866*
X00466Y00866*
X00466Y00866*
X00465*
X00465Y00866*
X00465Y00866*
X00465Y00866*
X00464Y00866*
X00464Y00866*
X00464Y00866*
X00464Y00866*
X00463Y00866*
X00463Y00865*
X00463Y00865*
X00463Y00865*
X00463Y00865*
X00462Y00865*
X00462Y00864*
X00462Y00864*
X00462Y00864*
X00462Y00864*
X00462Y00863*
X00462Y00863*
X00462Y00863*
X00462Y00863*
X00462Y00862*
X00462Y00862*
X00462Y00862*
X00462Y00861*
X00462Y00861*
X00462Y00861*
X00462Y00861*
X00462Y0086*
X00462Y0086*
X00462Y0086*
X00463Y0086*
X00463Y0086*
X00463Y00859*
X00463Y00859*
X00463Y00859*
X00464Y00859*
X00464Y00859*
X00464Y00859*
X00464Y00859*
X00465Y00858*
X00465Y00858*
X00465Y00858*
X00465Y00858*
X00466*
X00466Y00858*
X00466Y00858*
X00467Y00858*
X00467Y00859*
X00467Y00859*
X00467Y00859*
X00468Y00859*
X00468Y00859*
X00468Y00859*
X00468Y00859*
X00468Y0086*
X00469Y0086*
X00469Y0086*
X00469Y0086*
X00469Y0086*
X00469Y00861*
X00469Y00861*
X00469Y00861*
X00469Y00861*
X0047Y00862*
X0047Y00862*
X0047Y00862*
X01756Y01173D02*
D01*
X01756Y01173*
X01756Y01174*
X01756Y01174*
X01756Y01174*
X01756Y01174*
X01756Y01175*
X01756Y01175*
X01755Y01175*
X01755Y01175*
X01755Y01176*
X01755Y01176*
X01755Y01176*
X01755Y01176*
X01754Y01176*
X01754Y01177*
X01754Y01177*
X01754Y01177*
X01753Y01177*
X01753Y01177*
X01753Y01177*
X01753Y01177*
X01752Y01177*
X01752*
X01752Y01177*
X01751Y01177*
X01751Y01177*
X01751Y01177*
X01751Y01177*
X0175Y01177*
X0175Y01177*
X0175Y01176*
X0175Y01176*
X0175Y01176*
X01749Y01176*
X01749Y01176*
X01749Y01175*
X01749Y01175*
X01749Y01175*
X01749Y01175*
X01748Y01174*
X01748Y01174*
X01748Y01174*
X01748Y01174*
X01748Y01173*
X01748Y01173*
X01748Y01173*
X01748Y01173*
X01748Y01172*
X01748Y01172*
X01748Y01172*
X01749Y01172*
X01749Y01171*
X01749Y01171*
X01749Y01171*
X01749Y01171*
X01749Y0117*
X0175Y0117*
X0175Y0117*
X0175Y0117*
X0175Y0117*
X0175Y0117*
X01751Y01169*
X01751Y01169*
X01751Y01169*
X01751Y01169*
X01752Y01169*
X01752Y01169*
X01752*
X01753Y01169*
X01753Y01169*
X01753Y01169*
X01753Y01169*
X01754Y01169*
X01754Y0117*
X01754Y0117*
X01754Y0117*
X01755Y0117*
X01755Y0117*
X01755Y0117*
X01755Y01171*
X01755Y01171*
X01755Y01171*
X01756Y01171*
X01756Y01172*
X01756Y01172*
X01756Y01172*
X01756Y01172*
X01756Y01173*
X01756Y01173*
X01756Y01173*
X02267Y00844D02*
D01*
X02267Y00845*
X02267Y00845*
X02267Y00845*
X02267Y00845*
X02267Y00846*
X02267Y00846*
X02267Y00846*
X02266Y00846*
X02266Y00847*
X02266Y00847*
X02266Y00847*
X02266Y00847*
X02265Y00847*
X02265Y00848*
X02265Y00848*
X02265Y00848*
X02265Y00848*
X02264Y00848*
X02264Y00848*
X02264Y00848*
X02263Y00848*
X02263Y00848*
X02263*
X02263Y00848*
X02262Y00848*
X02262Y00848*
X02262Y00848*
X02262Y00848*
X02261Y00848*
X02261Y00848*
X02261Y00848*
X02261Y00847*
X0226Y00847*
X0226Y00847*
X0226Y00847*
X0226Y00847*
X0226Y00846*
X0226Y00846*
X02259Y00846*
X02259Y00846*
X02259Y00845*
X02259Y00845*
X02259Y00845*
X02259Y00845*
X02259Y00844*
X02259Y00844*
X02259Y00844*
X02259Y00843*
X02259Y00843*
X02259Y00843*
X02259Y00843*
X0226Y00842*
X0226Y00842*
X0226Y00842*
X0226Y00842*
X0226Y00842*
X0226Y00841*
X02261Y00841*
X02261Y00841*
X02261Y00841*
X02261Y00841*
X02262Y00841*
X02262Y00841*
X02262Y0084*
X02262Y0084*
X02263Y0084*
X02263Y0084*
X02263*
X02263Y0084*
X02264Y0084*
X02264Y0084*
X02264Y00841*
X02265Y00841*
X02265Y00841*
X02265Y00841*
X02265Y00841*
X02265Y00841*
X02266Y00841*
X02266Y00842*
X02266Y00842*
X02266Y00842*
X02266Y00842*
X02267Y00842*
X02267Y00843*
X02267Y00843*
X02267Y00843*
X02267Y00843*
X02267Y00844*
X02267Y00844*
X02267Y00844*
X0228Y00325D02*
D01*
X0228Y00325*
X0228Y00326*
X02279Y00326*
X02279Y00326*
X02279Y00326*
X02279Y00327*
X02279Y00327*
X02279Y00327*
X02279Y00327*
X02279Y00328*
X02278Y00328*
X02278Y00328*
X02278Y00328*
X02278Y00328*
X02278Y00329*
X02277Y00329*
X02277Y00329*
X02277Y00329*
X02277Y00329*
X02276Y00329*
X02276Y00329*
X02276Y00329*
X02275*
X02275Y00329*
X02275Y00329*
X02275Y00329*
X02274Y00329*
X02274Y00329*
X02274Y00329*
X02274Y00329*
X02273Y00328*
X02273Y00328*
X02273Y00328*
X02273Y00328*
X02273Y00328*
X02272Y00327*
X02272Y00327*
X02272Y00327*
X02272Y00327*
X02272Y00326*
X02272Y00326*
X02272Y00326*
X02272Y00326*
X02272Y00325*
X02272Y00325*
X02272Y00325*
X02272Y00325*
X02272Y00324*
X02272Y00324*
X02272Y00324*
X02272Y00323*
X02272Y00323*
X02272Y00323*
X02272Y00323*
X02273Y00323*
X02273Y00322*
X02273Y00322*
X02273Y00322*
X02273Y00322*
X02274Y00322*
X02274Y00322*
X02274Y00321*
X02274Y00321*
X02275Y00321*
X02275Y00321*
X02275Y00321*
X02275Y00321*
X02276*
X02276Y00321*
X02276Y00321*
X02277Y00321*
X02277Y00321*
X02277Y00321*
X02277Y00322*
X02278Y00322*
X02278Y00322*
X02278Y00322*
X02278Y00322*
X02278Y00322*
X02279Y00323*
X02279Y00323*
X02279Y00323*
X02279Y00323*
X02279Y00323*
X02279Y00324*
X02279Y00324*
X02279Y00324*
X0228Y00325*
X0228Y00325*
X0228Y00325*
X01306Y00171D02*
D01*
X01306Y00171*
X01306Y00171*
X01306Y00171*
X01305Y00172*
X01305Y00172*
X01305Y00172*
X01305Y00172*
X01305Y00173*
X01305Y00173*
X01305Y00173*
X01305Y00173*
X01304Y00174*
X01304Y00174*
X01304Y00174*
X01304Y00174*
X01303Y00174*
X01303Y00174*
X01303Y00174*
X01303Y00174*
X01302Y00174*
X01302Y00175*
X01302Y00175*
X01302*
X01301Y00175*
X01301Y00174*
X01301Y00174*
X013Y00174*
X013Y00174*
X013Y00174*
X013Y00174*
X013Y00174*
X01299Y00174*
X01299Y00174*
X01299Y00173*
X01299Y00173*
X01299Y00173*
X01298Y00173*
X01298Y00172*
X01298Y00172*
X01298Y00172*
X01298Y00172*
X01298Y00171*
X01298Y00171*
X01298Y00171*
X01298Y00171*
X01298Y0017*
X01298Y0017*
X01298Y0017*
X01298Y0017*
X01298Y00169*
X01298Y00169*
X01298Y00169*
X01298Y00169*
X01299Y00168*
X01299Y00168*
X01299Y00168*
X01299Y00168*
X01299Y00167*
X013Y00167*
X013Y00167*
X013Y00167*
X013Y00167*
X013Y00167*
X01301Y00167*
X01301Y00167*
X01301Y00167*
X01302Y00167*
X01302*
X01302Y00167*
X01302Y00167*
X01303Y00167*
X01303Y00167*
X01303Y00167*
X01303Y00167*
X01304Y00167*
X01304Y00167*
X01304Y00167*
X01304Y00168*
X01305Y00168*
X01305Y00168*
X01305Y00168*
X01305Y00169*
X01305Y00169*
X01305Y00169*
X01305Y00169*
X01305Y0017*
X01306Y0017*
X01306Y0017*
X01306Y0017*
X01306Y00171*
X0355Y00302D02*
Y00327D01*
X03509Y00302D02*
Y00327D01*
X02502Y00353D02*
Y00386D01*
X02547Y00353D02*
Y00386D01*
X01468Y0032D02*
X01475D01*
X01674D02*
X01681D01*
X01468Y00631D02*
X01475D01*
X01674D02*
X01681D01*
X01468Y0032D02*
Y00631D01*
X01681Y0032D02*
Y00631D01*
X01762Y00567D02*
X01877D01*
X01762Y00492D02*
X01877D01*
X03072Y01172D02*
Y01222D01*
Y00957D02*
Y01007D01*
Y00957D02*
X03337D01*
Y01172D02*
Y01222D01*
Y00957D02*
Y01007D01*
X03072Y01222D02*
X03337D01*
X01177Y00847D02*
X01292D01*
X01177Y00772D02*
X01292D01*
X01282Y00997D02*
X01397D01*
X01282Y00922D02*
X01397D01*
X00793Y0117D02*
X00816D01*
X01445Y01084D02*
Y01125D01*
X01374Y01084D02*
Y01125D01*
X00673Y01207D02*
X00696D01*
X04657Y00568D02*
Y00601D01*
X04702Y00568D02*
Y00601D01*
X03852Y00863D02*
Y00886D01*
X02737Y00458D02*
Y00499D01*
X02666Y00458D02*
Y00499D01*
X03363Y00792D02*
X03386D01*
X02895Y00684D02*
Y00733D01*
X02944Y00684D02*
Y00733D01*
X03562Y0071D02*
Y00779D01*
X03496Y0071D02*
Y00779D01*
X03145Y00757D02*
X03214D01*
X03145Y00823D02*
X03214D01*
X02617Y00768D02*
Y0081D01*
X02562Y00768D02*
Y0081D01*
X02582Y00917D02*
Y00942D01*
X02537Y00917D02*
Y00942D01*
X03893Y00302D02*
Y00368D01*
X03826Y00302D02*
Y00368D01*
X04012Y00293D02*
Y00335D01*
X03957Y00293D02*
Y00335D01*
X044Y00521D02*
Y0057D01*
X04449Y00521D02*
Y0057D01*
X05542Y00978D02*
Y01011D01*
X05587Y00978D02*
Y01011D01*
X05509Y0092D02*
Y00945D01*
X0546Y0092D02*
Y00945D01*
X02735Y00253D02*
X02754D01*
X02735Y00296D02*
X02754D01*
X05132Y01182D02*
Y01232D01*
Y00967D02*
Y01017D01*
Y00967D02*
X05397D01*
Y01182D02*
Y01232D01*
Y00967D02*
Y01017D01*
X05132Y01232D02*
X05397D01*
X0478Y01366D02*
Y01415D01*
X04829Y01366D02*
Y01415D01*
X04894Y0048D02*
Y00579D01*
X04965Y0048D02*
Y00579D01*
X04874Y00274D02*
Y00372D01*
X04945Y00274D02*
Y00372D01*
X05185Y00774D02*
X05284D01*
X05185Y00845D02*
X05284D01*
X01027Y01285D02*
Y01354D01*
X00961Y01285D02*
Y01354D01*
X00497Y0104D02*
Y01109D01*
X00431Y0104D02*
Y01109D01*
X04687Y01379D02*
Y0142D01*
X04632Y01379D02*
Y0142D01*
X04702Y01204D02*
Y01245D01*
X04647Y01204D02*
Y01245D01*
X04697Y00904D02*
Y00945D01*
X04642Y00904D02*
Y00945D01*
X04507Y00272D02*
Y00297D01*
X04462Y00272D02*
Y00297D01*
X04576Y00741D02*
X04643D01*
X04576Y00808D02*
X04643D01*
X04517Y01229D02*
Y0127D01*
X04462Y01229D02*
Y0127D01*
X04295Y01315D02*
Y01364D01*
X04344Y01315D02*
Y01364D01*
X04732Y00298D02*
Y00331D01*
X04777Y00298D02*
Y00331D01*
X04639Y00277D02*
Y00302D01*
X0459Y00277D02*
Y00302D01*
X04293Y0029D02*
Y00309D01*
X04336Y0029D02*
Y00309D01*
X04077Y00647D02*
Y00697D01*
Y00432D02*
Y00482D01*
Y00432D02*
X04342D01*
Y00647D02*
Y00697D01*
Y00432D02*
Y00482D01*
X04077Y00697D02*
X04342D01*
X01655Y01375D02*
Y01424D01*
X01704Y01375D02*
Y01424D01*
X00444Y01205D02*
Y01304D01*
X00515Y01205D02*
Y01304D01*
X00329Y0111D02*
Y01209D01*
X004Y0111D02*
Y01209D01*
X04404Y01382D02*
Y0148D01*
X04475Y01382D02*
Y0148D01*
X0349Y01372D02*
X03559D01*
X0349Y01438D02*
X03559D01*
X0303Y01337D02*
X03099D01*
X03031Y01403D02*
X03099D01*
X02695Y01499D02*
X02744D01*
X02695Y0145D02*
X02744D01*
X02381Y01321D02*
X02447D01*
X02381Y01388D02*
X02447D01*
X00907Y00662D02*
Y00712D01*
Y00447D02*
Y00497D01*
Y00447D02*
X01172D01*
Y00662D02*
Y00712D01*
Y00447D02*
Y00497D01*
X00907Y00712D02*
X01172D01*
X05479Y00592D02*
Y0069D01*
X0555Y00592D02*
Y0069D01*
X05469Y0035D02*
Y00449D01*
X0554Y0035D02*
Y00449D01*
X05125Y0033D02*
X05224D01*
X05125Y00259D02*
X05224D01*
X04624Y00498D02*
Y00621D01*
X04475Y00498D02*
Y00621D01*
X02937Y00168D02*
Y00201D01*
X02982Y00168D02*
Y00201D01*
X03648Y01069D02*
X03655D01*
X03854D02*
X03861D01*
X03648Y0138D02*
X03655D01*
X03854D02*
X03861D01*
X03648Y01069D02*
Y0138D01*
X03861Y01069D02*
Y0138D01*
X01685Y00227D02*
X01799D01*
X01685Y00152D02*
X01799D01*
X02007Y00632D02*
Y00682D01*
Y00417D02*
Y00467D01*
Y00417D02*
X02272D01*
Y00632D02*
Y00682D01*
Y00417D02*
Y00467D01*
X02007Y00682D02*
X02272D01*
X00355Y00502D02*
X00469D01*
X00355Y00427D02*
X00469D01*
X00537Y00382D02*
Y00497D01*
X00612Y00382D02*
Y00497D01*
X04555Y01081D02*
Y0113D01*
X04604Y01081D02*
Y0113D01*
X02732Y00614D02*
Y00683D01*
X02666Y00615D02*
Y00683D01*
X0326Y00287D02*
X03329D01*
X0326Y00353D02*
X03329D01*
X02432Y00444D02*
Y00485D01*
X02377Y00444D02*
Y00485D01*
X03522Y00524D02*
Y00549D01*
X03477Y00524D02*
Y00549D01*
X01653Y00811D02*
Y00878D01*
X01586Y00811D02*
Y00878D01*
X01572Y00709D02*
Y0075D01*
X01517Y00709D02*
Y0075D01*
X0129Y0047D02*
Y00519D01*
X01339Y0047D02*
Y00519D01*
X03572Y01258D02*
Y01291D01*
X03617Y01258D02*
Y01291D01*
X03014Y00954D02*
Y00979D01*
X02965Y00954D02*
Y00979D01*
X02908Y01121D02*
Y01141D01*
X02951Y01121D02*
Y01141D01*
X02012Y01182D02*
Y01232D01*
Y00967D02*
Y01017D01*
Y00967D02*
X02277D01*
Y01182D02*
Y01232D01*
Y00967D02*
Y01017D01*
X02012Y01232D02*
X02277D01*
X0177Y0132D02*
Y01369D01*
X01819Y0132D02*
Y01369D01*
X00729Y009D02*
Y00999D01*
X008Y009D02*
Y00999D01*
X00539Y0097D02*
Y01069D01*
X0061Y0097D02*
Y01069D01*
X01807Y00325D02*
Y00394D01*
X01741Y00326D02*
Y00394D01*
X03005Y00857D02*
X03074D01*
X03005Y00791D02*
X03074D01*
X0055Y00627D02*
X00591D01*
X0055Y00682D02*
X00591D01*
X0283Y00592D02*
X02855D01*
X0283Y00547D02*
X02855D01*
X01448Y00736D02*
Y00803D01*
X01381Y00736D02*
Y00803D01*
X02047Y00834D02*
Y00875D01*
X01992Y00834D02*
Y00875D01*
X01865Y00611D02*
Y0066D01*
X01914Y00611D02*
Y0066D01*
X02082Y00738D02*
Y00771D01*
X02127Y00738D02*
Y00771D01*
X02107Y00904D02*
X02132D01*
X02107Y00855D02*
X02132D01*
X03263Y01346D02*
Y01366D01*
X03306Y01346D02*
Y01366D01*
X05137Y00647D02*
Y00697D01*
Y00432D02*
Y00482D01*
Y00432D02*
X05402D01*
Y00647D02*
Y00697D01*
Y00432D02*
Y00482D01*
X05137Y00697D02*
X05402D01*
X0253Y014D02*
Y01449D01*
X02579Y014D02*
Y01449D01*
X04457Y00929D02*
X04555D01*
X04457Y01D02*
X04555D01*
X03675Y00269D02*
X03774D01*
X03675Y0034D02*
X03774D01*
X04347Y00749D02*
X04445D01*
X04347Y0082D02*
X04445D01*
X04725Y00747D02*
Y00772D01*
X04684Y00747D02*
Y00772D01*
X03417Y00333D02*
Y00366D01*
X03462Y00333D02*
Y00366D01*
X02598Y01034D02*
X02605D01*
X02804D02*
X02811D01*
X02598Y01345D02*
X02605D01*
X02804D02*
X02811D01*
X02598Y01034D02*
Y01345D01*
X02811Y01034D02*
Y01345D01*
X05307Y00322D02*
X05422D01*
X05307Y00247D02*
X05422D01*
X04087Y01172D02*
Y01222D01*
Y00957D02*
Y01007D01*
Y00957D02*
X04352D01*
Y01172D02*
Y01222D01*
Y00957D02*
Y01007D01*
X04087Y01222D02*
X04352D01*
X03922Y01332D02*
X04037D01*
X03922Y01407D02*
X04037D01*
X04142Y00732D02*
X04257D01*
X04142Y00807D02*
X04257D01*
X02675Y00837D02*
X02744D01*
X02675Y00903D02*
X02744D01*
X02383Y00632D02*
X02416D01*
X02383Y00587D02*
X02416D01*
X02445Y00697D02*
X02514D01*
X02445Y00763D02*
X02514D01*
X01691Y00686D02*
X01758D01*
X01691Y00753D02*
X01758D01*
X0175Y00849D02*
X01799D01*
X0175Y008D02*
X01799D01*
X00917Y01182D02*
Y01232D01*
Y00967D02*
Y01017D01*
Y00967D02*
X01182D01*
Y01182D02*
Y01232D01*
Y00967D02*
Y01017D01*
X00917Y01232D02*
X01182D01*
X04102Y0032D02*
X042D01*
X04102Y00249D02*
X042D01*
X03457Y01215D02*
X03555D01*
X03457Y01144D02*
X03555D01*
X01122Y0019D02*
X01147D01*
X01122Y00149D02*
X01147D01*
X00737Y00213D02*
Y00246D01*
X00782Y00213D02*
Y00246D01*
X01498Y01019D02*
X01505D01*
X01704D02*
X01711D01*
X01498Y0133D02*
X01505D01*
X01704D02*
X01711D01*
X01498Y01019D02*
Y0133D01*
X01711Y01019D02*
Y0133D01*
X00707Y00407D02*
Y00522D01*
X00782Y00407D02*
Y00522D01*
X03082Y00647D02*
Y00697D01*
Y00432D02*
Y00482D01*
Y00432D02*
X03347D01*
Y00647D02*
Y00697D01*
Y00432D02*
Y00482D01*
X03082Y00697D02*
X03347D01*
X03682Y00727D02*
Y00842D01*
X03757Y00727D02*
Y00842D01*
X03472Y00932D02*
Y01047D01*
X03547Y00932D02*
Y01047D01*
X00114Y01087D02*
X00149D01*
Y00442D02*
Y01087D01*
X00114Y00442D02*
X00149D01*
X0Y00469D02*
Y0106D01*
X00114Y01072D02*
Y01099D01*
X00055D02*
X00114D01*
X00055Y0043D02*
X00114D01*
Y00457*
X01525Y00177D02*
X0155D01*
X01525Y00222D02*
X0155D01*
X01405Y00507D02*
X0143D01*
X01405Y00552D02*
X0143D01*
X02953Y0052D02*
X02976D01*
X03153Y00287D02*
Y00329D01*
X03082Y00287D02*
Y00329D01*
X02803Y00762D02*
X02826D01*
X0258Y00605D02*
Y00654D01*
X02629Y00605D02*
Y00654D01*
G54D13*
X01043Y00368D02*
X01063D01*
X00757Y00788D02*
X00777D01*
X02913Y00424D02*
X02933D01*
X03697Y00598D02*
X03717D01*
G54D14*
X00495Y00883D02*
X00574D01*
X00495Y00791D02*
X00574D01*
X01854Y01109D02*
X01869D01*
X0179D02*
X01805D01*
X01854Y0119D02*
X01869D01*
X0179D02*
X01805D01*
X02305Y00345D02*
X02384D01*
X02305Y00254D02*
X02384D01*
X01281Y002D02*
Y00279D01*
X01373Y002D02*
Y00279D01*
G54D15*
X00447Y00655D02*
X00462D01*
X00342Y00685D02*
X00357D01*
X01882Y0134D02*
X01897D01*
X04938Y00758D02*
Y00781D01*
X04981Y00758D02*
Y00781D01*
X04863Y00968D02*
Y00992D01*
X04906Y00968D02*
Y00992D01*
X05037Y00357D02*
X05052D01*
X04973Y00963D02*
Y00986D01*
X05016Y00963D02*
Y00986D01*
X05007Y00505D02*
X05022D01*
X05012Y0066D02*
X05027D01*
X04747Y01125D02*
X04762D01*
X02202Y00747D02*
X02217D01*
G54D16*
X0105Y00234D02*
X0103D01*
Y00243*
X01033Y00247*
X0104*
X01043Y00243*
Y00234*
Y0024D02*
X0105Y00247D01*
X0103Y00266D02*
Y00253D01*
X0105*
Y00266*
X0104Y00253D02*
Y0026D01*
X0103Y00286D02*
Y00273D01*
X0104*
Y0028*
Y00273*
X0105*
X0103Y00293D02*
X0105D01*
Y00303*
X01047Y00306*
X01033*
X0103Y00303*
Y00293*
Y00325D02*
Y00312D01*
X0105*
Y00325*
X0104Y00312D02*
Y00319D01*
X01033Y00345D02*
X0103Y00342D01*
Y00335*
X01033Y00332*
X01037*
X0104Y00335*
Y00342*
X01043Y00345*
X01047*
X0105Y00342*
Y00335*
X01047Y00332*
X0105Y00246D02*
X0103D01*
Y00256*
X01033Y00259*
X0104*
X01043Y00256*
Y00246*
Y00253D02*
X0105Y00259D01*
Y00276D02*
Y00269D01*
X01047Y00266*
X0104*
X01037Y00269*
Y00276*
X0104Y00279*
X01043*
Y00266*
X0105Y00289D02*
X01033D01*
X0104*
Y00286*
Y00292*
Y00289*
X01033*
X0103Y00292*
Y00302D02*
X0105D01*
Y00312*
X01047Y00315*
X01033*
X0103Y00312*
Y00302*
X0105Y00331D02*
Y00325D01*
X01047Y00322*
X0104*
X01037Y00325*
Y00331*
X0104Y00335*
X01043*
Y00322*
X0105Y00341D02*
Y00351D01*
X01047Y00354*
X01043Y00351*
Y00345*
X0104Y00341*
X01037Y00345*
Y00354*
X01014Y00248D02*
X01027Y00261D01*
Y00248D02*
X01014Y00261D01*
X0102Y00248D02*
Y00261D01*
X01027Y00255D02*
X01014D01*
X00764Y00654D02*
X00745D01*
Y00663*
X00748Y00667*
X00754*
X00758Y00663*
Y00654*
Y0066D02*
X00764Y00667D01*
X00745Y00686D02*
Y00673D01*
X00764*
Y00686*
X00754Y00673D02*
Y0068D01*
X00745Y00706D02*
Y00693D01*
X00754*
Y007*
Y00693*
X00764*
X00745Y00713D02*
X00764D01*
Y00723*
X00761Y00726*
X00748*
X00745Y00723*
Y00713*
Y00745D02*
Y00732D01*
X00764*
Y00745*
X00754Y00732D02*
Y00739D01*
X00748Y00765D02*
X00745Y00762D01*
Y00755*
X00748Y00752*
X00751*
X00754Y00755*
Y00762*
X00758Y00765*
X00761*
X00764Y00762*
Y00755*
X00761Y00752*
X00764Y00666D02*
X00745D01*
Y00676*
X00748Y00679*
X00754*
X00758Y00676*
Y00666*
Y00673D02*
X00764Y00679D01*
Y00696D02*
Y00689D01*
X00761Y00686*
X00754*
X00751Y00689*
Y00696*
X00754Y00699*
X00758*
Y00686*
X00764Y00709D02*
X00748D01*
X00754*
Y00706*
Y00712*
Y00709*
X00748*
X00745Y00712*
Y00722D02*
X00764D01*
Y00732*
X00761Y00735*
X00748*
X00745Y00732*
Y00722*
X00764Y00751D02*
Y00745D01*
X00761Y00742*
X00754*
X00751Y00745*
Y00751*
X00754Y00755*
X00758*
Y00742*
X00764Y00761D02*
Y00771D01*
X00761Y00774*
X00758Y00771*
Y00765*
X00754Y00761*
X00751Y00765*
Y00774*
X00728Y00668D02*
X00741Y00681D01*
Y00668D02*
X00728Y00681D01*
X00735Y00668D02*
Y00681D01*
X00741Y00675D02*
X00728D01*
X0292Y0029D02*
X029D01*
Y003*
X02903Y00303*
X0291*
X02913Y003*
Y0029*
Y00297D02*
X0292Y00303D01*
X029Y00323D02*
Y0031D01*
X0292*
Y00323*
X0291Y0031D02*
Y00317D01*
X029Y00343D02*
Y0033D01*
X0291*
Y00336*
Y0033*
X0292*
X029Y00349D02*
X0292D01*
Y00359*
X02916Y00363*
X02903*
X029Y00359*
Y00349*
Y00382D02*
Y00369D01*
X0292*
Y00382*
X0291Y00369D02*
Y00376D01*
X02903Y00402D02*
X029Y00399D01*
Y00392*
X02903Y00389*
X02906*
X0291Y00392*
Y00399*
X02913Y00402*
X02916*
X0292Y00399*
Y00392*
X02916Y00389*
X0292Y00303D02*
X029D01*
Y00313*
X02903Y00316*
X0291*
X02913Y00313*
Y00303*
Y00309D02*
X0292Y00316D01*
Y00332D02*
Y00326D01*
X02916Y00323*
X0291*
X02906Y00326*
Y00332*
X0291Y00336*
X02913*
Y00323*
X0292Y00345D02*
X02903D01*
X0291*
Y00342*
Y00349*
Y00345*
X02903*
X029Y00349*
Y00359D02*
X0292D01*
Y00368*
X02916Y00372*
X02903*
X029Y00368*
Y00359*
X0292Y00388D02*
Y00382D01*
X02916Y00378*
X0291*
X02906Y00382*
Y00388*
X0291Y00391*
X02913*
Y00378*
X0292Y00398D02*
Y00408D01*
X02916Y00411*
X02913Y00408*
Y00401*
X0291Y00398*
X02906Y00401*
Y00411*
X02883Y00305D02*
X02897Y00318D01*
Y00305D02*
X02883Y00318D01*
X0289Y00305D02*
Y00318D01*
X02897Y00311D02*
X02883D01*
X03704Y00464D02*
X03685D01*
Y00473*
X03688Y00477*
X03694*
X03698Y00473*
Y00464*
Y0047D02*
X03704Y00477D01*
X03685Y00496D02*
Y00483D01*
X03704*
Y00496*
X03694Y00483D02*
Y0049D01*
X03685Y00516D02*
Y00503D01*
X03694*
Y0051*
Y00503*
X03704*
X03685Y00523D02*
X03704D01*
Y00533*
X03701Y00536*
X03688*
X03685Y00533*
Y00523*
Y00555D02*
Y00542D01*
X03704*
Y00555*
X03694Y00542D02*
Y00549D01*
X03688Y00575D02*
X03685Y00572D01*
Y00565*
X03688Y00562*
X03691*
X03694Y00565*
Y00572*
X03698Y00575*
X03701*
X03704Y00572*
Y00565*
X03701Y00562*
X03704Y00476D02*
X03685D01*
Y00486*
X03688Y00489*
X03694*
X03698Y00486*
Y00476*
Y00483D02*
X03704Y00489D01*
Y00506D02*
Y00499D01*
X03701Y00496*
X03694*
X03691Y00499*
Y00506*
X03694Y00509*
X03698*
Y00496*
X03704Y00519D02*
X03688D01*
X03694*
Y00516*
Y00522*
Y00519*
X03688*
X03685Y00522*
Y00532D02*
X03704D01*
Y00542*
X03701Y00545*
X03688*
X03685Y00542*
Y00532*
X03704Y00561D02*
Y00555D01*
X03701Y00552*
X03694*
X03691Y00555*
Y00561*
X03694Y00565*
X03698*
Y00552*
X03704Y00571D02*
Y00581D01*
X03701Y00584*
X03698Y00581*
Y00575*
X03694Y00571*
X03691Y00575*
Y00584*
X03668Y00478D02*
X03681Y00491D01*
Y00478D02*
X03668Y00491D01*
X03675Y00478D02*
Y00491D01*
X03681Y00485D02*
X03668D01*
G54D17*
X00666Y00855D02*
Y00839D01*
X00669Y00836*
X00675*
X00679Y00839*
Y00855*
X00685Y00839D02*
X00688Y00836D01*
X00695*
X00698Y00839*
Y00852*
X00695Y00855*
X00688*
X00685Y00852*
Y00849*
X00688Y00845*
X00698*
X01381Y01185D02*
Y01169D01*
X01384Y01166*
X0139*
X01394Y01169*
Y01185*
X014Y01182D02*
X01403Y01185D01*
X0141*
X01413Y01182*
Y01179*
X0141Y01175*
X01413Y01172*
Y01169*
X0141Y01166*
X01403*
X014Y01169*
Y01172*
X01403Y01175*
X014Y01179*
Y01182*
X01403Y01175D02*
X0141D01*
X00951Y00435D02*
Y00419D01*
X00954Y00416*
X0096*
X00964Y00419*
Y00435*
X0097D02*
X00983D01*
Y00432*
X0097Y00419*
Y00416*
X03088Y00389D02*
Y00373D01*
X03091Y0037*
X03097*
X03101Y00373*
Y00389*
X0312D02*
X03114Y00386D01*
X03107Y00379*
Y00373*
X0311Y0037*
X03117*
X0312Y00373*
Y00376*
X03117Y00379*
X03107*
X04482Y00731D02*
Y00715D01*
X04485Y00712*
X04491*
X04495Y00715*
Y00731*
X04514D02*
X04501D01*
Y00721*
X04508Y00725*
X04511*
X04514Y00721*
Y00715*
X04511Y00712*
X04504*
X04501Y00715*
X02821Y00492D02*
Y00476D01*
X02824Y00473*
X0283*
X02834Y00476*
Y00492*
X0285Y00473D02*
Y00492D01*
X0284Y00482*
X02853*
X02673Y0056D02*
Y00544D01*
X02676Y00541*
X02682*
X02686Y00544*
Y0056*
X02692Y00557D02*
X02695Y0056D01*
X02702*
X02705Y00557*
Y00554*
X02702Y0055*
X02699*
X02702*
X02705Y00547*
Y00544*
X02702Y00541*
X02695*
X02692Y00544*
X03606Y00665D02*
Y00649D01*
X03609Y00646*
X03615*
X03619Y00649*
Y00665*
X03638Y00646D02*
X03625D01*
X03638Y00659*
Y00662*
X03635Y00665*
X03628*
X03625Y00662*
X02266Y00952D02*
Y00936D01*
X02269Y00933*
X02275*
X02279Y00936*
Y00952*
X02285Y00933D02*
X02292D01*
X02288*
Y00952*
X02285Y00949*
X0439Y00384D02*
Y00403D01*
X04399*
X04403Y004*
Y00393*
X04399Y0039*
X0439*
X04396D02*
X04403Y00384D01*
X04409Y004D02*
X04412Y00403D01*
X04419*
X04422Y004*
Y00397*
X04419Y00393*
X04422Y0039*
Y00387*
X04419Y00384*
X04412*
X04409Y00387*
Y0039*
X04412Y00393*
X04409Y00397*
Y004*
X04412Y00393D02*
X04419D01*
X04442Y00403D02*
X04435Y004D01*
X04429Y00393*
Y00387*
X04432Y00384*
X04439*
X04442Y00387*
Y0039*
X04439Y00393*
X04429*
X00605Y00296D02*
Y00315D01*
X00614*
X00618Y00312*
Y00305*
X00614Y00302*
X00605*
X00611D02*
X00618Y00296D01*
X00624Y00312D02*
X00627Y00315D01*
X00634*
X00637Y00312*
Y00309*
X00634Y00305*
X00637Y00302*
Y00299*
X00634Y00296*
X00627*
X00624Y00299*
Y00302*
X00627Y00305*
X00624Y00309*
Y00312*
X00627Y00305D02*
X00634D01*
X00657Y00315D02*
X00644D01*
Y00305*
X0065Y00309*
X00654*
X00657Y00305*
Y00299*
X00654Y00296*
X00647*
X00644Y00299*
X00904Y0022D02*
Y00239D01*
X00913*
X00917Y00236*
Y00229*
X00913Y00226*
X00904*
X0091D02*
X00917Y0022D01*
X00923Y00236D02*
X00926Y00239D01*
X00933*
X00936Y00236*
Y00233*
X00933Y00229*
X00936Y00226*
Y00223*
X00933Y0022*
X00926*
X00923Y00223*
Y00226*
X00926Y00229*
X00923Y00233*
Y00236*
X00926Y00229D02*
X00933D01*
X00953Y0022D02*
Y00239D01*
X00943Y00229*
X00956*
X01117Y00225D02*
Y00244D01*
X01126*
X0113Y00241*
Y00234*
X01126Y00231*
X01117*
X01123D02*
X0113Y00225D01*
X01136Y00241D02*
X01139Y00244D01*
X01146*
X01149Y00241*
Y00238*
X01146Y00234*
X01149Y00231*
Y00228*
X01146Y00225*
X01139*
X01136Y00228*
Y00231*
X01139Y00234*
X01136Y00238*
Y00241*
X01139Y00234D02*
X01146D01*
X01156Y00241D02*
X01159Y00244D01*
X01166*
X01169Y00241*
Y00238*
X01166Y00234*
X01162*
X01166*
X01169Y00231*
Y00228*
X01166Y00225*
X01159*
X01156Y00228*
X04745Y00734D02*
Y00753D01*
X04754*
X04758Y0075*
Y00743*
X04754Y0074*
X04745*
X04751D02*
X04758Y00734D01*
X04764Y0075D02*
X04767Y00753D01*
X04774*
X04777Y0075*
Y00747*
X04774Y00743*
X04777Y0074*
Y00737*
X04774Y00734*
X04767*
X04764Y00737*
Y0074*
X04767Y00743*
X04764Y00747*
Y0075*
X04767Y00743D02*
X04774D01*
X04797Y00734D02*
X04784D01*
X04797Y00747*
Y0075*
X04794Y00753*
X04787*
X04784Y0075*
X0549Y01284D02*
Y01303D01*
X05499*
X05503Y013*
Y01293*
X05499Y0129*
X0549*
X05496D02*
X05503Y01284D01*
X05509Y013D02*
X05512Y01303D01*
X05519*
X05522Y013*
Y01297*
X05519Y01293*
X05522Y0129*
Y01287*
X05519Y01284*
X05512*
X05509Y01287*
Y0129*
X05512Y01293*
X05509Y01297*
Y013*
X05512Y01293D02*
X05519D01*
X05529Y01284D02*
X05535D01*
X05532*
Y01303*
X05529Y013*
X0406Y00881D02*
Y009D01*
X04069*
X04073Y00897*
Y0089*
X04069Y00887*
X0406*
X04066D02*
X04073Y00881D01*
X04079Y00897D02*
X04082Y009D01*
X04089*
X04092Y00897*
Y00894*
X04089Y0089*
X04092Y00887*
Y00884*
X04089Y00881*
X04082*
X04079Y00884*
Y00887*
X04082Y0089*
X04079Y00894*
Y00897*
X04082Y0089D02*
X04089D01*
X04099Y00897D02*
X04102Y009D01*
X04109*
X04112Y00897*
Y00884*
X04109Y00881*
X04102*
X04099Y00884*
Y00897*
X0469Y00818D02*
Y00837D01*
X04699*
X04703Y00834*
Y00827*
X04699Y00824*
X0469*
X04696D02*
X04703Y00818D01*
X04709Y00837D02*
X04722D01*
Y00834*
X04709Y00821*
Y00818*
X04729Y00821D02*
X04732Y00818D01*
X04739*
X04742Y00821*
Y00834*
X04739Y00837*
X04732*
X04729Y00834*
Y00831*
X04732Y00827*
X04742*
X04914Y01456D02*
Y01475D01*
X04923*
X04927Y01472*
Y01465*
X04923Y01462*
X04914*
X0492D02*
X04927Y01456D01*
X04933Y01475D02*
X04946D01*
Y01472*
X04933Y01459*
Y01456*
X04953Y01472D02*
X04956Y01475D01*
X04963*
X04966Y01472*
Y01469*
X04963Y01465*
X04966Y01462*
Y01459*
X04963Y01456*
X04956*
X04953Y01459*
Y01462*
X04956Y01465*
X04953Y01469*
Y01472*
X04956Y01465D02*
X04963D01*
X05111Y01424D02*
Y01443D01*
X0512*
X05124Y0144*
Y01433*
X0512Y0143*
X05111*
X05117D02*
X05124Y01424D01*
X0513Y01443D02*
X05143D01*
Y0144*
X0513Y01427*
Y01424*
X0515Y01443D02*
X05163D01*
Y0144*
X0515Y01427*
Y01424*
X05022Y01403D02*
Y01422D01*
X05031*
X05035Y01419*
Y01412*
X05031Y01409*
X05022*
X05028D02*
X05035Y01403D01*
X05041Y01422D02*
X05054D01*
Y01419*
X05041Y01406*
Y01403*
X05074Y01422D02*
X05067Y01419D01*
X05061Y01412*
Y01406*
X05064Y01403*
X05071*
X05074Y01406*
Y01409*
X05071Y01412*
X05061*
X04786Y01458D02*
Y01477D01*
X04795*
X04799Y01474*
Y01467*
X04795Y01464*
X04786*
X04792D02*
X04799Y01458D01*
X04805Y01477D02*
X04818D01*
Y01474*
X04805Y01461*
Y01458*
X04838Y01477D02*
X04825D01*
Y01467*
X04831Y01471*
X04835*
X04838Y01467*
Y01461*
X04835Y01458*
X04828*
X04825Y01461*
X05006Y01229D02*
Y01248D01*
X05015*
X05019Y01245*
Y01238*
X05015Y01235*
X05006*
X05012D02*
X05019Y01229D01*
X05025Y01248D02*
X05038D01*
Y01245*
X05025Y01232*
Y01229*
X05055D02*
Y01248D01*
X05045Y01238*
X05058*
X05435Y01406D02*
Y01425D01*
X05444*
X05448Y01422*
Y01415*
X05444Y01412*
X05435*
X05441D02*
X05448Y01406D01*
X05454Y01425D02*
X05467D01*
Y01422*
X05454Y01409*
Y01406*
X05474Y01422D02*
X05477Y01425D01*
X05484*
X05487Y01422*
Y01419*
X05484Y01415*
X0548*
X05484*
X05487Y01412*
Y01409*
X05484Y01406*
X05477*
X05474Y01409*
X05466Y0099D02*
Y01009D01*
X05475*
X05479Y01006*
Y00999*
X05475Y00996*
X05466*
X05472D02*
X05479Y0099D01*
X05485Y01009D02*
X05498D01*
Y01006*
X05485Y00993*
Y0099*
X05518D02*
X05505D01*
X05518Y01003*
Y01006*
X05515Y01009*
X05508*
X05505Y01006*
X05549Y0105D02*
Y01069D01*
X05558*
X05562Y01066*
Y01059*
X05558Y01056*
X05549*
X05555D02*
X05562Y0105D01*
X05568Y01069D02*
X05581D01*
Y01066*
X05568Y01053*
Y0105*
X05588D02*
X05594D01*
X05591*
Y01069*
X05588Y01066*
X03417Y00628D02*
Y00647D01*
X03426*
X0343Y00644*
Y00637*
X03426Y00634*
X03417*
X03423D02*
X0343Y00628D01*
X03436Y00647D02*
X03449D01*
Y00644*
X03436Y00631*
Y00628*
X03456Y00644D02*
X03459Y00647D01*
X03466*
X03469Y00644*
Y00631*
X03466Y00628*
X03459*
X03456Y00631*
Y00644*
X04406Y00613D02*
Y00632D01*
X04415*
X04419Y00629*
Y00622*
X04415Y00619*
X04406*
X04412D02*
X04419Y00613D01*
X04438Y00632D02*
X04432Y00629D01*
X04425Y00622*
Y00616*
X04428Y00613*
X04435*
X04438Y00616*
Y00619*
X04435Y00622*
X04425*
X04445Y00616D02*
X04448Y00613D01*
X04455*
X04458Y00616*
Y00629*
X04455Y00632*
X04448*
X04445Y00629*
Y00626*
X04448Y00622*
X04458*
X03964Y00385D02*
Y00404D01*
X03973*
X03977Y00401*
Y00394*
X03973Y00391*
X03964*
X0397D02*
X03977Y00385D01*
X03996Y00404D02*
X0399Y00401D01*
X03983Y00394*
Y00388*
X03986Y00385*
X03993*
X03996Y00388*
Y00391*
X03993Y00394*
X03983*
X04003Y00401D02*
X04006Y00404D01*
X04013*
X04016Y00401*
Y00398*
X04013Y00394*
X04016Y00391*
Y00388*
X04013Y00385*
X04006*
X04003Y00388*
Y00391*
X04006Y00394*
X04003Y00398*
Y00401*
X04006Y00394D02*
X04013D01*
X02543Y00988D02*
Y01007D01*
X02552*
X02556Y01004*
Y00997*
X02552Y00994*
X02543*
X02549D02*
X02556Y00988D01*
X02575Y01007D02*
X02569Y01004D01*
X02562Y00997*
Y00991*
X02565Y00988*
X02572*
X02575Y00991*
Y00994*
X02572Y00997*
X02562*
X02582Y01007D02*
X02595D01*
Y01004*
X02582Y00991*
Y00988*
X02569Y0086D02*
Y00879D01*
X02578*
X02582Y00876*
Y00869*
X02578Y00866*
X02569*
X02575D02*
X02582Y0086D01*
X02601Y00879D02*
X02595Y00876D01*
X02588Y00869*
Y00863*
X02591Y0086*
X02598*
X02601Y00863*
Y00866*
X02598Y00869*
X02588*
X02621Y00879D02*
X02614Y00876D01*
X02608Y00869*
Y00863*
X02611Y0086*
X02618*
X02621Y00863*
Y00866*
X02618Y00869*
X02608*
X04664Y0064D02*
Y00659D01*
X04673*
X04677Y00656*
Y00649*
X04673Y00646*
X04664*
X0467D02*
X04677Y0064D01*
X04696Y00659D02*
X0469Y00656D01*
X04683Y00649*
Y00643*
X04686Y0064*
X04693*
X04696Y00643*
Y00646*
X04693Y00649*
X04683*
X04716Y00659D02*
X04703D01*
Y00649*
X04709Y00653*
X04713*
X04716Y00649*
Y00643*
X04713Y0064*
X04706*
X04703Y00643*
X00975Y00844D02*
Y00863D01*
X00984*
X00988Y0086*
Y00853*
X00984Y0085*
X00975*
X00981D02*
X00988Y00844D01*
X01007Y00863D02*
X01001Y0086D01*
X00994Y00853*
Y00847*
X00997Y00844*
X01004*
X01007Y00847*
Y0085*
X01004Y00853*
X00994*
X01024Y00844D02*
Y00863D01*
X01014Y00853*
X01027*
X024Y01096D02*
Y01115D01*
X02409*
X02413Y01112*
Y01105*
X02409Y01102*
X024*
X02406D02*
X02413Y01096D01*
X02432Y01115D02*
X02426Y01112D01*
X02419Y01105*
Y01099*
X02422Y01096*
X02429*
X02432Y01099*
Y01102*
X02429Y01105*
X02419*
X02439Y01112D02*
X02442Y01115D01*
X02449*
X02452Y01112*
Y01109*
X02449Y01105*
X02445*
X02449*
X02452Y01102*
Y01099*
X02449Y01096*
X02442*
X02439Y01099*
X02435Y00344D02*
Y00363D01*
X02444*
X02448Y0036*
Y00353*
X02444Y0035*
X02435*
X02441D02*
X02448Y00344D01*
X02467Y00363D02*
X02461Y0036D01*
X02454Y00353*
Y00347*
X02457Y00344*
X02464*
X02467Y00347*
Y0035*
X02464Y00353*
X02454*
X02487Y00344D02*
X02474D01*
X02487Y00357*
Y0036*
X02484Y00363*
X02477*
X02474Y0036*
X03515Y00373D02*
Y00392D01*
X03524*
X03528Y00389*
Y00382*
X03524Y00379*
X03515*
X03521D02*
X03528Y00373D01*
X03547Y00392D02*
X03541Y00389D01*
X03534Y00382*
Y00376*
X03537Y00373*
X03544*
X03547Y00376*
Y00379*
X03544Y00382*
X03534*
X03554Y00373D02*
X0356D01*
X03557*
Y00392*
X03554Y00389*
X00339Y00351D02*
Y0037D01*
X00348*
X00352Y00367*
Y0036*
X00348Y00357*
X00339*
X00345D02*
X00352Y00351D01*
X00371Y0037D02*
X00365Y00367D01*
X00358Y0036*
Y00354*
X00361Y00351*
X00368*
X00371Y00354*
Y00357*
X00368Y0036*
X00358*
X00378Y00367D02*
X00381Y0037D01*
X00388*
X00391Y00367*
Y00354*
X00388Y00351*
X00381*
X00378Y00354*
Y00367*
X02251Y00214D02*
Y00233D01*
X0226*
X02264Y0023*
Y00223*
X0226Y0022*
X02251*
X02257D02*
X02264Y00214D01*
X02283Y00233D02*
X0227D01*
Y00223*
X02277Y00227*
X0228*
X02283Y00223*
Y00217*
X0228Y00214*
X02273*
X0227Y00217*
X0229D02*
X02293Y00214D01*
X023*
X02303Y00217*
Y0023*
X023Y00233*
X02293*
X0229Y0023*
Y00227*
X02293Y00223*
X02303*
X0205Y00223D02*
Y00242D01*
X02059*
X02063Y00239*
Y00232*
X02059Y00229*
X0205*
X02056D02*
X02063Y00223D01*
X02082Y00242D02*
X02069D01*
Y00232*
X02076Y00236*
X02079*
X02082Y00232*
Y00226*
X02079Y00223*
X02072*
X02069Y00226*
X02089Y00239D02*
X02092Y00242D01*
X02099*
X02102Y00239*
Y00236*
X02099Y00232*
X02102Y00229*
Y00226*
X02099Y00223*
X02092*
X02089Y00226*
Y00229*
X02092Y00232*
X02089Y00236*
Y00239*
X02092Y00232D02*
X02099D01*
X01661Y01467D02*
Y01486D01*
X0167*
X01674Y01483*
Y01476*
X0167Y01473*
X01661*
X01667D02*
X01674Y01467D01*
X01693Y01486D02*
X0168D01*
Y01476*
X01687Y0148*
X0169*
X01693Y01476*
Y0147*
X0169Y01467*
X01683*
X0168Y0147*
X017Y01486D02*
X01713D01*
Y01483*
X017Y0147*
Y01467*
X02485Y00209D02*
Y00228D01*
X02494*
X02498Y00225*
Y00218*
X02494Y00215*
X02485*
X02491D02*
X02498Y00209D01*
X02517Y00228D02*
X02504D01*
Y00218*
X02511Y00222*
X02514*
X02517Y00218*
Y00212*
X02514Y00209*
X02507*
X02504Y00212*
X02537Y00228D02*
X0253Y00225D01*
X02524Y00218*
Y00212*
X02527Y00209*
X02534*
X02537Y00212*
Y00215*
X02534Y00218*
X02524*
X04715Y00541D02*
Y0056D01*
X04724*
X04728Y00557*
Y0055*
X04724Y00547*
X04715*
X04721D02*
X04728Y00541D01*
X04747Y0056D02*
X04734D01*
Y0055*
X04741Y00554*
X04744*
X04747Y0055*
Y00544*
X04744Y00541*
X04737*
X04734Y00544*
X04767Y0056D02*
X04754D01*
Y0055*
X0476Y00554*
X04764*
X04767Y0055*
Y00544*
X04764Y00541*
X04757*
X04754Y00544*
X04596Y00348D02*
Y00367D01*
X04605*
X04609Y00364*
Y00357*
X04605Y00354*
X04596*
X04602D02*
X04609Y00348D01*
X04628Y00367D02*
X04615D01*
Y00357*
X04622Y00361*
X04625*
X04628Y00357*
Y00351*
X04625Y00348*
X04618*
X04615Y00351*
X04645Y00348D02*
Y00367D01*
X04635Y00357*
X04648*
X04739Y0037D02*
Y00389D01*
X04748*
X04752Y00386*
Y00379*
X04748Y00376*
X04739*
X04745D02*
X04752Y0037D01*
X04771Y00389D02*
X04758D01*
Y00379*
X04765Y00383*
X04768*
X04771Y00379*
Y00373*
X04768Y0037*
X04761*
X04758Y00373*
X04778Y00386D02*
X04781Y00389D01*
X04788*
X04791Y00386*
Y00383*
X04788Y00379*
X04784*
X04788*
X04791Y00376*
Y00373*
X04788Y0037*
X04781*
X04778Y00373*
X04802Y00508D02*
Y00527D01*
X04811*
X04815Y00524*
Y00517*
X04811Y00514*
X04802*
X04808D02*
X04815Y00508D01*
X04834Y00527D02*
X04821D01*
Y00517*
X04828Y00521*
X04831*
X04834Y00517*
Y00511*
X04831Y00508*
X04824*
X04821Y00511*
X04854Y00508D02*
X04841D01*
X04854Y00521*
Y00524*
X04851Y00527*
X04844*
X04841Y00524*
X04301Y01407D02*
Y01426D01*
X0431*
X04314Y01423*
Y01416*
X0431Y01413*
X04301*
X04307D02*
X04314Y01407D01*
X04333Y01426D02*
X0432D01*
Y01416*
X04327Y0142*
X0433*
X04333Y01416*
Y0141*
X0433Y01407*
X04323*
X0432Y0141*
X0434Y01407D02*
X04346D01*
X04343*
Y01426*
X0434Y01423*
X04469Y0132D02*
Y01339D01*
X04478*
X04482Y01336*
Y01329*
X04478Y01326*
X04469*
X04475D02*
X04482Y0132D01*
X04501Y01339D02*
X04488D01*
Y01329*
X04495Y01333*
X04498*
X04501Y01329*
Y01323*
X04498Y0132*
X04491*
X04488Y01323*
X04508Y01336D02*
X04511Y01339D01*
X04518*
X04521Y01336*
Y01323*
X04518Y0132*
X04511*
X04508Y01323*
Y01336*
X04468Y00343D02*
Y00362D01*
X04477*
X04481Y00359*
Y00352*
X04477Y00349*
X04468*
X04474D02*
X04481Y00343D01*
X04497D02*
Y00362D01*
X04487Y00352*
X045*
X04507Y00346D02*
X0451Y00343D01*
X04517*
X0452Y00346*
Y00359*
X04517Y00362*
X0451*
X04507Y00359*
Y00356*
X0451Y00352*
X0452*
X04649Y00995D02*
Y01014D01*
X04658*
X04662Y01011*
Y01004*
X04658Y01001*
X04649*
X04655D02*
X04662Y00995D01*
X04678D02*
Y01014D01*
X04668Y01004*
X04681*
X04688Y01011D02*
X04691Y01014D01*
X04698*
X04701Y01011*
Y01008*
X04698Y01004*
X04701Y01001*
Y00998*
X04698Y00995*
X04691*
X04688Y00998*
Y01001*
X04691Y01004*
X04688Y01008*
Y01011*
X04691Y01004D02*
X04698D01*
X04654Y01295D02*
Y01314D01*
X04663*
X04667Y01311*
Y01304*
X04663Y01301*
X04654*
X0466D02*
X04667Y01295D01*
X04683D02*
Y01314D01*
X04673Y01304*
X04686*
X04693Y01314D02*
X04706D01*
Y01311*
X04693Y01298*
Y01295*
X04639Y0147D02*
Y01489D01*
X04648*
X04652Y01486*
Y01479*
X04648Y01476*
X04639*
X04645D02*
X04652Y0147D01*
X04668D02*
Y01489D01*
X04658Y01479*
X04671*
X04691Y01489D02*
X04684Y01486D01*
X04678Y01479*
Y01473*
X04681Y0147*
X04688*
X04691Y01473*
Y01476*
X04688Y01479*
X04678*
X02586Y00697D02*
Y00716D01*
X02595*
X02599Y00713*
Y00706*
X02595Y00703*
X02586*
X02592D02*
X02599Y00697D01*
X02615D02*
Y00716D01*
X02605Y00706*
X02618*
X02638Y00716D02*
X02625D01*
Y00706*
X02631Y0071*
X02635*
X02638Y00706*
Y007*
X02635Y00697*
X02628*
X02625Y007*
X05011Y00724D02*
Y00743D01*
X0502*
X05024Y0074*
Y00733*
X0502Y0073*
X05011*
X05017D02*
X05024Y00724D01*
X0504D02*
Y00743D01*
X0503Y00733*
X05043*
X0506Y00724D02*
Y00743D01*
X0505Y00733*
X05063*
X03386Y00259D02*
Y00278D01*
X03395*
X03399Y00275*
Y00268*
X03395Y00265*
X03386*
X03392D02*
X03399Y00259D01*
X03415D02*
Y00278D01*
X03405Y00268*
X03418*
X03425Y00275D02*
X03428Y00278D01*
X03435*
X03438Y00275*
Y00272*
X03435Y00268*
X03431*
X03435*
X03438Y00265*
Y00262*
X03435Y00259*
X03428*
X03425Y00262*
X01479Y00916D02*
Y00935D01*
X01488*
X01492Y00932*
Y00925*
X01488Y00922*
X01479*
X01485D02*
X01492Y00916D01*
X01508D02*
Y00935D01*
X01498Y00925*
X01511*
X01531Y00916D02*
X01518D01*
X01531Y00929*
Y00932*
X01528Y00935*
X01521*
X01518Y00932*
X01576Y01469D02*
Y01488D01*
X01585*
X01589Y01485*
Y01478*
X01585Y01475*
X01576*
X01582D02*
X01589Y01469D01*
X01605D02*
Y01488D01*
X01595Y01478*
X01608*
X01615Y01469D02*
X01621D01*
X01618*
Y01488*
X01615Y01485*
X01297Y01313D02*
Y01332D01*
X01306*
X0131Y01329*
Y01322*
X01306Y01319*
X01297*
X01303D02*
X0131Y01313D01*
X01326D02*
Y01332D01*
X01316Y01322*
X01329*
X01336Y01329D02*
X01339Y01332D01*
X01346*
X01349Y01329*
Y01316*
X01346Y01313*
X01339*
X01336Y01316*
Y01329*
X01776Y01412D02*
Y01431D01*
X01785*
X01789Y01428*
Y01421*
X01785Y01418*
X01776*
X01782D02*
X01789Y01412D01*
X01795Y01428D02*
X01798Y01431D01*
X01805*
X01808Y01428*
Y01425*
X01805Y01421*
X01802*
X01805*
X01808Y01418*
Y01415*
X01805Y01412*
X01798*
X01795Y01415*
X01815D02*
X01818Y01412D01*
X01825*
X01828Y01415*
Y01428*
X01825Y01431*
X01818*
X01815Y01428*
Y01425*
X01818Y01421*
X01828*
X01991Y01434D02*
Y01453D01*
X02*
X02004Y0145*
Y01443*
X02Y0144*
X01991*
X01997D02*
X02004Y01434D01*
X0201Y0145D02*
X02013Y01453D01*
X0202*
X02023Y0145*
Y01447*
X0202Y01443*
X02017*
X0202*
X02023Y0144*
Y01437*
X0202Y01434*
X02013*
X0201Y01437*
X0203Y0145D02*
X02033Y01453D01*
X0204*
X02043Y0145*
Y01447*
X0204Y01443*
X02043Y0144*
Y01437*
X0204Y01434*
X02033*
X0203Y01437*
Y0144*
X02033Y01443*
X0203Y01447*
Y0145*
X02033Y01443D02*
X0204D01*
X03395Y01341D02*
Y0136D01*
X03404*
X03408Y01357*
Y0135*
X03404Y01347*
X03395*
X03401D02*
X03408Y01341D01*
X03414Y01357D02*
X03417Y0136D01*
X03424*
X03427Y01357*
Y01354*
X03424Y0135*
X03421*
X03424*
X03427Y01347*
Y01344*
X03424Y01341*
X03417*
X03414Y01344*
X03434Y0136D02*
X03447D01*
Y01357*
X03434Y01344*
Y01341*
X02971Y01025D02*
Y01044D01*
X0298*
X02984Y01041*
Y01034*
X0298Y01031*
X02971*
X02977D02*
X02984Y01025D01*
X0299Y01041D02*
X02993Y01044D01*
X03*
X03003Y01041*
Y01038*
X03Y01034*
X02997*
X03*
X03003Y01031*
Y01028*
X03Y01025*
X02993*
X0299Y01028*
X03023Y01044D02*
X03016Y01041D01*
X0301Y01034*
Y01028*
X03013Y01025*
X0302*
X03023Y01028*
Y01031*
X0302Y01034*
X0301*
X03579Y0133D02*
Y01349D01*
X03588*
X03592Y01346*
Y01339*
X03588Y01336*
X03579*
X03585D02*
X03592Y0133D01*
X03598Y01346D02*
X03601Y01349D01*
X03608*
X03611Y01346*
Y01343*
X03608Y01339*
X03605*
X03608*
X03611Y01336*
Y01333*
X03608Y0133*
X03601*
X03598Y01333*
X03631Y01349D02*
X03618D01*
Y01339*
X03624Y01343*
X03628*
X03631Y01339*
Y01333*
X03628Y0133*
X03621*
X03618Y01333*
X01112Y01362D02*
Y01381D01*
X01121*
X01125Y01378*
Y01371*
X01121Y01368*
X01112*
X01118D02*
X01125Y01362D01*
X01131Y01378D02*
X01134Y01381D01*
X01141*
X01144Y01378*
Y01375*
X01141Y01371*
X01138*
X01141*
X01144Y01368*
Y01365*
X01141Y01362*
X01134*
X01131Y01365*
X01161Y01362D02*
Y01381D01*
X01151Y01371*
X01164*
X01296Y00562D02*
Y00581D01*
X01305*
X01309Y00578*
Y00571*
X01305Y00568*
X01296*
X01302D02*
X01309Y00562D01*
X01315Y00578D02*
X01318Y00581D01*
X01325*
X01328Y00578*
Y00575*
X01325Y00571*
X01322*
X01325*
X01328Y00568*
Y00565*
X01325Y00562*
X01318*
X01315Y00565*
X01335Y00578D02*
X01338Y00581D01*
X01345*
X01348Y00578*
Y00575*
X01345Y00571*
X01341*
X01345*
X01348Y00568*
Y00565*
X01345Y00562*
X01338*
X01335Y00565*
X01524Y008D02*
Y00819D01*
X01533*
X01537Y00816*
Y00809*
X01533Y00806*
X01524*
X0153D02*
X01537Y008D01*
X01543Y00816D02*
X01546Y00819D01*
X01553*
X01556Y00816*
Y00813*
X01553Y00809*
X0155*
X01553*
X01556Y00806*
Y00803*
X01553Y008*
X01546*
X01543Y00803*
X01576Y008D02*
X01563D01*
X01576Y00813*
Y00816*
X01573Y00819*
X01566*
X01563Y00816*
X03483Y00595D02*
Y00614D01*
X03492*
X03496Y00611*
Y00604*
X03492Y00601*
X03483*
X03489D02*
X03496Y00595D01*
X03502Y00611D02*
X03505Y00614D01*
X03512*
X03515Y00611*
Y00608*
X03512Y00604*
X03509*
X03512*
X03515Y00601*
Y00598*
X03512Y00595*
X03505*
X03502Y00598*
X03522Y00595D02*
X03528D01*
X03525*
Y00614*
X03522Y00611*
X02384Y00535D02*
Y00554D01*
X02393*
X02397Y00551*
Y00544*
X02393Y00541*
X02384*
X0239D02*
X02397Y00535D01*
X02403Y00551D02*
X02406Y00554D01*
X02413*
X02416Y00551*
Y00548*
X02413Y00544*
X0241*
X02413*
X02416Y00541*
Y00538*
X02413Y00535*
X02406*
X02403Y00538*
X02423Y00551D02*
X02426Y00554D01*
X02433*
X02436Y00551*
Y00538*
X02433Y00535*
X02426*
X02423Y00538*
Y00551*
X02901Y00776D02*
Y00795D01*
X0291*
X02914Y00792*
Y00785*
X0291Y00782*
X02901*
X02907D02*
X02914Y00776D01*
X02933D02*
X0292D01*
X02933Y00789*
Y00792*
X0293Y00795*
X02923*
X0292Y00792*
X0294Y00779D02*
X02943Y00776D01*
X0295*
X02953Y00779*
Y00792*
X0295Y00795*
X02943*
X0294Y00792*
Y00789*
X02943Y00785*
X02953*
X04561Y01173D02*
Y01192D01*
X0457*
X04574Y01189*
Y01182*
X0457Y01179*
X04561*
X04567D02*
X04574Y01173D01*
X04593D02*
X0458D01*
X04593Y01186*
Y01189*
X0459Y01192*
X04583*
X0458Y01189*
X046D02*
X04603Y01192D01*
X0461*
X04613Y01189*
Y01186*
X0461Y01182*
X04613Y01179*
Y01176*
X0461Y01173*
X04603*
X046Y01176*
Y01179*
X04603Y01182*
X046Y01186*
Y01189*
X04603Y01182D02*
X0461D01*
X05356Y0142D02*
Y01439D01*
X05365*
X05369Y01436*
Y01429*
X05365Y01426*
X05356*
X05362D02*
X05369Y0142D01*
X05388D02*
X05375D01*
X05388Y01433*
Y01436*
X05385Y01439*
X05378*
X05375Y01436*
X05395Y01439D02*
X05408D01*
Y01436*
X05395Y01423*
Y0142*
X05526Y00899D02*
Y00918D01*
X05535*
X05539Y00915*
Y00908*
X05535Y00905*
X05526*
X05532D02*
X05539Y00899D01*
X05558D02*
X05545D01*
X05558Y00912*
Y00915*
X05555Y00918*
X05548*
X05545Y00915*
X05578Y00918D02*
X05571Y00915D01*
X05565Y00908*
Y00902*
X05568Y00899*
X05575*
X05578Y00902*
Y00905*
X05575Y00908*
X05565*
X05469Y01131D02*
Y0115D01*
X05478*
X05482Y01147*
Y0114*
X05478Y01137*
X05469*
X05475D02*
X05482Y01131D01*
X05501D02*
X05488D01*
X05501Y01144*
Y01147*
X05498Y0115*
X05491*
X05488Y01147*
X05521Y0115D02*
X05508D01*
Y0114*
X05514Y01144*
X05518*
X05521Y0114*
Y01134*
X05518Y01131*
X05511*
X05508Y01134*
X05599Y00761D02*
Y0078D01*
X05608*
X05612Y00777*
Y0077*
X05608Y00767*
X05599*
X05605D02*
X05612Y00761D01*
X05631D02*
X05618D01*
X05631Y00774*
Y00777*
X05628Y0078*
X05621*
X05618Y00777*
X05648Y00761D02*
Y0078D01*
X05638Y0077*
X05651*
X04154Y01386D02*
Y01405D01*
X04163*
X04167Y01402*
Y01395*
X04163Y01392*
X04154*
X0416D02*
X04167Y01386D01*
X04186D02*
X04173D01*
X04186Y01399*
Y01402*
X04183Y01405*
X04176*
X04173Y01402*
X04193D02*
X04196Y01405D01*
X04203*
X04206Y01402*
Y01399*
X04203Y01395*
X04199*
X04203*
X04206Y01392*
Y01389*
X04203Y01386*
X04196*
X04193Y01389*
X02276Y01389D02*
Y01408D01*
X02285*
X02289Y01405*
Y01398*
X02285Y01395*
X02276*
X02282D02*
X02289Y01389D01*
X02308D02*
X02295D01*
X02308Y01402*
Y01405*
X02305Y01408*
X02298*
X02295Y01405*
X02328Y01389D02*
X02315D01*
X02328Y01402*
Y01405*
X02325Y01408*
X02318*
X02315Y01405*
X02202Y01376D02*
Y01395D01*
X02211*
X02215Y01392*
Y01385*
X02211Y01382*
X02202*
X02208D02*
X02215Y01376D01*
X02234D02*
X02221D01*
X02234Y01389*
Y01392*
X02231Y01395*
X02224*
X02221Y01392*
X02241Y01376D02*
X02247D01*
X02244*
Y01395*
X02241Y01392*
X02536Y01492D02*
Y01511D01*
X02545*
X02549Y01508*
Y01501*
X02545Y01498*
X02536*
X02542D02*
X02549Y01492D01*
X02568D02*
X02555D01*
X02568Y01505*
Y01508*
X02565Y01511*
X02558*
X02555Y01508*
X02575D02*
X02578Y01511D01*
X02585*
X02588Y01508*
Y01495*
X02585Y01492*
X02578*
X02575Y01495*
Y01508*
X02766Y01489D02*
Y01508D01*
X02775*
X02779Y01505*
Y01498*
X02775Y01495*
X02766*
X02772D02*
X02779Y01489D01*
X02785D02*
X02792D01*
X02788*
Y01508*
X02785Y01505*
X02802Y01492D02*
X02805Y01489D01*
X02811*
X02815Y01492*
Y01505*
X02811Y01508*
X02805*
X02802Y01505*
Y01502*
X02805Y01498*
X02815*
X0361Y01501D02*
Y0152D01*
X03619*
X03623Y01517*
Y0151*
X03619Y01507*
X0361*
X03616D02*
X03623Y01501D01*
X03629D02*
X03636D01*
X03632*
Y0152*
X03629Y01517*
X03646D02*
X03649Y0152D01*
X03655*
X03659Y01517*
Y01514*
X03655Y0151*
X03659Y01507*
Y01504*
X03655Y01501*
X03649*
X03646Y01504*
Y01507*
X03649Y0151*
X03646Y01514*
Y01517*
X03649Y0151D02*
X03655D01*
X02102Y00939D02*
Y00958D01*
X02111*
X02115Y00955*
Y00948*
X02111Y00945*
X02102*
X02108D02*
X02115Y00939D01*
X02121D02*
X02128D01*
X02124*
Y00958*
X02121Y00955*
X02138Y00958D02*
X02151D01*
Y00955*
X02138Y00942*
Y00939*
X02089Y0081D02*
Y00829D01*
X02098*
X02102Y00826*
Y00819*
X02098Y00816*
X02089*
X02095D02*
X02102Y0081D01*
X02108D02*
X02115D01*
X02111*
Y00829*
X02108Y00826*
X02138Y00829D02*
X02131Y00826D01*
X02125Y00819*
Y00813*
X02128Y0081*
X02134*
X02138Y00813*
Y00816*
X02134Y00819*
X02125*
X02177Y00923D02*
Y00942D01*
X02186*
X0219Y00939*
Y00932*
X02186Y00929*
X02177*
X02183D02*
X0219Y00923D01*
X02196D02*
X02203D01*
X02199*
Y00942*
X02196Y00939*
X02226Y00942D02*
X02213D01*
Y00932*
X02219Y00936*
X02222*
X02226Y00932*
Y00926*
X02222Y00923*
X02216*
X02213Y00926*
X01871Y00703D02*
Y00722D01*
X0188*
X01884Y00719*
Y00712*
X0188Y00709*
X01871*
X01877D02*
X01884Y00703D01*
X0189D02*
X01897D01*
X01893*
Y00722*
X0189Y00719*
X01916Y00703D02*
Y00722D01*
X01907Y00712*
X0192*
X01999Y00925D02*
Y00944D01*
X02008*
X02012Y00941*
Y00934*
X02008Y00931*
X01999*
X02005D02*
X02012Y00925D01*
X02018D02*
X02025D01*
X02021*
Y00944*
X02018Y00941*
X02035D02*
X02038Y00944D01*
X02044*
X02048Y00941*
Y00938*
X02044Y00934*
X02041*
X02044*
X02048Y00931*
Y00928*
X02044Y00925*
X02038*
X02035Y00928*
X02825Y00627D02*
Y00646D01*
X02834*
X02838Y00643*
Y00636*
X02834Y00633*
X02825*
X02831D02*
X02838Y00627D01*
X02844D02*
X02851D01*
X02847*
Y00646*
X02844Y00643*
X02874Y00627D02*
X02861D01*
X02874Y0064*
Y00643*
X0287Y00646*
X02864*
X02861Y00643*
X0054Y00716D02*
Y00735D01*
X00549*
X00553Y00732*
Y00725*
X00549Y00722*
X0054*
X00546D02*
X00553Y00716D01*
X00559D02*
X00566D01*
X00562*
Y00735*
X00559Y00732*
X00576Y00716D02*
X00582D01*
X00579*
Y00735*
X00576Y00732*
X04857Y00837D02*
Y00856D01*
X04866*
X0487Y00853*
Y00846*
X04866Y00843*
X04857*
X04863D02*
X0487Y00837D01*
X04876D02*
X04883D01*
X04879*
Y00856*
X04876Y00853*
X04893D02*
X04896Y00856D01*
X04902*
X04906Y00853*
Y0084*
X04902Y00837*
X04896*
X04893Y0084*
Y00853*
X02693Y01534D02*
Y01553D01*
X02702*
X02706Y0155*
Y01543*
X02702Y0154*
X02693*
X02699D02*
X02706Y01534D01*
X02712Y01537D02*
X02715Y01534D01*
X02722*
X02725Y01537*
Y0155*
X02722Y01553*
X02715*
X02712Y0155*
Y01547*
X02715Y01543*
X02725*
X02866Y01514D02*
Y01533D01*
X02875*
X02879Y0153*
Y01523*
X02875Y0152*
X02866*
X02872D02*
X02879Y01514D01*
X02885Y0153D02*
X02888Y01533D01*
X02895*
X02898Y0153*
Y01527*
X02895Y01523*
X02898Y0152*
Y01517*
X02895Y01514*
X02888*
X02885Y01517*
Y0152*
X02888Y01523*
X02885Y01527*
Y0153*
X02888Y01523D02*
X02895D01*
X01417Y00263D02*
Y00282D01*
X01426*
X0143Y00279*
Y00272*
X01426Y00269*
X01417*
X01423D02*
X0143Y00263D01*
X01436Y00282D02*
X01449D01*
Y00279*
X01436Y00266*
Y00263*
X014Y00587D02*
Y00606D01*
X01409*
X01413Y00603*
Y00596*
X01409Y00593*
X014*
X01406D02*
X01413Y00587D01*
X01432Y00606D02*
X01426Y00603D01*
X01419Y00596*
Y0059*
X01422Y00587*
X01429*
X01432Y0059*
Y00593*
X01429Y00596*
X01419*
X0152Y00257D02*
Y00276D01*
X01529*
X01533Y00273*
Y00266*
X01529Y00263*
X0152*
X01526D02*
X01533Y00257D01*
X01552Y00276D02*
X01539D01*
Y00266*
X01546Y0027*
X01549*
X01552Y00266*
Y0026*
X01549Y00257*
X01542*
X01539Y0026*
X01748Y00884D02*
Y00903D01*
X01757*
X01761Y009*
Y00893*
X01757Y0089*
X01748*
X01754D02*
X01761Y00884D01*
X01777D02*
Y00903D01*
X01767Y00893*
X0178*
X01902Y01058D02*
Y01077D01*
X01911*
X01915Y01074*
Y01067*
X01911Y01064*
X01902*
X01908D02*
X01915Y01058D01*
X01921Y01074D02*
X01924Y01077D01*
X01931*
X01934Y01074*
Y01071*
X01931Y01067*
X01928*
X01931*
X01934Y01064*
Y01061*
X01931Y01058*
X01924*
X01921Y01061*
X02477Y01048D02*
Y01067D01*
X02486*
X0249Y01064*
Y01057*
X02486Y01054*
X02477*
X02483D02*
X0249Y01048D01*
X02509D02*
X02496D01*
X02509Y01061*
Y01064*
X02506Y01067*
X02499*
X02496Y01064*
X02385Y00666D02*
Y00685D01*
X02394*
X02398Y00682*
Y00675*
X02394Y00672*
X02385*
X02391D02*
X02398Y00666D01*
X02404D02*
X02411D01*
X02407*
Y00685*
X02404Y00682*
X00481Y0092D02*
Y00933D01*
X00477Y00936*
X00471*
X00468Y00933*
Y0092*
X00471Y00917*
X00477*
X00474Y00923D02*
X00481Y00917D01*
X00477D02*
X00481Y0092D01*
X00487Y00933D02*
X0049Y00936D01*
X00497*
X005Y00933*
Y0093*
X00497Y00926*
X00494*
X00497*
X005Y00923*
Y0092*
X00497Y00917*
X0049*
X00487Y0092*
X01301Y00329D02*
Y00342D01*
X01297Y00345*
X01291*
X01288Y00342*
Y00329*
X01291Y00326*
X01297*
X01294Y00332D02*
X01301Y00326D01*
X01297D02*
X01301Y00329D01*
X0132Y00326D02*
X01307D01*
X0132Y00339*
Y00342*
X01317Y00345*
X0131*
X01307Y00342*
X02291Y00383D02*
Y00396D01*
X02287Y00399*
X02281*
X02278Y00396*
Y00383*
X02281Y0038*
X02287*
X02284Y00386D02*
X02291Y0038D01*
X02287D02*
X02291Y00383D01*
X02297Y0038D02*
X02304D01*
X023*
Y00399*
X02297Y00396*
X03055Y00754D02*
Y00735D01*
X03068*
X03074D02*
X03081D01*
X03077*
Y00754*
X03074Y00751*
X03091D02*
X03094Y00754D01*
X031*
X03104Y00751*
Y00738*
X031Y00735*
X03094*
X03091Y00738*
Y00751*
X0406Y01279D02*
Y0126D01*
X04073*
X04079Y01263D02*
X04082Y0126D01*
X04089*
X04092Y01263*
Y01276*
X04089Y01279*
X04082*
X04079Y01276*
Y01273*
X04082Y01269*
X04092*
X05105Y01289D02*
Y0127D01*
X05118*
X05124Y01286D02*
X05127Y01289D01*
X05134*
X05137Y01286*
Y01283*
X05134Y01279*
X05137Y01276*
Y01273*
X05134Y0127*
X05127*
X05124Y01273*
Y01276*
X05127Y01279*
X05124Y01283*
Y01286*
X05127Y01279D02*
X05134D01*
X03045Y01279D02*
Y0126D01*
X03058*
X03064Y01279D02*
X03077D01*
Y01276*
X03064Y01263*
Y0126*
X0405Y00754D02*
Y00735D01*
X04063*
X04082Y00754D02*
X04076Y00751D01*
X04069Y00744*
Y00738*
X04072Y00735*
X04079*
X04082Y00738*
Y00741*
X04079Y00744*
X04069*
X01985Y01289D02*
Y0127D01*
X01998*
X02017Y01289D02*
X02004D01*
Y01279*
X02011Y01283*
X02014*
X02017Y01279*
Y01273*
X02014Y0127*
X02007*
X02004Y01273*
X0198Y00739D02*
Y0072D01*
X01993*
X02009D02*
Y00739D01*
X01999Y00729*
X02012*
X0511Y00754D02*
Y00735D01*
X05123*
X05129Y00751D02*
X05132Y00754D01*
X05139*
X05142Y00751*
Y00748*
X05139Y00744*
X05136*
X05139*
X05142Y00741*
Y00738*
X05139Y00735*
X05132*
X05129Y00738*
X0088Y00769D02*
Y0075D01*
X00893*
X00912D02*
X00899D01*
X00912Y00763*
Y00766*
X00909Y00769*
X00902*
X00899Y00766*
X0089Y01289D02*
Y0127D01*
X00903*
X00909D02*
X00916D01*
X00912*
Y01289*
X00909Y01286*
X-00017Y0119D02*
X-00024D01*
X-00021*
Y01174*
X-00024Y01171*
X-00027*
X-00031Y01174*
X-00011Y01187D02*
X-00008Y0119D01*
X-00001*
X00001Y01187*
Y01184*
X-00004Y01177*
Y01174D02*
Y01171D01*
X01221Y01368D02*
X01217Y01371D01*
X01211*
X01208Y01368*
Y01355*
X01211Y01352*
X01217*
X01221Y01355*
X01227Y01352D02*
X01234D01*
X0123*
Y01371*
X01227Y01368*
X01244Y01352D02*
X0125D01*
X01247*
Y01371*
X01244Y01368*
X0127Y01352D02*
Y01371D01*
X0126Y01361*
X01273*
X03971Y00573D02*
X03967Y00576D01*
X03961*
X03958Y00573*
Y0056*
X03961Y00557*
X03967*
X03971Y0056*
X03977Y00557D02*
X03984D01*
X0398*
Y00576*
X03977Y00573*
X03994Y00557D02*
X04D01*
X03997*
Y00576*
X03994Y00573*
X0401D02*
X04013Y00576D01*
X0402*
X04023Y00573*
Y0057*
X0402Y00566*
X04017*
X0402*
X04023Y00563*
Y0056*
X0402Y00557*
X04013*
X0401Y0056*
X03698Y00912D02*
X03694Y00915D01*
X03688*
X03685Y00912*
Y00899*
X03688Y00896*
X03694*
X03698Y00899*
X03704Y00896D02*
X03711D01*
X03707*
Y00915*
X03704Y00912*
X03721Y00896D02*
X03727D01*
X03724*
Y00915*
X03721Y00912*
X0375Y00896D02*
X03737D01*
X0375Y00909*
Y00912*
X03747Y00915*
X0374*
X03737Y00912*
X03488Y01117D02*
X03484Y0112D01*
X03478*
X03475Y01117*
Y01104*
X03478Y01101*
X03484*
X03488Y01104*
X03494Y01101D02*
X03501D01*
X03497*
Y0112*
X03494Y01117*
X03511Y01101D02*
X03517D01*
X03514*
Y0112*
X03511Y01117*
X03527Y01101D02*
X03534D01*
X0353*
Y0112*
X03527Y01117*
X03946Y01248D02*
X03942Y01251D01*
X03936*
X03933Y01248*
Y01235*
X03936Y01232*
X03942*
X03946Y01235*
X03952Y01232D02*
X03959D01*
X03955*
Y01251*
X03952Y01248*
X03969Y01232D02*
X03975D01*
X03972*
Y01251*
X03969Y01248*
X03985D02*
X03988Y01251D01*
X03995*
X03998Y01248*
Y01235*
X03995Y01232*
X03988*
X03985Y01235*
Y01248*
X00723Y00592D02*
X00719Y00595D01*
X00713*
X0071Y00592*
Y00579*
X00713Y00576*
X00719*
X00723Y00579*
X00729Y00576D02*
X00736D01*
X00732*
Y00595*
X00729Y00592*
X00746D02*
X00749Y00595D01*
X00755*
X00759Y00592*
Y00579*
X00755Y00576*
X00749*
X00746Y00579*
Y00592*
X00765Y00579D02*
X00769Y00576D01*
X00775*
X00778Y00579*
Y00592*
X00775Y00595*
X00769*
X00765Y00592*
Y00589*
X00769Y00585*
X00778*
X00757Y00301D02*
X00753Y00304D01*
X00747*
X00744Y00301*
Y00288*
X00747Y00285*
X00753*
X00757Y00288*
X00763Y00285D02*
X0077D01*
X00766*
Y00304*
X00763Y00301*
X0078D02*
X00783Y00304D01*
X00789*
X00793Y00301*
Y00288*
X00789Y00285*
X00783*
X0078Y00288*
Y00301*
X00799D02*
X00803Y00304D01*
X00809*
X00812Y00301*
Y00298*
X00809Y00294*
X00812Y00291*
Y00288*
X00809Y00285*
X00803*
X00799Y00288*
Y00291*
X00803Y00294*
X00799Y00298*
Y00301*
X00803Y00294D02*
X00809D01*
X04831Y01369D02*
X04827Y01372D01*
X04821*
X04818Y01369*
Y01356*
X04821Y01353*
X04827*
X04831Y01356*
X04837Y01353D02*
X04844D01*
X0484*
Y01372*
X04837Y01369*
X04854D02*
X04857Y01372D01*
X04863*
X04867Y01369*
Y01356*
X04863Y01353*
X04857*
X04854Y01356*
Y01369*
X04873Y01372D02*
X04886D01*
Y01369*
X04873Y01356*
Y01353*
X02076Y00373D02*
X02072Y00376D01*
X02066*
X02063Y00373*
Y0036*
X02066Y00357*
X02072*
X02076Y0036*
X02082Y00357D02*
X02089D01*
X02085*
Y00376*
X02082Y00373*
X02099D02*
X02102Y00376D01*
X02108*
X02112Y00373*
Y0036*
X02108Y00357*
X02102*
X02099Y0036*
Y00373*
X02131Y00376D02*
X02125Y00373D01*
X02118Y00366*
Y0036*
X02122Y00357*
X02128*
X02131Y0036*
Y00363*
X02128Y00366*
X02118*
X03922Y01461D02*
X03918Y01464D01*
X03912*
X03909Y01461*
Y01448*
X03912Y01445*
X03918*
X03922Y01448*
X03928Y01445D02*
X03935D01*
X03931*
Y01464*
X03928Y01461*
X03945D02*
X03948Y01464D01*
X03954*
X03958Y01461*
Y01448*
X03954Y01445*
X03948*
X03945Y01448*
Y01461*
X03977Y01464D02*
X03964D01*
Y01454*
X03971Y01458*
X03974*
X03977Y01454*
Y01448*
X03974Y01445*
X03968*
X03964Y01448*
X04142Y00861D02*
X04138Y00864D01*
X04132*
X04129Y00861*
Y00848*
X04132Y00845*
X04138*
X04142Y00848*
X04148Y00845D02*
X04155D01*
X04151*
Y00864*
X04148Y00861*
X04165D02*
X04168Y00864D01*
X04174*
X04178Y00861*
Y00848*
X04174Y00845*
X04168*
X04165Y00848*
Y00861*
X04194Y00845D02*
Y00864D01*
X04184Y00854*
X04197*
X02736Y00228D02*
X02732Y00231D01*
X02726*
X02723Y00228*
Y00215*
X02726Y00212*
X02732*
X02736Y00215*
X02742Y00212D02*
X02749D01*
X02745*
Y00231*
X02742Y00228*
X02759D02*
X02762Y00231D01*
X02768*
X02772Y00228*
Y00215*
X02768Y00212*
X02762*
X02759Y00215*
Y00228*
X02778D02*
X02782Y00231D01*
X02788*
X02791Y00228*
Y00225*
X02788Y00221*
X02785*
X02788*
X02791Y00218*
Y00215*
X02788Y00212*
X02782*
X02778Y00215*
X05307Y00376D02*
X05303Y00379D01*
X05297*
X05294Y00376*
Y00363*
X05297Y0036*
X05303*
X05307Y00363*
X05313Y0036D02*
X0532D01*
X05316*
Y00379*
X05313Y00376*
X0533D02*
X05333Y00379D01*
X05339*
X05343Y00376*
Y00363*
X05339Y0036*
X05333*
X0533Y00363*
Y00376*
X05362Y0036D02*
X05349D01*
X05362Y00373*
Y00376*
X05359Y00379*
X05353*
X05349Y00376*
X03437Y00421D02*
X03433Y00424D01*
X03427*
X03424Y00421*
Y00408*
X03427Y00405*
X03433*
X03437Y00408*
X03443Y00405D02*
X0345D01*
X03446*
Y00424*
X03443Y00421*
X0346D02*
X03463Y00424D01*
X03469*
X03473Y00421*
Y00408*
X03469Y00405*
X03463*
X0346Y00408*
Y00421*
X03479Y00405D02*
X03486D01*
X03483*
Y00424*
X03479Y00421*
X00459Y00737D02*
X00455Y0074D01*
X00449*
X00446Y00737*
Y00724*
X00449Y00721*
X00455*
X00459Y00724*
X00465Y00721D02*
X00472D01*
X00468*
Y0074*
X00465Y00737*
X00482D02*
X00485Y0074D01*
X00491*
X00495Y00737*
Y00724*
X00491Y00721*
X00485*
X00482Y00724*
Y00737*
X00501D02*
X00505Y0074D01*
X00511*
X00514Y00737*
Y00724*
X00511Y00721*
X00505*
X00501Y00724*
Y00737*
X04914Y00639D02*
X0491Y00642D01*
X04904*
X04901Y00639*
Y00626*
X04904Y00623*
X0491*
X04914Y00626*
X0492D02*
X04923Y00623D01*
X0493*
X04933Y00626*
Y00639*
X0493Y00642*
X04923*
X0492Y00639*
Y00636*
X04923Y00632*
X04933*
X0494Y00626D02*
X04943Y00623D01*
X0495*
X04953Y00626*
Y00639*
X0495Y00642*
X04943*
X0494Y00639*
Y00636*
X04943Y00632*
X04953*
X04894Y00433D02*
X0489Y00436D01*
X04884*
X04881Y00433*
Y0042*
X04884Y00417*
X0489*
X04894Y0042*
X049D02*
X04903Y00417D01*
X0491*
X04913Y0042*
Y00433*
X0491Y00436*
X04903*
X049Y00433*
Y0043*
X04903Y00426*
X04913*
X0492Y00433D02*
X04923Y00436D01*
X0493*
X04933Y00433*
Y0043*
X0493Y00426*
X04933Y00423*
Y0042*
X0493Y00417*
X04923*
X0492Y0042*
Y00423*
X04923Y00426*
X0492Y0043*
Y00433*
X04923Y00426D02*
X0493D01*
X05195Y00895D02*
X05191Y00898D01*
X05185*
X05182Y00895*
Y00882*
X05185Y00879*
X05191*
X05195Y00882*
X05201D02*
X05204Y00879D01*
X05211*
X05214Y00882*
Y00895*
X05211Y00898*
X05204*
X05201Y00895*
Y00892*
X05204Y00888*
X05214*
X05221Y00898D02*
X05234D01*
Y00895*
X05221Y00882*
Y00879*
X04887Y0128D02*
X04883Y01283D01*
X04877*
X04874Y0128*
Y01267*
X04877Y01264*
X04883*
X04887Y01267*
X04893D02*
X04896Y01264D01*
X04903*
X04906Y01267*
Y0128*
X04903Y01283*
X04896*
X04893Y0128*
Y01277*
X04896Y01273*
X04906*
X04926Y01283D02*
X04919Y0128D01*
X04913Y01273*
Y01267*
X04916Y01264*
X04923*
X04926Y01267*
Y0127*
X04923Y01273*
X04913*
X02703Y00357D02*
X02699Y0036D01*
X02693*
X0269Y00357*
Y00344*
X02693Y00341*
X02699*
X02703Y00344*
X02709D02*
X02712Y00341D01*
X02719*
X02722Y00344*
Y00357*
X02719Y0036*
X02712*
X02709Y00357*
Y00354*
X02712Y0035*
X02722*
X02742Y0036D02*
X02729D01*
Y0035*
X02735Y00354*
X02739*
X02742Y0035*
Y00344*
X02739Y00341*
X02732*
X02729Y00344*
X04696Y00423D02*
X04692Y00426D01*
X04686*
X04683Y00423*
Y0041*
X04686Y00407*
X04692*
X04696Y0041*
X04702D02*
X04705Y00407D01*
X04712*
X04715Y0041*
Y00423*
X04712Y00426*
X04705*
X04702Y00423*
Y0042*
X04705Y00416*
X04715*
X04732Y00407D02*
Y00426D01*
X04722Y00416*
X04735*
X04001Y01133D02*
X03997Y01136D01*
X03991*
X03988Y01133*
Y0112*
X03991Y01117*
X03997*
X04001Y0112*
X04007D02*
X0401Y01117D01*
X04017*
X0402Y0112*
Y01133*
X04017Y01136*
X0401*
X04007Y01133*
Y0113*
X0401Y01126*
X0402*
X04027Y01133D02*
X0403Y01136D01*
X04037*
X0404Y01133*
Y0113*
X04037Y01126*
X04033*
X04037*
X0404Y01123*
Y0112*
X04037Y01117*
X0403*
X04027Y0112*
X03846Y00439D02*
X03842Y00442D01*
X03836*
X03833Y00439*
Y00426*
X03836Y00423*
X03842*
X03846Y00426*
X03852D02*
X03855Y00423D01*
X03862*
X03865Y00426*
Y00439*
X03862Y00442*
X03855*
X03852Y00439*
Y00436*
X03855Y00432*
X03865*
X03885Y00423D02*
X03872D01*
X03885Y00436*
Y00439*
X03882Y00442*
X03875*
X03872Y00439*
X0315Y00873D02*
X03146Y00876D01*
X0314*
X03137Y00873*
Y0086*
X0314Y00857*
X03146*
X0315Y0086*
X03156D02*
X03159Y00857D01*
X03166*
X03169Y0086*
Y00873*
X03166Y00876*
X03159*
X03156Y00873*
Y0087*
X03159Y00866*
X03169*
X03176Y00857D02*
X03182D01*
X03179*
Y00876*
X03176Y00873*
X03852Y00685D02*
X03848Y00688D01*
X03842*
X03839Y00685*
Y00672*
X03842Y00669*
X03848*
X03852Y00672*
X03858D02*
X03861Y00669D01*
X03868*
X03871Y00672*
Y00685*
X03868Y00688*
X03861*
X03858Y00685*
Y00682*
X03861Y00678*
X03871*
X03878Y00685D02*
X03881Y00688D01*
X03888*
X03891Y00685*
Y00672*
X03888Y00669*
X03881*
X03878Y00672*
Y00685*
X03516Y00844D02*
X03512Y00847D01*
X03506*
X03503Y00844*
Y00831*
X03506Y00828*
X03512*
X03516Y00831*
X03522Y00844D02*
X03525Y00847D01*
X03532*
X03535Y00844*
Y00841*
X03532Y00837*
X03535Y00834*
Y00831*
X03532Y00828*
X03525*
X03522Y00831*
Y00834*
X03525Y00837*
X03522Y00841*
Y00844*
X03525Y00837D02*
X03532D01*
X03542Y00831D02*
X03545Y00828D01*
X03552*
X03555Y00831*
Y00844*
X03552Y00847*
X03545*
X03542Y00844*
Y00841*
X03545Y00837*
X03555*
X00803Y01264D02*
X00799Y01267D01*
X00793*
X0079Y01264*
Y01251*
X00793Y01248*
X00799*
X00803Y01251*
X00809Y01264D02*
X00812Y01267D01*
X00819*
X00822Y01264*
Y01261*
X00819Y01257*
X00822Y01254*
Y01251*
X00819Y01248*
X00812*
X00809Y01251*
Y01254*
X00812Y01257*
X00809Y01261*
Y01264*
X00812Y01257D02*
X00819D01*
X00829Y01264D02*
X00832Y01267D01*
X00839*
X00842Y01264*
Y01261*
X00839Y01257*
X00842Y01254*
Y01251*
X00839Y01248*
X00832*
X00829Y01251*
Y01254*
X00832Y01257*
X00829Y01261*
Y01264*
X00832Y01257D02*
X00839D01*
X00683Y01302D02*
X00679Y01305D01*
X00673*
X0067Y01302*
Y01289*
X00673Y01286*
X00679*
X00683Y01289*
X00689Y01302D02*
X00692Y01305D01*
X00699*
X00702Y01302*
Y01299*
X00699Y01295*
X00702Y01292*
Y01289*
X00699Y01286*
X00692*
X00689Y01289*
Y01292*
X00692Y01295*
X00689Y01299*
Y01302*
X00692Y01295D02*
X00699D01*
X00709Y01305D02*
X00722D01*
Y01302*
X00709Y01289*
Y01286*
X00866Y00923D02*
X00862Y00926D01*
X00856*
X00853Y00923*
Y0091*
X00856Y00907*
X00862*
X00866Y0091*
X00872Y00923D02*
X00875Y00926D01*
X00882*
X00885Y00923*
Y0092*
X00882Y00916*
X00885Y00913*
Y0091*
X00882Y00907*
X00875*
X00872Y0091*
Y00913*
X00875Y00916*
X00872Y0092*
Y00923*
X00875Y00916D02*
X00882D01*
X00905Y00926D02*
X00898Y00923D01*
X00892Y00916*
Y0091*
X00895Y00907*
X00902*
X00905Y0091*
Y00913*
X00902Y00916*
X00892*
X01091Y00873D02*
X01087Y00876D01*
X01081*
X01078Y00873*
Y0086*
X01081Y00857*
X01087*
X01091Y0086*
X01097Y00873D02*
X011Y00876D01*
X01107*
X0111Y00873*
Y0087*
X01107Y00866*
X0111Y00863*
Y0086*
X01107Y00857*
X011*
X01097Y0086*
Y00863*
X011Y00866*
X01097Y0087*
Y00873*
X011Y00866D02*
X01107D01*
X0113Y00876D02*
X01117D01*
Y00866*
X01123Y0087*
X01127*
X0113Y00866*
Y0086*
X01127Y00857*
X0112*
X01117Y0086*
X01177Y00901D02*
X01173Y00904D01*
X01167*
X01164Y00901*
Y00888*
X01167Y00885*
X01173*
X01177Y00888*
X01183Y00901D02*
X01186Y00904D01*
X01193*
X01196Y00901*
Y00898*
X01193Y00894*
X01196Y00891*
Y00888*
X01193Y00885*
X01186*
X01183Y00888*
Y00891*
X01186Y00894*
X01183Y00898*
Y00901*
X01186Y00894D02*
X01193D01*
X01213Y00885D02*
Y00904D01*
X01203Y00894*
X01216*
X01282Y01051D02*
X01278Y01054D01*
X01272*
X01269Y01051*
Y01038*
X01272Y01035*
X01278*
X01282Y01038*
X01288Y01051D02*
X01291Y01054D01*
X01298*
X01301Y01051*
Y01048*
X01298Y01044*
X01301Y01041*
Y01038*
X01298Y01035*
X01291*
X01288Y01038*
Y01041*
X01291Y01044*
X01288Y01048*
Y01051*
X01291Y01044D02*
X01298D01*
X01308Y01051D02*
X01311Y01054D01*
X01318*
X01321Y01051*
Y01048*
X01318Y01044*
X01314*
X01318*
X01321Y01041*
Y01038*
X01318Y01035*
X01311*
X01308Y01038*
X01756Y01013D02*
X01752Y01016D01*
X01746*
X01743Y01013*
Y01*
X01746Y00997*
X01752*
X01756Y01*
X01762Y01013D02*
X01765Y01016D01*
X01772*
X01775Y01013*
Y0101*
X01772Y01006*
X01775Y01003*
Y01*
X01772Y00997*
X01765*
X01762Y01*
Y01003*
X01765Y01006*
X01762Y0101*
Y01013*
X01765Y01006D02*
X01772D01*
X01795Y00997D02*
X01782D01*
X01795Y0101*
Y01013*
X01792Y01016*
X01785*
X01782Y01013*
X01762Y00621D02*
X01758Y00624D01*
X01752*
X01749Y00621*
Y00608*
X01752Y00605*
X01758*
X01762Y00608*
X01768Y00621D02*
X01771Y00624D01*
X01778*
X01781Y00621*
Y00618*
X01778Y00614*
X01781Y00611*
Y00608*
X01778Y00605*
X01771*
X01768Y00608*
Y00611*
X01771Y00614*
X01768Y00618*
Y00621*
X01771Y00614D02*
X01778D01*
X01788Y00605D02*
X01794D01*
X01791*
Y00624*
X01788Y00621*
X02522Y00441D02*
X02518Y00444D01*
X02512*
X02509Y00441*
Y00428*
X02512Y00425*
X02518*
X02522Y00428*
X02528Y00441D02*
X02531Y00444D01*
X02538*
X02541Y00441*
Y00438*
X02538Y00434*
X02541Y00431*
Y00428*
X02538Y00425*
X02531*
X02528Y00428*
Y00431*
X02531Y00434*
X02528Y00438*
Y00441*
X02531Y00434D02*
X02538D01*
X02548Y00441D02*
X02551Y00444D01*
X02558*
X02561Y00441*
Y00428*
X02558Y00425*
X02551*
X02548Y00428*
Y00441*
X00354Y00767D02*
X0035Y0077D01*
X00344*
X00341Y00767*
Y00754*
X00344Y00751*
X0035*
X00354Y00754*
X0036Y0077D02*
X00373D01*
Y00767*
X0036Y00754*
Y00751*
X0038Y00754D02*
X00383Y00751D01*
X0039*
X00393Y00754*
Y00767*
X0039Y0077*
X00383*
X0038Y00767*
Y00764*
X00383Y0076*
X00393*
X00464Y01364D02*
X0046Y01367D01*
X00454*
X00451Y01364*
Y01351*
X00454Y01348*
X0046*
X00464Y01351*
X0047Y01367D02*
X00483D01*
Y01364*
X0047Y01351*
Y01348*
X0049Y01364D02*
X00493Y01367D01*
X005*
X00503Y01364*
Y01361*
X005Y01357*
X00503Y01354*
Y01351*
X005Y01348*
X00493*
X0049Y01351*
Y01354*
X00493Y01357*
X0049Y01361*
Y01364*
X00493Y01357D02*
X005D01*
X00349Y01269D02*
X00345Y01272D01*
X00339*
X00336Y01269*
Y01256*
X00339Y01253*
X00345*
X00349Y01256*
X00355Y01272D02*
X00368D01*
Y01269*
X00355Y01256*
Y01253*
X00375Y01272D02*
X00388D01*
Y01269*
X00375Y01256*
Y01253*
X04424Y01541D02*
X0442Y01544D01*
X04414*
X04411Y01541*
Y01528*
X04414Y01525*
X0442*
X04424Y01528*
X0443Y01544D02*
X04443D01*
Y01541*
X0443Y01528*
Y01525*
X04463Y01544D02*
X04456Y01541D01*
X0445Y01534*
Y01528*
X04453Y01525*
X0446*
X04463Y01528*
Y01531*
X0446Y01534*
X0445*
X00352Y01005D02*
X00348Y01008D01*
X00342*
X00339Y01005*
Y00992*
X00342Y00989*
X00348*
X00352Y00992*
X00358Y01008D02*
X00371D01*
Y01005*
X00358Y00992*
Y00989*
X00391Y01008D02*
X00378D01*
Y00998*
X00384Y01002*
X00388*
X00391Y00998*
Y00992*
X00388Y00989*
X00381*
X00378Y00992*
X04302Y00411D02*
X04298Y00414D01*
X04292*
X04289Y00411*
Y00398*
X04292Y00395*
X04298*
X04302Y00398*
X04308Y00414D02*
X04321D01*
Y00411*
X04308Y00398*
Y00395*
X04338D02*
Y00414D01*
X04328Y00404*
X04341*
X04836Y00713D02*
X04832Y00716D01*
X04826*
X04823Y00713*
Y007*
X04826Y00697*
X04832*
X04836Y007*
X04842Y00716D02*
X04855D01*
Y00713*
X04842Y007*
Y00697*
X04862Y00713D02*
X04865Y00716D01*
X04872*
X04875Y00713*
Y0071*
X04872Y00706*
X04868*
X04872*
X04875Y00703*
Y007*
X04872Y00697*
X04865*
X04862Y007*
X04766Y00938D02*
X04762Y00941D01*
X04756*
X04753Y00938*
Y00925*
X04756Y00922*
X04762*
X04766Y00925*
X04772Y00941D02*
X04785D01*
Y00938*
X04772Y00925*
Y00922*
X04805D02*
X04792D01*
X04805Y00935*
Y00938*
X04802Y00941*
X04795*
X04792Y00938*
X04576Y00858D02*
X04572Y00861D01*
X04566*
X04563Y00858*
Y00845*
X04566Y00842*
X04572*
X04576Y00845*
X04582Y00861D02*
X04595D01*
Y00858*
X04582Y00845*
Y00842*
X04602D02*
X04608D01*
X04605*
Y00861*
X04602Y00858*
X00451Y01174D02*
X00447Y01177D01*
X00441*
X00438Y01174*
Y01161*
X00441Y01158*
X00447*
X00451Y01161*
X00457Y01177D02*
X0047D01*
Y01174*
X00457Y01161*
Y01158*
X00477Y01174D02*
X0048Y01177D01*
X00487*
X0049Y01174*
Y01161*
X00487Y01158*
X0048*
X00477Y01161*
Y01174*
X00572Y01304D02*
X00568Y01307D01*
X00562*
X00559Y01304*
Y01291*
X00562Y01288*
X00568*
X00572Y01291*
X00591Y01307D02*
X00585Y01304D01*
X00578Y01297*
Y01291*
X00581Y01288*
X00588*
X00591Y01291*
Y01294*
X00588Y01297*
X00578*
X00598Y01291D02*
X00601Y01288D01*
X00608*
X00611Y01291*
Y01304*
X00608Y01307*
X00601*
X00598Y01304*
Y01301*
X00601Y01297*
X00611*
X00981Y01419D02*
X00977Y01422D01*
X00971*
X00968Y01419*
Y01406*
X00971Y01403*
X00977*
X00981Y01406*
X01Y01422D02*
X00994Y01419D01*
X00987Y01412*
Y01406*
X0099Y01403*
X00997*
X01Y01406*
Y01409*
X00997Y01412*
X00987*
X01007Y01419D02*
X0101Y01422D01*
X01017*
X0102Y01419*
Y01416*
X01017Y01412*
X0102Y01409*
Y01406*
X01017Y01403*
X0101*
X01007Y01406*
Y01409*
X0101Y01412*
X01007Y01416*
Y01419*
X0101Y01412D02*
X01017D01*
X02606Y00388D02*
X02602Y00391D01*
X02596*
X02593Y00388*
Y00375*
X02596Y00372*
X02602*
X02606Y00375*
X02625Y00391D02*
X02619Y00388D01*
X02612Y00381*
Y00375*
X02615Y00372*
X02622*
X02625Y00375*
Y00378*
X02622Y00381*
X02612*
X02632Y00391D02*
X02645D01*
Y00388*
X02632Y00375*
Y00372*
X02963Y00614D02*
X02959Y00617D01*
X02953*
X0295Y00614*
Y00601*
X02953Y00598*
X02959*
X02963Y00601*
X02982Y00617D02*
X02976Y00614D01*
X02969Y00607*
Y00601*
X02972Y00598*
X02979*
X02982Y00601*
Y00604*
X02979Y00607*
X02969*
X03002Y00617D02*
X02995Y00614D01*
X02989Y00607*
Y00601*
X02992Y00598*
X02999*
X03002Y00601*
Y00604*
X02999Y00607*
X02989*
X02813Y00857D02*
X02809Y0086D01*
X02803*
X028Y00857*
Y00844*
X02803Y00841*
X02809*
X02813Y00844*
X02832Y0086D02*
X02826Y00857D01*
X02819Y0085*
Y00844*
X02822Y00841*
X02829*
X02832Y00844*
Y00847*
X02829Y0085*
X02819*
X02852Y0086D02*
X02839D01*
Y0085*
X02845Y00854*
X02849*
X02852Y0085*
Y00844*
X02849Y00841*
X02842*
X02839Y00844*
X05019Y00587D02*
X05015Y0059D01*
X05009*
X05006Y00587*
Y00574*
X05009Y00571*
X05015*
X05019Y00574*
X05038Y0059D02*
X05032Y00587D01*
X05025Y0058*
Y00574*
X05028Y00571*
X05035*
X05038Y00574*
Y00577*
X05035Y0058*
X05025*
X05055Y00571D02*
Y0059D01*
X05045Y0058*
X05058*
X05049Y0044D02*
X05045Y00443D01*
X05039*
X05036Y0044*
Y00427*
X05039Y00424*
X05045*
X05049Y00427*
X05068Y00443D02*
X05062Y0044D01*
X05055Y00433*
Y00427*
X05058Y00424*
X05065*
X05068Y00427*
Y0043*
X05065Y00433*
X05055*
X05075Y0044D02*
X05078Y00443D01*
X05085*
X05088Y0044*
Y00437*
X05085Y00433*
X05081*
X05085*
X05088Y0043*
Y00427*
X05085Y00424*
X05078*
X05075Y00427*
X04984Y01081D02*
X0498Y01084D01*
X04974*
X04971Y01081*
Y01068*
X04974Y01065*
X0498*
X04984Y01068*
X05003Y01084D02*
X04997Y01081D01*
X0499Y01074*
Y01068*
X04993Y01065*
X05*
X05003Y01068*
Y01071*
X05Y01074*
X0499*
X05023Y01065D02*
X0501D01*
X05023Y01078*
Y01081*
X0502Y01084*
X05013*
X0501Y01081*
X01894Y01422D02*
X0189Y01425D01*
X01884*
X01881Y01422*
Y01409*
X01884Y01406*
X0189*
X01894Y01409*
X01913Y01425D02*
X01907Y01422D01*
X019Y01415*
Y01409*
X01903Y01406*
X0191*
X01913Y01409*
Y01412*
X0191Y01415*
X019*
X0192Y01406D02*
X01926D01*
X01923*
Y01425*
X0192Y01422*
X04949Y00876D02*
X04945Y00879D01*
X04939*
X04936Y00876*
Y00863*
X04939Y0086*
X04945*
X04949Y00863*
X04968Y00879D02*
X04962Y00876D01*
X04955Y00869*
Y00863*
X04958Y0086*
X04965*
X04968Y00863*
Y00866*
X04965Y00869*
X04955*
X04975Y00876D02*
X04978Y00879D01*
X04985*
X04988Y00876*
Y00863*
X04985Y0086*
X04978*
X04975Y00863*
Y00876*
X04874Y01086D02*
X0487Y01089D01*
X04864*
X04861Y01086*
Y01073*
X04864Y0107*
X0487*
X04874Y01073*
X04893Y01089D02*
X0488D01*
Y01079*
X04887Y01083*
X0489*
X04893Y01079*
Y01073*
X0489Y0107*
X04883*
X0488Y01073*
X049D02*
X04903Y0107D01*
X0491*
X04913Y01073*
Y01086*
X0491Y01089*
X04903*
X049Y01086*
Y01083*
X04903Y01079*
X04913*
X00749Y01059D02*
X00745Y01062D01*
X00739*
X00736Y01059*
Y01046*
X00739Y01043*
X00745*
X00749Y01046*
X00768Y01062D02*
X00755D01*
Y01052*
X00762Y01056*
X00765*
X00768Y01052*
Y01046*
X00765Y01043*
X00758*
X00755Y01046*
X00775Y01059D02*
X00778Y01062D01*
X00785*
X00788Y01059*
Y01056*
X00785Y01052*
X00788Y01049*
Y01046*
X00785Y01043*
X00778*
X00775Y01046*
Y01049*
X00778Y01052*
X00775Y01056*
Y01059*
X00778Y01052D02*
X00785D01*
X00559Y01129D02*
X00555Y01132D01*
X00549*
X00546Y01129*
Y01116*
X00549Y01113*
X00555*
X00559Y01116*
X00578Y01132D02*
X00565D01*
Y01122*
X00572Y01126*
X00575*
X00578Y01122*
Y01116*
X00575Y01113*
X00568*
X00565Y01116*
X00585Y01132D02*
X00598D01*
Y01129*
X00585Y01116*
Y01113*
X00437Y0037D02*
X00433Y00373D01*
X00427*
X00424Y0037*
Y00357*
X00427Y00354*
X00433*
X00437Y00357*
X00456Y00373D02*
X00443D01*
Y00363*
X0045Y00367*
X00453*
X00456Y00363*
Y00357*
X00453Y00354*
X00446*
X00443Y00357*
X00476Y00373D02*
X00469Y0037D01*
X00463Y00363*
Y00357*
X00466Y00354*
X00473*
X00476Y00357*
Y0036*
X00473Y00363*
X00463*
X02917Y01242D02*
X02913Y01245D01*
X02907*
X02904Y01242*
Y01229*
X02907Y01226*
X02913*
X02917Y01229*
X02936Y01245D02*
X02923D01*
Y01235*
X0293Y01239*
X02933*
X02936Y01235*
Y01229*
X02933Y01226*
X02926*
X02923Y01229*
X02956Y01245D02*
X02943D01*
Y01235*
X02949Y01239*
X02953*
X02956Y01235*
Y01229*
X02953Y01226*
X02946*
X02943Y01229*
X01366Y00696D02*
X01363Y00699D01*
X01357*
X01353Y00696*
Y00683*
X01357Y0068*
X01363*
X01366Y00683*
X01386Y00699D02*
X01373D01*
Y0069*
X0138Y00693*
X01383*
X01386Y0069*
Y00683*
X01383Y0068*
X01376*
X01373Y00683*
X01402Y0068D02*
Y00699D01*
X01393Y0069*
X01406*
X01871Y00973D02*
X01867Y00976D01*
X01861*
X01858Y00973*
Y0096*
X01861Y00957*
X01867*
X01871Y0096*
X0189Y00976D02*
X01877D01*
Y00966*
X01884Y0097*
X01887*
X0189Y00966*
Y0096*
X01887Y00957*
X0188*
X01877Y0096*
X01897Y00973D02*
X019Y00976D01*
X01907*
X0191Y00973*
Y0097*
X01907Y00966*
X01903*
X01907*
X0191Y00963*
Y0096*
X01907Y00957*
X019*
X01897Y0096*
X01606Y00948D02*
X01602Y00951D01*
X01596*
X01593Y00948*
Y00935*
X01596Y00932*
X01602*
X01606Y00935*
X01625Y00951D02*
X01612D01*
Y00941*
X01619Y00945*
X01622*
X01625Y00941*
Y00935*
X01622Y00932*
X01615*
X01612Y00935*
X01645Y00932D02*
X01632D01*
X01645Y00945*
Y00948*
X01642Y00951*
X01635*
X01632Y00948*
X03265Y00403D02*
X03261Y00406D01*
X03255*
X03252Y00403*
Y0039*
X03255Y00387*
X03261*
X03265Y0039*
X03284Y00406D02*
X03271D01*
Y00396*
X03278Y004*
X03281*
X03284Y00396*
Y0039*
X03281Y00387*
X03274*
X03271Y0039*
X03291Y00387D02*
X03297D01*
X03294*
Y00406*
X03291Y00403*
X01904Y00392D02*
X019Y00395D01*
X01894*
X01891Y00392*
Y00379*
X01894Y00376*
X019*
X01904Y00379*
X01923Y00395D02*
X0191D01*
Y00385*
X01917Y00389*
X0192*
X01923Y00385*
Y00379*
X0192Y00376*
X01913*
X0191Y00379*
X0193Y00392D02*
X01933Y00395D01*
X0194*
X01943Y00392*
Y00379*
X0194Y00376*
X01933*
X0193Y00379*
Y00392*
X02686Y00749D02*
X02682Y00752D01*
X02676*
X02673Y00749*
Y00736*
X02676Y00733*
X02682*
X02686Y00736*
X02702Y00733D02*
Y00752D01*
X02692Y00742*
X02705*
X02712Y00736D02*
X02715Y00733D01*
X02722*
X02725Y00736*
Y00749*
X02722Y00752*
X02715*
X02712Y00749*
Y00746*
X02715Y00742*
X02725*
X02906Y00989D02*
X02902Y00992D01*
X02896*
X02893Y00989*
Y00976*
X02896Y00973*
X02902*
X02906Y00976*
X02922Y00973D02*
Y00992D01*
X02912Y00982*
X02925*
X02932Y00989D02*
X02935Y00992D01*
X02942*
X02945Y00989*
Y00986*
X02942Y00982*
X02945Y00979*
Y00976*
X02942Y00973*
X02935*
X02932Y00976*
Y00979*
X02935Y00982*
X02932Y00986*
Y00989*
X02935Y00982D02*
X02942D01*
X03827Y00946D02*
X03823Y00949D01*
X03817*
X03814Y00946*
Y00933*
X03817Y0093*
X03823*
X03827Y00933*
X03843Y0093D02*
Y00949D01*
X03833Y00939*
X03846*
X03853Y00949D02*
X03866D01*
Y00946*
X03853Y00933*
Y0093*
X03373Y00887D02*
X03369Y0089D01*
X03363*
X0336Y00887*
Y00874*
X03363Y00871*
X03369*
X03373Y00874*
X03389Y00871D02*
Y0089D01*
X03379Y0088*
X03392*
X03412Y0089D02*
X03405Y00887D01*
X03399Y0088*
Y00874*
X03402Y00871*
X03409*
X03412Y00874*
Y00877*
X03409Y0088*
X03399*
X0326Y00258D02*
X03256Y00261D01*
X0325*
X03247Y00258*
Y00245*
X0325Y00242*
X03256*
X0326Y00245*
X03276Y00242D02*
Y00261D01*
X03266Y00251*
X03279*
X03299Y00261D02*
X03286D01*
Y00251*
X03292Y00255*
X03296*
X03299Y00251*
Y00245*
X03296Y00242*
X03289*
X03286Y00245*
X03116Y00248D02*
X03112Y00251D01*
X03106*
X03103Y00248*
Y00235*
X03106Y00232*
X03112*
X03116Y00235*
X03132Y00232D02*
Y00251D01*
X03122Y00241*
X03135*
X03152Y00232D02*
Y00251D01*
X03142Y00241*
X03155*
X00355Y00556D02*
X00351Y00559D01*
X00345*
X00342Y00556*
Y00543*
X00345Y0054*
X00351*
X00355Y00543*
X00371Y0054D02*
Y00559D01*
X00361Y00549*
X00374*
X00381Y00556D02*
X00384Y00559D01*
X00391*
X00394Y00556*
Y00553*
X00391Y00549*
X00387*
X00391*
X00394Y00546*
Y00543*
X00391Y0054*
X00384*
X00381Y00543*
X00553Y00567D02*
X00549Y0057D01*
X00543*
X0054Y00567*
Y00554*
X00543Y00551*
X00549*
X00553Y00554*
X00569Y00551D02*
Y0057D01*
X00559Y0056*
X00572*
X00592Y00551D02*
X00579D01*
X00592Y00564*
Y00567*
X00589Y0057*
X00582*
X00579Y00567*
X01915Y00233D02*
X01911Y00236D01*
X01905*
X01902Y00233*
Y0022*
X01905Y00217*
X01911*
X01915Y0022*
X01931Y00217D02*
Y00236D01*
X01921Y00226*
X01934*
X01941Y00217D02*
X01947D01*
X01944*
Y00236*
X01941Y00233*
X01685Y00281D02*
X01681Y00284D01*
X01675*
X01672Y00281*
Y00268*
X01675Y00265*
X01681*
X01685Y00268*
X01701Y00265D02*
Y00284D01*
X01691Y00274*
X01704*
X01711Y00281D02*
X01714Y00284D01*
X01721*
X01724Y00281*
Y00268*
X01721Y00265*
X01714*
X01711Y00268*
Y00281*
X02957Y00256D02*
X02953Y00259D01*
X02947*
X02944Y00256*
Y00243*
X02947Y0024*
X02953*
X02957Y00243*
X02963Y00256D02*
X02966Y00259D01*
X02973*
X02976Y00256*
Y00253*
X02973Y00249*
X0297*
X02973*
X02976Y00246*
Y00243*
X02973Y0024*
X02966*
X02963Y00243*
X02983D02*
X02986Y0024D01*
X02993*
X02996Y00243*
Y00256*
X02993Y00259*
X02986*
X02983Y00256*
Y00253*
X02986Y00249*
X02996*
X05596Y00608D02*
X05592Y00611D01*
X05586*
X05583Y00608*
Y00595*
X05586Y00592*
X05592*
X05596Y00595*
X05602Y00608D02*
X05605Y00611D01*
X05612*
X05615Y00608*
Y00605*
X05612Y00601*
X05609*
X05612*
X05615Y00598*
Y00595*
X05612Y00592*
X05605*
X05602Y00595*
X05622Y00608D02*
X05625Y00611D01*
X05632*
X05635Y00608*
Y00605*
X05632Y00601*
X05635Y00598*
Y00595*
X05632Y00592*
X05625*
X05622Y00595*
Y00598*
X05625Y00601*
X05622Y00605*
Y00608*
X05625Y00601D02*
X05632D01*
X04759Y01207D02*
X04755Y0121D01*
X04749*
X04746Y01207*
Y01194*
X04749Y01191*
X04755*
X04759Y01194*
X04765Y01207D02*
X04768Y0121D01*
X04775*
X04778Y01207*
Y01204*
X04775Y012*
X04772*
X04775*
X04778Y01197*
Y01194*
X04775Y01191*
X04768*
X04765Y01194*
X04785Y0121D02*
X04798D01*
Y01207*
X04785Y01194*
Y01191*
X04466Y0105D02*
X04462Y01053D01*
X04456*
X04453Y0105*
Y01037*
X04456Y01034*
X04462*
X04466Y01037*
X04472Y0105D02*
X04475Y01053D01*
X04482*
X04485Y0105*
Y01047*
X04482Y01043*
X04479*
X04482*
X04485Y0104*
Y01037*
X04482Y01034*
X04475*
X04472Y01037*
X04505Y01053D02*
X04498Y0105D01*
X04492Y01043*
Y01037*
X04495Y01034*
X04502*
X04505Y01037*
Y0104*
X04502Y01043*
X04492*
X03685Y0039D02*
X03681Y00393D01*
X03675*
X03672Y0039*
Y00377*
X03675Y00374*
X03681*
X03685Y00377*
X03691Y0039D02*
X03694Y00393D01*
X03701*
X03704Y0039*
Y00387*
X03701Y00383*
X03698*
X03701*
X03704Y0038*
Y00377*
X03701Y00374*
X03694*
X03691Y00377*
X03724Y00393D02*
X03711D01*
Y00383*
X03717Y00387*
X03721*
X03724Y00383*
Y00377*
X03721Y00374*
X03714*
X03711Y00377*
X04356Y0087D02*
X04352Y00873D01*
X04346*
X04343Y0087*
Y00857*
X04346Y00854*
X04352*
X04356Y00857*
X04362Y0087D02*
X04365Y00873D01*
X04372*
X04375Y0087*
Y00867*
X04372Y00863*
X04369*
X04372*
X04375Y0086*
Y00857*
X04372Y00854*
X04365*
X04362Y00857*
X04392Y00854D02*
Y00873D01*
X04382Y00863*
X04395*
X01397Y01355D02*
X01393Y01358D01*
X01387*
X01384Y01355*
Y01342*
X01387Y01339*
X01393*
X01397Y01342*
X01403Y01355D02*
X01406Y01358D01*
X01413*
X01416Y01355*
Y01352*
X01413Y01348*
X0141*
X01413*
X01416Y01345*
Y01342*
X01413Y01339*
X01406*
X01403Y01342*
X01423Y01355D02*
X01426Y01358D01*
X01433*
X01436Y01355*
Y01352*
X01433Y01348*
X01429*
X01433*
X01436Y01345*
Y01342*
X01433Y01339*
X01426*
X01423Y01342*
X03272Y01468D02*
X03268Y01471D01*
X03262*
X03259Y01468*
Y01455*
X03262Y01452*
X03268*
X03272Y01455*
X03278Y01468D02*
X03281Y01471D01*
X03288*
X03291Y01468*
Y01465*
X03288Y01461*
X03285*
X03288*
X03291Y01458*
Y01455*
X03288Y01452*
X03281*
X03278Y01455*
X03311Y01452D02*
X03298D01*
X03311Y01465*
Y01468*
X03308Y01471*
X03301*
X03298Y01468*
X01386Y00443D02*
X01382Y00446D01*
X01376*
X01373Y00443*
Y0043*
X01376Y00427*
X01382*
X01386Y0043*
X01392Y00443D02*
X01395Y00446D01*
X01402*
X01405Y00443*
Y0044*
X01402Y00436*
X01399*
X01402*
X01405Y00433*
Y0043*
X01402Y00427*
X01395*
X01392Y0043*
X01412Y00427D02*
X01418D01*
X01415*
Y00446*
X01412Y00443*
X01226Y00398D02*
X01222Y00401D01*
X01216*
X01213Y00398*
Y00385*
X01216Y00382*
X01222*
X01226Y00385*
X01232Y00398D02*
X01235Y00401D01*
X01242*
X01245Y00398*
Y00395*
X01242Y00391*
X01239*
X01242*
X01245Y00388*
Y00385*
X01242Y00382*
X01235*
X01232Y00385*
X01252Y00398D02*
X01255Y00401D01*
X01262*
X01265Y00398*
Y00385*
X01262Y00382*
X01255*
X01252Y00385*
Y00398*
X01401Y00873D02*
X01397Y00876D01*
X01391*
X01388Y00873*
Y0086*
X01391Y00857*
X01397*
X01401Y0086*
X0142Y00857D02*
X01407D01*
X0142Y0087*
Y00873*
X01417Y00876*
X0141*
X01407Y00873*
X01427Y0086D02*
X0143Y00857D01*
X01437*
X0144Y0086*
Y00873*
X01437Y00876*
X0143*
X01427Y00873*
Y0087*
X0143Y00866*
X0144*
X0301Y00908D02*
X03006Y00911D01*
X03*
X02997Y00908*
Y00895*
X03Y00892*
X03006*
X0301Y00895*
X03029Y00892D02*
X03016D01*
X03029Y00905*
Y00908*
X03026Y00911*
X03019*
X03016Y00908*
X03036D02*
X03039Y00911D01*
X03046*
X03049Y00908*
Y00905*
X03046Y00901*
X03049Y00898*
Y00895*
X03046Y00892*
X03039*
X03036Y00895*
Y00898*
X03039Y00901*
X03036Y00905*
Y00908*
X03039Y00901D02*
X03046D01*
X03614Y01027D02*
X0361Y0103D01*
X03604*
X03601Y01027*
Y01014*
X03604Y01011*
X0361*
X03614Y01014*
X03633Y01011D02*
X0362D01*
X03633Y01024*
Y01027*
X0363Y0103*
X03623*
X0362Y01027*
X0364Y0103D02*
X03653D01*
Y01027*
X0364Y01014*
Y01011*
X01761Y0046D02*
X01757Y00463D01*
X01751*
X01748Y0046*
Y00447*
X01751Y00444*
X01757*
X01761Y00447*
X0178Y00444D02*
X01767D01*
X0178Y00457*
Y0046*
X01777Y00463*
X0177*
X01767Y0046*
X018Y00463D02*
X01793Y0046D01*
X01787Y00453*
Y00447*
X0179Y00444*
X01797*
X018Y00447*
Y0045*
X01797Y00453*
X01787*
X05377Y00871D02*
X05373Y00874D01*
X05367*
X05364Y00871*
Y00858*
X05367Y00855*
X05373*
X05377Y00858*
X05396Y00855D02*
X05383D01*
X05396Y00868*
Y00871*
X05393Y00874*
X05386*
X05383Y00871*
X05416Y00874D02*
X05403D01*
Y00864*
X05409Y00868*
X05413*
X05416Y00864*
Y00858*
X05413Y00855*
X05406*
X05403Y00858*
X05499Y00751D02*
X05495Y00754D01*
X05489*
X05486Y00751*
Y00738*
X05489Y00735*
X05495*
X05499Y00738*
X05518Y00735D02*
X05505D01*
X05518Y00748*
Y00751*
X05515Y00754*
X05508*
X05505Y00751*
X05535Y00735D02*
Y00754D01*
X05525Y00744*
X05538*
X05489Y00509D02*
X05485Y00512D01*
X05479*
X05476Y00509*
Y00496*
X05479Y00493*
X05485*
X05489Y00496*
X05508Y00493D02*
X05495D01*
X05508Y00506*
Y00509*
X05505Y00512*
X05498*
X05495Y00509*
X05515D02*
X05518Y00512D01*
X05525*
X05528Y00509*
Y00506*
X05525Y00502*
X05521*
X05525*
X05528Y00499*
Y00496*
X05525Y00493*
X05518*
X05515Y00496*
X05135Y0038D02*
X05131Y00383D01*
X05125*
X05122Y0038*
Y00367*
X05125Y00364*
X05131*
X05135Y00367*
X05154Y00364D02*
X05141D01*
X05154Y00377*
Y0038*
X05151Y00383*
X05144*
X05141Y0038*
X05174Y00364D02*
X05161D01*
X05174Y00377*
Y0038*
X05171Y00383*
X05164*
X05161Y0038*
X05209Y01417D02*
X05205Y0142D01*
X05199*
X05196Y01417*
Y01404*
X05199Y01401*
X05205*
X05209Y01404*
X05228Y01401D02*
X05215D01*
X05228Y01414*
Y01417*
X05225Y0142*
X05218*
X05215Y01417*
X05235Y01401D02*
X05241D01*
X05238*
Y0142*
X05235Y01417*
X05072Y0092D02*
X05068Y00923D01*
X05062*
X05059Y0092*
Y00907*
X05062Y00904*
X05068*
X05072Y00907*
X05091Y00904D02*
X05078D01*
X05091Y00917*
Y0092*
X05088Y00923*
X05081*
X05078Y0092*
X05098D02*
X05101Y00923D01*
X05108*
X05111Y0092*
Y00907*
X05108Y00904*
X05101*
X05098Y00907*
Y0092*
X02102Y01431D02*
X02098Y01434D01*
X02092*
X02089Y01431*
Y01418*
X02092Y01415*
X02098*
X02102Y01418*
X02108Y01415D02*
X02115D01*
X02111*
Y01434*
X02108Y01431*
X02125Y01418D02*
X02128Y01415D01*
X02134*
X02138Y01418*
Y01431*
X02134Y01434*
X02128*
X02125Y01431*
Y01428*
X02128Y01424*
X02138*
X0238Y01438D02*
X02376Y01441D01*
X0237*
X02367Y01438*
Y01425*
X0237Y01422*
X02376*
X0238Y01425*
X02386Y01422D02*
X02393D01*
X02389*
Y01441*
X02386Y01438*
X02403D02*
X02406Y01441D01*
X02412*
X02416Y01438*
Y01435*
X02412Y01431*
X02416Y01428*
Y01425*
X02412Y01422*
X02406*
X02403Y01425*
Y01428*
X02406Y01431*
X02403Y01435*
Y01438*
X02406Y01431D02*
X02412D01*
X02922Y01419D02*
X02918Y01422D01*
X02912*
X02909Y01419*
Y01406*
X02912Y01403*
X02918*
X02922Y01406*
X02928Y01403D02*
X02935D01*
X02931*
Y01422*
X02928Y01419*
X02945Y01422D02*
X02958D01*
Y01419*
X02945Y01406*
Y01403*
X03035Y01453D02*
X03031Y01456D01*
X03025*
X03022Y01453*
Y0144*
X03025Y01437*
X03031*
X03035Y0144*
X03041Y01437D02*
X03048D01*
X03044*
Y01456*
X03041Y01453*
X03071Y01456D02*
X03064Y01453D01*
X03058Y01446*
Y0144*
X03061Y01437*
X03067*
X03071Y0144*
Y01443*
X03067Y01446*
X03058*
X03182Y01477D02*
X03178Y0148D01*
X03172*
X03169Y01477*
Y01464*
X03172Y01461*
X03178*
X03182Y01464*
X03188Y01461D02*
X03195D01*
X03191*
Y0148*
X03188Y01477*
X03218Y0148D02*
X03205D01*
Y0147*
X03211Y01474*
X03214*
X03218Y0147*
Y01464*
X03214Y01461*
X03208*
X03205Y01464*
X03495Y01488D02*
X03491Y01491D01*
X03485*
X03482Y01488*
Y01475*
X03485Y01472*
X03491*
X03495Y01475*
X03501Y01472D02*
X03508D01*
X03504*
Y01491*
X03501Y01488*
X03527Y01472D02*
Y01491D01*
X03518Y01481*
X03531*
X02214Y0083D02*
X0221Y00833D01*
X02204*
X02201Y0083*
Y00817*
X02204Y00814*
X0221*
X02214Y00817*
X0222Y00814D02*
X02227D01*
X02223*
Y00833*
X0222Y0083*
X02237D02*
X0224Y00833D01*
X02246*
X0225Y0083*
Y00827*
X02246Y00823*
X02243*
X02246*
X0225Y0082*
Y00817*
X02246Y00814*
X0224*
X02237Y00817*
X01296Y01188D02*
X01292Y01191D01*
X01286*
X01283Y01188*
Y01175*
X01286Y01172*
X01292*
X01296Y01175*
X01302Y01172D02*
X01309D01*
X01305*
Y01191*
X01302Y01188*
X01332Y01172D02*
X01319D01*
X01332Y01185*
Y01188*
X01328Y01191*
X01322*
X01319Y01188*
X04111Y0037D02*
X04107Y00373D01*
X04101*
X04098Y0037*
Y00357*
X04101Y00354*
X04107*
X04111Y00357*
X04117Y00354D02*
X04124D01*
X0412*
Y00373*
X04117Y0037*
X04134Y00354D02*
X0414D01*
X04137*
Y00373*
X04134Y0037*
X03466Y01265D02*
X03462Y01268D01*
X03456*
X03453Y01265*
Y01252*
X03456Y01249*
X03462*
X03466Y01252*
X03472Y01249D02*
X03479D01*
X03475*
Y01268*
X03472Y01265*
X03489D02*
X03492Y01268D01*
X03498*
X03502Y01265*
Y01252*
X03498Y01249*
X03492*
X03489Y01252*
Y01265*
X0391Y01052D02*
X03906Y01055D01*
X039*
X03897Y01052*
Y01039*
X039Y01036*
X03906*
X0391Y01039*
X03916D02*
X03919Y01036D01*
X03926*
X03929Y01039*
Y01052*
X03926Y01055*
X03919*
X03916Y01052*
Y01049*
X03919Y01045*
X03929*
X03922Y00837D02*
X03918Y0084D01*
X03912*
X03909Y00837*
Y00824*
X03912Y00821*
X03918*
X03922Y00824*
X03928Y00837D02*
X03931Y0084D01*
X03938*
X03941Y00837*
Y00834*
X03938Y0083*
X03941Y00827*
Y00824*
X03938Y00821*
X03931*
X03928Y00824*
Y00827*
X03931Y0083*
X03928Y00834*
Y00837*
X03931Y0083D02*
X03938D01*
X01691Y00803D02*
X01687Y00806D01*
X01681*
X01678Y00803*
Y0079*
X01681Y00787*
X01687*
X01691Y0079*
X01697Y00806D02*
X0171D01*
Y00803*
X01697Y0079*
Y00787*
X01904Y00877D02*
X019Y0088D01*
X01894*
X01891Y00877*
Y00864*
X01894Y00861*
X019*
X01904Y00864*
X01923Y0088D02*
X01917Y00877D01*
X0191Y0087*
Y00864*
X01913Y00861*
X0192*
X01923Y00864*
Y00867*
X0192Y0087*
X0191*
X02384Y01262D02*
X0238Y01265D01*
X02374*
X02371Y01262*
Y01249*
X02374Y01246*
X0238*
X02384Y01249*
X02403Y01265D02*
X0239D01*
Y01255*
X02397Y01259*
X024*
X02403Y01255*
Y01249*
X024Y01246*
X02393*
X0239Y01249*
X02457Y00946D02*
X02453Y00949D01*
X02447*
X02444Y00946*
Y00933*
X02447Y0093*
X02453*
X02457Y00933*
X02473Y0093D02*
Y00949D01*
X02463Y00939*
X02476*
X0245Y00813D02*
X02446Y00816D01*
X0244*
X02437Y00813*
Y008*
X0244Y00797*
X02446*
X0245Y008*
X02456Y00813D02*
X02459Y00816D01*
X02466*
X02469Y00813*
Y0081*
X02466Y00806*
X02463*
X02466*
X02469Y00803*
Y008*
X02466Y00797*
X02459*
X02456Y008*
X02492Y00612D02*
X02488Y00615D01*
X02482*
X02479Y00612*
Y00599*
X02482Y00596*
X02488*
X02492Y00599*
X02511Y00596D02*
X02498D01*
X02511Y00609*
Y00612*
X02508Y00615*
X02501*
X02498Y00612*
X0268Y00953D02*
X02676Y00956D01*
X0267*
X02667Y00953*
Y0094*
X0267Y00937*
X02676*
X0268Y0094*
X02686Y00937D02*
X02693D01*
X02689*
Y00956*
X02686Y00953*
X01504Y01393D02*
X01517Y0138D01*
X01504D02*
X01517Y01393D01*
X01504Y01386D02*
X01517D01*
X0151Y0138D02*
Y01393D01*
X01536Y01396D02*
X01523D01*
Y01386*
X0153Y0139*
X01533*
X01536Y01386*
Y0138*
X01533Y01377*
X01526*
X01523Y0138*
X02604Y01408D02*
X02617Y01395D01*
X02604D02*
X02617Y01408D01*
X02604Y01401D02*
X02617D01*
X0261Y01395D02*
Y01408D01*
X02633Y01392D02*
Y01411D01*
X02623Y01401*
X02636*
X01474Y00694D02*
X01487Y00681D01*
X01474D02*
X01487Y00694D01*
X01474Y00687D02*
X01487D01*
X0148Y00681D02*
Y00694D01*
X01493D02*
X01496Y00697D01*
X01503*
X01506Y00694*
Y00691*
X01503Y00687*
X015*
X01503*
X01506Y00684*
Y00681*
X01503Y00678*
X01496*
X01493Y00681*
X03654Y01443D02*
X03667Y0143D01*
X03654D02*
X03667Y01443D01*
X03654Y01436D02*
X03667D01*
X0366Y0143D02*
Y01443D01*
X03686Y01427D02*
X03673D01*
X03686Y0144*
Y01443*
X03683Y01446*
X03676*
X03673Y01443*
X01755Y01261D02*
X01768Y01248D01*
X01755D02*
X01768Y01261D01*
X01755Y01254D02*
X01768D01*
X01761Y01248D02*
Y01261D01*
X01774Y01245D02*
X01781D01*
X01777*
Y01264*
X01774Y01261*
M02*