%FSTAX23Y23*%
%MOIN*%
%SFA1B1*%

%IPPOS*%
%ADD86C,0.007874*%
%ADD87C,0.019685*%
%ADD92C,0.007000*%
%LNpower_board-1*%
%LPD*%
G36*
X05895Y0151D02*
X059D01*
Y0017*
X0557Y-0016*
X0041*
X0001Y0024*
Y01385*
X00495Y0186*
X05545*
X05895Y0151*
G37*
%LNpower_board-2*%
%LPC*%
G36*
X03616Y01555D02*
X03613D01*
X0361Y01554*
X03608Y01551*
X03607Y01549*
Y01545*
X03608Y01543*
X0361Y0154*
X03613Y01539*
X03616*
X03619Y0154*
X03621Y01543*
X03622Y01545*
Y01549*
X03621Y01551*
X03619Y01554*
X03616Y01555*
G37*
G36*
X02579Y01442D02*
X02576D01*
X02573Y01441*
X02571Y01439*
X0257Y01436*
Y01433*
X02571Y0143*
X02573Y01428*
X02576Y01427*
X02579*
X02582Y01428*
X02584Y0143*
X02585Y01433*
Y01436*
X02584Y01439*
X02582Y01441*
X02579Y01442*
G37*
G36*
X01481Y01427D02*
X01478D01*
X01475Y01426*
X01473Y01424*
X01472Y01421*
Y01418*
X01473Y01415*
X01475Y01413*
X01478Y01411*
X01481*
X01484Y01413*
X01486Y01415*
X01487Y01418*
Y01421*
X01486Y01424*
X01484Y01426*
X01481Y01427*
G37*
G36*
X04866Y01373D02*
X04863D01*
X0486Y01372*
X04858Y0137*
X04857Y01367*
Y01364*
X04858Y01361*
X0486Y01359*
X04863Y01358*
X04866*
X04869Y01359*
X04871Y01361*
X04872Y01364*
Y01367*
X04871Y0137*
X04869Y01372*
X04866Y01373*
G37*
G36*
X03706Y01349D02*
X03703D01*
X037Y01348*
X03698Y01346*
X03697Y01343*
Y0134*
X03698Y01337*
X037Y01335*
X03703Y01334*
X03706*
X03709Y01335*
X03711Y01337*
X03712Y0134*
Y01343*
X03711Y01346*
X03709Y01348*
X03706Y01349*
G37*
G36*
X01182Y01306D02*
X01179D01*
X01176Y01305*
X01174Y01303*
X01173Y013*
Y01297*
X01174Y01294*
X01176Y01292*
X01179Y01291*
X01182*
X01185Y01292*
X01187Y01294*
X01188Y01297*
Y013*
X01187Y01303*
X01185Y01305*
X01182Y01306*
G37*
G36*
X01776Y01297D02*
X01773D01*
X01772Y01297*
X01527*
X01524Y01297*
X01522Y01295*
X01514Y01287*
X01272*
X01271Y01287*
X01268*
X01265Y01286*
X01263Y01284*
X01262Y01281*
Y01278*
X01263Y01275*
X01265Y01273*
X01268Y01272*
X01271*
X01272Y01272*
X0128*
X0128Y01272*
X01283Y01271*
X01286*
X01289Y01272*
X01289Y01272*
X01517*
X0152Y01272*
X01522Y01274*
X0153Y01282*
X01656*
X01656Y01281*
X01656Y01281*
X01632Y01257*
X00153*
X0015Y01257*
X00147Y01255*
X00056Y01164*
X00054Y01161*
X00054Y01159*
Y00685*
X00054Y00682*
X00056Y00679*
X00059Y00677*
X00062Y00677*
X00064Y00677*
X00067Y00679*
X00069Y00682*
X00069Y00685*
Y01155*
X00156Y01242*
X01636*
X01638Y01242*
X01641Y01244*
X01665Y01268*
X01882*
X01882Y01267*
X0188Y01266*
X01878Y01264*
X01877Y01261*
Y01258*
X01878Y01255*
X0188Y01253*
X01881Y01252*
X01894Y01239*
X01897Y01238*
X019Y01237*
X02287*
X02338Y01186*
X02338Y01185*
X0234Y01183*
X02343Y01182*
X02346*
X02349Y01183*
X02352Y01185*
X02353Y01188*
Y01191*
X02352Y01194*
X02349Y01196*
X02349Y01196*
X02295Y0125*
X02293Y01252*
X0229Y01252*
X02008*
X02008Y01253*
X02008Y01256*
X02008Y01258*
X02006Y01261*
X01986Y01281*
X01983Y01283*
X01981Y01283*
X01781*
X0178Y01284*
X01781Y01285*
X01782Y01288*
Y01291*
X01781Y01294*
X01779Y01296*
X01776Y01297*
G37*
G36*
X02656Y01302D02*
X02653D01*
X0265Y01301*
X02648Y01299*
X02647Y01296*
Y01293*
X02648Y0129*
X0265Y01288*
X02653Y01287*
X02656*
X02659Y01288*
X02661Y0129*
X02662Y01293*
Y01296*
X02661Y01299*
X02659Y01301*
X02656Y01302*
G37*
G36*
X04088Y01285D02*
X04085D01*
X04082Y01284*
X0408Y01282*
X04079Y01279*
Y01276*
X0408Y01273*
X04082Y01271*
X04085Y0127*
X04088*
X04091Y01271*
X04093Y01273*
X04094Y01276*
Y01279*
X04093Y01282*
X04091Y01284*
X04088Y01285*
G37*
G36*
X04075Y01265D02*
X04072D01*
X04069Y01264*
X04067Y01262*
X04066Y01259*
Y01256*
X04067Y01253*
X04069Y01251*
X04072Y0125*
X04075*
X04078Y01251*
X0408Y01253*
X04081Y01256*
Y01259*
X0408Y01262*
X04078Y01264*
X04075Y01265*
G37*
G36*
X01716Y01263D02*
X01713D01*
X0171Y01262*
X01708Y0126*
X01707Y01257*
Y01254*
X01708Y01251*
X0171Y01249*
X01713Y01248*
X01716*
X01719Y01249*
X01721Y01251*
X01722Y01254*
Y01257*
X01721Y0126*
X01719Y01262*
X01716Y01263*
G37*
G36*
X01511Y01216D02*
X01508D01*
X01505Y01214*
X01503Y01212*
X01502Y01209*
Y01206*
X01503Y01203*
X01505Y01201*
X01508Y012*
X01511*
X01514Y01201*
X01516Y01203*
X01517Y01206*
Y01209*
X01516Y01212*
X01514Y01214*
X01511Y01216*
G37*
G36*
X02946Y01205D02*
X02943D01*
X0294Y01204*
X02938Y01202*
X02937Y01199*
Y01196*
X02938Y01193*
X0294Y01191*
X02943Y0119*
X02946*
X02949Y01191*
X02951Y01193*
X02952Y01196*
Y01199*
X02951Y01202*
X02949Y01204*
X02946Y01205*
G37*
G36*
X02154Y01193D02*
X02151D01*
X0215Y01193*
X00331*
X00328Y01193*
X00326Y01191*
X00114Y00979*
X00112Y00977*
X00112Y00974*
Y00671*
X00108*
X00105Y0067*
X00105Y0067*
X00104Y00671*
Y00794*
X00104Y00797*
X00102Y00799*
X00099Y00801*
X00097Y00802*
X00094Y00801*
X00091Y00799*
X00089Y00797*
X00089Y00794*
Y00671*
X00088Y0067*
X00086Y00667*
X00086Y00664*
Y00655*
X00086Y00652*
X00088Y00649*
X00089Y00648*
Y00551*
X00089Y00548*
X00091Y00545*
X00268Y00368*
X00271Y00366*
X00274Y00366*
X00918*
X0092Y00366*
X00923Y00368*
X00925Y00371*
X00925Y00374*
X00925Y00376*
X00923Y00379*
X0092Y00381*
X00918Y00381*
X00277*
X00104Y00554*
Y00651*
X00104Y00652*
X00106*
X00109Y00653*
X00111Y00655*
X00112Y00656*
X00126*
X00129Y00656*
X00132Y00658*
X00133Y00661*
X00134Y00663*
X00133Y00666*
X00132Y00669*
X00127Y00673*
Y00971*
X00334Y01178*
X0215*
X02151Y01178*
X02154*
X02157Y01179*
X02159Y01181*
X0216Y01184*
Y01187*
X02159Y0119*
X02157Y01192*
X02154Y01193*
G37*
G36*
X05381Y01229D02*
X05378D01*
X05375Y01228*
X05373Y01226*
X05373Y01225*
X05318Y01171*
X03611*
X0361Y01171*
X03607*
X03604Y0117*
X03602Y01168*
X03601Y01165*
Y01162*
X03602Y01159*
X03604Y01157*
X03607Y01156*
X0361*
X03611Y01156*
X05322*
X05324Y01156*
X05327Y01158*
X05383Y01215*
X05384Y01215*
X05386Y01217*
X05387Y0122*
Y01223*
X05386Y01226*
X05384Y01228*
X05381Y01229*
G37*
G36*
X00861Y0115D02*
X00857D01*
X00854Y01149*
X00852Y01146*
X00851Y01144*
Y0114*
X00852Y01137*
X00854Y01135*
X00857Y01134*
X00861*
X00863Y01135*
X00866Y01137*
X00867Y0114*
Y01144*
X00866Y01146*
X00863Y01149*
X00861Y0115*
G37*
G36*
X02455Y01276D02*
X02452Y01276D01*
X02449Y01274*
X02321Y01146*
X01891*
X01888Y01146*
X01885Y01144*
X01883Y01141*
X01883Y01139*
X01883Y01136*
X01885Y01133*
X01888Y01131*
X01891Y01131*
X02325*
X02327Y01131*
X0233Y01133*
X0246Y01263*
X02462Y01266*
X02462Y01269*
X02462Y01271*
X0246Y01274*
X02457Y01276*
X02455Y01276*
G37*
G36*
X03596Y01122D02*
X03593D01*
X0359Y01121*
X03588Y01119*
X03587Y01116*
Y01113*
X03588Y0111*
X0359Y01108*
X03593Y01107*
X03596*
X03599Y01108*
X03601Y0111*
X03602Y01113*
Y01116*
X03601Y01119*
X03599Y01121*
X03596Y01122*
G37*
G36*
X02747Y01107D02*
X02744D01*
X02741Y01106*
X02739Y01104*
X02738Y01101*
Y01098*
X02739Y01095*
X02741Y01093*
X02744Y01092*
X02747*
X0275Y01093*
X02752Y01095*
X02753Y01098*
Y01101*
X02752Y01104*
X0275Y01106*
X02747Y01107*
G37*
G36*
X00806Y01036D02*
X00803D01*
X008Y01035*
X00798Y01033*
X00797Y0103*
Y01027*
X00798Y01024*
X008Y01022*
X00803Y0102*
X00806*
X00809Y01022*
X00811Y01024*
X00812Y01027*
Y0103*
X00811Y01033*
X00809Y01035*
X00806Y01036*
G37*
G36*
X05595Y01033D02*
X05592D01*
X05589Y01032*
X05587Y0103*
X05586Y01027*
Y01024*
X05587Y01021*
X05589Y01019*
X05592Y01018*
X05595*
X05598Y01019*
X056Y01021*
X05601Y01024*
Y01027*
X056Y0103*
X05598Y01032*
X05595Y01033*
G37*
G36*
X02481Y01302D02*
X01795D01*
X01792Y01302*
X01789Y013*
X01787Y01297*
X01787Y01295*
X01787Y01292*
X01789Y01289*
X01792Y01287*
X01795Y01287*
X02477*
X02762Y01002*
X02765Y01*
X02768Y01*
X0308*
X03082Y01*
X03085Y01002*
X03087Y01005*
X03087Y01008*
X03087Y0101*
X03085Y01013*
X03082Y01015*
X0308Y01015*
X02771*
X02486Y013*
X02483Y01302*
X02481Y01302*
G37*
G36*
X01366Y00997D02*
X01363D01*
X0136Y00996*
X01358Y00994*
X01357Y00991*
Y00988*
X01358Y00985*
X0136Y00983*
X01363Y00982*
X01366*
X01369Y00983*
X01371Y00985*
X01372Y00988*
Y00991*
X01371Y00994*
X01369Y00996*
X01366Y00997*
G37*
G36*
X03337Y01327D02*
X03335Y01327D01*
X03332Y01325*
X0333Y01322*
X0333Y0132*
X0333Y01317*
X03332Y01314*
X03631Y01015*
X0363Y01014*
X03628*
X03625Y01013*
X03623Y01011*
X03622Y01008*
Y01005*
X03623Y01002*
X03625Y01*
X03628Y00999*
X03631*
X03634Y01*
X03636Y01002*
X03637Y01005*
Y01007*
X03638Y01008*
X0366Y00986*
X03663Y00984*
X03665Y00984*
X04535*
X04538Y00984*
X0454Y00986*
X0455Y00996*
X04551Y00995*
X04551Y00994*
Y00991*
X04552Y00988*
X04554Y00986*
X04557Y00985*
X0456*
X04561Y00985*
X04598*
X04655Y00928*
Y00273*
X04552Y0017*
X0209*
X0208Y0018*
Y0029*
X0208Y00292*
X02078Y00295*
X01981Y00392*
X01978Y00394*
X01976Y00394*
X01321*
X01318Y00394*
X01315Y00392*
X01216Y00293*
X0105*
X00985Y00358*
Y00372*
X00985Y00374*
X00983Y00377*
X0098Y00379*
X00978Y00379*
X00975Y00379*
X00972Y00377*
X0097Y00374*
X0097Y00372*
X00969Y00372*
Y00392*
X00969Y00395*
X00967Y00397*
X0095Y00414*
X00948Y00416*
X00945Y00416*
X0057*
X00494Y00491*
X00494Y00492*
X00493Y00493*
X00494Y00494*
X00662*
X00701Y00455*
X00704Y00453*
X00707Y00453*
X01041*
X01195Y00299*
X01198Y00297*
X01201Y00297*
X01203Y00297*
X01206Y00299*
X01208Y00301*
X01208Y00304*
Y00398*
X01467Y00658*
X01469Y0066*
X0147Y00663*
Y0082*
X01478Y00828*
X01993*
X01995Y00828*
X01998Y0083*
X02Y00833*
X02Y00836*
X02Y00838*
X01998Y0084*
X01999Y00841*
X02008*
X02026Y00823*
X02025Y00823*
X01656*
X01653Y00822*
X01651Y0082*
X01649Y00818*
X01648Y00815*
X01649Y00812*
X01651Y0081*
X01653Y00808*
X01656Y00807*
X0255*
X02869Y00488*
X02872Y00486*
X02875Y00486*
X02878Y00486*
X0288Y00488*
X02882Y00491*
X02882Y00494*
X02882Y00496*
X0288Y00499*
X0256Y00819*
X0256Y0082*
X0266*
X03036Y00444*
X03039Y00442*
X03042Y00442*
X036*
X03602Y00442*
X03605Y00444*
X03649Y00488*
X04333*
X04338Y00484*
X04338Y00483*
X0434Y00481*
X04343Y0048*
X04346*
X04349Y00481*
X04351Y00483*
X04352Y00486*
Y00489*
X04351Y00492*
X04349Y00494*
X04348Y00494*
X04342Y00501*
X04339Y00503*
X04337Y00503*
X03646*
X03643Y00503*
X0364Y00501*
X03596Y00457*
X03045*
X02671Y00831*
X02671Y00832*
X02678*
X03046Y00464*
X03049Y00462*
X03052Y00462*
X03298*
X033Y00462*
X03303Y00464*
X03424Y00585*
X03424Y00585*
X03425Y00584*
X03425Y00583*
Y0058*
X03426Y00577*
X03428Y00575*
X03431Y00574*
X03434*
X03435Y00574*
X03671*
X03688Y00557*
X03691Y00556*
X03694Y00555*
X04364*
X04637Y00282*
X04639Y00281*
X04642Y0028*
X04645Y00281*
X04647Y00282*
X04649Y00285*
X04649Y00288*
X04649Y00291*
X04647Y00293*
X04372Y00568*
X0437Y0057*
X04367Y0057*
X03697*
X03682Y00585*
X03682Y00586*
X03693*
X03704Y00575*
X03706Y00574*
X03709Y00573*
X03712Y00574*
X03715Y00575*
X03716Y00578*
X03717Y00581*
X03716Y00584*
X03715Y00586*
X03702Y00599*
X03699Y00601*
X03697Y00601*
X03422*
X03419Y00601*
X03416Y00599*
X03294Y00477*
X03055*
X02915Y00617*
X02916Y00618*
X02918Y00617*
X0292*
X03027Y0051*
X0303Y00508*
X03033Y00507*
X03035Y00508*
X03038Y0051*
X0304Y00512*
X0304Y00515*
X0304Y00518*
X03038Y0052*
X02578Y0098*
X02576Y00982*
X02573Y00982*
X01731*
X01558Y01155*
X01555Y01157*
X01553Y01157*
X01311*
X01308Y01157*
X01305Y01155*
X01303Y01152*
X01303Y0115*
X01303Y01147*
X01305Y01144*
X01308Y01142*
X01311Y01142*
X01333*
Y0114*
X01334Y01137*
X01336Y01135*
X01339Y01134*
X01342*
X01345Y01135*
X01347Y01137*
X01349Y0114*
Y01142*
X01549*
X01722Y00969*
X01725Y00967*
X01728Y00967*
X0257*
X02912Y00625*
Y00623*
X02913Y00621*
X02912Y0062*
X02687Y00845*
X02684Y00847*
X02682Y00847*
X0256*
X02559Y00848*
X02561Y0085*
X02562Y00853*
Y00856*
X02561Y00859*
X02559Y00861*
X02556Y00862*
X02553*
X02552Y00862*
X02356*
X02353Y00862*
X02353Y00861*
X02204*
X02204Y00862*
X02205Y00863*
X02206Y00866*
Y00869*
X02205Y00872*
X02202Y00874*
X022Y00875*
X02196*
X02194Y00874*
X02191Y00872*
X0219Y00869*
Y00866*
X02191Y00863*
X02192Y00862*
X02192Y00861*
X02161*
X02146Y00876*
X02143Y00878*
X02141Y00878*
X02132*
X02131Y00879*
X02133Y0088*
X0215Y00897*
X02367*
X02381Y00884*
X02381Y00883*
X02383Y00881*
X02386Y0088*
X02389*
X02392Y00881*
X02394Y00883*
X02395Y00886*
Y00889*
X02394Y00892*
X02392Y00894*
X02391Y00894*
X02376Y0091*
X02373Y00912*
X02371Y00912*
X02147*
X02144Y00912*
X02141Y0091*
X02124Y00893*
X00818*
X00815Y00893*
X00813Y00891*
X00639Y00717*
X00637Y00715*
X00637Y00712*
X00637Y00709*
X00639Y00706*
X00641Y00705*
X00644Y00704*
X00647Y00705*
X0065Y00706*
X00821Y00878*
X01131*
X01132Y00877*
X0113Y00876*
X00956Y00702*
X0064*
X00628Y00714*
Y00729*
X00628Y0073*
Y00733*
X00627Y00736*
X00625Y00738*
X00622Y00739*
X00619*
X00616Y00738*
X00614Y00736*
X00613Y00733*
Y0073*
X00613Y00729*
Y00711*
X00613Y00708*
X00615Y00706*
X00632Y00689*
X00634Y00687*
X00637Y00687*
X0096*
X00962Y00687*
X00965Y00689*
X01139Y00863*
X02113*
X02114Y00862*
X02113Y0086*
Y00857*
X02114Y00854*
X02116Y00852*
X02119Y00851*
X02122*
X02125Y00852*
X02127Y00854*
X02129Y00857*
Y0086*
X02128Y00862*
X02128Y00863*
X02137*
X02152Y00848*
X02152Y00848*
X02152Y00847*
X02062*
X02059Y00847*
X02057Y00845*
X02055Y00842*
X02054Y0084*
X02055Y00837*
X02055Y00836*
X02055Y00835*
X02036*
X02017Y00854*
X02014Y00856*
X02012Y00856*
X01362*
X01359Y00856*
X01357Y00854*
X01344Y00841*
X01342Y00839*
X01342Y00836*
Y00709*
X01341Y00708*
X0134Y00709*
X01338Y00711*
X01335Y00712*
X01332Y00711*
X01329Y00709*
X0121Y0059*
X00588*
X00585Y0059*
X00582Y00588*
X0058Y00585*
X0058Y00583*
X0058Y0058*
X00582Y00577*
X00585Y00575*
X00588Y00575*
X01213*
X01216Y00575*
X01219Y00577*
X0134Y00699*
X01341Y007*
X01342Y00699*
Y00592*
X01263Y00513*
X01259*
X01259Y00514*
X01279Y00535*
X0128Y00535*
X01282Y00537*
X01283Y0054*
Y00543*
X01282Y00546*
X0128Y00548*
X01277Y00549*
X01274*
X01271Y00548*
X01269Y00546*
X01269Y00545*
X01249Y00526*
X00303*
X00303Y00527*
X00305Y00529*
X00306Y00532*
Y00535*
X00305Y00538*
X00303Y0054*
X003Y00541*
X00297*
X00294Y0054*
X00292Y00538*
X00291Y00535*
Y00532*
X00292Y00529*
X00294Y00527*
X00294Y00526*
X00253*
X0025Y00525*
X00247Y00524*
X00245Y00521*
X00245Y00518*
X00245Y00516*
X00247Y00513*
X0025Y00511*
X00253Y00511*
X00862*
X00863Y0051*
X00862Y00507*
Y00504*
X00863Y00501*
X00865Y00499*
X00868Y00498*
X00871*
X00872Y00498*
X01267*
X01269Y00498*
X01272Y005*
X01355Y00583*
X01357Y00586*
X01357Y00589*
Y00833*
X01365Y00841*
X01468*
X01468Y0084*
X01457Y00828*
X01455Y00826*
X01454Y00823*
Y00666*
X01195Y00407*
X01193Y00404*
X01193Y00402*
Y00324*
X01192Y00323*
X0105Y00466*
X01047Y00468*
X01044Y00468*
X0071*
X00671Y00507*
X00668Y00509*
X00666Y00509*
X00215*
X00186Y00538*
Y00669*
X00185Y00672*
X00184Y00674*
X00173Y00685*
X0017Y00687*
X00168Y00687*
X00165Y00687*
X00164Y00686*
X00163Y00687*
Y00755*
X00164Y00756*
X00386Y00533*
X00389Y00531*
X00392Y00531*
X01208*
X01209Y00531*
X01212*
X01215Y00532*
X01217Y00534*
X01218Y00537*
Y0054*
X01217Y00543*
X01215Y00545*
X01212Y00546*
X01209*
X01208Y00546*
X00395*
X00175Y00766*
Y00772*
X00175Y00773*
Y00776*
X00174Y00779*
X00171Y00781*
X00168Y00782*
X00165*
X00164Y00782*
X00163Y00782*
Y00792*
X00438Y01067*
X0121*
X01212Y01067*
X01215Y01069*
X01243Y01097*
X01244*
X01247Y01098*
X01249Y01099*
X01259Y01109*
X01261Y01111*
X01261Y01114*
Y01145*
X01276Y0116*
X01797*
X01893Y01064*
X01896Y01062*
X01899Y01062*
X01935*
X01935Y01061*
X01933Y01061*
X01931Y01059*
X01929Y01056*
X01928Y01054*
X01929Y01051*
X01931Y01048*
X01933Y01046*
X01936Y01046*
X02598*
X02721Y00923*
X02721Y00922*
X02712*
X02707Y00927*
X02707Y00927*
X02705Y0093*
X02645Y00989*
X02645Y0099*
X02643Y00992*
X0264Y00993*
X02637*
X02634Y00992*
X02632Y0099*
X02631Y00987*
Y00984*
X02632Y00981*
X02634Y00979*
X02635Y00979*
X02692Y00921*
X02692Y00921*
X02694Y00918*
X02703Y00909*
X02706Y00908*
X02708Y00907*
X02722*
X02723Y00907*
X02726*
X02729Y00908*
X02731Y0091*
X02732Y00911*
X02733Y00912*
X02965Y00679*
X02968Y00677*
X02971Y00677*
X04331*
X04472Y00536*
Y00534*
X04474Y00526*
X04478Y0052*
X04483Y00514*
X0449Y0051*
X04498Y00508*
X045*
X04506Y00503*
X04508Y00501*
X04511Y00501*
X04514Y00501*
X04516Y00503*
X04518Y00505*
X04518Y00508*
X04518Y00511*
X04517Y00512*
X04517Y00513*
X0452Y00514*
X04525Y00519*
X04525Y0052*
X04526Y00519*
X04531Y00514*
X04538Y0051*
X04546Y00508*
X04548*
X04548Y00508*
X0455Y00506*
X04553Y00504*
X04556*
X04559Y00506*
X04561Y00508*
X04562Y00511*
Y00511*
X04568Y00514*
X04573Y00519*
X04574Y0052*
X04574Y00519*
X04579Y00514*
X04586Y0051*
X04594Y00508*
X04596*
Y00538*
X04598*
Y0054*
X04627*
Y00542*
X04625Y00549*
X04621Y00556*
X04618Y0056*
X04621Y00563*
X04625Y0057*
X04627Y00577*
Y00579*
X04598*
Y00581*
X04596*
Y00611*
X04594*
X04586Y00609*
X04579Y00605*
X04574Y006*
X04574Y00599*
X04573Y006*
X04568Y00605*
X04561Y00609*
X04553Y00611*
X04551*
Y00581*
X04548*
Y00611*
X04546*
X04538Y00609*
X04531Y00605*
X04526Y006*
X04525Y00599*
X04525Y006*
X0452Y00605*
X04513Y00609*
X04505Y00611*
X04503*
Y00581*
X04501*
Y00579*
X04472*
Y00577*
X04474Y0057*
X04478Y00563*
X04481Y0056*
X04478Y00556*
X04477Y00554*
X04476Y00554*
X0434Y0069*
X04337Y00692*
X04335Y00692*
X04308*
X04308Y00693*
X04308Y00693*
X04534Y0092*
X04536*
X04539Y00921*
X04541Y00923*
X04542Y00926*
Y00928*
X04585Y0097*
X04587Y00973*
X04587Y00976*
X04587Y00978*
X04585Y00981*
X04582Y00983*
X0458Y00983*
X04577Y00983*
X04574Y00981*
X04299Y00706*
X02994*
X02991Y00706*
X02988Y00704*
X02986Y00701*
X02986Y00699*
X02986Y00696*
X02988Y00693*
X02988Y00693*
X02988Y00692*
X02974*
X02607Y01059*
X02604Y01061*
X02602Y01061*
X02602Y01062*
X02647*
X02726Y00983*
X02729Y00981*
X02732Y00981*
X03325*
X03327Y00981*
X0333Y00983*
X03346Y00999*
X03348Y01002*
X03348Y01005*
Y0118*
X03348Y01182*
X03346Y01185*
X03343Y01187*
X03341Y01187*
X03338Y01187*
X03335Y01185*
X03333Y01182*
X03333Y0118*
Y01008*
X03321Y00996*
X02735*
X02656Y01075*
X02653Y01077*
X02651Y01077*
X01902*
X01806Y01173*
X01803Y01175*
X01801Y01175*
X01273*
X0127Y01175*
X01267Y01173*
X01248Y01154*
X01247Y01151*
X01246Y01149*
Y01117*
X01241Y01112*
X01238*
X01235Y01111*
X01233Y01109*
X01233Y01108*
X01206Y01082*
X00435*
X00432Y01082*
X0043Y0108*
X0015Y008*
X00148Y00798*
X00148Y00795*
Y0054*
X00148Y0054*
Y00537*
X00149Y00534*
X00151Y00531*
X00154Y0053*
X00157*
X0016Y00531*
X00162Y00534*
X00163Y00537*
Y0054*
X00163Y0054*
Y00609*
X00164Y0061*
X00165Y00609*
X00168*
X0017Y0061*
X00171Y00609*
Y00535*
X00171Y00532*
X00173Y0053*
X00207Y00496*
X00209Y00494*
X00212Y00494*
X00481*
X00482Y00493*
X00481Y00492*
X0048Y00489*
Y00486*
X00481Y00483*
X00483Y00481*
X00484Y00481*
X00561Y00403*
X00564Y00401*
X00567Y00401*
X00942*
X00954Y00389*
Y00234*
X00954Y00231*
X00956Y00228*
X00986Y00198*
X00986Y00197*
X00333*
X00113Y00417*
X0011Y00419*
X00108Y00419*
X00105Y00419*
X00102Y00417*
X001Y00414*
X001Y00412*
X001Y00409*
X00102Y00406*
X00324Y00184*
X00326Y00183*
X00329Y00182*
X0128*
X01283Y00183*
X01285Y00184*
X0139Y00289*
X0139Y00289*
X01393Y00291*
X01403Y00301*
X01404Y00301*
X01406Y00304*
X01407Y00307*
Y0031*
X01407Y00311*
X01407Y00312*
X01797*
X01989Y0012*
X01992Y00118*
X01995Y00118*
X04786*
X04788Y00118*
X04791Y0012*
X05267Y00596*
X05268Y00596*
X0527Y00599*
X05271Y00601*
Y00605*
X0527Y00608*
X05268Y0061*
X05265Y00611*
X05261*
X05259Y0061*
X05256Y00608*
X05256Y00607*
X04782Y00133*
X01998*
X01806Y00325*
X01803Y00327*
X01801Y00327*
X01695*
X01695Y00328*
X01695Y00328*
X01702Y00335*
X01705Y00343*
Y00346*
X01658*
Y00343*
X01661Y00335*
X01668Y00328*
X01668Y00328*
X01668Y00327*
X01369*
X01369Y00328*
X01407Y00366*
X01606*
X01618Y00354*
X0162Y00352*
X01623Y00352*
X01658*
Y0035*
X01705*
Y00352*
X01847*
X01848Y00352*
X01851*
X01854Y00353*
X01856Y00355*
X01857Y00358*
Y00361*
X01856Y00364*
X01854Y00366*
X01851Y00367*
X01848*
X01847Y00367*
X01696*
X01695Y00368*
X01686Y00372*
X01677*
X01668Y00368*
X01667Y00367*
X01627*
X01616Y00378*
X01616Y00379*
X01972*
X02065Y00286*
Y00177*
X02065Y00174*
X02067Y00172*
X02082Y00157*
X02084Y00155*
X02087Y00155*
X04556*
X04558Y00155*
X04561Y00157*
X04668Y00264*
X0467Y00267*
X0467Y0027*
Y00932*
X0467Y00934*
X04668Y00937*
X04609Y00995*
X0461Y00996*
X05225*
X05341Y0088*
X05344Y00878*
X05347Y00878*
X05349Y00878*
X05352Y0088*
X05354Y00883*
X05354Y00886*
X05354Y00888*
X05352Y00891*
X05236Y01006*
X05237Y01007*
X0548*
X05482Y01008*
X05485Y01009*
X05487Y01012*
X05487Y01015*
X05487Y01018*
X05485Y0102*
X05482Y01022*
X0548Y01022*
X0368*
X03677Y01022*
X03674Y0102*
X03672Y01018*
X03672Y01015*
X03672Y01012*
X03674Y01009*
X03677Y01008*
X0368Y01007*
X04539*
X04539Y01006*
X04532Y00999*
X03669*
X03343Y01325*
X0334Y01327*
X03337Y01327*
G37*
G36*
X01531Y00958D02*
X01528D01*
X01525Y00957*
X01523Y00955*
X01522Y00952*
Y00949*
X01523Y00946*
X01525Y00944*
X01528Y00943*
X01531*
X01534Y00944*
X01536Y00946*
X01537Y00949*
Y00952*
X01536Y00955*
X01534Y00957*
X01531Y00958*
G37*
G36*
X03321Y00939D02*
X03318D01*
X03315Y00938*
X03313Y00936*
X03312Y00933*
Y0093*
X03313Y00927*
X03315Y00924*
X03318Y00923*
X03321*
X03324Y00924*
X03326Y00927*
X03327Y0093*
Y00933*
X03326Y00936*
X03324Y00938*
X03321Y00939*
G37*
G36*
X04744Y00935D02*
X0474D01*
X04738Y00934*
X04735Y00932*
X04734Y00929*
Y00926*
X04735Y00923*
X04738Y00921*
X0474Y0092*
X04744*
X04746Y00921*
X04749Y00923*
X0475Y00926*
Y00929*
X04749Y00932*
X04746Y00934*
X04744Y00935*
G37*
G36*
X023Y00931D02*
X02297D01*
X02294Y0093*
X02292Y00928*
X02291Y00925*
Y00922*
X02292Y00919*
X02294Y00917*
X02297Y00916*
X023*
X02303Y00917*
X02305Y00919*
X02306Y00922*
Y00925*
X02305Y00928*
X02303Y0093*
X023Y00931*
G37*
G36*
X01597Y01047D02*
X01096D01*
X01093Y01047*
X0109Y01045*
X00989Y00944*
X00476*
X00473Y00944*
X0047Y00942*
X00335Y00807*
X00333Y00804*
X00333Y00802*
X00333Y00799*
X00335Y00796*
X00338Y00794*
X00341Y00794*
X00343Y00794*
X00346Y00796*
X00479Y00929*
X00993*
X00995Y00929*
X00998Y00931*
X01099Y01032*
X01266*
X01266Y01031*
X01264Y0103*
X01262Y01028*
X01261Y01025*
Y01022*
X01262Y01019*
X01264Y01017*
X01267Y01016*
X0127*
X01271Y01016*
X01581*
X0169Y00907*
X01693Y00905*
X01696Y00905*
X01914*
X01917Y00905*
X01919Y00907*
X01924Y00912*
X02137*
X02138Y00912*
X02141*
X02144Y00913*
X02146Y00915*
X02147Y00918*
Y00921*
X02146Y00924*
X02144Y00926*
X02141Y00927*
X02138*
X02137Y00927*
X01921*
X01918Y00927*
X01916Y00925*
X01911Y0092*
X01856*
X01855Y00921*
X01857Y00922*
X01859Y00925*
X01859Y00928*
X01859Y0093*
X01857Y00933*
X01854Y00935*
X01852Y00935*
X01712*
X01602Y01045*
X01599Y01047*
X01597Y01047*
G37*
G36*
X0072Y00906D02*
X00717D01*
X00714Y00905*
X00712Y00903*
X00711Y009*
Y00897*
X00712Y00894*
X00714Y00892*
X00717Y00891*
X0072*
X00723Y00892*
X00725Y00894*
X00726Y00897*
Y009*
X00725Y00903*
X00723Y00905*
X0072Y00906*
G37*
G36*
X0064Y0087D02*
X00637D01*
X00634Y00869*
X00632Y00867*
X00631Y00864*
Y00861*
X00632Y00858*
X00634Y00856*
X00637Y00854*
X0064*
X00643Y00856*
X00645Y00858*
X00646Y00861*
Y00864*
X00645Y00867*
X00643Y00869*
X0064Y0087*
G37*
G36*
X0129Y00848D02*
X01287D01*
X01284Y00847*
X01282Y00845*
X01281Y00842*
Y00839*
X01282Y00836*
X01284Y00834*
X01287Y00833*
X0129*
X01293Y00834*
X01295Y00836*
X01296Y00839*
Y00842*
X01295Y00845*
X01293Y00847*
X0129Y00848*
G37*
G36*
X00682Y00829D02*
X00679D01*
X00676Y00828*
X00674Y00826*
X00673Y00823*
Y0082*
X00674Y00817*
X00676Y00815*
X00679Y00814*
X00682*
X00685Y00815*
X00687Y00817*
X00688Y0082*
Y00823*
X00687Y00826*
X00685Y00828*
X00682Y00829*
G37*
G36*
X03245Y01347D02*
X01184D01*
X01181Y01347*
X01178Y01345*
X01109Y01276*
X01107Y01273*
X01107Y01271*
X01107Y01268*
X01109Y01265*
X01112Y01263*
X01115Y01263*
X01117Y01263*
X0112Y01265*
X01187Y01332*
X03242*
X03252Y01321*
X03252Y0132*
X01649*
X01646Y0132*
X01643Y01318*
X01641Y01315*
X01641Y01313*
X01641Y0131*
X01643Y01307*
X01646Y01305*
X01649Y01305*
X03249*
X03479Y01075*
Y00893*
X03479Y0089*
X03481Y00887*
X03484Y00885*
X03487Y00885*
X03489Y00885*
X03492Y00887*
X03494Y0089*
X03494Y00893*
Y01078*
X03495Y01078*
X03513Y01061*
Y00812*
X03512Y00812*
X03511Y00812*
X03508*
X03507Y00812*
X03488*
X03431Y00868*
X03431Y00869*
X03429Y00871*
X03426Y00872*
X03423*
X0342Y00871*
X03418Y00869*
X03417Y00866*
Y00863*
X03418Y0086*
X0342Y00858*
X03421Y00858*
X03479Y00799*
X03482Y00797*
X03485Y00797*
X03507*
X03508Y00797*
X03511*
X03512Y00797*
X03513Y00797*
Y00745*
X03513Y00742*
X03515Y00739*
X03518Y00737*
X03521Y00737*
X03523Y00737*
X03526Y00739*
X03528Y00742*
X03528Y00745*
Y01064*
X03528Y01067*
X03526Y01069*
X0325Y01345*
X03248Y01347*
X03245Y01347*
G37*
G36*
X03666Y00747D02*
X03663D01*
X0366Y00746*
X03658Y00744*
X03657Y00741*
Y00738*
X03658Y00735*
X0366Y00733*
X03663Y00732*
X03666*
X03667Y00732*
X04306*
X04308Y0073*
X04308Y0073*
X0431Y00728*
X04313Y00727*
X04316*
X04319Y00728*
X04321Y0073*
X04322Y00733*
Y00736*
X04321Y00739*
X04319Y00741*
X04318Y00742*
X04315Y00745*
X04312Y00747*
X04309Y00747*
X03667*
X03666Y00747*
G37*
G36*
X03687Y0073D02*
X03684D01*
X03681Y00729*
X03679Y00727*
X03678Y00724*
Y00721*
X03679Y00718*
X03681Y00716*
X03684Y00715*
X03687*
X0369Y00716*
X03692Y00718*
X03693Y00721*
Y00724*
X03692Y00727*
X0369Y00729*
X03687Y0073*
G37*
G36*
X01306Y00722D02*
X01302D01*
X013Y00721*
X01297Y00719*
X01296Y00716*
Y00713*
X01297Y0071*
X013Y00708*
X01302Y00707*
X01306*
X01308Y00708*
X01311Y0071*
X01312Y00713*
Y00716*
X01311Y00719*
X01308Y00721*
X01306Y00722*
G37*
G36*
X04632Y00721D02*
X04629D01*
X04626Y0072*
X04624Y00718*
X04623Y00715*
Y00712*
X04624Y00709*
X04626Y00707*
X04629Y00706*
X04632*
X04635Y00707*
X04637Y00709*
X04638Y00712*
Y00715*
X04637Y00718*
X04635Y0072*
X04632Y00721*
G37*
G36*
X00046Y00702D02*
X00043D01*
X0004Y00701*
X00038Y00699*
X00037Y00696*
Y00693*
X00038Y0069*
X0004Y00688*
X00043Y00687*
X00046*
X00049Y00688*
X00051Y0069*
X00052Y00693*
Y00696*
X00051Y00699*
X00049Y00701*
X00046Y00702*
G37*
G36*
X02754Y00681D02*
X02751D01*
X02748Y0068*
X02746Y00678*
X02745Y00675*
Y00672*
X02746Y00669*
X02748Y00667*
X02751Y00666*
X02754*
X02757Y00667*
X02759Y00669*
X0276Y00672*
Y00675*
X02759Y00678*
X02757Y0068*
X02754Y00681*
G37*
G36*
X01025Y00622D02*
X01022D01*
X01019Y00621*
X01017Y00619*
X01016Y00616*
Y00613*
X01017Y0061*
X01019Y00608*
X01022Y00607*
X01025*
X01028Y00608*
X0103Y0061*
X01031Y00613*
Y00616*
X0103Y00619*
X01028Y00621*
X01025Y00622*
G37*
G36*
X0341Y00621D02*
X03407D01*
X03404Y0062*
X03402Y00618*
X03401Y00615*
Y00612*
X03402Y00609*
X03404Y00607*
X03407Y00606*
X0341*
X03413Y00607*
X03415Y00609*
X03416Y00612*
Y00615*
X03415Y00618*
X03413Y0062*
X0341Y00621*
G37*
G36*
X01007Y00617D02*
X01004D01*
X01001Y00616*
X00999Y00614*
X00998Y00611*
Y00607*
X00999Y00605*
X01001Y00602*
X01004Y00601*
X01007*
X0101Y00602*
X01012Y00605*
X01013Y00607*
Y00611*
X01012Y00614*
X0101Y00616*
X01007Y00617*
G37*
G36*
X04601Y00611D02*
X046D01*
Y00583*
X04627*
Y00585*
X04625Y00593*
X04621Y00599*
X04616Y00605*
X04609Y00609*
X04601Y00611*
G37*
G36*
X045D02*
X04498D01*
X0449Y00609*
X04483Y00605*
X04478Y00599*
X04474Y00593*
X04472Y00585*
Y00583*
X045*
Y00611*
G37*
G36*
X03183Y00594D02*
X0318D01*
X03177Y00593*
X03175Y0059*
X03174Y00588*
Y00584*
X03175Y00582*
X03177Y00579*
X0318Y00578*
X03183*
X03186Y00579*
X03188Y00582*
X03189Y00584*
Y00588*
X03188Y0059*
X03186Y00593*
X03183Y00594*
G37*
G36*
X04627Y00536D02*
X046D01*
Y00508*
X04601*
X04609Y0051*
X04616Y00514*
X04621Y0052*
X04625Y00526*
X04627Y00534*
Y00536*
G37*
G36*
X02831Y00516D02*
X02828D01*
X02825Y00515*
X02823Y00513*
X02822Y0051*
Y00507*
X02823Y00504*
X02825Y00502*
X02828Y00501*
X02831*
X02834Y00502*
X02836Y00504*
X02837Y00507*
Y0051*
X02836Y00513*
X02834Y00515*
X02831Y00516*
G37*
G36*
X05265Y00512D02*
X05261D01*
X05259Y00511*
X05256Y00509*
X05255Y00506*
Y00502*
X05256Y005*
X05259Y00497*
X05261Y00496*
X05265*
X05268Y00497*
X0527Y005*
X05271Y00502*
Y00506*
X0527Y00509*
X05268Y00511*
X05265Y00512*
G37*
G36*
X01743Y01044D02*
X0174D01*
X01737Y01043*
X01735Y01041*
X01734Y01038*
Y01035*
X01735Y01032*
X01737Y0103*
X0174Y01029*
X01743*
X01744Y01029*
X02547*
X02897Y00679*
X02896Y00678*
X02895Y00675*
Y00672*
X02896Y00669*
X02898Y00667*
X02901Y00666*
X02904*
X02907Y00667*
X02908Y00668*
X03093Y00484*
X03093Y00483*
X03095Y00481*
X03098Y0048*
X03101*
X03104Y00481*
X03106Y00483*
X03107Y00486*
Y00489*
X03106Y00492*
X03104Y00494*
X03103Y00494*
X02556Y01042*
X02553Y01044*
X02551Y01044*
X01744*
X01743Y01044*
G37*
G36*
X04806Y00489D02*
X04803D01*
X048Y00488*
X04798Y00486*
X04797Y00483*
Y0048*
X04798Y00477*
X048Y00475*
X04803Y00474*
X04806*
X04809Y00475*
X04811Y00477*
X04812Y0048*
Y00483*
X04811Y00486*
X04809Y00488*
X04806Y00489*
G37*
G36*
X03472Y00482D02*
X03469D01*
X03466Y0048*
X03464Y00478*
X03463Y00475*
Y00472*
X03464Y00469*
X03466Y00467*
X03469Y00466*
X03472*
X03475Y00467*
X03477Y00469*
X03478Y00472*
Y00475*
X03477Y00478*
X03475Y0048*
X03472Y00482*
G37*
G36*
X04982Y0048D02*
X04978D01*
X04975Y00479*
X04973Y00477*
X04972Y00474*
Y00471*
X04973Y00468*
X04975Y00466*
X04978Y00465*
X04982*
X04984Y00466*
X04987Y00468*
X04988Y00471*
Y00474*
X04987Y00477*
X04984Y00479*
X04982Y0048*
G37*
G36*
X03765Y00454D02*
X03762D01*
X03759Y00453*
X03757Y00451*
X03756Y00448*
Y00445*
X03757Y00442*
X03759Y0044*
X03762Y00439*
X03765*
X03768Y0044*
X0377Y00442*
X03771Y00445*
Y00448*
X0377Y00451*
X03768Y00453*
X03765Y00454*
G37*
G36*
X03657Y00434D02*
X03654D01*
X03651Y00433*
X03649Y00431*
X03648Y00428*
Y00425*
X03649Y00422*
X03651Y0042*
X03654Y00419*
X03657*
X0366Y0042*
X03662Y00422*
X03663Y00425*
Y00428*
X03662Y00431*
X0366Y00433*
X03657Y00434*
G37*
G36*
X04739Y00432D02*
X04736D01*
X04733Y00431*
X04731Y00429*
X0473Y00426*
Y00423*
X04731Y0042*
X04733Y00418*
X04736Y00417*
X04739*
X04742Y00418*
X04744Y0042*
X04745Y00423*
Y00426*
X04744Y00429*
X04742Y00431*
X04739Y00432*
G37*
G36*
X0262Y00423D02*
X02617D01*
X02614Y00422*
X02612Y0042*
X02611Y00417*
Y00414*
X02612Y00411*
X02614Y00409*
X02617Y00408*
X0262*
X02623Y00409*
X02625Y00411*
X02626Y00414*
Y00417*
X02625Y0042*
X02623Y00422*
X0262Y00423*
G37*
G36*
X04396Y00395D02*
X04393D01*
X0439Y00394*
X04388Y00392*
X04387Y00389*
Y00386*
X04388Y00383*
X0439Y00381*
X04393Y0038*
X04396*
X04399Y00381*
X04401Y00383*
X04402Y00386*
Y00389*
X04401Y00392*
X04399Y00394*
X04396Y00395*
G37*
G36*
X02394Y007D02*
X02391D01*
X02388Y00699*
X02386Y00697*
X02385Y00694*
Y00691*
X02386Y00688*
X02388Y00686*
X02389Y00685*
X02684Y0039*
X02682Y00388*
X02681Y00385*
Y00382*
X02682Y00379*
X02684Y00377*
X02687Y00375*
X0269*
X02693Y00377*
X02696Y00379*
X02696Y00379*
X02696Y00378*
X02699Y00378*
X03927*
X03928Y00378*
X03931*
X03934Y00379*
X03936Y00381*
X03937Y00384*
Y00387*
X03936Y0039*
X03934Y00392*
X03931Y00393*
X03928*
X03927Y00393*
X02702*
X02399Y00696*
X02399Y00697*
X02397Y00699*
X02394Y007*
G37*
G36*
X02719Y00376D02*
X02716D01*
X02713Y00375*
X02711Y00373*
X0271Y0037*
Y00367*
X02711Y00364*
X02713Y00362*
X02716Y00361*
X02719*
X02722Y00362*
X02724Y00364*
X02725Y00367*
Y0037*
X02724Y00373*
X02722Y00375*
X02719Y00376*
G37*
G36*
X01335Y00492D02*
X01332D01*
X01329Y00491*
X01327Y00489*
X01326Y00486*
Y00483*
X01327Y0048*
X01329Y00478*
X01332Y00477*
X01335*
X01336Y00477*
X02229*
X0237Y00336*
X02373Y00334*
X02376Y00334*
X02451*
X02452Y00334*
X02455*
X02458Y00335*
X0246Y00337*
X02461Y0034*
Y00343*
X0246Y00346*
X02458Y00348*
X02455Y00349*
X02452*
X02451Y00349*
X02444*
X02444Y00349*
X02441Y0035*
X02438*
X02435Y00349*
X02435Y00349*
X02379*
X02238Y0049*
X02235Y00492*
X02233Y00492*
X01336*
X01335Y00492*
G37*
G36*
X0294Y00343D02*
X02937D01*
X02934Y00342*
X02932Y0034*
X02931Y00337*
Y00334*
X02932Y00331*
X02934Y00329*
X02937Y00328*
X0294*
X02943Y00329*
X02945Y00331*
X02946Y00334*
Y00337*
X02945Y0034*
X02943Y00342*
X0294Y00343*
G37*
G36*
X03485Y00336D02*
X03481D01*
X03479Y00335*
X03476Y00333*
X03475Y0033*
Y00327*
X03476Y00324*
X03479Y00322*
X03481Y00321*
X03485*
X03487Y00322*
X0349Y00324*
X03491Y00327*
Y0033*
X0349Y00333*
X03487Y00335*
X03485Y00336*
G37*
G36*
X01062Y00332D02*
X01059D01*
X01056Y00331*
X01054Y00329*
X01053Y00326*
Y00323*
X01054Y0032*
X01056Y00318*
X01059Y00317*
X01062*
X01065Y00318*
X01067Y0032*
X01068Y00323*
Y00326*
X01067Y00329*
X01065Y00331*
X01062Y00332*
G37*
G36*
X02377Y00749D02*
X01481D01*
X01478Y00749*
X01475Y00747*
X01473Y00744*
X01473Y00742*
X01473Y00739*
X01475Y00736*
X01478Y00734*
X01481Y00734*
X02373*
X02653Y00454*
X02656Y00452*
X02659Y00452*
X03005*
X03034Y00423*
X03034Y00422*
X03032Y0042*
X03031Y00417*
Y00414*
X03032Y00411*
X03034Y00409*
X03037Y00408*
X0304*
X03043Y00409*
X03045Y00411*
X03046Y00414*
Y00417*
X03046Y00419*
X03046Y0042*
X0363*
X03632Y0042*
X03635Y00422*
X03684Y00471*
X04195*
X04246Y0042*
X04246Y00419*
X04245Y00419*
X04242Y00417*
X04014Y00189*
X02495*
X02492Y00189*
X02489Y00187*
X02487Y00184*
X02487Y00182*
X02487Y00179*
X02489Y00176*
X02492Y00174*
X02495Y00174*
X04018*
X0402Y00174*
X04023Y00176*
X04253Y00406*
X04255Y00409*
X04255Y0041*
X04256Y0041*
X04351Y00315*
X04354Y00313*
X04357Y00313*
X04359Y00313*
X04362Y00315*
X04364Y00318*
X04364Y00321*
X04364Y00323*
X04362Y00326*
X04204Y00484*
X04202Y00485*
X04199Y00486*
X0368*
X03677Y00485*
X03675Y00484*
X03626Y00435*
X03044*
X03014Y00465*
X03011Y00467*
X03009Y00467*
X02897*
X02897Y00468*
X02899Y00469*
X02901Y00471*
X02902Y00474*
Y00477*
X02901Y0048*
X02899Y00482*
X02896Y00483*
X02893*
X0289Y00482*
X02888Y0048*
X02887Y00477*
Y00474*
X02888Y00471*
X0289Y00469*
X02892Y00468*
X02892Y00467*
X02662*
X02382Y00747*
X02379Y00749*
X02377Y00749*
G37*
G36*
X00943Y00319D02*
X0094D01*
X00937Y00318*
X00935Y00316*
X00934Y00313*
Y0031*
X00935Y00307*
X00937Y00305*
X0094Y00303*
X00943*
X00946Y00305*
X00948Y00307*
X00949Y0031*
Y00313*
X00948Y00316*
X00946Y00318*
X00943Y00319*
G37*
G36*
X02134Y00696D02*
X01704D01*
X01701Y00696*
X01698Y00694*
X01696Y00691*
X01696Y00689*
X01696Y00686*
X01698Y00683*
X01701Y00681*
X01704Y00681*
X02131*
X02516Y00296*
X02518Y00294*
X02521Y00294*
X02987*
X02989Y00294*
X02992Y00296*
X02994Y00299*
X02994Y00302*
X02994Y00304*
X02992Y00307*
X02989Y00309*
X02987Y00309*
X02524*
X02139Y00694*
X02137Y00696*
X02134Y00696*
G37*
G36*
X03861Y00283D02*
X03858D01*
X03855Y00282*
X03853Y0028*
X03852Y00277*
Y00274*
X03853Y00271*
X03855Y00269*
X03858Y00268*
X03861*
X03864Y00269*
X03866Y00271*
X03867Y00274*
Y00277*
X03866Y0028*
X03864Y00282*
X03861Y00283*
G37*
G36*
X0132Y00472D02*
X01317D01*
X01314Y00471*
X01312Y00469*
X01311Y00466*
Y00463*
X01312Y0046*
X01314Y00458*
X01317Y00457*
X0132*
X01321Y00457*
X0213*
X02314Y00273*
X02317Y00271*
X0232Y00271*
X02792*
X02792Y0027*
X0279Y00269*
X02788Y00267*
X02787Y00264*
Y00261*
X02788Y00258*
X0279Y00256*
X02793Y00255*
X02796*
X02799Y00256*
X02801Y00258*
X02802Y00261*
Y00264*
X02801Y00267*
X02799Y00269*
X02797Y0027*
X02797Y00271*
X02974*
X02976Y00271*
X02979Y00273*
X02981Y00276*
X02981Y00279*
X02981Y00281*
X02979Y00284*
X02976Y00286*
X02974Y00286*
X02323*
X02139Y0047*
X02136Y00472*
X02134Y00472*
X01321*
X0132Y00472*
G37*
G36*
X0071Y00227D02*
X00707D01*
X00704Y00226*
X00702Y00224*
X00701Y00221*
Y00218*
X00702Y00215*
X00704Y00213*
X00707Y00212*
X0071*
X00713Y00213*
X00715Y00215*
X00716Y00218*
Y00221*
X00715Y00224*
X00713Y00226*
X0071Y00227*
G37*
G36*
X03101Y00219D02*
X03098D01*
X03095Y00218*
X03093Y00216*
X03092Y00213*
Y0021*
X03093Y00207*
X03095Y00205*
X03098Y00204*
X03101*
X03104Y00205*
X03106Y00207*
X03107Y0021*
Y00213*
X03106Y00216*
X03104Y00218*
X03101Y00219*
G37*
G36*
X01944Y00352D02*
X01941Y00352D01*
X01938Y0035*
X01936Y00347*
X01936Y00345*
Y0023*
X01936Y00227*
X01938Y00224*
X02022Y0014*
X02025Y00138*
X02028Y00138*
X04391*
X04392Y00138*
X04395*
X04398Y00139*
X044Y00141*
X04401Y00144*
Y00147*
X044Y0015*
X04398Y00152*
X04395Y00153*
X04392*
X04391Y00153*
X02031*
X02019Y00165*
X0202Y00166*
X02022Y00165*
X02025*
X02028Y00166*
X0203Y00168*
X02031Y00171*
Y00174*
X0203Y00177*
X02028Y00179*
X02025Y0018*
X02022*
X02019Y00179*
X02017Y00177*
X02016Y00174*
Y00171*
X02017Y00169*
X02016Y00168*
X01951Y00233*
Y00345*
X01951Y00347*
X01949Y0035*
X01946Y00352*
X01944Y00352*
G37*
G36*
X01361Y0018D02*
X01358D01*
X01355Y00179*
X01353Y00177*
X01352Y00174*
Y00171*
X01353Y00168*
X01355Y00166*
X01358Y00165*
X01361*
X01364Y00166*
X01366Y00168*
X01367Y00171*
Y00174*
X01366Y00177*
X01364Y00179*
X01361Y0018*
G37*
G36*
X01083Y00139D02*
X0108D01*
X01077Y00138*
X01075Y00136*
X01074Y00133*
Y0013*
X01075Y00127*
X01077Y00125*
X0108Y00124*
X01083*
X01086Y00125*
X01088Y00127*
X01089Y0013*
Y00133*
X01088Y00136*
X01086Y00138*
X01083Y00139*
G37*
G36*
X02851Y-00062D02*
X02848D01*
X02845Y-00063*
X02843Y-00065*
X02842Y-00068*
Y-00071*
X02843Y-00074*
X02845Y-00076*
X02848Y-00077*
X02851*
X02854Y-00076*
X02856Y-00074*
X02857Y-00071*
Y-00068*
X02856Y-00065*
X02854Y-00063*
X02851Y-00062*
G37*
G36*
X02961Y-00112D02*
X02958D01*
X02955Y-00113*
X02953Y-00115*
X02952Y-00118*
Y-00121*
X02953Y-00124*
X02955Y-00126*
X02958Y-00127*
X02961*
X02964Y-00126*
X02966Y-00124*
X02967Y-00121*
Y-00118*
X02966Y-00115*
X02964Y-00113*
X02961Y-00112*
G37*
%LNpower_board-3*%
%LPD*%
G36*
X01397Y00378D02*
X01275Y00255D01*
X01005*
X01002Y00255*
X01Y00253*
X00998Y00251*
X00998Y00248*
X00998Y00245*
X01Y00243*
X01002Y00241*
X01005Y0024*
X01274*
X01275Y00239*
X01244Y00209*
X00997*
X00969Y00237*
Y00354*
X0097Y00354*
X0097Y00352*
X00972Y00349*
X01041Y0028*
X01044Y00278*
X01047Y00278*
X0122*
X01222Y00278*
X01225Y0028*
X01324Y00379*
X01397*
X01397Y00378*
G37*
G36*
X01391Y00311D02*
X01384Y00303D01*
X01383Y00303*
X01381Y00301*
X01276Y00197*
X01255*
X01255Y00198*
X01369Y00312*
X01391*
X01391Y00311*
G37*
%LNpower_board-4*%
%LPC*%
G36*
X01329Y0034D02*
X01326D01*
X01323Y00339*
X01321Y00337*
X0132Y00334*
Y00331*
X01321Y00328*
X01323Y00326*
X01326Y00325*
X01329*
X01332Y00326*
X01334Y00328*
X01335Y00331*
Y00334*
X01334Y00337*
X01332Y00339*
X01329Y0034*
G37*
%LNpower_board-5*%
%LPD*%
G54D86*
X04555Y00512D03*
X00859Y01142D03*
X0124Y01105D03*
X02555Y00855D03*
X01682Y00348D03*
X0185Y0036D03*
X014Y00308D03*
X00105Y0066D03*
X00167Y00774D03*
Y00617D03*
X02795Y00262D03*
X04087Y01278D03*
X02388Y00888D03*
X0214Y0092D03*
X01775Y0129D03*
X0127Y0128D03*
X04315Y00735D03*
X03665Y0074D03*
X03509Y00805D03*
X03425Y00865D03*
X02724Y00914D03*
X02638Y00986D03*
X02345Y0119D03*
X01885Y0126D03*
X03685Y00723D03*
X04559Y00993D03*
X01006Y00609D03*
X02746Y011D03*
X04074Y01258D03*
X01365Y0099D03*
X01082Y00132D03*
X02578Y01435D03*
X01341Y01142D03*
X00639Y00862D03*
X00805Y01028D03*
X02619Y00416D03*
X03039D03*
X00719Y00899D03*
X0386Y00276D03*
X0538Y01222D03*
X03609Y01164D03*
X02718Y00369D03*
X0498Y00473D03*
X05263Y00504D03*
X0292Y00625D03*
X02024Y00173D03*
X03656Y00427D03*
X03615Y01547D03*
X01285Y01279D03*
X01472Y00882D03*
X01328Y00333D03*
X04394Y00146D03*
X04738Y00425D03*
X00621Y00731D03*
X00156Y00538D03*
X01276Y00542D03*
X00045Y00695D03*
X03471Y00474D03*
X02153Y01186D03*
X01319Y00465D03*
X01304Y00714D03*
X0148Y01419D03*
X00299Y00534D03*
X02689Y00383D03*
X04631Y00714D03*
X0151Y01208D03*
X0332Y00931D03*
X0244Y00343D03*
X02454Y00342D03*
X01334Y00485D03*
X01289Y00841D03*
X00709Y0022D03*
X01061Y00325D03*
X01024Y00615D03*
X02121Y00859D03*
X0283Y00509D03*
X0087Y00506D03*
X04345Y00488D03*
X04865Y01366D03*
X03483Y00329D03*
X01715Y01256D03*
X02299Y00924D03*
X0285Y-0007D03*
X03433Y00582D03*
X05263Y00603D03*
X00488Y00488D03*
X02939Y00336D03*
X03595Y01115D03*
X01181Y01299D03*
X00942Y00311D03*
X02895Y00476D03*
X0136Y00173D03*
X0153Y00951D03*
X00681Y00822D03*
X05594Y01026D03*
X0296Y-0012D03*
X031Y00212D03*
X0363Y01007D03*
X03764Y00447D03*
X04395Y00388D03*
X04805Y00482D03*
X01211Y00539D03*
X031Y00488D03*
X01742Y01037D03*
X03409Y00614D03*
X01269Y01024D03*
X03182Y00586D03*
X03705Y01342D03*
X02198Y00868D03*
X0393Y00386D03*
X02393Y00692D03*
X02655Y01295D03*
X02945Y01198D03*
X04742Y00928D03*
X04535D03*
X02753Y00674D03*
X02903D03*
G54D87*
X04598Y00581D03*
X0455D03*
X04501D03*
X04598Y00538D03*
X0455D03*
X04501D03*
G54D92*
X04494Y00521D02*
X04498D01*
X04484Y00531D02*
X04494Y00521D01*
X04484Y00531D02*
Y00535D01*
X04498Y00521D02*
X04511Y00508D01*
X00156Y00795D02*
X00435Y01075D01*
X0121*
X0124Y01105*
X01096Y0104D02*
X01597D01*
X01709Y00928*
X00993Y00937D02*
X01096Y0104D01*
X0124Y01105D02*
X0124Y01105D01*
X00331Y01186D02*
X02153D01*
X0012Y00974D02*
X00331Y01186D01*
X01254Y01114D02*
Y01149D01*
X01244Y01105D02*
X01254Y01114D01*
X0124Y01105D02*
X01244D01*
X02355Y00854D02*
X02356Y00855D01*
X02555*
X02158Y00854D02*
X02355D01*
X01609Y00374D02*
X01623Y0036D01*
X0185*
X01404Y00374D02*
X01609D01*
X01386Y00296D02*
X01387D01*
X01399Y00308*
X014*
X01801Y0032D02*
X01995Y00126D01*
X0128Y0019D02*
X01386Y00296D01*
X01366Y0032D02*
X01801D01*
X01248Y00202D02*
X01366Y0032D01*
X00329Y0019D02*
X0128D01*
X00105Y0066D02*
Y0066D01*
X00108Y00663*
Y00663*
X00093Y00655D02*
X00097Y00651D01*
X00093Y00664D02*
X00097Y00668D01*
X00093Y00655D02*
Y00664D01*
X00097Y00551D02*
Y00651D01*
Y00668D02*
Y00794D01*
X00108Y00663D02*
X00126D01*
X0012Y0067D02*
X00126Y00663D01*
X00167Y00763D02*
X00392Y00539D01*
X00167Y00763D02*
Y00774D01*
X00168Y0068D02*
X00178Y00669D01*
Y00535D02*
X00212Y00502D01*
X00167Y00774D02*
X00167Y00774D01*
X00178Y00535D02*
Y00669D01*
X00156Y00538D02*
Y00795D01*
X0012Y0067D02*
Y00974D01*
X01254Y01149D02*
X01273Y01168D01*
X04335Y00685D02*
X04484Y00535D01*
X02971Y00685D02*
X04335D01*
X019Y01245D02*
X0229D01*
X01885Y0126D02*
X019Y01245D01*
X01885Y0126D02*
X01885D01*
X0229Y01245D02*
X02345Y0119D01*
X01981Y01276D02*
X02001Y01256D01*
X01662Y01276D02*
X01981D01*
X02371Y00905D02*
X02388Y00888D01*
X01921Y0092D02*
X0214D01*
X01914Y00913D02*
X01921Y0092D01*
X01696Y00913D02*
X01914D01*
X0127Y0128D02*
X01517D01*
X01527Y0129D02*
X01775D01*
X01517Y0128D02*
X01527Y0129D01*
X01636Y0125D02*
X01662Y01276D01*
X04314Y00735D02*
X04315D01*
X04309Y0074D02*
X04314Y00735D01*
X03665Y0074D02*
X04309D01*
X03485Y00805D02*
X03509D01*
X03425Y00865D02*
X03485Y00805D01*
X02724Y00915D02*
X02724Y00914D01*
X02708Y00915D02*
X02724D01*
X027Y00924D02*
X02708Y00915D01*
X027Y00924D02*
Y00925D01*
X02638Y00986D02*
X027Y00925D01*
X04303Y00699D02*
X0458Y00976D01*
X02994Y00699D02*
X04303D01*
X03521Y00745D02*
Y01064D01*
X03245Y0134D02*
X03521Y01064D01*
X02602Y01054D02*
X02971Y00685D01*
X01891Y01139D02*
X02325D01*
X02455Y01269*
X00978Y00355D02*
Y00372D01*
Y00355D02*
X01047Y00286D01*
X0122*
X01321Y00387*
X01976*
X02073Y0029*
Y00177D02*
Y0029D01*
Y00177D02*
X02087Y00163D01*
X04556*
X04663Y0027*
Y00932*
X04602Y00993D02*
X04663Y00932D01*
X04559Y00993D02*
X04602D01*
X00274Y00374D02*
X00918D01*
X00097Y00551D02*
X00274Y00374D01*
X01005Y00248D02*
X01278D01*
X01404Y00374*
X0368Y01015D02*
X0548D01*
X05228Y01004D02*
X05347Y00886D01*
X04548Y01004D02*
X05228D01*
X04535Y00992D02*
X04548Y01004D01*
X03665Y00992D02*
X04535D01*
X03337Y0132D02*
X03665Y00992D01*
X02573Y00975D02*
X03033Y00515D01*
X01728Y00975D02*
X02573D01*
X01553Y0115D02*
X01728Y00975D01*
X01311Y0115D02*
X01553D01*
X01649Y01313D02*
X03253D01*
X03487Y01079*
Y00893D02*
Y01079D01*
X05322Y01164D02*
X0538Y01222D01*
X03609Y01164D02*
X05322D01*
X03697Y00594D02*
X03709Y00581D01*
X03422Y00594D02*
X03697D01*
X03298Y0047D02*
X03422Y00594D01*
X03052Y0047D02*
X03298D01*
X02682Y0084D02*
X03052Y0047D01*
X02062Y0084D02*
X02682D01*
X02768Y01008D02*
X0308D01*
X02481Y01295D02*
X02768Y01008D01*
X01795Y01295D02*
X02481D01*
X02521Y00302D02*
X02987D01*
X02134Y00689D02*
X02521Y00302D01*
X01704Y00689D02*
X02134D01*
X01944Y0023D02*
Y00345D01*
Y0023D02*
X02028Y00146D01*
X04394*
X02147Y00905D02*
X02371D01*
X02128Y00886D02*
X02147Y00905D01*
X00818Y00886D02*
X02128D01*
X00644Y00712D02*
X00818Y00886D01*
X02141Y00871D02*
X02158Y00854D01*
X01136Y00871D02*
X02141D01*
X0096Y00695D02*
X01136Y00871D01*
X00637Y00695D02*
X0096D01*
X00621Y00711D02*
X00637Y00695D01*
X00621Y00711D02*
Y00731D01*
X01252Y00518D02*
X01276Y00542D01*
X00253Y00518D02*
X01252D01*
X00153Y0125D02*
X01636D01*
X00062Y01159D02*
X00153Y0125D01*
X00062Y00685D02*
Y01159D01*
X03433Y00582D02*
X03675D01*
X03694Y00563*
X04367*
X04642Y00288*
X00212Y00502D02*
X00666D01*
X00707Y00461*
X01044*
X01201Y00304*
X01475Y00836D02*
X01993D01*
X01462Y00823D02*
X01475Y00836D01*
X01462Y00663D02*
Y00823D01*
X01201Y00402D02*
X01462Y00663D01*
X01201Y00304D02*
Y00402D01*
X00108Y00412D02*
X00329Y0019D01*
X00341Y00802D02*
X00476Y00937D01*
X00993*
X01709Y00928D02*
X01852D01*
X0232Y00279D02*
X02974D01*
X02134Y00465D02*
X0232Y00279D01*
X01319Y00465D02*
X02134D01*
X01213Y00583D02*
X01335Y00704D01*
X00588Y00583D02*
X01213D01*
X02376Y00342D02*
X02454D01*
X02233Y00485D02*
X02376Y00342D01*
X01334Y00485D02*
X02233D01*
X01481Y00742D02*
X02377D01*
X02659Y0046*
X03009*
X03041Y00428*
X0363*
X0368Y00478*
X04199*
X04357Y00321*
X0087Y00506D02*
X01267D01*
X0135Y00589*
Y00836*
X01362Y00849*
X02012*
X02033Y00828*
X02664*
X03042Y0045*
X036*
X03646Y00496*
X04337*
X04345Y00488*
X01115Y01271D02*
X01184Y0134D01*
X03245*
X03341Y01005D02*
Y0118D01*
X03325Y00989D02*
X03341Y01005D01*
X02732Y00989D02*
X03325D01*
X02651Y0107D02*
X02732Y00989D01*
X01899Y0107D02*
X02651D01*
X01801Y01168D02*
X01899Y0107D01*
X01273Y01168D02*
X01801D01*
X01936Y01054D02*
X02602D01*
X01656Y00815D02*
X02553D01*
X02875Y00494*
X04786Y00126D02*
X05263Y00603D01*
X01995Y00126D02*
X04786D01*
X00994Y00202D02*
X01248D01*
X00962Y00234D02*
X00994Y00202D01*
X00962Y00234D02*
Y00392D01*
X00945Y00409D02*
X00962Y00392D01*
X00567Y00409D02*
X00945D01*
X00488Y00488D02*
X00567Y00409D01*
X04018Y00182D02*
X04248Y00412D01*
X02495Y00182D02*
X04018D01*
X00392Y00539D02*
X01211D01*
X02551Y01037D02*
X031Y00488D01*
X01742Y01037D02*
X02551D01*
X01269Y01024D02*
X01585D01*
X01696Y00913*
X02699Y00386D02*
X0393D01*
X02393Y00692D02*
X02699Y00386D01*
M02*