%FSTAX23Y23*%
%MOIN*%
%SFA1B1*%

%IPPOS*%
%ADD17C,0.010000*%
%ADD86C,0.007874*%
%ADD87C,0.019685*%
%LNpower_board-1*%
%LPD*%
G36*
X05855Y01515D02*
X0589D01*
Y00165*
X05895Y0016*
X0555Y-00185*
X0036*
X0001Y00165*
X00005*
Y0134*
X00495Y0183*
Y01855*
X05515*
X05855Y01515*
G37*
%LNpower_board-2*%
%LPC*%
G36*
X03616Y01555D02*
X03613D01*
X0361Y01554*
X03608Y01551*
X03607Y01549*
Y01545*
X03608Y01543*
X0361Y0154*
X03613Y01539*
X03616*
X03619Y0154*
X03621Y01543*
X03622Y01545*
Y01549*
X03621Y01551*
X03619Y01554*
X03616Y01555*
G37*
G36*
X02579Y01442D02*
X02576D01*
X02573Y01441*
X02571Y01439*
X0257Y01436*
Y01433*
X02571Y0143*
X02573Y01428*
X02576Y01427*
X02579*
X02582Y01428*
X02584Y0143*
X02585Y01433*
Y01436*
X02584Y01439*
X02582Y01441*
X02579Y01442*
G37*
G36*
X04866Y01373D02*
X04863D01*
X0486Y01372*
X04858Y0137*
X04857Y01367*
Y01364*
X04858Y01361*
X0486Y01359*
X04863Y01358*
X04866*
X04869Y01359*
X04871Y01361*
X04872Y01364*
Y01367*
X04871Y0137*
X04869Y01372*
X04866Y01373*
G37*
G36*
X05381Y01229D02*
X05378D01*
X05375Y01228*
X05373Y01226*
X05372Y01223*
Y0122*
X05373Y01217*
X05375Y01215*
X05378Y01214*
X05381*
X05384Y01215*
X05386Y01217*
X05387Y0122*
Y01223*
X05386Y01226*
X05384Y01228*
X05381Y01229*
G37*
G36*
X00861Y0115D02*
X00857D01*
X00854Y01149*
X00852Y01146*
X00851Y01144*
Y0114*
X00852Y01137*
X00854Y01135*
X00857Y01134*
X00861*
X00863Y01135*
X00866Y01137*
X00867Y0114*
Y01144*
X00866Y01146*
X00863Y01149*
X00861Y0115*
G37*
G36*
X00806Y01036D02*
X00803D01*
X008Y01035*
X00798Y01033*
X00797Y0103*
Y01027*
X00798Y01024*
X008Y01022*
X00803Y0102*
X00806*
X00809Y01022*
X00811Y01024*
X00812Y01027*
Y0103*
X00811Y01033*
X00809Y01035*
X00806Y01036*
G37*
G36*
X05595Y01033D02*
X05592D01*
X05589Y01032*
X05587Y0103*
X05586Y01027*
Y01024*
X05587Y01021*
X05589Y01019*
X05592Y01018*
X05595*
X05598Y01019*
X056Y01021*
X05601Y01024*
Y01027*
X056Y0103*
X05598Y01032*
X05595Y01033*
G37*
G36*
X04476Y01648D02*
X011D01*
X01096Y01647*
X01093Y01645*
X00169Y00721*
X00168Y0072*
X00158Y00718*
X00152Y00723*
Y00765*
X00155Y00767*
X00162Y00768*
X00162Y00768*
X00165Y00766*
X00168*
X00171Y00768*
X00174Y0077*
X00175Y00773*
Y00776*
X00174Y00779*
X00171Y00781*
X00168Y00782*
X00165*
X00162Y00781*
X00162Y0078*
X00155Y00782*
X00152Y00783*
Y00963*
X00151Y00966*
X00149Y00969*
X00146Y00971*
X00143Y00972*
X00139Y00971*
X00136Y00969*
X00134Y00966*
X00133Y00963*
Y00717*
X00134Y00714*
X00136Y00711*
X00155Y00692*
X00158Y0069*
X00161Y00689*
X00196*
X00199Y0069*
X00202Y00692*
X01034Y01524*
X02904*
X02908Y01525*
X02911Y01527*
X02913Y0153*
X02913Y01534*
X02913Y01537*
X02911Y0154*
X02908Y01542*
X02904Y01543*
X01031*
X0103Y01543*
X01026Y01552*
X01103Y01629*
X04472*
X0466Y01441*
Y00973*
X04661Y00969*
X04663Y00966*
X04666Y00964*
X0467Y00963*
X04673Y00964*
X04676Y00966*
X04678Y00969*
X04679Y00973*
Y01445*
X04678Y01448*
X04676Y01451*
X04482Y01645*
X04479Y01647*
X04476Y01648*
G37*
G36*
X04744Y00935D02*
X0474D01*
X04738Y00934*
X04735Y00932*
X04734Y00929*
Y00926*
X04735Y00923*
X04738Y00921*
X0474Y0092*
X04744*
X04746Y00921*
X04749Y00923*
X0475Y00926*
Y00929*
X04749Y00932*
X04746Y00934*
X04744Y00935*
G37*
G36*
X03511Y00812D02*
X03508D01*
X03505Y00811*
X03502Y00809*
X03501Y00806*
Y00803*
X03502Y008*
X03505Y00798*
X03508Y00797*
X03511*
X03514Y00798*
X03516Y008*
X03517Y00803*
Y00806*
X03516Y00809*
X03514Y00811*
X03511Y00812*
G37*
G36*
X04316Y00742D02*
X04313D01*
X0431Y00741*
X04308Y00739*
X04307Y00736*
Y00733*
X04308Y0073*
X0431Y00728*
X04313Y00727*
X04316*
X04319Y00728*
X04321Y0073*
X04322Y00733*
Y00736*
X04321Y00739*
X04319Y00741*
X04316Y00742*
G37*
G36*
X00046Y00702D02*
X00043D01*
X0004Y00701*
X00038Y00699*
X00037Y00696*
Y00693*
X00038Y0069*
X0004Y00688*
X00043Y00687*
X00046*
X00049Y00688*
X00051Y0069*
X00052Y00693*
Y00696*
X00051Y00699*
X00049Y00701*
X00046Y00702*
G37*
G36*
X02115Y01489D02*
X01514D01*
X0151Y01488*
X01507Y01486*
X01302Y01281*
X013Y01281*
X01292Y01283*
X01291Y01284*
X01289Y01285*
X01286Y01286*
X01283*
X01276Y01284*
X01274Y01286*
X01274Y01286*
X01271Y01287*
X01268*
X01265Y01286*
Y01286*
X01263Y01284*
X01263*
X01262Y01281*
Y01281*
Y0128*
Y01278*
X01262Y01277*
X01263Y01275*
X01265Y01273*
Y01273*
X01268Y01272*
X01268*
X01271*
X01276Y01269*
X01278Y01256*
X00961Y0094*
X00951Y00943*
Y01056*
X01187Y01292*
X01189Y01295*
X0119Y01299*
X01189Y01302*
X01187Y01305*
X01184Y01307*
X01181Y01308*
X01177Y01307*
X01174Y01305*
X01135Y01266*
X01133Y01266*
X01124Y01271*
X01123Y01274*
X01121Y01277*
X01118Y01279*
X01115Y0128*
X01111Y01279*
X01108Y01277*
X00736Y00905*
X00735Y00905*
X00725Y00905*
X00722Y00907*
X00719Y00908*
X00616*
X00613Y00907*
X0061Y00905*
X00338Y00634*
X00259*
X00258Y00635*
X00255Y00644*
X00255Y00644*
X00256Y00648*
X00255Y00651*
X00253Y00654*
X0025Y00656*
X00247Y00657*
X00209*
X00205Y00656*
X00202Y00654*
X00184Y00636*
X00182Y00633*
X00181Y0063*
Y00627*
X00181Y00627*
X00171Y00623*
X00171Y00624*
X00168Y00625*
X00165*
X00162Y00624*
X0016Y00621*
X00159Y00618*
Y00615*
X0016Y00612*
X00162Y0061*
X00165Y00609*
X00168*
X00171Y0061*
X00171Y0061*
X00181Y00607*
X00181Y00607*
Y00128*
X00182Y00124*
X00184Y00121*
X00294Y00011*
X00297Y00009*
X00301Y00008*
X04433*
X04436Y00009*
X04439Y00011*
X04705Y00277*
X04707Y0028*
X04707Y0028*
X04717Y00282*
X04719Y00281*
X04723Y0028*
X04726Y00281*
X04729Y00283*
X04999Y00553*
X05001Y00556*
X05002Y0056*
Y01192*
X05001Y01195*
X04999Y01198*
X04996Y012*
X04993Y01201*
X04989Y012*
X04986Y01198*
X04984Y01195*
X04983Y01192*
Y00563*
X04718Y00298*
X04711Y00299*
X04708Y00301*
Y00672*
X04734Y00698*
X04736Y00701*
X04737Y00705*
X04736Y00708*
X04734Y00711*
X04731Y00713*
X04728Y00714*
X04724Y00713*
X04721Y00711*
X04692Y00682*
X0469Y00679*
X04689Y00676*
Y00314*
X04686Y00312*
X04679Y00311*
X0459Y004*
X04587Y00402*
X04584Y00403*
Y00501*
X04594Y00508*
X04594Y00508*
X04596*
Y00538*
X04598*
Y0054*
X04627*
Y00542*
X04625Y00549*
X04621Y00556*
X04618Y0056*
X04621Y00563*
X04625Y0057*
X04627Y00577*
Y00579*
X04598*
Y00581*
X04596*
Y00611*
X04594*
X04594Y00611*
X04584Y00618*
Y00651*
X04583Y00654*
X04581Y00657*
X04457Y00781*
Y01271*
X04456Y01274*
X04454Y01277*
X04451Y01279*
X04448Y0128*
X04444Y01279*
X04441Y01277*
X04439Y01274*
X04438Y01271*
Y00778*
X04439Y00774*
X04441Y00771*
X04485Y00727*
X04486Y00725*
X04482Y0072*
X0448Y00718*
X04477Y00719*
X04473Y00718*
X0447Y00716*
X04468Y00713*
X04467Y0071*
Y00439*
X04413Y00385*
X04408Y00386*
X04403Y00389*
X04403Y00391*
X04401Y00394*
X04096Y00699*
Y00718*
X04103Y00721*
X04106Y00722*
X04108Y0072*
X04112Y00719*
X04115Y0072*
X04118Y00722*
X04242Y00846*
X04244Y00849*
X04245Y00853*
Y01326*
X04244Y01329*
X04242Y01332*
X04239Y01334*
X04236Y01335*
X04232Y01334*
X04229Y01332*
X04227Y01329*
X04226Y01326*
Y00856*
X04106Y00736*
X04103Y00736*
X04096Y00739*
Y01278*
X04095Y01281*
X04093Y01284*
X0409Y01286*
X04087Y01287*
X04083Y01286*
X0408Y01284*
X04078Y01281*
X04077Y01278*
Y01267*
X04075Y01265*
X04072*
X04069Y01264*
X04068Y01263*
X04067Y01262*
X04067Y01262*
X04067*
X04066Y01259*
Y01256*
X04067Y01253*
X04067*
X04069Y01251*
X04072Y0125*
X04075*
X04077Y01248*
Y00696*
X04078Y00692*
X0408Y00689*
X04102Y00668*
X04097Y00658*
X03849*
X03845Y00657*
X03842Y00655*
X03782Y00595*
X03773Y00599*
Y00635*
X04049Y00911*
X04051Y00914*
X04052Y00918*
X04051Y00921*
X04049Y00924*
X04046Y00926*
X04043Y00927*
X04039Y00926*
X04036Y00924*
X03757Y00645*
X03755Y00642*
X03754Y00639*
Y00447*
X03755Y00443*
X03757Y0044*
X03759Y00431*
X03759Y00428*
X03481Y0015*
X0343*
X03426Y0016*
X03662Y00395*
X03664Y00398*
X03665Y00402*
Y00427*
X03664Y0043*
X03662Y00433*
X03659Y00435*
X03656Y00436*
X03652Y00435*
X03649Y00433*
X03647Y0043*
X03646Y00427*
Y00405*
X03406Y00165*
X02043*
X02039Y00175*
X02421Y00557*
X02423Y0056*
X02424Y00564*
X02432Y0057*
X02484*
X02621Y00433*
X02617Y00423*
X02614Y00422*
X02612Y0042*
X02611Y00417*
Y00414*
X02612Y00411*
X02614Y00409*
X02617Y00408*
X0262*
X02623Y00409*
X02625Y00411*
X02626Y00414*
X02636Y00418*
X02677Y00377*
X0268Y00375*
X02684Y00374*
X02687Y00375*
X02688Y00375*
X0269*
X02693Y00377*
X02696Y00379*
X02697Y00382*
Y00385*
X02696Y00388*
X02693Y0039*
X0269Y00391*
X02689*
X02494Y00586*
X02491Y00588*
X02487Y00589*
X02327*
X02323Y00588*
X0232Y00586*
X0195Y00216*
X01532*
X01528Y00215*
X01525Y00213*
X0149Y00178*
X01488Y00175*
X01487Y00172*
X01479Y00165*
X01376*
X01376Y00165*
X01369Y00173*
Y00578*
X01536Y00745*
X01538Y00748*
X01539Y00752*
Y00951*
X01538Y00954*
X01536Y00957*
X01533Y00959*
X0153Y0096*
X01526Y00959*
X01523Y00957*
X01521Y00954*
X0152Y00951*
Y00755*
X01353Y00588*
X01353Y00587*
X01343Y0059*
Y00684*
X01342Y00688*
X0134Y00691*
X01324Y00707*
X01324Y00707*
X01321Y00716*
X01321Y00719*
X01486Y00883*
X01488Y00886*
X01489Y0089*
Y01419*
X01488Y01423*
X01486Y01425*
X01486Y01426*
X01484Y01435*
X01484Y01438*
X01517Y0147*
X02111*
X02195Y01386*
X02198Y01384*
X02202Y01383*
X03599*
X03603Y01374*
X03517Y01288*
X0317*
X03126Y01332*
X03123Y01334*
X03119Y01335*
X01628*
X01624Y01334*
X01621Y01332*
X01503Y01214*
X01501Y01211*
X015Y01208*
X01501Y01204*
X01503Y01201*
X01506Y01199*
X0151Y01199*
X01513Y01199*
X01516Y01201*
X01632Y01317*
X01953*
X01957Y01307*
X01935Y01285*
X01792*
X01782Y01288*
Y01291*
X01781Y01294*
X01779Y01296*
X01776Y01297*
X01773*
X0177Y01296*
X01768Y01294*
X01767Y01291*
Y01288*
X01757Y01285*
X01623*
X01619Y01284*
X01616Y01282*
X01568Y01234*
X01566Y01231*
X01565Y01228*
Y0063*
X01566Y00626*
X01568Y00623*
X01571Y00621*
X01575Y0062*
X01578Y00621*
X01581Y00623*
X01583Y00626*
X01584Y0063*
Y01224*
X01626Y01266*
X01699*
X01701Y01264*
X01706Y01256*
X01705Y01256*
Y00823*
X01706Y00819*
X01708Y00816*
X01808Y00716*
Y00372*
X01809Y00368*
X01811Y00365*
X01823Y00353*
X01826Y00351*
X01826Y00351*
X0183Y00341*
X01785Y00296*
X0155*
X01546Y00295*
X01543Y00293*
X01541Y0029*
X0154Y00287*
X01541Y00283*
X01543Y0028*
X01546Y00278*
X0155Y00277*
X01789*
X01792Y00278*
X01795Y0028*
X01851Y00336*
X01855*
X01858Y00337*
X01861Y00339*
X0187Y00347*
X01872Y0035*
X01873Y00354*
Y0045*
X01872Y00453*
X0187Y00456*
X01867Y00459*
X01864Y00469*
X01866Y00472*
X01867Y00476*
Y00574*
X01876Y00579*
X01877Y00579*
X0188Y00578*
X01883Y00579*
X01886Y00581*
X02155Y0085*
X02164Y00846*
X02164Y00845*
X02163Y00842*
Y00524*
X01899Y0026*
X01443*
X0141Y00292*
X01406Y00302*
X01408Y00305*
X01409Y00308*
X01408Y00312*
X01406Y00315*
X01403Y00317*
X014Y00317*
X01396Y00317*
X01393Y00315*
X01388Y0031*
X01386Y00307*
X01386Y00303*
Y00295*
X01386Y00292*
X01388Y00289*
X01433Y00244*
X01436Y00242*
X0144Y00241*
X01903*
X01906Y00242*
X01909Y00244*
X02179Y00514*
X02181Y00517*
X02182Y00521*
Y00838*
X02204Y00861*
X02206Y00864*
X02207Y00868*
X02206Y00871*
X02204Y00874*
X02201Y00876*
X02198Y00877*
X02195Y00876*
X02192Y00874*
X02176Y00859*
X02167Y00863*
X02167Y00864*
X02168Y00867*
Y0088*
X02167Y00883*
X02167Y00883*
X0217Y00892*
X02171Y00893*
X02371*
X0238Y00889*
Y00886*
X02381Y00883*
X02383Y00881*
X02386Y0088*
X02389*
X02392Y00881*
X02394Y00883*
X02395Y00886*
Y00889*
X02404Y00893*
X02432*
X02823Y00502*
X02824Y00502*
X02826Y00493*
X02826Y0049*
X02711Y00375*
X02709Y00372*
X02708Y00369*
X02709Y00365*
X02711Y00362*
X02712Y00362*
X02709Y00352*
X0244*
X02436Y00351*
X02433Y00349*
X02431Y00346*
X0243Y00343*
X02431Y00339*
X02433Y00336*
X02436Y00334*
X0244Y00333*
X02744*
X02744Y00333*
X02744Y00333*
X02745Y00334*
X02747Y00334*
X02747Y00334*
X02747Y00334*
X02749Y00335*
X0275Y00336*
X0275Y00336*
X0275Y00336*
X02878Y0047*
X0288Y0047*
X0289Y00469*
X02891Y00458*
X02788Y00356*
X02786Y00353*
X02785Y0035*
Y00262*
X02786Y00259*
X02788Y00256*
X02791Y00254*
X02795Y00253*
X02798Y00254*
X02801Y00256*
X02803Y00259*
X02804Y00262*
Y00346*
X03043Y00585*
X0305Y00582*
X03052Y0058*
Y00462*
X02932Y00342*
X0293Y00339*
X02929Y00336*
X0293Y00332*
X02932Y00329*
X02935Y00327*
X02939Y00326*
X02942Y00327*
X02945Y00329*
X03023Y00407*
X03032Y00411*
X03034Y00409*
X03037Y00408*
X0304*
X03043Y00409*
X03045Y00411*
X03046Y00414*
Y00417*
X03045Y0042*
X03043Y00422*
X03047Y00431*
X03068Y00452*
X0307Y00455*
X0307Y00458*
Y00578*
X03302Y00809*
X03303Y00809*
X03313Y00808*
X03316Y00806*
X0332Y00805*
X03335*
X03339Y00796*
X03175Y00632*
X03173Y00629*
X03172Y00626*
Y00586*
X03173Y00583*
X03175Y0058*
X03178Y00578*
X03182Y00577*
X03185Y00578*
X03188Y0058*
X0319Y00583*
X03191Y00586*
Y00622*
X03405Y00836*
X03425*
X03429Y00837*
X03432Y00839*
X03531Y00938*
X03533Y00941*
X03534Y00945*
Y00965*
X03596Y01027*
X03605Y01022*
X03606Y01019*
X03608Y01016*
X03611Y01014*
X03612Y01014*
X03615Y01013*
X0362Y01007*
Y00803*
X0362Y00802*
X03618Y008*
X03618Y00796*
Y00773*
X03618Y00769*
X0362Y00767*
X0362Y00766*
Y00745*
X03448Y00573*
X0344Y00579*
X0344Y0058*
Y0058*
Y00583*
X03439Y00586*
X03437Y00588*
Y00588*
X03436Y00589*
X03434Y00589*
X03431*
X03428Y00588*
X03426Y00586*
X03426Y00586*
X03425Y00583*
Y0058*
X03426Y00577*
X03428Y00575*
X03431Y00574*
X03434*
X03435Y00574*
X03441Y00566*
X03093Y00218*
X03091Y00215*
X0309Y00212*
X03091Y00208*
X03093Y00205*
X03096Y00203*
X031Y00202*
X03103Y00203*
X03106Y00205*
X03625Y00724*
X03634Y0072*
Y00541*
X03635Y00538*
X03637Y00535*
X0364Y00533*
X03644Y00532*
X03646Y00533*
X03647*
X03656Y00528*
Y00456*
X03657Y00452*
X03659Y00449*
X03662Y00447*
X03666Y00446*
X03669Y00447*
X03672Y00449*
X03674Y00452*
X03675Y00456*
Y00709*
X03676Y0071*
X03684Y00715*
X03687*
X0369Y00716*
X03692Y00718*
Y00718*
X03693Y00721*
Y00721*
Y00722*
Y00724*
X03693Y00725*
X03692Y00727*
X0369Y00729*
X03687Y0073*
X03687Y00731*
X03688Y00734*
Y0078*
X03687Y00784*
X03685Y00787*
X03675Y00797*
Y01182*
X03801Y01308*
X03803Y01311*
X03804Y01315*
X03803Y01318*
X03801Y01321*
X03798Y01323*
X03795Y01324*
X03791Y01323*
X03788Y01321*
X03659Y01192*
X03657Y01189*
X03656Y01186*
Y01036*
X03654Y01033*
X03646Y01031*
X03646Y01031*
X03643Y01031*
X03615*
X03614Y01032*
X0361Y01041*
X0363Y01061*
X03632Y01064*
X03633Y01068*
Y01257*
X03711Y01335*
X03713Y01338*
X03714Y01342*
X03721Y01349*
X03721Y01349*
X04397*
X04483Y01263*
Y0078*
X04484Y00776*
X04486Y00773*
X04571Y00688*
X04574Y00686*
X04578Y00685*
X04653*
X04656Y00686*
X04659Y00688*
X04856Y00885*
X04858Y00888*
X04859Y00892*
X04858Y00895*
X04856Y00898*
X04853Y009*
X0485Y00901*
X04846Y009*
X04843Y00898*
X04654Y00708*
X04642Y0071*
X0464Y00714*
Y00714*
Y01222*
X04639Y01225*
X04637Y01228*
X04491Y01374*
X0449Y01376*
X04492Y01386*
X04494Y01389*
X04495Y01393*
X04494Y01396*
X04492Y01399*
X04489Y01401*
X04486Y01402*
X02205*
X02121Y01486*
X02118Y01488*
X02115Y01489*
G37*
G36*
X02394Y007D02*
X02391D01*
X02388Y00699*
X02386Y00697*
X02385Y00694*
Y00691*
X02386Y00688*
X02388Y00686*
X02391Y00684*
X02394*
X02397Y00686*
X02399Y00688*
X024Y00691*
Y00694*
X02399Y00697*
X02397Y00699*
X02394Y007*
G37*
G36*
X00106Y00667D02*
X00103D01*
X001Y00666*
X00098Y00664*
X00097Y00661*
Y00658*
X00098Y00655*
X001Y00653*
X00103Y00652*
X00106*
X00109Y00653*
X00111Y00655*
X00112Y00658*
Y00661*
X00111Y00664*
X00109Y00666*
X00106Y00667*
G37*
G36*
X0341Y00621D02*
X03407D01*
X03404Y0062*
X03402Y00618*
X03401Y00615*
Y00612*
X03402Y00609*
X03404Y00607*
X03407Y00606*
X0341*
X03413Y00607*
X03415Y00609*
X03416Y00612*
Y00615*
X03415Y00618*
X03413Y0062*
X0341Y00621*
G37*
G36*
X05265Y00611D02*
X05261D01*
X05259Y0061*
X05256Y00608*
X05255Y00605*
Y00601*
X05256Y00599*
X05259Y00596*
X05261Y00595*
X05265*
X05268Y00596*
X0527Y00599*
X05271Y00601*
Y00605*
X0527Y00608*
X05268Y0061*
X05265Y00611*
G37*
G36*
X04601Y00611D02*
X046D01*
Y00583*
X04627*
Y00585*
X04625Y00593*
X04621Y00599*
X04616Y00605*
X04609Y00609*
X04601Y00611*
G37*
G36*
X00157Y00546D02*
X00154D01*
X00151Y00545*
X00149Y00543*
X00148Y0054*
Y00537*
X00149Y00534*
X00151Y00531*
X00154Y0053*
X00157*
X0016Y00531*
X00162Y00534*
X00163Y00537*
Y0054*
X00162Y00543*
X0016Y00545*
X00157Y00546*
G37*
G36*
X04627Y00536D02*
X046D01*
Y00508*
X04601*
X04609Y0051*
X04616Y00514*
X04621Y0052*
X04625Y00526*
X04627Y00534*
Y00536*
G37*
G36*
X05265Y00512D02*
X05261D01*
X05259Y00511*
X05256Y00509*
X05255Y00506*
Y00502*
X05256Y005*
X05259Y00497*
X05261Y00496*
X05265*
X05268Y00497*
X0527Y005*
X05271Y00502*
Y00506*
X0527Y00509*
X05268Y00511*
X05265Y00512*
G37*
G36*
X04346Y00495D02*
X04343D01*
X0434Y00494*
X04338Y00492*
X04337Y00489*
Y00486*
X04338Y00483*
X0434Y00481*
X04343Y0048*
X04346*
X04349Y00481*
X04351Y00483*
X04352Y00486*
Y00489*
X04351Y00492*
X04349Y00494*
X04346Y00495*
G37*
G36*
X03101D02*
X03098D01*
X03095Y00494*
X03093Y00492*
X03092Y00489*
Y00486*
X03093Y00483*
X03095Y00481*
X03098Y0048*
X03101*
X03104Y00481*
X03106Y00483*
X03107Y00486*
Y00489*
X03106Y00492*
X03104Y00494*
X03101Y00495*
G37*
G36*
X04806Y00489D02*
X04803D01*
X048Y00488*
X04798Y00486*
X04797Y00483*
Y0048*
X04798Y00477*
X048Y00475*
X04803Y00474*
X04806*
X04809Y00475*
X04811Y00477*
X04812Y0048*
Y00483*
X04811Y00486*
X04809Y00488*
X04806Y00489*
G37*
G36*
X03472Y00482D02*
X03469D01*
X03466Y0048*
X03464Y00478*
X03463Y00475*
Y00472*
X03464Y00469*
X03466Y00467*
X03469Y00466*
X03472*
X03475Y00467*
X03477Y00469*
X03478Y00472*
Y00475*
X03477Y00478*
X03475Y0048*
X03472Y00482*
G37*
G36*
X04982Y0048D02*
X04978D01*
X04975Y00479*
X04973Y00477*
X04972Y00474*
Y00471*
X04973Y00468*
X04975Y00466*
X04978Y00465*
X04982*
X04984Y00466*
X04987Y00468*
X04988Y00471*
Y00474*
X04987Y00477*
X04984Y00479*
X04982Y0048*
G37*
G36*
X04739Y00432D02*
X04736D01*
X04733Y00431*
X04731Y00429*
X0473Y00426*
Y00423*
X04731Y0042*
X04733Y00418*
X04736Y00417*
X04739*
X04742Y00418*
X04744Y0042*
X04745Y00423*
Y00426*
X04744Y00429*
X04742Y00431*
X04739Y00432*
G37*
G36*
X01686Y00372D02*
X01683D01*
Y0035*
X01705*
Y00353*
X01702Y00362*
X01695Y00368*
X01686Y00372*
G37*
G36*
X0168D02*
X01677D01*
X01668Y00368*
X01661Y00362*
X01658Y00353*
Y0035*
X0168*
Y00372*
G37*
G36*
X01705Y00346D02*
X01683D01*
Y00325*
X01686*
X01695Y00328*
X01702Y00335*
X01705Y00343*
Y00346*
G37*
G36*
X0168D02*
X01658D01*
Y00343*
X01661Y00335*
X01668Y00328*
X01677Y00325*
X0168*
Y00346*
G37*
G36*
X03485Y00336D02*
X03481D01*
X03479Y00335*
X03476Y00333*
X03475Y0033*
Y00327*
X03476Y00324*
X03479Y00322*
X03481Y00321*
X03485*
X03487Y00322*
X0349Y00324*
X03491Y00327*
Y0033*
X0349Y00333*
X03487Y00335*
X03485Y00336*
G37*
G36*
X02851Y-00062D02*
X02848D01*
X02845Y-00063*
X02843Y-00065*
X02842Y-00068*
Y-00071*
X02843Y-00074*
X02845Y-00076*
X02848Y-00077*
X02851*
X02854Y-00076*
X02856Y-00074*
X02857Y-00071*
Y-00068*
X02856Y-00065*
X02854Y-00063*
X02851Y-00062*
G37*
G36*
X02961Y-00112D02*
X02958D01*
X02955Y-00113*
X02953Y-00115*
X02952Y-00118*
Y-00121*
X02953Y-00124*
X02955Y-00126*
X02958Y-00127*
X02961*
X02964Y-00126*
X02966Y-00124*
X02967Y-00121*
Y-00118*
X02966Y-00115*
X02964Y-00113*
X02961Y-00112*
G37*
%LNpower_board-3*%
%LPD*%
G36*
X0369Y01339D02*
X03617Y01267D01*
X03615Y01264*
X03614Y01261*
Y01181*
X03609Y01173*
X03605Y01172*
X03602Y0117*
X02912Y0048*
X02908Y0048*
X02903Y00484*
X02903Y00496*
X03026Y00625*
X03326Y00925*
X03328Y00928*
X03329Y00931*
X03328Y00935*
X03326Y00938*
X03323Y0094*
X0332Y0094*
X03316Y0094*
X03315Y00939*
X03308Y00946*
X0353Y01168*
X03532Y01171*
X03532Y01174*
X03532Y01178*
X0353Y01181*
X03527Y01183*
X03523Y01183*
X0352Y01183*
X03517Y01181*
X02848Y00512*
X02845Y00512*
X02836Y00514*
X02836Y00515*
X02442Y00909*
Y00909*
X02159Y01192*
X02156Y01194*
X02153Y01195*
X02149Y01194*
X02146Y01192*
X02144Y01189*
X02143Y01186*
X02144Y01182*
X02146Y01179*
X02404Y00921*
X024Y00912*
X02313*
X0231Y00916*
X02307Y00922*
X02308Y00924*
X02307Y00927*
X02305Y0093*
X02119Y01116*
X02116Y01118*
X02113Y01119*
X01835*
X01832Y01118*
X01829Y01116*
X01811Y01098*
X01809Y01095*
X01808Y01092*
Y00755*
X01799Y00751*
X01724Y00826*
Y01256*
X01723Y01256*
X01728Y01264*
X0173Y01266*
X01868*
X01877Y01261*
Y01258*
X01878Y01255*
X0188Y01253*
X0188Y01253*
X01883Y01252*
X01883*
X01883*
X01886*
X01889Y01253*
X01891Y01255*
X01891*
X01891Y01255*
X01892Y01257*
X01892Y01258*
Y01259*
Y01261*
X01901Y01266*
X01939*
X01942Y01267*
X01945Y01269*
X01975Y01299*
X02637*
X02647Y01296*
Y01293*
X02648Y0129*
X0265Y01288*
X02653Y01287*
X02656*
X02659Y01288*
X02661Y0129*
X02662Y01293*
Y01296*
X02672Y01299*
X02694*
X02746Y01247*
X02749Y01245*
X02753Y01244*
X0309*
X03093Y01245*
X03096Y01247*
X03098Y0125*
X03099Y01254*
X03098Y01257*
X03096Y0126*
X03093Y01262*
X0309Y01263*
X02756*
X02712Y01307*
X02716Y01317*
X03115*
X0316Y01272*
X03163Y0127*
X03167Y01269*
X03521*
X03525Y0126*
X03525Y01258*
X03501Y01234*
X01853*
X01849Y01233*
X01846Y01231*
X01761Y01146*
X01759Y01143*
X01758Y0114*
X01759Y01136*
X01761Y01133*
X01764Y01131*
X01768Y0113*
X01771Y01131*
X01774Y01133*
X01856Y01215*
X03505*
X03508Y01216*
X03511Y01218*
X03642Y01349*
X03685*
X0369Y01339*
G37*
G36*
X01911Y0109D02*
X01909Y0109D01*
X01906Y01088*
X01837Y01019*
X01837Y01018*
X01827Y01021*
Y01088*
X01839Y011*
X0191*
X01911Y0109*
G37*
G36*
X02288Y00922D02*
X02283Y00912D01*
X02156*
X02148Y00918*
X02147Y00921*
X02146Y00924*
X02144Y00926*
X02141Y00927*
X02138*
X02135Y00926*
X02133Y00924*
X02132Y00921*
Y00918*
X02133Y00915*
X02135Y00913*
X02136Y00902*
X02114Y00881*
X02112Y00878*
X02112Y00875*
Y00859*
X02112Y00855*
X02114Y00852*
X02116Y00851*
X02118Y00846*
X02119Y0084*
X01877Y00598*
X01867Y00602*
Y00751*
X02036Y0092*
X02038Y00923*
X02039Y00927*
X02038Y0093*
X02036Y00933*
X02033Y00935*
X0203Y00936*
X02026Y00935*
X02023Y00933*
X01862Y00772*
X01853Y00776*
Y01009*
X01919Y01075*
X01921Y01078*
X01922Y01082*
X01921Y01085*
X01919Y01088*
X01916Y0109*
X01914Y0109*
X01915Y011*
X02109*
X02288Y00922*
G37*
G36*
X03614Y01143D02*
Y01071D01*
X03518Y00975*
X03516Y00972*
X03515Y00968*
Y00948*
X03441Y00874*
X03431Y00871*
X03428Y00873*
X03425Y00874*
X03421Y00873*
X03418Y00871*
X03416Y00869*
X03395*
X03391Y00868*
X03388Y00866*
X03346Y00824*
X03331*
X03327Y00834*
X03601Y01108*
X03603Y01111*
X03604Y01115*
X03603Y01118*
X03601Y01121*
X03598Y01123*
X03595Y01123*
X03593Y01127*
X03591Y01133*
X03605Y01147*
X03614Y01143*
G37*
G36*
X00711Y00879D02*
X00681Y0085D01*
X00651*
X00649Y00853*
X00646Y0086*
X00646Y00861*
Y00864*
X00645Y00867*
X00643Y00869*
X0064Y0087*
X00637*
X00634Y00869*
X00632Y00867*
X00631Y00864*
Y00861*
X00631Y0086*
X00628Y00852*
X00626Y00849*
X00624Y00849*
X00621Y00847*
X00383Y0061*
X00354*
X00351Y00613*
X0035Y0062*
X0062Y00889*
X00706*
X00711Y00879*
G37*
G36*
X0147Y01409D02*
Y00894D01*
X01308Y00731*
X01298Y00735*
X01298Y00841*
X01297Y00844*
X01295Y00847*
X01292Y00849*
X01288Y0085*
X01285Y00849*
X01282Y00847*
X0128Y00844*
X01279Y0084*
X0128Y007*
X01281Y00699*
X01281Y00697*
X01281Y00697*
X01281Y00697*
X01282Y00695*
X01283Y00694*
X01283Y00694*
X01283Y00694*
X01285Y00693*
X01286Y00692*
X01286Y00692*
X01286Y00692*
X01294Y00687*
Y0048*
X01295Y00477*
X01296Y00474*
X01312Y00458*
X01315Y00456*
X01319Y00455*
X01322Y00456*
X01325Y00458*
X01327Y00461*
X01328Y00465*
X01327Y00467*
X01331Y00473*
X01334Y00475*
X01337Y00476*
X0134Y00478*
X0134Y00479*
X0135Y00476*
Y00176*
X01342Y00171*
X01341Y00171*
X01278Y00234*
Y00482*
X01277Y00485*
X01275Y00488*
X01272Y0049*
X01269Y00491*
X01265Y0049*
X01262Y00488*
X0126Y00485*
X01259Y00482*
Y00231*
X0126Y00227*
X01262Y00224*
X01327Y0016*
X01323Y0015*
X01113*
X0111Y0015*
X01107Y00148*
X01101Y00142*
X01091Y00146*
Y00741*
X0133Y0098*
X01365*
X01368Y00981*
X01371Y00983*
X01373Y00986*
X01374Y0099*
X01373Y00993*
X01371Y00996*
X01368Y00998*
X01365Y00999*
X01327*
X01323Y00998*
X0132Y00996*
X01075Y00751*
X01073Y00748*
X01072Y00745*
Y00338*
X0107Y00336*
X01062Y00332*
X01062Y00332*
X01059*
X01056Y00331*
X01054Y00329*
X01043Y0033*
X01002Y00371*
Y00494*
X01001Y00497*
X00999Y005*
X00996Y00502*
X00993Y00503*
X00989Y00502*
X00986Y005*
X00984Y00497*
X00984Y00495*
X00974Y00496*
Y00927*
X0146Y01414*
X0147Y01409*
G37*
G36*
X04621Y01218D02*
Y00714D01*
Y00714*
X04616Y00705*
X04614Y00704*
X04581*
X04502Y00783*
Y01267*
X04501Y0127*
X04499Y01273*
X04413Y01359*
X04417Y01369*
X0447*
X04621Y01218*
G37*
G36*
X04494Y00718D02*
X04565Y00647D01*
Y00617*
X04555Y0061*
X04553Y00611*
X04551*
Y00581*
X04548*
Y00611*
X04546*
X04538Y00609*
X04531Y00605*
X04525Y006*
X0452Y00605*
X04513Y00609*
X04505Y00611*
X04503*
Y00581*
X045*
Y00611*
X04498*
X04496Y0061*
X04486Y00617*
Y0071*
X04485Y00713*
X04487Y00715*
X04492Y00719*
X04494Y00718*
G37*
G36*
X00666Y0083D02*
X00671Y00822D01*
Y00821*
Y00525*
X00672Y00521*
X00674Y00518*
X00845Y00347*
Y00117*
X00846Y00114*
X00848Y00111*
X00855Y00104*
X00851Y00094*
X00818*
X00804Y00108*
Y0022*
X00803Y00223*
X00801Y00226*
X00798Y00228*
X00795Y00229*
X00791Y00228*
X00788Y00226*
X00786Y00223*
X00785Y0022*
Y00104*
X00786Y00101*
X00788Y00098*
X00804Y00082*
X008Y00072*
X00637*
X00214Y00495*
Y00588*
X00215Y00589*
X00224Y00592*
X00224Y00592*
X00227Y00591*
X00387*
X0039Y00592*
X00393Y00594*
X00631Y00831*
X00664*
X00666Y0083*
G37*
G36*
X03954Y00629D02*
X03953Y00629D01*
X03951Y00626*
X0395Y00623*
Y00592*
X03797Y00439*
X03787Y00443*
Y00574*
X03852Y00639*
X03951*
X03954Y00629*
G37*
G36*
X03001Y00625D02*
X0274Y00352D01*
X02726*
X02723Y00362*
X02724Y00362*
X02994Y00632*
X03001Y00625*
G37*
G36*
X02399Y0056D02*
X02017Y00179D01*
X02015Y00176*
X02014Y00173*
X02007Y00165*
X02007Y00165*
X01517*
X01513Y00175*
X01535Y00197*
X01954*
X01957Y00198*
X0196Y002*
X0233Y0057*
X02394*
X02399Y0056*
G37*
G36*
X0348Y00122D02*
X0347Y00112D01*
X0111*
X01106Y00121*
X01117Y00132*
X03476*
X0348Y00122*
G37*
G36*
X00923Y01064D02*
X00932Y0106D01*
Y00311*
X00933Y00308*
X00933Y00308*
X00934Y00301*
X00933Y00295*
X00933Y00294*
X00932Y00292*
X00933Y00288*
X00935Y00285*
X00938Y00283*
X00942Y00283*
X00952*
X00955Y00283*
X00958Y00285*
X00971Y00298*
X00973Y00301*
X00974Y00305*
Y00365*
X00984Y00366*
X00984Y00364*
X00986Y00361*
X01048Y00299*
Y00135*
X01049Y00131*
X01051Y00128*
X01058Y00121*
X01054Y00112*
X00873*
X00864Y00121*
Y00351*
X00863Y00354*
X00861Y00357*
X0069Y00528*
Y00822*
X00689Y00822*
X00689Y00825*
X00691Y00833*
X00693Y00836*
X00921Y01064*
X00923Y01064*
G37*
G36*
X04379Y00364D02*
X04382Y00362D01*
X04386Y00361*
X04412*
X04415Y00362*
X04418Y00364*
X04483Y00429*
X04485Y00432*
X04486Y00435*
Y00502*
X04496Y00509*
X04498Y00508*
X045*
Y00538*
X04503*
Y00508*
X04505*
X04513Y0051*
X0452Y00514*
X04525Y00519*
X04531Y00514*
X04538Y0051*
X04546Y00508*
X04548*
X04548Y00508*
X04548*
X0455Y00506*
X04553Y00504*
X04556*
X04564Y005*
X04565Y00498*
Y0033*
X04387Y00152*
X04385Y00149*
X04384Y00146*
X04385Y00142*
X04387Y00139*
X0439Y00137*
X04394Y00136*
X04397Y00137*
X044Y00139*
X04581Y0032*
X0459Y00329*
X04592Y00332*
X04593Y00336*
Y00358*
X04602Y00362*
X04668Y00296*
X04671Y00294*
X04675Y00293*
X04678Y00294*
X04685Y00287*
X04684Y00282*
X04429Y00027*
X00304*
X002Y00131*
Y0047*
X00209Y00474*
X00627Y00056*
X0063Y00054*
X00634Y00053*
X03647*
X0365Y00054*
X03653Y00056*
X03866Y00269*
X03868Y00272*
X03869Y00276*
X03868Y00279*
X03866Y00282*
X03863Y00284*
X0386Y00285*
X03856Y00284*
X03853Y00282*
X03643Y00072*
X03497*
X03493Y00082*
X03856Y00445*
X03985*
X03988Y00446*
X03991Y00448*
X03993Y00451*
X03994Y00455*
X03993Y00458*
X03991Y00461*
X03988Y00463*
X03985Y00464*
X03862*
X03858Y00474*
X03966Y00582*
X03968Y00585*
X03969Y00589*
Y00623*
X03968Y00626*
X03966Y00629*
X03965Y00629*
X03968Y00639*
X04104*
X04379Y00364*
G37*
%LNpower_board-4*%
%LPC*%
G36*
X02946Y01205D02*
X02943D01*
X0294Y01204*
X02938Y01202*
X02937Y01199*
Y01196*
X02938Y01193*
X0294Y01191*
X02943Y0119*
X02946*
X02949Y01191*
X02951Y01193*
X02952Y01196*
Y01199*
X02951Y01202*
X02949Y01204*
X02946Y01205*
G37*
G36*
X02346Y01197D02*
X02343D01*
X0234Y01196*
X02338Y01194*
X02337Y01191*
Y01188*
X02338Y01185*
X0234Y01183*
X02343Y01182*
X02346*
X02349Y01183*
X02352Y01185*
X02353Y01188*
Y01191*
X02352Y01194*
X02349Y01196*
X02346Y01197*
G37*
G36*
X0281Y01154D02*
X02806Y01153D01*
X02803Y01151*
X0276Y01108*
X0275Y01106*
X02747Y01107*
X02744*
X02741Y01106*
Y01106*
X0274Y01105*
X02739Y01104*
X02738Y01101*
Y011*
Y01098*
X02738Y01097*
X02739Y01095*
X02741Y01093*
Y01093*
X02742Y0109*
X02646Y00994*
X02645Y00992*
X02642Y00994*
X02638Y00995*
X02627*
X0262Y01002*
X02617Y01004*
X02614Y01004*
X0261Y01004*
X02607Y01002*
X02605Y00999*
X02605Y00995*
X02605Y00992*
X02607Y00989*
X02617Y00979*
X0262Y00977*
X02622Y00977*
X02626Y00971*
X02627Y00967*
X02548Y00888*
X02546Y00885*
X02545Y00882*
Y00855*
X02546Y00851*
X02548Y00848*
X02551Y00846*
X02555Y00845*
X02558Y00846*
X02561Y00848*
X02563Y00851*
X02564Y00855*
Y00878*
X02659Y00973*
X02661Y00976*
X02661Y0098*
Y00984*
X02816Y01138*
X02818Y01141*
X02819Y01145*
X02818Y01148*
X02816Y01151*
X02813Y01153*
X0281Y01154*
G37*
G36*
X01743Y01044D02*
X0174D01*
X01737Y01043*
X01735Y01041*
X01734Y01038*
Y01035*
X01735Y01032*
X01737Y0103*
X0174Y01029*
X01743*
X01746Y0103*
X01748Y01032*
X01749Y01035*
Y01038*
X01748Y01041*
X01746Y01043*
X01743Y01044*
G37*
G36*
X02726Y00922D02*
X02723D01*
X0272Y00921*
X02718Y00919*
X02717Y00916*
Y00913*
X02718Y0091*
X0272Y00908*
X02723Y00907*
X02726*
X02729Y00908*
X02731Y0091*
X02732Y00913*
Y00916*
X02731Y00919*
X02729Y00921*
X02726Y00922*
G37*
G36*
X02904Y00681D02*
X02901D01*
X02898Y0068*
X02896Y00678*
X02895Y00675*
Y00672*
X02896Y00669*
X02898Y00667*
X02901Y00666*
X02904*
X02907Y00667*
X02909Y00669*
X0291Y00672*
Y00675*
X02909Y00678*
X02907Y0068*
X02904Y00681*
G37*
G36*
X02754D02*
X02751D01*
X02748Y0068*
X02746Y00678*
X02745Y00675*
Y00672*
X02746Y00669*
X02748Y00667*
X02751Y00666*
X02754*
X02757Y00667*
X02759Y00669*
X0276Y00672*
Y00675*
X02759Y00678*
X02757Y0068*
X02754Y00681*
G37*
G36*
X02921Y00632D02*
X02918D01*
X02915Y00631*
X02913Y00629*
X02912Y00626*
Y00623*
X02913Y0062*
X02915Y00618*
X02918Y00617*
X02921*
X02924Y00618*
X02926Y0062*
X02927Y00623*
Y00626*
X02926Y00629*
X02924Y00631*
X02921Y00632*
G37*
G36*
X01342Y0115D02*
X01339D01*
X01336Y01149*
X01334Y01146*
X01333Y01144*
Y0114*
X01334Y01137*
X01336Y01135*
X01339Y01134*
X01342*
X01345Y01135*
X01347Y01137*
X01349Y0114*
Y01144*
X01347Y01146*
X01345Y01149*
X01342Y0115*
G37*
G36*
X01241Y01112D02*
X01238D01*
X01235Y01111*
X01233Y01109*
X01232Y01106*
Y01103*
X01233Y011*
X01235Y01098*
X01238Y01097*
X01241*
X01244Y01098*
X01246Y011*
X01247Y01103*
Y01106*
X01246Y01109*
X01244Y01111*
X01241Y01112*
G37*
G36*
X0127Y01031D02*
X01267D01*
X01264Y0103*
X01262Y01028*
X01261Y01025*
Y01022*
X01262Y01019*
X01264Y01017*
X01267Y01016*
X0127*
X01273Y01017*
X01275Y01019*
X01276Y01022*
Y01025*
X01275Y01028*
X01273Y0103*
X0127Y01031*
G37*
G36*
X01025Y00622D02*
X01022D01*
X01019Y00621*
X01018Y0062*
X01015Y00618*
X01011Y00617*
X01007Y00617*
X01006*
X01004*
X01001Y00616*
X00999Y00614*
X00998Y00611*
Y00607*
X00999Y00605*
X01001Y00602*
X01004Y00601*
X01007*
X0101Y00602*
X01011Y00603*
X01014Y00605*
X01018Y00606*
X01022Y00607*
X01023*
X01025*
X01028Y00608*
X0103Y0061*
X01031Y00613*
Y00616*
X0103Y00619*
X01028Y00621*
X01025Y00622*
G37*
G36*
X01277Y00549D02*
X01274D01*
X01271Y00548*
X01269Y00546*
X01268Y00543*
Y0054*
X01269Y00537*
X01271Y00535*
X01274Y00534*
X01277*
X0128Y00535*
X01282Y00537*
X01283Y0054*
Y00543*
X01282Y00546*
X0128Y00548*
X01277Y00549*
G37*
G36*
X01212Y00546D02*
X01209D01*
X01206Y00545*
X01204Y00543*
X01203Y0054*
Y00537*
X01204Y00534*
X01206Y00532*
X01209Y00531*
X01212*
X01215Y00532*
X01217Y00534*
X01218Y00537*
Y0054*
X01217Y00543*
X01215Y00545*
X01212Y00546*
G37*
G36*
X01329Y0034D02*
X01326D01*
X01323Y00339*
X01321Y00337*
X0132Y00334*
Y00331*
X01321Y00328*
X01323Y00326*
X01326Y00325*
X01329*
X01332Y00326*
X01334Y00328*
X01335Y00331*
Y00334*
X01334Y00337*
X01332Y00339*
X01329Y0034*
G37*
G36*
X0456Y01D02*
X04557D01*
X04554Y00999*
X04552Y00997*
X04551Y00994*
Y00991*
X04552Y00988*
X04554Y00986*
X04557Y00985*
X0456*
X04563Y00986*
X04565Y00988*
X04566Y00991*
Y00994*
X04565Y00997*
X04563Y00999*
X0456Y01*
G37*
G36*
X04536Y00935D02*
X04533D01*
X0453Y00934*
X04528Y00932*
X04527Y00929*
Y00926*
X04528Y00923*
X0453Y00921*
X04533Y0092*
X04536*
X04539Y00921*
X04541Y00923*
X04542Y00926*
Y00929*
X04541Y00932*
X04539Y00934*
X04536Y00935*
G37*
G36*
X00622Y00739D02*
X00619D01*
X00616Y00738*
X00614Y00736*
X00613Y00733*
Y0073*
X00614Y00727*
X00616Y00725*
X00619Y00723*
X00622*
X00625Y00725*
X00627Y00727*
X00628Y0073*
Y00733*
X00627Y00736*
X00625Y00738*
X00622Y00739*
G37*
G36*
X003Y00541D02*
X00297D01*
X00294Y0054*
X00292Y00538*
X00291Y00535*
Y00532*
X00292Y00529*
X00294Y00527*
X00297Y00526*
X003*
X00303Y00527*
X00305Y00529*
X00306Y00532*
Y00535*
X00305Y00538*
X00303Y0054*
X003Y00541*
G37*
G36*
X00489Y00495D02*
X00486D01*
X00483Y00494*
X00481Y00492*
X0048Y00489*
Y00486*
X00481Y00483*
X00483Y00481*
X00486Y0048*
X00489*
X00492Y00481*
X00494Y00483*
X00495Y00486*
Y00489*
X00494Y00492*
X00492Y00494*
X00489Y00495*
G37*
G36*
X0071Y00227D02*
X00707D01*
X00704Y00226*
X00702Y00224*
X00701Y00221*
Y00218*
X00702Y00215*
X00704Y00213*
X00707Y00212*
X0071*
X00713Y00213*
X00715Y00215*
X00716Y00218*
Y00221*
X00715Y00224*
X00713Y00226*
X0071Y00227*
G37*
G36*
X00871Y00513D02*
X00868D01*
X00865Y00512*
X00863Y0051*
X00862Y00507*
Y00504*
X00863Y00501*
X00865Y00499*
X00868Y00498*
X00871*
X00874Y00499*
X00876Y00501*
X00877Y00504*
Y00507*
X00876Y0051*
X00874Y00512*
X00871Y00513*
G37*
G36*
X03931Y00393D02*
X03928D01*
X03925Y00392*
X03923Y0039*
X03922Y00387*
Y00384*
X03923Y00381*
X03925Y00379*
X03928Y00378*
X03931*
X03934Y00379*
X03936Y00381*
X03937Y00384*
Y00387*
X03936Y0039*
X03934Y00392*
X03931Y00393*
G37*
%LNpower_board-5*%
%LPD*%
G54D17*
X04394Y00146D02*
X04575Y00327D01*
Y00651*
X04448Y00778D02*
X04575Y00651D01*
Y00327D02*
X04584Y00336D01*
X02555Y00855D02*
Y00882D01*
X02652Y0098*
Y00987*
X01789Y00287D02*
X01847Y00345D01*
X01844Y01013D02*
X01913Y01082D01*
X01844Y0047D02*
X01863Y0045D01*
X01855Y00345D02*
X01863Y00354D01*
X01818Y00372D02*
X0183Y0036D01*
X01844Y0047D02*
Y01013D01*
X01847Y00345D02*
X01855D01*
X01863Y00354D02*
Y0045D01*
X0183Y0036D02*
X0185D01*
X01818Y00372D02*
Y0072D01*
X01395Y00303D02*
X014Y00308D01*
X01395Y00295D02*
X0144Y00251D01*
X01395Y00295D02*
Y00303D01*
X0144Y00251D02*
X01903D01*
X02795Y00262D02*
Y0035D01*
X04087Y00696D02*
Y01278D01*
X00965Y00931D02*
X01514Y0148D01*
X00965Y00305D02*
Y00931D01*
X01514Y0148D02*
X02115D01*
X00795Y00104D02*
X00814Y00085D01*
X03483*
X03853Y00455*
X03665Y0074D02*
Y00775D01*
X03655Y00785D02*
X03665Y00775D01*
X0342Y0086D02*
X03425Y00865D01*
X03395Y0086D02*
X0342D01*
X0335Y00815D02*
X03395Y0086D01*
X0332Y00815D02*
X0335D01*
X02623Y00986D02*
X02638D01*
X02614Y00995D02*
X02623Y00986D01*
X03666Y00721D02*
X03678Y00734D01*
X03627Y00796D02*
X0363Y00799D01*
X03627Y00773D02*
Y00796D01*
X03666Y00456D02*
Y00721D01*
X03627Y00773D02*
X0363Y0077D01*
Y00799D02*
Y01007D01*
Y00742D02*
Y0077D01*
X03641Y0079D02*
X03644Y00793D01*
X03641Y00779D02*
Y0079D01*
Y00779D02*
X03644Y00776D01*
Y00793D02*
Y01021D01*
Y00541D02*
Y00776D01*
X03666Y00793D02*
Y01186D01*
Y00793D02*
X03678Y0078D01*
Y00734D02*
Y0078D01*
X03643Y01022D02*
X03644Y01021D01*
X03615Y01022D02*
X03643D01*
X03524Y00945D02*
Y00968D01*
X03402Y00846D02*
X03425D01*
X03524Y00945*
X03182Y00626D02*
X03402Y00846D01*
X03524Y00968D02*
X03624Y01068D01*
X02652Y00987D02*
X0281Y01145D01*
X01818Y0072D02*
Y01092D01*
X04584Y00336D02*
Y00394D01*
X02436Y00903D02*
X0283Y00509D01*
X02153Y01186D02*
X02436Y00903D01*
X00681Y00525D02*
Y00822D01*
Y00525D02*
X00855Y00351D01*
Y00117D02*
Y00351D01*
Y00117D02*
X00869Y00103D01*
X03474*
X0396Y00589*
Y00623*
X00176Y00715D02*
X011Y01639D01*
X04476*
X0467Y01445*
Y00973D02*
Y01445D01*
X04653Y00695D02*
X0485Y00892D01*
X04578Y00695D02*
X04653D01*
X04493Y0078D02*
X04578Y00695D01*
X04493Y0078D02*
Y01267D01*
X04401Y01359D02*
X04493Y01267D01*
X03639Y01359D02*
X04401D01*
X03505Y01225D02*
X03639Y01359D01*
X01853Y01225D02*
X03505D01*
X01768Y0114D02*
X01853Y01225D01*
X03666Y01186D02*
X03795Y01315D01*
X0155Y00287D02*
X01789D01*
X02753Y01254D02*
X0309D01*
X02698Y01309D02*
X02753Y01254D01*
X01972Y01309D02*
X02698D01*
X01939Y01276D02*
X01972Y01309D01*
X01623Y01276D02*
X01939D01*
X01575Y01228D02*
X01623Y01276D01*
X01575Y0063D02*
Y01228D01*
X01327Y0099D02*
X01365D01*
X01082Y00745D02*
X01327Y0099D01*
X01082Y00132D02*
Y00745D01*
X00993Y00368D02*
Y00494D01*
Y00368D02*
X01058Y00303D01*
Y00135D02*
Y00303D01*
Y00135D02*
X01075Y00118D01*
X0109*
X01113Y00141*
X03485*
X03778Y00434*
Y00578*
X03849Y00649*
X04108*
X04386Y00371*
X04412*
X04477Y00435*
Y0071*
X04112Y00729D02*
X04236Y00853D01*
Y01326*
X00616Y00899D02*
X00719D01*
X00342Y00625D02*
X00616Y00899D01*
X00214Y00625D02*
X00342D01*
X00204Y00615D02*
X00214Y00625D01*
X00204Y00492D02*
Y00615D01*
Y00492D02*
X00634Y00063D01*
X03647*
X0386Y00276*
X02795Y0035D02*
X03609Y01164D01*
X02718Y00369D02*
X03523Y01174D01*
X02024Y00173D02*
X02415Y00564D01*
X03656Y00402D02*
Y00427D01*
X0341Y00156D02*
X03656Y00402D01*
X01344Y00156D02*
X0341D01*
X01269Y00231D02*
X01344Y00156D01*
X01269Y00231D02*
Y00482D01*
X00942Y00292D02*
X00952D01*
X00965Y00305*
X02115Y0148D02*
X02202Y01393D01*
X04486*
X04448Y00778D02*
Y01271D01*
X04584Y00394D02*
X04675Y00303D01*
X00685Y00841D02*
X01115Y01271D01*
X00627Y00841D02*
X00685D01*
X00387Y00601D02*
X00627Y00841D01*
X00227Y00601D02*
X00387D01*
X04993Y0056D02*
Y01192D01*
X04723Y0029D02*
X04993Y0056D01*
X00209Y00648D02*
X00247D01*
X00191Y0063D02*
X00209Y00648D01*
X00191Y00128D02*
Y0063D01*
Y00128D02*
X00301Y00018D01*
X04433*
X04699Y00284*
Y00676*
X04728Y00705*
X01303Y0048D02*
X01319Y00465D01*
X01303Y0048D02*
Y00687D01*
X01304Y00714D02*
X0148Y0089D01*
Y01419*
X01497Y00172D02*
X01532Y00207D01*
X01954*
X02327Y0058*
X02487*
X02684Y00383*
X04631Y00714D02*
Y01222D01*
X04474Y01379D02*
X04631Y01222D01*
X03621Y01379D02*
X04474D01*
X03521Y01279D02*
X03621Y01379D01*
X03167Y01279D02*
X03521D01*
X03119Y01326D02*
X03167Y01279D01*
X01628Y01326D02*
X03119D01*
X0151Y01208D02*
X01628Y01326D01*
X0302Y00631D02*
X0332Y00931D01*
X02744Y00343D02*
X0302Y00631D01*
X0244Y00343D02*
X02744D01*
X01334Y00485D02*
Y00684D01*
X01318Y007D02*
X01334Y00684D01*
X0129Y007D02*
X01318D01*
X01289Y00841D02*
X0129Y007D01*
X02121Y00859D02*
Y00875D01*
X02149Y00903*
X02436*
X01715Y00823D02*
Y01256D01*
Y00823D02*
X01818Y0072D01*
Y01092D02*
X01835Y0111D01*
X02113*
X02299Y00924*
X00795Y00104D02*
Y0022D01*
X03853Y00455D02*
X03985D01*
X02939Y00336D02*
X03061Y00458D01*
Y00581*
X03595Y01115*
X00942Y0106D02*
X01181Y01299D01*
X00942Y00311D02*
Y0106D01*
X01858Y00476D02*
Y00755D01*
X0203Y00927*
X0136Y00173D02*
Y00582D01*
X0153Y00752*
Y00951*
X01031Y01534D02*
X02904D01*
X00196Y00699D02*
X01031Y01534D01*
X00161Y00699D02*
X00196D01*
X00143Y00717D02*
X00161Y00699D01*
X00143Y00717D02*
Y00963D01*
X031Y00212D02*
X0363Y00742D01*
X03764Y00447D02*
Y00639D01*
X04043Y00918*
X04087Y00696D02*
X04395Y00388D01*
X03182Y00586D02*
Y00626D01*
X03624Y01068D02*
Y01261D01*
X03705Y01342*
X02173Y00842D02*
X02198Y00868D01*
X02173Y00521D02*
Y00842D01*
X01903Y00251D02*
X02173Y00521D01*
X02159Y00867D02*
Y0088D01*
X0188Y00588D02*
X02159Y00867D01*
G54D86*
X04555Y00512D03*
X00859Y01142D03*
X0124Y01105D03*
X02555Y00855D03*
X01682Y00348D03*
X0185Y0036D03*
X014Y00308D03*
X00105Y0066D03*
D03*
X00167Y00774D03*
Y00617D03*
X02795Y00262D03*
X04087Y01278D03*
X02388Y00888D03*
X0214Y0092D03*
X01775Y0129D03*
D03*
X0127Y0128D03*
D03*
X04315Y00735D03*
D03*
X03665Y0074D03*
X03655Y00785D03*
X03509Y00805D03*
D03*
X03425Y00865D03*
X0332Y00815D03*
X02724Y00914D03*
D03*
X02638Y00986D03*
X02614Y00995D03*
X02345Y0119D03*
D03*
X01885Y0126D03*
D03*
X03685Y00723D03*
X04559Y00993D03*
X03666Y00456D03*
X01913Y01082D03*
X01006Y00609D03*
X02746Y011D03*
X04074Y01258D03*
X01365Y0099D03*
X01082Y00132D03*
X02578Y01435D03*
X01341Y01142D03*
X00639Y00862D03*
X00805Y01028D03*
X02619Y00416D03*
X03039D03*
X00719Y00899D03*
X0386Y00276D03*
X0538Y01222D03*
X03609Y01164D03*
X02718Y00369D03*
X0498Y00473D03*
X05263Y00504D03*
X0292Y00625D03*
X02024Y00173D03*
X03656Y00427D03*
X03615Y01547D03*
X01285Y01279D03*
X01472Y00882D03*
X01328Y00333D03*
X04394Y00146D03*
X04738Y00425D03*
X00621Y00731D03*
X00156Y00538D03*
X01276Y00542D03*
X00045Y00695D03*
X03471Y00474D03*
X02153Y01186D03*
X01319Y00465D03*
X01304Y00714D03*
X0148Y01419D03*
X00299Y00534D03*
X02689Y00383D03*
X04631Y00714D03*
X0151Y01208D03*
X0332Y00931D03*
X0244Y00343D03*
X02454Y00342D03*
X01334Y00485D03*
X01289Y00841D03*
X00709Y0022D03*
X01061Y00325D03*
X01024Y00615D03*
X02121Y00859D03*
X0283Y00509D03*
X0087Y00506D03*
X04345Y00488D03*
X04865Y01366D03*
X03483Y00329D03*
X01715Y01256D03*
X02299Y00924D03*
X0285Y-0007D03*
X03433Y00582D03*
X05263Y00603D03*
X00488Y00488D03*
X02939Y00336D03*
X03595Y01115D03*
X01181Y01299D03*
X00942Y00311D03*
X02895Y00476D03*
X0136Y00173D03*
X0153Y00951D03*
X00681Y00822D03*
X05594Y01026D03*
X0296Y-0012D03*
X031Y00212D03*
X0363Y01007D03*
X03764Y00447D03*
X04043Y00918D03*
X04395Y00388D03*
X04805Y00482D03*
X01211Y00539D03*
X031Y00488D03*
X01742Y01037D03*
X03409Y00614D03*
X01269Y01024D03*
X03182Y00586D03*
X03705Y01342D03*
X02198Y00868D03*
X0393Y00386D03*
X02393Y00692D03*
X02655Y01295D03*
X02945Y01198D03*
X04742Y00928D03*
X04535D03*
X02753Y00674D03*
X02903D03*
G54D87*
X04598Y00581D03*
X0455D03*
X04501D03*
X04598Y00538D03*
X0455D03*
X04501D03*
M02*