%FSTAX23Y23*%
%MOIN*%
%SFA1B1*%

%IPPOS*%
%AMD30*
4,1,8,-0.011700,-0.013000,0.011700,-0.013000,0.015000,-0.009800,0.015000,0.009800,0.011700,0.013000,-0.011700,0.013000,-0.015000,0.009800,-0.015000,-0.009800,-0.011700,-0.013000,0.0*
1,1,0.006496,-0.011700,-0.009800*
1,1,0.006496,0.011700,-0.009800*
1,1,0.006496,0.011700,0.009800*
1,1,0.006496,-0.011700,0.009800*
%
%AMD31*
4,1,4,0.000000,0.014400,-0.014400,0.000000,0.000000,-0.014400,0.014400,0.000000,0.000000,0.014400,0.0*
%
%AMD37*
4,1,8,-0.013000,0.011700,-0.013000,-0.011700,-0.009800,-0.015000,0.009800,-0.015000,0.013000,-0.011700,0.013000,0.011700,0.009800,0.015000,-0.009800,0.015000,-0.013000,0.011700,0.0*
1,1,0.006496,-0.009800,0.011700*
1,1,0.006496,-0.009800,-0.011700*
1,1,0.006496,0.009800,-0.011700*
1,1,0.006496,0.009800,0.011700*
%
%AMD53*
4,1,8,-0.008400,-0.009800,0.008400,-0.009800,0.010800,-0.007400,0.010800,0.007400,0.008400,0.009800,-0.008400,0.009800,-0.010800,0.007400,-0.010800,-0.007400,-0.008400,-0.009800,0.0*
1,1,0.004921,-0.008400,-0.007400*
1,1,0.004921,0.008400,-0.007400*
1,1,0.004921,0.008400,0.007400*
1,1,0.004921,-0.008400,0.007400*
%
%AMD66*
4,1,8,-0.008900,0.025600,-0.008900,-0.025600,-0.006900,-0.027600,0.006900,-0.027600,0.008900,-0.025600,0.008900,0.025600,0.006900,0.027600,-0.006900,0.027600,-0.008900,0.025600,0.0*
1,1,0.003898,-0.006900,0.025600*
1,1,0.003898,-0.006900,-0.025600*
1,1,0.003898,0.006900,-0.025600*
1,1,0.003898,0.006900,0.025600*
%
%AMD67*
4,1,8,-0.021900,-0.015000,0.021900,-0.015000,0.025600,-0.011200,0.025600,0.011200,0.021900,0.015000,-0.021900,0.015000,-0.025600,0.011200,-0.025600,-0.011200,-0.021900,-0.015000,0.0*
1,1,0.007480,-0.021900,-0.011200*
1,1,0.007480,0.021900,-0.011200*
1,1,0.007480,0.021900,0.011200*
1,1,0.007480,-0.021900,0.011200*
%
%ADD18R,0.022835X0.021260*%
%ADD19R,0.027559X0.009843*%
%ADD20R,0.009843X0.027559*%
%ADD21R,0.009843X0.059055*%
%ADD22R,0.011417X0.014567*%
%ADD23R,0.013780X0.017716*%
%ADD24R,0.010342X0.013941*%
%ADD25R,0.017716X0.066929*%
%ADD26R,0.157480X0.157480*%
%ADD27R,0.049417X0.043551*%
%ADD28R,0.095000X0.135000*%
%ADD29R,0.021260X0.022835*%
G04~CAMADD=30~8~0.0~0.0~299.2~260.0~32.5~0.0~15~0.0~0.0~0.0~0.0~0~0.0~0.0~0.0~0.0~0~0.0~0.0~0.0~180.0~300.0~260.0*
%ADD30D30*%
G04~CAMADD=31~10~0.0~204.7~0.0~0.0~0.0~0.0~0~0.0~0.0~0.0~0.0~0~0.0~0.0~0.0~0.0~0~0.0~0.0~0.0~405.0~204.7~0.0*
%ADD31D31*%
%ADD32C,0.008768*%
%ADD33C,0.009213*%
%ADD34R,0.016732X0.015748*%
%ADD35R,0.029527X0.011811*%
%ADD36R,0.045275X0.037401*%
G04~CAMADD=37~8~0.0~0.0~299.2~260.0~32.5~0.0~15~0.0~0.0~0.0~0.0~0~0.0~0.0~0.0~0.0~0~0.0~0.0~0.0~90.0~261.0~300.0*
%ADD37D37*%
%ADD38R,0.018216X0.021815*%
%ADD39R,0.035433X0.029527*%
%ADD40R,0.039370X0.033465*%
%ADD41R,0.029527X0.035433*%
%ADD42R,0.023622X0.023622*%
%ADD43R,0.015748X0.013780*%
%ADD44R,0.035433X0.031496*%
%ADD45R,0.020472X0.022047*%
%ADD46R,0.009843X0.013780*%
%ADD47R,0.029772X0.043551*%
%ADD48R,0.017716X0.021654*%
%ADD49R,0.013780X0.013780*%
%ADD50R,0.021654X0.021654*%
%ADD51R,0.039614X0.041543*%
%ADD52R,0.041543X0.039614*%
G04~CAMADD=53~8~0.0~0.0~216.5~196.9~24.6~0.0~15~0.0~0.0~0.0~0.0~0~0.0~0.0~0.0~0.0~0~0.0~0.0~0.0~180.0~216.0~196.0*
%ADD53D53*%
%ADD54R,0.031496X0.035433*%
%ADD55R,0.043551X0.029772*%
%ADD56R,0.021654X0.017716*%
%ADD57R,0.013780X0.013780*%
%ADD58R,0.025197X0.026772*%
%ADD59R,0.027559X0.027559*%
%ADD60R,0.008661X0.031102*%
%ADD61R,0.031102X0.008661*%
%ADD62R,0.021815X0.018216*%
%ADD63R,0.039370X0.041339*%
%ADD64R,0.033465X0.039370*%
%ADD65R,0.033465X0.035433*%
G04~CAMADD=66~8~0.0~0.0~551.2~177.2~19.5~0.0~15~0.0~0.0~0.0~0.0~0~0.0~0.0~0.0~0.0~0~0.0~0.0~0.0~90.0~178.0~552.0*
%ADD66D66*%
G04~CAMADD=67~8~0.0~0.0~511.8~299.2~37.4~0.0~15~0.0~0.0~0.0~0.0~0~0.0~0.0~0.0~0.0~0~0.0~0.0~0.0~180.0~513.0~300.0*
%ADD67D67*%
%ADD68R,0.043551X0.049417*%
%ADD69R,0.022047X0.020472*%
%ADD70R,0.021654X0.021654*%
%ADD71R,0.023622X0.023622*%
%ADD72R,0.013780X0.015748*%
%ADD73R,0.013941X0.010342*%
%ADD74R,0.013780X0.009843*%
%ADD75R,0.041339X0.039370*%
%ADD76R,0.014567X0.011417*%
%ADD77R,0.017716X0.013780*%
%ADD78R,0.031496X0.011811*%
%ADD79R,0.031496X0.015748*%
%ADD80R,0.015748X0.016732*%
%ADD81R,0.011811X0.029527*%
%ADD82R,0.037401X0.045275*%
%LNpower_board-1*%
%LPD*%
G36*
X01427Y01113D02*
X01423D01*
X01417Y01119*
Y01128*
X01427*
Y01113*
G37*
G36*
X01402Y01119D02*
X01396Y01113D01*
X01392*
Y01128*
X01402*
Y01119*
G37*
G36*
X01427Y01081D02*
X01417D01*
Y0109*
X01423Y01096*
X01427*
Y01081*
G37*
G36*
X01402Y0109D02*
Y01081D01*
X01392*
Y01096*
X01396*
X01402Y0109*
G37*
G36*
X02367Y00892D02*
X02368D01*
X02368Y00891*
X02368*
X02368Y00891*
X02368Y00891*
X02368Y00891*
X02368Y00891*
X02368Y00891*
X02368Y00891*
X02368Y00891*
X02368Y00891*
X02369Y00891*
X02369Y00891*
X02369Y00891*
X02369Y00891*
X02369Y00891*
X02369Y00891*
X02369Y0089*
X02369Y0089*
X02369Y0089*
X02369Y0089*
Y0089*
X02369Y0089*
Y0089*
X02369Y0089*
Y0089*
Y0089*
Y0087*
Y0087*
Y0087*
X02369Y0087*
Y0087*
X02369Y00869*
Y00869*
X02369Y00869*
X02369Y00869*
X02369Y00869*
X02369Y00869*
X02369Y00869*
X02369Y00869*
X02369Y00869*
X02369Y00869*
X02369Y00869*
X02368Y00868*
X02368Y00868*
X02368Y00868*
X02368Y00868*
X02368Y00868*
X02368Y00868*
X02368Y00868*
X02368Y00868*
X02368Y00868*
X02368*
X02368Y00868*
X02367*
X02367Y00868*
X02361*
X02361Y00868*
X02361*
X02361Y00868*
X02361*
X02361Y00868*
X0236Y00868*
X0236Y00868*
X0236Y00868*
X0236Y00868*
X0236Y00868*
X0236Y00868*
X0236Y00868*
X0236Y00869*
X0236Y00869*
X0236Y00869*
X0236Y00869*
X0236Y00869*
X0236Y00869*
X02359Y00869*
X02359Y00869*
X02359Y00869*
X02359Y00869*
Y00869*
X02359Y0087*
Y0087*
X02359Y0087*
Y0087*
Y0087*
Y0089*
Y0089*
Y0089*
X02359Y0089*
Y0089*
X02359Y0089*
Y0089*
X02359Y0089*
X02359Y0089*
X02359Y0089*
X0236Y00891*
X0236Y00891*
X0236Y00891*
X0236Y00891*
X0236Y00891*
X0236Y00891*
X0236Y00891*
X0236Y00891*
X0236Y00891*
X0236Y00891*
X0236Y00891*
X0236Y00891*
X0236Y00891*
X02361Y00891*
X02361Y00891*
X02361*
X02361Y00892*
X02361*
X02361Y00892*
X02367*
X02367Y00892*
G37*
G36*
X02348D02*
X02348D01*
X02348Y00891*
X02348*
X02348Y00891*
X02348Y00891*
X02348Y00891*
X02348Y00891*
X02349Y00891*
X02349Y00891*
X02349Y00891*
X02349Y00891*
X02349Y00891*
X02349Y00891*
X02349Y00891*
X02349Y00891*
X02349Y00891*
X02349Y00891*
X02349Y0089*
X02349Y0089*
X02349Y0089*
X02349Y0089*
Y0089*
X02349Y0089*
Y0089*
X02349Y0089*
Y0089*
Y0089*
Y0087*
Y0087*
Y0087*
X02349Y0087*
Y0087*
X02349Y00869*
Y00869*
X02349Y00869*
X02349Y00869*
X02349Y00869*
X02349Y00869*
X02349Y00869*
X02349Y00869*
X02349Y00869*
X02349Y00869*
X02349Y00869*
X02349Y00868*
X02349Y00868*
X02349Y00868*
X02349Y00868*
X02348Y00868*
X02348Y00868*
X02348Y00868*
X02348Y00868*
X02348Y00868*
X02348*
X02348Y00868*
X02348*
X02348Y00868*
X02341*
X02341Y00868*
X02341*
X02341Y00868*
X02341*
X02341Y00868*
X02341Y00868*
X02341Y00868*
X02341Y00868*
X0234Y00868*
X0234Y00868*
X0234Y00868*
X0234Y00868*
X0234Y00869*
X0234Y00869*
X0234Y00869*
X0234Y00869*
X0234Y00869*
X0234Y00869*
X0234Y00869*
X0234Y00869*
X0234Y00869*
X0234Y00869*
Y00869*
X0234Y0087*
Y0087*
X0234Y0087*
Y0087*
Y0087*
Y0089*
Y0089*
Y0089*
X0234Y0089*
Y0089*
X0234Y0089*
Y0089*
X0234Y0089*
X0234Y0089*
X0234Y0089*
X0234Y00891*
X0234Y00891*
X0234Y00891*
X0234Y00891*
X0234Y00891*
X0234Y00891*
X0234Y00891*
X0234Y00891*
X0234Y00891*
X0234Y00891*
X02341Y00891*
X02341Y00891*
X02341Y00891*
X02341Y00891*
X02341Y00891*
X02341*
X02341Y00892*
X02341*
X02341Y00892*
X02348*
X02348Y00892*
G37*
G36*
X02328D02*
X02328D01*
X02328Y00891*
X02328*
X02328Y00891*
X02329Y00891*
X02329Y00891*
X02329Y00891*
X02329Y00891*
X02329Y00891*
X02329Y00891*
X02329Y00891*
X02329Y00891*
X02329Y00891*
X02329Y00891*
X02329Y00891*
X02329Y00891*
X02329Y00891*
X0233Y0089*
X0233Y0089*
X0233Y0089*
X0233Y0089*
Y0089*
X0233Y0089*
Y0089*
X0233Y0089*
Y0089*
Y0089*
Y0087*
Y0087*
Y0087*
X0233Y0087*
Y0087*
X0233Y00869*
Y00869*
X0233Y00869*
X0233Y00869*
X0233Y00869*
X02329Y00869*
X02329Y00869*
X02329Y00869*
X02329Y00869*
X02329Y00869*
X02329Y00869*
X02329Y00868*
X02329Y00868*
X02329Y00868*
X02329Y00868*
X02329Y00868*
X02329Y00868*
X02329Y00868*
X02328Y00868*
X02328Y00868*
X02328*
X02328Y00868*
X02328*
X02328Y00868*
X02322*
X02322Y00868*
X02321*
X02321Y00868*
X02321*
X02321Y00868*
X02321Y00868*
X02321Y00868*
X02321Y00868*
X02321Y00868*
X02321Y00868*
X02321Y00868*
X02321Y00868*
X0232Y00869*
X0232Y00869*
X0232Y00869*
X0232Y00869*
X0232Y00869*
X0232Y00869*
X0232Y00869*
X0232Y00869*
X0232Y00869*
X0232Y00869*
Y00869*
X0232Y0087*
Y0087*
X0232Y0087*
Y0087*
Y0087*
Y0089*
Y0089*
Y0089*
X0232Y0089*
Y0089*
X0232Y0089*
Y0089*
X0232Y0089*
X0232Y0089*
X0232Y0089*
X0232Y00891*
X0232Y00891*
X0232Y00891*
X0232Y00891*
X0232Y00891*
X0232Y00891*
X02321Y00891*
X02321Y00891*
X02321Y00891*
X02321Y00891*
X02321Y00891*
X02321Y00891*
X02321Y00891*
X02321Y00891*
X02321Y00891*
X02321*
X02321Y00892*
X02322*
X02322Y00892*
X02328*
X02328Y00892*
G37*
G36*
X02308D02*
X02308D01*
X02309Y00891*
X02309*
X02309Y00891*
X02309Y00891*
X02309Y00891*
X02309Y00891*
X02309Y00891*
X02309Y00891*
X02309Y00891*
X02309Y00891*
X02309Y00891*
X0231Y00891*
X0231Y00891*
X0231Y00891*
X0231Y00891*
X0231Y00891*
X0231Y0089*
X0231Y0089*
X0231Y0089*
X0231Y0089*
Y0089*
X0231Y0089*
Y0089*
X0231Y0089*
Y0089*
Y0089*
Y0087*
Y0087*
Y0087*
X0231Y0087*
Y0087*
X0231Y00869*
Y00869*
X0231Y00869*
X0231Y00869*
X0231Y00869*
X0231Y00869*
X0231Y00869*
X0231Y00869*
X0231Y00869*
X0231Y00869*
X02309Y00869*
X02309Y00868*
X02309Y00868*
X02309Y00868*
X02309Y00868*
X02309Y00868*
X02309Y00868*
X02309Y00868*
X02309Y00868*
X02309Y00868*
X02309*
X02308Y00868*
X02308*
X02308Y00868*
X02302*
X02302Y00868*
X02302*
X02302Y00868*
X02302*
X02301Y00868*
X02301Y00868*
X02301Y00868*
X02301Y00868*
X02301Y00868*
X02301Y00868*
X02301Y00868*
X02301Y00868*
X02301Y00869*
X02301Y00869*
X02301Y00869*
X02301Y00869*
X02301Y00869*
X023Y00869*
X023Y00869*
X023Y00869*
X023Y00869*
X023Y00869*
Y00869*
X023Y0087*
Y0087*
X023Y0087*
Y0087*
Y0087*
Y0089*
Y0089*
Y0089*
X023Y0089*
Y0089*
X023Y0089*
Y0089*
X023Y0089*
X023Y0089*
X023Y0089*
X023Y00891*
X02301Y00891*
X02301Y00891*
X02301Y00891*
X02301Y00891*
X02301Y00891*
X02301Y00891*
X02301Y00891*
X02301Y00891*
X02301Y00891*
X02301Y00891*
X02301Y00891*
X02301Y00891*
X02301Y00891*
X02302Y00891*
X02302*
X02302Y00892*
X02302*
X02302Y00892*
X02308*
X02308Y00892*
G37*
G36*
X0238Y00849D02*
X0238D01*
X0238Y00849*
X02381*
X02381Y00849*
X02381Y00849*
X02381Y00849*
X02381Y00849*
X02381Y00849*
X02381Y00849*
X02381Y00849*
X02381Y00849*
X02381Y00849*
X02381Y00849*
X02381Y00848*
X02382Y00848*
X02382Y00848*
X02382Y00848*
X02382Y00848*
X02382Y00848*
X02382Y00848*
X02382Y00848*
Y00848*
X02382Y00848*
Y00848*
X02382Y00847*
Y00847*
Y00847*
Y00841*
Y00841*
Y00841*
X02382Y00841*
Y00841*
X02382Y00841*
Y00841*
X02382Y00841*
X02382Y00841*
X02382Y0084*
X02382Y0084*
X02382Y0084*
X02382Y0084*
X02381Y0084*
X02381Y0084*
X02381Y0084*
X02381Y0084*
X02381Y0084*
X02381Y0084*
X02381Y0084*
X02381Y0084*
X02381Y0084*
X02381Y0084*
X02381Y0084*
X02381Y00839*
X0238*
X0238Y00839*
X0238*
X0238Y00839*
X0236*
X0236Y00839*
X0236*
X0236Y00839*
X0236*
X0236Y0084*
X02359Y0084*
X02359Y0084*
X02359Y0084*
X02359Y0084*
X02359Y0084*
X02359Y0084*
X02359Y0084*
X02359Y0084*
X02359Y0084*
X02359Y0084*
X02359Y0084*
X02359Y0084*
X02359Y0084*
X02358Y0084*
X02358Y00841*
X02358Y00841*
X02358Y00841*
Y00841*
X02358Y00841*
Y00841*
X02358Y00841*
Y00841*
Y00841*
Y00847*
Y00847*
Y00847*
X02358Y00848*
Y00848*
X02358Y00848*
Y00848*
X02358Y00848*
X02358Y00848*
X02358Y00848*
X02359Y00848*
X02359Y00848*
X02359Y00848*
X02359Y00848*
X02359Y00849*
X02359Y00849*
X02359Y00849*
X02359Y00849*
X02359Y00849*
X02359Y00849*
X02359Y00849*
X02359Y00849*
X02359Y00849*
X0236Y00849*
X0236Y00849*
X0236*
X0236Y00849*
X0236*
X0236Y00849*
X0238*
X0238Y00849*
G37*
G36*
X02341D02*
X02341D01*
X02341Y00849*
X02341*
X02341Y00849*
X02341Y00849*
X02341Y00849*
X02342Y00849*
X02342Y00849*
X02342Y00849*
X02342Y00849*
X02342Y00849*
X02342Y00849*
X02342Y00849*
X02342Y00848*
X02342Y00848*
X02342Y00848*
X02342Y00848*
X02342Y00848*
X02342Y00848*
X02342Y00848*
X02342Y00848*
Y00848*
X02342Y00848*
Y00848*
X02343Y00847*
Y00847*
Y00847*
Y00841*
Y00841*
Y00841*
X02342Y00841*
Y00841*
X02342Y00841*
Y00841*
X02342Y00841*
X02342Y00841*
X02342Y0084*
X02342Y0084*
X02342Y0084*
X02342Y0084*
X02342Y0084*
X02342Y0084*
X02342Y0084*
X02342Y0084*
X02342Y0084*
X02342Y0084*
X02342Y0084*
X02342Y0084*
X02341Y0084*
X02341Y0084*
X02341Y0084*
X02341Y00839*
X02341*
X02341Y00839*
X02341*
X02341Y00839*
X02321*
X02321Y00839*
X0232*
X0232Y00839*
X0232*
X0232Y0084*
X0232Y0084*
X0232Y0084*
X0232Y0084*
X0232Y0084*
X0232Y0084*
X0232Y0084*
X0232Y0084*
X0232Y0084*
X02319Y0084*
X02319Y0084*
X02319Y0084*
X02319Y0084*
X02319Y0084*
X02319Y0084*
X02319Y00841*
X02319Y00841*
X02319Y00841*
Y00841*
X02319Y00841*
Y00841*
X02319Y00841*
Y00841*
Y00841*
Y00847*
Y00847*
Y00847*
X02319Y00848*
Y00848*
X02319Y00848*
Y00848*
X02319Y00848*
X02319Y00848*
X02319Y00848*
X02319Y00848*
X02319Y00848*
X02319Y00848*
X02319Y00848*
X02319Y00849*
X0232Y00849*
X0232Y00849*
X0232Y00849*
X0232Y00849*
X0232Y00849*
X0232Y00849*
X0232Y00849*
X0232Y00849*
X0232Y00849*
X0232Y00849*
X0232*
X0232Y00849*
X02321*
X02321Y00849*
X02341*
X02341Y00849*
G37*
G36*
X02309D02*
X02309D01*
X0231Y00849*
X0231*
X0231Y00849*
X0231Y00849*
X0231Y00849*
X0231Y00849*
X0231Y00849*
X0231Y00849*
X0231Y00849*
X0231Y00849*
X0231Y00849*
X02311Y00849*
X02311Y00848*
X02311Y00848*
X02311Y00848*
X02311Y00848*
X02311Y00848*
X02311Y00848*
X02311Y00848*
X02311Y00848*
Y00848*
X02311Y00848*
Y00848*
X02311Y00847*
Y00847*
Y00847*
Y00841*
Y00841*
Y00841*
X02311Y00841*
Y00841*
X02311Y00841*
Y00841*
X02311Y00841*
X02311Y00841*
X02311Y0084*
X02311Y0084*
X02311Y0084*
X02311Y0084*
X02311Y0084*
X02311Y0084*
X0231Y0084*
X0231Y0084*
X0231Y0084*
X0231Y0084*
X0231Y0084*
X0231Y0084*
X0231Y0084*
X0231Y0084*
X0231Y0084*
X0231Y00839*
X0231*
X02309Y00839*
X02309*
X02309Y00839*
X02289*
X02289Y00839*
X02289*
X02289Y00839*
X02289*
X02289Y0084*
X02289Y0084*
X02288Y0084*
X02288Y0084*
X02288Y0084*
X02288Y0084*
X02288Y0084*
X02288Y0084*
X02288Y0084*
X02288Y0084*
X02288Y0084*
X02288Y0084*
X02288Y0084*
X02288Y0084*
X02288Y0084*
X02288Y00841*
X02288Y00841*
X02287Y00841*
Y00841*
X02287Y00841*
Y00841*
X02287Y00841*
Y00841*
Y00841*
Y00847*
Y00847*
Y00847*
X02287Y00848*
Y00848*
X02287Y00848*
Y00848*
X02288Y00848*
X02288Y00848*
X02288Y00848*
X02288Y00848*
X02288Y00848*
X02288Y00848*
X02288Y00848*
X02288Y00849*
X02288Y00849*
X02288Y00849*
X02288Y00849*
X02288Y00849*
X02288Y00849*
X02288Y00849*
X02288Y00849*
X02289Y00849*
X02289Y00849*
X02289Y00849*
X02289*
X02289Y00849*
X02289*
X02289Y00849*
X02309*
X02309Y00849*
G37*
G36*
X0238Y0083D02*
X0238D01*
X0238Y00829*
X02381*
X02381Y00829*
X02381Y00829*
X02381Y00829*
X02381Y00829*
X02381Y00829*
X02381Y00829*
X02381Y00829*
X02381Y00829*
X02381Y00829*
X02381Y00829*
X02381Y00829*
X02382Y00829*
X02382Y00829*
X02382Y00829*
X02382Y00828*
X02382Y00828*
X02382Y00828*
X02382Y00828*
Y00828*
X02382Y00828*
Y00828*
X02382Y00828*
Y00828*
Y00828*
Y00822*
Y00822*
Y00821*
X02382Y00821*
Y00821*
X02382Y00821*
Y00821*
X02382Y00821*
X02382Y00821*
X02382Y00821*
X02382Y00821*
X02382Y00821*
X02382Y00821*
X02381Y0082*
X02381Y0082*
X02381Y0082*
X02381Y0082*
X02381Y0082*
X02381Y0082*
X02381Y0082*
X02381Y0082*
X02381Y0082*
X02381Y0082*
X02381Y0082*
X02381Y0082*
X0238*
X0238Y0082*
X0238*
X0238Y0082*
X0236*
X0236Y0082*
X0236*
X0236Y0082*
X0236*
X0236Y0082*
X02359Y0082*
X02359Y0082*
X02359Y0082*
X02359Y0082*
X02359Y0082*
X02359Y0082*
X02359Y0082*
X02359Y0082*
X02359Y0082*
X02359Y0082*
X02359Y00821*
X02359Y00821*
X02359Y00821*
X02358Y00821*
X02358Y00821*
X02358Y00821*
X02358Y00821*
Y00821*
X02358Y00821*
Y00821*
X02358Y00821*
Y00822*
Y00822*
Y00828*
Y00828*
Y00828*
X02358Y00828*
Y00828*
X02358Y00828*
Y00828*
X02358Y00828*
X02358Y00828*
X02358Y00828*
X02359Y00829*
X02359Y00829*
X02359Y00829*
X02359Y00829*
X02359Y00829*
X02359Y00829*
X02359Y00829*
X02359Y00829*
X02359Y00829*
X02359Y00829*
X02359Y00829*
X02359Y00829*
X02359Y00829*
X0236Y00829*
X0236Y00829*
X0236*
X0236Y0083*
X0236*
X0236Y0083*
X0238*
X0238Y0083*
G37*
G36*
X02349D02*
X02349D01*
X02349Y00829*
X02349*
X02349Y00829*
X02349Y00829*
X02349Y00829*
X02349Y00829*
X0235Y00829*
X0235Y00829*
X0235Y00829*
X0235Y00829*
X0235Y00829*
X0235Y00829*
X0235Y00829*
X0235Y00829*
X0235Y00829*
X0235Y00829*
X0235Y00828*
X0235Y00828*
X0235Y00828*
X0235Y00828*
Y00828*
X0235Y00828*
Y00828*
X0235Y00828*
Y00828*
Y00828*
Y00822*
Y00822*
Y00821*
X0235Y00821*
Y00821*
X0235Y00821*
Y00821*
X0235Y00821*
X0235Y00821*
X0235Y00821*
X0235Y00821*
X0235Y00821*
X0235Y00821*
X0235Y0082*
X0235Y0082*
X0235Y0082*
X0235Y0082*
X0235Y0082*
X0235Y0082*
X0235Y0082*
X02349Y0082*
X02349Y0082*
X02349Y0082*
X02349Y0082*
X02349Y0082*
X02349*
X02349Y0082*
X02349*
X02349Y0082*
X02329*
X02328Y0082*
X02328*
X02328Y0082*
X02328*
X02328Y0082*
X02328Y0082*
X02328Y0082*
X02328Y0082*
X02328Y0082*
X02328Y0082*
X02328Y0082*
X02327Y0082*
X02327Y0082*
X02327Y0082*
X02327Y0082*
X02327Y00821*
X02327Y00821*
X02327Y00821*
X02327Y00821*
X02327Y00821*
X02327Y00821*
X02327Y00821*
Y00821*
X02327Y00821*
Y00821*
X02327Y00821*
Y00822*
Y00822*
Y00828*
Y00828*
Y00828*
X02327Y00828*
Y00828*
X02327Y00828*
Y00828*
X02327Y00828*
X02327Y00828*
X02327Y00828*
X02327Y00829*
X02327Y00829*
X02327Y00829*
X02327Y00829*
X02327Y00829*
X02327Y00829*
X02327Y00829*
X02328Y00829*
X02328Y00829*
X02328Y00829*
X02328Y00829*
X02328Y00829*
X02328Y00829*
X02328Y00829*
X02328Y00829*
X02328*
X02328Y0083*
X02328*
X02329Y0083*
X02349*
X02349Y0083*
G37*
G36*
X02341Y0081D02*
X02341D01*
X02341Y0081*
X02341*
X02341Y0081*
X02341Y0081*
X02341Y0081*
X02342Y0081*
X02342Y0081*
X02342Y00809*
X02342Y00809*
X02342Y00809*
X02342Y00809*
X02342Y00809*
X02342Y00809*
X02342Y00809*
X02342Y00809*
X02342Y00809*
X02342Y00809*
X02342Y00809*
X02342Y00809*
X02342Y00808*
Y00808*
X02342Y00808*
Y00808*
X02343Y00808*
Y00808*
Y00808*
Y00802*
Y00802*
Y00802*
X02342Y00802*
Y00802*
X02342Y00801*
Y00801*
X02342Y00801*
X02342Y00801*
X02342Y00801*
X02342Y00801*
X02342Y00801*
X02342Y00801*
X02342Y00801*
X02342Y00801*
X02342Y00801*
X02342Y00801*
X02342Y008*
X02342Y008*
X02342Y008*
X02342Y008*
X02341Y008*
X02341Y008*
X02341Y008*
X02341Y008*
X02341*
X02341Y008*
X02341*
X02341Y008*
X02321*
X02321Y008*
X0232*
X0232Y008*
X0232*
X0232Y008*
X0232Y008*
X0232Y008*
X0232Y008*
X0232Y008*
X0232Y008*
X0232Y008*
X0232Y00801*
X0232Y00801*
X02319Y00801*
X02319Y00801*
X02319Y00801*
X02319Y00801*
X02319Y00801*
X02319Y00801*
X02319Y00801*
X02319Y00801*
X02319Y00801*
Y00801*
X02319Y00802*
Y00802*
X02319Y00802*
Y00802*
Y00802*
Y00808*
Y00808*
Y00808*
X02319Y00808*
Y00808*
X02319Y00808*
Y00808*
X02319Y00809*
X02319Y00809*
X02319Y00809*
X02319Y00809*
X02319Y00809*
X02319Y00809*
X02319Y00809*
X02319Y00809*
X0232Y00809*
X0232Y00809*
X0232Y00809*
X0232Y00809*
X0232Y0081*
X0232Y0081*
X0232Y0081*
X0232Y0081*
X0232Y0081*
X0232Y0081*
X0232*
X0232Y0081*
X02321*
X02321Y0081*
X02341*
X02341Y0081*
G37*
G36*
X02309D02*
X02309D01*
X0231Y0081*
X0231*
X0231Y0081*
X0231Y0081*
X0231Y0081*
X0231Y0081*
X0231Y0081*
X0231Y00809*
X0231Y00809*
X0231Y00809*
X0231Y00809*
X02311Y00809*
X02311Y00809*
X02311Y00809*
X02311Y00809*
X02311Y00809*
X02311Y00809*
X02311Y00809*
X02311Y00809*
X02311Y00808*
Y00808*
X02311Y00808*
Y00808*
X02311Y00808*
Y00808*
Y00808*
Y00802*
Y00802*
Y00802*
X02311Y00802*
Y00802*
X02311Y00801*
Y00801*
X02311Y00801*
X02311Y00801*
X02311Y00801*
X02311Y00801*
X02311Y00801*
X02311Y00801*
X02311Y00801*
X02311Y00801*
X0231Y00801*
X0231Y00801*
X0231Y008*
X0231Y008*
X0231Y008*
X0231Y008*
X0231Y008*
X0231Y008*
X0231Y008*
X0231Y008*
X0231*
X02309Y008*
X02309*
X02309Y008*
X02289*
X02289Y008*
X02289*
X02289Y008*
X02289*
X02289Y008*
X02289Y008*
X02288Y008*
X02288Y008*
X02288Y008*
X02288Y008*
X02288Y008*
X02288Y00801*
X02288Y00801*
X02288Y00801*
X02288Y00801*
X02288Y00801*
X02288Y00801*
X02288Y00801*
X02288Y00801*
X02288Y00801*
X02288Y00801*
X02287Y00801*
Y00801*
X02287Y00802*
Y00802*
X02287Y00802*
Y00802*
Y00802*
Y00808*
Y00808*
Y00808*
X02287Y00808*
Y00808*
X02287Y00808*
Y00808*
X02288Y00809*
X02288Y00809*
X02288Y00809*
X02288Y00809*
X02288Y00809*
X02288Y00809*
X02288Y00809*
X02288Y00809*
X02288Y00809*
X02288Y00809*
X02288Y00809*
X02288Y00809*
X02288Y0081*
X02288Y0081*
X02288Y0081*
X02289Y0081*
X02289Y0081*
X02289Y0081*
X02289*
X02289Y0081*
X02289*
X02289Y0081*
X02309*
X02309Y0081*
G37*
G36*
X02367Y00781D02*
X02368D01*
X02368Y00781*
X02368*
X02368Y00781*
X02368Y00781*
X02368Y00781*
X02368Y00781*
X02368Y00781*
X02368Y00781*
X02368Y00781*
X02368Y00781*
X02369Y00781*
X02369Y00781*
X02369Y00781*
X02369Y0078*
X02369Y0078*
X02369Y0078*
X02369Y0078*
X02369Y0078*
X02369Y0078*
X02369Y0078*
Y0078*
X02369Y0078*
Y0078*
X02369Y0078*
Y00779*
Y00779*
Y0076*
Y0076*
Y00759*
X02369Y00759*
Y00759*
X02369Y00759*
Y00759*
X02369Y00759*
X02369Y00759*
X02369Y00759*
X02369Y00759*
X02369Y00759*
X02369Y00759*
X02369Y00758*
X02369Y00758*
X02369Y00758*
X02368Y00758*
X02368Y00758*
X02368Y00758*
X02368Y00758*
X02368Y00758*
X02368Y00758*
X02368Y00758*
X02368Y00758*
X02368Y00758*
X02368*
X02368Y00758*
X02367*
X02367Y00758*
X02361*
X02361Y00758*
X02361*
X02361Y00758*
X02361*
X02361Y00758*
X0236Y00758*
X0236Y00758*
X0236Y00758*
X0236Y00758*
X0236Y00758*
X0236Y00758*
X0236Y00758*
X0236Y00758*
X0236Y00758*
X0236Y00758*
X0236Y00759*
X0236Y00759*
X0236Y00759*
X02359Y00759*
X02359Y00759*
X02359Y00759*
X02359Y00759*
Y00759*
X02359Y00759*
Y00759*
X02359Y00759*
Y0076*
Y0076*
Y00779*
Y00779*
Y0078*
X02359Y0078*
Y0078*
X02359Y0078*
Y0078*
X02359Y0078*
X02359Y0078*
X02359Y0078*
X0236Y0078*
X0236Y0078*
X0236Y0078*
X0236Y00781*
X0236Y00781*
X0236Y00781*
X0236Y00781*
X0236Y00781*
X0236Y00781*
X0236Y00781*
X0236Y00781*
X0236Y00781*
X0236Y00781*
X02361Y00781*
X02361Y00781*
X02361*
X02361Y00781*
X02361*
X02361Y00781*
X02367*
X02367Y00781*
G37*
G36*
X02348D02*
X02348D01*
X02348Y00781*
X02348*
X02348Y00781*
X02348Y00781*
X02348Y00781*
X02348Y00781*
X02349Y00781*
X02349Y00781*
X02349Y00781*
X02349Y00781*
X02349Y00781*
X02349Y00781*
X02349Y00781*
X02349Y0078*
X02349Y0078*
X02349Y0078*
X02349Y0078*
X02349Y0078*
X02349Y0078*
X02349Y0078*
Y0078*
X02349Y0078*
Y0078*
X02349Y0078*
Y00779*
Y00779*
Y0076*
Y0076*
Y00759*
X02349Y00759*
Y00759*
X02349Y00759*
Y00759*
X02349Y00759*
X02349Y00759*
X02349Y00759*
X02349Y00759*
X02349Y00759*
X02349Y00759*
X02349Y00758*
X02349Y00758*
X02349Y00758*
X02349Y00758*
X02349Y00758*
X02349Y00758*
X02349Y00758*
X02348Y00758*
X02348Y00758*
X02348Y00758*
X02348Y00758*
X02348Y00758*
X02348*
X02348Y00758*
X02348*
X02348Y00758*
X02341*
X02341Y00758*
X02341*
X02341Y00758*
X02341*
X02341Y00758*
X02341Y00758*
X02341Y00758*
X02341Y00758*
X0234Y00758*
X0234Y00758*
X0234Y00758*
X0234Y00758*
X0234Y00758*
X0234Y00758*
X0234Y00758*
X0234Y00759*
X0234Y00759*
X0234Y00759*
X0234Y00759*
X0234Y00759*
X0234Y00759*
X0234Y00759*
Y00759*
X0234Y00759*
Y00759*
X0234Y00759*
Y0076*
Y0076*
Y00779*
Y00779*
Y0078*
X0234Y0078*
Y0078*
X0234Y0078*
Y0078*
X0234Y0078*
X0234Y0078*
X0234Y0078*
X0234Y0078*
X0234Y0078*
X0234Y0078*
X0234Y00781*
X0234Y00781*
X0234Y00781*
X0234Y00781*
X0234Y00781*
X0234Y00781*
X0234Y00781*
X02341Y00781*
X02341Y00781*
X02341Y00781*
X02341Y00781*
X02341Y00781*
X02341*
X02341Y00781*
X02341*
X02341Y00781*
X02348*
X02348Y00781*
G37*
G36*
X02328D02*
X02328D01*
X02328Y00781*
X02328*
X02328Y00781*
X02329Y00781*
X02329Y00781*
X02329Y00781*
X02329Y00781*
X02329Y00781*
X02329Y00781*
X02329Y00781*
X02329Y00781*
X02329Y00781*
X02329Y00781*
X02329Y0078*
X02329Y0078*
X02329Y0078*
X0233Y0078*
X0233Y0078*
X0233Y0078*
X0233Y0078*
Y0078*
X0233Y0078*
Y0078*
X0233Y0078*
Y00779*
Y00779*
Y0076*
Y0076*
Y00759*
X0233Y00759*
Y00759*
X0233Y00759*
Y00759*
X0233Y00759*
X0233Y00759*
X0233Y00759*
X02329Y00759*
X02329Y00759*
X02329Y00759*
X02329Y00758*
X02329Y00758*
X02329Y00758*
X02329Y00758*
X02329Y00758*
X02329Y00758*
X02329Y00758*
X02329Y00758*
X02329Y00758*
X02329Y00758*
X02328Y00758*
X02328Y00758*
X02328*
X02328Y00758*
X02328*
X02328Y00758*
X02322*
X02322Y00758*
X02321*
X02321Y00758*
X02321*
X02321Y00758*
X02321Y00758*
X02321Y00758*
X02321Y00758*
X02321Y00758*
X02321Y00758*
X02321Y00758*
X02321Y00758*
X0232Y00758*
X0232Y00758*
X0232Y00758*
X0232Y00759*
X0232Y00759*
X0232Y00759*
X0232Y00759*
X0232Y00759*
X0232Y00759*
X0232Y00759*
Y00759*
X0232Y00759*
Y00759*
X0232Y00759*
Y0076*
Y0076*
Y00779*
Y00779*
Y0078*
X0232Y0078*
Y0078*
X0232Y0078*
Y0078*
X0232Y0078*
X0232Y0078*
X0232Y0078*
X0232Y0078*
X0232Y0078*
X0232Y0078*
X0232Y00781*
X0232Y00781*
X0232Y00781*
X02321Y00781*
X02321Y00781*
X02321Y00781*
X02321Y00781*
X02321Y00781*
X02321Y00781*
X02321Y00781*
X02321Y00781*
X02321Y00781*
X02321*
X02321Y00781*
X02322*
X02322Y00781*
X02328*
X02328Y00781*
G37*
G36*
X02308D02*
X02308D01*
X02309Y00781*
X02309*
X02309Y00781*
X02309Y00781*
X02309Y00781*
X02309Y00781*
X02309Y00781*
X02309Y00781*
X02309Y00781*
X02309Y00781*
X02309Y00781*
X0231Y00781*
X0231Y00781*
X0231Y0078*
X0231Y0078*
X0231Y0078*
X0231Y0078*
X0231Y0078*
X0231Y0078*
X0231Y0078*
Y0078*
X0231Y0078*
Y0078*
X0231Y0078*
Y00779*
Y00779*
Y0076*
Y0076*
Y00759*
X0231Y00759*
Y00759*
X0231Y00759*
Y00759*
X0231Y00759*
X0231Y00759*
X0231Y00759*
X0231Y00759*
X0231Y00759*
X0231Y00759*
X0231Y00758*
X0231Y00758*
X02309Y00758*
X02309Y00758*
X02309Y00758*
X02309Y00758*
X02309Y00758*
X02309Y00758*
X02309Y00758*
X02309Y00758*
X02309Y00758*
X02309Y00758*
X02309*
X02308Y00758*
X02308*
X02308Y00758*
X02302*
X02302Y00758*
X02302*
X02302Y00758*
X02302*
X02301Y00758*
X02301Y00758*
X02301Y00758*
X02301Y00758*
X02301Y00758*
X02301Y00758*
X02301Y00758*
X02301Y00758*
X02301Y00758*
X02301Y00758*
X02301Y00758*
X02301Y00759*
X02301Y00759*
X023Y00759*
X023Y00759*
X023Y00759*
X023Y00759*
X023Y00759*
Y00759*
X023Y00759*
Y00759*
X023Y00759*
Y0076*
Y0076*
Y00779*
Y00779*
Y0078*
X023Y0078*
Y0078*
X023Y0078*
Y0078*
X023Y0078*
X023Y0078*
X023Y0078*
X023Y0078*
X02301Y0078*
X02301Y0078*
X02301Y00781*
X02301Y00781*
X02301Y00781*
X02301Y00781*
X02301Y00781*
X02301Y00781*
X02301Y00781*
X02301Y00781*
X02301Y00781*
X02301Y00781*
X02301Y00781*
X02302Y00781*
X02302*
X02302Y00781*
X02302*
X02302Y00781*
X02308*
X02308Y00781*
G37*
G36*
X04591Y00596D02*
X04592Y00595D01*
X04592Y00594*
Y00594*
Y00525*
Y00525*
X04592Y00524*
X04591Y00523*
X0459Y00523*
X04509*
X04508Y00523*
X04507Y00524*
X04507Y00525*
Y00525*
Y00594*
Y00594*
X04507Y00595*
X04508Y00596*
X04509Y00596*
X0459*
X04591Y00596*
G37*
G36*
X0272Y00487D02*
X02715D01*
X02709Y00493*
Y00502*
X0272*
Y00487*
G37*
G36*
X02694Y00493D02*
X02688Y00487D01*
X02684*
Y00502*
X02694*
Y00493*
G37*
G36*
X0272Y00455D02*
X02709D01*
Y00464*
X02715Y0047*
X0272*
Y00455*
G37*
G36*
X02694Y00464D02*
Y00455D01*
X02684*
Y0047*
X02688*
X02694Y00464*
G37*
G36*
X03135Y00316D02*
X03131D01*
X03125Y00322*
Y00332*
X03135*
Y00316*
G37*
G36*
X0311Y00322D02*
X03104Y00316D01*
X03099*
Y00332*
X0311*
Y00322*
G37*
G36*
X03135Y00284D02*
X03125D01*
Y00294*
X03131Y003*
X03135*
Y00284*
G37*
G36*
X0311Y00294D02*
Y00284D01*
X03099*
Y003*
X03104*
X0311Y00294*
G37*
G54D18*
X01304Y0065D03*
X01335D03*
X01749Y0095D03*
X0178D03*
X01909Y0017D03*
X0194D03*
X0311Y00185D03*
X0314D03*
X03254Y00195D03*
X03285D03*
X02729Y00165D03*
X0276D03*
G54D19*
X00968Y00292D03*
Y00311D03*
Y00331D03*
Y00351D03*
X01082D03*
Y00331D03*
Y00311D03*
Y00292D03*
X00682Y00712D03*
Y00731D03*
Y00751D03*
Y00771D03*
X00796D03*
Y00751D03*
Y00731D03*
Y00712D03*
X02837Y00348D03*
Y00368D03*
Y00388D03*
Y00407D03*
X02952D03*
Y00388D03*
Y00368D03*
Y00348D03*
X03622Y00522D03*
Y00541D03*
Y00561D03*
Y00581D03*
X03736D03*
Y00561D03*
Y00541D03*
Y00522D03*
G54D20*
X01005Y00359D03*
X0072Y00779D03*
X02875Y00415D03*
X0366Y00589D03*
G54D21*
X01025Y00343D03*
X01045Y003D03*
X01005D03*
X00739Y00763D03*
X00759Y0072D03*
X0072D03*
X02895Y004D03*
X02914Y00356D03*
X02875D03*
X03679Y00573D03*
X03699Y0053D03*
X0366D03*
G54D22*
X0353Y00327D03*
Y00302D03*
X04705Y00772D03*
Y00747D03*
G54D23*
X0244Y00297D03*
Y00272D03*
X02405Y0105D03*
Y01024D03*
X0098Y00797D03*
Y00772D03*
X0544Y01334D03*
Y0136D03*
X0472Y00469D03*
Y00495D03*
X034Y01269D03*
Y01295D03*
X03615Y01429D03*
Y01455D03*
X04065Y00835D03*
Y00809D03*
X05495Y01237D03*
Y01212D03*
X0475Y00687D03*
Y00662D03*
X0061Y0025D03*
Y00225D03*
X04395Y00337D03*
Y00312D03*
G54D24*
X02525Y0038D03*
Y00359D03*
X0468Y00595D03*
Y00574D03*
X05565Y01005D03*
Y00984D03*
X04755Y00325D03*
Y00304D03*
X0296Y00195D03*
Y00174D03*
X03595Y01285D03*
Y01264D03*
X02105Y00765D03*
Y00744D03*
X0344Y0036D03*
Y00339D03*
X0076Y0024D03*
Y0022D03*
G54D25*
X015Y00346D03*
X0155D03*
X016D03*
X0165D03*
X015Y00605D03*
X0155D03*
X016D03*
X0165D03*
X0368Y01095D03*
X0373D03*
X0378D03*
X0383D03*
X0368Y01354D03*
X0373D03*
X0378D03*
X0383D03*
X0263Y0106D03*
X0268D03*
X0273D03*
X0278D03*
X0263Y01319D03*
X0268D03*
X0273D03*
X0278D03*
X0153Y01045D03*
X0158D03*
X0163D03*
X0168D03*
X0153Y01304D03*
X0158D03*
X0163D03*
X0168D03*
G54D26*
X01575Y00475D03*
X03755Y01225D03*
X02705Y0119D03*
X01605Y01175D03*
G54D27*
X01852Y0053D03*
X01787D03*
X01267Y0081D03*
X01202D03*
X01372Y0096D03*
X01307D03*
X01775Y0019D03*
X0171D03*
X00444Y00465D03*
X0038D03*
X05397Y00285D03*
X05332D03*
X03947Y0137D03*
X04012D03*
X04167Y0077D03*
X04232D03*
G54D28*
X0332Y0109D03*
X0309D03*
X0538Y011D03*
X0515D03*
X04325Y00565D03*
X04095D03*
X01155Y0058D03*
X00925D03*
X02255Y0055D03*
X02025D03*
X0226Y011D03*
X0203D03*
X05385Y00565D03*
X05155D03*
X04335Y0109D03*
X04105D03*
X01165Y011D03*
X00935D03*
X0333Y00565D03*
X031D03*
G54D29*
X01085Y0081D03*
Y00779D03*
X0086Y0086D03*
Y00829D03*
X029Y00925D03*
Y00895D03*
X0469Y0036D03*
Y00329D03*
X0483Y0065D03*
Y00619D03*
X0559Y00545D03*
Y00514D03*
X0138Y0038D03*
Y00349D03*
X0207Y0031D03*
Y00279D03*
X04825Y01305D03*
Y01275D03*
X0394Y01185D03*
Y01154D03*
X03965Y0051D03*
Y00479D03*
X01215Y01305D03*
Y01274D03*
X0129Y01125D03*
Y01094D03*
X026Y00325D03*
Y00294D03*
G54D30*
X00805Y01142D03*
Y01197D03*
X00685Y0118D03*
Y01235D03*
X03375Y00764D03*
Y0082D03*
X02965Y00492D03*
Y00547D03*
X02815Y00735D03*
Y0079D03*
G54D31*
X0141Y01105D03*
X02702Y00479D03*
X03117Y00308D03*
G54D32*
X01397Y0112D03*
X01422D03*
X02689Y00495D03*
X02715D03*
X03105Y00324D03*
X0313D03*
G54D33*
X01422Y01086D03*
X01397D03*
X02715Y0046D03*
X02689D03*
X0313Y0029D03*
X03105D03*
G54D34*
X00498Y00862D03*
Y00811D03*
X00571D03*
X00498Y00837D03*
X00571D03*
Y00862D03*
X02308Y00325D03*
Y00274D03*
X02381D03*
X02308Y003D03*
X02381D03*
Y00325D03*
G54D35*
X00535Y00811D03*
X02345Y00274D03*
G54D36*
X00535Y0085D03*
X02345Y00312D03*
G54D37*
X03824Y00875D03*
X0388D03*
G54D38*
X0292Y00722D03*
Y00695D03*
X04425Y0056D03*
Y00532D03*
X04805Y01405D03*
Y01377D03*
X0432Y01353D03*
Y01326D03*
X0168Y01413D03*
Y01386D03*
X0458Y0112D03*
Y01092D03*
X01315Y00508D03*
Y00481D03*
X01795Y01358D03*
Y01331D03*
X0189Y0065D03*
Y00622D03*
X02555Y01438D03*
Y01411D03*
X02605Y00643D03*
Y00616D03*
G54D39*
X0353Y00775D03*
Y00714D03*
X00995Y0135D03*
Y01289D03*
X00465Y01105D03*
Y01044D03*
X027Y0068D03*
Y00618D03*
X01775Y00391D03*
Y0033D03*
G54D40*
X0386Y00611D03*
Y00558D03*
X04895Y01206D03*
Y01153D03*
X0058Y0123D03*
Y01176D03*
X0036Y00931D03*
Y00878D03*
X0319Y01403D03*
Y0135D03*
X0508Y00846D03*
Y00793D03*
X00445Y00296D03*
Y00243D03*
X01405Y01228D03*
Y01281D03*
G54D41*
X0321Y0079D03*
X03149D03*
X03555Y01405D03*
X03494D03*
X03096Y0137D03*
X03035D03*
X03325Y0032D03*
X03264D03*
X03009Y00825D03*
X0307D03*
X0274Y0087D03*
X02679D03*
X0251Y0073D03*
X02449D03*
G54D42*
X0259Y0081D03*
Y00768D03*
X03985Y00335D03*
Y00293D03*
X0466Y0142D03*
Y01379D03*
X04675Y01245D03*
Y01204D03*
X0467Y00945D03*
Y00904D03*
X0449Y0127D03*
Y01229D03*
X02405Y00485D03*
Y00444D03*
X01545Y0075D03*
Y00709D03*
X0202Y00875D03*
Y00834D03*
G54D43*
X0256Y00942D03*
Y00917D03*
X05485Y00945D03*
Y0092D03*
X04485Y00297D03*
Y00272D03*
X04615Y00302D03*
Y00277D03*
X035Y0055D03*
Y00524D03*
X0299Y0098D03*
Y00954D03*
G54D44*
X0386Y00365D03*
Y00305D03*
X0162Y00874D03*
Y00815D03*
X01415Y00799D03*
Y0074D03*
G54D45*
X03995Y01039D03*
Y0107D03*
X0476Y00844D03*
Y00875D03*
X0122Y00304D03*
Y00335D03*
G54D46*
X0342Y00565D03*
Y00586D03*
X04805Y00444D03*
Y00465D03*
X0486Y00795D03*
Y00773D03*
X01115Y01298D03*
Y0132D03*
X0218Y00859D03*
Y0088D03*
G54D47*
X02708Y00275D03*
X02781D03*
G54D48*
X05015Y0115D03*
Y01179D03*
X0512Y01345D03*
Y01374D03*
X05535Y0082D03*
Y00849D03*
X05365Y0134D03*
Y0137D03*
X02Y01355D03*
Y01384D03*
X01585Y0139D03*
Y01419D03*
X02775Y0141D03*
Y01439D03*
X02285Y0131D03*
Y01339D03*
G54D49*
X05025Y0136D03*
Y01336D03*
X013Y0127D03*
Y01246D03*
X02205Y01333D03*
Y0131D03*
G54D50*
X04925Y01373D03*
Y01405D03*
X0035Y00269D03*
Y003D03*
X0561Y00679D03*
Y0071D03*
X0548Y01049D03*
Y0108D03*
G54D51*
X0493Y00558D03*
Y00501D03*
X0491Y00352D03*
Y00295D03*
X0048Y01283D03*
Y01226D03*
X00365Y01188D03*
Y01131D03*
X0444Y0146D03*
Y01402D03*
X05515Y0067D03*
Y00612D03*
X05505Y00428D03*
Y00371D03*
X00765Y00978D03*
Y00921D03*
X00575Y01048D03*
Y00991D03*
G54D52*
X05206Y0081D03*
X05263D03*
X05203Y00295D03*
X05146D03*
X04477Y00965D03*
X04535D03*
X03696Y00305D03*
X03753D03*
X04367Y00785D03*
X04425D03*
X0418Y00285D03*
X04122D03*
X03535Y0118D03*
X03477D03*
G54D53*
X00455Y00672D03*
Y00637D03*
X0035Y00702D03*
Y00667D03*
X0189Y01357D03*
Y01322D03*
X05045Y00375D03*
Y00339D03*
X05015Y00522D03*
Y00487D03*
X0502Y00677D03*
Y00642D03*
X04755Y01142D03*
Y01107D03*
X0221Y00765D03*
Y00729D03*
G54D54*
X04639Y00775D03*
X0458D03*
X02444Y01355D03*
X02385D03*
X01754Y0072D03*
X01695D03*
G54D55*
X04315Y00336D03*
Y00263D03*
X0293Y01167D03*
Y01095D03*
X03285Y01392D03*
Y0132D03*
G54D56*
X02524Y0016D03*
X02495D03*
X0226Y00165D03*
X02289D03*
X02904Y01465D03*
X02875D03*
X03424Y0021D03*
X03395D03*
G54D57*
X02076Y0018D03*
X02053D03*
G54D58*
X0292Y01352D03*
Y01317D03*
G54D59*
X0183Y0115D03*
G54D60*
X01822Y01188D03*
X01837D03*
Y01111D03*
X01822D03*
G54D61*
X01868Y01173D03*
Y01157D03*
Y01142D03*
Y01126D03*
X01791D03*
Y01142D03*
Y01157D03*
Y01173D03*
G54D62*
X02733Y01475D03*
X02706D03*
X01788Y00825D03*
X01761D03*
G54D63*
X0211Y01354D03*
Y01295D03*
G54D64*
X05266Y0134D03*
X05213D03*
X01908Y00315D03*
X01961D03*
X03671Y0095D03*
X03618D03*
X0255Y00535D03*
X02496D03*
X02441Y01185D03*
X02388D03*
X01961Y008D03*
X01908D03*
X03915Y00975D03*
X03968D03*
G54D65*
X05374Y008D03*
X05425D03*
X02505Y00875D03*
X02454D03*
G54D66*
X04511Y00646D03*
X04537D03*
X04562D03*
X04588D03*
Y00473D03*
X04562D03*
X04537D03*
X04511D03*
G54D67*
X0496Y00805D03*
Y00734D03*
X04885Y01015D03*
Y00945D03*
X04995Y0101D03*
Y00939D03*
G54D68*
X00575Y00472D03*
Y00407D03*
X00745Y00497D03*
Y00432D03*
X0372Y00817D03*
Y00752D03*
X0351Y01022D03*
Y00957D03*
G54D69*
X01895Y0091D03*
X01864D03*
G54D70*
X0152Y00865D03*
X01489D03*
X04195Y01335D03*
X04164D03*
G54D71*
X00591Y00655D03*
X0055D03*
G54D72*
X0283Y0057D03*
X02855D03*
X02107Y0088D03*
X02132D03*
X0155Y002D03*
X01525D03*
X0143Y0053D03*
X01405D03*
G54D73*
X0241Y0061D03*
X02389D03*
G54D74*
X025Y01005D03*
X02479D03*
X01925Y01015D03*
X01903D03*
X01419Y0022D03*
X0144D03*
G54D75*
X03989Y0076D03*
X0393D03*
G54D76*
X01122Y0017D03*
X01147D03*
G54D77*
X0091Y00175D03*
X00935D03*
G54D78*
X0012Y00479D03*
Y00499D03*
Y00518D03*
Y00538D03*
Y00558D03*
Y00577D03*
Y00597D03*
Y00617D03*
Y00637D03*
Y00656D03*
Y00676D03*
Y00696D03*
Y00715D03*
Y00735D03*
Y00755D03*
Y00774D03*
Y00794D03*
Y00814D03*
Y00833D03*
Y00853D03*
Y00873D03*
Y00892D03*
Y00912D03*
Y00932D03*
Y00952D03*
Y00971D03*
Y00991D03*
Y01011D03*
Y0103D03*
Y0105D03*
G54D79*
X00021Y0044D03*
Y01089D03*
G54D80*
X01302Y00203D03*
X01353D03*
Y00276D03*
X01327Y00203D03*
Y00276D03*
X01302D03*
G54D81*
X01353Y0024D03*
G54D82*
X01315Y0024D03*
M02*