G04*
G04 #@! TF.GenerationSoftware,Altium Limited,Altium Designer,26.7.1 (11)*
G04*
G04 Layer_Color=65535*
G04 Board_Origin=10250000|11200000*
%FSLAX44Y44*%
%MOMM*%
G71*
G04*
G04 #@! TF.SameCoordinates,FFEA9334-926C-40BC-8964-0171260B8DE7*
G04*
G04*
G04 #@! TF.FilePolarity,Positive*
G04*
G01*
G75*
%ADD10C,0.1000*%
%ADD11C,0.2500*%
%ADD12C,0.2000*%
%ADD13C,0.1524*%
%ADD14C,0.1270*%
%ADD15C,0.1500*%
%ADD16C,0.0762*%
%ADD17C,0.2540*%
D10*
X373550Y77370D02*
G03*
X373550Y77370I-500J0D01*
G01*
X927270Y267650D02*
G03*
X927270Y267650I-500J0D01*
G01*
X660570Y258760D02*
G03*
X660570Y258760I-500J0D01*
G01*
X381170Y254950D02*
G03*
X381170Y254950I-500J0D01*
G01*
X43050Y121810D02*
G03*
X44050Y121810I500J0D01*
G01*
D02*
G03*
X43050Y121810I-500J0D01*
G01*
D11*
X356140Y269120D02*
G03*
X356140Y269120I-1250J0D01*
G01*
X684360Y110130D02*
G03*
X684360Y110130I-1250J0D01*
G01*
X1147200Y107240D02*
G03*
X1147200Y107240I-1250J0D01*
G01*
X789920Y66810D02*
G03*
X789920Y66810I-1250J0D01*
G01*
D12*
X119390Y219150D02*
G03*
X119390Y219150I-1000J0D01*
G01*
X446170Y298100D02*
G03*
X446170Y298100I-1000J0D01*
G01*
X575940Y214580D02*
G03*
X575940Y214580I-1000J0D01*
G01*
X579130Y82700D02*
G03*
X579130Y82700I-1000J0D01*
G01*
X331760Y43460D02*
G03*
X331760Y43460I-1000J0D01*
G01*
X901920Y76860D02*
Y83160D01*
X891320Y76860D02*
Y83160D01*
X635700Y89663D02*
Y98290D01*
X647000Y89663D02*
Y98290D01*
X373050Y81370D02*
X374750D01*
X425350D02*
X427050D01*
X373050Y160370D02*
X374750D01*
X425350D02*
X427050D01*
X373050Y81370D02*
Y160370D01*
X427050Y81370D02*
Y160370D01*
X447749Y144151D02*
X476811D01*
X447749Y125089D02*
X476811D01*
X780450Y297755D02*
Y310480D01*
Y243240D02*
Y255965D01*
Y243240D02*
X847690D01*
Y297755D02*
Y310480D01*
Y243240D02*
Y255965D01*
X780450Y310480D02*
X847690D01*
X299159Y215271D02*
X328221D01*
X299159Y196209D02*
X328221D01*
X325829Y253371D02*
X354891D01*
X325829Y234309D02*
X354891D01*
X201470Y297180D02*
X207470D01*
X367140Y275420D02*
Y285920D01*
X349140Y275420D02*
Y285920D01*
X170990Y306720D02*
X176990D01*
X1183070Y144277D02*
Y152904D01*
X1194370Y144277D02*
Y152904D01*
X978520Y219250D02*
Y225250D01*
X695360Y116430D02*
Y126930D01*
X677360Y116430D02*
Y126930D01*
X854250Y201280D02*
X860250D01*
X735367Y173759D02*
Y186387D01*
X747994Y173759D02*
Y186387D01*
X904970Y180400D02*
Y197900D01*
X888120Y180480D02*
Y197980D01*
X798890Y192310D02*
X816390D01*
X798970Y209160D02*
X816470D01*
X664860Y195240D02*
Y205740D01*
X650860Y195240D02*
Y205740D01*
X655990Y233070D02*
Y239370D01*
X644490Y233070D02*
Y239370D01*
X988940Y76710D02*
Y93710D01*
X971940Y76710D02*
Y93710D01*
X1019190Y74590D02*
Y85090D01*
X1005190Y74590D02*
Y85090D01*
X1117637Y132383D02*
Y145011D01*
X1130264Y132383D02*
Y145011D01*
X1407860Y248417D02*
Y257044D01*
X1419160Y248417D02*
Y257044D01*
X1399440Y233780D02*
Y240080D01*
X1386940Y233780D02*
Y240080D01*
X694761Y64319D02*
X699699D01*
X694761Y75381D02*
X699699D01*
X1303690Y300295D02*
Y313020D01*
Y245780D02*
Y258505D01*
Y245780D02*
X1370930D01*
Y300295D02*
Y313020D01*
Y245780D02*
Y258505D01*
X1303690Y313020D02*
X1370930D01*
X1214157Y347013D02*
Y359641D01*
X1226784Y347013D02*
Y359641D01*
X1243189Y122089D02*
Y147151D01*
X1261251Y122089D02*
Y147151D01*
X1238109Y69654D02*
Y94716D01*
X1256171Y69654D02*
Y94716D01*
X1317159Y196709D02*
X1342221D01*
X1317159Y214771D02*
X1342221D01*
X261080Y326450D02*
Y343950D01*
X244230Y326530D02*
Y344030D01*
X126460Y264220D02*
Y281720D01*
X109610Y264300D02*
Y281800D01*
X1190640Y350350D02*
Y360850D01*
X1176640Y350350D02*
Y360850D01*
X1194450Y305900D02*
Y316400D01*
X1180450Y305900D02*
Y316400D01*
X1193180Y229700D02*
Y240200D01*
X1179180Y229700D02*
Y240200D01*
X1144940Y69240D02*
Y75540D01*
X1133440Y69240D02*
Y75540D01*
X1162440Y188350D02*
X1179440D01*
X1162440Y205350D02*
X1179440D01*
X1147460Y312250D02*
Y322750D01*
X1133460Y312250D02*
Y322750D01*
X1090967Y334047D02*
Y346674D01*
X1103594Y334047D02*
Y346674D01*
X1202120Y75693D02*
Y84320D01*
X1213420Y75693D02*
Y84320D01*
X1178460Y70510D02*
Y76810D01*
X1165960Y70510D02*
Y76810D01*
X1090479Y73731D02*
Y78669D01*
X1101541Y73731D02*
Y78669D01*
X1035720Y164405D02*
Y177130D01*
Y109890D02*
Y122615D01*
Y109890D02*
X1102960D01*
Y164405D02*
Y177130D01*
Y109890D02*
Y122615D01*
X1035720Y177130D02*
X1102960D01*
X420407Y349287D02*
Y361914D01*
X433034Y349287D02*
Y361914D01*
X112889Y306239D02*
Y331301D01*
X130951Y306239D02*
Y331301D01*
X83679Y282109D02*
Y307171D01*
X101741Y282109D02*
Y307171D01*
X1118729Y351054D02*
Y376116D01*
X1136791Y351054D02*
Y376116D01*
X886520Y348520D02*
X904020D01*
X886600Y365370D02*
X904100D01*
X769810Y339630D02*
X787310D01*
X769890Y356480D02*
X787390D01*
X684567Y380964D02*
X697194D01*
X684567Y368337D02*
X697194D01*
X604790Y335670D02*
X621790D01*
X604790Y352670D02*
X621790D01*
X230540Y168215D02*
Y180940D01*
Y113700D02*
Y126425D01*
Y113700D02*
X297780D01*
Y168215D02*
Y180940D01*
Y113700D02*
Y126425D01*
X230540Y180940D02*
X297780D01*
X1391779Y150394D02*
Y175456D01*
X1409841Y150394D02*
Y175456D01*
X1389239Y89069D02*
Y114131D01*
X1407301Y89069D02*
Y114131D01*
X1301919Y83961D02*
X1326981D01*
X1301919Y65899D02*
X1326981D01*
X1174500Y126740D02*
Y157740D01*
X1136900Y126740D02*
Y157740D01*
X746190Y42677D02*
Y51304D01*
X757490Y42677D02*
Y51304D01*
X926770Y271650D02*
X928470D01*
X979070D02*
X980770D01*
X926770Y350650D02*
X928470D01*
X979070D02*
X980770D01*
X926770Y271650D02*
Y350650D01*
X980770Y271650D02*
Y350650D01*
X428064Y57791D02*
X457126D01*
X428064Y38729D02*
X457126D01*
X509940Y160595D02*
Y173320D01*
Y106080D02*
Y118805D01*
Y106080D02*
X577180D01*
Y160595D02*
Y173320D01*
Y106080D02*
Y118805D01*
X509940Y173320D02*
X577180D01*
X90244Y127641D02*
X119306D01*
X90244Y108579D02*
X119306D01*
X136519Y97229D02*
Y126291D01*
X155581Y97229D02*
Y126291D01*
X1157007Y274623D02*
Y287251D01*
X1169634Y274623D02*
Y287251D01*
X694150Y156140D02*
Y173640D01*
X677300Y156220D02*
Y173720D01*
X828100Y72930D02*
X845600D01*
X828180Y89780D02*
X845680D01*
X617870Y112860D02*
Y123360D01*
X603870Y112860D02*
Y123360D01*
X894750Y133300D02*
Y139600D01*
X883250Y133300D02*
Y139600D01*
X419980Y206130D02*
Y223130D01*
X402980Y206130D02*
Y223130D01*
X399430Y180170D02*
Y190670D01*
X385430Y180170D02*
Y190670D01*
X327697Y119417D02*
Y132044D01*
X340324Y119417D02*
Y132044D01*
X907480Y319537D02*
Y328164D01*
X918780Y319537D02*
Y328164D01*
X765710Y242520D02*
Y248820D01*
X753210Y242520D02*
Y248820D01*
X738689Y284911D02*
Y289849D01*
X749751Y284911D02*
Y289849D01*
X511210Y300295D02*
Y313020D01*
Y245780D02*
Y258505D01*
Y245780D02*
X578450D01*
Y300295D02*
Y313020D01*
Y245780D02*
Y258505D01*
X511210Y313020D02*
X578450D01*
X449617Y335317D02*
Y347944D01*
X462244Y335317D02*
Y347944D01*
X185279Y228769D02*
Y253831D01*
X203341Y228769D02*
Y253831D01*
X137019Y246549D02*
Y271611D01*
X155081Y246549D02*
Y271611D01*
X459200Y82740D02*
Y100240D01*
X442350Y82820D02*
Y100320D01*
X763490Y217900D02*
X780990D01*
X763410Y201050D02*
X780910D01*
X139700Y159370D02*
X150200D01*
X139700Y173370D02*
X150200D01*
X718920Y150530D02*
X725220D01*
X718920Y139030D02*
X725220D01*
X367910Y187080D02*
Y204080D01*
X350910Y187080D02*
Y204080D01*
X520080Y211920D02*
Y222420D01*
X506080Y211920D02*
Y222420D01*
X473747Y155243D02*
Y167871D01*
X486374Y155243D02*
Y167871D01*
X529020Y187457D02*
Y196084D01*
X540320Y187457D02*
Y196084D01*
X535330Y229770D02*
X541630D01*
X535330Y217270D02*
X541630D01*
X828859Y342061D02*
Y346999D01*
X839921Y342061D02*
Y346999D01*
X1304960Y164405D02*
Y177130D01*
Y109890D02*
Y122615D01*
Y109890D02*
X1372200D01*
Y164405D02*
Y177130D01*
Y109890D02*
Y122615D01*
X1304960Y177130D02*
X1372200D01*
X642657Y355637D02*
Y368264D01*
X655284Y355637D02*
Y368264D01*
X1132104Y236079D02*
X1157166D01*
X1132104Y254141D02*
X1157166D01*
X933619Y68439D02*
X958681D01*
X933619Y86501D02*
X958681D01*
X1104164Y190359D02*
X1129226D01*
X1104164Y208421D02*
X1129226D01*
X1200370Y189890D02*
Y196190D01*
X1189770Y189890D02*
Y196190D01*
X868110Y84583D02*
Y93210D01*
X879410Y84583D02*
Y93210D01*
X660070Y262760D02*
X661770D01*
X712370D02*
X714070D01*
X660070Y341760D02*
X661770D01*
X712370D02*
X714070D01*
X660070Y262760D02*
Y341760D01*
X714070Y262760D02*
Y341760D01*
X1348179Y81921D02*
X1377241D01*
X1348179Y62859D02*
X1377241D01*
X1038260Y297755D02*
Y310480D01*
Y243240D02*
Y255965D01*
Y243240D02*
X1105500D01*
Y297755D02*
Y310480D01*
Y243240D02*
Y255965D01*
X1038260Y310480D02*
X1105500D01*
X996389Y338449D02*
X1025451D01*
X996389Y357511D02*
X1025451D01*
X1052269Y186049D02*
X1081331D01*
X1052269Y205111D02*
X1081331D01*
X679510Y212630D02*
X697010D01*
X679590Y229480D02*
X697090D01*
X605287Y160590D02*
X613914D01*
X605287Y149290D02*
X613914D01*
X621090Y177070D02*
X638590D01*
X621170Y193920D02*
X638670D01*
X429650Y174380D02*
X446650D01*
X429650Y191380D02*
X446650D01*
X444537Y215864D02*
X457164D01*
X444537Y203237D02*
X457164D01*
X233080Y300295D02*
Y313020D01*
Y245780D02*
Y258505D01*
Y245780D02*
X300320D01*
Y300295D02*
Y313020D01*
Y245780D02*
Y258505D01*
X233080Y313020D02*
X300320D01*
X1041934Y81421D02*
X1066996D01*
X1041934Y63359D02*
X1066996D01*
X878104Y308751D02*
X903166D01*
X878104Y290689D02*
X903166D01*
X285140Y48480D02*
X291440D01*
X285140Y37880D02*
X291440D01*
X187390Y54110D02*
Y62737D01*
X198690Y54110D02*
Y62737D01*
X380670Y258950D02*
X382370D01*
X432970D02*
X434670D01*
X380670Y337950D02*
X382370D01*
X432970D02*
X434670D01*
X380670Y258950D02*
Y337950D01*
X434670Y258950D02*
Y337950D01*
X179699Y103579D02*
Y132641D01*
X198761Y103579D02*
Y132641D01*
X782990Y164405D02*
Y177130D01*
Y109890D02*
Y122615D01*
Y109890D02*
X850230D01*
Y164405D02*
Y177130D01*
Y109890D02*
Y122615D01*
X782990Y177130D02*
X850230D01*
X935349Y184859D02*
Y213921D01*
X954411Y184859D02*
Y213921D01*
X882009Y236929D02*
Y265991D01*
X901071Y236929D02*
Y265991D01*
X29050Y276310D02*
X38050D01*
Y112310D02*
Y276310D01*
X29050Y112310D02*
X38050D01*
X50Y119310D02*
Y269310D01*
X29050Y272310D02*
Y279310D01*
X14050D02*
X29050D01*
X14050Y109310D02*
X29050D01*
Y116310D01*
X387450Y45050D02*
X393750D01*
X387450Y56550D02*
X393750D01*
X356970Y128910D02*
X363270D01*
X356970Y140370D02*
X363270D01*
X750110Y132080D02*
X756110D01*
X800920Y73110D02*
Y83610D01*
X782920Y73110D02*
Y83610D01*
X712010Y193690D02*
X718010D01*
X655357Y153707D02*
Y166334D01*
X667984Y153707D02*
Y166334D01*
D13*
X265007Y93511D02*
X270125D01*
X192457Y200191D02*
X197575D01*
X739908Y107911D02*
X745025D01*
X939217Y151931D02*
X944335D01*
D14*
X125890Y224285D02*
X145890D01*
X125890Y201015D02*
X145890D01*
X471120Y281800D02*
X474820D01*
X454820D02*
X458520D01*
X471120Y302400D02*
X474820D01*
X454820D02*
X458520D01*
X585630Y87835D02*
X605630D01*
X585630Y64565D02*
X605630D01*
X325625Y50960D02*
Y70960D01*
X348895Y50960D02*
Y70960D01*
D15*
X113570Y166370D02*
X117570D01*
X86900Y173990D02*
X90900D01*
X478060Y340360D02*
X482060D01*
X1254340Y192580D02*
Y198580D01*
X1265340Y192580D02*
Y198580D01*
X1235290Y246030D02*
Y252030D01*
X1246290Y246030D02*
Y252030D01*
X1279430Y90750D02*
X1283430D01*
X1263230Y244650D02*
Y250650D01*
X1274230Y244650D02*
Y250650D01*
X1271810Y128270D02*
X1275810D01*
X1273080Y167640D02*
X1277080D01*
X1205770Y285750D02*
X1209770D01*
X559340Y189810D02*
X563340D01*
D16*
X266780Y59475D02*
X261782D01*
Y61974D01*
X262615Y62807D01*
X264281D01*
X265114Y61974D01*
Y59475D01*
Y61141D02*
X266780Y62807D01*
X261782Y67806D02*
Y64473D01*
X266780D01*
Y67806D01*
X264281Y64473D02*
Y66139D01*
X261782Y72804D02*
Y69472D01*
X264281D01*
Y71138D01*
Y69472D01*
X266780D01*
X261782Y74470D02*
X266780D01*
Y76969D01*
X265947Y77802D01*
X262615D01*
X261782Y76969D01*
Y74470D01*
Y82801D02*
Y79468D01*
X266780D01*
Y82801D01*
X264281Y79468D02*
Y81135D01*
X262615Y87799D02*
X261782Y86966D01*
Y85300D01*
X262615Y84467D01*
X263448D01*
X264281Y85300D01*
Y86966D01*
X265114Y87799D01*
X265947D01*
X266780Y86966D01*
Y85300D01*
X265947Y84467D01*
X266780Y62650D02*
X261782D01*
Y65149D01*
X262615Y65982D01*
X264281D01*
X265114Y65149D01*
Y62650D01*
Y64316D02*
X266780Y65982D01*
Y70148D02*
Y68481D01*
X265947Y67648D01*
X264281D01*
X263448Y68481D01*
Y70148D01*
X264281Y70981D01*
X265114D01*
Y67648D01*
X266780Y73480D02*
X262615D01*
X264281D01*
Y72647D01*
Y74313D01*
Y73480D01*
X262615D01*
X261782Y74313D01*
Y76812D02*
X266780D01*
Y79311D01*
X265947Y80144D01*
X262615D01*
X261782Y79311D01*
Y76812D01*
X266780Y84310D02*
Y82643D01*
X265947Y81810D01*
X264281D01*
X263448Y82643D01*
Y84310D01*
X264281Y85143D01*
X265114D01*
Y81810D01*
X266780Y86809D02*
Y89308D01*
X265947Y90141D01*
X265114Y89308D01*
Y87642D01*
X264281Y86809D01*
X263448Y87642D01*
Y90141D01*
X257615Y63175D02*
X260947Y66507D01*
Y63175D02*
X257615Y66507D01*
X259281Y63175D02*
Y66507D01*
X260947Y64841D02*
X257615D01*
X194230Y166155D02*
X189232D01*
Y168654D01*
X190065Y169487D01*
X191731D01*
X192564Y168654D01*
Y166155D01*
Y167821D02*
X194230Y169487D01*
X189232Y174486D02*
Y171153D01*
X194230D01*
Y174486D01*
X191731Y171153D02*
Y172819D01*
X189232Y179484D02*
Y176152D01*
X191731D01*
Y177818D01*
Y176152D01*
X194230D01*
X189232Y181150D02*
X194230D01*
Y183649D01*
X193397Y184482D01*
X190065D01*
X189232Y183649D01*
Y181150D01*
Y189481D02*
Y186148D01*
X194230D01*
Y189481D01*
X191731Y186148D02*
Y187815D01*
X190065Y194479D02*
X189232Y193646D01*
Y191980D01*
X190065Y191147D01*
X190898D01*
X191731Y191980D01*
Y193646D01*
X192564Y194479D01*
X193397D01*
X194230Y193646D01*
Y191980D01*
X193397Y191147D01*
X194230Y169330D02*
X189232D01*
Y171829D01*
X190065Y172662D01*
X191731D01*
X192564Y171829D01*
Y169330D01*
Y170996D02*
X194230Y172662D01*
Y176828D02*
Y175161D01*
X193397Y174328D01*
X191731D01*
X190898Y175161D01*
Y176828D01*
X191731Y177661D01*
X192564D01*
Y174328D01*
X194230Y180160D02*
X190065D01*
X191731D01*
Y179327D01*
Y180993D01*
Y180160D01*
X190065D01*
X189232Y180993D01*
Y183492D02*
X194230D01*
Y185991D01*
X193397Y186824D01*
X190065D01*
X189232Y185991D01*
Y183492D01*
X194230Y190990D02*
Y189324D01*
X193397Y188490D01*
X191731D01*
X190898Y189324D01*
Y190990D01*
X191731Y191823D01*
X192564D01*
Y188490D01*
X194230Y193489D02*
Y195988D01*
X193397Y196821D01*
X192564Y195988D01*
Y194322D01*
X191731Y193489D01*
X190898Y194322D01*
Y196821D01*
X185065Y169855D02*
X188397Y173187D01*
Y169855D02*
X185065Y173187D01*
X186731Y169855D02*
Y173187D01*
X188397Y171521D02*
X185065D01*
X741680Y73875D02*
X736682D01*
Y76374D01*
X737515Y77207D01*
X739181D01*
X740014Y76374D01*
Y73875D01*
Y75541D02*
X741680Y77207D01*
X736682Y82206D02*
Y78873D01*
X741680D01*
Y82206D01*
X739181Y78873D02*
Y80540D01*
X736682Y87204D02*
Y83872D01*
X739181D01*
Y85538D01*
Y83872D01*
X741680D01*
X736682Y88870D02*
X741680D01*
Y91369D01*
X740847Y92202D01*
X737515D01*
X736682Y91369D01*
Y88870D01*
Y97201D02*
Y93869D01*
X741680D01*
Y97201D01*
X739181Y93869D02*
Y95535D01*
X737515Y102199D02*
X736682Y101366D01*
Y99700D01*
X737515Y98867D01*
X738348D01*
X739181Y99700D01*
Y101366D01*
X740014Y102199D01*
X740847D01*
X741680Y101366D01*
Y99700D01*
X740847Y98867D01*
X741680Y77050D02*
X736682D01*
Y79549D01*
X737515Y80382D01*
X739181D01*
X740014Y79549D01*
Y77050D01*
Y78716D02*
X741680Y80382D01*
Y84548D02*
Y82881D01*
X740847Y82048D01*
X739181D01*
X738348Y82881D01*
Y84548D01*
X739181Y85381D01*
X740014D01*
Y82048D01*
X741680Y87880D02*
X737515D01*
X739181D01*
Y87047D01*
Y88713D01*
Y87880D01*
X737515D01*
X736682Y88713D01*
Y91212D02*
X741680D01*
Y93711D01*
X740847Y94544D01*
X737515D01*
X736682Y93711D01*
Y91212D01*
X741680Y98710D02*
Y97044D01*
X740847Y96210D01*
X739181D01*
X738348Y97044D01*
Y98710D01*
X739181Y99543D01*
X740014D01*
Y96210D01*
X741680Y101209D02*
Y103708D01*
X740847Y104541D01*
X740014Y103708D01*
Y102042D01*
X739181Y101209D01*
X738348Y102042D01*
Y104541D01*
X732515Y77575D02*
X735847Y80907D01*
Y77575D02*
X732515Y80907D01*
X734181Y77575D02*
Y80907D01*
X735847Y79241D02*
X732515D01*
X940990Y117895D02*
X935992D01*
Y120394D01*
X936825Y121227D01*
X938491D01*
X939324Y120394D01*
Y117895D01*
Y119561D02*
X940990Y121227D01*
X935992Y126226D02*
Y122893D01*
X940990D01*
Y126226D01*
X938491Y122893D02*
Y124559D01*
X935992Y131224D02*
Y127892D01*
X938491D01*
Y129558D01*
Y127892D01*
X940990D01*
X935992Y132890D02*
X940990D01*
Y135389D01*
X940157Y136222D01*
X936825D01*
X935992Y135389D01*
Y132890D01*
Y141221D02*
Y137888D01*
X940990D01*
Y141221D01*
X938491Y137888D02*
Y139555D01*
X936825Y146219D02*
X935992Y145386D01*
Y143720D01*
X936825Y142887D01*
X937658D01*
X938491Y143720D01*
Y145386D01*
X939324Y146219D01*
X940157D01*
X940990Y145386D01*
Y143720D01*
X940157Y142887D01*
X940990Y121070D02*
X935992D01*
Y123569D01*
X936825Y124402D01*
X938491D01*
X939324Y123569D01*
Y121070D01*
Y122736D02*
X940990Y124402D01*
Y128567D02*
Y126901D01*
X940157Y126068D01*
X938491D01*
X937658Y126901D01*
Y128567D01*
X938491Y129401D01*
X939324D01*
Y126068D01*
X940990Y131900D02*
X936825D01*
X938491D01*
Y131067D01*
Y132733D01*
Y131900D01*
X936825D01*
X935992Y132733D01*
Y135232D02*
X940990D01*
Y137731D01*
X940157Y138564D01*
X936825D01*
X935992Y137731D01*
Y135232D01*
X940990Y142730D02*
Y141063D01*
X940157Y140230D01*
X938491D01*
X937658Y141063D01*
Y142730D01*
X938491Y143563D01*
X939324D01*
Y140230D01*
X940990Y145229D02*
Y147728D01*
X940157Y148561D01*
X939324Y147728D01*
Y146062D01*
X938491Y145229D01*
X937658Y146062D01*
Y148561D01*
X931825Y121595D02*
X935157Y124927D01*
Y121595D02*
X931825Y124927D01*
X933491Y121595D02*
Y124927D01*
X935157Y123261D02*
X931825D01*
D17*
X169164Y217342D02*
Y213177D01*
X169997Y212344D01*
X171663D01*
X172496Y213177D01*
Y217342D01*
X174162Y213177D02*
X174995Y212344D01*
X176661D01*
X177495Y213177D01*
Y216509D01*
X176661Y217342D01*
X174995D01*
X174162Y216509D01*
Y215676D01*
X174995Y214843D01*
X177495D01*
X350774Y301162D02*
Y296997D01*
X351607Y296164D01*
X353273D01*
X354106Y296997D01*
Y301162D01*
X355772Y300329D02*
X356605Y301162D01*
X358271D01*
X359105Y300329D01*
Y299496D01*
X358271Y298663D01*
X359105Y297830D01*
Y296997D01*
X358271Y296164D01*
X356605D01*
X355772Y296997D01*
Y297830D01*
X356605Y298663D01*
X355772Y299496D01*
Y300329D01*
X356605Y298663D02*
X358271D01*
X241554Y110662D02*
Y106497D01*
X242387Y105664D01*
X244053D01*
X244886Y106497D01*
Y110662D01*
X246552D02*
X249885D01*
Y109829D01*
X246552Y106497D01*
Y105664D01*
X784352Y98978D02*
Y94813D01*
X785185Y93980D01*
X786851D01*
X787684Y94813D01*
Y98978D01*
X792683D02*
X791016Y98145D01*
X789350Y96479D01*
Y94813D01*
X790183Y93980D01*
X791850D01*
X792683Y94813D01*
Y95646D01*
X791850Y96479D01*
X789350D01*
X1138428Y185846D02*
Y181681D01*
X1139261Y180848D01*
X1140927D01*
X1141760Y181681D01*
Y185846D01*
X1146759D02*
X1143426D01*
Y183347D01*
X1145092Y184180D01*
X1145926D01*
X1146759Y183347D01*
Y181681D01*
X1145926Y180848D01*
X1144259D01*
X1143426Y181681D01*
X716534Y125140D02*
Y120975D01*
X717367Y120142D01*
X719033D01*
X719866Y120975D01*
Y125140D01*
X724032Y120142D02*
Y125140D01*
X721532Y122641D01*
X724865D01*
X678942Y142412D02*
Y138247D01*
X679775Y137414D01*
X681441D01*
X682274Y138247D01*
Y142412D01*
X683940Y141579D02*
X684773Y142412D01*
X686440D01*
X687273Y141579D01*
Y140746D01*
X686440Y139913D01*
X685607D01*
X686440D01*
X687273Y139080D01*
Y138247D01*
X686440Y137414D01*
X684773D01*
X683940Y138247D01*
X915924Y169082D02*
Y164917D01*
X916757Y164084D01*
X918423D01*
X919256Y164917D01*
Y169082D01*
X924255Y164084D02*
X920922D01*
X924255Y167416D01*
Y168249D01*
X923421Y169082D01*
X921755D01*
X920922Y168249D01*
X575564Y241980D02*
Y237815D01*
X576397Y236982D01*
X578063D01*
X578896Y237815D01*
Y241980D01*
X580562Y236982D02*
X582229D01*
X581395D01*
Y241980D01*
X580562Y241147D01*
X1115060Y97536D02*
Y102534D01*
X1117559D01*
X1118392Y101701D01*
Y100035D01*
X1117559Y99202D01*
X1115060D01*
X1116726D02*
X1118392Y97536D01*
X1120058Y101701D02*
X1120891Y102534D01*
X1122558D01*
X1123391Y101701D01*
Y100868D01*
X1122558Y100035D01*
X1123391Y99202D01*
Y98369D01*
X1122558Y97536D01*
X1120891D01*
X1120058Y98369D01*
Y99202D01*
X1120891Y100035D01*
X1120058Y100868D01*
Y101701D01*
X1120891Y100035D02*
X1122558D01*
X1128389Y102534D02*
X1126723Y101701D01*
X1125057Y100035D01*
Y98369D01*
X1125890Y97536D01*
X1127556D01*
X1128389Y98369D01*
Y99202D01*
X1127556Y100035D01*
X1125057D01*
X153670Y75184D02*
Y80182D01*
X156169D01*
X157002Y79349D01*
Y77683D01*
X156169Y76850D01*
X153670D01*
X155336D02*
X157002Y75184D01*
X158668Y79349D02*
X159501Y80182D01*
X161168D01*
X162001Y79349D01*
Y78516D01*
X161168Y77683D01*
X162001Y76850D01*
Y76017D01*
X161168Y75184D01*
X159501D01*
X158668Y76017D01*
Y76850D01*
X159501Y77683D01*
X158668Y78516D01*
Y79349D01*
X159501Y77683D02*
X161168D01*
X166999Y80182D02*
X163667D01*
Y77683D01*
X165333Y78516D01*
X166166D01*
X166999Y77683D01*
Y76017D01*
X166166Y75184D01*
X164500D01*
X163667Y76017D01*
X229616Y55880D02*
Y60878D01*
X232115D01*
X232948Y60045D01*
Y58379D01*
X232115Y57546D01*
X229616D01*
X231282D02*
X232948Y55880D01*
X234614Y60045D02*
X235447Y60878D01*
X237113D01*
X237947Y60045D01*
Y59212D01*
X237113Y58379D01*
X237947Y57546D01*
Y56713D01*
X237113Y55880D01*
X235447D01*
X234614Y56713D01*
Y57546D01*
X235447Y58379D01*
X234614Y59212D01*
Y60045D01*
X235447Y58379D02*
X237113D01*
X242112Y55880D02*
Y60878D01*
X239613Y58379D01*
X242945D01*
X283718Y57150D02*
Y62148D01*
X286217D01*
X287050Y61315D01*
Y59649D01*
X286217Y58816D01*
X283718D01*
X285384D02*
X287050Y57150D01*
X288716Y61315D02*
X289549Y62148D01*
X291215D01*
X292049Y61315D01*
Y60482D01*
X291215Y59649D01*
X292049Y58816D01*
Y57983D01*
X291215Y57150D01*
X289549D01*
X288716Y57983D01*
Y58816D01*
X289549Y59649D01*
X288716Y60482D01*
Y61315D01*
X289549Y59649D02*
X291215D01*
X293715Y61315D02*
X294548Y62148D01*
X296214D01*
X297047Y61315D01*
Y60482D01*
X296214Y59649D01*
X295381D01*
X296214D01*
X297047Y58816D01*
Y57983D01*
X296214Y57150D01*
X294548D01*
X293715Y57983D01*
X1205230Y186436D02*
Y191434D01*
X1207729D01*
X1208562Y190601D01*
Y188935D01*
X1207729Y188102D01*
X1205230D01*
X1206896D02*
X1208562Y186436D01*
X1210228Y190601D02*
X1211061Y191434D01*
X1212728D01*
X1213561Y190601D01*
Y189768D01*
X1212728Y188935D01*
X1213561Y188102D01*
Y187269D01*
X1212728Y186436D01*
X1211061D01*
X1210228Y187269D01*
Y188102D01*
X1211061Y188935D01*
X1210228Y189768D01*
Y190601D01*
X1211061Y188935D02*
X1212728D01*
X1218559Y186436D02*
X1215227D01*
X1218559Y189768D01*
Y190601D01*
X1217726Y191434D01*
X1216060D01*
X1215227Y190601D01*
X1394460Y326136D02*
Y331134D01*
X1396959D01*
X1397792Y330301D01*
Y328635D01*
X1396959Y327802D01*
X1394460D01*
X1396126D02*
X1397792Y326136D01*
X1399458Y330301D02*
X1400291Y331134D01*
X1401958D01*
X1402791Y330301D01*
Y329468D01*
X1401958Y328635D01*
X1402791Y327802D01*
Y326969D01*
X1401958Y326136D01*
X1400291D01*
X1399458Y326969D01*
Y327802D01*
X1400291Y328635D01*
X1399458Y329468D01*
Y330301D01*
X1400291Y328635D02*
X1401958D01*
X1404457Y326136D02*
X1406123D01*
X1405290D01*
Y331134D01*
X1404457Y330301D01*
X1031240Y223774D02*
Y228772D01*
X1033739D01*
X1034572Y227939D01*
Y226273D01*
X1033739Y225440D01*
X1031240D01*
X1032906D02*
X1034572Y223774D01*
X1036238Y227939D02*
X1037071Y228772D01*
X1038737D01*
X1039571Y227939D01*
Y227106D01*
X1038737Y226273D01*
X1039571Y225440D01*
Y224607D01*
X1038737Y223774D01*
X1037071D01*
X1036238Y224607D01*
Y225440D01*
X1037071Y226273D01*
X1036238Y227106D01*
Y227939D01*
X1037071Y226273D02*
X1038737D01*
X1041237Y227939D02*
X1042070Y228772D01*
X1043736D01*
X1044569Y227939D01*
Y224607D01*
X1043736Y223774D01*
X1042070D01*
X1041237Y224607D01*
Y227939D01*
X1191260Y207772D02*
Y212770D01*
X1193759D01*
X1194592Y211937D01*
Y210271D01*
X1193759Y209438D01*
X1191260D01*
X1192926D02*
X1194592Y207772D01*
X1196258Y212770D02*
X1199591D01*
Y211937D01*
X1196258Y208605D01*
Y207772D01*
X1201257Y208605D02*
X1202090Y207772D01*
X1203756D01*
X1204589Y208605D01*
Y211937D01*
X1203756Y212770D01*
X1202090D01*
X1201257Y211937D01*
Y211104D01*
X1202090Y210271D01*
X1204589D01*
X1248156Y369824D02*
Y374822D01*
X1250655D01*
X1251488Y373989D01*
Y372323D01*
X1250655Y371490D01*
X1248156D01*
X1249822D02*
X1251488Y369824D01*
X1253154Y374822D02*
X1256487D01*
Y373989D01*
X1253154Y370657D01*
Y369824D01*
X1258153Y373989D02*
X1258986Y374822D01*
X1260652D01*
X1261485Y373989D01*
Y373156D01*
X1260652Y372323D01*
X1261485Y371490D01*
Y370657D01*
X1260652Y369824D01*
X1258986D01*
X1258153Y370657D01*
Y371490D01*
X1258986Y372323D01*
X1258153Y373156D01*
Y373989D01*
X1258986Y372323D02*
X1260652D01*
X1298194Y361696D02*
Y366694D01*
X1300693D01*
X1301526Y365861D01*
Y364195D01*
X1300693Y363362D01*
X1298194D01*
X1299860D02*
X1301526Y361696D01*
X1303192Y366694D02*
X1306525D01*
Y365861D01*
X1303192Y362529D01*
Y361696D01*
X1308191Y366694D02*
X1311523D01*
Y365861D01*
X1308191Y362529D01*
Y361696D01*
X1275588Y356362D02*
Y361360D01*
X1278087D01*
X1278920Y360527D01*
Y358861D01*
X1278087Y358028D01*
X1275588D01*
X1277254D02*
X1278920Y356362D01*
X1280586Y361360D02*
X1283919D01*
Y360527D01*
X1280586Y357195D01*
Y356362D01*
X1288917Y361360D02*
X1287251Y360527D01*
X1285585Y358861D01*
Y357195D01*
X1286418Y356362D01*
X1288084D01*
X1288917Y357195D01*
Y358028D01*
X1288084Y358861D01*
X1285585D01*
X1215644Y370332D02*
Y375330D01*
X1218143D01*
X1218976Y374497D01*
Y372831D01*
X1218143Y371998D01*
X1215644D01*
X1217310D02*
X1218976Y370332D01*
X1220642Y375330D02*
X1223975D01*
Y374497D01*
X1220642Y371165D01*
Y370332D01*
X1228973Y375330D02*
X1225641D01*
Y372831D01*
X1227307Y373664D01*
X1228140D01*
X1228973Y372831D01*
Y371165D01*
X1228140Y370332D01*
X1226474D01*
X1225641Y371165D01*
X1271524Y312166D02*
Y317164D01*
X1274023D01*
X1274856Y316331D01*
Y314665D01*
X1274023Y313832D01*
X1271524D01*
X1273190D02*
X1274856Y312166D01*
X1276522Y317164D02*
X1279855D01*
Y316331D01*
X1276522Y312999D01*
Y312166D01*
X1284020D02*
Y317164D01*
X1281521Y314665D01*
X1284853D01*
X1380490Y357124D02*
Y362122D01*
X1382989D01*
X1383822Y361289D01*
Y359623D01*
X1382989Y358790D01*
X1380490D01*
X1382156D02*
X1383822Y357124D01*
X1385488Y362122D02*
X1388821D01*
Y361289D01*
X1385488Y357957D01*
Y357124D01*
X1390487Y361289D02*
X1391320Y362122D01*
X1392986D01*
X1393819Y361289D01*
Y360456D01*
X1392986Y359623D01*
X1392153D01*
X1392986D01*
X1393819Y358790D01*
Y357957D01*
X1392986Y357124D01*
X1391320D01*
X1390487Y357957D01*
X1388364Y251460D02*
Y256458D01*
X1390863D01*
X1391696Y255625D01*
Y253959D01*
X1390863Y253126D01*
X1388364D01*
X1390030D02*
X1391696Y251460D01*
X1393362Y256458D02*
X1396695D01*
Y255625D01*
X1393362Y252293D01*
Y251460D01*
X1401693D02*
X1398361D01*
X1401693Y254792D01*
Y255625D01*
X1400860Y256458D01*
X1399194D01*
X1398361Y255625D01*
X1409446Y266700D02*
Y271698D01*
X1411945D01*
X1412778Y270865D01*
Y269199D01*
X1411945Y268366D01*
X1409446D01*
X1411112D02*
X1412778Y266700D01*
X1414444Y271698D02*
X1417777D01*
Y270865D01*
X1414444Y267533D01*
Y266700D01*
X1419443D02*
X1421109D01*
X1420276D01*
Y271698D01*
X1419443Y270865D01*
X867918Y159512D02*
Y164510D01*
X870417D01*
X871250Y163677D01*
Y162011D01*
X870417Y161178D01*
X867918D01*
X869584D02*
X871250Y159512D01*
X872916Y164510D02*
X876249D01*
Y163677D01*
X872916Y160345D01*
Y159512D01*
X877915Y163677D02*
X878748Y164510D01*
X880414D01*
X881247Y163677D01*
Y160345D01*
X880414Y159512D01*
X878748D01*
X877915Y160345D01*
Y163677D01*
X1119124Y155702D02*
Y160700D01*
X1121623D01*
X1122456Y159867D01*
Y158201D01*
X1121623Y157368D01*
X1119124D01*
X1120790D02*
X1122456Y155702D01*
X1127455Y160700D02*
X1125788Y159867D01*
X1124122Y158201D01*
Y156535D01*
X1124955Y155702D01*
X1126621D01*
X1127455Y156535D01*
Y157368D01*
X1126621Y158201D01*
X1124122D01*
X1129121Y156535D02*
X1129954Y155702D01*
X1131620D01*
X1132453Y156535D01*
Y159867D01*
X1131620Y160700D01*
X1129954D01*
X1129121Y159867D01*
Y159034D01*
X1129954Y158201D01*
X1132453D01*
X1006856Y97790D02*
Y102788D01*
X1009355D01*
X1010188Y101955D01*
Y100289D01*
X1009355Y99456D01*
X1006856D01*
X1008522D02*
X1010188Y97790D01*
X1015187Y102788D02*
X1013521Y101955D01*
X1011854Y100289D01*
Y98623D01*
X1012687Y97790D01*
X1014353D01*
X1015187Y98623D01*
Y99456D01*
X1014353Y100289D01*
X1011854D01*
X1016853Y101955D02*
X1017686Y102788D01*
X1019352D01*
X1020185Y101955D01*
Y101122D01*
X1019352Y100289D01*
X1020185Y99456D01*
Y98623D01*
X1019352Y97790D01*
X1017686D01*
X1016853Y98623D01*
Y99456D01*
X1017686Y100289D01*
X1016853Y101122D01*
Y101955D01*
X1017686Y100289D02*
X1019352D01*
X645922Y250952D02*
Y255950D01*
X648421D01*
X649254Y255117D01*
Y253451D01*
X648421Y252618D01*
X645922D01*
X647588D02*
X649254Y250952D01*
X654253Y255950D02*
X652587Y255117D01*
X650920Y253451D01*
Y251785D01*
X651753Y250952D01*
X653419D01*
X654253Y251785D01*
Y252618D01*
X653419Y253451D01*
X650920D01*
X655919Y255950D02*
X659251D01*
Y255117D01*
X655919Y251785D01*
Y250952D01*
X652526Y218440D02*
Y223438D01*
X655025D01*
X655858Y222605D01*
Y220939D01*
X655025Y220106D01*
X652526D01*
X654192D02*
X655858Y218440D01*
X660857Y223438D02*
X659191Y222605D01*
X657524Y220939D01*
Y219273D01*
X658357Y218440D01*
X660023D01*
X660857Y219273D01*
Y220106D01*
X660023Y220939D01*
X657524D01*
X665855Y223438D02*
X664189Y222605D01*
X662523Y220939D01*
Y219273D01*
X663356Y218440D01*
X665022D01*
X665855Y219273D01*
Y220106D01*
X665022Y220939D01*
X662523D01*
X1184656Y162560D02*
Y167558D01*
X1187155D01*
X1187988Y166725D01*
Y165059D01*
X1187155Y164226D01*
X1184656D01*
X1186322D02*
X1187988Y162560D01*
X1192987Y167558D02*
X1191320Y166725D01*
X1189654Y165059D01*
Y163393D01*
X1190487Y162560D01*
X1192153D01*
X1192987Y163393D01*
Y164226D01*
X1192153Y165059D01*
X1189654D01*
X1197985Y167558D02*
X1194653D01*
Y165059D01*
X1196319Y165892D01*
X1197152D01*
X1197985Y165059D01*
Y163393D01*
X1197152Y162560D01*
X1195486D01*
X1194653Y163393D01*
X247650Y214376D02*
Y219374D01*
X250149D01*
X250982Y218541D01*
Y216875D01*
X250149Y216042D01*
X247650D01*
X249316D02*
X250982Y214376D01*
X255981Y219374D02*
X254314Y218541D01*
X252648Y216875D01*
Y215209D01*
X253481Y214376D01*
X255147D01*
X255981Y215209D01*
Y216042D01*
X255147Y216875D01*
X252648D01*
X260146Y214376D02*
Y219374D01*
X257647Y216875D01*
X260979D01*
X609600Y278384D02*
Y283382D01*
X612099D01*
X612932Y282549D01*
Y280883D01*
X612099Y280050D01*
X609600D01*
X611266D02*
X612932Y278384D01*
X617931Y283382D02*
X616264Y282549D01*
X614598Y280883D01*
Y279217D01*
X615431Y278384D01*
X617098D01*
X617931Y279217D01*
Y280050D01*
X617098Y280883D01*
X614598D01*
X619597Y282549D02*
X620430Y283382D01*
X622096D01*
X622929Y282549D01*
Y281716D01*
X622096Y280883D01*
X621263D01*
X622096D01*
X622929Y280050D01*
Y279217D01*
X622096Y278384D01*
X620430D01*
X619597Y279217D01*
X618490Y87376D02*
Y92374D01*
X620989D01*
X621822Y91541D01*
Y89875D01*
X620989Y89042D01*
X618490D01*
X620156D02*
X621822Y87376D01*
X626821Y92374D02*
X625154Y91541D01*
X623488Y89875D01*
Y88209D01*
X624321Y87376D01*
X625988D01*
X626821Y88209D01*
Y89042D01*
X625988Y89875D01*
X623488D01*
X631819Y87376D02*
X628487D01*
X631819Y90708D01*
Y91541D01*
X630986Y92374D01*
X629320D01*
X628487Y91541D01*
X892810Y94742D02*
Y99740D01*
X895309D01*
X896142Y98907D01*
Y97241D01*
X895309Y96408D01*
X892810D01*
X894476D02*
X896142Y94742D01*
X901141Y99740D02*
X899474Y98907D01*
X897808Y97241D01*
Y95575D01*
X898641Y94742D01*
X900307D01*
X901141Y95575D01*
Y96408D01*
X900307Y97241D01*
X897808D01*
X902807Y94742D02*
X904473D01*
X903640D01*
Y99740D01*
X902807Y98907D01*
X86106Y89154D02*
Y94152D01*
X88605D01*
X89438Y93319D01*
Y91653D01*
X88605Y90820D01*
X86106D01*
X87772D02*
X89438Y89154D01*
X94437Y94152D02*
X92771Y93319D01*
X91104Y91653D01*
Y89987D01*
X91937Y89154D01*
X93603D01*
X94437Y89987D01*
Y90820D01*
X93603Y91653D01*
X91104D01*
X96103Y93319D02*
X96936Y94152D01*
X98602D01*
X99435Y93319D01*
Y89987D01*
X98602Y89154D01*
X96936D01*
X96103Y89987D01*
Y93319D01*
X571754Y54356D02*
Y59354D01*
X574253D01*
X575086Y58521D01*
Y56855D01*
X574253Y56022D01*
X571754D01*
X573420D02*
X575086Y54356D01*
X580085Y59354D02*
X576752D01*
Y56855D01*
X578419Y57688D01*
X579252D01*
X580085Y56855D01*
Y55189D01*
X579252Y54356D01*
X577585D01*
X576752Y55189D01*
X581751D02*
X582584Y54356D01*
X584250D01*
X585083Y55189D01*
Y58521D01*
X584250Y59354D01*
X582584D01*
X581751Y58521D01*
Y57688D01*
X582584Y56855D01*
X585083D01*
X520700Y56642D02*
Y61640D01*
X523199D01*
X524032Y60807D01*
Y59141D01*
X523199Y58308D01*
X520700D01*
X522366D02*
X524032Y56642D01*
X529031Y61640D02*
X525698D01*
Y59141D01*
X527365Y59974D01*
X528198D01*
X529031Y59141D01*
Y57475D01*
X528198Y56642D01*
X526531D01*
X525698Y57475D01*
X530697Y60807D02*
X531530Y61640D01*
X533196D01*
X534029Y60807D01*
Y59974D01*
X533196Y59141D01*
X534029Y58308D01*
Y57475D01*
X533196Y56642D01*
X531530D01*
X530697Y57475D01*
Y58308D01*
X531530Y59141D01*
X530697Y59974D01*
Y60807D01*
X531530Y59141D02*
X533196D01*
X421894Y372618D02*
Y377616D01*
X424393D01*
X425226Y376783D01*
Y375117D01*
X424393Y374284D01*
X421894D01*
X423560D02*
X425226Y372618D01*
X430225Y377616D02*
X426892D01*
Y375117D01*
X428559Y375950D01*
X429392D01*
X430225Y375117D01*
Y373451D01*
X429392Y372618D01*
X427725D01*
X426892Y373451D01*
X431891Y377616D02*
X435223D01*
Y376783D01*
X431891Y373451D01*
Y372618D01*
X631190Y53086D02*
Y58084D01*
X633689D01*
X634522Y57251D01*
Y55585D01*
X633689Y54752D01*
X631190D01*
X632856D02*
X634522Y53086D01*
X639521Y58084D02*
X636188D01*
Y55585D01*
X637854Y56418D01*
X638688D01*
X639521Y55585D01*
Y53919D01*
X638688Y53086D01*
X637021D01*
X636188Y53919D01*
X644519Y58084D02*
X642853Y57251D01*
X641187Y55585D01*
Y53919D01*
X642020Y53086D01*
X643686D01*
X644519Y53919D01*
Y54752D01*
X643686Y55585D01*
X641187D01*
X1197610Y137414D02*
Y142412D01*
X1200109D01*
X1200942Y141579D01*
Y139913D01*
X1200109Y139080D01*
X1197610D01*
X1199276D02*
X1200942Y137414D01*
X1205941Y142412D02*
X1202608D01*
Y139913D01*
X1204275Y140746D01*
X1205107D01*
X1205941Y139913D01*
Y138247D01*
X1205107Y137414D01*
X1203441D01*
X1202608Y138247D01*
X1210939Y142412D02*
X1207607D01*
Y139913D01*
X1209273Y140746D01*
X1210106D01*
X1210939Y139913D01*
Y138247D01*
X1210106Y137414D01*
X1208440D01*
X1207607Y138247D01*
X1167384Y88392D02*
Y93390D01*
X1169883D01*
X1170716Y92557D01*
Y90891D01*
X1169883Y90058D01*
X1167384D01*
X1169050D02*
X1170716Y88392D01*
X1175715Y93390D02*
X1172382D01*
Y90891D01*
X1174048Y91724D01*
X1174882D01*
X1175715Y90891D01*
Y89225D01*
X1174882Y88392D01*
X1173215D01*
X1172382Y89225D01*
X1179880Y88392D02*
Y93390D01*
X1177381Y90891D01*
X1180713D01*
X1203706Y93980D02*
Y98978D01*
X1206205D01*
X1207038Y98145D01*
Y96479D01*
X1206205Y95646D01*
X1203706D01*
X1205372D02*
X1207038Y93980D01*
X1212037Y98978D02*
X1208704D01*
Y96479D01*
X1210370Y97312D01*
X1211204D01*
X1212037Y96479D01*
Y94813D01*
X1211204Y93980D01*
X1209537D01*
X1208704Y94813D01*
X1213703Y98145D02*
X1214536Y98978D01*
X1216202D01*
X1217035Y98145D01*
Y97312D01*
X1216202Y96479D01*
X1215369D01*
X1216202D01*
X1217035Y95646D01*
Y94813D01*
X1216202Y93980D01*
X1214536D01*
X1213703Y94813D01*
X1219708Y129032D02*
Y134030D01*
X1222207D01*
X1223040Y133197D01*
Y131531D01*
X1222207Y130698D01*
X1219708D01*
X1221374D02*
X1223040Y129032D01*
X1228039Y134030D02*
X1224706D01*
Y131531D01*
X1226373Y132364D01*
X1227206D01*
X1228039Y131531D01*
Y129865D01*
X1227206Y129032D01*
X1225539D01*
X1224706Y129865D01*
X1233037Y129032D02*
X1229705D01*
X1233037Y132364D01*
Y133197D01*
X1232204Y134030D01*
X1230538D01*
X1229705Y133197D01*
X1092454Y357378D02*
Y362376D01*
X1094953D01*
X1095786Y361543D01*
Y359877D01*
X1094953Y359044D01*
X1092454D01*
X1094120D02*
X1095786Y357378D01*
X1100785Y362376D02*
X1097452D01*
Y359877D01*
X1099118Y360710D01*
X1099951D01*
X1100785Y359877D01*
Y358211D01*
X1099951Y357378D01*
X1098285D01*
X1097452Y358211D01*
X1102451Y357378D02*
X1104117D01*
X1103284D01*
Y362376D01*
X1102451Y361543D01*
X1135126Y335280D02*
Y340278D01*
X1137625D01*
X1138458Y339445D01*
Y337779D01*
X1137625Y336946D01*
X1135126D01*
X1136792D02*
X1138458Y335280D01*
X1143457Y340278D02*
X1140124D01*
Y337779D01*
X1141790Y338612D01*
X1142624D01*
X1143457Y337779D01*
Y336113D01*
X1142624Y335280D01*
X1140957D01*
X1140124Y336113D01*
X1145123Y339445D02*
X1145956Y340278D01*
X1147622D01*
X1148455Y339445D01*
Y336113D01*
X1147622Y335280D01*
X1145956D01*
X1145123Y336113D01*
Y339445D01*
X1134872Y87122D02*
Y92120D01*
X1137371D01*
X1138204Y91287D01*
Y89621D01*
X1137371Y88788D01*
X1134872D01*
X1136538D02*
X1138204Y87122D01*
X1142370D02*
Y92120D01*
X1139870Y89621D01*
X1143203D01*
X1144869Y87955D02*
X1145702Y87122D01*
X1147368D01*
X1148201Y87955D01*
Y91287D01*
X1147368Y92120D01*
X1145702D01*
X1144869Y91287D01*
Y90454D01*
X1145702Y89621D01*
X1148201D01*
X1180846Y252730D02*
Y257728D01*
X1183345D01*
X1184178Y256895D01*
Y255229D01*
X1183345Y254396D01*
X1180846D01*
X1182512D02*
X1184178Y252730D01*
X1188344D02*
Y257728D01*
X1185844Y255229D01*
X1189177D01*
X1190843Y256895D02*
X1191676Y257728D01*
X1193342D01*
X1194175Y256895D01*
Y256062D01*
X1193342Y255229D01*
X1194175Y254396D01*
Y253563D01*
X1193342Y252730D01*
X1191676D01*
X1190843Y253563D01*
Y254396D01*
X1191676Y255229D01*
X1190843Y256062D01*
Y256895D01*
X1191676Y255229D02*
X1193342D01*
X1182116Y328930D02*
Y333928D01*
X1184615D01*
X1185448Y333095D01*
Y331429D01*
X1184615Y330596D01*
X1182116D01*
X1183782D02*
X1185448Y328930D01*
X1189613D02*
Y333928D01*
X1187114Y331429D01*
X1190447D01*
X1192113Y333928D02*
X1195445D01*
Y333095D01*
X1192113Y329763D01*
Y328930D01*
X1178306Y373380D02*
Y378378D01*
X1180805D01*
X1181638Y377545D01*
Y375879D01*
X1180805Y375046D01*
X1178306D01*
X1179972D02*
X1181638Y373380D01*
X1185804D02*
Y378378D01*
X1183304Y375879D01*
X1186637D01*
X1191635Y378378D02*
X1189969Y377545D01*
X1188303Y375879D01*
Y374213D01*
X1189136Y373380D01*
X1190802D01*
X1191635Y374213D01*
Y375046D01*
X1190802Y375879D01*
X1188303D01*
X656844Y177038D02*
Y182036D01*
X659343D01*
X660176Y181203D01*
Y179537D01*
X659343Y178704D01*
X656844D01*
X658510D02*
X660176Y177038D01*
X664342D02*
Y182036D01*
X661842Y179537D01*
X665175D01*
X670173Y182036D02*
X666841D01*
Y179537D01*
X668507Y180370D01*
X669340D01*
X670173Y179537D01*
Y177871D01*
X669340Y177038D01*
X667674D01*
X666841Y177871D01*
X1272794Y183896D02*
Y188894D01*
X1275293D01*
X1276126Y188061D01*
Y186395D01*
X1275293Y185562D01*
X1272794D01*
X1274460D02*
X1276126Y183896D01*
X1280291D02*
Y188894D01*
X1277792Y186395D01*
X1281125D01*
X1285290Y183896D02*
Y188894D01*
X1282791Y186395D01*
X1286123D01*
X860044Y65786D02*
Y70784D01*
X862543D01*
X863376Y69951D01*
Y68285D01*
X862543Y67452D01*
X860044D01*
X861710D02*
X863376Y65786D01*
X867542D02*
Y70784D01*
X865042Y68285D01*
X868375D01*
X870041Y69951D02*
X870874Y70784D01*
X872540D01*
X873373Y69951D01*
Y69118D01*
X872540Y68285D01*
X871707D01*
X872540D01*
X873373Y67452D01*
Y66619D01*
X872540Y65786D01*
X870874D01*
X870041Y66619D01*
X375666Y232664D02*
Y237662D01*
X378165D01*
X378998Y236829D01*
Y235163D01*
X378165Y234330D01*
X375666D01*
X377332D02*
X378998Y232664D01*
X383163D02*
Y237662D01*
X380664Y235163D01*
X383997D01*
X388995Y232664D02*
X385663D01*
X388995Y235996D01*
Y236829D01*
X388162Y237662D01*
X386496D01*
X385663Y236829D01*
X400304Y373126D02*
Y378124D01*
X402803D01*
X403636Y377291D01*
Y375625D01*
X402803Y374792D01*
X400304D01*
X401970D02*
X403636Y373126D01*
X407802D02*
Y378124D01*
X405302Y375625D01*
X408635D01*
X410301Y373126D02*
X411967D01*
X411134D01*
Y378124D01*
X410301Y377291D01*
X329438Y333502D02*
Y338500D01*
X331937D01*
X332770Y337667D01*
Y336001D01*
X331937Y335168D01*
X329438D01*
X331104D02*
X332770Y333502D01*
X336936D02*
Y338500D01*
X334436Y336001D01*
X337769D01*
X339435Y337667D02*
X340268Y338500D01*
X341934D01*
X342767Y337667D01*
Y334335D01*
X341934Y333502D01*
X340268D01*
X339435Y334335D01*
Y337667D01*
X451104Y358648D02*
Y363646D01*
X453603D01*
X454436Y362813D01*
Y361147D01*
X453603Y360314D01*
X451104D01*
X452770D02*
X454436Y358648D01*
X456102Y362813D02*
X456935Y363646D01*
X458601D01*
X459435Y362813D01*
Y361980D01*
X458601Y361147D01*
X457769D01*
X458601D01*
X459435Y360314D01*
Y359481D01*
X458601Y358648D01*
X456935D01*
X456102Y359481D01*
X461101D02*
X461934Y358648D01*
X463600D01*
X464433Y359481D01*
Y362813D01*
X463600Y363646D01*
X461934D01*
X461101Y362813D01*
Y361980D01*
X461934Y361147D01*
X464433D01*
X505714Y364236D02*
Y369234D01*
X508213D01*
X509046Y368401D01*
Y366735D01*
X508213Y365902D01*
X505714D01*
X507380D02*
X509046Y364236D01*
X510712Y368401D02*
X511545Y369234D01*
X513212D01*
X514045Y368401D01*
Y367568D01*
X513212Y366735D01*
X512379D01*
X513212D01*
X514045Y365902D01*
Y365069D01*
X513212Y364236D01*
X511545D01*
X510712Y365069D01*
X515711Y368401D02*
X516544Y369234D01*
X518210D01*
X519043Y368401D01*
Y367568D01*
X518210Y366735D01*
X519043Y365902D01*
Y365069D01*
X518210Y364236D01*
X516544D01*
X515711Y365069D01*
Y365902D01*
X516544Y366735D01*
X515711Y367568D01*
Y368401D01*
X516544Y366735D02*
X518210D01*
X862330Y340614D02*
Y345612D01*
X864829D01*
X865662Y344779D01*
Y343113D01*
X864829Y342280D01*
X862330D01*
X863996D02*
X865662Y340614D01*
X867328Y344779D02*
X868161Y345612D01*
X869827D01*
X870661Y344779D01*
Y343946D01*
X869827Y343113D01*
X868995D01*
X869827D01*
X870661Y342280D01*
Y341447D01*
X869827Y340614D01*
X868161D01*
X867328Y341447D01*
X872327Y345612D02*
X875659D01*
Y344779D01*
X872327Y341447D01*
Y340614D01*
X754634Y260350D02*
Y265348D01*
X757133D01*
X757966Y264515D01*
Y262849D01*
X757133Y262016D01*
X754634D01*
X756300D02*
X757966Y260350D01*
X759632Y264515D02*
X760465Y265348D01*
X762132D01*
X762965Y264515D01*
Y263682D01*
X762132Y262849D01*
X761299D01*
X762132D01*
X762965Y262016D01*
Y261183D01*
X762132Y260350D01*
X760465D01*
X759632Y261183D01*
X767963Y265348D02*
X766297Y264515D01*
X764631Y262849D01*
Y261183D01*
X765464Y260350D01*
X767130D01*
X767963Y261183D01*
Y262016D01*
X767130Y262849D01*
X764631D01*
X909066Y337820D02*
Y342818D01*
X911565D01*
X912398Y341985D01*
Y340319D01*
X911565Y339486D01*
X909066D01*
X910732D02*
X912398Y337820D01*
X914064Y341985D02*
X914897Y342818D01*
X916563D01*
X917397Y341985D01*
Y341152D01*
X916563Y340319D01*
X915731D01*
X916563D01*
X917397Y339486D01*
Y338653D01*
X916563Y337820D01*
X914897D01*
X914064Y338653D01*
X922395Y342818D02*
X919063D01*
Y340319D01*
X920729Y341152D01*
X921562D01*
X922395Y340319D01*
Y338653D01*
X921562Y337820D01*
X919896D01*
X919063Y338653D01*
X282448Y345948D02*
Y350946D01*
X284947D01*
X285780Y350113D01*
Y348447D01*
X284947Y347614D01*
X282448D01*
X284114D02*
X285780Y345948D01*
X287446Y350113D02*
X288279Y350946D01*
X289946D01*
X290779Y350113D01*
Y349280D01*
X289946Y348447D01*
X289112D01*
X289946D01*
X290779Y347614D01*
Y346781D01*
X289946Y345948D01*
X288279D01*
X287446Y346781D01*
X294944Y345948D02*
Y350946D01*
X292445Y348447D01*
X295777D01*
X329184Y142748D02*
Y147746D01*
X331683D01*
X332516Y146913D01*
Y145247D01*
X331683Y144414D01*
X329184D01*
X330850D02*
X332516Y142748D01*
X334182Y146913D02*
X335015Y147746D01*
X336682D01*
X337515Y146913D01*
Y146080D01*
X336682Y145247D01*
X335849D01*
X336682D01*
X337515Y144414D01*
Y143581D01*
X336682Y142748D01*
X335015D01*
X334182Y143581D01*
X339181Y146913D02*
X340014Y147746D01*
X341680D01*
X342513Y146913D01*
Y146080D01*
X341680Y145247D01*
X340847D01*
X341680D01*
X342513Y144414D01*
Y143581D01*
X341680Y142748D01*
X340014D01*
X339181Y143581D01*
X387096Y203200D02*
Y208198D01*
X389595D01*
X390428Y207365D01*
Y205699D01*
X389595Y204866D01*
X387096D01*
X388762D02*
X390428Y203200D01*
X392094Y207365D02*
X392927Y208198D01*
X394594D01*
X395427Y207365D01*
Y206532D01*
X394594Y205699D01*
X393760D01*
X394594D01*
X395427Y204866D01*
Y204033D01*
X394594Y203200D01*
X392927D01*
X392094Y204033D01*
X400425Y203200D02*
X397093D01*
X400425Y206532D01*
Y207365D01*
X399592Y208198D01*
X397926D01*
X397093Y207365D01*
X884682Y151130D02*
Y156128D01*
X887181D01*
X888014Y155295D01*
Y153629D01*
X887181Y152796D01*
X884682D01*
X886348D02*
X888014Y151130D01*
X889680Y155295D02*
X890513Y156128D01*
X892179D01*
X893013Y155295D01*
Y154462D01*
X892179Y153629D01*
X891347D01*
X892179D01*
X893013Y152796D01*
Y151963D01*
X892179Y151130D01*
X890513D01*
X889680Y151963D01*
X894679Y151130D02*
X896345D01*
X895512D01*
Y156128D01*
X894679Y155295D01*
X605536Y135890D02*
Y140888D01*
X608035D01*
X608868Y140055D01*
Y138389D01*
X608035Y137556D01*
X605536D01*
X607202D02*
X608868Y135890D01*
X610534Y140055D02*
X611367Y140888D01*
X613033D01*
X613867Y140055D01*
Y139222D01*
X613033Y138389D01*
X612201D01*
X613033D01*
X613867Y137556D01*
Y136723D01*
X613033Y135890D01*
X611367D01*
X610534Y136723D01*
X615533Y140055D02*
X616366Y140888D01*
X618032D01*
X618865Y140055D01*
Y136723D01*
X618032Y135890D01*
X616366D01*
X615533Y136723D01*
Y140055D01*
X736854Y197104D02*
Y202102D01*
X739353D01*
X740186Y201269D01*
Y199603D01*
X739353Y198770D01*
X736854D01*
X738520D02*
X740186Y197104D01*
X745185D02*
X741852D01*
X745185Y200436D01*
Y201269D01*
X744352Y202102D01*
X742685D01*
X741852Y201269D01*
X746851Y197937D02*
X747684Y197104D01*
X749350D01*
X750183Y197937D01*
Y201269D01*
X749350Y202102D01*
X747684D01*
X746851Y201269D01*
Y200436D01*
X747684Y199603D01*
X750183D01*
X1158494Y297942D02*
Y302940D01*
X1160993D01*
X1161826Y302107D01*
Y300441D01*
X1160993Y299608D01*
X1158494D01*
X1160160D02*
X1161826Y297942D01*
X1166825D02*
X1163492D01*
X1166825Y301274D01*
Y302107D01*
X1165992Y302940D01*
X1164325D01*
X1163492Y302107D01*
X1168491D02*
X1169324Y302940D01*
X1170990D01*
X1171823Y302107D01*
Y301274D01*
X1170990Y300441D01*
X1171823Y299608D01*
Y298775D01*
X1170990Y297942D01*
X1169324D01*
X1168491Y298775D01*
Y299608D01*
X1169324Y300441D01*
X1168491Y301274D01*
Y302107D01*
X1169324Y300441D02*
X1170990D01*
X1360424Y360680D02*
Y365678D01*
X1362923D01*
X1363756Y364845D01*
Y363179D01*
X1362923Y362346D01*
X1360424D01*
X1362090D02*
X1363756Y360680D01*
X1368755D02*
X1365422D01*
X1368755Y364012D01*
Y364845D01*
X1367921Y365678D01*
X1366255D01*
X1365422Y364845D01*
X1370421Y365678D02*
X1373753D01*
Y364845D01*
X1370421Y361513D01*
Y360680D01*
X1403604Y228346D02*
Y233344D01*
X1406103D01*
X1406936Y232511D01*
Y230845D01*
X1406103Y230012D01*
X1403604D01*
X1405270D02*
X1406936Y228346D01*
X1411935D02*
X1408602D01*
X1411935Y231678D01*
Y232511D01*
X1411102Y233344D01*
X1409435D01*
X1408602Y232511D01*
X1416933Y233344D02*
X1415267Y232511D01*
X1413601Y230845D01*
Y229179D01*
X1414434Y228346D01*
X1416100D01*
X1416933Y229179D01*
Y230012D01*
X1416100Y230845D01*
X1413601D01*
X1389126Y287274D02*
Y292272D01*
X1391625D01*
X1392458Y291439D01*
Y289773D01*
X1391625Y288940D01*
X1389126D01*
X1390792D02*
X1392458Y287274D01*
X1397457D02*
X1394124D01*
X1397457Y290606D01*
Y291439D01*
X1396624Y292272D01*
X1394957D01*
X1394124Y291439D01*
X1402455Y292272D02*
X1399123D01*
Y289773D01*
X1400789Y290606D01*
X1401622D01*
X1402455Y289773D01*
Y288107D01*
X1401622Y287274D01*
X1399956D01*
X1399123Y288107D01*
X1422146Y193294D02*
Y198292D01*
X1424645D01*
X1425478Y197459D01*
Y195793D01*
X1424645Y194960D01*
X1422146D01*
X1423812D02*
X1425478Y193294D01*
X1430477D02*
X1427144D01*
X1430477Y196626D01*
Y197459D01*
X1429644Y198292D01*
X1427977D01*
X1427144Y197459D01*
X1434642Y193294D02*
Y198292D01*
X1432143Y195793D01*
X1435475D01*
X1055116Y352044D02*
Y357042D01*
X1057615D01*
X1058448Y356209D01*
Y354543D01*
X1057615Y353710D01*
X1055116D01*
X1056782D02*
X1058448Y352044D01*
X1063447D02*
X1060114D01*
X1063447Y355376D01*
Y356209D01*
X1062614Y357042D01*
X1060947D01*
X1060114Y356209D01*
X1065113D02*
X1065946Y357042D01*
X1067612D01*
X1068445Y356209D01*
Y355376D01*
X1067612Y354543D01*
X1066779D01*
X1067612D01*
X1068445Y353710D01*
Y352877D01*
X1067612Y352044D01*
X1065946D01*
X1065113Y352877D01*
X578104Y352806D02*
Y357804D01*
X580603D01*
X581436Y356971D01*
Y355305D01*
X580603Y354472D01*
X578104D01*
X579770D02*
X581436Y352806D01*
X586435D02*
X583102D01*
X586435Y356138D01*
Y356971D01*
X585602Y357804D01*
X583935D01*
X583102Y356971D01*
X591433Y352806D02*
X588101D01*
X591433Y356138D01*
Y356971D01*
X590600Y357804D01*
X588934D01*
X588101Y356971D01*
X559308Y349504D02*
Y354502D01*
X561807D01*
X562640Y353669D01*
Y352003D01*
X561807Y351170D01*
X559308D01*
X560974D02*
X562640Y349504D01*
X567639D02*
X564306D01*
X567639Y352836D01*
Y353669D01*
X566805Y354502D01*
X565139D01*
X564306Y353669D01*
X569305Y349504D02*
X570971D01*
X570138D01*
Y354502D01*
X569305Y353669D01*
X644144Y378968D02*
Y383966D01*
X646643D01*
X647476Y383133D01*
Y381467D01*
X646643Y380634D01*
X644144D01*
X645810D02*
X647476Y378968D01*
X652475D02*
X649142D01*
X652475Y382300D01*
Y383133D01*
X651641Y383966D01*
X649975D01*
X649142Y383133D01*
X654141D02*
X654974Y383966D01*
X656640D01*
X657473Y383133D01*
Y379801D01*
X656640Y378968D01*
X654974D01*
X654141Y379801D01*
Y383133D01*
X702564Y378206D02*
Y383204D01*
X705063D01*
X705896Y382371D01*
Y380705D01*
X705063Y379872D01*
X702564D01*
X704230D02*
X705896Y378206D01*
X707562D02*
X709229D01*
X708395D01*
Y383204D01*
X707562Y382371D01*
X711728Y379039D02*
X712561Y378206D01*
X714227D01*
X715060Y379039D01*
Y382371D01*
X714227Y383204D01*
X712561D01*
X711728Y382371D01*
Y381538D01*
X712561Y380705D01*
X715060D01*
X916940Y381254D02*
Y386252D01*
X919439D01*
X920272Y385419D01*
Y383753D01*
X919439Y382920D01*
X916940D01*
X918606D02*
X920272Y381254D01*
X921938D02*
X923605D01*
X922771D01*
Y386252D01*
X921938Y385419D01*
X926104D02*
X926937Y386252D01*
X928603D01*
X929436Y385419D01*
Y384586D01*
X928603Y383753D01*
X929436Y382920D01*
Y382087D01*
X928603Y381254D01*
X926937D01*
X926104Y382087D01*
Y382920D01*
X926937Y383753D01*
X926104Y384586D01*
Y385419D01*
X926937Y383753D02*
X928603D01*
X533908Y238506D02*
Y243504D01*
X536407D01*
X537240Y242671D01*
Y241005D01*
X536407Y240172D01*
X533908D01*
X535574D02*
X537240Y238506D01*
X538906D02*
X540573D01*
X539739D01*
Y243504D01*
X538906Y242671D01*
X543072Y243504D02*
X546404D01*
Y242671D01*
X543072Y239339D01*
Y238506D01*
X530606Y205740D02*
Y210738D01*
X533105D01*
X533938Y209905D01*
Y208239D01*
X533105Y207406D01*
X530606D01*
X532272D02*
X533938Y205740D01*
X535604D02*
X537271D01*
X536437D01*
Y210738D01*
X535604Y209905D01*
X543102Y210738D02*
X541436Y209905D01*
X539770Y208239D01*
Y206573D01*
X540603Y205740D01*
X542269D01*
X543102Y206573D01*
Y207406D01*
X542269Y208239D01*
X539770D01*
X552958Y234442D02*
Y239440D01*
X555457D01*
X556290Y238607D01*
Y236941D01*
X555457Y236108D01*
X552958D01*
X554624D02*
X556290Y234442D01*
X557956D02*
X559622D01*
X558789D01*
Y239440D01*
X557956Y238607D01*
X565454Y239440D02*
X562122D01*
Y236941D01*
X563788Y237774D01*
X564621D01*
X565454Y236941D01*
Y235275D01*
X564621Y234442D01*
X562955D01*
X562122Y235275D01*
X475234Y178562D02*
Y183560D01*
X477733D01*
X478566Y182727D01*
Y181061D01*
X477733Y180228D01*
X475234D01*
X476900D02*
X478566Y178562D01*
X480232D02*
X481898D01*
X481065D01*
Y183560D01*
X480232Y182727D01*
X486897Y178562D02*
Y183560D01*
X484398Y181061D01*
X487730D01*
X507746Y234950D02*
Y239948D01*
X510245D01*
X511078Y239115D01*
Y237449D01*
X510245Y236616D01*
X507746D01*
X509412D02*
X511078Y234950D01*
X512744D02*
X514411D01*
X513577D01*
Y239948D01*
X512744Y239115D01*
X516910D02*
X517743Y239948D01*
X519409D01*
X520242Y239115D01*
Y238282D01*
X519409Y237449D01*
X518576D01*
X519409D01*
X520242Y236616D01*
Y235783D01*
X519409Y234950D01*
X517743D01*
X516910Y235783D01*
X717550Y159258D02*
Y164256D01*
X720049D01*
X720882Y163423D01*
Y161757D01*
X720049Y160924D01*
X717550D01*
X719216D02*
X720882Y159258D01*
X722548D02*
X724214D01*
X723381D01*
Y164256D01*
X722548Y163423D01*
X730046Y159258D02*
X726714D01*
X730046Y162590D01*
Y163423D01*
X729213Y164256D01*
X727547D01*
X726714Y163423D01*
X137160Y181864D02*
Y186862D01*
X139659D01*
X140492Y186029D01*
Y184363D01*
X139659Y183530D01*
X137160D01*
X138826D02*
X140492Y181864D01*
X142158D02*
X143825D01*
X142991D01*
Y186862D01*
X142158Y186029D01*
X146324Y181864D02*
X147990D01*
X147157D01*
Y186862D01*
X146324Y186029D01*
X1233678Y212598D02*
Y217596D01*
X1236177D01*
X1237010Y216763D01*
Y215097D01*
X1236177Y214264D01*
X1233678D01*
X1235344D02*
X1237010Y212598D01*
X1238676D02*
X1240342D01*
X1239509D01*
Y217596D01*
X1238676Y216763D01*
X1242842D02*
X1243675Y217596D01*
X1245341D01*
X1246174Y216763D01*
Y213431D01*
X1245341Y212598D01*
X1243675D01*
X1242842Y213431D01*
Y216763D01*
X684022Y389636D02*
Y394634D01*
X686521D01*
X687354Y393801D01*
Y392135D01*
X686521Y391302D01*
X684022D01*
X685688D02*
X687354Y389636D01*
X689020Y390469D02*
X689853Y389636D01*
X691519D01*
X692353Y390469D01*
Y393801D01*
X691519Y394634D01*
X689853D01*
X689020Y393801D01*
Y392968D01*
X689853Y392135D01*
X692353D01*
X727964Y384556D02*
Y389554D01*
X730463D01*
X731296Y388721D01*
Y387055D01*
X730463Y386222D01*
X727964D01*
X729630D02*
X731296Y384556D01*
X732962Y388721D02*
X733795Y389554D01*
X735462D01*
X736295Y388721D01*
Y387888D01*
X735462Y387055D01*
X736295Y386222D01*
Y385389D01*
X735462Y384556D01*
X733795D01*
X732962Y385389D01*
Y386222D01*
X733795Y387055D01*
X732962Y387888D01*
Y388721D01*
X733795Y387055D02*
X735462D01*
X359918Y66802D02*
Y71800D01*
X362417D01*
X363250Y70967D01*
Y69301D01*
X362417Y68468D01*
X359918D01*
X361584D02*
X363250Y66802D01*
X364916Y71800D02*
X368249D01*
Y70967D01*
X364916Y67635D01*
Y66802D01*
X355600Y149098D02*
Y154096D01*
X358099D01*
X358932Y153263D01*
Y151597D01*
X358099Y150764D01*
X355600D01*
X357266D02*
X358932Y149098D01*
X363931Y154096D02*
X362265Y153263D01*
X360598Y151597D01*
Y149931D01*
X361431Y149098D01*
X363097D01*
X363931Y149931D01*
Y150764D01*
X363097Y151597D01*
X360598D01*
X386080Y65278D02*
Y70276D01*
X388579D01*
X389412Y69443D01*
Y67777D01*
X388579Y66944D01*
X386080D01*
X387746D02*
X389412Y65278D01*
X394411Y70276D02*
X391078D01*
Y67777D01*
X392744Y68610D01*
X393577D01*
X394411Y67777D01*
Y66111D01*
X393577Y65278D01*
X391911D01*
X391078Y66111D01*
X443992Y224536D02*
Y229534D01*
X446491D01*
X447324Y228701D01*
Y227035D01*
X446491Y226202D01*
X443992D01*
X445658D02*
X447324Y224536D01*
X451489D02*
Y229534D01*
X448990Y227035D01*
X452323D01*
X483108Y268732D02*
Y273730D01*
X485607D01*
X486440Y272897D01*
Y271231D01*
X485607Y270398D01*
X483108D01*
X484774D02*
X486440Y268732D01*
X488106Y272897D02*
X488939Y273730D01*
X490606D01*
X491439Y272897D01*
Y272064D01*
X490606Y271231D01*
X489772D01*
X490606D01*
X491439Y270398D01*
Y269565D01*
X490606Y268732D01*
X488939D01*
X488106Y269565D01*
X629158Y266192D02*
Y271190D01*
X631657D01*
X632490Y270357D01*
Y268691D01*
X631657Y267858D01*
X629158D01*
X630824D02*
X632490Y266192D01*
X637489D02*
X634156D01*
X637489Y269524D01*
Y270357D01*
X636656Y271190D01*
X634989D01*
X634156Y270357D01*
X605790Y169164D02*
Y174162D01*
X608289D01*
X609122Y173329D01*
Y171663D01*
X608289Y170830D01*
X605790D01*
X607456D02*
X609122Y169164D01*
X610788D02*
X612454D01*
X611621D01*
Y174162D01*
X610788Y173329D01*
X122204Y233751D02*
Y237083D01*
X121371Y237916D01*
X119705D01*
X118872Y237083D01*
Y233751D01*
X119705Y232918D01*
X121371D01*
X120538Y234584D02*
X122204Y232918D01*
X121371D02*
X122204Y233751D01*
X123870Y237083D02*
X124703Y237916D01*
X126369D01*
X127203Y237083D01*
Y236250D01*
X126369Y235417D01*
X125536D01*
X126369D01*
X127203Y234584D01*
Y233751D01*
X126369Y232918D01*
X124703D01*
X123870Y233751D01*
X330484Y83637D02*
Y86969D01*
X329651Y87802D01*
X327985D01*
X327152Y86969D01*
Y83637D01*
X327985Y82804D01*
X329651D01*
X328818Y84470D02*
X330484Y82804D01*
X329651D02*
X330484Y83637D01*
X335483Y82804D02*
X332150D01*
X335483Y86136D01*
Y86969D01*
X334650Y87802D01*
X332983D01*
X332150Y86969D01*
X581944Y97353D02*
Y100685D01*
X581111Y101518D01*
X579445D01*
X578612Y100685D01*
Y97353D01*
X579445Y96520D01*
X581111D01*
X580278Y98186D02*
X581944Y96520D01*
X581111D02*
X581944Y97353D01*
X583610Y96520D02*
X585276D01*
X584443D01*
Y101518D01*
X583610Y100685D01*
X775970Y191688D02*
Y186690D01*
X779302D01*
X780968D02*
X782635D01*
X781801D01*
Y191688D01*
X780968Y190855D01*
X785134D02*
X785967Y191688D01*
X787633D01*
X788466Y190855D01*
Y187523D01*
X787633Y186690D01*
X785967D01*
X785134Y187523D01*
Y190855D01*
X1031240Y325038D02*
Y320040D01*
X1034572D01*
X1036238Y320873D02*
X1037071Y320040D01*
X1038737D01*
X1039571Y320873D01*
Y324205D01*
X1038737Y325038D01*
X1037071D01*
X1036238Y324205D01*
Y323372D01*
X1037071Y322539D01*
X1039571D01*
X1296670Y327578D02*
Y322580D01*
X1300002D01*
X1301668Y326745D02*
X1302501Y327578D01*
X1304167D01*
X1305001Y326745D01*
Y325912D01*
X1304167Y325079D01*
X1305001Y324246D01*
Y323413D01*
X1304167Y322580D01*
X1302501D01*
X1301668Y323413D01*
Y324246D01*
X1302501Y325079D01*
X1301668Y325912D01*
Y326745D01*
X1302501Y325079D02*
X1304167D01*
X773430Y325038D02*
Y320040D01*
X776762D01*
X778428Y325038D02*
X781761D01*
Y324205D01*
X778428Y320873D01*
Y320040D01*
X1028700Y191688D02*
Y186690D01*
X1032032D01*
X1037031Y191688D02*
X1035365Y190855D01*
X1033698Y189189D01*
Y187523D01*
X1034531Y186690D01*
X1036198D01*
X1037031Y187523D01*
Y188356D01*
X1036198Y189189D01*
X1033698D01*
X504190Y327578D02*
Y322580D01*
X507522D01*
X512521Y327578D02*
X509188D01*
Y325079D01*
X510854Y325912D01*
X511688D01*
X512521Y325079D01*
Y323413D01*
X511688Y322580D01*
X510021D01*
X509188Y323413D01*
X502920Y187878D02*
Y182880D01*
X506252D01*
X510418D02*
Y187878D01*
X507918Y185379D01*
X511251D01*
X1297940Y191688D02*
Y186690D01*
X1301272D01*
X1302938Y190855D02*
X1303771Y191688D01*
X1305437D01*
X1306271Y190855D01*
Y190022D01*
X1305437Y189189D01*
X1304604D01*
X1305437D01*
X1306271Y188356D01*
Y187523D01*
X1305437Y186690D01*
X1303771D01*
X1302938Y187523D01*
X223520Y195498D02*
Y190500D01*
X226852D01*
X231851D02*
X228518D01*
X231851Y193832D01*
Y194665D01*
X231017Y195498D01*
X229351D01*
X228518Y194665D01*
X226060Y327578D02*
Y322580D01*
X229392D01*
X231058D02*
X232724D01*
X231891D01*
Y327578D01*
X231058Y326745D01*
X-4542Y302432D02*
X-6208D01*
X-5375D01*
Y298267D01*
X-6208Y297434D01*
X-7041D01*
X-7874Y298267D01*
X-2876Y301599D02*
X-2043Y302432D01*
X-377D01*
X457Y301599D01*
Y300766D01*
X-1209Y299100D01*
Y298267D02*
Y297434D01*
X310164Y347573D02*
X309331Y348406D01*
X307665D01*
X306832Y347573D01*
Y344241D01*
X307665Y343408D01*
X309331D01*
X310164Y344241D01*
X311830Y343408D02*
X313496D01*
X312663D01*
Y348406D01*
X311830Y347573D01*
X315996Y343408D02*
X317662D01*
X316829D01*
Y348406D01*
X315996Y347573D01*
X322660Y343408D02*
Y348406D01*
X320161Y345907D01*
X323493D01*
X1008664Y145643D02*
X1007831Y146476D01*
X1006165D01*
X1005332Y145643D01*
Y142311D01*
X1006165Y141478D01*
X1007831D01*
X1008664Y142311D01*
X1010330Y141478D02*
X1011997D01*
X1011163D01*
Y146476D01*
X1010330Y145643D01*
X1014496Y141478D02*
X1016162D01*
X1015329D01*
Y146476D01*
X1014496Y145643D01*
X1018661D02*
X1019494Y146476D01*
X1021160D01*
X1021993Y145643D01*
Y144810D01*
X1021160Y143977D01*
X1020327D01*
X1021160D01*
X1021993Y143144D01*
Y142311D01*
X1021160Y141478D01*
X1019494D01*
X1018661Y142311D01*
X939322Y231749D02*
X938489Y232582D01*
X936823D01*
X935990Y231749D01*
Y228417D01*
X936823Y227584D01*
X938489D01*
X939322Y228417D01*
X940988Y227584D02*
X942654D01*
X941821D01*
Y232582D01*
X940988Y231749D01*
X945154Y227584D02*
X946820D01*
X945987D01*
Y232582D01*
X945154Y231749D01*
X952651Y227584D02*
X949319D01*
X952651Y230916D01*
Y231749D01*
X951818Y232582D01*
X950152D01*
X949319Y231749D01*
X885982Y283819D02*
X885149Y284652D01*
X883483D01*
X882650Y283819D01*
Y280487D01*
X883483Y279654D01*
X885149D01*
X885982Y280487D01*
X887648Y279654D02*
X889314D01*
X888481D01*
Y284652D01*
X887648Y283819D01*
X891814Y279654D02*
X893480D01*
X892647D01*
Y284652D01*
X891814Y283819D01*
X895979Y279654D02*
X897645D01*
X896812D01*
Y284652D01*
X895979Y283819D01*
X1002314Y317093D02*
X1001481Y317926D01*
X999815D01*
X998982Y317093D01*
Y313761D01*
X999815Y312928D01*
X1001481D01*
X1002314Y313761D01*
X1003980Y312928D02*
X1005647D01*
X1004813D01*
Y317926D01*
X1003980Y317093D01*
X1008146Y312928D02*
X1009812D01*
X1008979D01*
Y317926D01*
X1008146Y317093D01*
X1012311D02*
X1013144Y317926D01*
X1014810D01*
X1015643Y317093D01*
Y313761D01*
X1014810Y312928D01*
X1013144D01*
X1012311Y313761D01*
Y317093D01*
X183672Y150469D02*
X182839Y151302D01*
X181173D01*
X180340Y150469D01*
Y147137D01*
X181173Y146304D01*
X182839D01*
X183672Y147137D01*
X185338Y146304D02*
X187005D01*
X186171D01*
Y151302D01*
X185338Y150469D01*
X189504D02*
X190337Y151302D01*
X192003D01*
X192836Y150469D01*
Y147137D01*
X192003Y146304D01*
X190337D01*
X189504Y147137D01*
Y150469D01*
X194502Y147137D02*
X195335Y146304D01*
X197001D01*
X197834Y147137D01*
Y150469D01*
X197001Y151302D01*
X195335D01*
X194502Y150469D01*
Y149636D01*
X195335Y148803D01*
X197834D01*
X192308Y76555D02*
X191475Y77388D01*
X189809D01*
X188976Y76555D01*
Y73223D01*
X189809Y72390D01*
X191475D01*
X192308Y73223D01*
X193974Y72390D02*
X195641D01*
X194807D01*
Y77388D01*
X193974Y76555D01*
X198140D02*
X198973Y77388D01*
X200639D01*
X201472Y76555D01*
Y73223D01*
X200639Y72390D01*
X198973D01*
X198140Y73223D01*
Y76555D01*
X203138D02*
X203971Y77388D01*
X205637D01*
X206470Y76555D01*
Y75722D01*
X205637Y74889D01*
X206470Y74056D01*
Y73223D01*
X205637Y72390D01*
X203971D01*
X203138Y73223D01*
Y74056D01*
X203971Y74889D01*
X203138Y75722D01*
Y76555D01*
X203971Y74889D02*
X205637D01*
X1227104Y347827D02*
X1226271Y348660D01*
X1224605D01*
X1223772Y347827D01*
Y344495D01*
X1224605Y343662D01*
X1226271D01*
X1227104Y344495D01*
X1228770Y343662D02*
X1230436D01*
X1229603D01*
Y348660D01*
X1228770Y347827D01*
X1232936D02*
X1233769Y348660D01*
X1235435D01*
X1236268Y347827D01*
Y344495D01*
X1235435Y343662D01*
X1233769D01*
X1232936Y344495D01*
Y347827D01*
X1237934Y348660D02*
X1241266D01*
Y347827D01*
X1237934Y344495D01*
Y343662D01*
X527334Y94843D02*
X526501Y95676D01*
X524835D01*
X524002Y94843D01*
Y91511D01*
X524835Y90678D01*
X526501D01*
X527334Y91511D01*
X529000Y90678D02*
X530667D01*
X529833D01*
Y95676D01*
X529000Y94843D01*
X533166D02*
X533999Y95676D01*
X535665D01*
X536498Y94843D01*
Y91511D01*
X535665Y90678D01*
X533999D01*
X533166Y91511D01*
Y94843D01*
X541496Y95676D02*
X539830Y94843D01*
X538164Y93177D01*
Y91511D01*
X538997Y90678D01*
X540663D01*
X541496Y91511D01*
Y92344D01*
X540663Y93177D01*
X538164D01*
X996218Y371195D02*
X995385Y372028D01*
X993719D01*
X992886Y371195D01*
Y367863D01*
X993719Y367030D01*
X995385D01*
X996218Y367863D01*
X997884Y367030D02*
X999550D01*
X998717D01*
Y372028D01*
X997884Y371195D01*
X1002050D02*
X1002883Y372028D01*
X1004549D01*
X1005382Y371195D01*
Y367863D01*
X1004549Y367030D01*
X1002883D01*
X1002050Y367863D01*
Y371195D01*
X1010380Y372028D02*
X1007048D01*
Y369529D01*
X1008714Y370362D01*
X1009547D01*
X1010380Y369529D01*
Y367863D01*
X1009547Y367030D01*
X1007881D01*
X1007048Y367863D01*
X1052098Y218795D02*
X1051265Y219628D01*
X1049599D01*
X1048766Y218795D01*
Y215463D01*
X1049599Y214630D01*
X1051265D01*
X1052098Y215463D01*
X1053764Y214630D02*
X1055431D01*
X1054597D01*
Y219628D01*
X1053764Y218795D01*
X1057930D02*
X1058763Y219628D01*
X1060429D01*
X1061262Y218795D01*
Y215463D01*
X1060429Y214630D01*
X1058763D01*
X1057930Y215463D01*
Y218795D01*
X1065427Y214630D02*
Y219628D01*
X1062928Y217129D01*
X1066260D01*
X694974Y58013D02*
X694141Y58846D01*
X692475D01*
X691642Y58013D01*
Y54681D01*
X692475Y53848D01*
X694141D01*
X694974Y54681D01*
X696640Y53848D02*
X698307D01*
X697473D01*
Y58846D01*
X696640Y58013D01*
X700806D02*
X701639Y58846D01*
X703305D01*
X704138Y58013D01*
Y54681D01*
X703305Y53848D01*
X701639D01*
X700806Y54681D01*
Y58013D01*
X705804D02*
X706637Y58846D01*
X708303D01*
X709136Y58013D01*
Y57180D01*
X708303Y56347D01*
X707470D01*
X708303D01*
X709136Y55514D01*
Y54681D01*
X708303Y53848D01*
X706637D01*
X705804Y54681D01*
X1348008Y95605D02*
X1347175Y96438D01*
X1345509D01*
X1344676Y95605D01*
Y92273D01*
X1345509Y91440D01*
X1347175D01*
X1348008Y92273D01*
X1349674Y91440D02*
X1351340D01*
X1350507D01*
Y96438D01*
X1349674Y95605D01*
X1353840D02*
X1354673Y96438D01*
X1356339D01*
X1357172Y95605D01*
Y92273D01*
X1356339Y91440D01*
X1354673D01*
X1353840Y92273D01*
Y95605D01*
X1362170Y91440D02*
X1358838D01*
X1362170Y94772D01*
Y95605D01*
X1361337Y96438D01*
X1359671D01*
X1358838Y95605D01*
X873028Y107035D02*
X872195Y107868D01*
X870529D01*
X869696Y107035D01*
Y103703D01*
X870529Y102870D01*
X872195D01*
X873028Y103703D01*
X874694Y102870D02*
X876360D01*
X875527D01*
Y107868D01*
X874694Y107035D01*
X878860D02*
X879693Y107868D01*
X881359D01*
X882192Y107035D01*
Y103703D01*
X881359Y102870D01*
X879693D01*
X878860Y103703D01*
Y107035D01*
X883858Y102870D02*
X885524D01*
X884691D01*
Y107868D01*
X883858Y107035D01*
X116616Y187299D02*
X115783Y188132D01*
X114117D01*
X113284Y187299D01*
Y183967D01*
X114117Y183134D01*
X115783D01*
X116616Y183967D01*
X118282Y183134D02*
X119949D01*
X119115D01*
Y188132D01*
X118282Y187299D01*
X122448D02*
X123281Y188132D01*
X124947D01*
X125780Y187299D01*
Y183967D01*
X124947Y183134D01*
X123281D01*
X122448Y183967D01*
Y187299D01*
X127446D02*
X128279Y188132D01*
X129945D01*
X130778Y187299D01*
Y183967D01*
X129945Y183134D01*
X128279D01*
X127446Y183967D01*
Y187299D01*
X1248186Y162407D02*
X1247353Y163240D01*
X1245687D01*
X1244854Y162407D01*
Y159075D01*
X1245687Y158242D01*
X1247353D01*
X1248186Y159075D01*
X1249852D02*
X1250685Y158242D01*
X1252352D01*
X1253185Y159075D01*
Y162407D01*
X1252352Y163240D01*
X1250685D01*
X1249852Y162407D01*
Y161574D01*
X1250685Y160741D01*
X1253185D01*
X1254851Y159075D02*
X1255684Y158242D01*
X1257350D01*
X1258183Y159075D01*
Y162407D01*
X1257350Y163240D01*
X1255684D01*
X1254851Y162407D01*
Y161574D01*
X1255684Y160741D01*
X1258183D01*
X1243106Y110083D02*
X1242273Y110916D01*
X1240607D01*
X1239774Y110083D01*
Y106751D01*
X1240607Y105918D01*
X1242273D01*
X1243106Y106751D01*
X1244772D02*
X1245605Y105918D01*
X1247271D01*
X1248105Y106751D01*
Y110083D01*
X1247271Y110916D01*
X1245605D01*
X1244772Y110083D01*
Y109250D01*
X1245605Y108417D01*
X1248105D01*
X1249771Y110083D02*
X1250604Y110916D01*
X1252270D01*
X1253103Y110083D01*
Y109250D01*
X1252270Y108417D01*
X1253103Y107584D01*
Y106751D01*
X1252270Y105918D01*
X1250604D01*
X1249771Y106751D01*
Y107584D01*
X1250604Y108417D01*
X1249771Y109250D01*
Y110083D01*
X1250604Y108417D02*
X1252270D01*
X1319560Y227431D02*
X1318727Y228264D01*
X1317061D01*
X1316228Y227431D01*
Y224099D01*
X1317061Y223266D01*
X1318727D01*
X1319560Y224099D01*
X1321226D02*
X1322059Y223266D01*
X1323725D01*
X1324559Y224099D01*
Y227431D01*
X1323725Y228264D01*
X1322059D01*
X1321226Y227431D01*
Y226598D01*
X1322059Y225765D01*
X1324559D01*
X1326225Y228264D02*
X1329557D01*
Y227431D01*
X1326225Y224099D01*
Y223266D01*
X1241328Y325221D02*
X1240495Y326054D01*
X1238829D01*
X1237996Y325221D01*
Y321889D01*
X1238829Y321056D01*
X1240495D01*
X1241328Y321889D01*
X1242994D02*
X1243827Y321056D01*
X1245493D01*
X1246327Y321889D01*
Y325221D01*
X1245493Y326054D01*
X1243827D01*
X1242994Y325221D01*
Y324388D01*
X1243827Y323555D01*
X1246327D01*
X1251325Y326054D02*
X1249659Y325221D01*
X1247993Y323555D01*
Y321889D01*
X1248826Y321056D01*
X1250492D01*
X1251325Y321889D01*
Y322722D01*
X1250492Y323555D01*
X1247993D01*
X686592Y90779D02*
X685759Y91612D01*
X684093D01*
X683260Y90779D01*
Y87447D01*
X684093Y86614D01*
X685759D01*
X686592Y87447D01*
X688258D02*
X689091Y86614D01*
X690758D01*
X691591Y87447D01*
Y90779D01*
X690758Y91612D01*
X689091D01*
X688258Y90779D01*
Y89946D01*
X689091Y89113D01*
X691591D01*
X696589Y91612D02*
X693257D01*
Y89113D01*
X694923Y89946D01*
X695756D01*
X696589Y89113D01*
Y87447D01*
X695756Y86614D01*
X694090D01*
X693257Y87447D01*
X1192814Y107543D02*
X1191981Y108376D01*
X1190315D01*
X1189482Y107543D01*
Y104211D01*
X1190315Y103378D01*
X1191981D01*
X1192814Y104211D01*
X1194480D02*
X1195313Y103378D01*
X1196980D01*
X1197813Y104211D01*
Y107543D01*
X1196980Y108376D01*
X1195313D01*
X1194480Y107543D01*
Y106710D01*
X1195313Y105877D01*
X1197813D01*
X1201978Y103378D02*
Y108376D01*
X1199479Y105877D01*
X1202811D01*
X1016284Y287883D02*
X1015451Y288716D01*
X1013785D01*
X1012952Y287883D01*
Y284551D01*
X1013785Y283718D01*
X1015451D01*
X1016284Y284551D01*
X1017950D02*
X1018783Y283718D01*
X1020450D01*
X1021283Y284551D01*
Y287883D01*
X1020450Y288716D01*
X1018783D01*
X1017950Y287883D01*
Y287050D01*
X1018783Y286217D01*
X1021283D01*
X1022949Y287883D02*
X1023782Y288716D01*
X1025448D01*
X1026281Y287883D01*
Y287050D01*
X1025448Y286217D01*
X1024615D01*
X1025448D01*
X1026281Y285384D01*
Y284551D01*
X1025448Y283718D01*
X1023782D01*
X1022949Y284551D01*
X976914Y111607D02*
X976081Y112440D01*
X974415D01*
X973582Y111607D01*
Y108275D01*
X974415Y107442D01*
X976081D01*
X976914Y108275D01*
X978580D02*
X979413Y107442D01*
X981079D01*
X981913Y108275D01*
Y111607D01*
X981079Y112440D01*
X979413D01*
X978580Y111607D01*
Y110774D01*
X979413Y109941D01*
X981913D01*
X986911Y107442D02*
X983579D01*
X986911Y110774D01*
Y111607D01*
X986078Y112440D01*
X984412D01*
X983579Y111607D01*
X800130Y221843D02*
X799297Y222676D01*
X797631D01*
X796798Y221843D01*
Y218511D01*
X797631Y217678D01*
X799297D01*
X800130Y218511D01*
X801796D02*
X802629Y217678D01*
X804296D01*
X805129Y218511D01*
Y221843D01*
X804296Y222676D01*
X802629D01*
X801796Y221843D01*
Y221010D01*
X802629Y220177D01*
X805129D01*
X806795Y217678D02*
X808461D01*
X807628D01*
Y222676D01*
X806795Y221843D01*
X978438Y174091D02*
X977605Y174924D01*
X975939D01*
X975106Y174091D01*
Y170759D01*
X975939Y169926D01*
X977605D01*
X978438Y170759D01*
X980104D02*
X980937Y169926D01*
X982604D01*
X983437Y170759D01*
Y174091D01*
X982604Y174924D01*
X980937D01*
X980104Y174091D01*
Y173258D01*
X980937Y172425D01*
X983437D01*
X985103Y174091D02*
X985936Y174924D01*
X987602D01*
X988435Y174091D01*
Y170759D01*
X987602Y169926D01*
X985936D01*
X985103Y170759D01*
Y174091D01*
X893094Y214477D02*
X892261Y215310D01*
X890595D01*
X889762Y214477D01*
Y211145D01*
X890595Y210312D01*
X892261D01*
X893094Y211145D01*
X894760Y214477D02*
X895593Y215310D01*
X897260D01*
X898093Y214477D01*
Y213644D01*
X897260Y212811D01*
X898093Y211978D01*
Y211145D01*
X897260Y210312D01*
X895593D01*
X894760Y211145D01*
Y211978D01*
X895593Y212811D01*
X894760Y213644D01*
Y214477D01*
X895593Y212811D02*
X897260D01*
X899759Y211145D02*
X900592Y210312D01*
X902258D01*
X903091Y211145D01*
Y214477D01*
X902258Y215310D01*
X900592D01*
X899759Y214477D01*
Y213644D01*
X900592Y212811D01*
X903091D01*
X203992Y321157D02*
X203159Y321990D01*
X201493D01*
X200660Y321157D01*
Y317825D01*
X201493Y316992D01*
X203159D01*
X203992Y317825D01*
X205658Y321157D02*
X206491Y321990D01*
X208158D01*
X208991Y321157D01*
Y320324D01*
X208158Y319491D01*
X208991Y318658D01*
Y317825D01*
X208158Y316992D01*
X206491D01*
X205658Y317825D01*
Y318658D01*
X206491Y319491D01*
X205658Y320324D01*
Y321157D01*
X206491Y319491D02*
X208158D01*
X210657Y321157D02*
X211490Y321990D01*
X213156D01*
X213989Y321157D01*
Y320324D01*
X213156Y319491D01*
X213989Y318658D01*
Y317825D01*
X213156Y316992D01*
X211490D01*
X210657Y317825D01*
Y318658D01*
X211490Y319491D01*
X210657Y320324D01*
Y321157D01*
X211490Y319491D02*
X213156D01*
X173512Y330809D02*
X172679Y331642D01*
X171013D01*
X170180Y330809D01*
Y327477D01*
X171013Y326644D01*
X172679D01*
X173512Y327477D01*
X175178Y330809D02*
X176011Y331642D01*
X177677D01*
X178511Y330809D01*
Y329976D01*
X177677Y329143D01*
X178511Y328310D01*
Y327477D01*
X177677Y326644D01*
X176011D01*
X175178Y327477D01*
Y328310D01*
X176011Y329143D01*
X175178Y329976D01*
Y330809D01*
X176011Y329143D02*
X177677D01*
X180177Y331642D02*
X183509D01*
Y330809D01*
X180177Y327477D01*
Y326644D01*
X219994Y234543D02*
X219161Y235376D01*
X217495D01*
X216662Y234543D01*
Y231211D01*
X217495Y230378D01*
X219161D01*
X219994Y231211D01*
X221660Y234543D02*
X222493Y235376D01*
X224160D01*
X224993Y234543D01*
Y233710D01*
X224160Y232877D01*
X224993Y232044D01*
Y231211D01*
X224160Y230378D01*
X222493D01*
X221660Y231211D01*
Y232044D01*
X222493Y232877D01*
X221660Y233710D01*
Y234543D01*
X222493Y232877D02*
X224160D01*
X229991Y235376D02*
X228325Y234543D01*
X226659Y232877D01*
Y231211D01*
X227492Y230378D01*
X229158D01*
X229991Y231211D01*
Y232044D01*
X229158Y232877D01*
X226659D01*
X277144Y221843D02*
X276311Y222676D01*
X274645D01*
X273812Y221843D01*
Y218511D01*
X274645Y217678D01*
X276311D01*
X277144Y218511D01*
X278810Y221843D02*
X279643Y222676D01*
X281310D01*
X282143Y221843D01*
Y221010D01*
X281310Y220177D01*
X282143Y219344D01*
Y218511D01*
X281310Y217678D01*
X279643D01*
X278810Y218511D01*
Y219344D01*
X279643Y220177D01*
X278810Y221010D01*
Y221843D01*
X279643Y220177D02*
X281310D01*
X287141Y222676D02*
X283809D01*
Y220177D01*
X285475Y221010D01*
X286308D01*
X287141Y220177D01*
Y218511D01*
X286308Y217678D01*
X284642D01*
X283809Y218511D01*
X298988Y228955D02*
X298155Y229788D01*
X296489D01*
X295656Y228955D01*
Y225623D01*
X296489Y224790D01*
X298155D01*
X298988Y225623D01*
X300654Y228955D02*
X301487Y229788D01*
X303153D01*
X303987Y228955D01*
Y228122D01*
X303153Y227289D01*
X303987Y226456D01*
Y225623D01*
X303153Y224790D01*
X301487D01*
X300654Y225623D01*
Y226456D01*
X301487Y227289D01*
X300654Y228122D01*
Y228955D01*
X301487Y227289D02*
X303153D01*
X308152Y224790D02*
Y229788D01*
X305653Y227289D01*
X308985D01*
X325658Y267055D02*
X324825Y267888D01*
X323159D01*
X322326Y267055D01*
Y263723D01*
X323159Y262890D01*
X324825D01*
X325658Y263723D01*
X327324Y267055D02*
X328157Y267888D01*
X329823D01*
X330657Y267055D01*
Y266222D01*
X329823Y265389D01*
X330657Y264556D01*
Y263723D01*
X329823Y262890D01*
X328157D01*
X327324Y263723D01*
Y264556D01*
X328157Y265389D01*
X327324Y266222D01*
Y267055D01*
X328157Y265389D02*
X329823D01*
X332323Y267055D02*
X333156Y267888D01*
X334822D01*
X335655Y267055D01*
Y266222D01*
X334822Y265389D01*
X333989D01*
X334822D01*
X335655Y264556D01*
Y263723D01*
X334822Y262890D01*
X333156D01*
X332323Y263723D01*
X446054Y257403D02*
X445221Y258236D01*
X443555D01*
X442722Y257403D01*
Y254071D01*
X443555Y253238D01*
X445221D01*
X446054Y254071D01*
X447720Y257403D02*
X448553Y258236D01*
X450219D01*
X451053Y257403D01*
Y256570D01*
X450219Y255737D01*
X451053Y254904D01*
Y254071D01*
X450219Y253238D01*
X448553D01*
X447720Y254071D01*
Y254904D01*
X448553Y255737D01*
X447720Y256570D01*
Y257403D01*
X448553Y255737D02*
X450219D01*
X456051Y253238D02*
X452719D01*
X456051Y256570D01*
Y257403D01*
X455218Y258236D01*
X453552D01*
X452719Y257403D01*
X447578Y157835D02*
X446745Y158668D01*
X445079D01*
X444246Y157835D01*
Y154503D01*
X445079Y153670D01*
X446745D01*
X447578Y154503D01*
X449244Y157835D02*
X450077Y158668D01*
X451744D01*
X452577Y157835D01*
Y157002D01*
X451744Y156169D01*
X452577Y155336D01*
Y154503D01*
X451744Y153670D01*
X450077D01*
X449244Y154503D01*
Y155336D01*
X450077Y156169D01*
X449244Y157002D01*
Y157835D01*
X450077Y156169D02*
X451744D01*
X454243Y153670D02*
X455909D01*
X455076D01*
Y158668D01*
X454243Y157835D01*
X640618Y112115D02*
X639785Y112948D01*
X638119D01*
X637286Y112115D01*
Y108783D01*
X638119Y107950D01*
X639785D01*
X640618Y108783D01*
X642284Y112115D02*
X643117Y112948D01*
X644783D01*
X645617Y112115D01*
Y111282D01*
X644783Y110449D01*
X645617Y109616D01*
Y108783D01*
X644783Y107950D01*
X643117D01*
X642284Y108783D01*
Y109616D01*
X643117Y110449D01*
X642284Y111282D01*
Y112115D01*
X643117Y110449D02*
X644783D01*
X647283Y112115D02*
X648116Y112948D01*
X649782D01*
X650615Y112115D01*
Y108783D01*
X649782Y107950D01*
X648116D01*
X647283Y108783D01*
Y112115D01*
X89946Y194919D02*
X89113Y195752D01*
X87447D01*
X86614Y194919D01*
Y191587D01*
X87447Y190754D01*
X89113D01*
X89946Y191587D01*
X91612Y195752D02*
X94945D01*
Y194919D01*
X91612Y191587D01*
Y190754D01*
X96611Y191587D02*
X97444Y190754D01*
X99110D01*
X99943Y191587D01*
Y194919D01*
X99110Y195752D01*
X97444D01*
X96611Y194919D01*
Y194086D01*
X97444Y193253D01*
X99943D01*
X117886Y346557D02*
X117053Y347390D01*
X115387D01*
X114554Y346557D01*
Y343225D01*
X115387Y342392D01*
X117053D01*
X117886Y343225D01*
X119552Y347390D02*
X122885D01*
Y346557D01*
X119552Y343225D01*
Y342392D01*
X124551Y346557D02*
X125384Y347390D01*
X127050D01*
X127883Y346557D01*
Y345724D01*
X127050Y344891D01*
X127883Y344058D01*
Y343225D01*
X127050Y342392D01*
X125384D01*
X124551Y343225D01*
Y344058D01*
X125384Y344891D01*
X124551Y345724D01*
Y346557D01*
X125384Y344891D02*
X127050D01*
X88676Y322427D02*
X87843Y323260D01*
X86177D01*
X85344Y322427D01*
Y319095D01*
X86177Y318262D01*
X87843D01*
X88676Y319095D01*
X90342Y323260D02*
X93675D01*
Y322427D01*
X90342Y319095D01*
Y318262D01*
X95341Y323260D02*
X98673D01*
Y322427D01*
X95341Y319095D01*
Y318262D01*
X1123726Y391515D02*
X1122893Y392348D01*
X1121227D01*
X1120394Y391515D01*
Y388183D01*
X1121227Y387350D01*
X1122893D01*
X1123726Y388183D01*
X1125392Y392348D02*
X1128725D01*
Y391515D01*
X1125392Y388183D01*
Y387350D01*
X1133723Y392348D02*
X1132057Y391515D01*
X1130391Y389849D01*
Y388183D01*
X1131224Y387350D01*
X1132890D01*
X1133723Y388183D01*
Y389016D01*
X1132890Y389849D01*
X1130391D01*
X89438Y255371D02*
X88605Y256204D01*
X86939D01*
X86106Y255371D01*
Y252039D01*
X86939Y251206D01*
X88605D01*
X89438Y252039D01*
X91104Y256204D02*
X94437D01*
Y255371D01*
X91104Y252039D01*
Y251206D01*
X99435Y256204D02*
X96103D01*
Y253705D01*
X97769Y254538D01*
X98602D01*
X99435Y253705D01*
Y252039D01*
X98602Y251206D01*
X96936D01*
X96103Y252039D01*
X1092738Y104495D02*
X1091905Y105328D01*
X1090239D01*
X1089406Y104495D01*
Y101163D01*
X1090239Y100330D01*
X1091905D01*
X1092738Y101163D01*
X1094404Y105328D02*
X1097737D01*
Y104495D01*
X1094404Y101163D01*
Y100330D01*
X1101902D02*
Y105328D01*
X1099403Y102829D01*
X1102735D01*
X1228374Y181203D02*
X1227541Y182036D01*
X1225875D01*
X1225042Y181203D01*
Y177871D01*
X1225875Y177038D01*
X1227541D01*
X1228374Y177871D01*
X1230040Y182036D02*
X1233373D01*
Y181203D01*
X1230040Y177871D01*
Y177038D01*
X1235039Y181203D02*
X1235872Y182036D01*
X1237538D01*
X1238371Y181203D01*
Y180370D01*
X1237538Y179537D01*
X1236705D01*
X1237538D01*
X1238371Y178704D01*
Y177871D01*
X1237538Y177038D01*
X1235872D01*
X1235039Y177871D01*
X1210594Y238353D02*
X1209761Y239186D01*
X1208095D01*
X1207262Y238353D01*
Y235021D01*
X1208095Y234188D01*
X1209761D01*
X1210594Y235021D01*
X1212260Y239186D02*
X1215593D01*
Y238353D01*
X1212260Y235021D01*
Y234188D01*
X1220591D02*
X1217259D01*
X1220591Y237520D01*
Y238353D01*
X1219758Y239186D01*
X1218092D01*
X1217259Y238353D01*
X1162334Y218033D02*
X1161501Y218866D01*
X1159835D01*
X1159002Y218033D01*
Y214701D01*
X1159835Y213868D01*
X1161501D01*
X1162334Y214701D01*
X1164000Y218866D02*
X1167333D01*
Y218033D01*
X1164000Y214701D01*
Y213868D01*
X1168999D02*
X1170665D01*
X1169832D01*
Y218866D01*
X1168999Y218033D01*
X114584Y298297D02*
X113751Y299130D01*
X112085D01*
X111252Y298297D01*
Y294965D01*
X112085Y294132D01*
X113751D01*
X114584Y294965D01*
X116250Y299130D02*
X119583D01*
Y298297D01*
X116250Y294965D01*
Y294132D01*
X121249Y298297D02*
X122082Y299130D01*
X123748D01*
X124581Y298297D01*
Y294965D01*
X123748Y294132D01*
X122082D01*
X121249Y294965D01*
Y298297D01*
X145318Y331317D02*
X144485Y332150D01*
X142819D01*
X141986Y331317D01*
Y327985D01*
X142819Y327152D01*
X144485D01*
X145318Y327985D01*
X150317Y332150D02*
X148651Y331317D01*
X146984Y329651D01*
Y327985D01*
X147817Y327152D01*
X149483D01*
X150317Y327985D01*
Y328818D01*
X149483Y329651D01*
X146984D01*
X151983Y327985D02*
X152816Y327152D01*
X154482D01*
X155315Y327985D01*
Y331317D01*
X154482Y332150D01*
X152816D01*
X151983Y331317D01*
Y330484D01*
X152816Y329651D01*
X155315D01*
X249204Y360527D02*
X248371Y361360D01*
X246705D01*
X245872Y360527D01*
Y357195D01*
X246705Y356362D01*
X248371D01*
X249204Y357195D01*
X254203Y361360D02*
X252537Y360527D01*
X250870Y358861D01*
Y357195D01*
X251703Y356362D01*
X253370D01*
X254203Y357195D01*
Y358028D01*
X253370Y358861D01*
X250870D01*
X255869Y360527D02*
X256702Y361360D01*
X258368D01*
X259201Y360527D01*
Y359694D01*
X258368Y358861D01*
X259201Y358028D01*
Y357195D01*
X258368Y356362D01*
X256702D01*
X255869Y357195D01*
Y358028D01*
X256702Y358861D01*
X255869Y359694D01*
Y360527D01*
X256702Y358861D02*
X258368D01*
X661954Y98653D02*
X661121Y99486D01*
X659455D01*
X658622Y98653D01*
Y95321D01*
X659455Y94488D01*
X661121D01*
X661954Y95321D01*
X666953Y99486D02*
X665286Y98653D01*
X663620Y96987D01*
Y95321D01*
X664453Y94488D01*
X666120D01*
X666953Y95321D01*
Y96154D01*
X666120Y96987D01*
X663620D01*
X668619Y99486D02*
X671951D01*
Y98653D01*
X668619Y95321D01*
Y94488D01*
X752632Y156057D02*
X751799Y156890D01*
X750133D01*
X749300Y156057D01*
Y152725D01*
X750133Y151892D01*
X751799D01*
X752632Y152725D01*
X757631Y156890D02*
X755965Y156057D01*
X754298Y154391D01*
Y152725D01*
X755131Y151892D01*
X756797D01*
X757631Y152725D01*
Y153558D01*
X756797Y154391D01*
X754298D01*
X762629Y156890D02*
X760963Y156057D01*
X759297Y154391D01*
Y152725D01*
X760130Y151892D01*
X761796D01*
X762629Y152725D01*
Y153558D01*
X761796Y154391D01*
X759297D01*
X714532Y217779D02*
X713699Y218612D01*
X712033D01*
X711200Y217779D01*
Y214447D01*
X712033Y213614D01*
X713699D01*
X714532Y214447D01*
X719531Y218612D02*
X717865Y217779D01*
X716198Y216113D01*
Y214447D01*
X717031Y213614D01*
X718698D01*
X719531Y214447D01*
Y215280D01*
X718698Y216113D01*
X716198D01*
X724529Y218612D02*
X721197D01*
Y216113D01*
X722863Y216946D01*
X723696D01*
X724529Y216113D01*
Y214447D01*
X723696Y213614D01*
X722030D01*
X721197Y214447D01*
X1274856Y149199D02*
X1274023Y150032D01*
X1272357D01*
X1271524Y149199D01*
Y145867D01*
X1272357Y145034D01*
X1274023D01*
X1274856Y145867D01*
X1279855Y150032D02*
X1278188Y149199D01*
X1276522Y147533D01*
Y145867D01*
X1277355Y145034D01*
X1279022D01*
X1279855Y145867D01*
Y146700D01*
X1279022Y147533D01*
X1276522D01*
X1284020Y145034D02*
Y150032D01*
X1281521Y147533D01*
X1284853D01*
X1282476Y111861D02*
X1281643Y112694D01*
X1279977D01*
X1279144Y111861D01*
Y108529D01*
X1279977Y107696D01*
X1281643D01*
X1282476Y108529D01*
X1287475Y112694D02*
X1285809Y111861D01*
X1284142Y110195D01*
Y108529D01*
X1284975Y107696D01*
X1286642D01*
X1287475Y108529D01*
Y109362D01*
X1286642Y110195D01*
X1284142D01*
X1289141Y111861D02*
X1289974Y112694D01*
X1291640D01*
X1292473Y111861D01*
Y111028D01*
X1291640Y110195D01*
X1290807D01*
X1291640D01*
X1292473Y109362D01*
Y108529D01*
X1291640Y107696D01*
X1289974D01*
X1289141Y108529D01*
X1265966Y274675D02*
X1265133Y275508D01*
X1263467D01*
X1262634Y274675D01*
Y271343D01*
X1263467Y270510D01*
X1265133D01*
X1265966Y271343D01*
X1270965Y275508D02*
X1269298Y274675D01*
X1267632Y273009D01*
Y271343D01*
X1268465Y270510D01*
X1270132D01*
X1270965Y271343D01*
Y272176D01*
X1270132Y273009D01*
X1267632D01*
X1275963Y270510D02*
X1272631D01*
X1275963Y273842D01*
Y274675D01*
X1275130Y275508D01*
X1273464D01*
X1272631Y274675D01*
X481106Y361289D02*
X480273Y362122D01*
X478607D01*
X477774Y361289D01*
Y357957D01*
X478607Y357124D01*
X480273D01*
X481106Y357957D01*
X486105Y362122D02*
X484439Y361289D01*
X482772Y359623D01*
Y357957D01*
X483605Y357124D01*
X485271D01*
X486105Y357957D01*
Y358790D01*
X485271Y359623D01*
X482772D01*
X487771Y357124D02*
X489437D01*
X488604D01*
Y362122D01*
X487771Y361289D01*
X1257076Y222605D02*
X1256243Y223438D01*
X1254577D01*
X1253744Y222605D01*
Y219273D01*
X1254577Y218440D01*
X1256243D01*
X1257076Y219273D01*
X1262075Y223438D02*
X1260408Y222605D01*
X1258742Y220939D01*
Y219273D01*
X1259575Y218440D01*
X1261242D01*
X1262075Y219273D01*
Y220106D01*
X1261242Y220939D01*
X1258742D01*
X1263741Y222605D02*
X1264574Y223438D01*
X1266240D01*
X1267073Y222605D01*
Y219273D01*
X1266240Y218440D01*
X1264574D01*
X1263741Y219273D01*
Y222605D01*
X1238026Y275945D02*
X1237193Y276778D01*
X1235527D01*
X1234694Y275945D01*
Y272613D01*
X1235527Y271780D01*
X1237193D01*
X1238026Y272613D01*
X1243025Y276778D02*
X1239692D01*
Y274279D01*
X1241358Y275112D01*
X1242191D01*
X1243025Y274279D01*
Y272613D01*
X1242191Y271780D01*
X1240525D01*
X1239692Y272613D01*
X1244691D02*
X1245524Y271780D01*
X1247190D01*
X1248023Y272613D01*
Y275945D01*
X1247190Y276778D01*
X1245524D01*
X1244691Y275945D01*
Y275112D01*
X1245524Y274279D01*
X1248023D01*
X190276Y269087D02*
X189443Y269920D01*
X187777D01*
X186944Y269087D01*
Y265755D01*
X187777Y264922D01*
X189443D01*
X190276Y265755D01*
X195275Y269920D02*
X191942D01*
Y267421D01*
X193608Y268254D01*
X194442D01*
X195275Y267421D01*
Y265755D01*
X194442Y264922D01*
X192775D01*
X191942Y265755D01*
X196941Y269087D02*
X197774Y269920D01*
X199440D01*
X200273Y269087D01*
Y268254D01*
X199440Y267421D01*
X200273Y266588D01*
Y265755D01*
X199440Y264922D01*
X197774D01*
X196941Y265755D01*
Y266588D01*
X197774Y267421D01*
X196941Y268254D01*
Y269087D01*
X197774Y267421D02*
X199440D01*
X142016Y286867D02*
X141183Y287700D01*
X139517D01*
X138684Y286867D01*
Y283535D01*
X139517Y282702D01*
X141183D01*
X142016Y283535D01*
X147015Y287700D02*
X143682D01*
Y285201D01*
X145349Y286034D01*
X146181D01*
X147015Y285201D01*
Y283535D01*
X146181Y282702D01*
X144515D01*
X143682Y283535D01*
X148681Y287700D02*
X152013D01*
Y286867D01*
X148681Y283535D01*
Y282702D01*
X111028Y94081D02*
X110195Y94914D01*
X108529D01*
X107696Y94081D01*
Y90749D01*
X108529Y89916D01*
X110195D01*
X111028Y90749D01*
X116027Y94914D02*
X112694D01*
Y92415D01*
X114361Y93248D01*
X115194D01*
X116027Y92415D01*
Y90749D01*
X115194Y89916D01*
X113527D01*
X112694Y90749D01*
X121025Y94914D02*
X119359Y94081D01*
X117693Y92415D01*
Y90749D01*
X118526Y89916D01*
X120192D01*
X121025Y90749D01*
Y91582D01*
X120192Y92415D01*
X117693D01*
X740948Y315569D02*
X740115Y316402D01*
X738449D01*
X737616Y315569D01*
Y312237D01*
X738449Y311404D01*
X740115D01*
X740948Y312237D01*
X745947Y316402D02*
X742614D01*
Y313903D01*
X744280Y314736D01*
X745114D01*
X745947Y313903D01*
Y312237D01*
X745114Y311404D01*
X743447D01*
X742614Y312237D01*
X750945Y316402D02*
X747613D01*
Y313903D01*
X749279Y314736D01*
X750112D01*
X750945Y313903D01*
Y312237D01*
X750112Y311404D01*
X748446D01*
X747613Y312237D01*
X347188Y176926D02*
X346355Y177759D01*
X344689D01*
X343856Y176926D01*
Y173594D01*
X344689Y172761D01*
X346355D01*
X347188Y173594D01*
X352186Y177759D02*
X348854D01*
Y175260D01*
X350520Y176093D01*
X351353D01*
X352186Y175260D01*
Y173594D01*
X351353Y172761D01*
X349687D01*
X348854Y173594D01*
X356351Y172761D02*
Y177759D01*
X353852Y175260D01*
X357184D01*
X475264Y247243D02*
X474431Y248076D01*
X472765D01*
X471932Y247243D01*
Y243911D01*
X472765Y243078D01*
X474431D01*
X475264Y243911D01*
X480263Y248076D02*
X476930D01*
Y245577D01*
X478596Y246410D01*
X479430D01*
X480263Y245577D01*
Y243911D01*
X479430Y243078D01*
X477763D01*
X476930Y243911D01*
X481929Y247243D02*
X482762Y248076D01*
X484428D01*
X485261Y247243D01*
Y246410D01*
X484428Y245577D01*
X483595D01*
X484428D01*
X485261Y244744D01*
Y243911D01*
X484428Y243078D01*
X482762D01*
X481929Y243911D01*
X407954Y240893D02*
X407121Y241726D01*
X405455D01*
X404622Y240893D01*
Y237561D01*
X405455Y236728D01*
X407121D01*
X407954Y237561D01*
X412953Y241726D02*
X409620D01*
Y239227D01*
X411287Y240060D01*
X412119D01*
X412953Y239227D01*
Y237561D01*
X412119Y236728D01*
X410453D01*
X409620Y237561D01*
X417951Y236728D02*
X414619D01*
X417951Y240060D01*
Y240893D01*
X417118Y241726D01*
X415452D01*
X414619Y240893D01*
X829340Y102463D02*
X828507Y103296D01*
X826841D01*
X826008Y102463D01*
Y99131D01*
X826841Y98298D01*
X828507D01*
X829340Y99131D01*
X834339Y103296D02*
X831006D01*
Y100797D01*
X832673Y101630D01*
X833505D01*
X834339Y100797D01*
Y99131D01*
X833505Y98298D01*
X831839D01*
X831006Y99131D01*
X836005Y98298D02*
X837671D01*
X836838D01*
Y103296D01*
X836005Y102463D01*
X483646Y99669D02*
X482813Y100502D01*
X481147D01*
X480314Y99669D01*
Y96337D01*
X481147Y95504D01*
X482813D01*
X483646Y96337D01*
X488645Y100502D02*
X485312D01*
Y98003D01*
X486978Y98836D01*
X487812D01*
X488645Y98003D01*
Y96337D01*
X487812Y95504D01*
X486145D01*
X485312Y96337D01*
X490311Y99669D02*
X491144Y100502D01*
X492810D01*
X493643Y99669D01*
Y96337D01*
X492810Y95504D01*
X491144D01*
X490311Y96337D01*
Y99669D01*
X682274Y190347D02*
X681441Y191180D01*
X679775D01*
X678942Y190347D01*
Y187015D01*
X679775Y186182D01*
X681441D01*
X682274Y187015D01*
X686440Y186182D02*
Y191180D01*
X683940Y188681D01*
X687273D01*
X688939Y187015D02*
X689772Y186182D01*
X691438D01*
X692271Y187015D01*
Y190347D01*
X691438Y191180D01*
X689772D01*
X688939Y190347D01*
Y189514D01*
X689772Y188681D01*
X692271D01*
X738154Y251307D02*
X737321Y252140D01*
X735655D01*
X734822Y251307D01*
Y247975D01*
X735655Y247142D01*
X737321D01*
X738154Y247975D01*
X742319Y247142D02*
Y252140D01*
X739820Y249641D01*
X743153D01*
X744819Y251307D02*
X745652Y252140D01*
X747318D01*
X748151Y251307D01*
Y250474D01*
X747318Y249641D01*
X748151Y248808D01*
Y247975D01*
X747318Y247142D01*
X745652D01*
X744819Y247975D01*
Y248808D01*
X745652Y249641D01*
X744819Y250474D01*
Y251307D01*
X745652Y249641D02*
X747318D01*
X972088Y240385D02*
X971255Y241218D01*
X969589D01*
X968756Y240385D01*
Y237053D01*
X969589Y236220D01*
X971255D01*
X972088Y237053D01*
X976254Y236220D02*
Y241218D01*
X973754Y238719D01*
X977087D01*
X978753Y241218D02*
X982085D01*
Y240385D01*
X978753Y237053D01*
Y236220D01*
X856772Y225399D02*
X855939Y226232D01*
X854273D01*
X853440Y225399D01*
Y222067D01*
X854273Y221234D01*
X855939D01*
X856772Y222067D01*
X860938Y221234D02*
Y226232D01*
X858438Y223733D01*
X861771D01*
X866769Y226232D02*
X865103Y225399D01*
X863437Y223733D01*
Y222067D01*
X864270Y221234D01*
X865936D01*
X866769Y222067D01*
Y222900D01*
X865936Y223733D01*
X863437D01*
X828070Y65633D02*
X827237Y66466D01*
X825571D01*
X824738Y65633D01*
Y62301D01*
X825571Y61468D01*
X827237D01*
X828070Y62301D01*
X832235Y61468D02*
Y66466D01*
X829736Y63967D01*
X833069D01*
X838067Y66466D02*
X834735D01*
Y63967D01*
X836401Y64800D01*
X837234D01*
X838067Y63967D01*
Y62301D01*
X837234Y61468D01*
X835568D01*
X834735Y62301D01*
X791494Y63093D02*
X790661Y63926D01*
X788995D01*
X788162Y63093D01*
Y59761D01*
X788995Y58928D01*
X790661D01*
X791494Y59761D01*
X795659Y58928D02*
Y63926D01*
X793160Y61427D01*
X796493D01*
X800658Y58928D02*
Y63926D01*
X798159Y61427D01*
X801491D01*
X90200Y141325D02*
X89367Y142158D01*
X87701D01*
X86868Y141325D01*
Y137993D01*
X87701Y137160D01*
X89367D01*
X90200Y137993D01*
X94366Y137160D02*
Y142158D01*
X91866Y139659D01*
X95199D01*
X96865Y141325D02*
X97698Y142158D01*
X99364D01*
X100197Y141325D01*
Y140492D01*
X99364Y139659D01*
X98531D01*
X99364D01*
X100197Y138826D01*
Y137993D01*
X99364Y137160D01*
X97698D01*
X96865Y137993D01*
X140492Y144119D02*
X139659Y144952D01*
X137993D01*
X137160Y144119D01*
Y140787D01*
X137993Y139954D01*
X139659D01*
X140492Y140787D01*
X144657Y139954D02*
Y144952D01*
X142158Y142453D01*
X145491D01*
X150489Y139954D02*
X147157D01*
X150489Y143286D01*
Y144119D01*
X149656Y144952D01*
X147990D01*
X147157Y144119D01*
X486440Y59283D02*
X485607Y60116D01*
X483941D01*
X483108Y59283D01*
Y55951D01*
X483941Y55118D01*
X485607D01*
X486440Y55951D01*
X490606Y55118D02*
Y60116D01*
X488106Y57617D01*
X491439D01*
X493105Y55118D02*
X494771D01*
X493938D01*
Y60116D01*
X493105Y59283D01*
X428020Y71475D02*
X427187Y72308D01*
X425521D01*
X424688Y71475D01*
Y68143D01*
X425521Y67310D01*
X427187D01*
X428020Y68143D01*
X432186Y67310D02*
Y72308D01*
X429686Y69809D01*
X433019D01*
X434685Y71475D02*
X435518Y72308D01*
X437184D01*
X438017Y71475D01*
Y68143D01*
X437184Y67310D01*
X435518D01*
X434685Y68143D01*
Y71475D01*
X751108Y65125D02*
X750275Y65958D01*
X748609D01*
X747776Y65125D01*
Y61793D01*
X748609Y60960D01*
X750275D01*
X751108Y61793D01*
X752774Y65125D02*
X753607Y65958D01*
X755274D01*
X756107Y65125D01*
Y64292D01*
X755274Y63459D01*
X754441D01*
X755274D01*
X756107Y62626D01*
Y61793D01*
X755274Y60960D01*
X753607D01*
X752774Y61793D01*
X757773D02*
X758606Y60960D01*
X760272D01*
X761105Y61793D01*
Y65125D01*
X760272Y65958D01*
X758606D01*
X757773Y65125D01*
Y64292D01*
X758606Y63459D01*
X761105D01*
X1421414Y154533D02*
X1420581Y155366D01*
X1418915D01*
X1418082Y154533D01*
Y151201D01*
X1418915Y150368D01*
X1420581D01*
X1421414Y151201D01*
X1423080Y154533D02*
X1423913Y155366D01*
X1425580D01*
X1426413Y154533D01*
Y153700D01*
X1425580Y152867D01*
X1424747D01*
X1425580D01*
X1426413Y152034D01*
Y151201D01*
X1425580Y150368D01*
X1423913D01*
X1423080Y151201D01*
X1428079Y154533D02*
X1428912Y155366D01*
X1430578D01*
X1431411Y154533D01*
Y153700D01*
X1430578Y152867D01*
X1431411Y152034D01*
Y151201D01*
X1430578Y150368D01*
X1428912D01*
X1428079Y151201D01*
Y152034D01*
X1428912Y152867D01*
X1428079Y153700D01*
Y154533D01*
X1428912Y152867D02*
X1430578D01*
X1208816Y306679D02*
X1207983Y307512D01*
X1206317D01*
X1205484Y306679D01*
Y303347D01*
X1206317Y302514D01*
X1207983D01*
X1208816Y303347D01*
X1210482Y306679D02*
X1211315Y307512D01*
X1212981D01*
X1213815Y306679D01*
Y305846D01*
X1212981Y305013D01*
X1212149D01*
X1212981D01*
X1213815Y304180D01*
Y303347D01*
X1212981Y302514D01*
X1211315D01*
X1210482Y303347D01*
X1215481Y307512D02*
X1218813D01*
Y306679D01*
X1215481Y303347D01*
Y302514D01*
X1134394Y266801D02*
X1133561Y267634D01*
X1131895D01*
X1131062Y266801D01*
Y263469D01*
X1131895Y262636D01*
X1133561D01*
X1134394Y263469D01*
X1136060Y266801D02*
X1136893Y267634D01*
X1138559D01*
X1139393Y266801D01*
Y265968D01*
X1138559Y265135D01*
X1137727D01*
X1138559D01*
X1139393Y264302D01*
Y263469D01*
X1138559Y262636D01*
X1136893D01*
X1136060Y263469D01*
X1144391Y267634D02*
X1142725Y266801D01*
X1141059Y265135D01*
Y263469D01*
X1141892Y262636D01*
X1143558D01*
X1144391Y263469D01*
Y264302D01*
X1143558Y265135D01*
X1141059D01*
X936020Y99161D02*
X935187Y99994D01*
X933521D01*
X932688Y99161D01*
Y95829D01*
X933521Y94996D01*
X935187D01*
X936020Y95829D01*
X937686Y99161D02*
X938519Y99994D01*
X940185D01*
X941019Y99161D01*
Y98328D01*
X940185Y97495D01*
X939352D01*
X940185D01*
X941019Y96662D01*
Y95829D01*
X940185Y94996D01*
X938519D01*
X937686Y95829D01*
X946017Y99994D02*
X942685D01*
Y97495D01*
X944351Y98328D01*
X945184D01*
X946017Y97495D01*
Y95829D01*
X945184Y94996D01*
X943518D01*
X942685Y95829D01*
X1106454Y221081D02*
X1105621Y221914D01*
X1103955D01*
X1103122Y221081D01*
Y217749D01*
X1103955Y216916D01*
X1105621D01*
X1106454Y217749D01*
X1108120Y221081D02*
X1108953Y221914D01*
X1110620D01*
X1111453Y221081D01*
Y220248D01*
X1110620Y219415D01*
X1109787D01*
X1110620D01*
X1111453Y218582D01*
Y217749D01*
X1110620Y216916D01*
X1108953D01*
X1108120Y217749D01*
X1115618Y216916D02*
Y221914D01*
X1113119Y219415D01*
X1116451D01*
X354868Y344271D02*
X354035Y345104D01*
X352369D01*
X351536Y344271D01*
Y340939D01*
X352369Y340106D01*
X354035D01*
X354868Y340939D01*
X356534Y344271D02*
X357367Y345104D01*
X359034D01*
X359867Y344271D01*
Y343438D01*
X359034Y342605D01*
X358200D01*
X359034D01*
X359867Y341772D01*
Y340939D01*
X359034Y340106D01*
X357367D01*
X356534Y340939D01*
X361533Y344271D02*
X362366Y345104D01*
X364032D01*
X364865Y344271D01*
Y343438D01*
X364032Y342605D01*
X363199D01*
X364032D01*
X364865Y341772D01*
Y340939D01*
X364032Y340106D01*
X362366D01*
X361533Y340939D01*
X831118Y372973D02*
X830285Y373806D01*
X828619D01*
X827786Y372973D01*
Y369641D01*
X828619Y368808D01*
X830285D01*
X831118Y369641D01*
X832784Y372973D02*
X833617Y373806D01*
X835284D01*
X836117Y372973D01*
Y372140D01*
X835284Y371307D01*
X834451D01*
X835284D01*
X836117Y370474D01*
Y369641D01*
X835284Y368808D01*
X833617D01*
X832784Y369641D01*
X841115Y368808D02*
X837783D01*
X841115Y372140D01*
Y372973D01*
X840282Y373806D01*
X838616D01*
X837783Y372973D01*
X352074Y112623D02*
X351241Y113456D01*
X349575D01*
X348742Y112623D01*
Y109291D01*
X349575Y108458D01*
X351241D01*
X352074Y109291D01*
X353740Y112623D02*
X354573Y113456D01*
X356240D01*
X357073Y112623D01*
Y111790D01*
X356240Y110957D01*
X355406D01*
X356240D01*
X357073Y110124D01*
Y109291D01*
X356240Y108458D01*
X354573D01*
X353740Y109291D01*
X358739Y108458D02*
X360405D01*
X359572D01*
Y113456D01*
X358739Y112623D01*
X311434Y101193D02*
X310601Y102026D01*
X308935D01*
X308102Y101193D01*
Y97861D01*
X308935Y97028D01*
X310601D01*
X311434Y97861D01*
X313100Y101193D02*
X313933Y102026D01*
X315599D01*
X316433Y101193D01*
Y100360D01*
X315599Y99527D01*
X314767D01*
X315599D01*
X316433Y98694D01*
Y97861D01*
X315599Y97028D01*
X313933D01*
X313100Y97861D01*
X318099Y101193D02*
X318932Y102026D01*
X320598D01*
X321431Y101193D01*
Y97861D01*
X320598Y97028D01*
X318932D01*
X318099Y97861D01*
Y101193D01*
X355884Y221843D02*
X355051Y222676D01*
X353385D01*
X352552Y221843D01*
Y218511D01*
X353385Y217678D01*
X355051D01*
X355884Y218511D01*
X360883Y217678D02*
X357550D01*
X360883Y221010D01*
Y221843D01*
X360050Y222676D01*
X358383D01*
X357550Y221843D01*
X362549Y218511D02*
X363382Y217678D01*
X365048D01*
X365881Y218511D01*
Y221843D01*
X365048Y222676D01*
X363382D01*
X362549Y221843D01*
Y221010D01*
X363382Y220177D01*
X365881D01*
X764570Y230733D02*
X763737Y231566D01*
X762071D01*
X761238Y230733D01*
Y227401D01*
X762071Y226568D01*
X763737D01*
X764570Y227401D01*
X769569Y226568D02*
X766236D01*
X769569Y229900D01*
Y230733D01*
X768736Y231566D01*
X767069D01*
X766236Y230733D01*
X771235D02*
X772068Y231566D01*
X773734D01*
X774567Y230733D01*
Y229900D01*
X773734Y229067D01*
X774567Y228234D01*
Y227401D01*
X773734Y226568D01*
X772068D01*
X771235Y227401D01*
Y228234D01*
X772068Y229067D01*
X771235Y229900D01*
Y230733D01*
X772068Y229067D02*
X773734D01*
X917986Y260959D02*
X917153Y261792D01*
X915487D01*
X914654Y260959D01*
Y257627D01*
X915487Y256794D01*
X917153D01*
X917986Y257627D01*
X922985Y256794D02*
X919652D01*
X922985Y260126D01*
Y260959D01*
X922151Y261792D01*
X920485D01*
X919652Y260959D01*
X924651Y261792D02*
X927983D01*
Y260959D01*
X924651Y257627D01*
Y256794D01*
X447324Y116941D02*
X446491Y117774D01*
X444825D01*
X443992Y116941D01*
Y113609D01*
X444825Y112776D01*
X446491D01*
X447324Y113609D01*
X452323Y112776D02*
X448990D01*
X452323Y116108D01*
Y116941D01*
X451489Y117774D01*
X449823D01*
X448990Y116941D01*
X457321Y117774D02*
X455655Y116941D01*
X453989Y115275D01*
Y113609D01*
X454822Y112776D01*
X456488D01*
X457321Y113609D01*
Y114442D01*
X456488Y115275D01*
X453989D01*
X1365788Y221335D02*
X1364955Y222168D01*
X1363289D01*
X1362456Y221335D01*
Y218003D01*
X1363289Y217170D01*
X1364955D01*
X1365788Y218003D01*
X1370787Y217170D02*
X1367454D01*
X1370787Y220502D01*
Y221335D01*
X1369953Y222168D01*
X1368287D01*
X1367454Y221335D01*
X1375785Y222168D02*
X1372453D01*
Y219669D01*
X1374119Y220502D01*
X1374952D01*
X1375785Y219669D01*
Y218003D01*
X1374952Y217170D01*
X1373286D01*
X1372453Y218003D01*
X1396776Y190855D02*
X1395943Y191688D01*
X1394277D01*
X1393444Y190855D01*
Y187523D01*
X1394277Y186690D01*
X1395943D01*
X1396776Y187523D01*
X1401775Y186690D02*
X1398442D01*
X1401775Y190022D01*
Y190855D01*
X1400941Y191688D01*
X1399275D01*
X1398442Y190855D01*
X1405940Y186690D02*
Y191688D01*
X1403441Y189189D01*
X1406773D01*
X1394236Y129387D02*
X1393403Y130220D01*
X1391737D01*
X1390904Y129387D01*
Y126055D01*
X1391737Y125222D01*
X1393403D01*
X1394236Y126055D01*
X1399235Y125222D02*
X1395902D01*
X1399235Y128554D01*
Y129387D01*
X1398401Y130220D01*
X1396735D01*
X1395902Y129387D01*
X1400901D02*
X1401734Y130220D01*
X1403400D01*
X1404233Y129387D01*
Y128554D01*
X1403400Y127721D01*
X1402567D01*
X1403400D01*
X1404233Y126888D01*
Y126055D01*
X1403400Y125222D01*
X1401734D01*
X1400901Y126055D01*
X1304320Y96621D02*
X1303487Y97454D01*
X1301821D01*
X1300988Y96621D01*
Y93289D01*
X1301821Y92456D01*
X1303487D01*
X1304320Y93289D01*
X1309319Y92456D02*
X1305986D01*
X1309319Y95788D01*
Y96621D01*
X1308486Y97454D01*
X1306819D01*
X1305986Y96621D01*
X1314317Y92456D02*
X1310985D01*
X1314317Y95788D01*
Y96621D01*
X1313484Y97454D01*
X1311818D01*
X1310985Y96621D01*
X1323116Y360019D02*
X1322283Y360852D01*
X1320617D01*
X1319784Y360019D01*
Y356687D01*
X1320617Y355854D01*
X1322283D01*
X1323116Y356687D01*
X1328115Y355854D02*
X1324782D01*
X1328115Y359186D01*
Y360019D01*
X1327281Y360852D01*
X1325615D01*
X1324782Y360019D01*
X1329781Y355854D02*
X1331447D01*
X1330614D01*
Y360852D01*
X1329781Y360019D01*
X1288318Y233781D02*
X1287485Y234614D01*
X1285819D01*
X1284986Y233781D01*
Y230449D01*
X1285819Y229616D01*
X1287485D01*
X1288318Y230449D01*
X1293317Y229616D02*
X1289984D01*
X1293317Y232948D01*
Y233781D01*
X1292484Y234614D01*
X1290817D01*
X1289984Y233781D01*
X1294983D02*
X1295816Y234614D01*
X1297482D01*
X1298315Y233781D01*
Y230449D01*
X1297482Y229616D01*
X1295816D01*
X1294983Y230449D01*
Y233781D01*
X533938Y363575D02*
X533105Y364408D01*
X531439D01*
X530606Y363575D01*
Y360243D01*
X531439Y359410D01*
X533105D01*
X533938Y360243D01*
X535604Y359410D02*
X537271D01*
X536437D01*
Y364408D01*
X535604Y363575D01*
X539770Y360243D02*
X540603Y359410D01*
X542269D01*
X543102Y360243D01*
Y363575D01*
X542269Y364408D01*
X540603D01*
X539770Y363575D01*
Y362742D01*
X540603Y361909D01*
X543102D01*
X604550Y365353D02*
X603717Y366186D01*
X602051D01*
X601218Y365353D01*
Y362021D01*
X602051Y361188D01*
X603717D01*
X604550Y362021D01*
X606216Y361188D02*
X607882D01*
X607049D01*
Y366186D01*
X606216Y365353D01*
X610382D02*
X611215Y366186D01*
X612881D01*
X613714Y365353D01*
Y364520D01*
X612881Y363687D01*
X613714Y362854D01*
Y362021D01*
X612881Y361188D01*
X611215D01*
X610382Y362021D01*
Y362854D01*
X611215Y363687D01*
X610382Y364520D01*
Y365353D01*
X611215Y363687D02*
X612881D01*
X742218Y360527D02*
X741385Y361360D01*
X739719D01*
X738886Y360527D01*
Y357195D01*
X739719Y356362D01*
X741385D01*
X742218Y357195D01*
X743884Y356362D02*
X745551D01*
X744717D01*
Y361360D01*
X743884Y360527D01*
X748050Y361360D02*
X751382D01*
Y360527D01*
X748050Y357195D01*
Y356362D01*
X770920Y369163D02*
X770087Y369996D01*
X768421D01*
X767588Y369163D01*
Y365831D01*
X768421Y364998D01*
X770087D01*
X770920Y365831D01*
X772586Y364998D02*
X774252D01*
X773419D01*
Y369996D01*
X772586Y369163D01*
X780084Y369996D02*
X778418Y369163D01*
X776752Y367497D01*
Y365831D01*
X777585Y364998D01*
X779251D01*
X780084Y365831D01*
Y366664D01*
X779251Y367497D01*
X776752D01*
X808258Y375259D02*
X807425Y376092D01*
X805759D01*
X804926Y375259D01*
Y371927D01*
X805759Y371094D01*
X807425D01*
X808258Y371927D01*
X809924Y371094D02*
X811590D01*
X810757D01*
Y376092D01*
X809924Y375259D01*
X817422Y376092D02*
X814090D01*
Y373593D01*
X815756Y374426D01*
X816589D01*
X817422Y373593D01*
Y371927D01*
X816589Y371094D01*
X814923D01*
X814090Y371927D01*
X887760Y378053D02*
X886927Y378886D01*
X885261D01*
X884428Y378053D01*
Y374721D01*
X885261Y373888D01*
X886927D01*
X887760Y374721D01*
X889426Y373888D02*
X891093D01*
X890259D01*
Y378886D01*
X889426Y378053D01*
X896091Y373888D02*
Y378886D01*
X893592Y376387D01*
X896924D01*
X562386Y210921D02*
X561553Y211754D01*
X559887D01*
X559054Y210921D01*
Y207589D01*
X559887Y206756D01*
X561553D01*
X562386Y207589D01*
X564052Y206756D02*
X565718D01*
X564885D01*
Y211754D01*
X564052Y210921D01*
X568218D02*
X569051Y211754D01*
X570717D01*
X571550Y210921D01*
Y210088D01*
X570717Y209255D01*
X569884D01*
X570717D01*
X571550Y208422D01*
Y207589D01*
X570717Y206756D01*
X569051D01*
X568218Y207589D01*
X329214Y301853D02*
X328381Y302686D01*
X326715D01*
X325882Y301853D01*
Y298521D01*
X326715Y297688D01*
X328381D01*
X329214Y298521D01*
X330880Y297688D02*
X332547D01*
X331713D01*
Y302686D01*
X330880Y301853D01*
X338378Y297688D02*
X335046D01*
X338378Y301020D01*
Y301853D01*
X337545Y302686D01*
X335879D01*
X335046Y301853D01*
X1044224Y94081D02*
X1043391Y94914D01*
X1041725D01*
X1040892Y94081D01*
Y90749D01*
X1041725Y89916D01*
X1043391D01*
X1044224Y90749D01*
X1045890Y89916D02*
X1047557D01*
X1046723D01*
Y94914D01*
X1045890Y94081D01*
X1050056Y89916D02*
X1051722D01*
X1050889D01*
Y94914D01*
X1050056Y94081D01*
X880394Y321411D02*
X879561Y322244D01*
X877895D01*
X877062Y321411D01*
Y318079D01*
X877895Y317246D01*
X879561D01*
X880394Y318079D01*
X882060Y317246D02*
X883727D01*
X882893D01*
Y322244D01*
X882060Y321411D01*
X886226D02*
X887059Y322244D01*
X888725D01*
X889558Y321411D01*
Y318079D01*
X888725Y317246D01*
X887059D01*
X886226Y318079D01*
Y321411D01*
X993170Y267309D02*
X992337Y268142D01*
X990671D01*
X989838Y267309D01*
Y263977D01*
X990671Y263144D01*
X992337D01*
X993170Y263977D01*
X994836D02*
X995669Y263144D01*
X997336D01*
X998169Y263977D01*
Y267309D01*
X997336Y268142D01*
X995669D01*
X994836Y267309D01*
Y266476D01*
X995669Y265643D01*
X998169D01*
X996218Y212699D02*
X995385Y213532D01*
X993719D01*
X992886Y212699D01*
Y209367D01*
X993719Y208534D01*
X995385D01*
X996218Y209367D01*
X997884Y212699D02*
X998717Y213532D01*
X1000384D01*
X1001217Y212699D01*
Y211866D01*
X1000384Y211033D01*
X1001217Y210200D01*
Y209367D01*
X1000384Y208534D01*
X998717D01*
X997884Y209367D01*
Y210200D01*
X998717Y211033D01*
X997884Y211866D01*
Y212699D01*
X998717Y211033D02*
X1000384D01*
X429544Y204063D02*
X428711Y204896D01*
X427045D01*
X426212Y204063D01*
Y200731D01*
X427045Y199898D01*
X428711D01*
X429544Y200731D01*
X431210Y204896D02*
X434543D01*
Y204063D01*
X431210Y200731D01*
Y199898D01*
X483646Y222859D02*
X482813Y223692D01*
X481147D01*
X480314Y222859D01*
Y219527D01*
X481147Y218694D01*
X482813D01*
X483646Y219527D01*
X488645Y223692D02*
X486978Y222859D01*
X485312Y221193D01*
Y219527D01*
X486145Y218694D01*
X487812D01*
X488645Y219527D01*
Y220360D01*
X487812Y221193D01*
X485312D01*
X605566Y320649D02*
X604733Y321482D01*
X603067D01*
X602234Y320649D01*
Y317317D01*
X603067Y316484D01*
X604733D01*
X605566Y317317D01*
X610565Y321482D02*
X607232D01*
Y318983D01*
X608899Y319816D01*
X609731D01*
X610565Y318983D01*
Y317317D01*
X609731Y316484D01*
X608065D01*
X607232Y317317D01*
X624108Y240385D02*
X623275Y241218D01*
X621609D01*
X620776Y240385D01*
Y237053D01*
X621609Y236220D01*
X623275D01*
X624108Y237053D01*
X628274Y236220D02*
Y241218D01*
X625774Y238719D01*
X629107D01*
X622330Y206603D02*
X621497Y207436D01*
X619831D01*
X618998Y206603D01*
Y203271D01*
X619831Y202438D01*
X621497D01*
X622330Y203271D01*
X623996Y206603D02*
X624829Y207436D01*
X626496D01*
X627329Y206603D01*
Y205770D01*
X626496Y204937D01*
X625662D01*
X626496D01*
X627329Y204104D01*
Y203271D01*
X626496Y202438D01*
X624829D01*
X623996Y203271D01*
X632998Y155549D02*
X632165Y156382D01*
X630499D01*
X629666Y155549D01*
Y152217D01*
X630499Y151384D01*
X632165D01*
X632998Y152217D01*
X637997Y151384D02*
X634664D01*
X637997Y154716D01*
Y155549D01*
X637164Y156382D01*
X635497D01*
X634664Y155549D01*
X680750Y242163D02*
X679917Y242996D01*
X678251D01*
X677418Y242163D01*
Y238831D01*
X678251Y237998D01*
X679917D01*
X680750Y238831D01*
X682416Y237998D02*
X684082D01*
X683249D01*
Y242996D01*
X682416Y242163D01*
X382016Y353923D02*
X385348Y350591D01*
X382016D02*
X385348Y353923D01*
X382016Y352257D02*
X385348D01*
X383682Y350591D02*
Y353923D01*
X390347Y354756D02*
X387014D01*
Y352257D01*
X388680Y353090D01*
X389514D01*
X390347Y352257D01*
Y350591D01*
X389514Y349758D01*
X387847D01*
X387014Y350591D01*
X661416Y357733D02*
X664748Y354401D01*
X661416D02*
X664748Y357733D01*
X661416Y356067D02*
X664748D01*
X663082Y354401D02*
Y357733D01*
X668913Y353568D02*
Y358566D01*
X666414Y356067D01*
X669747D01*
X374396Y176377D02*
X377728Y173045D01*
X374396D02*
X377728Y176377D01*
X374396Y174711D02*
X377728D01*
X376062Y173045D02*
Y176377D01*
X379394D02*
X380227Y177210D01*
X381894D01*
X382727Y176377D01*
Y175544D01*
X381894Y174711D01*
X381060D01*
X381894D01*
X382727Y173878D01*
Y173045D01*
X381894Y172212D01*
X380227D01*
X379394Y173045D01*
X928116Y366623D02*
X931448Y363291D01*
X928116D02*
X931448Y366623D01*
X928116Y364957D02*
X931448D01*
X929782Y363291D02*
Y366623D01*
X936447Y362458D02*
X933114D01*
X936447Y365790D01*
Y366623D01*
X935613Y367456D01*
X933947D01*
X933114Y366623D01*
X445770Y320395D02*
X449102Y317063D01*
X445770D02*
X449102Y320395D01*
X445770Y318729D02*
X449102D01*
X447436Y317063D02*
Y320395D01*
X450768Y316230D02*
X452435D01*
X451601D01*
Y321228D01*
X450768Y320395D01*
M02*
