G04*
G04 #@! TF.GenerationSoftware,Altium Limited,Altium Designer,26.7.1 (11)*
G04*
G04 Layer_Color=8388736*
G04 Board_Origin=10250000|11200000*
%FSLAX44Y44*%
%MOMM*%
G71*
G04*
G04 #@! TF.SameCoordinates,FFEA9334-926C-40BC-8964-0171260B8DE7*
G04*
G04*
G04 #@! TF.FilePolarity,Negative*
G04*
G01*
G75*
%ADD18R,0.5800X0.5400*%
%ADD19R,0.7000X0.2500*%
%ADD20R,0.2500X0.7000*%
%ADD21R,0.2500X1.5000*%
%ADD22R,0.2900X0.3700*%
%ADD23R,0.3500X0.4500*%
%ADD24R,0.2627X0.3541*%
%ADD25R,0.4500X1.7000*%
%ADD26R,4.0000X4.0000*%
%ADD27R,1.2552X1.1062*%
%ADD28R,2.4130X3.4290*%
%ADD29R,0.5400X0.5800*%
G04:AMPARAMS|DCode=30|XSize=0.76mm|YSize=0.6604mm|CornerRadius=0.0825mm|HoleSize=0mm|Usage=FLASHONLY|Rotation=180.000|XOffset=0mm|YOffset=0mm|HoleType=Round|Shape=RoundedRectangle|*
%AMROUNDEDRECTD30*
21,1,0.7600,0.4953,0,0,180.0*
21,1,0.5949,0.6604,0,0,180.0*
1,1,0.1651,-0.2975,0.2477*
1,1,0.1651,0.2975,0.2477*
1,1,0.1651,0.2975,-0.2477*
1,1,0.1651,-0.2975,-0.2477*
%
%ADD30ROUNDEDRECTD30*%
%ADD31P,0.7354X4X360.0*%
%ADD32C,0.2227*%
%ADD33C,0.2340*%
%ADD34R,0.4250X0.4000*%
%ADD35R,0.7500X0.3000*%
%ADD36R,1.1500X0.9500*%
G04:AMPARAMS|DCode=37|XSize=0.76mm|YSize=0.6604mm|CornerRadius=0.0825mm|HoleSize=0mm|Usage=FLASHONLY|Rotation=90.000|XOffset=0mm|YOffset=0mm|HoleType=Round|Shape=RoundedRectangle|*
%AMROUNDEDRECTD37*
21,1,0.7600,0.4953,0,0,90.0*
21,1,0.5949,0.6604,0,0,90.0*
1,1,0.1651,0.2477,0.2975*
1,1,0.1651,0.2477,-0.2975*
1,1,0.1651,-0.2477,-0.2975*
1,1,0.1651,-0.2477,0.2975*
%
%ADD37ROUNDEDRECTD37*%
%ADD38R,0.4627X0.5541*%
%ADD39R,0.9000X0.7500*%
%ADD40R,1.0000X0.8500*%
%ADD41R,0.7500X0.9000*%
%ADD42R,0.6000X0.6000*%
%ADD43R,0.4000X0.3500*%
%ADD44R,0.9000X0.8000*%
%ADD45R,0.5200X0.5600*%
%ADD46R,0.2500X0.3500*%
%ADD47R,0.7562X1.1062*%
%ADD48R,0.4500X0.5500*%
%ADD49R,0.3500X0.3500*%
%ADD50R,0.5500X0.5500*%
%ADD51R,1.0062X1.0552*%
%ADD52R,1.0552X1.0062*%
G04:AMPARAMS|DCode=53|XSize=0.55mm|YSize=0.5mm|CornerRadius=0.0625mm|HoleSize=0mm|Usage=FLASHONLY|Rotation=180.000|XOffset=0mm|YOffset=0mm|HoleType=Round|Shape=RoundedRectangle|*
%AMROUNDEDRECTD53*
21,1,0.5500,0.3750,0,0,180.0*
21,1,0.4250,0.5000,0,0,180.0*
1,1,0.1250,-0.2125,0.1875*
1,1,0.1250,0.2125,0.1875*
1,1,0.1250,0.2125,-0.1875*
1,1,0.1250,-0.2125,-0.1875*
%
%ADD53ROUNDEDRECTD53*%
%ADD54R,0.8000X0.9000*%
%ADD55R,1.1062X0.7562*%
%ADD56R,0.5500X0.4500*%
%ADD57R,0.3500X0.3500*%
%ADD58R,0.6400X0.6800*%
%ADD62R,0.5541X0.4627*%
%ADD63R,1.0000X1.0500*%
%ADD64R,0.8500X1.0000*%
%ADD65R,0.8500X0.9000*%
G04:AMPARAMS|DCode=66|XSize=1.4mm|YSize=0.45mm|CornerRadius=0.0495mm|HoleSize=0mm|Usage=FLASHONLY|Rotation=90.000|XOffset=0mm|YOffset=0mm|HoleType=Round|Shape=RoundedRectangle|*
%AMROUNDEDRECTD66*
21,1,1.4000,0.3510,0,0,90.0*
21,1,1.3010,0.4500,0,0,90.0*
1,1,0.0990,0.1755,0.6505*
1,1,0.0990,0.1755,-0.6505*
1,1,0.0990,-0.1755,-0.6505*
1,1,0.0990,-0.1755,0.6505*
%
%ADD66ROUNDEDRECTD66*%
G04:AMPARAMS|DCode=67|XSize=1.3mm|YSize=0.76mm|CornerRadius=0.095mm|HoleSize=0mm|Usage=FLASHONLY|Rotation=180.000|XOffset=0mm|YOffset=0mm|HoleType=Round|Shape=RoundedRectangle|*
%AMROUNDEDRECTD67*
21,1,1.3000,0.5700,0,0,180.0*
21,1,1.1100,0.7600,0,0,180.0*
1,1,0.1900,-0.5550,0.2850*
1,1,0.1900,0.5550,0.2850*
1,1,0.1900,0.5550,-0.2850*
1,1,0.1900,-0.5550,-0.2850*
%
%ADD67ROUNDEDRECTD67*%
%ADD68R,1.1062X1.2552*%
%ADD69R,0.5600X0.5200*%
%ADD70R,0.5500X0.5500*%
%ADD71R,0.6000X0.6000*%
%ADD72R,0.3500X0.4000*%
%ADD73R,0.3541X0.2627*%
%ADD74R,0.3500X0.2500*%
%ADD75R,1.0500X1.0000*%
%ADD76R,0.3700X0.2900*%
%ADD77R,0.4500X0.3500*%
%ADD78R,0.8000X0.3000*%
%ADD79R,0.8000X0.4000*%
%ADD80R,0.4000X0.4250*%
%ADD81R,0.3000X0.7500*%
%ADD82R,0.9500X1.1500*%
%ADD83R,0.8000X0.8000*%
%ADD84R,0.3200X0.8900*%
%ADD85R,0.8900X0.3200*%
%ADD86C,0.2000*%
%ADD87C,0.5000*%
G36*
X362690Y282770D02*
X361590D01*
X360090Y284270D01*
Y286670D01*
X362690D01*
Y282770D01*
D02*
G37*
G36*
X356190Y284270D02*
X354690Y282770D01*
X353590D01*
Y286670D01*
X356190D01*
Y284270D01*
D02*
G37*
G36*
X362690Y274670D02*
X360090D01*
Y277070D01*
X361590Y278570D01*
X362690D01*
Y274670D01*
D02*
G37*
G36*
X356190Y277070D02*
Y274670D01*
X353590D01*
Y278570D01*
X354690D01*
X356190Y277070D01*
D02*
G37*
G36*
X601480Y227070D02*
X601540D01*
X601590Y227060D01*
X601640Y227050D01*
X601690Y227030D01*
X601740Y227010D01*
X601790Y226990D01*
X601830Y226970D01*
X601880Y226950D01*
X601920Y226920D01*
X601970Y226890D01*
X602010Y226860D01*
X602050Y226820D01*
X602090Y226790D01*
X602120Y226750D01*
X602160Y226710D01*
X602190Y226670D01*
X602220Y226620D01*
X602250Y226580D01*
X602270Y226530D01*
X602290Y226490D01*
X602310Y226440D01*
X602330Y226390D01*
X602350Y226340D01*
X602360Y226290D01*
X602370Y226240D01*
Y226180D01*
X602380Y226130D01*
Y226080D01*
Y221080D01*
Y221030D01*
X602370Y220980D01*
Y220920D01*
X602360Y220870D01*
X602350Y220820D01*
X602330Y220770D01*
X602310Y220720D01*
X602290Y220670D01*
X602270Y220630D01*
X602250Y220580D01*
X602220Y220540D01*
X602190Y220490D01*
X602160Y220450D01*
X602120Y220410D01*
X602090Y220370D01*
X602050Y220340D01*
X602010Y220300D01*
X601970Y220270D01*
X601920Y220240D01*
X601880Y220210D01*
X601830Y220190D01*
X601790Y220170D01*
X601740Y220150D01*
X601690Y220130D01*
X601640Y220110D01*
X601590Y220100D01*
X601540Y220090D01*
X601480D01*
X601430Y220080D01*
X599830D01*
X599780Y220090D01*
X599720D01*
X599670Y220100D01*
X599620Y220110D01*
X599570Y220130D01*
X599520Y220150D01*
X599470Y220170D01*
X599430Y220190D01*
X599380Y220210D01*
X599340Y220240D01*
X599290Y220270D01*
X599250Y220300D01*
X599210Y220340D01*
X599170Y220370D01*
X599140Y220410D01*
X599100Y220450D01*
X599070Y220490D01*
X599040Y220540D01*
X599010Y220580D01*
X598990Y220630D01*
X598970Y220670D01*
X598950Y220720D01*
X598930Y220770D01*
X598910Y220820D01*
X598900Y220870D01*
X598890Y220920D01*
Y220980D01*
X598880Y221030D01*
Y221080D01*
Y226080D01*
Y226130D01*
X598890Y226180D01*
Y226240D01*
X598900Y226290D01*
X598910Y226340D01*
X598930Y226390D01*
X598950Y226440D01*
X598970Y226490D01*
X598990Y226530D01*
X599010Y226580D01*
X599040Y226620D01*
X599070Y226670D01*
X599100Y226710D01*
X599140Y226750D01*
X599170Y226790D01*
X599210Y226820D01*
X599250Y226860D01*
X599290Y226890D01*
X599340Y226920D01*
X599380Y226950D01*
X599430Y226970D01*
X599470Y226990D01*
X599520Y227010D01*
X599570Y227030D01*
X599620Y227050D01*
X599670Y227060D01*
X599720Y227070D01*
X599780D01*
X599830Y227080D01*
X601430D01*
X601480Y227070D01*
D02*
G37*
G36*
X596480D02*
X596540D01*
X596590Y227060D01*
X596640Y227050D01*
X596690Y227030D01*
X596740Y227010D01*
X596790Y226990D01*
X596830Y226970D01*
X596880Y226950D01*
X596920Y226920D01*
X596970Y226890D01*
X597010Y226860D01*
X597050Y226820D01*
X597090Y226790D01*
X597120Y226750D01*
X597160Y226710D01*
X597190Y226670D01*
X597220Y226620D01*
X597250Y226580D01*
X597270Y226530D01*
X597290Y226490D01*
X597310Y226440D01*
X597330Y226390D01*
X597350Y226340D01*
X597360Y226290D01*
X597370Y226240D01*
Y226180D01*
X597380Y226130D01*
Y226080D01*
Y221080D01*
Y221030D01*
X597370Y220980D01*
Y220920D01*
X597360Y220870D01*
X597350Y220820D01*
X597330Y220770D01*
X597310Y220720D01*
X597290Y220670D01*
X597270Y220630D01*
X597250Y220580D01*
X597220Y220540D01*
X597190Y220490D01*
X597160Y220450D01*
X597120Y220410D01*
X597090Y220370D01*
X597050Y220340D01*
X597010Y220300D01*
X596970Y220270D01*
X596920Y220240D01*
X596880Y220210D01*
X596830Y220190D01*
X596790Y220170D01*
X596740Y220150D01*
X596690Y220130D01*
X596640Y220110D01*
X596590Y220100D01*
X596540Y220090D01*
X596480D01*
X596430Y220080D01*
X594830D01*
X594780Y220090D01*
X594720D01*
X594670Y220100D01*
X594620Y220110D01*
X594570Y220130D01*
X594520Y220150D01*
X594470Y220170D01*
X594430Y220190D01*
X594380Y220210D01*
X594340Y220240D01*
X594290Y220270D01*
X594250Y220300D01*
X594210Y220340D01*
X594170Y220370D01*
X594140Y220410D01*
X594100Y220450D01*
X594070Y220490D01*
X594040Y220540D01*
X594010Y220580D01*
X593990Y220630D01*
X593970Y220670D01*
X593950Y220720D01*
X593930Y220770D01*
X593910Y220820D01*
X593900Y220870D01*
X593890Y220920D01*
Y220980D01*
X593880Y221030D01*
Y221080D01*
Y226080D01*
Y226130D01*
X593890Y226180D01*
Y226240D01*
X593900Y226290D01*
X593910Y226340D01*
X593930Y226390D01*
X593950Y226440D01*
X593970Y226490D01*
X593990Y226530D01*
X594010Y226580D01*
X594040Y226620D01*
X594070Y226670D01*
X594100Y226710D01*
X594140Y226750D01*
X594170Y226790D01*
X594210Y226820D01*
X594250Y226860D01*
X594290Y226890D01*
X594340Y226920D01*
X594380Y226950D01*
X594430Y226970D01*
X594470Y226990D01*
X594520Y227010D01*
X594570Y227030D01*
X594620Y227050D01*
X594670Y227060D01*
X594720Y227070D01*
X594780D01*
X594830Y227080D01*
X596430D01*
X596480Y227070D01*
D02*
G37*
G36*
X591480D02*
X591540D01*
X591590Y227060D01*
X591640Y227050D01*
X591690Y227030D01*
X591740Y227010D01*
X591790Y226990D01*
X591830Y226970D01*
X591880Y226950D01*
X591920Y226920D01*
X591970Y226890D01*
X592010Y226860D01*
X592050Y226820D01*
X592090Y226790D01*
X592120Y226750D01*
X592160Y226710D01*
X592190Y226670D01*
X592220Y226620D01*
X592250Y226580D01*
X592270Y226530D01*
X592290Y226490D01*
X592310Y226440D01*
X592330Y226390D01*
X592350Y226340D01*
X592360Y226290D01*
X592370Y226240D01*
Y226180D01*
X592380Y226130D01*
Y226080D01*
Y221080D01*
Y221030D01*
X592370Y220980D01*
Y220920D01*
X592360Y220870D01*
X592350Y220820D01*
X592330Y220770D01*
X592310Y220720D01*
X592290Y220670D01*
X592270Y220630D01*
X592250Y220580D01*
X592220Y220540D01*
X592190Y220490D01*
X592160Y220450D01*
X592120Y220410D01*
X592090Y220370D01*
X592050Y220340D01*
X592010Y220300D01*
X591970Y220270D01*
X591920Y220240D01*
X591880Y220210D01*
X591830Y220190D01*
X591790Y220170D01*
X591740Y220150D01*
X591690Y220130D01*
X591640Y220110D01*
X591590Y220100D01*
X591540Y220090D01*
X591480D01*
X591430Y220080D01*
X589830D01*
X589780Y220090D01*
X589720D01*
X589670Y220100D01*
X589620Y220110D01*
X589570Y220130D01*
X589520Y220150D01*
X589470Y220170D01*
X589430Y220190D01*
X589380Y220210D01*
X589340Y220240D01*
X589290Y220270D01*
X589250Y220300D01*
X589210Y220340D01*
X589170Y220370D01*
X589140Y220410D01*
X589100Y220450D01*
X589070Y220490D01*
X589040Y220540D01*
X589010Y220580D01*
X588990Y220630D01*
X588970Y220670D01*
X588950Y220720D01*
X588930Y220770D01*
X588910Y220820D01*
X588900Y220870D01*
X588890Y220920D01*
Y220980D01*
X588880Y221030D01*
Y221080D01*
Y226080D01*
Y226130D01*
X588890Y226180D01*
Y226240D01*
X588900Y226290D01*
X588910Y226340D01*
X588930Y226390D01*
X588950Y226440D01*
X588970Y226490D01*
X588990Y226530D01*
X589010Y226580D01*
X589040Y226620D01*
X589070Y226670D01*
X589100Y226710D01*
X589140Y226750D01*
X589170Y226790D01*
X589210Y226820D01*
X589250Y226860D01*
X589290Y226890D01*
X589340Y226920D01*
X589380Y226950D01*
X589430Y226970D01*
X589470Y226990D01*
X589520Y227010D01*
X589570Y227030D01*
X589620Y227050D01*
X589670Y227060D01*
X589720Y227070D01*
X589780D01*
X589830Y227080D01*
X591430D01*
X591480Y227070D01*
D02*
G37*
G36*
X586480D02*
X586540D01*
X586590Y227060D01*
X586640Y227050D01*
X586690Y227030D01*
X586740Y227010D01*
X586790Y226990D01*
X586830Y226970D01*
X586880Y226950D01*
X586920Y226920D01*
X586970Y226890D01*
X587010Y226860D01*
X587050Y226820D01*
X587090Y226790D01*
X587120Y226750D01*
X587160Y226710D01*
X587190Y226670D01*
X587220Y226620D01*
X587250Y226580D01*
X587270Y226530D01*
X587290Y226490D01*
X587310Y226440D01*
X587330Y226390D01*
X587350Y226340D01*
X587360Y226290D01*
X587370Y226240D01*
Y226180D01*
X587380Y226130D01*
Y226080D01*
Y221080D01*
Y221030D01*
X587370Y220980D01*
Y220920D01*
X587360Y220870D01*
X587350Y220820D01*
X587330Y220770D01*
X587310Y220720D01*
X587290Y220670D01*
X587270Y220630D01*
X587250Y220580D01*
X587220Y220540D01*
X587190Y220490D01*
X587160Y220450D01*
X587120Y220410D01*
X587090Y220370D01*
X587050Y220340D01*
X587010Y220300D01*
X586970Y220270D01*
X586920Y220240D01*
X586880Y220210D01*
X586830Y220190D01*
X586790Y220170D01*
X586740Y220150D01*
X586690Y220130D01*
X586640Y220110D01*
X586590Y220100D01*
X586540Y220090D01*
X586480D01*
X586430Y220080D01*
X584830D01*
X584780Y220090D01*
X584720D01*
X584670Y220100D01*
X584620Y220110D01*
X584570Y220130D01*
X584520Y220150D01*
X584470Y220170D01*
X584430Y220190D01*
X584380Y220210D01*
X584340Y220240D01*
X584290Y220270D01*
X584250Y220300D01*
X584210Y220340D01*
X584170Y220370D01*
X584140Y220410D01*
X584100Y220450D01*
X584070Y220490D01*
X584040Y220540D01*
X584010Y220580D01*
X583990Y220630D01*
X583970Y220670D01*
X583950Y220720D01*
X583930Y220770D01*
X583910Y220820D01*
X583900Y220870D01*
X583890Y220920D01*
Y220980D01*
X583880Y221030D01*
Y221080D01*
Y226080D01*
Y226130D01*
X583890Y226180D01*
Y226240D01*
X583900Y226290D01*
X583910Y226340D01*
X583930Y226390D01*
X583950Y226440D01*
X583970Y226490D01*
X583990Y226530D01*
X584010Y226580D01*
X584040Y226620D01*
X584070Y226670D01*
X584100Y226710D01*
X584140Y226750D01*
X584170Y226790D01*
X584210Y226820D01*
X584250Y226860D01*
X584290Y226890D01*
X584340Y226920D01*
X584380Y226950D01*
X584430Y226970D01*
X584470Y226990D01*
X584520Y227010D01*
X584570Y227030D01*
X584620Y227050D01*
X584670Y227060D01*
X584720Y227070D01*
X584780D01*
X584830Y227080D01*
X586430D01*
X586480Y227070D01*
D02*
G37*
G36*
X604730Y216320D02*
X604790D01*
X604840Y216310D01*
X604890Y216300D01*
X604940Y216280D01*
X604990Y216260D01*
X605040Y216240D01*
X605080Y216220D01*
X605130Y216200D01*
X605170Y216170D01*
X605220Y216140D01*
X605260Y216110D01*
X605300Y216070D01*
X605340Y216040D01*
X605370Y216000D01*
X605410Y215960D01*
X605440Y215920D01*
X605470Y215870D01*
X605500Y215830D01*
X605520Y215780D01*
X605540Y215740D01*
X605560Y215690D01*
X605580Y215640D01*
X605600Y215590D01*
X605610Y215540D01*
X605620Y215490D01*
Y215430D01*
X605630Y215380D01*
Y215330D01*
Y213830D01*
Y213780D01*
X605620Y213730D01*
Y213670D01*
X605610Y213620D01*
X605600Y213570D01*
X605580Y213520D01*
X605560Y213470D01*
X605540Y213420D01*
X605520Y213380D01*
X605500Y213330D01*
X605470Y213290D01*
X605440Y213240D01*
X605410Y213200D01*
X605370Y213160D01*
X605340Y213120D01*
X605300Y213090D01*
X605260Y213050D01*
X605220Y213020D01*
X605170Y212990D01*
X605130Y212960D01*
X605080Y212940D01*
X605040Y212920D01*
X604990Y212900D01*
X604940Y212880D01*
X604890Y212860D01*
X604840Y212850D01*
X604790Y212840D01*
X604730D01*
X604680Y212830D01*
X599580D01*
X599530Y212840D01*
X599470D01*
X599420Y212850D01*
X599370Y212860D01*
X599320Y212880D01*
X599270Y212900D01*
X599220Y212920D01*
X599180Y212940D01*
X599130Y212960D01*
X599090Y212990D01*
X599040Y213020D01*
X599000Y213050D01*
X598960Y213090D01*
X598920Y213120D01*
X598890Y213160D01*
X598850Y213200D01*
X598820Y213240D01*
X598790Y213290D01*
X598760Y213330D01*
X598740Y213380D01*
X598720Y213420D01*
X598700Y213470D01*
X598680Y213520D01*
X598660Y213570D01*
X598650Y213620D01*
X598640Y213670D01*
Y213730D01*
X598630Y213780D01*
Y213830D01*
Y215330D01*
Y215380D01*
X598640Y215430D01*
Y215490D01*
X598650Y215540D01*
X598660Y215590D01*
X598680Y215640D01*
X598700Y215690D01*
X598720Y215740D01*
X598740Y215780D01*
X598760Y215830D01*
X598790Y215870D01*
X598820Y215920D01*
X598850Y215960D01*
X598890Y216000D01*
X598920Y216040D01*
X598960Y216070D01*
X599000Y216110D01*
X599040Y216140D01*
X599090Y216170D01*
X599130Y216200D01*
X599180Y216220D01*
X599220Y216240D01*
X599270Y216260D01*
X599320Y216280D01*
X599370Y216300D01*
X599420Y216310D01*
X599470Y216320D01*
X599530D01*
X599580Y216330D01*
X604680D01*
X604730Y216320D01*
D02*
G37*
G36*
X594730D02*
X594790D01*
X594840Y216310D01*
X594890Y216300D01*
X594940Y216280D01*
X594990Y216260D01*
X595040Y216240D01*
X595080Y216220D01*
X595130Y216200D01*
X595170Y216170D01*
X595220Y216140D01*
X595260Y216110D01*
X595300Y216070D01*
X595340Y216040D01*
X595370Y216000D01*
X595410Y215960D01*
X595440Y215920D01*
X595470Y215870D01*
X595500Y215830D01*
X595520Y215780D01*
X595540Y215740D01*
X595560Y215690D01*
X595580Y215640D01*
X595600Y215590D01*
X595610Y215540D01*
X595620Y215490D01*
Y215430D01*
X595630Y215380D01*
Y215330D01*
Y213830D01*
Y213780D01*
X595620Y213730D01*
Y213670D01*
X595610Y213620D01*
X595600Y213570D01*
X595580Y213520D01*
X595560Y213470D01*
X595540Y213420D01*
X595520Y213380D01*
X595500Y213330D01*
X595470Y213290D01*
X595440Y213240D01*
X595410Y213200D01*
X595370Y213160D01*
X595340Y213120D01*
X595300Y213090D01*
X595260Y213050D01*
X595220Y213020D01*
X595170Y212990D01*
X595130Y212960D01*
X595080Y212940D01*
X595040Y212920D01*
X594990Y212900D01*
X594940Y212880D01*
X594890Y212860D01*
X594840Y212850D01*
X594790Y212840D01*
X594730D01*
X594680Y212830D01*
X581580D01*
X581530Y212840D01*
X581470D01*
X581420Y212850D01*
X581370Y212860D01*
X581320Y212880D01*
X581270Y212900D01*
X581220Y212920D01*
X581180Y212940D01*
X581130Y212960D01*
X581090Y212990D01*
X581040Y213020D01*
X581000Y213050D01*
X580960Y213090D01*
X580920Y213120D01*
X580890Y213160D01*
X580850Y213200D01*
X580820Y213240D01*
X580790Y213290D01*
X580760Y213330D01*
X580740Y213380D01*
X580720Y213420D01*
X580700Y213470D01*
X580680Y213520D01*
X580660Y213570D01*
X580650Y213620D01*
X580640Y213670D01*
Y213730D01*
X580630Y213780D01*
Y213830D01*
Y215330D01*
Y215380D01*
X580640Y215430D01*
Y215490D01*
X580650Y215540D01*
X580660Y215590D01*
X580680Y215640D01*
X580700Y215690D01*
X580720Y215740D01*
X580740Y215780D01*
X580760Y215830D01*
X580790Y215870D01*
X580820Y215920D01*
X580850Y215960D01*
X580890Y216000D01*
X580920Y216040D01*
X580960Y216070D01*
X581000Y216110D01*
X581040Y216140D01*
X581090Y216170D01*
X581130Y216200D01*
X581180Y216220D01*
X581220Y216240D01*
X581270Y216260D01*
X581320Y216280D01*
X581370Y216300D01*
X581420Y216310D01*
X581470Y216320D01*
X581530D01*
X581580Y216330D01*
X594680D01*
X594730Y216320D01*
D02*
G37*
G36*
X604730Y211320D02*
X604790D01*
X604840Y211310D01*
X604890Y211300D01*
X604940Y211280D01*
X604990Y211260D01*
X605040Y211240D01*
X605080Y211220D01*
X605130Y211200D01*
X605170Y211170D01*
X605220Y211140D01*
X605260Y211110D01*
X605300Y211070D01*
X605340Y211040D01*
X605370Y211000D01*
X605410Y210960D01*
X605440Y210920D01*
X605470Y210870D01*
X605500Y210830D01*
X605520Y210780D01*
X605540Y210740D01*
X605560Y210690D01*
X605580Y210640D01*
X605600Y210590D01*
X605610Y210540D01*
X605620Y210490D01*
Y210430D01*
X605630Y210380D01*
Y210330D01*
Y208830D01*
Y208780D01*
X605620Y208730D01*
Y208670D01*
X605610Y208620D01*
X605600Y208570D01*
X605580Y208520D01*
X605560Y208470D01*
X605540Y208420D01*
X605520Y208380D01*
X605500Y208330D01*
X605470Y208290D01*
X605440Y208240D01*
X605410Y208200D01*
X605370Y208160D01*
X605340Y208120D01*
X605300Y208090D01*
X605260Y208050D01*
X605220Y208020D01*
X605170Y207990D01*
X605130Y207960D01*
X605080Y207940D01*
X605040Y207920D01*
X604990Y207900D01*
X604940Y207880D01*
X604890Y207860D01*
X604840Y207850D01*
X604790Y207840D01*
X604730D01*
X604680Y207830D01*
X591580D01*
X591530Y207840D01*
X591470D01*
X591420Y207850D01*
X591370Y207860D01*
X591320Y207880D01*
X591270Y207900D01*
X591220Y207920D01*
X591180Y207940D01*
X591130Y207960D01*
X591090Y207990D01*
X591040Y208020D01*
X591000Y208050D01*
X590960Y208090D01*
X590920Y208120D01*
X590890Y208160D01*
X590850Y208200D01*
X590820Y208240D01*
X590790Y208290D01*
X590760Y208330D01*
X590740Y208380D01*
X590720Y208420D01*
X590700Y208470D01*
X590680Y208520D01*
X590660Y208570D01*
X590650Y208620D01*
X590640Y208670D01*
Y208730D01*
X590630Y208780D01*
Y208830D01*
Y210330D01*
Y210380D01*
X590640Y210430D01*
Y210490D01*
X590650Y210540D01*
X590660Y210590D01*
X590680Y210640D01*
X590700Y210690D01*
X590720Y210740D01*
X590740Y210780D01*
X590760Y210830D01*
X590790Y210870D01*
X590820Y210920D01*
X590850Y210960D01*
X590890Y211000D01*
X590920Y211040D01*
X590960Y211070D01*
X591000Y211110D01*
X591040Y211140D01*
X591090Y211170D01*
X591130Y211200D01*
X591180Y211220D01*
X591220Y211240D01*
X591270Y211260D01*
X591320Y211280D01*
X591370Y211300D01*
X591420Y211310D01*
X591470Y211320D01*
X591530D01*
X591580Y211330D01*
X604680D01*
X604730Y211320D01*
D02*
G37*
G36*
X594730Y206320D02*
X594790D01*
X594840Y206310D01*
X594890Y206300D01*
X594940Y206280D01*
X594990Y206260D01*
X595040Y206240D01*
X595080Y206220D01*
X595130Y206200D01*
X595170Y206170D01*
X595220Y206140D01*
X595260Y206110D01*
X595300Y206070D01*
X595340Y206040D01*
X595370Y206000D01*
X595410Y205960D01*
X595440Y205920D01*
X595470Y205870D01*
X595500Y205830D01*
X595520Y205780D01*
X595540Y205740D01*
X595560Y205690D01*
X595580Y205640D01*
X595600Y205590D01*
X595610Y205540D01*
X595620Y205490D01*
Y205430D01*
X595630Y205380D01*
Y205330D01*
Y203830D01*
Y203780D01*
X595620Y203730D01*
Y203670D01*
X595610Y203620D01*
X595600Y203570D01*
X595580Y203520D01*
X595560Y203470D01*
X595540Y203420D01*
X595520Y203380D01*
X595500Y203330D01*
X595470Y203290D01*
X595440Y203240D01*
X595410Y203200D01*
X595370Y203160D01*
X595340Y203120D01*
X595300Y203090D01*
X595260Y203050D01*
X595220Y203020D01*
X595170Y202990D01*
X595130Y202960D01*
X595080Y202940D01*
X595040Y202920D01*
X594990Y202900D01*
X594940Y202880D01*
X594890Y202860D01*
X594840Y202850D01*
X594790Y202840D01*
X594730D01*
X594680Y202830D01*
X581580D01*
X581530Y202840D01*
X581470D01*
X581420Y202850D01*
X581370Y202860D01*
X581320Y202880D01*
X581270Y202900D01*
X581220Y202920D01*
X581180Y202940D01*
X581130Y202960D01*
X581090Y202990D01*
X581040Y203020D01*
X581000Y203050D01*
X580960Y203090D01*
X580920Y203120D01*
X580890Y203160D01*
X580850Y203200D01*
X580820Y203240D01*
X580790Y203290D01*
X580760Y203330D01*
X580740Y203380D01*
X580720Y203420D01*
X580700Y203470D01*
X580680Y203520D01*
X580660Y203570D01*
X580650Y203620D01*
X580640Y203670D01*
Y203730D01*
X580630Y203780D01*
Y203830D01*
Y205330D01*
Y205380D01*
X580640Y205430D01*
Y205490D01*
X580650Y205540D01*
X580660Y205590D01*
X580680Y205640D01*
X580700Y205690D01*
X580720Y205740D01*
X580740Y205780D01*
X580760Y205830D01*
X580790Y205870D01*
X580820Y205920D01*
X580850Y205960D01*
X580890Y206000D01*
X580920Y206040D01*
X580960Y206070D01*
X581000Y206110D01*
X581040Y206140D01*
X581090Y206170D01*
X581130Y206200D01*
X581180Y206220D01*
X581220Y206240D01*
X581270Y206260D01*
X581320Y206280D01*
X581370Y206300D01*
X581420Y206310D01*
X581470Y206320D01*
X581530D01*
X581580Y206330D01*
X594680D01*
X594730Y206320D01*
D02*
G37*
G36*
X601480Y199070D02*
X601540D01*
X601590Y199060D01*
X601640Y199050D01*
X601690Y199030D01*
X601740Y199010D01*
X601790Y198990D01*
X601830Y198970D01*
X601880Y198950D01*
X601920Y198920D01*
X601970Y198890D01*
X602010Y198860D01*
X602050Y198820D01*
X602090Y198790D01*
X602120Y198750D01*
X602160Y198710D01*
X602190Y198670D01*
X602220Y198620D01*
X602250Y198580D01*
X602270Y198530D01*
X602290Y198490D01*
X602310Y198440D01*
X602330Y198390D01*
X602350Y198340D01*
X602360Y198290D01*
X602370Y198240D01*
Y198180D01*
X602380Y198130D01*
Y198080D01*
Y193080D01*
Y193030D01*
X602370Y192980D01*
Y192920D01*
X602360Y192870D01*
X602350Y192820D01*
X602330Y192770D01*
X602310Y192720D01*
X602290Y192670D01*
X602270Y192630D01*
X602250Y192580D01*
X602220Y192540D01*
X602190Y192490D01*
X602160Y192450D01*
X602120Y192410D01*
X602090Y192370D01*
X602050Y192340D01*
X602010Y192300D01*
X601970Y192270D01*
X601920Y192240D01*
X601880Y192210D01*
X601830Y192190D01*
X601790Y192170D01*
X601740Y192150D01*
X601690Y192130D01*
X601640Y192110D01*
X601590Y192100D01*
X601540Y192090D01*
X601480D01*
X601430Y192080D01*
X599830D01*
X599780Y192090D01*
X599720D01*
X599670Y192100D01*
X599620Y192110D01*
X599570Y192130D01*
X599520Y192150D01*
X599470Y192170D01*
X599430Y192190D01*
X599380Y192210D01*
X599340Y192240D01*
X599290Y192270D01*
X599250Y192300D01*
X599210Y192340D01*
X599170Y192370D01*
X599140Y192410D01*
X599100Y192450D01*
X599070Y192490D01*
X599040Y192540D01*
X599010Y192580D01*
X598990Y192630D01*
X598970Y192670D01*
X598950Y192720D01*
X598930Y192770D01*
X598910Y192820D01*
X598900Y192870D01*
X598890Y192920D01*
Y192980D01*
X598880Y193030D01*
Y193080D01*
Y198080D01*
Y198130D01*
X598890Y198180D01*
Y198240D01*
X598900Y198290D01*
X598910Y198340D01*
X598930Y198390D01*
X598950Y198440D01*
X598970Y198490D01*
X598990Y198530D01*
X599010Y198580D01*
X599040Y198620D01*
X599070Y198670D01*
X599100Y198710D01*
X599140Y198750D01*
X599170Y198790D01*
X599210Y198820D01*
X599250Y198860D01*
X599290Y198890D01*
X599340Y198920D01*
X599380Y198950D01*
X599430Y198970D01*
X599470Y198990D01*
X599520Y199010D01*
X599570Y199030D01*
X599620Y199050D01*
X599670Y199060D01*
X599720Y199070D01*
X599780D01*
X599830Y199080D01*
X601430D01*
X601480Y199070D01*
D02*
G37*
G36*
X596480D02*
X596540D01*
X596590Y199060D01*
X596640Y199050D01*
X596690Y199030D01*
X596740Y199010D01*
X596790Y198990D01*
X596830Y198970D01*
X596880Y198950D01*
X596920Y198920D01*
X596970Y198890D01*
X597010Y198860D01*
X597050Y198820D01*
X597090Y198790D01*
X597120Y198750D01*
X597160Y198710D01*
X597190Y198670D01*
X597220Y198620D01*
X597250Y198580D01*
X597270Y198530D01*
X597290Y198490D01*
X597310Y198440D01*
X597330Y198390D01*
X597350Y198340D01*
X597360Y198290D01*
X597370Y198240D01*
Y198180D01*
X597380Y198130D01*
Y198080D01*
Y193080D01*
Y193030D01*
X597370Y192980D01*
Y192920D01*
X597360Y192870D01*
X597350Y192820D01*
X597330Y192770D01*
X597310Y192720D01*
X597290Y192670D01*
X597270Y192630D01*
X597250Y192580D01*
X597220Y192540D01*
X597190Y192490D01*
X597160Y192450D01*
X597120Y192410D01*
X597090Y192370D01*
X597050Y192340D01*
X597010Y192300D01*
X596970Y192270D01*
X596920Y192240D01*
X596880Y192210D01*
X596830Y192190D01*
X596790Y192170D01*
X596740Y192150D01*
X596690Y192130D01*
X596640Y192110D01*
X596590Y192100D01*
X596540Y192090D01*
X596480D01*
X596430Y192080D01*
X594830D01*
X594780Y192090D01*
X594720D01*
X594670Y192100D01*
X594620Y192110D01*
X594570Y192130D01*
X594520Y192150D01*
X594470Y192170D01*
X594430Y192190D01*
X594380Y192210D01*
X594340Y192240D01*
X594290Y192270D01*
X594250Y192300D01*
X594210Y192340D01*
X594170Y192370D01*
X594140Y192410D01*
X594100Y192450D01*
X594070Y192490D01*
X594040Y192540D01*
X594010Y192580D01*
X593990Y192630D01*
X593970Y192670D01*
X593950Y192720D01*
X593930Y192770D01*
X593910Y192820D01*
X593900Y192870D01*
X593890Y192920D01*
Y192980D01*
X593880Y193030D01*
Y193080D01*
Y198080D01*
Y198130D01*
X593890Y198180D01*
Y198240D01*
X593900Y198290D01*
X593910Y198340D01*
X593930Y198390D01*
X593950Y198440D01*
X593970Y198490D01*
X593990Y198530D01*
X594010Y198580D01*
X594040Y198620D01*
X594070Y198670D01*
X594100Y198710D01*
X594140Y198750D01*
X594170Y198790D01*
X594210Y198820D01*
X594250Y198860D01*
X594290Y198890D01*
X594340Y198920D01*
X594380Y198950D01*
X594430Y198970D01*
X594470Y198990D01*
X594520Y199010D01*
X594570Y199030D01*
X594620Y199050D01*
X594670Y199060D01*
X594720Y199070D01*
X594780D01*
X594830Y199080D01*
X596430D01*
X596480Y199070D01*
D02*
G37*
G36*
X591480D02*
X591540D01*
X591590Y199060D01*
X591640Y199050D01*
X591690Y199030D01*
X591740Y199010D01*
X591790Y198990D01*
X591830Y198970D01*
X591880Y198950D01*
X591920Y198920D01*
X591970Y198890D01*
X592010Y198860D01*
X592050Y198820D01*
X592090Y198790D01*
X592120Y198750D01*
X592160Y198710D01*
X592190Y198670D01*
X592220Y198620D01*
X592250Y198580D01*
X592270Y198530D01*
X592290Y198490D01*
X592310Y198440D01*
X592330Y198390D01*
X592350Y198340D01*
X592360Y198290D01*
X592370Y198240D01*
Y198180D01*
X592380Y198130D01*
Y198080D01*
Y193080D01*
Y193030D01*
X592370Y192980D01*
Y192920D01*
X592360Y192870D01*
X592350Y192820D01*
X592330Y192770D01*
X592310Y192720D01*
X592290Y192670D01*
X592270Y192630D01*
X592250Y192580D01*
X592220Y192540D01*
X592190Y192490D01*
X592160Y192450D01*
X592120Y192410D01*
X592090Y192370D01*
X592050Y192340D01*
X592010Y192300D01*
X591970Y192270D01*
X591920Y192240D01*
X591880Y192210D01*
X591830Y192190D01*
X591790Y192170D01*
X591740Y192150D01*
X591690Y192130D01*
X591640Y192110D01*
X591590Y192100D01*
X591540Y192090D01*
X591480D01*
X591430Y192080D01*
X589830D01*
X589780Y192090D01*
X589720D01*
X589670Y192100D01*
X589620Y192110D01*
X589570Y192130D01*
X589520Y192150D01*
X589470Y192170D01*
X589430Y192190D01*
X589380Y192210D01*
X589340Y192240D01*
X589290Y192270D01*
X589250Y192300D01*
X589210Y192340D01*
X589170Y192370D01*
X589140Y192410D01*
X589100Y192450D01*
X589070Y192490D01*
X589040Y192540D01*
X589010Y192580D01*
X588990Y192630D01*
X588970Y192670D01*
X588950Y192720D01*
X588930Y192770D01*
X588910Y192820D01*
X588900Y192870D01*
X588890Y192920D01*
Y192980D01*
X588880Y193030D01*
Y193080D01*
Y198080D01*
Y198130D01*
X588890Y198180D01*
Y198240D01*
X588900Y198290D01*
X588910Y198340D01*
X588930Y198390D01*
X588950Y198440D01*
X588970Y198490D01*
X588990Y198530D01*
X589010Y198580D01*
X589040Y198620D01*
X589070Y198670D01*
X589100Y198710D01*
X589140Y198750D01*
X589170Y198790D01*
X589210Y198820D01*
X589250Y198860D01*
X589290Y198890D01*
X589340Y198920D01*
X589380Y198950D01*
X589430Y198970D01*
X589470Y198990D01*
X589520Y199010D01*
X589570Y199030D01*
X589620Y199050D01*
X589670Y199060D01*
X589720Y199070D01*
X589780D01*
X589830Y199080D01*
X591430D01*
X591480Y199070D01*
D02*
G37*
G36*
X586480D02*
X586540D01*
X586590Y199060D01*
X586640Y199050D01*
X586690Y199030D01*
X586740Y199010D01*
X586790Y198990D01*
X586830Y198970D01*
X586880Y198950D01*
X586920Y198920D01*
X586970Y198890D01*
X587010Y198860D01*
X587050Y198820D01*
X587090Y198790D01*
X587120Y198750D01*
X587160Y198710D01*
X587190Y198670D01*
X587220Y198620D01*
X587250Y198580D01*
X587270Y198530D01*
X587290Y198490D01*
X587310Y198440D01*
X587330Y198390D01*
X587350Y198340D01*
X587360Y198290D01*
X587370Y198240D01*
Y198180D01*
X587380Y198130D01*
Y198080D01*
Y193080D01*
Y193030D01*
X587370Y192980D01*
Y192920D01*
X587360Y192870D01*
X587350Y192820D01*
X587330Y192770D01*
X587310Y192720D01*
X587290Y192670D01*
X587270Y192630D01*
X587250Y192580D01*
X587220Y192540D01*
X587190Y192490D01*
X587160Y192450D01*
X587120Y192410D01*
X587090Y192370D01*
X587050Y192340D01*
X587010Y192300D01*
X586970Y192270D01*
X586920Y192240D01*
X586880Y192210D01*
X586830Y192190D01*
X586790Y192170D01*
X586740Y192150D01*
X586690Y192130D01*
X586640Y192110D01*
X586590Y192100D01*
X586540Y192090D01*
X586480D01*
X586430Y192080D01*
X584830D01*
X584780Y192090D01*
X584720D01*
X584670Y192100D01*
X584620Y192110D01*
X584570Y192130D01*
X584520Y192150D01*
X584470Y192170D01*
X584430Y192190D01*
X584380Y192210D01*
X584340Y192240D01*
X584290Y192270D01*
X584250Y192300D01*
X584210Y192340D01*
X584170Y192370D01*
X584140Y192410D01*
X584100Y192450D01*
X584070Y192490D01*
X584040Y192540D01*
X584010Y192580D01*
X583990Y192630D01*
X583970Y192670D01*
X583950Y192720D01*
X583930Y192770D01*
X583910Y192820D01*
X583900Y192870D01*
X583890Y192920D01*
Y192980D01*
X583880Y193030D01*
Y193080D01*
Y198080D01*
Y198130D01*
X583890Y198180D01*
Y198240D01*
X583900Y198290D01*
X583910Y198340D01*
X583930Y198390D01*
X583950Y198440D01*
X583970Y198490D01*
X583990Y198530D01*
X584010Y198580D01*
X584040Y198620D01*
X584070Y198670D01*
X584100Y198710D01*
X584140Y198750D01*
X584170Y198790D01*
X584210Y198820D01*
X584250Y198860D01*
X584290Y198890D01*
X584340Y198920D01*
X584380Y198950D01*
X584430Y198970D01*
X584470Y198990D01*
X584520Y199010D01*
X584570Y199030D01*
X584620Y199050D01*
X584670Y199060D01*
X584720Y199070D01*
X584780D01*
X584830Y199080D01*
X586430D01*
X586480Y199070D01*
D02*
G37*
G36*
X1166233Y151394D02*
X1166374Y151253D01*
X1166450Y151069D01*
Y150970D01*
Y133510D01*
Y133411D01*
X1166374Y133227D01*
X1166233Y133086D01*
X1166049Y133010D01*
X1145350D01*
X1145167Y133086D01*
X1145026Y133227D01*
X1144950Y133411D01*
Y133510D01*
Y150970D01*
Y151069D01*
X1145026Y151253D01*
X1145167Y151394D01*
X1145350Y151470D01*
X1166049D01*
X1166233Y151394D01*
D02*
G37*
G36*
X690910Y123780D02*
X689810D01*
X688310Y125280D01*
Y127680D01*
X690910D01*
Y123780D01*
D02*
G37*
G36*
X684410Y125280D02*
X682910Y123780D01*
X681810D01*
Y127680D01*
X684410D01*
Y125280D01*
D02*
G37*
G36*
X690910Y115680D02*
X688310D01*
Y118080D01*
X689810Y119580D01*
X690910D01*
Y115680D01*
D02*
G37*
G36*
X684410Y118080D02*
Y115680D01*
X681810D01*
Y119580D01*
X682910D01*
X684410Y118080D01*
D02*
G37*
G36*
X796470Y80460D02*
X795370D01*
X793870Y81960D01*
Y84360D01*
X796470D01*
Y80460D01*
D02*
G37*
G36*
X789970Y81960D02*
X788470Y80460D01*
X787370D01*
Y84360D01*
X789970D01*
Y81960D01*
D02*
G37*
G36*
X796470Y72360D02*
X793870D01*
Y74760D01*
X795370Y76260D01*
X796470D01*
Y72360D01*
D02*
G37*
G36*
X789970Y74760D02*
Y72360D01*
X787370D01*
Y76260D01*
X788470D01*
X789970Y74760D01*
D02*
G37*
D18*
X331380Y165100D02*
D03*
X339180D02*
D03*
X444410Y241300D02*
D03*
X452210D02*
D03*
X484960Y43180D02*
D03*
X492760D02*
D03*
X789940Y46990D02*
D03*
X797740D02*
D03*
X826590Y49530D02*
D03*
X834390D02*
D03*
X693330Y41910D02*
D03*
X701130D02*
D03*
D19*
X245930Y74200D02*
D03*
Y79200D02*
D03*
Y84200D02*
D03*
Y89200D02*
D03*
X274930D02*
D03*
Y84200D02*
D03*
Y79200D02*
D03*
Y74200D02*
D03*
X173380Y180880D02*
D03*
Y185880D02*
D03*
Y190880D02*
D03*
Y195880D02*
D03*
X202380D02*
D03*
Y190880D02*
D03*
Y185880D02*
D03*
Y180880D02*
D03*
X720830Y88600D02*
D03*
Y93600D02*
D03*
Y98600D02*
D03*
Y103600D02*
D03*
X749830D02*
D03*
Y98600D02*
D03*
Y93600D02*
D03*
Y88600D02*
D03*
X920140Y132620D02*
D03*
Y137620D02*
D03*
Y142620D02*
D03*
Y147620D02*
D03*
X949140D02*
D03*
Y142620D02*
D03*
Y137620D02*
D03*
Y132620D02*
D03*
D20*
X255430Y91200D02*
D03*
X182880Y197880D02*
D03*
X730330Y105600D02*
D03*
X929640Y149620D02*
D03*
D21*
X260430Y87200D02*
D03*
X265430Y76200D02*
D03*
X255430D02*
D03*
X187880Y193880D02*
D03*
X192880Y182880D02*
D03*
X182880D02*
D03*
X735330Y101600D02*
D03*
X740330Y90600D02*
D03*
X730330D02*
D03*
X934640Y145620D02*
D03*
X939640Y134620D02*
D03*
X929640D02*
D03*
D22*
X896620Y83260D02*
D03*
Y76760D02*
D03*
X1195070Y196290D02*
D03*
Y189790D02*
D03*
D23*
X619760Y75640D02*
D03*
Y69140D02*
D03*
X610870Y266700D02*
D03*
Y260200D02*
D03*
X248920Y202640D02*
D03*
Y196140D02*
D03*
X1381760Y338940D02*
D03*
Y345440D02*
D03*
X1198880Y119230D02*
D03*
Y125730D02*
D03*
X863600Y322430D02*
D03*
Y328930D02*
D03*
X918210Y363070D02*
D03*
Y369570D02*
D03*
X1032510Y212090D02*
D03*
Y205590D02*
D03*
X1395730Y314400D02*
D03*
Y307900D02*
D03*
X1206500Y174700D02*
D03*
Y168200D02*
D03*
X154940Y63650D02*
D03*
Y57150D02*
D03*
X1116330Y85800D02*
D03*
Y79300D02*
D03*
D24*
X641350Y96520D02*
D03*
Y91434D02*
D03*
X1188720Y151133D02*
D03*
Y146047D02*
D03*
X1413510Y255273D02*
D03*
Y250187D02*
D03*
X1207770Y82550D02*
D03*
Y77464D02*
D03*
X751840Y49533D02*
D03*
Y44447D02*
D03*
X913130Y326393D02*
D03*
Y321307D02*
D03*
X534670Y194313D02*
D03*
Y189227D02*
D03*
X873760Y91440D02*
D03*
Y86354D02*
D03*
X193040Y60966D02*
D03*
Y55880D02*
D03*
D25*
X381000Y88070D02*
D03*
X393700D02*
D03*
X406400D02*
D03*
X419100D02*
D03*
X381000Y153670D02*
D03*
X393700D02*
D03*
X406400D02*
D03*
X419100D02*
D03*
X934720Y278350D02*
D03*
X947420D02*
D03*
X960120D02*
D03*
X972820D02*
D03*
X934720Y343950D02*
D03*
X947420D02*
D03*
X960120D02*
D03*
X972820D02*
D03*
X668020Y269460D02*
D03*
X680720D02*
D03*
X693420D02*
D03*
X706120D02*
D03*
X668020Y335060D02*
D03*
X680720D02*
D03*
X693420D02*
D03*
X706120D02*
D03*
X388620Y265650D02*
D03*
X401320D02*
D03*
X414020D02*
D03*
X426720D02*
D03*
X388620Y331250D02*
D03*
X401320D02*
D03*
X414020D02*
D03*
X426720D02*
D03*
D26*
X400050Y120870D02*
D03*
X953770Y311150D02*
D03*
X687070Y302260D02*
D03*
X407670Y298450D02*
D03*
D27*
X470535Y134620D02*
D03*
X454025D02*
D03*
X321945Y205740D02*
D03*
X305435D02*
D03*
X348615Y243840D02*
D03*
X332105D02*
D03*
X450850Y48260D02*
D03*
X434341D02*
D03*
X113029Y118110D02*
D03*
X96520D02*
D03*
X1370965Y72390D02*
D03*
X1354455D02*
D03*
X1002665Y347980D02*
D03*
X1019175D02*
D03*
X1058545Y195580D02*
D03*
X1075055D02*
D03*
D28*
X843280Y276860D02*
D03*
X784860D02*
D03*
X1366520Y279400D02*
D03*
X1308100D02*
D03*
X1098550Y143510D02*
D03*
X1040130D02*
D03*
X293370Y147320D02*
D03*
X234950D02*
D03*
X572770Y139700D02*
D03*
X514350D02*
D03*
X574040Y279400D02*
D03*
X515620D02*
D03*
X1367790Y143510D02*
D03*
X1309370D02*
D03*
X1101090Y276860D02*
D03*
X1042670D02*
D03*
X295910Y279400D02*
D03*
X237490D02*
D03*
X845820Y143510D02*
D03*
X787400D02*
D03*
D29*
X275590Y205830D02*
D03*
Y198030D02*
D03*
X218440Y218440D02*
D03*
Y210640D02*
D03*
X736600Y235130D02*
D03*
Y227330D02*
D03*
X1191260Y91530D02*
D03*
Y83730D02*
D03*
X1226820Y165190D02*
D03*
Y157390D02*
D03*
X1419860Y138520D02*
D03*
Y130720D02*
D03*
X350520Y96610D02*
D03*
Y88810D02*
D03*
X525780Y78830D02*
D03*
Y71030D02*
D03*
X1225550Y331650D02*
D03*
Y323850D02*
D03*
X1000760Y300990D02*
D03*
Y293190D02*
D03*
X1007110Y129540D02*
D03*
Y121740D02*
D03*
X308610Y331470D02*
D03*
Y323670D02*
D03*
X327660Y285840D02*
D03*
Y278040D02*
D03*
X660400Y82640D02*
D03*
Y74840D02*
D03*
D30*
X204470Y290180D02*
D03*
Y304180D02*
D03*
X173990Y299720D02*
D03*
Y313720D02*
D03*
X857250Y194280D02*
D03*
Y208280D02*
D03*
X753110Y125080D02*
D03*
Y139080D02*
D03*
X715010Y186690D02*
D03*
Y200690D02*
D03*
D31*
X358140Y280670D02*
D03*
X686360Y121680D02*
D03*
X791920Y78360D02*
D03*
D32*
X354890Y284720D02*
D03*
X361390D02*
D03*
X683110Y125730D02*
D03*
X689610D02*
D03*
X788670Y82410D02*
D03*
X795170D02*
D03*
D33*
X361390Y275970D02*
D03*
X354890D02*
D03*
X689610Y116980D02*
D03*
X683110D02*
D03*
X795170Y73660D02*
D03*
X788670D02*
D03*
D34*
X126515Y219150D02*
D03*
Y206150D02*
D03*
X145265D02*
D03*
X126515Y212650D02*
D03*
X145265D02*
D03*
Y219150D02*
D03*
X586255Y82700D02*
D03*
Y69700D02*
D03*
X605005D02*
D03*
X586255Y76200D02*
D03*
X605005D02*
D03*
Y82700D02*
D03*
D35*
X135890Y206150D02*
D03*
X595630Y69700D02*
D03*
D36*
X135890Y215900D02*
D03*
X595630Y79450D02*
D03*
D37*
X971520Y222250D02*
D03*
X985520D02*
D03*
D38*
X741680Y183616D02*
D03*
Y176530D02*
D03*
X1123950Y142240D02*
D03*
Y135154D02*
D03*
X1220470Y356870D02*
D03*
Y349784D02*
D03*
X1097280Y343903D02*
D03*
Y336817D02*
D03*
X426720Y359143D02*
D03*
Y352057D02*
D03*
X1163320Y284480D02*
D03*
Y277394D02*
D03*
X334010Y129273D02*
D03*
Y122187D02*
D03*
X455930Y345173D02*
D03*
Y338087D02*
D03*
X480060Y165100D02*
D03*
Y158014D02*
D03*
X648970Y365493D02*
D03*
Y358407D02*
D03*
X661670Y163563D02*
D03*
Y156477D02*
D03*
D39*
X896620Y196980D02*
D03*
Y181480D02*
D03*
X252730Y343030D02*
D03*
Y327530D02*
D03*
X118110Y280800D02*
D03*
Y265300D02*
D03*
X685800Y172720D02*
D03*
Y157220D02*
D03*
X450850Y99320D02*
D03*
Y83820D02*
D03*
D40*
X980440Y155340D02*
D03*
Y141840D02*
D03*
X1243330Y306470D02*
D03*
Y292970D02*
D03*
X147320Y312420D02*
D03*
Y298920D02*
D03*
X91440Y236620D02*
D03*
Y223120D02*
D03*
X810260Y356400D02*
D03*
Y342900D02*
D03*
X1290320Y215030D02*
D03*
Y201530D02*
D03*
X113030Y75330D02*
D03*
Y61830D02*
D03*
X356870Y312020D02*
D03*
Y325520D02*
D03*
D41*
X815470Y200660D02*
D03*
X799970D02*
D03*
X903100Y356870D02*
D03*
X887600D02*
D03*
X786390Y347980D02*
D03*
X770890D02*
D03*
X844680Y81280D02*
D03*
X829180D02*
D03*
X764410Y209550D02*
D03*
X779910D02*
D03*
X696090Y220980D02*
D03*
X680590D02*
D03*
X637670Y185420D02*
D03*
X622170D02*
D03*
D42*
X657860Y205740D02*
D03*
Y195240D02*
D03*
X1012190Y85090D02*
D03*
Y74590D02*
D03*
X1183640Y360850D02*
D03*
Y350350D02*
D03*
X1187450Y316400D02*
D03*
Y305900D02*
D03*
X1186180Y240200D02*
D03*
Y229700D02*
D03*
X1140460Y322750D02*
D03*
Y312250D02*
D03*
X610870Y123360D02*
D03*
Y112860D02*
D03*
X392430Y190670D02*
D03*
Y180170D02*
D03*
X513080Y222420D02*
D03*
Y211920D02*
D03*
D43*
X650240Y239470D02*
D03*
Y232970D02*
D03*
X1393190Y240180D02*
D03*
Y233680D02*
D03*
X1139190Y75640D02*
D03*
Y69140D02*
D03*
X1172210Y76910D02*
D03*
Y70410D02*
D03*
X889000Y139700D02*
D03*
Y133200D02*
D03*
X759460Y248920D02*
D03*
Y242420D02*
D03*
D44*
X980440Y92710D02*
D03*
Y77710D02*
D03*
X411480Y222130D02*
D03*
Y207130D02*
D03*
X359410Y203080D02*
D03*
Y188080D02*
D03*
D45*
X1014730Y264070D02*
D03*
Y271870D02*
D03*
X1209040Y214540D02*
D03*
Y222340D02*
D03*
X309880Y77380D02*
D03*
Y85180D02*
D03*
D46*
X868680Y143510D02*
D03*
Y149010D02*
D03*
X1220470Y112820D02*
D03*
Y118320D02*
D03*
X1234440Y201930D02*
D03*
Y196430D02*
D03*
X283210Y329780D02*
D03*
Y335280D02*
D03*
X553720Y218230D02*
D03*
Y223730D02*
D03*
D47*
X687980Y69850D02*
D03*
X706480D02*
D03*
D48*
X1273810Y292160D02*
D03*
Y299660D02*
D03*
X1300480Y341690D02*
D03*
Y349190D02*
D03*
X1405890Y208340D02*
D03*
Y215840D02*
D03*
X1362710Y340480D02*
D03*
Y347980D02*
D03*
X508000Y344230D02*
D03*
Y351730D02*
D03*
X402590Y353120D02*
D03*
Y360620D02*
D03*
X704850Y358200D02*
D03*
Y365700D02*
D03*
X580390Y332800D02*
D03*
Y340300D02*
D03*
D49*
X1276350Y345440D02*
D03*
Y339440D02*
D03*
X330200Y322580D02*
D03*
Y316580D02*
D03*
X560070Y338740D02*
D03*
Y332740D02*
D03*
D50*
X1250950Y348870D02*
D03*
Y356870D02*
D03*
X88900Y68390D02*
D03*
Y76390D02*
D03*
X1424940Y172530D02*
D03*
Y180530D02*
D03*
X1391920Y266510D02*
D03*
Y274510D02*
D03*
D51*
X1252220Y141875D02*
D03*
Y127365D02*
D03*
X1247140Y89439D02*
D03*
Y74930D02*
D03*
X121920Y326025D02*
D03*
Y311515D02*
D03*
X92710Y301895D02*
D03*
Y287385D02*
D03*
X1127760Y370840D02*
D03*
Y356330D02*
D03*
X1400810Y170180D02*
D03*
Y155670D02*
D03*
X1398270Y108855D02*
D03*
Y94345D02*
D03*
X194310Y248555D02*
D03*
Y234045D02*
D03*
X146050Y266335D02*
D03*
Y251825D02*
D03*
D52*
X1322435Y205740D02*
D03*
X1336945D02*
D03*
X1321705Y74930D02*
D03*
X1307195D02*
D03*
X1137381Y245110D02*
D03*
X1151890D02*
D03*
X938895Y77470D02*
D03*
X953405D02*
D03*
X1109441Y199390D02*
D03*
X1123950D02*
D03*
X1061720Y72390D02*
D03*
X1047210D02*
D03*
X897890Y299720D02*
D03*
X883381D02*
D03*
D53*
X115570Y170870D02*
D03*
Y161870D02*
D03*
X88900Y178490D02*
D03*
Y169490D02*
D03*
X480060Y344860D02*
D03*
Y335860D02*
D03*
X1281430Y95250D02*
D03*
Y86250D02*
D03*
X1273810Y132770D02*
D03*
Y123770D02*
D03*
X1275080Y172140D02*
D03*
Y163140D02*
D03*
X1207770Y290250D02*
D03*
Y281250D02*
D03*
X561340Y194310D02*
D03*
Y185310D02*
D03*
D54*
X1178440Y196850D02*
D03*
X1163440D02*
D03*
X620790Y344170D02*
D03*
X605790D02*
D03*
X445650Y182880D02*
D03*
X430650D02*
D03*
D55*
X1096010Y85450D02*
D03*
Y66950D02*
D03*
X744220Y296630D02*
D03*
Y278130D02*
D03*
X834390Y353780D02*
D03*
Y335280D02*
D03*
D56*
X641230Y40640D02*
D03*
X633730D02*
D03*
X574100Y41910D02*
D03*
X581600D02*
D03*
X737810Y372110D02*
D03*
X730310D02*
D03*
X869890Y53340D02*
D03*
X862390D02*
D03*
D57*
X527510Y45720D02*
D03*
X521510D02*
D03*
D58*
X741680Y343490D02*
D03*
Y334690D02*
D03*
D62*
X694423Y374650D02*
D03*
X687337D02*
D03*
X454393Y209550D02*
D03*
X447307D02*
D03*
D63*
X535940Y343930D02*
D03*
Y328930D02*
D03*
D64*
X1337710Y340360D02*
D03*
X1324210D02*
D03*
X484740Y80010D02*
D03*
X498240D02*
D03*
X932580Y241300D02*
D03*
X919080D02*
D03*
X647700Y135890D02*
D03*
X634200D02*
D03*
X620160Y300990D02*
D03*
X606660D02*
D03*
X498240Y203200D02*
D03*
X484740D02*
D03*
X994410Y247650D02*
D03*
X1007910D02*
D03*
D65*
X1365100Y203200D02*
D03*
X1378100D02*
D03*
X636420Y222250D02*
D03*
X623420D02*
D03*
D66*
X1145950Y164240D02*
D03*
X1152450D02*
D03*
X1158950D02*
D03*
X1165450D02*
D03*
Y120240D02*
D03*
X1158950D02*
D03*
X1152450D02*
D03*
X1145950D02*
D03*
D67*
X1259840Y204480D02*
D03*
Y186580D02*
D03*
X1240790Y257930D02*
D03*
Y240030D02*
D03*
X1268730Y256550D02*
D03*
Y238650D02*
D03*
D68*
X146050Y120015D02*
D03*
Y103505D02*
D03*
X189230Y126365D02*
D03*
Y109855D02*
D03*
X944880Y207645D02*
D03*
Y191135D02*
D03*
X891540Y259715D02*
D03*
Y243205D02*
D03*
D69*
X481420Y231140D02*
D03*
X473620D02*
D03*
D70*
X386270Y219710D02*
D03*
X378270D02*
D03*
X1065720Y339090D02*
D03*
X1057720D02*
D03*
D71*
X150200Y166370D02*
D03*
X139700D02*
D03*
D72*
X718820Y144780D02*
D03*
X725320D02*
D03*
X535230Y223520D02*
D03*
X541730D02*
D03*
X393850Y50800D02*
D03*
X387350D02*
D03*
X363370Y134620D02*
D03*
X356870D02*
D03*
D73*
X612143Y154940D02*
D03*
X607057D02*
D03*
D74*
X635210Y255270D02*
D03*
X629710D02*
D03*
X488950Y257810D02*
D03*
X483450D02*
D03*
X360470Y55880D02*
D03*
X365970D02*
D03*
D75*
X1013220Y193040D02*
D03*
X998220D02*
D03*
D76*
X285040Y43180D02*
D03*
X291540D02*
D03*
D77*
X231140Y44450D02*
D03*
X237640D02*
D03*
D78*
X30550Y121810D02*
D03*
Y126810D02*
D03*
Y131810D02*
D03*
Y136810D02*
D03*
Y141810D02*
D03*
Y146810D02*
D03*
Y151810D02*
D03*
Y156810D02*
D03*
Y161810D02*
D03*
Y166810D02*
D03*
Y171810D02*
D03*
Y176810D02*
D03*
Y181810D02*
D03*
Y186810D02*
D03*
Y191810D02*
D03*
Y196810D02*
D03*
Y201810D02*
D03*
Y206810D02*
D03*
Y211810D02*
D03*
Y216810D02*
D03*
Y221810D02*
D03*
Y226810D02*
D03*
Y231810D02*
D03*
Y236810D02*
D03*
Y241810D02*
D03*
Y246810D02*
D03*
Y251810D02*
D03*
Y256810D02*
D03*
Y261810D02*
D03*
Y266810D02*
D03*
D79*
X5550Y111810D02*
D03*
Y276810D02*
D03*
D80*
X330760Y51585D02*
D03*
X343760D02*
D03*
Y70335D02*
D03*
X337260Y51585D02*
D03*
Y70335D02*
D03*
X330760D02*
D03*
D81*
X343760Y60960D02*
D03*
D82*
X334010D02*
D03*
D83*
X464820Y292100D02*
D03*
D84*
X462820Y301800D02*
D03*
X466820D02*
D03*
Y282400D02*
D03*
X462820D02*
D03*
D85*
X474520Y298100D02*
D03*
Y294100D02*
D03*
Y290100D02*
D03*
Y286100D02*
D03*
X455120D02*
D03*
Y290100D02*
D03*
Y294100D02*
D03*
Y298100D02*
D03*
D86*
X1156970Y130240D02*
D03*
X218298Y290180D02*
D03*
X314960Y280670D02*
D03*
D03*
X648970Y217170D02*
D03*
D03*
X427228Y88551D02*
D03*
X469900Y91440D02*
D03*
D03*
X355600Y78391D02*
D03*
D03*
X569976Y59944D02*
D03*
X393700Y72898D02*
D03*
X484740Y72136D02*
D03*
X580104Y67024D02*
D03*
X611124Y83550D02*
D03*
X26670Y167640D02*
D03*
X42513Y196810D02*
D03*
Y156810D02*
D03*
X34052Y166810D02*
D03*
X709930Y66770D02*
D03*
X614680Y63500D02*
D03*
X1038098Y324612D02*
D03*
X606552Y225552D02*
D03*
X543560Y233680D02*
D03*
X340360Y322580D02*
D03*
X450850Y327660D02*
D03*
X322580Y325120D02*
D03*
X21348Y239512D02*
D03*
X1231900Y207010D02*
D03*
X1172210Y210820D02*
D03*
X1096010Y186690D02*
D03*
X915670Y203200D02*
D03*
X891445Y204470D02*
D03*
X603250Y287020D02*
D03*
X595725Y302260D02*
D03*
X478790Y320040D02*
D03*
X1208786Y210618D02*
D03*
X936233Y183653D02*
D03*
X857250Y231140D02*
D03*
X1157986Y252222D02*
D03*
X248412Y94488D02*
D03*
X1157986Y252222D02*
D03*
X233172Y94996D02*
D03*
X24638Y201810D02*
D03*
X172974Y208788D02*
D03*
X1005840Y158242D02*
D03*
X44704Y181610D02*
D03*
X1186180Y247142D02*
D03*
X722122Y79248D02*
D03*
X671068D02*
D03*
X255430Y63085D02*
D03*
X1231900Y226568D02*
D03*
X449072Y289560D02*
D03*
X638302Y344170D02*
D03*
X483203Y325834D02*
D03*
X480314Y289306D02*
D03*
X623570Y322326D02*
D03*
X1365100Y209804D02*
D03*
X1234440D02*
D03*
X934720Y257889D02*
D03*
X1391920D02*
D03*
X963930Y334010D02*
D03*
X577850Y59436D02*
D03*
X610870Y274828D02*
D03*
X784860Y318516D02*
D03*
X400050Y160020D02*
D03*
X255524Y154829D02*
D03*
X387350Y147320D02*
D03*
X685038Y263906D02*
D03*
X1026160Y204978D02*
D03*
X697484Y279400D02*
D03*
X1395730Y318516D02*
D03*
X1034796Y319532D02*
D03*
X711962Y378206D02*
D03*
X346710Y251460D02*
D03*
X274828Y33528D02*
D03*
X592328Y172720D02*
D03*
Y217932D02*
D03*
X249936Y227838D02*
D03*
X441706Y193802D02*
D03*
X348996Y102108D02*
D03*
X338620Y300990D02*
D03*
X715010Y274066D02*
D03*
X181894Y313720D02*
D03*
X759828Y111252D02*
D03*
X715010D02*
D03*
X929640Y159588D02*
D03*
X374650Y133350D02*
D03*
X1358138Y225044D02*
D03*
X847836Y335280D02*
D03*
X654812Y364490D02*
D03*
X804164Y349758D02*
D03*
X328930Y191770D02*
D03*
X401828Y210312D02*
D03*
X155086Y78505D02*
D03*
X770382Y130937D02*
D03*
X332994Y292100D02*
D03*
X340680Y290180D02*
D03*
X162306Y219150D02*
D03*
X204470Y261314D02*
D03*
X665226Y105664D02*
D03*
X771916D02*
D03*
X252222Y125476D02*
D03*
X1137158Y180340D02*
D03*
X418846Y333502D02*
D03*
X885698Y226822D02*
D03*
X1084326Y175752D02*
D03*
X1044448Y185166D02*
D03*
X1075957Y336817D02*
D03*
X182626Y228346D02*
D03*
X980440Y70104D02*
D03*
X1366520Y310388D02*
D03*
X895064Y298419D02*
D03*
X690372Y93726D02*
D03*
X1336945Y128159D02*
D03*
X1123950Y114300D02*
D03*
X1265031Y120142D02*
D03*
X1336945Y128159D02*
D03*
X741680Y158750D02*
D03*
X760476Y177546D02*
D03*
X1163320Y247904D02*
D03*
X386080Y43942D02*
D03*
X514096D02*
D03*
X613410Y143256D02*
D03*
X665734D02*
D03*
X928624Y108458D02*
D03*
X322326Y122428D02*
D03*
X145288Y175768D02*
D03*
X712203Y410210D02*
D03*
X1057720Y368300D02*
D03*
X929132D02*
D03*
X942294Y147620D02*
D03*
X523875Y213360D02*
D03*
X685038Y358140D02*
D03*
X918210Y393065D02*
D03*
X782320Y256032D02*
D03*
X455930Y328930D02*
D03*
X326390Y324866D02*
D03*
X373888Y224092D02*
D03*
X758698Y76708D02*
D03*
X432816Y175006D02*
D03*
X239268Y74200D02*
D03*
X1139528Y353822D02*
D03*
X337312Y84582D02*
D03*
X493776Y87630D02*
D03*
X1129792Y322834D02*
D03*
X1187450Y76962D02*
D03*
X1203452Y107950D02*
D03*
X700532Y-508D02*
D03*
X652526Y179578D02*
D03*
X163798Y180880D02*
D03*
X157734Y185880D02*
D03*
X1413510Y219202D02*
D03*
X150200Y181778D02*
D03*
X60560Y208026D02*
D03*
X883381Y291338D02*
D03*
X994410Y272310D02*
D03*
X39624Y136810D02*
D03*
X597662Y137668D02*
D03*
X324104D02*
D03*
X64262Y131810D02*
D03*
X443707Y375951D02*
D03*
X38100Y144526D02*
D03*
X11430Y176530D02*
D03*
X1220470Y109220D02*
D03*
X881634Y120396D02*
D03*
X505714Y50038D02*
D03*
X496824Y48768D02*
D03*
X38354Y233426D02*
D03*
X881634Y120444D02*
D03*
X1068324Y184912D02*
D03*
X718820Y129286D02*
D03*
X57880Y152654D02*
D03*
X742452Y51806D02*
D03*
X748284Y37084D02*
D03*
X30480Y107516D02*
D03*
X508254Y319024D02*
D03*
X15748Y173990D02*
D03*
X1268294Y130556D02*
D03*
X871982Y147828D02*
D03*
X1179164Y73231D02*
D03*
X1268222Y302895D02*
D03*
X1199642Y73660D02*
D03*
X62738Y164592D02*
D03*
X1200912Y179070D02*
D03*
X42672Y172720D02*
D03*
X305054Y77380D02*
D03*
X506222Y212344D02*
D03*
X27432Y104648D02*
D03*
X86614Y203708D02*
D03*
X470408Y235712D02*
D03*
X755396Y70866D02*
D03*
X331073Y174498D02*
D03*
X339180Y178943D02*
D03*
X149352Y148082D02*
D03*
X41320Y151810D02*
D03*
X331343Y181579D02*
D03*
X375920Y360620D02*
D03*
X75946Y135648D02*
D03*
X380238Y43688D02*
D03*
X681736Y97490D02*
D03*
X683110D02*
D03*
X1176274Y181356D02*
D03*
X383540Y306870D02*
D03*
X364965Y281145D02*
D03*
X152400Y198120D02*
D03*
X843280Y236632D02*
D03*
X619760Y87122D02*
D03*
X623316Y86868D02*
D03*
X327406Y213614D02*
D03*
X1007110Y137922D02*
D03*
X891540Y222758D02*
D03*
X180086Y55880D02*
D03*
X269494Y82550D02*
D03*
X715477Y93726D02*
D03*
X876658Y133200D02*
D03*
X595630Y237236D02*
D03*
X482854Y271018D02*
D03*
X111506Y243332D02*
D03*
X173990Y305816D02*
D03*
X857250Y201930D02*
D03*
X695198D02*
D03*
X309880Y64008D02*
D03*
X911860Y89408D02*
D03*
X260096Y156210D02*
D03*
X376174Y188468D02*
D03*
X1106678Y81534D02*
D03*
X1123950Y233172D02*
D03*
X538770Y218186D02*
D03*
X718820Y129286D02*
D03*
X220980Y128524D02*
D03*
X1103630Y123952D02*
D03*
X1012190Y110998D02*
D03*
X1235710Y346964D02*
D03*
X713740Y290830D02*
D03*
X572008Y194056D02*
D03*
X508254Y257810D02*
D03*
X911606Y162306D02*
D03*
X388874Y68072D02*
D03*
X612902Y66802D02*
D03*
X884809Y83566D02*
D03*
X307594Y152400D02*
D03*
X483743Y286258D02*
D03*
X741680Y349504D02*
D03*
X469900Y319024D02*
D03*
X283210Y322834D02*
D03*
X894334Y189230D02*
D03*
X848614Y299720D02*
D03*
X491871Y267716D02*
D03*
X1145950Y129286D02*
D03*
X435610Y319024D02*
D03*
X583946Y234696D02*
D03*
X1211326Y104902D02*
D03*
X723900Y-17780D02*
D03*
X918210Y259811D02*
D03*
X925576Y137620D02*
D03*
X871982Y147828D02*
D03*
X232156Y174370D02*
D03*
X420744Y207130D02*
D03*
X730330Y125476D02*
D03*
X201930Y55880D02*
D03*
X1012190Y115570D02*
D03*
X980948Y98806D02*
D03*
X1115060Y142240D02*
D03*
X1336945Y153305D02*
D03*
X123952Y123952D02*
D03*
X746506Y85344D02*
D03*
X913130Y283210D02*
D03*
X943738Y141224D02*
D03*
X647700Y74422D02*
D03*
X243586Y122174D02*
D03*
X87376Y173990D02*
D03*
X1270508Y198120D02*
D03*
X422402Y329946D02*
D03*
X299974D02*
D03*
X239268Y79200D02*
D03*
X39132Y209312D02*
D03*
X275590Y242316D02*
D03*
X735330Y120904D02*
D03*
X471932D02*
D03*
X515620Y235458D02*
D03*
X334010Y107696D02*
D03*
X216027Y230830D02*
D03*
X196596Y214630D02*
D03*
X46401Y221810D02*
D03*
X345440Y43942D02*
D03*
X388620Y241554D02*
D03*
X172974Y208788D02*
D03*
X54622Y223520D02*
D03*
X1420876Y260604D02*
D03*
X751840Y-30480D02*
D03*
X737810Y389636D02*
D03*
X36322Y244602D02*
D03*
X787400Y53848D02*
D03*
X922020Y255778D02*
D03*
X956056Y113538D02*
D03*
X401320Y346710D02*
D03*
X1381506Y240180D02*
D03*
X1234440Y356870D02*
D03*
X1220470Y122428D02*
D03*
X1078992Y104648D02*
D03*
X633730Y46228D02*
D03*
X1134618Y110744D02*
D03*
X891540Y53340D02*
D03*
X763016Y422402D02*
D03*
X307594Y136906D02*
D03*
X741680Y167592D02*
D03*
X672846Y137922D02*
D03*
X684768Y97536D02*
D03*
X642790Y113538D02*
D03*
X868680Y139195D02*
D03*
X787400Y123952D02*
D03*
X442468Y263398D02*
D03*
X1001268Y129540D02*
D03*
X944880Y162875D02*
D03*
X865886Y155956D02*
D03*
X944880Y155794D02*
D03*
X322326Y260096D02*
D03*
X808228Y148971D02*
D03*
X941070Y340868D02*
D03*
X558419Y220472D02*
D03*
X998220Y98044D02*
D03*
X607822Y175942D02*
D03*
X674370Y328930D02*
D03*
X1214374Y331650D02*
D03*
X1378100Y228854D02*
D03*
X1308354Y340360D02*
D03*
X711962Y156210D02*
D03*
X459232Y161544D02*
D03*
X547676Y223520D02*
D03*
X477520Y149352D02*
D03*
X765924Y117094D02*
D03*
X735330Y120904D02*
D03*
X464058Y344678D02*
D03*
X748030Y304292D02*
D03*
X370452Y203080D02*
D03*
X480060Y185896D02*
D03*
X455391Y178594D02*
D03*
X607568Y214580D02*
D03*
X1270508Y205232D02*
D03*
X1165450Y173990D02*
D03*
X1372870Y251206D02*
D03*
X1277366Y238650D02*
D03*
X430650Y193802D02*
D03*
X577850Y209580D02*
D03*
X574040Y307340D02*
D03*
X734314D02*
D03*
X1051306Y204978D02*
D03*
X1195070Y200406D02*
D03*
X252730Y319024D02*
D03*
X329692Y97790D02*
D03*
X410718D02*
D03*
X627634Y110490D02*
D03*
X707644Y90424D02*
D03*
X444500Y89408D02*
D03*
X1204595Y235712D02*
D03*
X1151890D02*
D03*
X699262Y171196D02*
D03*
X737362D02*
D03*
D87*
X1167900Y147740D02*
D03*
X1155700D02*
D03*
X1143500D02*
D03*
X1167900Y136740D02*
D03*
X1155700D02*
D03*
X1143500D02*
D03*
M02*
