G04*
G04 #@! TF.GenerationSoftware,Altium Limited,Altium Designer,26.7.1 (11)*
G04*
G04 Layer_Physical_Order=4*
G04 Layer_Color=16711680*
G04 Board_Origin=10250000|11200000*
%FSLAX44Y44*%
%MOMM*%
G71*
G04*
G04 #@! TF.SameCoordinates,FFEA9334-926C-40BC-8964-0171260B8DE7*
G04*
G04*
G04 #@! TF.FilePolarity,Positive*
G04*
G01*
G75*
%ADD86C,0.2000*%
%ADD87C,0.5000*%
%ADD92C,0.1778*%
G36*
X1497330Y383540D02*
X1498600D01*
Y43180D01*
X1414780Y-40640D01*
X104140D01*
X2540Y60960D01*
Y351790D01*
X125730Y472440D01*
X1408430D01*
X1497330Y383540D01*
D02*
G37*
%LPC*%
G36*
X918608Y395065D02*
X917812D01*
X917077Y394761D01*
X916515Y394198D01*
X916210Y393463D01*
Y392667D01*
X916515Y391932D01*
X917077Y391370D01*
X917812Y391065D01*
X918608D01*
X919343Y391370D01*
X919905Y391932D01*
X920210Y392667D01*
Y393463D01*
X919905Y394198D01*
X919343Y394761D01*
X918608Y395065D01*
D02*
G37*
G36*
X655210Y366490D02*
X654414D01*
X653679Y366185D01*
X653117Y365623D01*
X652812Y364888D01*
Y364092D01*
X653117Y363357D01*
X653679Y362794D01*
X654414Y362490D01*
X655210D01*
X655945Y362794D01*
X656507Y363357D01*
X656812Y364092D01*
Y364888D01*
X656507Y365623D01*
X655945Y366185D01*
X655210Y366490D01*
D02*
G37*
G36*
X376318Y362620D02*
X375522D01*
X374787Y362316D01*
X374225Y361753D01*
X373920Y361018D01*
Y360222D01*
X374225Y359487D01*
X374787Y358924D01*
X375522Y358620D01*
X376318D01*
X377053Y358924D01*
X377616Y359487D01*
X377920Y360222D01*
Y361018D01*
X377616Y361753D01*
X377053Y362316D01*
X376318Y362620D01*
D02*
G37*
G36*
X1236108Y348964D02*
X1235312D01*
X1234577Y348660D01*
X1234015Y348097D01*
X1233710Y347362D01*
Y346566D01*
X1234015Y345831D01*
X1234577Y345269D01*
X1235312Y344964D01*
X1236108D01*
X1236843Y345269D01*
X1237405Y345831D01*
X1237710Y346566D01*
Y347362D01*
X1237405Y348097D01*
X1236843Y348660D01*
X1236108Y348964D01*
D02*
G37*
G36*
X941468Y342868D02*
X940672D01*
X939937Y342564D01*
X939374Y342001D01*
X939070Y341266D01*
Y340470D01*
X939374Y339735D01*
X939937Y339173D01*
X940672Y338868D01*
X941468D01*
X942203Y339173D01*
X942766Y339735D01*
X943070Y340470D01*
Y341266D01*
X942766Y342001D01*
X942203Y342564D01*
X941468Y342868D01*
D02*
G37*
G36*
X300372Y331946D02*
X299576D01*
X298841Y331642D01*
X298279Y331079D01*
X297974Y330344D01*
Y329548D01*
X298279Y328813D01*
X298841Y328251D01*
X299576Y327946D01*
X300372D01*
X301107Y328251D01*
X301670Y328813D01*
X301974Y329548D01*
Y330344D01*
X301670Y331079D01*
X301107Y331642D01*
X300372Y331946D01*
D02*
G37*
G36*
X451248Y329660D02*
X450452D01*
X450274Y329586D01*
X387985D01*
X387248Y329439D01*
X386623Y329022D01*
X384647Y327046D01*
X323157D01*
X322978Y327120D01*
X322182D01*
X321447Y326815D01*
X320885Y326253D01*
X320580Y325518D01*
Y324722D01*
X320885Y323987D01*
X321447Y323424D01*
X322182Y323120D01*
X322978D01*
X323157Y323194D01*
X325234D01*
X325257Y323171D01*
X325992Y322866D01*
X326788D01*
X327523Y323171D01*
X327546Y323194D01*
X385445D01*
X386182Y323341D01*
X386807Y323758D01*
X388783Y325734D01*
X420750D01*
X420824Y325491D01*
X420786Y325466D01*
X420786Y325466D01*
X414746Y319426D01*
X38862D01*
X38125Y319279D01*
X37500Y318862D01*
X14386Y295748D01*
X13969Y295123D01*
X13822Y294386D01*
Y173990D01*
X13969Y173253D01*
X14386Y172628D01*
X15011Y172211D01*
X15748Y172064D01*
X16485Y172211D01*
X17110Y172628D01*
X17527Y173253D01*
X17674Y173990D01*
Y293588D01*
X39660Y315574D01*
X415544D01*
X416281Y315721D01*
X416906Y316138D01*
X422946Y322178D01*
X478062D01*
X478112Y321924D01*
X477657Y321735D01*
X477094Y321173D01*
X476790Y320438D01*
Y319642D01*
X477094Y318907D01*
X477657Y318344D01*
X477938Y318228D01*
X481282Y314884D01*
X481907Y314467D01*
X482644Y314320D01*
X580941D01*
X593955Y301306D01*
X594030Y301127D01*
X594592Y300564D01*
X595327Y300260D01*
X596123D01*
X596858Y300564D01*
X597421Y301127D01*
X597725Y301862D01*
Y302658D01*
X597421Y303393D01*
X596858Y303955D01*
X596679Y304030D01*
X583101Y317608D01*
X582476Y318025D01*
X581739Y318172D01*
X510239D01*
X510061Y318426D01*
X510180Y319024D01*
X510033Y319761D01*
X509616Y320386D01*
X504536Y325466D01*
X503911Y325883D01*
X503174Y326030D01*
X452380D01*
X452283Y326265D01*
X452546Y326527D01*
X452850Y327262D01*
Y328058D01*
X452546Y328793D01*
X451983Y329356D01*
X451248Y329660D01*
D02*
G37*
G36*
X674768Y330930D02*
X673972D01*
X673237Y330625D01*
X672674Y330063D01*
X672370Y329328D01*
Y328532D01*
X672674Y327797D01*
X673237Y327234D01*
X673972Y326930D01*
X674768D01*
X675503Y327234D01*
X676066Y327797D01*
X676370Y328532D01*
Y329328D01*
X676066Y330063D01*
X675503Y330625D01*
X674768Y330930D01*
D02*
G37*
G36*
X1038496Y326612D02*
X1037700D01*
X1036965Y326307D01*
X1036403Y325745D01*
X1036098Y325010D01*
Y324214D01*
X1036403Y323479D01*
X1036965Y322916D01*
X1037700Y322612D01*
X1038496D01*
X1039231Y322916D01*
X1039793Y323479D01*
X1040098Y324214D01*
Y325010D01*
X1039793Y325745D01*
X1039231Y326307D01*
X1038496Y326612D01*
D02*
G37*
G36*
X1035194Y321532D02*
X1034398D01*
X1033663Y321227D01*
X1033101Y320665D01*
X1032796Y319930D01*
Y319134D01*
X1033101Y318399D01*
X1033663Y317836D01*
X1034398Y317532D01*
X1035194D01*
X1035929Y317836D01*
X1036491Y318399D01*
X1036796Y319134D01*
Y319930D01*
X1036491Y320665D01*
X1035929Y321227D01*
X1035194Y321532D01*
D02*
G37*
G36*
X436008Y321024D02*
X435212D01*
X434477Y320719D01*
X433914Y320157D01*
X433610Y319422D01*
Y318626D01*
X433914Y317891D01*
X434477Y317328D01*
X435212Y317024D01*
X436008D01*
X436743Y317328D01*
X437305Y317891D01*
X437610Y318626D01*
Y319422D01*
X437305Y320157D01*
X436743Y320719D01*
X436008Y321024D01*
D02*
G37*
G36*
X383938Y308870D02*
X383142D01*
X382407Y308565D01*
X381844Y308002D01*
X381540Y307267D01*
Y306472D01*
X381844Y305737D01*
X382407Y305174D01*
X383142Y304870D01*
X383938D01*
X384673Y305174D01*
X385235Y305737D01*
X385540Y306472D01*
Y307267D01*
X385235Y308002D01*
X384673Y308565D01*
X383938Y308870D01*
D02*
G37*
G36*
X748428Y306292D02*
X747632D01*
X746897Y305987D01*
X746335Y305425D01*
X746030Y304690D01*
Y303894D01*
X746335Y303159D01*
X746897Y302596D01*
X747632Y302292D01*
X748428D01*
X749163Y302596D01*
X749725Y303159D01*
X750030Y303894D01*
Y304690D01*
X749725Y305425D01*
X749163Y305987D01*
X748428Y306292D01*
D02*
G37*
G36*
X547260Y303244D02*
X546464D01*
X546286Y303170D01*
X84173D01*
X83436Y303023D01*
X82811Y302606D01*
X29118Y248913D01*
X28701Y248288D01*
X28554Y247551D01*
Y170574D01*
X27593D01*
X26856Y170427D01*
X26788Y170382D01*
X26564Y170501D01*
Y201810D01*
X26417Y202547D01*
X26000Y203172D01*
X25375Y203589D01*
X24638Y203736D01*
X23901Y203589D01*
X23276Y203172D01*
X22859Y202547D01*
X22712Y201810D01*
Y170491D01*
X22419Y170198D01*
X22002Y169574D01*
X21855Y168837D01*
Y166443D01*
X22002Y165706D01*
X22419Y165082D01*
X22712Y164789D01*
Y139954D01*
X22859Y139217D01*
X23276Y138592D01*
X68234Y93634D01*
X68859Y93217D01*
X69596Y93070D01*
X233172D01*
X233909Y93217D01*
X234534Y93634D01*
X234951Y94259D01*
X235098Y94996D01*
X234951Y95733D01*
X234534Y96358D01*
X233909Y96775D01*
X233172Y96922D01*
X70394D01*
X26564Y140752D01*
Y165586D01*
X26564Y165586D01*
X26608Y165640D01*
X27068D01*
X27803Y165944D01*
X28365Y166507D01*
X28454Y166721D01*
X32214D01*
X32214Y166721D01*
X32952Y166868D01*
X33576Y167286D01*
X33994Y167910D01*
X34141Y168647D01*
X33994Y169384D01*
X33576Y170009D01*
X33576Y170009D01*
X32406Y171180D01*
Y246753D01*
X84971Y299318D01*
X546286D01*
X546464Y299244D01*
X547260D01*
X547995Y299548D01*
X548558Y300111D01*
X548862Y300846D01*
Y301642D01*
X548558Y302377D01*
X547995Y302939D01*
X547260Y303244D01*
D02*
G37*
G36*
X1366918Y312388D02*
X1366122D01*
X1365387Y312083D01*
X1364825Y311521D01*
X1364751Y311342D01*
X1350990Y297582D01*
X917262D01*
X917084Y297656D01*
X916288D01*
X915553Y297351D01*
X914990Y296789D01*
X914686Y296054D01*
Y295258D01*
X914990Y294523D01*
X915553Y293960D01*
X916288Y293656D01*
X917084D01*
X917262Y293730D01*
X1351788D01*
X1352525Y293877D01*
X1353150Y294294D01*
X1367474Y308619D01*
X1367653Y308692D01*
X1368215Y309255D01*
X1368520Y309990D01*
Y310786D01*
X1368215Y311521D01*
X1367653Y312083D01*
X1366918Y312388D01*
D02*
G37*
G36*
X218696Y292180D02*
X217900D01*
X217165Y291875D01*
X216602Y291313D01*
X216298Y290578D01*
Y289782D01*
X216602Y289047D01*
X217165Y288484D01*
X217900Y288180D01*
X218696D01*
X219431Y288484D01*
X219993Y289047D01*
X220298Y289782D01*
Y290578D01*
X219993Y291313D01*
X219431Y291875D01*
X218696Y292180D01*
D02*
G37*
G36*
X623570Y324252D02*
X622833Y324105D01*
X622208Y323688D01*
X589752Y291232D01*
X480314D01*
X479577Y291085D01*
X478952Y290668D01*
X478535Y290043D01*
X478388Y289306D01*
X478535Y288569D01*
X478952Y287944D01*
X479577Y287527D01*
X480314Y287380D01*
X590550D01*
X591287Y287527D01*
X591912Y287944D01*
X624932Y320964D01*
X625349Y321589D01*
X625496Y322326D01*
X625349Y323063D01*
X624932Y323688D01*
X624307Y324105D01*
X623570Y324252D01*
D02*
G37*
G36*
X913528Y285210D02*
X912732D01*
X911997Y284905D01*
X911434Y284343D01*
X911130Y283608D01*
Y282812D01*
X911434Y282077D01*
X911997Y281514D01*
X912732Y281210D01*
X913528D01*
X914263Y281514D01*
X914826Y282077D01*
X915130Y282812D01*
Y283608D01*
X914826Y284343D01*
X914263Y284905D01*
X913528Y285210D01*
D02*
G37*
G36*
X697882Y281400D02*
X697086D01*
X696351Y281096D01*
X695788Y280533D01*
X695484Y279798D01*
Y279002D01*
X695788Y278267D01*
X696351Y277705D01*
X697086Y277400D01*
X697882D01*
X698617Y277705D01*
X699180Y278267D01*
X699484Y279002D01*
Y279798D01*
X699180Y280533D01*
X698617Y281096D01*
X697882Y281400D01*
D02*
G37*
G36*
X204868Y263314D02*
X204072D01*
X203337Y263010D01*
X202775Y262447D01*
X202470Y261712D01*
Y260916D01*
X202775Y260181D01*
X203337Y259619D01*
X204072Y259314D01*
X204868D01*
X205603Y259619D01*
X206166Y260181D01*
X206470Y260916D01*
Y261712D01*
X206166Y262447D01*
X205603Y263010D01*
X204868Y263314D01*
D02*
G37*
G36*
X1421274Y262604D02*
X1420478D01*
X1419743Y262299D01*
X1419180Y261737D01*
X1418876Y261002D01*
Y260206D01*
X1419180Y259471D01*
X1419743Y258909D01*
X1420478Y258604D01*
X1421274D01*
X1422009Y258909D01*
X1422572Y259471D01*
X1422876Y260206D01*
Y261002D01*
X1422572Y261737D01*
X1422009Y262299D01*
X1421274Y262604D01*
D02*
G37*
G36*
X630174Y330856D02*
X455930D01*
X455193Y330709D01*
X454568Y330292D01*
X454151Y329667D01*
X454004Y328930D01*
X454151Y328193D01*
X454568Y327568D01*
X455193Y327151D01*
X455930Y327004D01*
X629376D01*
X701710Y254670D01*
X702335Y254253D01*
X703072Y254106D01*
X782320D01*
X783057Y254253D01*
X783682Y254670D01*
X784099Y255295D01*
X784246Y256032D01*
X784099Y256769D01*
X783682Y257394D01*
X783057Y257811D01*
X782320Y257958D01*
X703870D01*
X631536Y330292D01*
X630911Y330709D01*
X630174Y330856D01*
D02*
G37*
G36*
X347108Y253460D02*
X346312D01*
X345577Y253155D01*
X345014Y252593D01*
X344710Y251858D01*
Y251062D01*
X345014Y250327D01*
X345577Y249764D01*
X346312Y249460D01*
X347108D01*
X347843Y249764D01*
X348405Y250327D01*
X348710Y251062D01*
Y251858D01*
X348405Y252593D01*
X347843Y253155D01*
X347108Y253460D01*
D02*
G37*
G36*
X847836Y337206D02*
X847099Y337059D01*
X846474Y336642D01*
X846056Y336017D01*
X845910Y335280D01*
X846056Y334543D01*
X846474Y333918D01*
X922360Y258032D01*
X922255Y257778D01*
X921622D01*
X920887Y257474D01*
X920324Y256911D01*
X920020Y256176D01*
Y255380D01*
X920324Y254645D01*
X920887Y254083D01*
X921622Y253778D01*
X922418D01*
X923153Y254083D01*
X923716Y254645D01*
X924020Y255380D01*
Y256013D01*
X924274Y256118D01*
X929786Y250606D01*
X929786Y250606D01*
X930411Y250189D01*
X931148Y250042D01*
X1152049D01*
X1152786Y250189D01*
X1153411Y250606D01*
X1155914Y253109D01*
X1156129Y252965D01*
X1155986Y252620D01*
Y251824D01*
X1156291Y251089D01*
X1156853Y250527D01*
X1157588Y250222D01*
X1158384D01*
X1158562Y250296D01*
X1168110D01*
X1182476Y235930D01*
Y69378D01*
X1156426Y43328D01*
X531023D01*
X528468Y45883D01*
Y73660D01*
X528321Y74397D01*
X527904Y75022D01*
X503266Y99660D01*
X502641Y100077D01*
X501904Y100224D01*
X335534D01*
X335534Y100224D01*
X334797Y100077D01*
X334172Y99660D01*
X309082Y74570D01*
X266736D01*
X250338Y90968D01*
Y94488D01*
X250191Y95225D01*
X249774Y95850D01*
X249149Y96267D01*
X248412Y96414D01*
X247675Y96267D01*
X247050Y95850D01*
X246633Y95225D01*
X246528Y94699D01*
X246274Y94724D01*
Y99695D01*
X246127Y100432D01*
X245710Y101057D01*
X241519Y105248D01*
X240894Y105665D01*
X240157Y105812D01*
X144816D01*
X125722Y124906D01*
X125647Y125085D01*
X125385Y125347D01*
X125482Y125582D01*
X168366D01*
X178216Y115732D01*
X178216Y115732D01*
X178841Y115315D01*
X179578Y115168D01*
X179578Y115168D01*
X264542D01*
X303692Y76018D01*
X303692Y76018D01*
X304317Y75601D01*
X305054Y75454D01*
X305791Y75601D01*
X306416Y76018D01*
X306833Y76643D01*
X306980Y77380D01*
Y101310D01*
X372837Y167167D01*
X372837Y167167D01*
X373254Y167792D01*
X373401Y168529D01*
Y208371D01*
X375448Y210418D01*
X506222D01*
X506959Y210565D01*
X507584Y210982D01*
X508001Y211607D01*
X508148Y212344D01*
X508001Y213081D01*
X507744Y213466D01*
X507880Y213720D01*
X510250D01*
X514680Y209291D01*
X514582Y209056D01*
X420744D01*
X420007Y208909D01*
X419382Y208492D01*
X418965Y207867D01*
X418818Y207130D01*
X418965Y206393D01*
X419382Y205768D01*
X420007Y205350D01*
X420744Y205204D01*
X647879D01*
X728968Y124114D01*
X729593Y123697D01*
X730330Y123550D01*
X731067Y123697D01*
X731692Y124114D01*
X732110Y124739D01*
X732256Y125476D01*
X732110Y126213D01*
X731692Y126838D01*
X650379Y208151D01*
X650476Y208386D01*
X675858D01*
X771306Y112938D01*
X771931Y112521D01*
X772668Y112374D01*
X914400D01*
X915137Y112521D01*
X915762Y112938D01*
X926882Y124058D01*
X1100800D01*
X1101861Y122998D01*
X1101935Y122819D01*
X1102497Y122256D01*
X1103232Y121952D01*
X1104028D01*
X1104763Y122256D01*
X1105325Y122819D01*
X1105630Y123554D01*
Y124350D01*
X1105325Y125085D01*
X1104763Y125647D01*
X1104584Y125722D01*
X1102960Y127346D01*
X1102335Y127763D01*
X1101598Y127910D01*
X926084D01*
X925347Y127763D01*
X924722Y127346D01*
X913602Y116226D01*
X773466D01*
X678493Y211199D01*
X678590Y211434D01*
X680446D01*
X773862Y118018D01*
X774487Y117601D01*
X775224Y117454D01*
X837692D01*
X838429Y117601D01*
X839054Y118018D01*
X869843Y148807D01*
X869944Y148798D01*
X870107Y148528D01*
X869982Y148226D01*
Y147430D01*
X870286Y146695D01*
X870849Y146132D01*
X871584Y145828D01*
X872380D01*
X872559Y145902D01*
X932684D01*
X936914Y141672D01*
X937539Y141255D01*
X938276Y141108D01*
X938276Y141108D01*
X1108563D01*
X1177802Y71869D01*
X1178427Y71452D01*
X1179164Y71305D01*
X1179901Y71452D01*
X1180525Y71869D01*
X1180943Y72494D01*
X1181089Y73231D01*
X1180943Y73968D01*
X1180525Y74593D01*
X1110723Y144396D01*
X1110098Y144813D01*
X1109361Y144960D01*
X939074D01*
X935319Y148715D01*
X935416Y148950D01*
X938240D01*
X940932Y146258D01*
X941557Y145841D01*
X942294Y145694D01*
X943031Y145841D01*
X943656Y146258D01*
X944073Y146883D01*
X944220Y147620D01*
X944073Y148357D01*
X943656Y148982D01*
X940400Y152238D01*
X939775Y152655D01*
X939038Y152802D01*
X869188D01*
X868451Y152655D01*
X867826Y152238D01*
X836894Y121306D01*
X776021D01*
X740549Y156779D01*
X740693Y156994D01*
X741282Y156750D01*
X741845D01*
X769020Y129575D01*
X769645Y129158D01*
X770382Y129011D01*
X771119Y129158D01*
X771744Y129575D01*
X772161Y130200D01*
X772308Y130937D01*
X772161Y131674D01*
X771744Y132299D01*
X655031Y249012D01*
X654406Y249429D01*
X653669Y249576D01*
X439710D01*
X395824Y293462D01*
X395199Y293879D01*
X394462Y294026D01*
X332994D01*
X332257Y293879D01*
X331632Y293462D01*
X331215Y292837D01*
X331068Y292100D01*
X331215Y291363D01*
X331632Y290738D01*
X332257Y290321D01*
X332994Y290174D01*
X338680D01*
Y289782D01*
X338984Y289047D01*
X339547Y288484D01*
X340282Y288180D01*
X341078D01*
X341813Y288484D01*
X342376Y289047D01*
X342680Y289782D01*
Y290174D01*
X393664D01*
X437550Y246288D01*
X438175Y245871D01*
X438912Y245724D01*
X652871D01*
X739680Y158915D01*
Y158352D01*
X739924Y157762D01*
X739709Y157619D01*
X682606Y214722D01*
X681981Y215139D01*
X681244Y215286D01*
X650261D01*
X650168Y215540D01*
X650666Y216037D01*
X650970Y216772D01*
Y217568D01*
X650666Y218303D01*
X650103Y218866D01*
X649368Y219170D01*
X648572D01*
X648393Y219096D01*
X598648D01*
X597911Y218949D01*
X597750Y218842D01*
X559949D01*
X559852Y219077D01*
X560115Y219339D01*
X560419Y220074D01*
Y220870D01*
X560115Y221605D01*
X559552Y222167D01*
X558817Y222472D01*
X558021D01*
X557286Y222167D01*
X556724Y221605D01*
X556419Y220870D01*
Y220074D01*
X556724Y219339D01*
X556986Y219077D01*
X556889Y218842D01*
X548930D01*
X545176Y222596D01*
X544551Y223013D01*
X543814Y223160D01*
X541550D01*
X541473Y223414D01*
X541874Y223682D01*
X546136Y227944D01*
X601436D01*
X604782Y224598D01*
X604856Y224419D01*
X605419Y223857D01*
X606154Y223552D01*
X606950D01*
X607685Y223857D01*
X608247Y224419D01*
X608552Y225154D01*
Y225950D01*
X608247Y226685D01*
X607685Y227248D01*
X607506Y227321D01*
X603596Y231232D01*
X602971Y231649D01*
X602234Y231796D01*
X545338D01*
X545338Y231796D01*
X544601Y231649D01*
X543976Y231232D01*
X543976Y231232D01*
X539714Y226970D01*
X207962D01*
X207962Y226970D01*
X207225Y226823D01*
X206600Y226406D01*
X162436Y182242D01*
X162019Y181617D01*
X161872Y180880D01*
X162019Y180143D01*
X162436Y179518D01*
X163061Y179101D01*
X163798Y178954D01*
X164535Y179101D01*
X165160Y179518D01*
X208760Y223118D01*
X287506D01*
X287583Y222864D01*
X287182Y222596D01*
X243042Y178456D01*
X162723D01*
X159660Y181519D01*
Y185304D01*
X159734Y185482D01*
Y186278D01*
X159430Y187013D01*
X158867Y187576D01*
X158132Y187880D01*
X157336D01*
X156601Y187576D01*
X156039Y187013D01*
X155734Y186278D01*
Y185482D01*
X155808Y185304D01*
Y180721D01*
X155955Y179984D01*
X156372Y179359D01*
X160563Y175168D01*
X161188Y174751D01*
X161925Y174604D01*
X243840D01*
X244577Y174751D01*
X245202Y175168D01*
X289342Y219308D01*
X536841D01*
X536982Y219097D01*
X536770Y218584D01*
Y217788D01*
X537075Y217053D01*
X537637Y216490D01*
X538372Y216186D01*
X539168D01*
X539903Y216490D01*
X540466Y217053D01*
X540770Y217788D01*
Y218584D01*
X540558Y219097D01*
X540699Y219308D01*
X543016D01*
X546770Y215554D01*
X546808Y215529D01*
X546734Y215286D01*
X523875D01*
X523138Y215139D01*
X522513Y214722D01*
X522096Y214097D01*
X521949Y213360D01*
X522096Y212623D01*
X522203Y212462D01*
X522083Y212238D01*
X517180D01*
X512410Y217008D01*
X511785Y217425D01*
X511048Y217572D01*
X346075D01*
X346075Y217572D01*
X345338Y217425D01*
X344713Y217008D01*
X341538Y213833D01*
X341121Y213208D01*
X340974Y212471D01*
Y180115D01*
X340720Y180038D01*
X340542Y180305D01*
X339917Y180722D01*
X339180Y180869D01*
X338443Y180722D01*
X337818Y180305D01*
X307521Y150008D01*
X149352D01*
X148615Y149861D01*
X147990Y149444D01*
X147573Y148819D01*
X147426Y148082D01*
X147573Y147345D01*
X147990Y146720D01*
X148615Y146303D01*
X149352Y146156D01*
X308319D01*
X309056Y146303D01*
X309681Y146720D01*
X340542Y177581D01*
X340720Y177848D01*
X340974Y177771D01*
Y150404D01*
X321020Y130450D01*
X319942D01*
X319844Y130685D01*
X325058Y135899D01*
X325237Y135972D01*
X325799Y136535D01*
X326104Y137270D01*
Y138066D01*
X325799Y138801D01*
X325237Y139363D01*
X324502Y139668D01*
X323706D01*
X322971Y139363D01*
X322408Y138801D01*
X322335Y138622D01*
X317449Y133736D01*
X77170D01*
X77116Y133990D01*
X77642Y134515D01*
X77946Y135250D01*
Y136046D01*
X77642Y136781D01*
X77079Y137344D01*
X76344Y137648D01*
X75548D01*
X74813Y137344D01*
X74250Y136781D01*
X73946Y136046D01*
Y135250D01*
X74250Y134515D01*
X74776Y133990D01*
X74722Y133736D01*
X64262D01*
X63525Y133590D01*
X62900Y133172D01*
X62483Y132547D01*
X62336Y131810D01*
X62483Y131073D01*
X62900Y130448D01*
X63525Y130031D01*
X64262Y129884D01*
X219180D01*
X219273Y129630D01*
X218980Y128922D01*
Y128126D01*
X219284Y127391D01*
X219847Y126828D01*
X220582Y126524D01*
X221378D01*
X221556Y126598D01*
X321818D01*
X322555Y126745D01*
X323180Y127162D01*
X344262Y148244D01*
X344679Y148869D01*
X344826Y149606D01*
Y211673D01*
X346873Y213720D01*
X372943D01*
X373048Y213466D01*
X370113Y210531D01*
X369696Y209906D01*
X369549Y209169D01*
Y169327D01*
X303692Y103470D01*
X303275Y102845D01*
X303128Y102108D01*
Y82362D01*
X302893Y82264D01*
X266702Y118456D01*
X266077Y118873D01*
X265340Y119020D01*
X180376D01*
X170526Y128870D01*
X169901Y129287D01*
X169164Y129434D01*
X54773D01*
X47328Y136879D01*
Y169990D01*
X47328Y169990D01*
X47181Y170727D01*
X46764Y171352D01*
X44034Y174082D01*
X43409Y174499D01*
X42672Y174646D01*
X41935Y174499D01*
X41774Y174392D01*
X41550Y174512D01*
Y191955D01*
X41785Y192052D01*
X98293Y135544D01*
X98918Y135127D01*
X99655Y134980D01*
X307017D01*
X307196Y134906D01*
X307992D01*
X308727Y135211D01*
X309289Y135773D01*
X309594Y136508D01*
Y137304D01*
X309289Y138039D01*
X308727Y138602D01*
X307992Y138906D01*
X307196D01*
X307017Y138832D01*
X100453D01*
X44482Y194803D01*
Y196336D01*
X44513Y196412D01*
Y197208D01*
X44208Y197943D01*
X43646Y198505D01*
X42911Y198810D01*
X42115D01*
X41761Y198663D01*
X41550Y198804D01*
Y201248D01*
X111426Y271124D01*
X307340D01*
X308077Y271271D01*
X308702Y271688D01*
X315800Y278787D01*
X316109D01*
X316846Y278933D01*
X317471Y279351D01*
X319899Y281779D01*
X320317Y282404D01*
X320463Y283141D01*
Y291070D01*
X324140Y294746D01*
X456656D01*
X480984Y270418D01*
X481609Y270001D01*
X482346Y269854D01*
X491635D01*
X491660Y269600D01*
X491134Y269495D01*
X490509Y269078D01*
X490092Y268453D01*
X489945Y267716D01*
X490092Y266979D01*
X490509Y266354D01*
X491134Y265937D01*
X491871Y265790D01*
X660110D01*
X691298Y234602D01*
X691201Y234368D01*
X688878D01*
X687585Y235661D01*
X687579Y235687D01*
X687162Y236312D01*
X672059Y251414D01*
X671985Y251593D01*
X671423Y252155D01*
X670688Y252460D01*
X669892D01*
X669157Y252155D01*
X668595Y251593D01*
X668290Y250858D01*
Y250062D01*
X668595Y249327D01*
X669157Y248764D01*
X669336Y248690D01*
X684015Y234011D01*
X684021Y233985D01*
X684438Y233360D01*
X686718Y231080D01*
X687343Y230662D01*
X688080Y230516D01*
X691460D01*
X691741Y230399D01*
X692537D01*
X693272Y230704D01*
X693835Y231266D01*
X693981Y231620D01*
X694230Y231670D01*
X753272Y172628D01*
X753897Y172211D01*
X754634Y172064D01*
X1100292D01*
X1136000Y136356D01*
Y135752D01*
X1136511Y133845D01*
X1137498Y132135D01*
X1138895Y130738D01*
X1140605Y129751D01*
X1142513Y129240D01*
X1143116D01*
X1144529Y127827D01*
X1145154Y127410D01*
X1145891Y127263D01*
X1146628Y127410D01*
X1147253Y127827D01*
X1147670Y128452D01*
X1147817Y129189D01*
X1147670Y129926D01*
X1147503Y130177D01*
X1147561Y130424D01*
X1148105Y130738D01*
X1149440Y132074D01*
X1149600Y132112D01*
X1149760Y132074D01*
X1151095Y130738D01*
X1152805Y129751D01*
X1154713Y129240D01*
X1155219D01*
X1155275Y129107D01*
X1155837Y128545D01*
X1156572Y128240D01*
X1157368D01*
X1158103Y128545D01*
X1158665Y129107D01*
X1158970Y129842D01*
Y129968D01*
X1160305Y130738D01*
X1161640Y132074D01*
X1161800Y132112D01*
X1161960Y132074D01*
X1163295Y130738D01*
X1165005Y129751D01*
X1166913Y129240D01*
X1167400D01*
Y136740D01*
X1167900D01*
Y137240D01*
X1175400D01*
Y137727D01*
X1174889Y139635D01*
X1173902Y141345D01*
X1173007Y142240D01*
X1173902Y143135D01*
X1174889Y144845D01*
X1175400Y146753D01*
Y147240D01*
X1167900D01*
Y147740D01*
X1167400D01*
Y155240D01*
X1166913D01*
X1165005Y154729D01*
X1163295Y153742D01*
X1161960Y152406D01*
X1161800Y152368D01*
X1161640Y152406D01*
X1160305Y153742D01*
X1158595Y154729D01*
X1156687Y155240D01*
X1156200D01*
Y147740D01*
X1155200D01*
Y155240D01*
X1154713D01*
X1152805Y154729D01*
X1151095Y153742D01*
X1149760Y152406D01*
X1149600Y152368D01*
X1149440Y152406D01*
X1148105Y153742D01*
X1146395Y154729D01*
X1144487Y155240D01*
X1144000D01*
Y147740D01*
X1143500D01*
Y147240D01*
X1136000D01*
Y146753D01*
X1136511Y144845D01*
X1137498Y143135D01*
X1138393Y142240D01*
X1137498Y141345D01*
X1137222Y140867D01*
X1136970Y140833D01*
X1102452Y175352D01*
X1101827Y175769D01*
X1101090Y175916D01*
X1094360D01*
X1094286Y176159D01*
X1094324Y176184D01*
X1151852Y233712D01*
X1152288D01*
X1153023Y234016D01*
X1153586Y234579D01*
X1153890Y235314D01*
Y235750D01*
X1164682Y246542D01*
X1165099Y247167D01*
X1165246Y247904D01*
X1165099Y248641D01*
X1164682Y249266D01*
X1164057Y249683D01*
X1163320Y249830D01*
X1162583Y249683D01*
X1161958Y249266D01*
X1092164Y179472D01*
X760476D01*
X759739Y179325D01*
X759114Y178908D01*
X758697Y178283D01*
X758550Y177546D01*
X758697Y176809D01*
X759114Y176184D01*
X759152Y176159D01*
X759078Y175916D01*
X755432D01*
X662270Y269078D01*
X661645Y269495D01*
X661119Y269600D01*
X661144Y269854D01*
X672556D01*
X692566Y249844D01*
X693191Y249427D01*
X693928Y249280D01*
X844550D01*
X845287Y249427D01*
X845912Y249844D01*
X849976Y253908D01*
X850393Y254533D01*
X850540Y255270D01*
Y299720D01*
X850393Y300457D01*
X849976Y301082D01*
X849351Y301499D01*
X848614Y301646D01*
X847877Y301499D01*
X847252Y301082D01*
X846835Y300457D01*
X846688Y299720D01*
Y256068D01*
X843752Y253132D01*
X694726D01*
X674716Y273142D01*
X674091Y273559D01*
X673354Y273706D01*
X483144D01*
X458816Y298034D01*
X458191Y298451D01*
X457454Y298598D01*
X323342D01*
X322605Y298451D01*
X321980Y298034D01*
X317175Y293229D01*
X316758Y292604D01*
X316611Y291867D01*
Y283939D01*
X315343Y282670D01*
X314562D01*
X313827Y282365D01*
X313265Y281803D01*
X313190Y281624D01*
X306542Y274976D01*
X110628D01*
X109891Y274829D01*
X109266Y274412D01*
X38262Y203408D01*
X37845Y202783D01*
X37698Y202046D01*
Y137386D01*
X37624Y137208D01*
Y136412D01*
X37929Y135677D01*
X38491Y135114D01*
X39226Y134810D01*
X40022D01*
X40757Y135114D01*
X41319Y135677D01*
X41624Y136412D01*
Y137208D01*
X41550Y137386D01*
Y154815D01*
X41761Y154957D01*
X42115Y154810D01*
X42911D01*
X43265Y154957D01*
X43476Y154815D01*
Y136081D01*
X43623Y135344D01*
X44040Y134719D01*
X52613Y126146D01*
X53238Y125729D01*
X53975Y125582D01*
X122422D01*
X122519Y125347D01*
X122256Y125085D01*
X121952Y124350D01*
Y123554D01*
X122256Y122819D01*
X122819Y122256D01*
X122998Y122183D01*
X142656Y102524D01*
X143281Y102107D01*
X144018Y101960D01*
X144018Y101960D01*
X239359D01*
X242422Y98897D01*
Y59436D01*
X242569Y58699D01*
X242986Y58074D01*
X250607Y50453D01*
X250510Y50218D01*
X84586D01*
X28794Y106010D01*
X28169Y106427D01*
X27432Y106574D01*
X26695Y106427D01*
X26070Y106010D01*
X25653Y105385D01*
X25506Y104648D01*
X25653Y103911D01*
X26070Y103286D01*
X82426Y46930D01*
X83051Y46513D01*
X83788Y46366D01*
X325152D01*
X325889Y46513D01*
X326514Y46930D01*
X353128Y73544D01*
X353230Y73565D01*
X353855Y73982D01*
X356452Y76579D01*
X356733Y76695D01*
X357295Y77258D01*
X357600Y77993D01*
Y78789D01*
X357453Y79143D01*
X357594Y79354D01*
X456656D01*
X505368Y30642D01*
X505993Y30225D01*
X506730Y30078D01*
X1215644D01*
X1216381Y30225D01*
X1217006Y30642D01*
X1337899Y151535D01*
X1338078Y151609D01*
X1338640Y152172D01*
X1338945Y152907D01*
Y153703D01*
X1338640Y154438D01*
X1338078Y155000D01*
X1337343Y155305D01*
X1336547D01*
X1335812Y155000D01*
X1335249Y154438D01*
X1335175Y154259D01*
X1214846Y33930D01*
X507528D01*
X458816Y82642D01*
X458191Y83059D01*
X457454Y83206D01*
X430654D01*
X430604Y83455D01*
X430627Y83464D01*
X432315Y85152D01*
X433228Y87358D01*
Y88051D01*
X421228D01*
Y87358D01*
X422141Y85152D01*
X423829Y83464D01*
X423852Y83455D01*
X423802Y83206D01*
X347882D01*
X347785Y83441D01*
X357414Y93070D01*
X408112D01*
X411104Y90078D01*
X411729Y89661D01*
X412466Y89514D01*
X421228D01*
Y89051D01*
X433228D01*
Y89514D01*
X469324D01*
X469502Y89440D01*
X470298D01*
X471033Y89745D01*
X471595Y90307D01*
X471900Y91042D01*
Y91838D01*
X471595Y92573D01*
X471033Y93135D01*
X470298Y93440D01*
X469502D01*
X469324Y93366D01*
X430898D01*
X430627Y93638D01*
X428422Y94551D01*
X426035D01*
X423829Y93638D01*
X423558Y93366D01*
X413264D01*
X410512Y96118D01*
X410617Y96372D01*
X501106D01*
X524616Y72862D01*
Y45085D01*
X524763Y44348D01*
X525180Y43723D01*
X528863Y40040D01*
X529488Y39623D01*
X530225Y39476D01*
X1157224D01*
X1157961Y39623D01*
X1158586Y40040D01*
X1185764Y67218D01*
X1185764Y67218D01*
X1186181Y67843D01*
X1186328Y68580D01*
X1186328Y68580D01*
Y236728D01*
X1186181Y237465D01*
X1185764Y238090D01*
X1170903Y252950D01*
X1171001Y253185D01*
X1327273D01*
X1356776Y223682D01*
X1357401Y223265D01*
X1358138Y223118D01*
X1358875Y223265D01*
X1359500Y223682D01*
X1359917Y224307D01*
X1360064Y225044D01*
X1359917Y225781D01*
X1359500Y226406D01*
X1330177Y255729D01*
X1330274Y255963D01*
X1391920D01*
X1392657Y256110D01*
X1393282Y256527D01*
X1393699Y257152D01*
X1393846Y257889D01*
X1393699Y258626D01*
X1393282Y259251D01*
X1392657Y259669D01*
X1391920Y259815D01*
X934720D01*
X933983Y259669D01*
X933358Y259251D01*
X932941Y258626D01*
X932794Y257889D01*
X932941Y257152D01*
X933358Y256527D01*
X933983Y256110D01*
X934720Y255963D01*
X1152989D01*
X1153086Y255729D01*
X1151251Y253894D01*
X931945D01*
X849198Y336642D01*
X848573Y337059D01*
X847836Y337206D01*
D02*
G37*
G36*
X389018Y243554D02*
X388222D01*
X387487Y243249D01*
X386925Y242687D01*
X386620Y241952D01*
Y241156D01*
X386925Y240421D01*
X387487Y239858D01*
X388222Y239554D01*
X389018D01*
X389753Y239858D01*
X390316Y240421D01*
X390620Y241156D01*
Y241952D01*
X390316Y242687D01*
X389753Y243249D01*
X389018Y243554D01*
D02*
G37*
G36*
X843678Y238633D02*
X842882D01*
X842147Y238328D01*
X841584Y237765D01*
X841280Y237030D01*
Y236235D01*
X841584Y235500D01*
X842147Y234937D01*
X842882Y234632D01*
X843678D01*
X844413Y234937D01*
X844976Y235500D01*
X845280Y236235D01*
Y237030D01*
X844976Y237765D01*
X844413Y238328D01*
X843678Y238633D01*
D02*
G37*
G36*
X1204993Y237712D02*
X1204197D01*
X1203462Y237407D01*
X1202899Y236845D01*
X1202595Y236110D01*
Y235314D01*
X1202899Y234579D01*
X1203462Y234016D01*
X1204197Y233712D01*
X1204993D01*
X1205728Y234016D01*
X1206291Y234579D01*
X1206595Y235314D01*
Y236110D01*
X1206291Y236845D01*
X1205728Y237407D01*
X1204993Y237712D01*
D02*
G37*
G36*
X584344Y236696D02*
X583548D01*
X582813Y236392D01*
X582251Y235829D01*
X581946Y235094D01*
Y234298D01*
X582251Y233563D01*
X582813Y233001D01*
X583548Y232696D01*
X584344D01*
X585079Y233001D01*
X585642Y233563D01*
X585946Y234298D01*
Y235094D01*
X585642Y235829D01*
X585079Y236392D01*
X584344Y236696D01*
D02*
G37*
G36*
X405638Y266086D02*
X278384D01*
X277647Y265939D01*
X277022Y265522D01*
X251424Y239924D01*
X120904D01*
X120167Y239777D01*
X119542Y239360D01*
X85252Y205070D01*
X84835Y204445D01*
X84688Y203708D01*
X84835Y202971D01*
X85252Y202346D01*
X85877Y201929D01*
X86614Y201782D01*
X87351Y201929D01*
X87976Y202346D01*
X121702Y236072D01*
X252222D01*
X252959Y236219D01*
X253584Y236636D01*
X279182Y262234D01*
X321598D01*
X321648Y261980D01*
X321193Y261791D01*
X320630Y261229D01*
X320326Y260494D01*
Y259698D01*
X320630Y258963D01*
X321193Y258400D01*
X321928Y258096D01*
X322724D01*
X322902Y258170D01*
X401792D01*
X429422Y230540D01*
X430047Y230123D01*
X430784Y229976D01*
X486253D01*
X486990Y230123D01*
X487615Y230540D01*
X488829Y231754D01*
X542984D01*
X543162Y231680D01*
X543958D01*
X544693Y231985D01*
X545256Y232547D01*
X545560Y233282D01*
Y234078D01*
X545256Y234813D01*
X544693Y235375D01*
X543958Y235680D01*
X543162D01*
X542984Y235606D01*
X488031D01*
X487294Y235459D01*
X486669Y235042D01*
X485455Y233828D01*
X471446D01*
X471369Y234082D01*
X471770Y234350D01*
X472187Y234975D01*
X472334Y235712D01*
X472187Y236449D01*
X471770Y237074D01*
X471145Y237491D01*
X470408Y237638D01*
X434884D01*
X407000Y265522D01*
X406375Y265939D01*
X405638Y266086D01*
D02*
G37*
G36*
X183024Y230346D02*
X182228D01*
X181493Y230042D01*
X180931Y229479D01*
X180626Y228744D01*
Y227948D01*
X180931Y227213D01*
X181493Y226651D01*
X182228Y226346D01*
X183024D01*
X183759Y226651D01*
X184321Y227213D01*
X184626Y227948D01*
Y228744D01*
X184321Y229479D01*
X183759Y230042D01*
X183024Y230346D01*
D02*
G37*
G36*
X162704Y221150D02*
X161908D01*
X161173Y220846D01*
X160611Y220283D01*
X160306Y219548D01*
Y218752D01*
X160611Y218017D01*
X161173Y217455D01*
X161908Y217150D01*
X162704D01*
X163439Y217455D01*
X164002Y218017D01*
X164306Y218752D01*
Y219548D01*
X164002Y220283D01*
X163439Y220846D01*
X162704Y221150D01*
D02*
G37*
G36*
X327804Y215614D02*
X327008D01*
X326273Y215310D01*
X325710Y214747D01*
X325406Y214012D01*
Y213216D01*
X325710Y212481D01*
X326273Y211919D01*
X327008Y211614D01*
X327804D01*
X328539Y211919D01*
X329101Y212481D01*
X329406Y213216D01*
Y214012D01*
X329101Y214747D01*
X328539Y215310D01*
X327804Y215614D01*
D02*
G37*
G36*
X173372Y210788D02*
X172576D01*
X171841Y210483D01*
X171278Y209921D01*
X170974Y209186D01*
Y208390D01*
X171278Y207655D01*
X171841Y207092D01*
X172576Y206788D01*
X173372D01*
X174107Y207092D01*
X174669Y207655D01*
X174974Y208390D01*
Y209186D01*
X174669Y209921D01*
X174107Y210483D01*
X173372Y210788D01*
D02*
G37*
G36*
X824301Y342286D02*
X300736D01*
X299999Y342139D01*
X299374Y341722D01*
X281848Y324196D01*
X281431Y323571D01*
X281284Y322834D01*
X281431Y322097D01*
X281848Y321472D01*
X282473Y321055D01*
X283210Y320908D01*
X283947Y321055D01*
X284572Y321472D01*
X301534Y338434D01*
X823503D01*
X826255Y335682D01*
X826150Y335428D01*
X418846D01*
X418109Y335281D01*
X417484Y334864D01*
X417067Y334239D01*
X416920Y333502D01*
X417067Y332765D01*
X417484Y332140D01*
X418109Y331723D01*
X418846Y331576D01*
X825464D01*
X883772Y273268D01*
Y226822D01*
X883919Y226085D01*
X884336Y225460D01*
X884961Y225043D01*
X885698Y224896D01*
X886435Y225043D01*
X887060Y225460D01*
X887477Y226085D01*
X887624Y226822D01*
Y273954D01*
X887878Y274059D01*
X892408Y269529D01*
Y206465D01*
X892197Y206323D01*
X891843Y206470D01*
X891047D01*
X890869Y206396D01*
X885988D01*
X871720Y220664D01*
X871646Y220843D01*
X871083Y221406D01*
X870348Y221710D01*
X869552D01*
X868817Y221406D01*
X868254Y220843D01*
X867950Y220108D01*
Y219312D01*
X868254Y218577D01*
X868817Y218015D01*
X868996Y217941D01*
X883828Y203108D01*
X884453Y202691D01*
X885190Y202544D01*
X890869D01*
X891047Y202470D01*
X891843D01*
X892197Y202617D01*
X892408Y202475D01*
Y189230D01*
X892555Y188493D01*
X892972Y187868D01*
X893597Y187451D01*
X894334Y187304D01*
X895071Y187451D01*
X895696Y187868D01*
X896113Y188493D01*
X896260Y189230D01*
Y270327D01*
X896113Y271064D01*
X895696Y271688D01*
X825663Y341722D01*
X825038Y342139D01*
X824301Y342286D01*
D02*
G37*
G36*
X931308Y189960D02*
X930512D01*
X929777Y189655D01*
X929214Y189093D01*
X928910Y188358D01*
Y187562D01*
X929214Y186827D01*
X929777Y186264D01*
X930512Y185960D01*
X931308D01*
X931487Y186034D01*
X1093882D01*
X1094283Y185633D01*
X1094314Y185557D01*
X1094877Y184995D01*
X1095612Y184690D01*
X1096408D01*
X1097143Y184995D01*
X1097706Y185557D01*
X1098010Y186292D01*
Y187088D01*
X1097706Y187823D01*
X1097143Y188386D01*
X1096862Y188502D01*
X1096042Y189322D01*
X1095417Y189739D01*
X1094680Y189886D01*
X931487D01*
X931308Y189960D01*
D02*
G37*
G36*
X936631Y185653D02*
X935835D01*
X935100Y185348D01*
X934538Y184785D01*
X934233Y184050D01*
Y183255D01*
X934538Y182520D01*
X935100Y181957D01*
X935835Y181653D01*
X936631D01*
X937366Y181957D01*
X937929Y182520D01*
X938233Y183255D01*
Y184050D01*
X937929Y184785D01*
X937366Y185348D01*
X936631Y185653D01*
D02*
G37*
G36*
X331741Y183578D02*
X330945D01*
X330210Y183274D01*
X329647Y182711D01*
X329343Y181976D01*
Y181181D01*
X329647Y180446D01*
X330210Y179883D01*
X330945Y179578D01*
X331741D01*
X332476Y179883D01*
X333038Y180446D01*
X333343Y181181D01*
Y181976D01*
X333038Y182711D01*
X332476Y183274D01*
X331741Y183578D01*
D02*
G37*
G36*
X1176672Y183356D02*
X1175876D01*
X1175141Y183051D01*
X1174578Y182489D01*
X1174274Y181754D01*
Y180958D01*
X1174578Y180223D01*
X1175141Y179660D01*
X1175876Y179356D01*
X1176672D01*
X1177407Y179660D01*
X1177970Y180223D01*
X1178274Y180958D01*
Y181754D01*
X1177970Y182489D01*
X1177407Y183051D01*
X1176672Y183356D01*
D02*
G37*
G36*
X11828Y178530D02*
X11032D01*
X10297Y178225D01*
X9735Y177663D01*
X9430Y176928D01*
Y176132D01*
X9735Y175397D01*
X10297Y174834D01*
X11032Y174530D01*
X11828D01*
X12563Y174834D01*
X13125Y175397D01*
X13430Y176132D01*
Y176928D01*
X13125Y177663D01*
X12563Y178225D01*
X11828Y178530D01*
D02*
G37*
G36*
X699660Y173196D02*
X698864D01*
X698129Y172892D01*
X697567Y172329D01*
X697262Y171594D01*
Y170798D01*
X697567Y170063D01*
X698129Y169501D01*
X698864Y169196D01*
X699660D01*
X700395Y169501D01*
X700957Y170063D01*
X701262Y170798D01*
Y171594D01*
X700957Y172329D01*
X700395Y172892D01*
X699660Y173196D01*
D02*
G37*
G36*
X260494Y158210D02*
X259698D01*
X258963Y157906D01*
X258400Y157343D01*
X258096Y156608D01*
Y155812D01*
X258400Y155077D01*
X258963Y154515D01*
X259698Y154210D01*
X260494D01*
X261229Y154515D01*
X261791Y155077D01*
X262096Y155812D01*
Y156608D01*
X261791Y157343D01*
X261229Y157906D01*
X260494Y158210D01*
D02*
G37*
G36*
X866284Y157956D02*
X865488D01*
X864753Y157652D01*
X864191Y157089D01*
X863886Y156354D01*
Y155558D01*
X864191Y154823D01*
X864753Y154261D01*
X865488Y153956D01*
X866284D01*
X867019Y154261D01*
X867581Y154823D01*
X867886Y155558D01*
Y156354D01*
X867581Y157089D01*
X867019Y157652D01*
X866284Y157956D01*
D02*
G37*
G36*
X255922Y156829D02*
X255126D01*
X254391Y156525D01*
X253829Y155962D01*
X253524Y155227D01*
Y154431D01*
X253829Y153696D01*
X254391Y153134D01*
X255126Y152829D01*
X255922D01*
X256657Y153134D01*
X257220Y153696D01*
X257524Y154431D01*
Y155227D01*
X257220Y155962D01*
X256657Y156525D01*
X255922Y156829D01*
D02*
G37*
G36*
X1168887Y155240D02*
X1168400D01*
Y148240D01*
X1175400D01*
Y148728D01*
X1174889Y150635D01*
X1173902Y152345D01*
X1172505Y153742D01*
X1170795Y154729D01*
X1168887Y155240D01*
D02*
G37*
G36*
X1143000D02*
X1142513D01*
X1140605Y154729D01*
X1138895Y153742D01*
X1137498Y152345D01*
X1136511Y150635D01*
X1136000Y148728D01*
Y148240D01*
X1143000D01*
Y155240D01*
D02*
G37*
G36*
X808626Y150971D02*
X807830D01*
X807095Y150667D01*
X806533Y150104D01*
X806228Y149369D01*
Y148573D01*
X806533Y147838D01*
X807095Y147275D01*
X807830Y146971D01*
X808626D01*
X809361Y147275D01*
X809923Y147838D01*
X810228Y148573D01*
Y149369D01*
X809923Y150104D01*
X809361Y150667D01*
X808626Y150971D01*
D02*
G37*
G36*
X1175400Y136240D02*
X1168400D01*
Y129240D01*
X1168887D01*
X1170795Y129751D01*
X1172505Y130738D01*
X1173902Y132135D01*
X1174889Y133845D01*
X1175400Y135752D01*
Y136240D01*
D02*
G37*
G36*
X719218Y131286D02*
X718422D01*
X717687Y130982D01*
X717124Y130419D01*
X716820Y129684D01*
Y128888D01*
X717124Y128153D01*
X717687Y127591D01*
X718422Y127286D01*
X719218D01*
X719953Y127591D01*
X720516Y128153D01*
X720820Y128888D01*
Y129684D01*
X720516Y130419D01*
X719953Y130982D01*
X719218Y131286D01*
D02*
G37*
G36*
X1337343Y130159D02*
X1336547D01*
X1335812Y129854D01*
X1335249Y129292D01*
X1334945Y128557D01*
Y127761D01*
X1335249Y127026D01*
X1335812Y126463D01*
X1336547Y126159D01*
X1337343D01*
X1338078Y126463D01*
X1338640Y127026D01*
X1338945Y127761D01*
Y128557D01*
X1338640Y129292D01*
X1338078Y129854D01*
X1337343Y130159D01*
D02*
G37*
G36*
X442866Y265398D02*
X442070D01*
X441335Y265093D01*
X440773Y264531D01*
X440468Y263796D01*
Y263000D01*
X440773Y262265D01*
X441335Y261702D01*
X442070Y261398D01*
X442866D01*
X443045Y261472D01*
X647156D01*
X735983Y172645D01*
X735667Y172329D01*
X735362Y171594D01*
Y170798D01*
X735667Y170063D01*
X736229Y169501D01*
X736964Y169196D01*
X737760D01*
X738495Y169501D01*
X738811Y169817D01*
X785630Y122998D01*
X785704Y122819D01*
X786267Y122256D01*
X787002Y121952D01*
X787798D01*
X788533Y122256D01*
X789096Y122819D01*
X789400Y123554D01*
Y124350D01*
X789096Y125085D01*
X788533Y125647D01*
X788354Y125722D01*
X649316Y264760D01*
X648691Y265177D01*
X647954Y265324D01*
X443045D01*
X442866Y265398D01*
D02*
G37*
G36*
X1220868Y124428D02*
X1220072D01*
X1219337Y124123D01*
X1218774Y123561D01*
X1218470Y122826D01*
Y122030D01*
X1218774Y121295D01*
X1219337Y120732D01*
X1220072Y120428D01*
X1220868D01*
X1221603Y120732D01*
X1222166Y121295D01*
X1222470Y122030D01*
Y122826D01*
X1222166Y123561D01*
X1221603Y124123D01*
X1220868Y124428D01*
D02*
G37*
G36*
X882032Y122444D02*
X881236D01*
X880501Y122139D01*
X879939Y121577D01*
X879634Y120842D01*
Y120046D01*
X879939Y119311D01*
X880501Y118748D01*
X881236Y118444D01*
X882032D01*
X882767Y118748D01*
X883329Y119311D01*
X883634Y120046D01*
Y120842D01*
X883329Y121577D01*
X882767Y122139D01*
X882032Y122444D01*
D02*
G37*
G36*
X1265429Y122142D02*
X1264633D01*
X1263898Y121838D01*
X1263336Y121275D01*
X1263031Y120540D01*
Y119744D01*
X1263336Y119009D01*
X1263898Y118447D01*
X1264633Y118142D01*
X1265429D01*
X1266164Y118447D01*
X1266727Y119009D01*
X1267031Y119744D01*
Y120540D01*
X1266727Y121275D01*
X1266164Y121838D01*
X1265429Y122142D01*
D02*
G37*
G36*
X956454Y115538D02*
X955658D01*
X954923Y115233D01*
X954361Y114671D01*
X954056Y113936D01*
Y113140D01*
X954361Y112405D01*
X954923Y111842D01*
X955658Y111538D01*
X956454D01*
X957189Y111842D01*
X957751Y112405D01*
X958056Y113140D01*
Y113936D01*
X957751Y114671D01*
X957189Y115233D01*
X956454Y115538D01*
D02*
G37*
G36*
X929022Y110458D02*
X928226D01*
X927491Y110154D01*
X926928Y109591D01*
X926624Y108856D01*
Y108060D01*
X926928Y107325D01*
X927491Y106763D01*
X928226Y106458D01*
X929022D01*
X929757Y106763D01*
X930320Y107325D01*
X930624Y108060D01*
Y108856D01*
X930320Y109591D01*
X929757Y110154D01*
X929022Y110458D01*
D02*
G37*
G36*
X1203850Y109950D02*
X1203054D01*
X1202319Y109646D01*
X1201757Y109083D01*
X1201452Y108348D01*
Y107552D01*
X1201757Y106817D01*
X1202319Y106255D01*
X1203054Y105950D01*
X1203850D01*
X1204585Y106255D01*
X1205147Y106817D01*
X1205452Y107552D01*
Y108348D01*
X1205147Y109083D01*
X1204585Y109646D01*
X1203850Y109950D01*
D02*
G37*
G36*
X665624Y107664D02*
X664828D01*
X664093Y107360D01*
X663531Y106797D01*
X663226Y106062D01*
Y105266D01*
X663531Y104531D01*
X664093Y103968D01*
X664828Y103664D01*
X665624D01*
X666359Y103968D01*
X666921Y104531D01*
X667226Y105266D01*
Y106062D01*
X666921Y106797D01*
X666359Y107360D01*
X665624Y107664D01*
D02*
G37*
G36*
X1116728Y100552D02*
X1115932D01*
X1115197Y100247D01*
X1114634Y99685D01*
X1114330Y98950D01*
Y98154D01*
X1114634Y97419D01*
X1115197Y96856D01*
X1115932Y96552D01*
X1116728D01*
X1117463Y96856D01*
X1118026Y97419D01*
X1118330Y98154D01*
Y98950D01*
X1118026Y99685D01*
X1117463Y100247D01*
X1116728Y100552D01*
D02*
G37*
G36*
X608220Y177942D02*
X607424D01*
X606689Y177638D01*
X606127Y177075D01*
X605822Y176340D01*
Y175544D01*
X606127Y174809D01*
X606689Y174247D01*
X606868Y174173D01*
X681916Y99124D01*
X681415Y98623D01*
X681110Y97888D01*
Y97093D01*
X681415Y96357D01*
X681977Y95795D01*
X682712Y95490D01*
X683508D01*
X684243Y95795D01*
X684806Y96357D01*
X684832Y96365D01*
X684983Y96265D01*
X685720Y96118D01*
X997644D01*
X997822Y96044D01*
X998618D01*
X999353Y96348D01*
X999915Y96911D01*
X1000220Y97646D01*
Y98442D01*
X999915Y99177D01*
X999353Y99740D01*
X998618Y100044D01*
X997822D01*
X997644Y99970D01*
X686518D01*
X609591Y176896D01*
X609518Y177075D01*
X608955Y177638D01*
X608220Y177942D01*
D02*
G37*
G36*
X690770Y95726D02*
X689974D01*
X689239Y95421D01*
X688677Y94859D01*
X688372Y94124D01*
Y93328D01*
X688677Y92593D01*
X689239Y92030D01*
X689974Y91726D01*
X690770D01*
X691505Y92030D01*
X692067Y92593D01*
X692372Y93328D01*
Y94124D01*
X692067Y94859D01*
X691505Y95421D01*
X690770Y95726D01*
D02*
G37*
G36*
X339234Y125190D02*
X338438D01*
X337703Y124886D01*
X337141Y124323D01*
X336836Y123588D01*
Y122792D01*
X337141Y122057D01*
X337703Y121495D01*
X338438Y121190D01*
X339234D01*
X339412Y121264D01*
X566384D01*
X602142Y85506D01*
X602767Y85089D01*
X603504Y84942D01*
X622739D01*
X622918Y84868D01*
X623714D01*
X624449Y85173D01*
X625011Y85735D01*
X625316Y86470D01*
Y87266D01*
X625011Y88001D01*
X624449Y88563D01*
X623714Y88868D01*
X622918D01*
X622739Y88794D01*
X620916D01*
X620893Y88818D01*
X620158Y89122D01*
X619362D01*
X618627Y88818D01*
X618604Y88794D01*
X604302D01*
X568544Y124552D01*
X567919Y124969D01*
X567182Y125116D01*
X339412D01*
X339234Y125190D01*
D02*
G37*
G36*
X746904Y87344D02*
X746108D01*
X745373Y87039D01*
X744810Y86477D01*
X744506Y85742D01*
Y84946D01*
X744810Y84211D01*
X745373Y83649D01*
X746108Y83344D01*
X746904D01*
X747639Y83649D01*
X748202Y84211D01*
X748506Y84946D01*
Y85742D01*
X748202Y86477D01*
X747639Y87039D01*
X746904Y87344D01*
D02*
G37*
G36*
X885207Y85566D02*
X884411D01*
X883676Y85261D01*
X883113Y84699D01*
X882809Y83964D01*
Y83168D01*
X883113Y82433D01*
X883676Y81870D01*
X884411Y81566D01*
X885207D01*
X885942Y81870D01*
X886505Y82433D01*
X886809Y83168D01*
Y83964D01*
X886505Y84699D01*
X885942Y85261D01*
X885207Y85566D01*
D02*
G37*
G36*
X269892Y84550D02*
X269096D01*
X268361Y84246D01*
X267799Y83683D01*
X267494Y82948D01*
Y82152D01*
X267799Y81417D01*
X268361Y80855D01*
X269096Y80550D01*
X269892D01*
X270627Y80855D01*
X271189Y81417D01*
X271494Y82152D01*
Y82948D01*
X271189Y83683D01*
X270627Y84246D01*
X269892Y84550D01*
D02*
G37*
G36*
X603758Y190394D02*
X376174D01*
X375437Y190247D01*
X374812Y189830D01*
X374395Y189205D01*
X374248Y188468D01*
X374395Y187731D01*
X374812Y187106D01*
X375437Y186689D01*
X376174Y186542D01*
X602960D01*
X674024Y115478D01*
X674649Y115061D01*
X675386Y114914D01*
X763488D01*
X770826Y107576D01*
X770783Y107360D01*
X770220Y106797D01*
X769916Y106062D01*
Y105266D01*
X770220Y104531D01*
X770783Y103968D01*
X771518Y103664D01*
X772314D01*
X773049Y103968D01*
X773611Y104531D01*
X773916Y105266D01*
Y106062D01*
X773703Y106575D01*
X773844Y106786D01*
X922020D01*
X922757Y106933D01*
X923382Y107350D01*
X935740Y119708D01*
X1065780D01*
X1078737Y106752D01*
X1078663Y106509D01*
X1078255Y106427D01*
X1077630Y106010D01*
X1019774Y48154D01*
X633730D01*
X632993Y48007D01*
X632368Y47590D01*
X631951Y46965D01*
X631804Y46228D01*
X631951Y45491D01*
X632368Y44866D01*
X632993Y44449D01*
X633730Y44302D01*
X1020572D01*
X1021309Y44449D01*
X1021934Y44866D01*
X1080354Y103286D01*
X1080771Y103911D01*
X1080853Y104319D01*
X1081096Y104393D01*
X1105316Y80172D01*
X1105941Y79755D01*
X1106678Y79608D01*
X1107415Y79755D01*
X1108040Y80172D01*
X1108457Y80797D01*
X1108604Y81534D01*
X1108457Y82271D01*
X1108040Y82896D01*
X1067940Y122996D01*
X1067315Y123413D01*
X1066578Y123560D01*
X934942D01*
X934205Y123413D01*
X933580Y122996D01*
X921222Y110638D01*
X773212D01*
X765648Y118202D01*
X765023Y118619D01*
X764286Y118766D01*
X736058D01*
X736008Y119020D01*
X736463Y119208D01*
X737026Y119771D01*
X737330Y120506D01*
Y121302D01*
X737026Y122037D01*
X736463Y122599D01*
X735728Y122904D01*
X734932D01*
X734197Y122599D01*
X733634Y122037D01*
X733330Y121302D01*
Y120506D01*
X733634Y119771D01*
X734197Y119208D01*
X734652Y119020D01*
X734602Y118766D01*
X676184D01*
X605120Y189830D01*
X604495Y190247D01*
X603758Y190394D01*
D02*
G37*
G36*
X239666Y81200D02*
X238870D01*
X238135Y80896D01*
X237572Y80333D01*
X237268Y79598D01*
Y78802D01*
X237572Y78067D01*
X238135Y77505D01*
X238870Y77200D01*
X239666D01*
X240401Y77505D01*
X240963Y78067D01*
X241268Y78802D01*
Y79598D01*
X240963Y80333D01*
X240401Y80896D01*
X239666Y81200D01*
D02*
G37*
G36*
X542163Y176932D02*
X432816D01*
X432079Y176785D01*
X431454Y176368D01*
X431037Y175743D01*
X430890Y175006D01*
X431037Y174269D01*
X431454Y173644D01*
X432079Y173227D01*
X432816Y173080D01*
X541365D01*
X639099Y75346D01*
X639099Y75346D01*
X639724Y74929D01*
X640461Y74782D01*
X758698D01*
X759435Y74929D01*
X760060Y75346D01*
X760477Y75971D01*
X760624Y76708D01*
X760477Y77445D01*
X760060Y78070D01*
X759435Y78487D01*
X758698Y78634D01*
X641259D01*
X543525Y176368D01*
X542900Y176785D01*
X542163Y176932D01*
D02*
G37*
G36*
X980838Y72104D02*
X980042D01*
X979307Y71800D01*
X978745Y71237D01*
X978440Y70502D01*
Y69706D01*
X978745Y68971D01*
X979307Y68408D01*
X980042Y68104D01*
X980838D01*
X981573Y68408D01*
X982135Y68971D01*
X982440Y69706D01*
Y70502D01*
X982135Y71237D01*
X981573Y71800D01*
X980838Y72104D01*
D02*
G37*
G36*
X335424Y120110D02*
X334628D01*
X333893Y119805D01*
X333330Y119243D01*
X333026Y118508D01*
Y117712D01*
X333330Y116977D01*
X333893Y116414D01*
X334628Y116110D01*
X335424D01*
X335602Y116184D01*
X541238D01*
X587918Y69504D01*
X588543Y69087D01*
X589280Y68940D01*
X709279D01*
X709329Y68686D01*
X708797Y68465D01*
X708234Y67903D01*
X707930Y67168D01*
Y66372D01*
X708234Y65637D01*
X708797Y65075D01*
X709532Y64770D01*
X710328D01*
X711063Y65075D01*
X711626Y65637D01*
X711930Y66372D01*
Y67168D01*
X711626Y67903D01*
X711063Y68465D01*
X710531Y68686D01*
X710581Y68940D01*
X755396D01*
X756133Y69087D01*
X756758Y69504D01*
X757175Y70129D01*
X757322Y70866D01*
X757175Y71603D01*
X756758Y72228D01*
X756133Y72645D01*
X755396Y72792D01*
X590078D01*
X543398Y119472D01*
X542773Y119889D01*
X542036Y120036D01*
X335602D01*
X335424Y120110D01*
D02*
G37*
G36*
X180484Y57880D02*
X179688D01*
X178953Y57575D01*
X178391Y57013D01*
X178086Y56278D01*
Y55482D01*
X178391Y54747D01*
X178953Y54184D01*
X179688Y53880D01*
X180484D01*
X181219Y54184D01*
X181782Y54747D01*
X182086Y55482D01*
Y56278D01*
X181782Y57013D01*
X181219Y57575D01*
X180484Y57880D01*
D02*
G37*
G36*
X787798Y55848D02*
X787002D01*
X786267Y55543D01*
X785704Y54981D01*
X785400Y54246D01*
Y53450D01*
X785704Y52715D01*
X786267Y52153D01*
X787002Y51848D01*
X787798D01*
X788533Y52153D01*
X789096Y52715D01*
X789400Y53450D01*
Y54246D01*
X789096Y54981D01*
X788533Y55543D01*
X787798Y55848D01*
D02*
G37*
G36*
X493776Y89556D02*
X493039Y89409D01*
X492414Y88992D01*
X491997Y88367D01*
X491850Y87630D01*
Y58420D01*
X491997Y57683D01*
X492414Y57058D01*
X513750Y35722D01*
X514375Y35305D01*
X515112Y35158D01*
X1115499D01*
X1115678Y35084D01*
X1116474D01*
X1117209Y35389D01*
X1117772Y35951D01*
X1118076Y36686D01*
Y37482D01*
X1117772Y38217D01*
X1117209Y38779D01*
X1116474Y39084D01*
X1115678D01*
X1115499Y39010D01*
X515910D01*
X512938Y41982D01*
X513082Y42197D01*
X513698Y41942D01*
X514494D01*
X515229Y42246D01*
X515792Y42809D01*
X516096Y43544D01*
Y44340D01*
X515792Y45075D01*
X515229Y45637D01*
X514494Y45942D01*
X513698D01*
X512963Y45637D01*
X512401Y45075D01*
X512096Y44340D01*
Y43544D01*
X512351Y42928D01*
X512136Y42784D01*
X495702Y59218D01*
Y87630D01*
X495555Y88367D01*
X495138Y88992D01*
X494513Y89409D01*
X493776Y89556D01*
D02*
G37*
G36*
X345838Y45942D02*
X345042D01*
X344307Y45637D01*
X343745Y45075D01*
X343440Y44340D01*
Y43544D01*
X343745Y42809D01*
X344307Y42246D01*
X345042Y41942D01*
X345838D01*
X346573Y42246D01*
X347136Y42809D01*
X347440Y43544D01*
Y44340D01*
X347136Y45075D01*
X346573Y45637D01*
X345838Y45942D01*
D02*
G37*
G36*
X275226Y35528D02*
X274430D01*
X273695Y35224D01*
X273132Y34661D01*
X272828Y33926D01*
Y33130D01*
X273132Y32395D01*
X273695Y31832D01*
X274430Y31528D01*
X275226D01*
X275961Y31832D01*
X276523Y32395D01*
X276828Y33130D01*
Y33926D01*
X276523Y34661D01*
X275961Y35224D01*
X275226Y35528D01*
D02*
G37*
G36*
X724298Y-15780D02*
X723502D01*
X722767Y-16085D01*
X722205Y-16647D01*
X721900Y-17382D01*
Y-18178D01*
X722205Y-18913D01*
X722767Y-19476D01*
X723502Y-19780D01*
X724298D01*
X725033Y-19476D01*
X725595Y-18913D01*
X725900Y-18178D01*
Y-17382D01*
X725595Y-16647D01*
X725033Y-16085D01*
X724298Y-15780D01*
D02*
G37*
G36*
X752238Y-28480D02*
X751442D01*
X750707Y-28784D01*
X750145Y-29347D01*
X749840Y-30082D01*
Y-30878D01*
X750145Y-31613D01*
X750707Y-32176D01*
X751442Y-32480D01*
X752238D01*
X752973Y-32176D01*
X753536Y-31613D01*
X753840Y-30878D01*
Y-30082D01*
X753536Y-29347D01*
X752973Y-28784D01*
X752238Y-28480D01*
D02*
G37*
%LPD*%
G36*
X355014Y96118D02*
X323907Y65011D01*
X255430D01*
X254693Y64864D01*
X254068Y64447D01*
X253651Y63822D01*
X253504Y63085D01*
X253651Y62348D01*
X254068Y61723D01*
X254693Y61306D01*
X255430Y61159D01*
X323787D01*
X323885Y60924D01*
X316194Y53234D01*
X253274D01*
X246274Y60234D01*
Y89934D01*
X246528Y89959D01*
X246633Y89433D01*
X247050Y88808D01*
X264576Y71282D01*
X265201Y70865D01*
X265938Y70718D01*
X309880D01*
X310617Y70865D01*
X311242Y71282D01*
X336332Y96372D01*
X354909D01*
X355014Y96118D01*
D02*
G37*
G36*
X353545Y79119D02*
X351569Y77144D01*
X351467Y77123D01*
X350842Y76706D01*
X324354Y50218D01*
X318958D01*
X318860Y50453D01*
X347762Y79354D01*
X353447D01*
X353545Y79119D01*
D02*
G37*
%LPC*%
G36*
X337710Y86582D02*
X336914D01*
X336179Y86278D01*
X335616Y85715D01*
X335312Y84980D01*
Y84184D01*
X335616Y83449D01*
X336179Y82886D01*
X336914Y82582D01*
X337710D01*
X338445Y82886D01*
X339007Y83449D01*
X339312Y84184D01*
Y84980D01*
X339007Y85715D01*
X338445Y86278D01*
X337710Y86582D01*
D02*
G37*
%LPD*%
D86*
X1156970Y130240D02*
D03*
X218298Y290180D02*
D03*
X314960Y280670D02*
D03*
X648970Y217170D02*
D03*
X427228Y88551D02*
D03*
X469900Y91440D02*
D03*
X355600Y78391D02*
D03*
X26670Y167640D02*
D03*
X42513Y196810D02*
D03*
Y156810D02*
D03*
X709930Y66770D02*
D03*
X1038098Y324612D02*
D03*
X606552Y225552D02*
D03*
X543560Y233680D02*
D03*
X450850Y327660D02*
D03*
X322580Y325120D02*
D03*
X1096010Y186690D02*
D03*
X930910Y187960D02*
D03*
X891445Y204470D02*
D03*
X869950Y219710D02*
D03*
X692139Y232399D02*
D03*
X670290Y250460D02*
D03*
X595725Y302260D02*
D03*
X478790Y320040D02*
D03*
X936233Y183653D02*
D03*
X1157986Y252222D02*
D03*
X255524Y154829D02*
D03*
X697484Y279400D02*
D03*
X1034796Y319532D02*
D03*
X346710Y251460D02*
D03*
X274828Y33528D02*
D03*
X654812Y364490D02*
D03*
X340680Y290180D02*
D03*
X162306Y219150D02*
D03*
X204470Y261314D02*
D03*
X665226Y105664D02*
D03*
X771916D02*
D03*
X182626Y228346D02*
D03*
X980440Y70104D02*
D03*
X1366520Y310388D02*
D03*
X916686Y295656D02*
D03*
X690372Y93726D02*
D03*
X1265031Y120142D02*
D03*
X1336945Y128159D02*
D03*
X741680Y158750D02*
D03*
X514096Y43942D02*
D03*
X928624Y108458D02*
D03*
X918210Y393065D02*
D03*
X326390Y324866D02*
D03*
X373888Y224092D02*
D03*
X337312Y84582D02*
D03*
X1116076Y37084D02*
D03*
X1203452Y107950D02*
D03*
X157734Y185880D02*
D03*
X39624Y136810D02*
D03*
X324104Y137668D02*
D03*
X11430Y176530D02*
D03*
X881634Y120444D02*
D03*
X546862Y301244D02*
D03*
X335026Y118110D02*
D03*
X331343Y181579D02*
D03*
X375920Y360620D02*
D03*
X75946Y135648D02*
D03*
X683110Y97490D02*
D03*
X1176274Y181356D02*
D03*
X383540Y306870D02*
D03*
X843280Y236632D02*
D03*
X619760Y87122D02*
D03*
X623316Y86868D02*
D03*
X338836Y123190D02*
D03*
X327406Y213614D02*
D03*
X180086Y55880D02*
D03*
X269494Y82550D02*
D03*
X260096Y156210D02*
D03*
X538770Y218186D02*
D03*
X718820Y129286D02*
D03*
X220980Y128524D02*
D03*
X1103630Y123952D02*
D03*
X1235710Y346964D02*
D03*
X884809Y83566D02*
D03*
X435610Y319024D02*
D03*
X583946Y234696D02*
D03*
X723900Y-17780D02*
D03*
X871982Y147828D02*
D03*
X1336945Y153305D02*
D03*
X123952Y123952D02*
D03*
X746506Y85344D02*
D03*
X913130Y283210D02*
D03*
X299974Y329946D02*
D03*
X239268Y79200D02*
D03*
X735330Y120904D02*
D03*
X345440Y43942D02*
D03*
X388620Y241554D02*
D03*
X172974Y208788D02*
D03*
X1420876Y260604D02*
D03*
X751840Y-30480D02*
D03*
X787400Y53848D02*
D03*
X922020Y255778D02*
D03*
X956056Y113538D02*
D03*
X1116330Y98552D02*
D03*
X1220470Y122428D02*
D03*
X307594Y136906D02*
D03*
X787400Y123952D02*
D03*
X442468Y263398D02*
D03*
X865886Y155956D02*
D03*
X322326Y260096D02*
D03*
X808228Y148971D02*
D03*
X941070Y340868D02*
D03*
X558419Y220472D02*
D03*
X998220Y98044D02*
D03*
X607822Y175942D02*
D03*
X674370Y328930D02*
D03*
X748030Y304292D02*
D03*
X1204595Y235712D02*
D03*
X1151890D02*
D03*
X699262Y171196D02*
D03*
X737362D02*
D03*
D87*
X1167900Y147740D02*
D03*
X1155700D02*
D03*
X1143500D02*
D03*
X1167900Y136740D02*
D03*
X1155700D02*
D03*
X1143500D02*
D03*
D92*
X1141682Y132351D02*
X1142729D01*
X1139111Y134922D02*
X1141682Y132351D01*
X1139111Y134922D02*
Y135969D01*
X1142729Y132351D02*
X1145891Y129189D01*
X39624Y202046D02*
X110628Y273050D01*
X307340D01*
X314960Y280670D01*
X278384Y264160D02*
X405638D01*
X434086Y235712D01*
X252222Y237998D02*
X278384Y264160D01*
X314960Y280670D02*
X315002Y280713D01*
X84173Y301244D02*
X546862D01*
X30480Y247551D02*
X84173Y301244D01*
X318537Y283141D02*
Y291867D01*
X316109Y280713D02*
X318537Y283141D01*
X315002Y280713D02*
X316109D01*
X598394Y216916D02*
X598648Y217170D01*
X648970D01*
X548132Y216916D02*
X598394D01*
X408910Y94996D02*
X412466Y91440D01*
X469900D01*
X356616Y94996D02*
X408910D01*
X352204Y75344D02*
X352493D01*
X355540Y78391D01*
X355600D01*
X457454Y81280D02*
X506730Y32004D01*
X325152Y48292D02*
X352204Y75344D01*
X346964Y81280D02*
X457454D01*
X316992Y51308D02*
X346964Y81280D01*
X83788Y48292D02*
X325152D01*
X26670Y167640D02*
Y167700D01*
X27593Y168623D01*
Y168647D01*
X23781Y166443D02*
X24638Y165586D01*
X23781Y168837D02*
X24638Y169694D01*
X23781Y166443D02*
Y168837D01*
X24638Y139954D02*
Y165586D01*
Y169694D02*
Y201810D01*
X27593Y168647D02*
X32214D01*
X30480Y170382D02*
X32214Y168647D01*
X42555Y194005D02*
X99655Y136906D01*
X42555Y194005D02*
Y196767D01*
X42672Y172720D02*
X45402Y169990D01*
Y136081D02*
X53975Y127508D01*
X42513Y196810D02*
X42555Y196767D01*
X45402Y136081D02*
Y169990D01*
X39624Y136810D02*
Y202046D01*
X30480Y170382D02*
Y247551D01*
X318537Y291867D02*
X323342Y296672D01*
X1101090Y173990D02*
X1139111Y135969D01*
X754634Y173990D02*
X1101090D01*
X482644Y316246D02*
X581739D01*
X478850Y320040D02*
X482644Y316246D01*
X478790Y320040D02*
X478850D01*
X581739Y316246D02*
X595725Y302260D01*
X503174Y324104D02*
X508254Y319024D01*
X422148Y324104D02*
X503174D01*
X602234Y229870D02*
X606552Y225552D01*
X488031Y233680D02*
X543560D01*
X486253Y231902D02*
X488031Y233680D01*
X430784Y231902D02*
X486253D01*
X322580Y325120D02*
X385445D01*
X387985Y327660D02*
X450850D01*
X385445Y325120D02*
X387985Y327660D01*
X415544Y317500D02*
X422148Y324104D01*
X1095950Y186690D02*
X1096010D01*
X1094680Y187960D02*
X1095950Y186690D01*
X930910Y187960D02*
X1094680D01*
X885190Y204470D02*
X891445D01*
X869950Y219710D02*
X885190Y204470D01*
X692097Y232442D02*
X692139Y232399D01*
X688080Y232442D02*
X692097D01*
X685800Y234722D02*
X688080Y232442D01*
X685800Y234722D02*
Y234950D01*
X670290Y250460D02*
X685800Y234950D01*
X1092962Y177546D02*
X1163320Y247904D01*
X760476Y177546D02*
X1092962D01*
X894334Y189230D02*
Y270327D01*
X824301Y340360D02*
X894334Y270327D01*
X660908Y267716D02*
X754634Y173990D01*
X480314Y289306D02*
X590550D01*
X623570Y322326D01*
X248412Y90170D02*
Y94488D01*
Y90170D02*
X265938Y72644D01*
X309880D01*
X335534Y98298D01*
X501904D01*
X526542Y73660D01*
Y45085D02*
Y73660D01*
Y45085D02*
X530225Y41402D01*
X1157224D01*
X1184402Y68580D01*
Y236728D01*
X1168908Y252222D02*
X1184402Y236728D01*
X1157986Y252222D02*
X1168908D01*
X69596Y94996D02*
X233172D01*
X24638Y139954D02*
X69596Y94996D01*
X255430Y63085D02*
X324705D01*
X356616Y94996D01*
X934720Y257889D02*
X1391920D01*
X1328071Y255111D02*
X1358138Y225044D01*
X1155192Y255111D02*
X1328071D01*
X1152049Y251968D02*
X1155192Y255111D01*
X931148Y251968D02*
X1152049D01*
X847836Y335280D02*
X931148Y251968D01*
X653669Y247650D02*
X770382Y130937D01*
X438912Y247650D02*
X653669D01*
X394462Y292100D02*
X438912Y247650D01*
X332994Y292100D02*
X394462D01*
X418846Y333502D02*
X826262D01*
X885698Y274066D01*
Y226822D02*
Y274066D01*
X1351788Y295656D02*
X1366520Y310388D01*
X916686Y295656D02*
X1351788D01*
X939038Y150876D02*
X942294Y147620D01*
X869188Y150876D02*
X939038D01*
X837692Y119380D02*
X869188Y150876D01*
X775224Y119380D02*
X837692D01*
X681244Y213360D02*
X775224Y119380D01*
X523875Y213360D02*
X681244D01*
X703072Y256032D02*
X782320D01*
X630174Y328930D02*
X703072Y256032D01*
X455930Y328930D02*
X630174D01*
X640461Y76708D02*
X758698D01*
X542163Y175006D02*
X640461Y76708D01*
X432816Y175006D02*
X542163D01*
X493776Y58420D02*
Y87630D01*
Y58420D02*
X515112Y37084D01*
X1116076D01*
X545338Y229870D02*
X602234D01*
X540512Y225044D02*
X545338Y229870D01*
X207962Y225044D02*
X540512D01*
X163798Y180880D02*
X207962Y225044D01*
X543814Y221234D02*
X548132Y216916D01*
X288544Y221234D02*
X543814D01*
X243840Y176530D02*
X288544Y221234D01*
X161925Y176530D02*
X243840D01*
X157734Y180721D02*
X161925Y176530D01*
X157734Y180721D02*
Y185880D01*
X318246Y131810D02*
X324104Y137668D01*
X64262Y131810D02*
X318246D01*
X38862Y317500D02*
X415544D01*
X15748Y294386D02*
X38862Y317500D01*
X15748Y173990D02*
Y294386D01*
X871982Y147828D02*
X933482D01*
X938276Y143034D01*
X1109361D01*
X1179164Y73231D01*
X53975Y127508D02*
X169164D01*
X179578Y117094D01*
X265340D01*
X305054Y77380D01*
X374650Y212344D02*
X506222D01*
X371475Y209169D02*
X374650Y212344D01*
X371475Y168529D02*
Y209169D01*
X305054Y102108D02*
X371475Y168529D01*
X305054Y77380D02*
Y102108D01*
X27432Y104648D02*
X83788Y48292D01*
X86614Y203708D02*
X120904Y237998D01*
X252222D01*
X434086Y235712D02*
X470408D01*
X589280Y70866D02*
X755396D01*
X542036Y118110D02*
X589280Y70866D01*
X335026Y118110D02*
X542036D01*
X308319Y148082D02*
X339180Y178943D01*
X149352Y148082D02*
X308319D01*
X603504Y86868D02*
X623316D01*
X567182Y123190D02*
X603504Y86868D01*
X338836Y123190D02*
X567182D01*
X376174Y188468D02*
X603758D01*
X675386Y116840D01*
X764286D01*
X772414Y108712D01*
X922020D01*
X934942Y121634D01*
X1066578D01*
X1106678Y81534D01*
X220980Y128524D02*
X321818D01*
X342900Y149606D01*
Y212471D01*
X346075Y215646D01*
X511048D01*
X516382Y210312D01*
X676656D01*
X772668Y114300D01*
X914400D01*
X926084Y125984D01*
X1101598D01*
X1103630Y123952D01*
X283210Y322834D02*
X300736Y340360D01*
X824301D01*
X848614Y255270D02*
Y299720D01*
X844550Y251206D02*
X848614Y255270D01*
X693928Y251206D02*
X844550D01*
X673354Y271780D02*
X693928Y251206D01*
X482346Y271780D02*
X673354D01*
X457454Y296672D02*
X482346Y271780D01*
X323342Y296672D02*
X457454D01*
X491871Y267716D02*
X660908D01*
X420744Y207130D02*
X648676D01*
X730330Y125476D01*
X1215644Y32004D02*
X1336945Y153305D01*
X506730Y32004D02*
X1215644D01*
X252476Y51308D02*
X316992D01*
X244348Y59436D02*
X252476Y51308D01*
X244348Y59436D02*
Y99695D01*
X240157Y103886D02*
X244348Y99695D01*
X144018Y103886D02*
X240157D01*
X123952Y123952D02*
X144018Y103886D01*
X1020572Y46228D02*
X1078992Y104648D01*
X633730Y46228D02*
X1020572D01*
X99655Y136906D02*
X307594D01*
X647954Y263398D02*
X787400Y123952D01*
X442468Y263398D02*
X647954D01*
X322326Y260096D02*
X402590D01*
X430784Y231902D01*
X685720Y98044D02*
X998220D01*
X607822Y175942D02*
X685720Y98044D01*
M02*
