G04*
G04 #@! TF.GenerationSoftware,Altium Limited,Altium Designer,26.7.1 (11)*
G04*
G04 Layer_Color=8421504*
G04 Board_Origin=10250000|11200000*
%FSLAX44Y44*%
%MOMM*%
G71*
G04*
G04 #@! TF.SameCoordinates,FFEA9334-926C-40BC-8964-0171260B8DE7*
G04*
G04*
G04 #@! TF.FilePolarity,Positive*
G04*
G01*
G75*
%ADD18R,0.5800X0.5400*%
%ADD19R,0.7000X0.2500*%
%ADD20R,0.2500X0.7000*%
%ADD21R,0.2500X1.5000*%
%ADD22R,0.2900X0.3700*%
%ADD23R,0.3500X0.4500*%
%ADD24R,0.2627X0.3541*%
%ADD25R,0.4500X1.7000*%
%ADD26R,4.0000X4.0000*%
%ADD27R,1.2552X1.1062*%
%ADD28R,2.4130X3.4290*%
%ADD29R,0.5400X0.5800*%
G04:AMPARAMS|DCode=30|XSize=0.76mm|YSize=0.6604mm|CornerRadius=0.0825mm|HoleSize=0mm|Usage=FLASHONLY|Rotation=180.000|XOffset=0mm|YOffset=0mm|HoleType=Round|Shape=RoundedRectangle|*
%AMROUNDEDRECTD30*
21,1,0.7600,0.4953,0,0,180.0*
21,1,0.5949,0.6604,0,0,180.0*
1,1,0.1651,-0.2975,0.2477*
1,1,0.1651,0.2975,0.2477*
1,1,0.1651,0.2975,-0.2477*
1,1,0.1651,-0.2975,-0.2477*
%
%ADD30ROUNDEDRECTD30*%
%ADD31P,0.7354X4X360.0*%
%ADD32C,0.2227*%
%ADD33C,0.2340*%
%ADD34R,0.4250X0.4000*%
%ADD35R,0.7500X0.3000*%
%ADD36R,1.1500X0.9500*%
G04:AMPARAMS|DCode=37|XSize=0.76mm|YSize=0.6604mm|CornerRadius=0.0825mm|HoleSize=0mm|Usage=FLASHONLY|Rotation=90.000|XOffset=0mm|YOffset=0mm|HoleType=Round|Shape=RoundedRectangle|*
%AMROUNDEDRECTD37*
21,1,0.7600,0.4953,0,0,90.0*
21,1,0.5949,0.6604,0,0,90.0*
1,1,0.1651,0.2477,0.2975*
1,1,0.1651,0.2477,-0.2975*
1,1,0.1651,-0.2477,-0.2975*
1,1,0.1651,-0.2477,0.2975*
%
%ADD37ROUNDEDRECTD37*%
%ADD38R,0.4627X0.5541*%
%ADD39R,0.9000X0.7500*%
%ADD40R,1.0000X0.8500*%
%ADD41R,0.7500X0.9000*%
%ADD42R,0.6000X0.6000*%
%ADD43R,0.4000X0.3500*%
%ADD44R,0.9000X0.8000*%
%ADD45R,0.5200X0.5600*%
%ADD46R,0.2500X0.3500*%
%ADD47R,0.7562X1.1062*%
%ADD48R,0.4500X0.5500*%
%ADD49R,0.3500X0.3500*%
%ADD50R,0.5500X0.5500*%
%ADD51R,1.0062X1.0552*%
%ADD52R,1.0552X1.0062*%
G04:AMPARAMS|DCode=53|XSize=0.55mm|YSize=0.5mm|CornerRadius=0.0625mm|HoleSize=0mm|Usage=FLASHONLY|Rotation=180.000|XOffset=0mm|YOffset=0mm|HoleType=Round|Shape=RoundedRectangle|*
%AMROUNDEDRECTD53*
21,1,0.5500,0.3750,0,0,180.0*
21,1,0.4250,0.5000,0,0,180.0*
1,1,0.1250,-0.2125,0.1875*
1,1,0.1250,0.2125,0.1875*
1,1,0.1250,0.2125,-0.1875*
1,1,0.1250,-0.2125,-0.1875*
%
%ADD53ROUNDEDRECTD53*%
%ADD54R,0.8000X0.9000*%
%ADD55R,1.1062X0.7562*%
%ADD56R,0.5500X0.4500*%
%ADD57R,0.3500X0.3500*%
%ADD58R,0.6400X0.6800*%
%ADD59R,0.7000X0.7000*%
%ADD60R,0.2200X0.7900*%
%ADD61R,0.7900X0.2200*%
%ADD62R,0.5541X0.4627*%
%ADD63R,1.0000X1.0500*%
%ADD64R,0.8500X1.0000*%
%ADD65R,0.8500X0.9000*%
G04:AMPARAMS|DCode=66|XSize=1.4mm|YSize=0.45mm|CornerRadius=0.0495mm|HoleSize=0mm|Usage=FLASHONLY|Rotation=90.000|XOffset=0mm|YOffset=0mm|HoleType=Round|Shape=RoundedRectangle|*
%AMROUNDEDRECTD66*
21,1,1.4000,0.3510,0,0,90.0*
21,1,1.3010,0.4500,0,0,90.0*
1,1,0.0990,0.1755,0.6505*
1,1,0.0990,0.1755,-0.6505*
1,1,0.0990,-0.1755,-0.6505*
1,1,0.0990,-0.1755,0.6505*
%
%ADD66ROUNDEDRECTD66*%
G04:AMPARAMS|DCode=67|XSize=1.3mm|YSize=0.76mm|CornerRadius=0.095mm|HoleSize=0mm|Usage=FLASHONLY|Rotation=180.000|XOffset=0mm|YOffset=0mm|HoleType=Round|Shape=RoundedRectangle|*
%AMROUNDEDRECTD67*
21,1,1.3000,0.5700,0,0,180.0*
21,1,1.1100,0.7600,0,0,180.0*
1,1,0.1900,-0.5550,0.2850*
1,1,0.1900,0.5550,0.2850*
1,1,0.1900,0.5550,-0.2850*
1,1,0.1900,-0.5550,-0.2850*
%
%ADD67ROUNDEDRECTD67*%
%ADD68R,1.1062X1.2552*%
%ADD69R,0.5600X0.5200*%
%ADD70R,0.5500X0.5500*%
%ADD71R,0.6000X0.6000*%
%ADD72R,0.3500X0.4000*%
%ADD73R,0.3541X0.2627*%
%ADD74R,0.3500X0.2500*%
%ADD75R,1.0500X1.0000*%
%ADD76R,0.3700X0.2900*%
%ADD77R,0.4500X0.3500*%
%ADD78R,0.8000X0.3000*%
%ADD79R,0.8000X0.4000*%
%ADD80R,0.4000X0.4250*%
%ADD81R,0.3000X0.7500*%
%ADD82R,0.9500X1.1500*%
G36*
X362690Y282770D02*
X361590D01*
X360090Y284270D01*
Y286670D01*
X362690D01*
Y282770D01*
D02*
G37*
G36*
X356190Y284270D02*
X354690Y282770D01*
X353590D01*
Y286670D01*
X356190D01*
Y284270D01*
D02*
G37*
G36*
X362690Y274670D02*
X360090D01*
Y277070D01*
X361590Y278570D01*
X362690D01*
Y274670D01*
D02*
G37*
G36*
X356190Y277070D02*
Y274670D01*
X353590D01*
Y278570D01*
X354690D01*
X356190Y277070D01*
D02*
G37*
G36*
X601460Y226570D02*
X601480D01*
X601510Y226560D01*
X601530D01*
X601560Y226550D01*
X601580Y226540D01*
X601610Y226530D01*
X601630Y226510D01*
X601650Y226500D01*
X601670Y226480D01*
X601690Y226470D01*
X601710Y226450D01*
X601730Y226430D01*
X601750Y226410D01*
X601770Y226390D01*
X601780Y226370D01*
X601800Y226350D01*
X601810Y226330D01*
X601830Y226310D01*
X601840Y226280D01*
X601850Y226260D01*
X601860Y226230D01*
Y226210D01*
X601870Y226180D01*
Y226160D01*
X601880Y226130D01*
Y226110D01*
Y226080D01*
Y221080D01*
Y221050D01*
Y221030D01*
X601870Y221000D01*
Y220980D01*
X601860Y220950D01*
Y220930D01*
X601850Y220900D01*
X601840Y220880D01*
X601830Y220850D01*
X601810Y220830D01*
X601800Y220810D01*
X601780Y220790D01*
X601770Y220770D01*
X601750Y220750D01*
X601730Y220730D01*
X601710Y220710D01*
X601690Y220690D01*
X601670Y220680D01*
X601650Y220660D01*
X601630Y220650D01*
X601610Y220630D01*
X601580Y220620D01*
X601560Y220610D01*
X601530Y220600D01*
X601510D01*
X601480Y220590D01*
X601460D01*
X601430Y220580D01*
X599830D01*
X599800Y220590D01*
X599780D01*
X599750Y220600D01*
X599730D01*
X599700Y220610D01*
X599680Y220620D01*
X599650Y220630D01*
X599630Y220650D01*
X599610Y220660D01*
X599590Y220680D01*
X599570Y220690D01*
X599550Y220710D01*
X599530Y220730D01*
X599510Y220750D01*
X599490Y220770D01*
X599480Y220790D01*
X599460Y220810D01*
X599450Y220830D01*
X599430Y220850D01*
X599420Y220880D01*
X599410Y220900D01*
X599400Y220930D01*
Y220950D01*
X599390Y220980D01*
Y221000D01*
X599380Y221030D01*
Y221050D01*
Y221080D01*
Y226080D01*
Y226110D01*
Y226130D01*
X599390Y226160D01*
Y226180D01*
X599400Y226210D01*
Y226230D01*
X599410Y226260D01*
X599420Y226280D01*
X599430Y226310D01*
X599450Y226330D01*
X599460Y226350D01*
X599480Y226370D01*
X599490Y226390D01*
X599510Y226410D01*
X599530Y226430D01*
X599550Y226450D01*
X599570Y226470D01*
X599590Y226480D01*
X599610Y226500D01*
X599630Y226510D01*
X599650Y226530D01*
X599680Y226540D01*
X599700Y226550D01*
X599730Y226560D01*
X599750D01*
X599780Y226570D01*
X599800D01*
X599830Y226580D01*
X601430D01*
X601460Y226570D01*
D02*
G37*
G36*
X596460D02*
X596480D01*
X596510Y226560D01*
X596530D01*
X596560Y226550D01*
X596580Y226540D01*
X596610Y226530D01*
X596630Y226510D01*
X596650Y226500D01*
X596670Y226480D01*
X596690Y226470D01*
X596710Y226450D01*
X596730Y226430D01*
X596750Y226410D01*
X596770Y226390D01*
X596780Y226370D01*
X596800Y226350D01*
X596810Y226330D01*
X596830Y226310D01*
X596840Y226280D01*
X596850Y226260D01*
X596860Y226230D01*
Y226210D01*
X596870Y226180D01*
Y226160D01*
X596880Y226130D01*
Y226110D01*
Y226080D01*
Y221080D01*
Y221050D01*
Y221030D01*
X596870Y221000D01*
Y220980D01*
X596860Y220950D01*
Y220930D01*
X596850Y220900D01*
X596840Y220880D01*
X596830Y220850D01*
X596810Y220830D01*
X596800Y220810D01*
X596780Y220790D01*
X596770Y220770D01*
X596750Y220750D01*
X596730Y220730D01*
X596710Y220710D01*
X596690Y220690D01*
X596670Y220680D01*
X596650Y220660D01*
X596630Y220650D01*
X596610Y220630D01*
X596580Y220620D01*
X596560Y220610D01*
X596530Y220600D01*
X596510D01*
X596480Y220590D01*
X596460D01*
X596430Y220580D01*
X594830D01*
X594800Y220590D01*
X594780D01*
X594750Y220600D01*
X594730D01*
X594700Y220610D01*
X594680Y220620D01*
X594650Y220630D01*
X594630Y220650D01*
X594610Y220660D01*
X594590Y220680D01*
X594570Y220690D01*
X594550Y220710D01*
X594530Y220730D01*
X594510Y220750D01*
X594490Y220770D01*
X594480Y220790D01*
X594460Y220810D01*
X594450Y220830D01*
X594430Y220850D01*
X594420Y220880D01*
X594410Y220900D01*
X594400Y220930D01*
Y220950D01*
X594390Y220980D01*
Y221000D01*
X594380Y221030D01*
Y221050D01*
Y221080D01*
Y226080D01*
Y226110D01*
Y226130D01*
X594390Y226160D01*
Y226180D01*
X594400Y226210D01*
Y226230D01*
X594410Y226260D01*
X594420Y226280D01*
X594430Y226310D01*
X594450Y226330D01*
X594460Y226350D01*
X594480Y226370D01*
X594490Y226390D01*
X594510Y226410D01*
X594530Y226430D01*
X594550Y226450D01*
X594570Y226470D01*
X594590Y226480D01*
X594610Y226500D01*
X594630Y226510D01*
X594650Y226530D01*
X594680Y226540D01*
X594700Y226550D01*
X594730Y226560D01*
X594750D01*
X594780Y226570D01*
X594800D01*
X594830Y226580D01*
X596430D01*
X596460Y226570D01*
D02*
G37*
G36*
X591460D02*
X591480D01*
X591510Y226560D01*
X591530D01*
X591560Y226550D01*
X591580Y226540D01*
X591610Y226530D01*
X591630Y226510D01*
X591650Y226500D01*
X591670Y226480D01*
X591690Y226470D01*
X591710Y226450D01*
X591730Y226430D01*
X591750Y226410D01*
X591770Y226390D01*
X591780Y226370D01*
X591800Y226350D01*
X591810Y226330D01*
X591830Y226310D01*
X591840Y226280D01*
X591850Y226260D01*
X591860Y226230D01*
Y226210D01*
X591870Y226180D01*
Y226160D01*
X591880Y226130D01*
Y226110D01*
Y226080D01*
Y221080D01*
Y221050D01*
Y221030D01*
X591870Y221000D01*
Y220980D01*
X591860Y220950D01*
Y220930D01*
X591850Y220900D01*
X591840Y220880D01*
X591830Y220850D01*
X591810Y220830D01*
X591800Y220810D01*
X591780Y220790D01*
X591770Y220770D01*
X591750Y220750D01*
X591730Y220730D01*
X591710Y220710D01*
X591690Y220690D01*
X591670Y220680D01*
X591650Y220660D01*
X591630Y220650D01*
X591610Y220630D01*
X591580Y220620D01*
X591560Y220610D01*
X591530Y220600D01*
X591510D01*
X591480Y220590D01*
X591460D01*
X591430Y220580D01*
X589830D01*
X589800Y220590D01*
X589780D01*
X589750Y220600D01*
X589730D01*
X589700Y220610D01*
X589680Y220620D01*
X589650Y220630D01*
X589630Y220650D01*
X589610Y220660D01*
X589590Y220680D01*
X589570Y220690D01*
X589550Y220710D01*
X589530Y220730D01*
X589510Y220750D01*
X589490Y220770D01*
X589480Y220790D01*
X589460Y220810D01*
X589450Y220830D01*
X589430Y220850D01*
X589420Y220880D01*
X589410Y220900D01*
X589400Y220930D01*
Y220950D01*
X589390Y220980D01*
Y221000D01*
X589380Y221030D01*
Y221050D01*
Y221080D01*
Y226080D01*
Y226110D01*
Y226130D01*
X589390Y226160D01*
Y226180D01*
X589400Y226210D01*
Y226230D01*
X589410Y226260D01*
X589420Y226280D01*
X589430Y226310D01*
X589450Y226330D01*
X589460Y226350D01*
X589480Y226370D01*
X589490Y226390D01*
X589510Y226410D01*
X589530Y226430D01*
X589550Y226450D01*
X589570Y226470D01*
X589590Y226480D01*
X589610Y226500D01*
X589630Y226510D01*
X589650Y226530D01*
X589680Y226540D01*
X589700Y226550D01*
X589730Y226560D01*
X589750D01*
X589780Y226570D01*
X589800D01*
X589830Y226580D01*
X591430D01*
X591460Y226570D01*
D02*
G37*
G36*
X586460D02*
X586480D01*
X586510Y226560D01*
X586530D01*
X586560Y226550D01*
X586580Y226540D01*
X586610Y226530D01*
X586630Y226510D01*
X586650Y226500D01*
X586670Y226480D01*
X586690Y226470D01*
X586710Y226450D01*
X586730Y226430D01*
X586750Y226410D01*
X586770Y226390D01*
X586780Y226370D01*
X586800Y226350D01*
X586810Y226330D01*
X586830Y226310D01*
X586840Y226280D01*
X586850Y226260D01*
X586860Y226230D01*
Y226210D01*
X586870Y226180D01*
Y226160D01*
X586880Y226130D01*
Y226110D01*
Y226080D01*
Y221080D01*
Y221050D01*
Y221030D01*
X586870Y221000D01*
Y220980D01*
X586860Y220950D01*
Y220930D01*
X586850Y220900D01*
X586840Y220880D01*
X586830Y220850D01*
X586810Y220830D01*
X586800Y220810D01*
X586780Y220790D01*
X586770Y220770D01*
X586750Y220750D01*
X586730Y220730D01*
X586710Y220710D01*
X586690Y220690D01*
X586670Y220680D01*
X586650Y220660D01*
X586630Y220650D01*
X586610Y220630D01*
X586580Y220620D01*
X586560Y220610D01*
X586530Y220600D01*
X586510D01*
X586480Y220590D01*
X586460D01*
X586430Y220580D01*
X584830D01*
X584800Y220590D01*
X584780D01*
X584750Y220600D01*
X584730D01*
X584700Y220610D01*
X584680Y220620D01*
X584650Y220630D01*
X584630Y220650D01*
X584610Y220660D01*
X584590Y220680D01*
X584570Y220690D01*
X584550Y220710D01*
X584530Y220730D01*
X584510Y220750D01*
X584490Y220770D01*
X584480Y220790D01*
X584460Y220810D01*
X584450Y220830D01*
X584430Y220850D01*
X584420Y220880D01*
X584410Y220900D01*
X584400Y220930D01*
Y220950D01*
X584390Y220980D01*
Y221000D01*
X584380Y221030D01*
Y221050D01*
Y221080D01*
Y226080D01*
Y226110D01*
Y226130D01*
X584390Y226160D01*
Y226180D01*
X584400Y226210D01*
Y226230D01*
X584410Y226260D01*
X584420Y226280D01*
X584430Y226310D01*
X584450Y226330D01*
X584460Y226350D01*
X584480Y226370D01*
X584490Y226390D01*
X584510Y226410D01*
X584530Y226430D01*
X584550Y226450D01*
X584570Y226470D01*
X584590Y226480D01*
X584610Y226500D01*
X584630Y226510D01*
X584650Y226530D01*
X584680Y226540D01*
X584700Y226550D01*
X584730Y226560D01*
X584750D01*
X584780Y226570D01*
X584800D01*
X584830Y226580D01*
X586430D01*
X586460Y226570D01*
D02*
G37*
G36*
X604710Y215820D02*
X604730D01*
X604760Y215810D01*
X604780D01*
X604810Y215800D01*
X604830Y215790D01*
X604860Y215780D01*
X604880Y215760D01*
X604900Y215750D01*
X604920Y215730D01*
X604940Y215720D01*
X604960Y215700D01*
X604980Y215680D01*
X605000Y215660D01*
X605020Y215640D01*
X605030Y215620D01*
X605050Y215600D01*
X605060Y215580D01*
X605080Y215560D01*
X605090Y215530D01*
X605100Y215510D01*
X605110Y215480D01*
Y215460D01*
X605120Y215430D01*
Y215410D01*
X605130Y215380D01*
Y215360D01*
Y215330D01*
Y213830D01*
Y213800D01*
Y213780D01*
X605120Y213750D01*
Y213730D01*
X605110Y213700D01*
Y213680D01*
X605100Y213650D01*
X605090Y213630D01*
X605080Y213600D01*
X605060Y213580D01*
X605050Y213560D01*
X605030Y213540D01*
X605020Y213520D01*
X605000Y213500D01*
X604980Y213480D01*
X604960Y213460D01*
X604940Y213440D01*
X604920Y213430D01*
X604900Y213410D01*
X604880Y213400D01*
X604860Y213380D01*
X604830Y213370D01*
X604810Y213360D01*
X604780Y213350D01*
X604760D01*
X604730Y213340D01*
X604710D01*
X604680Y213330D01*
X599580D01*
X599550Y213340D01*
X599530D01*
X599500Y213350D01*
X599480D01*
X599450Y213360D01*
X599430Y213370D01*
X599400Y213380D01*
X599380Y213400D01*
X599360Y213410D01*
X599340Y213430D01*
X599320Y213440D01*
X599300Y213460D01*
X599280Y213480D01*
X599260Y213500D01*
X599240Y213520D01*
X599230Y213540D01*
X599210Y213560D01*
X599200Y213580D01*
X599180Y213600D01*
X599170Y213630D01*
X599160Y213650D01*
X599150Y213680D01*
Y213700D01*
X599140Y213730D01*
Y213750D01*
X599130Y213780D01*
Y213800D01*
Y213830D01*
Y215330D01*
Y215360D01*
Y215380D01*
X599140Y215410D01*
Y215430D01*
X599150Y215460D01*
Y215480D01*
X599160Y215510D01*
X599170Y215530D01*
X599180Y215560D01*
X599200Y215580D01*
X599210Y215600D01*
X599230Y215620D01*
X599240Y215640D01*
X599260Y215660D01*
X599280Y215680D01*
X599300Y215700D01*
X599320Y215720D01*
X599340Y215730D01*
X599360Y215750D01*
X599380Y215760D01*
X599400Y215780D01*
X599430Y215790D01*
X599450Y215800D01*
X599480Y215810D01*
X599500D01*
X599530Y215820D01*
X599550D01*
X599580Y215830D01*
X604680D01*
X604710Y215820D01*
D02*
G37*
G36*
X594710D02*
X594730D01*
X594760Y215810D01*
X594780D01*
X594810Y215800D01*
X594830Y215790D01*
X594860Y215780D01*
X594880Y215760D01*
X594900Y215750D01*
X594920Y215730D01*
X594940Y215720D01*
X594960Y215700D01*
X594980Y215680D01*
X595000Y215660D01*
X595020Y215640D01*
X595030Y215620D01*
X595050Y215600D01*
X595060Y215580D01*
X595080Y215560D01*
X595090Y215530D01*
X595100Y215510D01*
X595110Y215480D01*
Y215460D01*
X595120Y215430D01*
Y215410D01*
X595130Y215380D01*
Y215360D01*
Y215330D01*
Y213830D01*
Y213800D01*
Y213780D01*
X595120Y213750D01*
Y213730D01*
X595110Y213700D01*
Y213680D01*
X595100Y213650D01*
X595090Y213630D01*
X595080Y213600D01*
X595060Y213580D01*
X595050Y213560D01*
X595030Y213540D01*
X595020Y213520D01*
X595000Y213500D01*
X594980Y213480D01*
X594960Y213460D01*
X594940Y213440D01*
X594920Y213430D01*
X594900Y213410D01*
X594880Y213400D01*
X594860Y213380D01*
X594830Y213370D01*
X594810Y213360D01*
X594780Y213350D01*
X594760D01*
X594730Y213340D01*
X594710D01*
X594680Y213330D01*
X589580D01*
X589550Y213340D01*
X589530D01*
X589500Y213350D01*
X589480D01*
X589450Y213360D01*
X589430Y213370D01*
X589400Y213380D01*
X589380Y213400D01*
X589360Y213410D01*
X589340Y213430D01*
X589320Y213440D01*
X589300Y213460D01*
X589280Y213480D01*
X589260Y213500D01*
X589240Y213520D01*
X589230Y213540D01*
X589210Y213560D01*
X589200Y213580D01*
X589180Y213600D01*
X589170Y213630D01*
X589160Y213650D01*
X589150Y213680D01*
Y213700D01*
X589140Y213730D01*
Y213750D01*
X589130Y213780D01*
Y213800D01*
Y213830D01*
Y215330D01*
Y215360D01*
Y215380D01*
X589140Y215410D01*
Y215430D01*
X589150Y215460D01*
Y215480D01*
X589160Y215510D01*
X589170Y215530D01*
X589180Y215560D01*
X589200Y215580D01*
X589210Y215600D01*
X589230Y215620D01*
X589240Y215640D01*
X589260Y215660D01*
X589280Y215680D01*
X589300Y215700D01*
X589320Y215720D01*
X589340Y215730D01*
X589360Y215750D01*
X589380Y215760D01*
X589400Y215780D01*
X589430Y215790D01*
X589450Y215800D01*
X589480Y215810D01*
X589500D01*
X589530Y215820D01*
X589550D01*
X589580Y215830D01*
X594680D01*
X594710Y215820D01*
D02*
G37*
G36*
X586710D02*
X586730D01*
X586760Y215810D01*
X586780D01*
X586810Y215800D01*
X586830Y215790D01*
X586860Y215780D01*
X586880Y215760D01*
X586900Y215750D01*
X586920Y215730D01*
X586940Y215720D01*
X586960Y215700D01*
X586980Y215680D01*
X587000Y215660D01*
X587020Y215640D01*
X587030Y215620D01*
X587050Y215600D01*
X587060Y215580D01*
X587080Y215560D01*
X587090Y215530D01*
X587100Y215510D01*
X587110Y215480D01*
Y215460D01*
X587120Y215430D01*
Y215410D01*
X587130Y215380D01*
Y215360D01*
Y215330D01*
Y213830D01*
Y213800D01*
Y213780D01*
X587120Y213750D01*
Y213730D01*
X587110Y213700D01*
Y213680D01*
X587100Y213650D01*
X587090Y213630D01*
X587080Y213600D01*
X587060Y213580D01*
X587050Y213560D01*
X587030Y213540D01*
X587020Y213520D01*
X587000Y213500D01*
X586980Y213480D01*
X586960Y213460D01*
X586940Y213440D01*
X586920Y213430D01*
X586900Y213410D01*
X586880Y213400D01*
X586860Y213380D01*
X586830Y213370D01*
X586810Y213360D01*
X586780Y213350D01*
X586760D01*
X586730Y213340D01*
X586710D01*
X586680Y213330D01*
X581580D01*
X581550Y213340D01*
X581530D01*
X581500Y213350D01*
X581480D01*
X581450Y213360D01*
X581430Y213370D01*
X581400Y213380D01*
X581380Y213400D01*
X581360Y213410D01*
X581340Y213430D01*
X581320Y213440D01*
X581300Y213460D01*
X581280Y213480D01*
X581260Y213500D01*
X581240Y213520D01*
X581230Y213540D01*
X581210Y213560D01*
X581200Y213580D01*
X581180Y213600D01*
X581170Y213630D01*
X581160Y213650D01*
X581150Y213680D01*
Y213700D01*
X581140Y213730D01*
Y213750D01*
X581130Y213780D01*
Y213800D01*
Y213830D01*
Y215330D01*
Y215360D01*
Y215380D01*
X581140Y215410D01*
Y215430D01*
X581150Y215460D01*
Y215480D01*
X581160Y215510D01*
X581170Y215530D01*
X581180Y215560D01*
X581200Y215580D01*
X581210Y215600D01*
X581230Y215620D01*
X581240Y215640D01*
X581260Y215660D01*
X581280Y215680D01*
X581300Y215700D01*
X581320Y215720D01*
X581340Y215730D01*
X581360Y215750D01*
X581380Y215760D01*
X581400Y215780D01*
X581430Y215790D01*
X581450Y215800D01*
X581480Y215810D01*
X581500D01*
X581530Y215820D01*
X581550D01*
X581580Y215830D01*
X586680D01*
X586710Y215820D01*
D02*
G37*
G36*
X604710Y210820D02*
X604730D01*
X604760Y210810D01*
X604780D01*
X604810Y210800D01*
X604830Y210790D01*
X604860Y210780D01*
X604880Y210760D01*
X604900Y210750D01*
X604920Y210730D01*
X604940Y210720D01*
X604960Y210700D01*
X604980Y210680D01*
X605000Y210660D01*
X605020Y210640D01*
X605030Y210620D01*
X605050Y210600D01*
X605060Y210580D01*
X605080Y210560D01*
X605090Y210530D01*
X605100Y210510D01*
X605110Y210480D01*
Y210460D01*
X605120Y210430D01*
Y210410D01*
X605130Y210380D01*
Y210360D01*
Y210330D01*
Y208830D01*
Y208800D01*
Y208780D01*
X605120Y208750D01*
Y208730D01*
X605110Y208700D01*
Y208680D01*
X605100Y208650D01*
X605090Y208630D01*
X605080Y208600D01*
X605060Y208580D01*
X605050Y208560D01*
X605030Y208540D01*
X605020Y208520D01*
X605000Y208500D01*
X604980Y208480D01*
X604960Y208460D01*
X604940Y208440D01*
X604920Y208430D01*
X604900Y208410D01*
X604880Y208400D01*
X604860Y208380D01*
X604830Y208370D01*
X604810Y208360D01*
X604780Y208350D01*
X604760D01*
X604730Y208340D01*
X604710D01*
X604680Y208330D01*
X599580D01*
X599550Y208340D01*
X599530D01*
X599500Y208350D01*
X599480D01*
X599450Y208360D01*
X599430Y208370D01*
X599400Y208380D01*
X599380Y208400D01*
X599360Y208410D01*
X599340Y208430D01*
X599320Y208440D01*
X599300Y208460D01*
X599280Y208480D01*
X599260Y208500D01*
X599240Y208520D01*
X599230Y208540D01*
X599210Y208560D01*
X599200Y208580D01*
X599180Y208600D01*
X599170Y208630D01*
X599160Y208650D01*
X599150Y208680D01*
Y208700D01*
X599140Y208730D01*
Y208750D01*
X599130Y208780D01*
Y208800D01*
Y208830D01*
Y210330D01*
Y210360D01*
Y210380D01*
X599140Y210410D01*
Y210430D01*
X599150Y210460D01*
Y210480D01*
X599160Y210510D01*
X599170Y210530D01*
X599180Y210560D01*
X599200Y210580D01*
X599210Y210600D01*
X599230Y210620D01*
X599240Y210640D01*
X599260Y210660D01*
X599280Y210680D01*
X599300Y210700D01*
X599320Y210720D01*
X599340Y210730D01*
X599360Y210750D01*
X599380Y210760D01*
X599400Y210780D01*
X599430Y210790D01*
X599450Y210800D01*
X599480Y210810D01*
X599500D01*
X599530Y210820D01*
X599550D01*
X599580Y210830D01*
X604680D01*
X604710Y210820D01*
D02*
G37*
G36*
X596710D02*
X596730D01*
X596760Y210810D01*
X596780D01*
X596810Y210800D01*
X596830Y210790D01*
X596860Y210780D01*
X596880Y210760D01*
X596900Y210750D01*
X596920Y210730D01*
X596940Y210720D01*
X596960Y210700D01*
X596980Y210680D01*
X597000Y210660D01*
X597020Y210640D01*
X597030Y210620D01*
X597050Y210600D01*
X597060Y210580D01*
X597080Y210560D01*
X597090Y210530D01*
X597100Y210510D01*
X597110Y210480D01*
Y210460D01*
X597120Y210430D01*
Y210410D01*
X597130Y210380D01*
Y210360D01*
Y210330D01*
Y208830D01*
Y208800D01*
Y208780D01*
X597120Y208750D01*
Y208730D01*
X597110Y208700D01*
Y208680D01*
X597100Y208650D01*
X597090Y208630D01*
X597080Y208600D01*
X597060Y208580D01*
X597050Y208560D01*
X597030Y208540D01*
X597020Y208520D01*
X597000Y208500D01*
X596980Y208480D01*
X596960Y208460D01*
X596940Y208440D01*
X596920Y208430D01*
X596900Y208410D01*
X596880Y208400D01*
X596860Y208380D01*
X596830Y208370D01*
X596810Y208360D01*
X596780Y208350D01*
X596760D01*
X596730Y208340D01*
X596710D01*
X596680Y208330D01*
X591580D01*
X591550Y208340D01*
X591530D01*
X591500Y208350D01*
X591480D01*
X591450Y208360D01*
X591430Y208370D01*
X591400Y208380D01*
X591380Y208400D01*
X591360Y208410D01*
X591340Y208430D01*
X591320Y208440D01*
X591300Y208460D01*
X591280Y208480D01*
X591260Y208500D01*
X591240Y208520D01*
X591230Y208540D01*
X591210Y208560D01*
X591200Y208580D01*
X591180Y208600D01*
X591170Y208630D01*
X591160Y208650D01*
X591150Y208680D01*
Y208700D01*
X591140Y208730D01*
Y208750D01*
X591130Y208780D01*
Y208800D01*
Y208830D01*
Y210330D01*
Y210360D01*
Y210380D01*
X591140Y210410D01*
Y210430D01*
X591150Y210460D01*
Y210480D01*
X591160Y210510D01*
X591170Y210530D01*
X591180Y210560D01*
X591200Y210580D01*
X591210Y210600D01*
X591230Y210620D01*
X591240Y210640D01*
X591260Y210660D01*
X591280Y210680D01*
X591300Y210700D01*
X591320Y210720D01*
X591340Y210730D01*
X591360Y210750D01*
X591380Y210760D01*
X591400Y210780D01*
X591430Y210790D01*
X591450Y210800D01*
X591480Y210810D01*
X591500D01*
X591530Y210820D01*
X591550D01*
X591580Y210830D01*
X596680D01*
X596710Y210820D01*
D02*
G37*
G36*
X594710Y205820D02*
X594730D01*
X594760Y205810D01*
X594780D01*
X594810Y205800D01*
X594830Y205790D01*
X594860Y205780D01*
X594880Y205760D01*
X594900Y205750D01*
X594920Y205730D01*
X594940Y205720D01*
X594960Y205700D01*
X594980Y205680D01*
X595000Y205660D01*
X595020Y205640D01*
X595030Y205620D01*
X595050Y205600D01*
X595060Y205580D01*
X595080Y205560D01*
X595090Y205530D01*
X595100Y205510D01*
X595110Y205480D01*
Y205460D01*
X595120Y205430D01*
Y205410D01*
X595130Y205380D01*
Y205360D01*
Y205330D01*
Y203830D01*
Y203800D01*
Y203780D01*
X595120Y203750D01*
Y203730D01*
X595110Y203700D01*
Y203680D01*
X595100Y203650D01*
X595090Y203630D01*
X595080Y203600D01*
X595060Y203580D01*
X595050Y203560D01*
X595030Y203540D01*
X595020Y203520D01*
X595000Y203500D01*
X594980Y203480D01*
X594960Y203460D01*
X594940Y203440D01*
X594920Y203430D01*
X594900Y203410D01*
X594880Y203400D01*
X594860Y203380D01*
X594830Y203370D01*
X594810Y203360D01*
X594780Y203350D01*
X594760D01*
X594730Y203340D01*
X594710D01*
X594680Y203330D01*
X589580D01*
X589550Y203340D01*
X589530D01*
X589500Y203350D01*
X589480D01*
X589450Y203360D01*
X589430Y203370D01*
X589400Y203380D01*
X589380Y203400D01*
X589360Y203410D01*
X589340Y203430D01*
X589320Y203440D01*
X589300Y203460D01*
X589280Y203480D01*
X589260Y203500D01*
X589240Y203520D01*
X589230Y203540D01*
X589210Y203560D01*
X589200Y203580D01*
X589180Y203600D01*
X589170Y203630D01*
X589160Y203650D01*
X589150Y203680D01*
Y203700D01*
X589140Y203730D01*
Y203750D01*
X589130Y203780D01*
Y203800D01*
Y203830D01*
Y205330D01*
Y205360D01*
Y205380D01*
X589140Y205410D01*
Y205430D01*
X589150Y205460D01*
Y205480D01*
X589160Y205510D01*
X589170Y205530D01*
X589180Y205560D01*
X589200Y205580D01*
X589210Y205600D01*
X589230Y205620D01*
X589240Y205640D01*
X589260Y205660D01*
X589280Y205680D01*
X589300Y205700D01*
X589320Y205720D01*
X589340Y205730D01*
X589360Y205750D01*
X589380Y205760D01*
X589400Y205780D01*
X589430Y205790D01*
X589450Y205800D01*
X589480Y205810D01*
X589500D01*
X589530Y205820D01*
X589550D01*
X589580Y205830D01*
X594680D01*
X594710Y205820D01*
D02*
G37*
G36*
X586710D02*
X586730D01*
X586760Y205810D01*
X586780D01*
X586810Y205800D01*
X586830Y205790D01*
X586860Y205780D01*
X586880Y205760D01*
X586900Y205750D01*
X586920Y205730D01*
X586940Y205720D01*
X586960Y205700D01*
X586980Y205680D01*
X587000Y205660D01*
X587020Y205640D01*
X587030Y205620D01*
X587050Y205600D01*
X587060Y205580D01*
X587080Y205560D01*
X587090Y205530D01*
X587100Y205510D01*
X587110Y205480D01*
Y205460D01*
X587120Y205430D01*
Y205410D01*
X587130Y205380D01*
Y205360D01*
Y205330D01*
Y203830D01*
Y203800D01*
Y203780D01*
X587120Y203750D01*
Y203730D01*
X587110Y203700D01*
Y203680D01*
X587100Y203650D01*
X587090Y203630D01*
X587080Y203600D01*
X587060Y203580D01*
X587050Y203560D01*
X587030Y203540D01*
X587020Y203520D01*
X587000Y203500D01*
X586980Y203480D01*
X586960Y203460D01*
X586940Y203440D01*
X586920Y203430D01*
X586900Y203410D01*
X586880Y203400D01*
X586860Y203380D01*
X586830Y203370D01*
X586810Y203360D01*
X586780Y203350D01*
X586760D01*
X586730Y203340D01*
X586710D01*
X586680Y203330D01*
X581580D01*
X581550Y203340D01*
X581530D01*
X581500Y203350D01*
X581480D01*
X581450Y203360D01*
X581430Y203370D01*
X581400Y203380D01*
X581380Y203400D01*
X581360Y203410D01*
X581340Y203430D01*
X581320Y203440D01*
X581300Y203460D01*
X581280Y203480D01*
X581260Y203500D01*
X581240Y203520D01*
X581230Y203540D01*
X581210Y203560D01*
X581200Y203580D01*
X581180Y203600D01*
X581170Y203630D01*
X581160Y203650D01*
X581150Y203680D01*
Y203700D01*
X581140Y203730D01*
Y203750D01*
X581130Y203780D01*
Y203800D01*
Y203830D01*
Y205330D01*
Y205360D01*
Y205380D01*
X581140Y205410D01*
Y205430D01*
X581150Y205460D01*
Y205480D01*
X581160Y205510D01*
X581170Y205530D01*
X581180Y205560D01*
X581200Y205580D01*
X581210Y205600D01*
X581230Y205620D01*
X581240Y205640D01*
X581260Y205660D01*
X581280Y205680D01*
X581300Y205700D01*
X581320Y205720D01*
X581340Y205730D01*
X581360Y205750D01*
X581380Y205760D01*
X581400Y205780D01*
X581430Y205790D01*
X581450Y205800D01*
X581480Y205810D01*
X581500D01*
X581530Y205820D01*
X581550D01*
X581580Y205830D01*
X586680D01*
X586710Y205820D01*
D02*
G37*
G36*
X601460Y198570D02*
X601480D01*
X601510Y198560D01*
X601530D01*
X601560Y198550D01*
X601580Y198540D01*
X601610Y198530D01*
X601630Y198510D01*
X601650Y198500D01*
X601670Y198480D01*
X601690Y198470D01*
X601710Y198450D01*
X601730Y198430D01*
X601750Y198410D01*
X601770Y198390D01*
X601780Y198370D01*
X601800Y198350D01*
X601810Y198330D01*
X601830Y198310D01*
X601840Y198280D01*
X601850Y198260D01*
X601860Y198230D01*
Y198210D01*
X601870Y198180D01*
Y198160D01*
X601880Y198130D01*
Y198110D01*
Y198080D01*
Y193080D01*
Y193050D01*
Y193030D01*
X601870Y193000D01*
Y192980D01*
X601860Y192950D01*
Y192930D01*
X601850Y192900D01*
X601840Y192880D01*
X601830Y192850D01*
X601810Y192830D01*
X601800Y192810D01*
X601780Y192790D01*
X601770Y192770D01*
X601750Y192750D01*
X601730Y192730D01*
X601710Y192710D01*
X601690Y192690D01*
X601670Y192680D01*
X601650Y192660D01*
X601630Y192650D01*
X601610Y192630D01*
X601580Y192620D01*
X601560Y192610D01*
X601530Y192600D01*
X601510D01*
X601480Y192590D01*
X601460D01*
X601430Y192580D01*
X599830D01*
X599800Y192590D01*
X599780D01*
X599750Y192600D01*
X599730D01*
X599700Y192610D01*
X599680Y192620D01*
X599650Y192630D01*
X599630Y192650D01*
X599610Y192660D01*
X599590Y192680D01*
X599570Y192690D01*
X599550Y192710D01*
X599530Y192730D01*
X599510Y192750D01*
X599490Y192770D01*
X599480Y192790D01*
X599460Y192810D01*
X599450Y192830D01*
X599430Y192850D01*
X599420Y192880D01*
X599410Y192900D01*
X599400Y192930D01*
Y192950D01*
X599390Y192980D01*
Y193000D01*
X599380Y193030D01*
Y193050D01*
Y193080D01*
Y198080D01*
Y198110D01*
Y198130D01*
X599390Y198160D01*
Y198180D01*
X599400Y198210D01*
Y198230D01*
X599410Y198260D01*
X599420Y198280D01*
X599430Y198310D01*
X599450Y198330D01*
X599460Y198350D01*
X599480Y198370D01*
X599490Y198390D01*
X599510Y198410D01*
X599530Y198430D01*
X599550Y198450D01*
X599570Y198470D01*
X599590Y198480D01*
X599610Y198500D01*
X599630Y198510D01*
X599650Y198530D01*
X599680Y198540D01*
X599700Y198550D01*
X599730Y198560D01*
X599750D01*
X599780Y198570D01*
X599800D01*
X599830Y198580D01*
X601430D01*
X601460Y198570D01*
D02*
G37*
G36*
X596460D02*
X596480D01*
X596510Y198560D01*
X596530D01*
X596560Y198550D01*
X596580Y198540D01*
X596610Y198530D01*
X596630Y198510D01*
X596650Y198500D01*
X596670Y198480D01*
X596690Y198470D01*
X596710Y198450D01*
X596730Y198430D01*
X596750Y198410D01*
X596770Y198390D01*
X596780Y198370D01*
X596800Y198350D01*
X596810Y198330D01*
X596830Y198310D01*
X596840Y198280D01*
X596850Y198260D01*
X596860Y198230D01*
Y198210D01*
X596870Y198180D01*
Y198160D01*
X596880Y198130D01*
Y198110D01*
Y198080D01*
Y193080D01*
Y193050D01*
Y193030D01*
X596870Y193000D01*
Y192980D01*
X596860Y192950D01*
Y192930D01*
X596850Y192900D01*
X596840Y192880D01*
X596830Y192850D01*
X596810Y192830D01*
X596800Y192810D01*
X596780Y192790D01*
X596770Y192770D01*
X596750Y192750D01*
X596730Y192730D01*
X596710Y192710D01*
X596690Y192690D01*
X596670Y192680D01*
X596650Y192660D01*
X596630Y192650D01*
X596610Y192630D01*
X596580Y192620D01*
X596560Y192610D01*
X596530Y192600D01*
X596510D01*
X596480Y192590D01*
X596460D01*
X596430Y192580D01*
X594830D01*
X594800Y192590D01*
X594780D01*
X594750Y192600D01*
X594730D01*
X594700Y192610D01*
X594680Y192620D01*
X594650Y192630D01*
X594630Y192650D01*
X594610Y192660D01*
X594590Y192680D01*
X594570Y192690D01*
X594550Y192710D01*
X594530Y192730D01*
X594510Y192750D01*
X594490Y192770D01*
X594480Y192790D01*
X594460Y192810D01*
X594450Y192830D01*
X594430Y192850D01*
X594420Y192880D01*
X594410Y192900D01*
X594400Y192930D01*
Y192950D01*
X594390Y192980D01*
Y193000D01*
X594380Y193030D01*
Y193050D01*
Y193080D01*
Y198080D01*
Y198110D01*
Y198130D01*
X594390Y198160D01*
Y198180D01*
X594400Y198210D01*
Y198230D01*
X594410Y198260D01*
X594420Y198280D01*
X594430Y198310D01*
X594450Y198330D01*
X594460Y198350D01*
X594480Y198370D01*
X594490Y198390D01*
X594510Y198410D01*
X594530Y198430D01*
X594550Y198450D01*
X594570Y198470D01*
X594590Y198480D01*
X594610Y198500D01*
X594630Y198510D01*
X594650Y198530D01*
X594680Y198540D01*
X594700Y198550D01*
X594730Y198560D01*
X594750D01*
X594780Y198570D01*
X594800D01*
X594830Y198580D01*
X596430D01*
X596460Y198570D01*
D02*
G37*
G36*
X591460D02*
X591480D01*
X591510Y198560D01*
X591530D01*
X591560Y198550D01*
X591580Y198540D01*
X591610Y198530D01*
X591630Y198510D01*
X591650Y198500D01*
X591670Y198480D01*
X591690Y198470D01*
X591710Y198450D01*
X591730Y198430D01*
X591750Y198410D01*
X591770Y198390D01*
X591780Y198370D01*
X591800Y198350D01*
X591810Y198330D01*
X591830Y198310D01*
X591840Y198280D01*
X591850Y198260D01*
X591860Y198230D01*
Y198210D01*
X591870Y198180D01*
Y198160D01*
X591880Y198130D01*
Y198110D01*
Y198080D01*
Y193080D01*
Y193050D01*
Y193030D01*
X591870Y193000D01*
Y192980D01*
X591860Y192950D01*
Y192930D01*
X591850Y192900D01*
X591840Y192880D01*
X591830Y192850D01*
X591810Y192830D01*
X591800Y192810D01*
X591780Y192790D01*
X591770Y192770D01*
X591750Y192750D01*
X591730Y192730D01*
X591710Y192710D01*
X591690Y192690D01*
X591670Y192680D01*
X591650Y192660D01*
X591630Y192650D01*
X591610Y192630D01*
X591580Y192620D01*
X591560Y192610D01*
X591530Y192600D01*
X591510D01*
X591480Y192590D01*
X591460D01*
X591430Y192580D01*
X589830D01*
X589800Y192590D01*
X589780D01*
X589750Y192600D01*
X589730D01*
X589700Y192610D01*
X589680Y192620D01*
X589650Y192630D01*
X589630Y192650D01*
X589610Y192660D01*
X589590Y192680D01*
X589570Y192690D01*
X589550Y192710D01*
X589530Y192730D01*
X589510Y192750D01*
X589490Y192770D01*
X589480Y192790D01*
X589460Y192810D01*
X589450Y192830D01*
X589430Y192850D01*
X589420Y192880D01*
X589410Y192900D01*
X589400Y192930D01*
Y192950D01*
X589390Y192980D01*
Y193000D01*
X589380Y193030D01*
Y193050D01*
Y193080D01*
Y198080D01*
Y198110D01*
Y198130D01*
X589390Y198160D01*
Y198180D01*
X589400Y198210D01*
Y198230D01*
X589410Y198260D01*
X589420Y198280D01*
X589430Y198310D01*
X589450Y198330D01*
X589460Y198350D01*
X589480Y198370D01*
X589490Y198390D01*
X589510Y198410D01*
X589530Y198430D01*
X589550Y198450D01*
X589570Y198470D01*
X589590Y198480D01*
X589610Y198500D01*
X589630Y198510D01*
X589650Y198530D01*
X589680Y198540D01*
X589700Y198550D01*
X589730Y198560D01*
X589750D01*
X589780Y198570D01*
X589800D01*
X589830Y198580D01*
X591430D01*
X591460Y198570D01*
D02*
G37*
G36*
X586460D02*
X586480D01*
X586510Y198560D01*
X586530D01*
X586560Y198550D01*
X586580Y198540D01*
X586610Y198530D01*
X586630Y198510D01*
X586650Y198500D01*
X586670Y198480D01*
X586690Y198470D01*
X586710Y198450D01*
X586730Y198430D01*
X586750Y198410D01*
X586770Y198390D01*
X586780Y198370D01*
X586800Y198350D01*
X586810Y198330D01*
X586830Y198310D01*
X586840Y198280D01*
X586850Y198260D01*
X586860Y198230D01*
Y198210D01*
X586870Y198180D01*
Y198160D01*
X586880Y198130D01*
Y198110D01*
Y198080D01*
Y193080D01*
Y193050D01*
Y193030D01*
X586870Y193000D01*
Y192980D01*
X586860Y192950D01*
Y192930D01*
X586850Y192900D01*
X586840Y192880D01*
X586830Y192850D01*
X586810Y192830D01*
X586800Y192810D01*
X586780Y192790D01*
X586770Y192770D01*
X586750Y192750D01*
X586730Y192730D01*
X586710Y192710D01*
X586690Y192690D01*
X586670Y192680D01*
X586650Y192660D01*
X586630Y192650D01*
X586610Y192630D01*
X586580Y192620D01*
X586560Y192610D01*
X586530Y192600D01*
X586510D01*
X586480Y192590D01*
X586460D01*
X586430Y192580D01*
X584830D01*
X584800Y192590D01*
X584780D01*
X584750Y192600D01*
X584730D01*
X584700Y192610D01*
X584680Y192620D01*
X584650Y192630D01*
X584630Y192650D01*
X584610Y192660D01*
X584590Y192680D01*
X584570Y192690D01*
X584550Y192710D01*
X584530Y192730D01*
X584510Y192750D01*
X584490Y192770D01*
X584480Y192790D01*
X584460Y192810D01*
X584450Y192830D01*
X584430Y192850D01*
X584420Y192880D01*
X584410Y192900D01*
X584400Y192930D01*
Y192950D01*
X584390Y192980D01*
Y193000D01*
X584380Y193030D01*
Y193050D01*
Y193080D01*
Y198080D01*
Y198110D01*
Y198130D01*
X584390Y198160D01*
Y198180D01*
X584400Y198210D01*
Y198230D01*
X584410Y198260D01*
X584420Y198280D01*
X584430Y198310D01*
X584450Y198330D01*
X584460Y198350D01*
X584480Y198370D01*
X584490Y198390D01*
X584510Y198410D01*
X584530Y198430D01*
X584550Y198450D01*
X584570Y198470D01*
X584590Y198480D01*
X584610Y198500D01*
X584630Y198510D01*
X584650Y198530D01*
X584680Y198540D01*
X584700Y198550D01*
X584730Y198560D01*
X584750D01*
X584780Y198570D01*
X584800D01*
X584830Y198580D01*
X586430D01*
X586460Y198570D01*
D02*
G37*
G36*
X1166233Y151394D02*
X1166374Y151253D01*
X1166450Y151069D01*
Y150970D01*
Y133510D01*
Y133411D01*
X1166374Y133227D01*
X1166233Y133086D01*
X1166049Y133010D01*
X1145350D01*
X1145167Y133086D01*
X1145026Y133227D01*
X1144950Y133411D01*
Y133510D01*
Y150970D01*
Y151069D01*
X1145026Y151253D01*
X1145167Y151394D01*
X1145350Y151470D01*
X1166049D01*
X1166233Y151394D01*
D02*
G37*
G36*
X690910Y123780D02*
X689810D01*
X688310Y125280D01*
Y127680D01*
X690910D01*
Y123780D01*
D02*
G37*
G36*
X684410Y125280D02*
X682910Y123780D01*
X681810D01*
Y127680D01*
X684410D01*
Y125280D01*
D02*
G37*
G36*
X690910Y115680D02*
X688310D01*
Y118080D01*
X689810Y119580D01*
X690910D01*
Y115680D01*
D02*
G37*
G36*
X684410Y118080D02*
Y115680D01*
X681810D01*
Y119580D01*
X682910D01*
X684410Y118080D01*
D02*
G37*
G36*
X796470Y80460D02*
X795370D01*
X793870Y81960D01*
Y84360D01*
X796470D01*
Y80460D01*
D02*
G37*
G36*
X789970Y81960D02*
X788470Y80460D01*
X787370D01*
Y84360D01*
X789970D01*
Y81960D01*
D02*
G37*
G36*
X796470Y72360D02*
X793870D01*
Y74760D01*
X795370Y76260D01*
X796470D01*
Y72360D01*
D02*
G37*
G36*
X789970Y74760D02*
Y72360D01*
X787370D01*
Y76260D01*
X788470D01*
X789970Y74760D01*
D02*
G37*
D18*
X331380Y165100D02*
D03*
X339180D02*
D03*
X444410Y241300D02*
D03*
X452210D02*
D03*
X484960Y43180D02*
D03*
X492760D02*
D03*
X789940Y46990D02*
D03*
X797740D02*
D03*
X826590Y49530D02*
D03*
X834390D02*
D03*
X693330Y41910D02*
D03*
X701130D02*
D03*
D19*
X245930Y74200D02*
D03*
Y79200D02*
D03*
Y84200D02*
D03*
Y89200D02*
D03*
X274930D02*
D03*
Y84200D02*
D03*
Y79200D02*
D03*
Y74200D02*
D03*
X173380Y180880D02*
D03*
Y185880D02*
D03*
Y190880D02*
D03*
Y195880D02*
D03*
X202380D02*
D03*
Y190880D02*
D03*
Y185880D02*
D03*
Y180880D02*
D03*
X720830Y88600D02*
D03*
Y93600D02*
D03*
Y98600D02*
D03*
Y103600D02*
D03*
X749830D02*
D03*
Y98600D02*
D03*
Y93600D02*
D03*
Y88600D02*
D03*
X920140Y132620D02*
D03*
Y137620D02*
D03*
Y142620D02*
D03*
Y147620D02*
D03*
X949140D02*
D03*
Y142620D02*
D03*
Y137620D02*
D03*
Y132620D02*
D03*
D20*
X255430Y91200D02*
D03*
X182880Y197880D02*
D03*
X730330Y105600D02*
D03*
X929640Y149620D02*
D03*
D21*
X260430Y87200D02*
D03*
X265430Y76200D02*
D03*
X255430D02*
D03*
X187880Y193880D02*
D03*
X192880Y182880D02*
D03*
X182880D02*
D03*
X735330Y101600D02*
D03*
X740330Y90600D02*
D03*
X730330D02*
D03*
X934640Y145620D02*
D03*
X939640Y134620D02*
D03*
X929640D02*
D03*
D22*
X896620Y83260D02*
D03*
Y76760D02*
D03*
X1195070Y196290D02*
D03*
Y189790D02*
D03*
D23*
X619760Y75640D02*
D03*
Y69140D02*
D03*
X610870Y266700D02*
D03*
Y260200D02*
D03*
X248920Y202640D02*
D03*
Y196140D02*
D03*
X1381760Y338940D02*
D03*
Y345440D02*
D03*
X1198880Y119230D02*
D03*
Y125730D02*
D03*
X863600Y322430D02*
D03*
Y328930D02*
D03*
X918210Y363070D02*
D03*
Y369570D02*
D03*
X1032510Y212090D02*
D03*
Y205590D02*
D03*
X1395730Y314400D02*
D03*
Y307900D02*
D03*
X1206500Y174700D02*
D03*
Y168200D02*
D03*
X154940Y63650D02*
D03*
Y57150D02*
D03*
X1116330Y85800D02*
D03*
Y79300D02*
D03*
D24*
X641350Y96520D02*
D03*
Y91434D02*
D03*
X1188720Y151133D02*
D03*
Y146047D02*
D03*
X1413510Y255273D02*
D03*
Y250187D02*
D03*
X1207770Y82550D02*
D03*
Y77464D02*
D03*
X751840Y49533D02*
D03*
Y44447D02*
D03*
X913130Y326393D02*
D03*
Y321307D02*
D03*
X534670Y194313D02*
D03*
Y189227D02*
D03*
X873760Y91440D02*
D03*
Y86354D02*
D03*
X193040Y60966D02*
D03*
Y55880D02*
D03*
D25*
X381000Y88070D02*
D03*
X393700D02*
D03*
X406400D02*
D03*
X419100D02*
D03*
X381000Y153670D02*
D03*
X393700D02*
D03*
X406400D02*
D03*
X419100D02*
D03*
X934720Y278350D02*
D03*
X947420D02*
D03*
X960120D02*
D03*
X972820D02*
D03*
X934720Y343950D02*
D03*
X947420D02*
D03*
X960120D02*
D03*
X972820D02*
D03*
X668020Y269460D02*
D03*
X680720D02*
D03*
X693420D02*
D03*
X706120D02*
D03*
X668020Y335060D02*
D03*
X680720D02*
D03*
X693420D02*
D03*
X706120D02*
D03*
X388620Y265650D02*
D03*
X401320D02*
D03*
X414020D02*
D03*
X426720D02*
D03*
X388620Y331250D02*
D03*
X401320D02*
D03*
X414020D02*
D03*
X426720D02*
D03*
D26*
X400050Y120870D02*
D03*
X953770Y311150D02*
D03*
X687070Y302260D02*
D03*
X407670Y298450D02*
D03*
D27*
X470535Y134620D02*
D03*
X454025D02*
D03*
X321945Y205740D02*
D03*
X305435D02*
D03*
X348615Y243840D02*
D03*
X332105D02*
D03*
X450850Y48260D02*
D03*
X434341D02*
D03*
X113029Y118110D02*
D03*
X96520D02*
D03*
X1370965Y72390D02*
D03*
X1354455D02*
D03*
X1002665Y347980D02*
D03*
X1019175D02*
D03*
X1058545Y195580D02*
D03*
X1075055D02*
D03*
D28*
X843280Y276860D02*
D03*
X784860D02*
D03*
X1366520Y279400D02*
D03*
X1308100D02*
D03*
X1098550Y143510D02*
D03*
X1040130D02*
D03*
X293370Y147320D02*
D03*
X234950D02*
D03*
X572770Y139700D02*
D03*
X514350D02*
D03*
X574040Y279400D02*
D03*
X515620D02*
D03*
X1367790Y143510D02*
D03*
X1309370D02*
D03*
X1101090Y276860D02*
D03*
X1042670D02*
D03*
X295910Y279400D02*
D03*
X237490D02*
D03*
X845820Y143510D02*
D03*
X787400D02*
D03*
D29*
X275590Y205830D02*
D03*
Y198030D02*
D03*
X218440Y218440D02*
D03*
Y210640D02*
D03*
X736600Y235130D02*
D03*
Y227330D02*
D03*
X1191260Y91530D02*
D03*
Y83730D02*
D03*
X1226820Y165190D02*
D03*
Y157390D02*
D03*
X1419860Y138520D02*
D03*
Y130720D02*
D03*
X350520Y96610D02*
D03*
Y88810D02*
D03*
X525780Y78830D02*
D03*
Y71030D02*
D03*
X1225550Y331650D02*
D03*
Y323850D02*
D03*
X1000760Y300990D02*
D03*
Y293190D02*
D03*
X1007110Y129540D02*
D03*
Y121740D02*
D03*
X308610Y331470D02*
D03*
Y323670D02*
D03*
X327660Y285840D02*
D03*
Y278040D02*
D03*
X660400Y82640D02*
D03*
Y74840D02*
D03*
D30*
X204470Y290180D02*
D03*
Y304180D02*
D03*
X173990Y299720D02*
D03*
Y313720D02*
D03*
X857250Y194280D02*
D03*
Y208280D02*
D03*
X753110Y125080D02*
D03*
Y139080D02*
D03*
X715010Y186690D02*
D03*
Y200690D02*
D03*
D31*
X358140Y280670D02*
D03*
X686360Y121680D02*
D03*
X791920Y78360D02*
D03*
D32*
X354890Y284720D02*
D03*
X361390D02*
D03*
X683110Y125730D02*
D03*
X689610D02*
D03*
X788670Y82410D02*
D03*
X795170D02*
D03*
D33*
X361390Y275970D02*
D03*
X354890D02*
D03*
X689610Y116980D02*
D03*
X683110D02*
D03*
X795170Y73660D02*
D03*
X788670D02*
D03*
D34*
X126515Y219150D02*
D03*
Y206150D02*
D03*
X145265D02*
D03*
X126515Y212650D02*
D03*
X145265D02*
D03*
Y219150D02*
D03*
X586255Y82700D02*
D03*
Y69700D02*
D03*
X605005D02*
D03*
X586255Y76200D02*
D03*
X605005D02*
D03*
Y82700D02*
D03*
D35*
X135890Y206150D02*
D03*
X595630Y69700D02*
D03*
D36*
X135890Y215900D02*
D03*
X595630Y79450D02*
D03*
D37*
X971520Y222250D02*
D03*
X985520D02*
D03*
D38*
X741680Y183616D02*
D03*
Y176530D02*
D03*
X1123950Y142240D02*
D03*
Y135154D02*
D03*
X1220470Y356870D02*
D03*
Y349784D02*
D03*
X1097280Y343903D02*
D03*
Y336817D02*
D03*
X426720Y359143D02*
D03*
Y352057D02*
D03*
X1163320Y284480D02*
D03*
Y277394D02*
D03*
X334010Y129273D02*
D03*
Y122187D02*
D03*
X455930Y345173D02*
D03*
Y338087D02*
D03*
X480060Y165100D02*
D03*
Y158014D02*
D03*
X648970Y365493D02*
D03*
Y358407D02*
D03*
X661670Y163563D02*
D03*
Y156477D02*
D03*
D39*
X896620Y196980D02*
D03*
Y181480D02*
D03*
X252730Y343030D02*
D03*
Y327530D02*
D03*
X118110Y280800D02*
D03*
Y265300D02*
D03*
X685800Y172720D02*
D03*
Y157220D02*
D03*
X450850Y99320D02*
D03*
Y83820D02*
D03*
D40*
X980440Y155340D02*
D03*
Y141840D02*
D03*
X1243330Y306470D02*
D03*
Y292970D02*
D03*
X147320Y312420D02*
D03*
Y298920D02*
D03*
X91440Y236620D02*
D03*
Y223120D02*
D03*
X810260Y356400D02*
D03*
Y342900D02*
D03*
X1290320Y215030D02*
D03*
Y201530D02*
D03*
X113030Y75330D02*
D03*
Y61830D02*
D03*
X356870Y312020D02*
D03*
Y325520D02*
D03*
D41*
X815470Y200660D02*
D03*
X799970D02*
D03*
X903100Y356870D02*
D03*
X887600D02*
D03*
X786390Y347980D02*
D03*
X770890D02*
D03*
X844680Y81280D02*
D03*
X829180D02*
D03*
X764410Y209550D02*
D03*
X779910D02*
D03*
X696090Y220980D02*
D03*
X680590D02*
D03*
X637670Y185420D02*
D03*
X622170D02*
D03*
D42*
X657860Y205740D02*
D03*
Y195240D02*
D03*
X1012190Y85090D02*
D03*
Y74590D02*
D03*
X1183640Y360850D02*
D03*
Y350350D02*
D03*
X1187450Y316400D02*
D03*
Y305900D02*
D03*
X1186180Y240200D02*
D03*
Y229700D02*
D03*
X1140460Y322750D02*
D03*
Y312250D02*
D03*
X610870Y123360D02*
D03*
Y112860D02*
D03*
X392430Y190670D02*
D03*
Y180170D02*
D03*
X513080Y222420D02*
D03*
Y211920D02*
D03*
D43*
X650240Y239470D02*
D03*
Y232970D02*
D03*
X1393190Y240180D02*
D03*
Y233680D02*
D03*
X1139190Y75640D02*
D03*
Y69140D02*
D03*
X1172210Y76910D02*
D03*
Y70410D02*
D03*
X889000Y139700D02*
D03*
Y133200D02*
D03*
X759460Y248920D02*
D03*
Y242420D02*
D03*
D44*
X980440Y92710D02*
D03*
Y77710D02*
D03*
X411480Y222130D02*
D03*
Y207130D02*
D03*
X359410Y203080D02*
D03*
Y188080D02*
D03*
D45*
X1014730Y264070D02*
D03*
Y271870D02*
D03*
X1209040Y214540D02*
D03*
Y222340D02*
D03*
X309880Y77380D02*
D03*
Y85180D02*
D03*
D46*
X868680Y143510D02*
D03*
Y149010D02*
D03*
X1220470Y112820D02*
D03*
Y118320D02*
D03*
X1234440Y201930D02*
D03*
Y196430D02*
D03*
X283210Y329780D02*
D03*
Y335280D02*
D03*
X553720Y218230D02*
D03*
Y223730D02*
D03*
D47*
X687980Y69850D02*
D03*
X706480D02*
D03*
D48*
X1273810Y292160D02*
D03*
Y299660D02*
D03*
X1300480Y341690D02*
D03*
Y349190D02*
D03*
X1405890Y208340D02*
D03*
Y215840D02*
D03*
X1362710Y340480D02*
D03*
Y347980D02*
D03*
X508000Y344230D02*
D03*
Y351730D02*
D03*
X402590Y353120D02*
D03*
Y360620D02*
D03*
X704850Y358200D02*
D03*
Y365700D02*
D03*
X580390Y332800D02*
D03*
Y340300D02*
D03*
D49*
X1276350Y345440D02*
D03*
Y339440D02*
D03*
X330200Y322580D02*
D03*
Y316580D02*
D03*
X560070Y338740D02*
D03*
Y332740D02*
D03*
D50*
X1250950Y348870D02*
D03*
Y356870D02*
D03*
X88900Y68390D02*
D03*
Y76390D02*
D03*
X1424940Y172530D02*
D03*
Y180530D02*
D03*
X1391920Y266510D02*
D03*
Y274510D02*
D03*
D51*
X1252220Y141875D02*
D03*
Y127365D02*
D03*
X1247140Y89439D02*
D03*
Y74930D02*
D03*
X121920Y326025D02*
D03*
Y311515D02*
D03*
X92710Y301895D02*
D03*
Y287385D02*
D03*
X1127760Y370840D02*
D03*
Y356330D02*
D03*
X1400810Y170180D02*
D03*
Y155670D02*
D03*
X1398270Y108855D02*
D03*
Y94345D02*
D03*
X194310Y248555D02*
D03*
Y234045D02*
D03*
X146050Y266335D02*
D03*
Y251825D02*
D03*
D52*
X1322435Y205740D02*
D03*
X1336945D02*
D03*
X1321705Y74930D02*
D03*
X1307195D02*
D03*
X1137381Y245110D02*
D03*
X1151890D02*
D03*
X938895Y77470D02*
D03*
X953405D02*
D03*
X1109441Y199390D02*
D03*
X1123950D02*
D03*
X1061720Y72390D02*
D03*
X1047210D02*
D03*
X897890Y299720D02*
D03*
X883381D02*
D03*
D53*
X115570Y170870D02*
D03*
Y161870D02*
D03*
X88900Y178490D02*
D03*
Y169490D02*
D03*
X480060Y344860D02*
D03*
Y335860D02*
D03*
X1281430Y95250D02*
D03*
Y86250D02*
D03*
X1273810Y132770D02*
D03*
Y123770D02*
D03*
X1275080Y172140D02*
D03*
Y163140D02*
D03*
X1207770Y290250D02*
D03*
Y281250D02*
D03*
X561340Y194310D02*
D03*
Y185310D02*
D03*
D54*
X1178440Y196850D02*
D03*
X1163440D02*
D03*
X620790Y344170D02*
D03*
X605790D02*
D03*
X445650Y182880D02*
D03*
X430650D02*
D03*
D55*
X1096010Y85450D02*
D03*
Y66950D02*
D03*
X744220Y296630D02*
D03*
Y278130D02*
D03*
X834390Y353780D02*
D03*
Y335280D02*
D03*
D56*
X641230Y40640D02*
D03*
X633730D02*
D03*
X574100Y41910D02*
D03*
X581600D02*
D03*
X737810Y372110D02*
D03*
X730310D02*
D03*
X869890Y53340D02*
D03*
X862390D02*
D03*
D57*
X527510Y45720D02*
D03*
X521510D02*
D03*
D58*
X741680Y343490D02*
D03*
Y334690D02*
D03*
D59*
X464820Y292100D02*
D03*
D60*
X462820Y301800D02*
D03*
X466820D02*
D03*
Y282400D02*
D03*
X462820D02*
D03*
D61*
X474520Y298100D02*
D03*
Y294100D02*
D03*
Y290100D02*
D03*
Y286100D02*
D03*
X455120D02*
D03*
Y290100D02*
D03*
Y294100D02*
D03*
Y298100D02*
D03*
D62*
X694423Y374650D02*
D03*
X687337D02*
D03*
X454393Y209550D02*
D03*
X447307D02*
D03*
D63*
X535940Y343930D02*
D03*
Y328930D02*
D03*
D64*
X1337710Y340360D02*
D03*
X1324210D02*
D03*
X484740Y80010D02*
D03*
X498240D02*
D03*
X932580Y241300D02*
D03*
X919080D02*
D03*
X647700Y135890D02*
D03*
X634200D02*
D03*
X620160Y300990D02*
D03*
X606660D02*
D03*
X498240Y203200D02*
D03*
X484740D02*
D03*
X994410Y247650D02*
D03*
X1007910D02*
D03*
D65*
X1365100Y203200D02*
D03*
X1378100D02*
D03*
X636420Y222250D02*
D03*
X623420D02*
D03*
D66*
X1145950Y164240D02*
D03*
X1152450D02*
D03*
X1158950D02*
D03*
X1165450D02*
D03*
Y120240D02*
D03*
X1158950D02*
D03*
X1152450D02*
D03*
X1145950D02*
D03*
D67*
X1259840Y204480D02*
D03*
Y186580D02*
D03*
X1240790Y257930D02*
D03*
Y240030D02*
D03*
X1268730Y256550D02*
D03*
Y238650D02*
D03*
D68*
X146050Y120015D02*
D03*
Y103505D02*
D03*
X189230Y126365D02*
D03*
Y109855D02*
D03*
X944880Y207645D02*
D03*
Y191135D02*
D03*
X891540Y259715D02*
D03*
Y243205D02*
D03*
D69*
X481420Y231140D02*
D03*
X473620D02*
D03*
D70*
X386270Y219710D02*
D03*
X378270D02*
D03*
X1065720Y339090D02*
D03*
X1057720D02*
D03*
D71*
X150200Y166370D02*
D03*
X139700D02*
D03*
D72*
X718820Y144780D02*
D03*
X725320D02*
D03*
X535230Y223520D02*
D03*
X541730D02*
D03*
X393850Y50800D02*
D03*
X387350D02*
D03*
X363370Y134620D02*
D03*
X356870D02*
D03*
D73*
X612143Y154940D02*
D03*
X607057D02*
D03*
D74*
X635210Y255270D02*
D03*
X629710D02*
D03*
X488950Y257810D02*
D03*
X483450D02*
D03*
X360470Y55880D02*
D03*
X365970D02*
D03*
D75*
X1013220Y193040D02*
D03*
X998220D02*
D03*
D76*
X285040Y43180D02*
D03*
X291540D02*
D03*
D77*
X231140Y44450D02*
D03*
X237640D02*
D03*
D78*
X30550Y121810D02*
D03*
Y126810D02*
D03*
Y131810D02*
D03*
Y136810D02*
D03*
Y141810D02*
D03*
Y146810D02*
D03*
Y151810D02*
D03*
Y156810D02*
D03*
Y161810D02*
D03*
Y166810D02*
D03*
Y171810D02*
D03*
Y176810D02*
D03*
Y181810D02*
D03*
Y186810D02*
D03*
Y191810D02*
D03*
Y196810D02*
D03*
Y201810D02*
D03*
Y206810D02*
D03*
Y211810D02*
D03*
Y216810D02*
D03*
Y221810D02*
D03*
Y226810D02*
D03*
Y231810D02*
D03*
Y236810D02*
D03*
Y241810D02*
D03*
Y246810D02*
D03*
Y251810D02*
D03*
Y256810D02*
D03*
Y261810D02*
D03*
Y266810D02*
D03*
D79*
X5550Y111810D02*
D03*
Y276810D02*
D03*
D80*
X330760Y51585D02*
D03*
X343760D02*
D03*
Y70335D02*
D03*
X337260Y51585D02*
D03*
Y70335D02*
D03*
X330760D02*
D03*
D81*
X343760Y60960D02*
D03*
D82*
X334010D02*
D03*
M02*
