G04*
G04 #@! TF.GenerationSoftware,Altium Limited,Altium Designer,26.7.1 (11)*
G04*
G04 Layer_Color=32896*
G04 Board_Origin=26771654|24803150*
%FSLAX44Y44*%
%MOMM*%
G71*
G04*
G04 #@! TF.SameCoordinates,D9171914-07D6-4B2F-AF4B-0BE730A3B9D6*
G04*
G04*
G04 #@! TF.FilePolarity,Positive*
G04*
G01*
G75*
%ADD10C,0.2500*%
%ADD12C,0.2000*%
%ADD17C,0.1500*%
%ADD18C,0.0100*%
D10*
X538664Y503492D02*
G03*
X538664Y503492I-1250J0D01*
G01*
X1101664Y394742D02*
G03*
X1101664Y394742I-1250J0D01*
G01*
D12*
X328100Y340721D02*
Y353349D01*
X340727Y340721D02*
Y353349D01*
X678100Y313635D02*
Y326263D01*
X690728Y313635D02*
Y326263D01*
X639764Y365178D02*
Y373805D01*
X651064Y365178D02*
Y373805D01*
X618764Y441721D02*
Y450349D01*
X630064Y441721D02*
Y450349D01*
X670764Y414721D02*
Y423349D01*
X682064Y414721D02*
Y423349D01*
X568100Y473635D02*
Y486262D01*
X580728Y473635D02*
Y486262D01*
X395764Y377205D02*
Y385832D01*
X407064Y377205D02*
Y385832D01*
X241273Y355992D02*
X255335D01*
X241273Y370992D02*
X255335D01*
X221644Y297178D02*
X234271D01*
X221644Y309806D02*
X234271D01*
X660100Y297842D02*
X668728D01*
X660100Y309142D02*
X668728D01*
X732143Y407678D02*
X742771D01*
X732143Y419305D02*
X742771D01*
X908397Y397975D02*
Y409009D01*
X920431Y397975D02*
Y409009D01*
X668764Y489178D02*
Y497806D01*
X680064Y489178D02*
Y497806D01*
X598764Y429179D02*
Y437806D01*
X610064Y429179D02*
Y437806D01*
X1168100Y430721D02*
Y443349D01*
X1180728Y430721D02*
Y443349D01*
X1168764Y399179D02*
Y407806D01*
X1180064Y399179D02*
Y407806D01*
X910100Y447842D02*
X918728D01*
X910100Y459142D02*
X918728D01*
X484557Y467178D02*
X497185D01*
X484557Y479806D02*
X497185D01*
X631643Y499806D02*
X644271D01*
X631643Y487178D02*
X644271D01*
X701100Y473178D02*
X713727D01*
X701100Y485806D02*
X713727D01*
X868101Y329805D02*
X880728D01*
X868101Y317178D02*
X880728D01*
X438897Y467475D02*
X449931D01*
X438897Y479509D02*
X449931D01*
X398100Y410721D02*
Y423349D01*
X410728Y410721D02*
Y423349D01*
X324557Y437178D02*
X337185D01*
X324557Y449806D02*
X337185D01*
X1122644Y357842D02*
X1131271D01*
X1122644Y369142D02*
X1131271D01*
X524014Y508742D02*
X530314D01*
X524014Y498242D02*
X530314D01*
X419014Y442717D02*
Y449017D01*
X429814Y442717D02*
Y449017D01*
X1066064Y443847D02*
Y456474D01*
X1078691Y443847D02*
Y456474D01*
X1209574Y443847D02*
Y456474D01*
X1222201Y443847D02*
Y456474D01*
X1138454Y443847D02*
Y456474D01*
X1151081Y443847D02*
Y456474D01*
X532643Y417842D02*
X541271D01*
X532643Y429142D02*
X541271D01*
X251644Y397178D02*
X264271D01*
X251644Y409806D02*
X264271D01*
X1149814Y380342D02*
Y386642D01*
X1139014Y380342D02*
Y386642D01*
X1059814Y347967D02*
Y354267D01*
X1049014Y347967D02*
Y354267D01*
X1094164Y377992D02*
Y388992D01*
X1114664Y377992D02*
Y388992D01*
X208600Y361221D02*
Y371849D01*
X220228Y361221D02*
Y371849D01*
X558100Y430721D02*
Y443349D01*
X570728Y430721D02*
Y443349D01*
X421643Y357178D02*
X434271D01*
X421643Y369805D02*
X434271D01*
X381643Y357178D02*
X394271D01*
X381643Y369805D02*
X394271D01*
X564557Y329805D02*
X577185D01*
X564557Y317178D02*
X577185D01*
X724557Y357178D02*
X737184D01*
X724557Y369805D02*
X737184D01*
X701644Y317178D02*
X714271D01*
X701644Y329805D02*
X714271D01*
X751644Y327178D02*
X764271D01*
X751644Y339805D02*
X764271D01*
X760728Y383635D02*
Y396263D01*
X748100Y383635D02*
Y396263D01*
X834557Y329805D02*
X847185D01*
X834557Y317178D02*
X847185D01*
X339814Y290342D02*
Y296642D01*
X329014Y290342D02*
Y296642D01*
X278764Y359178D02*
Y367805D01*
X290064Y359178D02*
Y367805D01*
X470064Y409179D02*
Y417806D01*
X458764Y409179D02*
Y417806D01*
X484557Y357178D02*
X497185D01*
X484557Y369805D02*
X497185D01*
X494838Y410346D02*
Y418974D01*
X506138Y410346D02*
Y418974D01*
X1192031Y357475D02*
X1203064D01*
X1192031Y369509D02*
X1203064D01*
X608101Y480722D02*
Y493349D01*
X620728Y480722D02*
Y493349D01*
X500064Y329178D02*
Y337805D01*
X488764Y329178D02*
Y337805D01*
X624557Y387179D02*
X637185D01*
X624557Y399806D02*
X637185D01*
X308100Y333635D02*
Y346263D01*
X320728Y333635D02*
Y346263D01*
X419318Y388030D02*
X434939D01*
X419318Y402651D02*
X434939D01*
X511868Y330069D02*
Y345691D01*
X526489Y330069D02*
Y345691D01*
X367558Y389579D02*
Y403641D01*
X382558Y389579D02*
Y403641D01*
X479234Y390296D02*
Y402924D01*
X491861Y390296D02*
Y402924D01*
X507818Y409900D02*
X529318D01*
X507818Y388400D02*
X529318D01*
X338101Y410721D02*
Y423349D01*
X350728Y410721D02*
Y423349D01*
X451644Y449806D02*
X464271D01*
X451644Y437178D02*
X464271D01*
X461368Y289650D02*
Y295950D01*
X450568Y289650D02*
Y295950D01*
X671628Y463023D02*
X700690D01*
X671628Y443961D02*
X700690D01*
X628138Y413961D02*
X657200D01*
X628138Y433023D02*
X657200D01*
X651273Y385992D02*
X665335D01*
X651273Y400992D02*
X665335D01*
X691643Y417178D02*
X704270D01*
X691643Y429806D02*
X704270D01*
X611643Y367178D02*
X624271D01*
X611643Y379805D02*
X624271D01*
X661643Y367178D02*
X674271D01*
X661643Y379805D02*
X674271D01*
X644557Y337178D02*
X657185D01*
X644557Y349805D02*
X657185D01*
X591643Y397178D02*
X604271D01*
X591643Y409806D02*
X604271D01*
X864557Y357178D02*
X877185D01*
X864557Y369805D02*
X877185D01*
X631273Y455992D02*
X645335D01*
X631273Y470992D02*
X645335D01*
X834557Y357178D02*
X847185D01*
X834557Y369805D02*
X847185D01*
X791644Y377179D02*
X804271D01*
X791644Y389806D02*
X804271D01*
X838100Y383635D02*
Y396263D01*
X850727Y383635D02*
Y396263D01*
X801644Y357178D02*
X814271D01*
X801644Y369805D02*
X814271D01*
X818764Y379179D02*
Y387806D01*
X830064Y379179D02*
Y387806D01*
X888101Y380721D02*
Y393349D01*
X900728Y380721D02*
Y393349D01*
X864557Y387179D02*
X877185D01*
X864557Y399806D02*
X877185D01*
X594557Y457178D02*
X607185D01*
X594557Y469806D02*
X607185D01*
X801644Y337178D02*
X814271D01*
X801644Y349805D02*
X814271D01*
X814557Y457178D02*
X827185D01*
X814557Y469806D02*
X827185D01*
X891914Y410351D02*
Y424413D01*
X876914Y410351D02*
Y424413D01*
X851643Y467178D02*
X864271D01*
X851643Y479806D02*
X864271D01*
X844557Y407178D02*
X857185D01*
X844557Y419806D02*
X857185D01*
X798100Y397178D02*
Y409806D01*
X810727Y397178D02*
Y409806D01*
X683764Y382178D02*
Y390806D01*
X695064Y382178D02*
Y390806D01*
X838100Y440721D02*
Y453349D01*
X850727Y440721D02*
Y453349D01*
X578100Y353635D02*
Y366263D01*
X590727Y353635D02*
Y366263D01*
X823493Y425992D02*
X837554D01*
X823493Y440992D02*
X837554D01*
X868101Y440721D02*
Y453349D01*
X880728Y440721D02*
Y453349D01*
X784557Y417178D02*
X797185D01*
X784557Y429806D02*
X797185D01*
X798100Y440721D02*
Y453349D01*
X810727Y440721D02*
Y453349D01*
D17*
X1042414Y398992D02*
X1046414D01*
X552414Y477992D02*
X556414D01*
X1029914Y361492D02*
Y365492D01*
X722414Y448992D02*
X726414D01*
X309914Y401492D02*
Y405492D01*
X339914Y371492D02*
Y375492D01*
X297668Y441010D02*
X301668D01*
X368788D02*
X372788D01*
D18*
X807203Y378593D02*
X807702Y379093D01*
X808702D01*
X809202Y378593D01*
Y376594D01*
X808702Y376094D01*
X807702D01*
X807203Y376594D01*
X806203Y376094D02*
X805203D01*
X805703D01*
Y379093D01*
X806203Y378593D01*
X803704D02*
X803204Y379093D01*
X802204D01*
X801704Y378593D01*
Y376594D01*
X802204Y376094D01*
X803204D01*
X803704Y376594D01*
Y378593D01*
X799205Y376094D02*
Y379093D01*
X800705Y377593D01*
X798705D01*
X845811Y407041D02*
X846311Y407541D01*
X847310D01*
X847810Y407041D01*
Y405042D01*
X847310Y404542D01*
X846311D01*
X845811Y405042D01*
X844811Y404542D02*
X843811D01*
X844311D01*
Y407541D01*
X844811Y407041D01*
X842312D02*
X841812Y407541D01*
X840812D01*
X840312Y407041D01*
Y405042D01*
X840812Y404542D01*
X841812D01*
X842312Y405042D01*
Y407041D01*
X839313D02*
X838813Y407541D01*
X837813D01*
X837313Y407041D01*
Y406541D01*
X837813Y406041D01*
X838313D01*
X837813D01*
X837313Y405542D01*
Y405042D01*
X837813Y404542D01*
X838813D01*
X839313Y405042D01*
X797297Y398405D02*
X797796Y398905D01*
X798796D01*
X799296Y398405D01*
Y396406D01*
X798796Y395906D01*
X797796D01*
X797297Y396406D01*
X796297Y395906D02*
X795297D01*
X795797D01*
Y398905D01*
X796297Y398405D01*
X793798D02*
X793298Y398905D01*
X792298D01*
X791798Y398405D01*
Y396406D01*
X792298Y395906D01*
X793298D01*
X793798Y396406D01*
Y398405D01*
X788799Y395906D02*
X790799D01*
X788799Y397905D01*
Y398405D01*
X789299Y398905D01*
X790299D01*
X790799Y398405D01*
X839207Y378593D02*
X839706Y379093D01*
X840706D01*
X841206Y378593D01*
Y376594D01*
X840706Y376094D01*
X839706D01*
X839207Y376594D01*
X838207Y376094D02*
X837207D01*
X837707D01*
Y379093D01*
X838207Y378593D01*
X835708D02*
X835208Y379093D01*
X834208D01*
X833708Y378593D01*
Y376594D01*
X834208Y376094D01*
X835208D01*
X835708Y376594D01*
Y378593D01*
X832709Y376094D02*
X831709D01*
X832209D01*
Y379093D01*
X832709Y378593D01*
X870195D02*
X870695Y379093D01*
X871694D01*
X872194Y378593D01*
Y376594D01*
X871694Y376094D01*
X870695D01*
X870195Y376594D01*
X869195Y376094D02*
X868195D01*
X868695D01*
Y379093D01*
X869195Y378593D01*
X866696D02*
X866196Y379093D01*
X865196D01*
X864696Y378593D01*
Y376594D01*
X865196Y376094D01*
X866196D01*
X866696Y376594D01*
Y378593D01*
X863697D02*
X863197Y379093D01*
X862197D01*
X861697Y378593D01*
Y376594D01*
X862197Y376094D01*
X863197D01*
X863697Y376594D01*
Y378593D01*
X635245Y479685D02*
X635745Y480185D01*
X636744D01*
X637244Y479685D01*
Y477686D01*
X636744Y477186D01*
X635745D01*
X635245Y477686D01*
X634245D02*
X633745Y477186D01*
X632745D01*
X632246Y477686D01*
Y479685D01*
X632745Y480185D01*
X633745D01*
X634245Y479685D01*
Y479185D01*
X633745Y478685D01*
X632246D01*
X631246Y477686D02*
X630746Y477186D01*
X629746D01*
X629247Y477686D01*
Y479685D01*
X629746Y480185D01*
X630746D01*
X631246Y479685D01*
Y479185D01*
X630746Y478685D01*
X629247D01*
X1098254Y405509D02*
Y405009D01*
X1097254Y404010D01*
X1096255Y405009D01*
Y405509D01*
X1097254Y404010D02*
Y402510D01*
X1093256D02*
X1095255D01*
X1093256Y404509D01*
Y405009D01*
X1093755Y405509D01*
X1094755D01*
X1095255Y405009D01*
X509736Y418971D02*
Y418471D01*
X508736Y417472D01*
X507737Y418471D01*
Y418971D01*
X508736Y417472D02*
Y415972D01*
X506737D02*
X505737D01*
X506237D01*
Y418971D01*
X506737Y418471D01*
X625814Y457628D02*
Y460627D01*
X624314D01*
X623815Y460127D01*
Y459128D01*
X624314Y458628D01*
X625814D01*
X624814D02*
X623815Y457628D01*
X622815Y460627D02*
X620816D01*
Y460127D01*
X622815Y458128D01*
Y457628D01*
X619816Y460127D02*
X619316Y460627D01*
X618316D01*
X617817Y460127D01*
Y459627D01*
X618316Y459128D01*
X617817Y458628D01*
Y458128D01*
X618316Y457628D01*
X619316D01*
X619816Y458128D01*
Y458628D01*
X619316Y459128D01*
X619816Y459627D01*
Y460127D01*
X619316Y459128D02*
X618316D01*
X677884Y430450D02*
Y433449D01*
X676385D01*
X675885Y432949D01*
Y431950D01*
X676385Y431450D01*
X677884D01*
X676884D02*
X675885Y430450D01*
X674885Y433449D02*
X672886D01*
Y432949D01*
X674885Y430950D01*
Y430450D01*
X671886Y433449D02*
X669887D01*
Y432949D01*
X671886Y430950D01*
Y430450D01*
X501862Y426132D02*
Y429131D01*
X500363D01*
X499863Y428631D01*
Y427631D01*
X500363Y427132D01*
X501862D01*
X500862D02*
X499863Y426132D01*
X496864Y429131D02*
X497863Y428631D01*
X498863Y427631D01*
Y426632D01*
X498363Y426132D01*
X497363D01*
X496864Y426632D01*
Y427132D01*
X497363Y427631D01*
X498863D01*
X495864Y428631D02*
X495364Y429131D01*
X494364D01*
X493865Y428631D01*
Y428131D01*
X494364Y427631D01*
X493865Y427132D01*
Y426632D01*
X494364Y426132D01*
X495364D01*
X495864Y426632D01*
Y427132D01*
X495364Y427631D01*
X495864Y428131D01*
Y428631D01*
X495364Y427631D02*
X494364D01*
X459952Y373300D02*
Y376299D01*
X458452D01*
X457953Y375799D01*
Y374799D01*
X458452Y374300D01*
X459952D01*
X458952D02*
X457953Y373300D01*
X454954Y376299D02*
X455953Y375799D01*
X456953Y374799D01*
Y373800D01*
X456453Y373300D01*
X455453D01*
X454954Y373800D01*
Y374300D01*
X455453Y374799D01*
X456953D01*
X453954Y376299D02*
X451955D01*
Y375799D01*
X453954Y373800D01*
Y373300D01*
X517610Y453310D02*
Y456309D01*
X516110D01*
X515611Y455809D01*
Y454809D01*
X516110Y454310D01*
X517610D01*
X516610D02*
X515611Y453310D01*
X512612Y456309D02*
X513611Y455809D01*
X514611Y454809D01*
Y453810D01*
X514111Y453310D01*
X513111D01*
X512612Y453810D01*
Y454310D01*
X513111Y454809D01*
X514611D01*
X509613Y456309D02*
X510612Y455809D01*
X511612Y454809D01*
Y453810D01*
X511112Y453310D01*
X510112D01*
X509613Y453810D01*
Y454310D01*
X510112Y454809D01*
X511612D01*
X222970Y428418D02*
Y431417D01*
X221471D01*
X220971Y430917D01*
Y429917D01*
X221471Y429418D01*
X222970D01*
X221970D02*
X220971Y428418D01*
X217972Y431417D02*
X218971Y430917D01*
X219971Y429917D01*
Y428918D01*
X219471Y428418D01*
X218471D01*
X217972Y428918D01*
Y429418D01*
X218471Y429917D01*
X219971D01*
X214973Y431417D02*
X216972D01*
Y429917D01*
X215972Y430417D01*
X215472D01*
X214973Y429917D01*
Y428918D01*
X215472Y428418D01*
X216472D01*
X216972Y428918D01*
X916136Y465248D02*
Y468247D01*
X914637D01*
X914137Y467747D01*
Y466748D01*
X914637Y466248D01*
X916136D01*
X915136D02*
X914137Y465248D01*
X911138Y468247D02*
X912137Y467747D01*
X913137Y466748D01*
Y465748D01*
X912637Y465248D01*
X911637D01*
X911138Y465748D01*
Y466248D01*
X911637Y466748D01*
X913137D01*
X910138Y467747D02*
X909638Y468247D01*
X908638D01*
X908139Y467747D01*
Y467247D01*
X908638Y466748D01*
X909138D01*
X908638D01*
X908139Y466248D01*
Y465748D01*
X908638Y465248D01*
X909638D01*
X910138Y465748D01*
X605748Y444928D02*
Y447927D01*
X604249D01*
X603749Y447427D01*
Y446427D01*
X604249Y445928D01*
X605748D01*
X604748D02*
X603749Y444928D01*
X600750Y447927D02*
X601749Y447427D01*
X602749Y446427D01*
Y445428D01*
X602249Y444928D01*
X601249D01*
X600750Y445428D01*
Y445928D01*
X601249Y446427D01*
X602749D01*
X597751Y444928D02*
X599750D01*
X597751Y446927D01*
Y447427D01*
X598250Y447927D01*
X599250D01*
X599750Y447427D01*
X674836Y504872D02*
Y507871D01*
X673336D01*
X672837Y507371D01*
Y506371D01*
X673336Y505872D01*
X674836D01*
X673836D02*
X672837Y504872D01*
X669838Y507871D02*
X670837Y507371D01*
X671837Y506371D01*
Y505372D01*
X671337Y504872D01*
X670337D01*
X669838Y505372D01*
Y505872D01*
X670337Y506371D01*
X671837D01*
X668838Y504872D02*
X667838D01*
X668338D01*
Y507871D01*
X668838Y507371D01*
X256752Y415972D02*
Y418971D01*
X255252D01*
X254753Y418471D01*
Y417472D01*
X255252Y416972D01*
X256752D01*
X255752D02*
X254753Y415972D01*
X251754Y418971D02*
X253753D01*
Y417472D01*
X252753Y417971D01*
X252253D01*
X251754Y417472D01*
Y416472D01*
X252253Y415972D01*
X253253D01*
X253753Y416472D01*
X250754D02*
X250254Y415972D01*
X249254D01*
X248755Y416472D01*
Y418471D01*
X249254Y418971D01*
X250254D01*
X250754Y418471D01*
Y417971D01*
X250254Y417472D01*
X248755D01*
X538692Y435276D02*
Y438275D01*
X537192D01*
X536693Y437775D01*
Y436776D01*
X537192Y436276D01*
X538692D01*
X537692D02*
X536693Y435276D01*
X533694Y438275D02*
X535693D01*
Y436776D01*
X534693Y437275D01*
X534193D01*
X533694Y436776D01*
Y435776D01*
X534193Y435276D01*
X535193D01*
X535693Y435776D01*
X532694Y438275D02*
X530695D01*
Y437775D01*
X532694Y435776D01*
Y435276D01*
X669502Y489378D02*
Y492377D01*
X668002D01*
X667503Y491877D01*
Y490877D01*
X668002Y490378D01*
X669502D01*
X668502D02*
X667503Y489378D01*
X664504Y492377D02*
X666503D01*
Y490877D01*
X665503Y491377D01*
X665003D01*
X664504Y490877D01*
Y489878D01*
X665003Y489378D01*
X666003D01*
X666503Y489878D01*
X661505Y492377D02*
X662504Y491877D01*
X663504Y490877D01*
Y489878D01*
X663004Y489378D01*
X662004D01*
X661505Y489878D01*
Y490378D01*
X662004Y490877D01*
X663504D01*
X215604Y379650D02*
Y382649D01*
X214104D01*
X213605Y382149D01*
Y381149D01*
X214104Y380650D01*
X215604D01*
X214604D02*
X213605Y379650D01*
X210606Y382649D02*
X212605D01*
Y381149D01*
X211605Y381649D01*
X211105D01*
X210606Y381149D01*
Y380150D01*
X211105Y379650D01*
X212105D01*
X212605Y380150D01*
X207607Y382649D02*
X209606D01*
Y381149D01*
X208606Y381649D01*
X208106D01*
X207607Y381149D01*
Y380150D01*
X208106Y379650D01*
X209106D01*
X209606Y380150D01*
X710904Y361362D02*
Y364361D01*
X709405D01*
X708905Y363861D01*
Y362862D01*
X709405Y362362D01*
X710904D01*
X709904D02*
X708905Y361362D01*
X705906Y364361D02*
X707905D01*
Y362862D01*
X706905Y363361D01*
X706405D01*
X705906Y362862D01*
Y361862D01*
X706405Y361362D01*
X707405D01*
X707905Y361862D01*
X703406Y361362D02*
Y364361D01*
X704906Y362862D01*
X702907D01*
X718778Y401748D02*
Y404747D01*
X717279D01*
X716779Y404247D01*
Y403247D01*
X717279Y402748D01*
X718778D01*
X717778D02*
X716779Y401748D01*
X713780Y404747D02*
X715779D01*
Y403247D01*
X714779Y403747D01*
X714279D01*
X713780Y403247D01*
Y402248D01*
X714279Y401748D01*
X715279D01*
X715779Y402248D01*
X712780Y404247D02*
X712280Y404747D01*
X711280D01*
X710781Y404247D01*
Y403747D01*
X711280Y403247D01*
X711780D01*
X711280D01*
X710781Y402748D01*
Y402248D01*
X711280Y401748D01*
X712280D01*
X712780Y402248D01*
X687790Y361108D02*
Y364107D01*
X686291D01*
X685791Y363607D01*
Y362607D01*
X686291Y362108D01*
X687790D01*
X686790D02*
X685791Y361108D01*
X682792Y364107D02*
X684791D01*
Y362607D01*
X683791Y363107D01*
X683291D01*
X682792Y362607D01*
Y361608D01*
X683291Y361108D01*
X684291D01*
X684791Y361608D01*
X679793Y361108D02*
X681792D01*
X679793Y363107D01*
Y363607D01*
X680292Y364107D01*
X681292D01*
X681792Y363607D01*
X665184Y315388D02*
Y318387D01*
X663684D01*
X663185Y317887D01*
Y316887D01*
X663684Y316388D01*
X665184D01*
X664184D02*
X663185Y315388D01*
X660186Y318387D02*
X662185D01*
Y316887D01*
X661185Y317387D01*
X660685D01*
X660186Y316887D01*
Y315888D01*
X660685Y315388D01*
X661685D01*
X662185Y315888D01*
X659186Y315388D02*
X658186D01*
X658686D01*
Y318387D01*
X659186Y317887D01*
X386800Y376094D02*
Y379093D01*
X385300D01*
X384801Y378593D01*
Y377593D01*
X385300Y377094D01*
X386800D01*
X385800D02*
X384801Y376094D01*
X382301D02*
Y379093D01*
X383801Y377593D01*
X381802D01*
X380802Y379093D02*
X378803D01*
Y378593D01*
X380802Y376594D01*
Y376094D01*
X569680Y335962D02*
Y338961D01*
X568181D01*
X567681Y338461D01*
Y337462D01*
X568181Y336962D01*
X569680D01*
X568680D02*
X567681Y335962D01*
X565181D02*
Y338961D01*
X566681Y337462D01*
X564682D01*
X561683Y338961D02*
X562682Y338461D01*
X563682Y337462D01*
Y336462D01*
X563182Y335962D01*
X562182D01*
X561683Y336462D01*
Y336962D01*
X562182Y337462D01*
X563682D01*
X489924Y463470D02*
Y466469D01*
X488424D01*
X487925Y465969D01*
Y464969D01*
X488424Y464470D01*
X489924D01*
X488924D02*
X487925Y463470D01*
X485425D02*
Y466469D01*
X486925Y464969D01*
X484926D01*
X482426Y463470D02*
Y466469D01*
X483926Y464969D01*
X481927D01*
X527516Y373300D02*
Y376299D01*
X526017D01*
X525517Y375799D01*
Y374799D01*
X526017Y374300D01*
X527516D01*
X526516D02*
X525517Y373300D01*
X523017D02*
Y376299D01*
X524517Y374799D01*
X522518D01*
X521518Y375799D02*
X521018Y376299D01*
X520018D01*
X519519Y375799D01*
Y375299D01*
X520018Y374799D01*
X520518D01*
X520018D01*
X519519Y374300D01*
Y373800D01*
X520018Y373300D01*
X521018D01*
X521518Y373800D01*
X690838Y397938D02*
Y400937D01*
X689339D01*
X688839Y400437D01*
Y399437D01*
X689339Y398938D01*
X690838D01*
X689838D02*
X688839Y397938D01*
X686339D02*
Y400937D01*
X687839Y399437D01*
X685840D01*
X684840Y400437D02*
X684340Y400937D01*
X683340D01*
X682841Y400437D01*
Y398438D01*
X683340Y397938D01*
X684340D01*
X684840Y398438D01*
Y400437D01*
X825966Y394890D02*
Y397889D01*
X824466D01*
X823967Y397389D01*
Y396390D01*
X824466Y395890D01*
X825966D01*
X824966D02*
X823967Y394890D01*
X822967Y397389D02*
X822467Y397889D01*
X821467D01*
X820968Y397389D01*
Y396889D01*
X821467Y396390D01*
X821967D01*
X821467D01*
X820968Y395890D01*
Y395390D01*
X821467Y394890D01*
X822467D01*
X822967Y395390D01*
X819968D02*
X819468Y394890D01*
X818468D01*
X817969Y395390D01*
Y397389D01*
X818468Y397889D01*
X819468D01*
X819968Y397389D01*
Y396889D01*
X819468Y396390D01*
X817969D01*
X646896Y380920D02*
Y383919D01*
X645396D01*
X644897Y383419D01*
Y382420D01*
X645396Y381920D01*
X646896D01*
X645896D02*
X644897Y380920D01*
X643897Y383419D02*
X643397Y383919D01*
X642397D01*
X641898Y383419D01*
Y382919D01*
X642397Y382420D01*
X642897D01*
X642397D01*
X641898Y381920D01*
Y381420D01*
X642397Y380920D01*
X643397D01*
X643897Y381420D01*
X640898Y383919D02*
X638899D01*
Y383419D01*
X640898Y381420D01*
Y380920D01*
X401786Y393112D02*
Y396111D01*
X400286D01*
X399787Y395611D01*
Y394612D01*
X400286Y394112D01*
X401786D01*
X400786D02*
X399787Y393112D01*
X398787Y395611D02*
X398287Y396111D01*
X397287D01*
X396788Y395611D01*
Y395111D01*
X397287Y394612D01*
X397787D01*
X397287D01*
X396788Y394112D01*
Y393612D01*
X397287Y393112D01*
X398287D01*
X398787Y393612D01*
X395788Y393112D02*
X394788D01*
X395288D01*
Y396111D01*
X395788Y395611D01*
X494750Y345106D02*
Y348105D01*
X493251D01*
X492751Y347605D01*
Y346605D01*
X493251Y346106D01*
X494750D01*
X493750D02*
X492751Y345106D01*
X489752D02*
X491751D01*
X489752Y347105D01*
Y347605D01*
X490251Y348105D01*
X491251D01*
X491751Y347605D01*
X488752Y345106D02*
X487752D01*
X488252D01*
Y348105D01*
X488752Y347605D01*
X315172Y354504D02*
Y357503D01*
X313673D01*
X313173Y357003D01*
Y356003D01*
X313673Y355504D01*
X315172D01*
X314172D02*
X313173Y354504D01*
X310174D02*
X312173D01*
X310174Y356503D01*
Y357003D01*
X310673Y357503D01*
X311673D01*
X312173Y357003D01*
X309174D02*
X308674Y357503D01*
X307674D01*
X307175Y357003D01*
Y355004D01*
X307674Y354504D01*
X308674D01*
X309174Y355004D01*
Y357003D01*
X613368Y343328D02*
Y346327D01*
X611869D01*
X611369Y345827D01*
Y344827D01*
X611869Y344328D01*
X613368D01*
X612368D02*
X611369Y343328D01*
X610369D02*
X609369D01*
X609869D01*
Y346327D01*
X610369Y345827D01*
X607870Y343828D02*
X607370Y343328D01*
X606370D01*
X605870Y343828D01*
Y345827D01*
X606370Y346327D01*
X607370D01*
X607870Y345827D01*
Y345327D01*
X607370Y344827D01*
X605870D01*
X485860Y411146D02*
Y414145D01*
X484361D01*
X483861Y413645D01*
Y412645D01*
X484361Y412146D01*
X485860D01*
X484860D02*
X483861Y411146D01*
X482861D02*
X481861D01*
X482361D01*
Y414145D01*
X482861Y413645D01*
X480362D02*
X479862Y414145D01*
X478862D01*
X478362Y413645D01*
Y413145D01*
X478862Y412645D01*
X478362Y412146D01*
Y411646D01*
X478862Y411146D01*
X479862D01*
X480362Y411646D01*
Y412146D01*
X479862Y412645D01*
X480362Y413145D01*
Y413645D01*
X479862Y412645D02*
X478862D01*
X465286Y424862D02*
Y427861D01*
X463787D01*
X463287Y427361D01*
Y426362D01*
X463787Y425862D01*
X465286D01*
X464286D02*
X463287Y424862D01*
X462287D02*
X461287D01*
X461787D01*
Y427861D01*
X462287Y427361D01*
X459788Y427861D02*
X457788D01*
Y427361D01*
X459788Y425362D01*
Y424862D01*
X489162Y376094D02*
Y379093D01*
X487663D01*
X487163Y378593D01*
Y377593D01*
X487663Y377094D01*
X489162D01*
X488162D02*
X487163Y376094D01*
X486163D02*
X485163D01*
X485663D01*
Y379093D01*
X486163Y378593D01*
X481664Y379093D02*
X482664Y378593D01*
X483664Y377593D01*
Y376594D01*
X483164Y376094D01*
X482164D01*
X481664Y376594D01*
Y377094D01*
X482164Y377593D01*
X483664D01*
X285454Y375078D02*
Y378077D01*
X283955D01*
X283455Y377577D01*
Y376577D01*
X283955Y376078D01*
X285454D01*
X284454D02*
X283455Y375078D01*
X282455D02*
X281455D01*
X281955D01*
Y378077D01*
X282455Y377577D01*
X277956Y378077D02*
X279956D01*
Y376577D01*
X278956Y377077D01*
X278456D01*
X277956Y376577D01*
Y375578D01*
X278456Y375078D01*
X279456D01*
X279956Y375578D01*
X1175470Y414956D02*
Y417955D01*
X1173970D01*
X1173471Y417455D01*
Y416455D01*
X1173970Y415956D01*
X1175470D01*
X1174470D02*
X1173471Y414956D01*
X1172471D02*
X1171471D01*
X1171971D01*
Y417955D01*
X1172471Y417455D01*
X1168472Y414956D02*
Y417955D01*
X1169972Y416455D01*
X1167972D01*
X736304Y425370D02*
Y428369D01*
X734805D01*
X734305Y427869D01*
Y426870D01*
X734805Y426370D01*
X736304D01*
X735304D02*
X734305Y425370D01*
X733305D02*
X732305D01*
X732805D01*
Y428369D01*
X733305Y427869D01*
X730806Y425370D02*
X729806D01*
X730306D01*
Y428369D01*
X730806Y427869D01*
X524468Y483536D02*
Y486535D01*
X522968D01*
X522469Y486035D01*
Y485036D01*
X522968Y484536D01*
X524468D01*
X523468D02*
X522469Y483536D01*
X519470Y486535D02*
X520469Y486035D01*
X521469Y485036D01*
Y484036D01*
X520969Y483536D01*
X519969D01*
X519470Y484036D01*
Y484536D01*
X519969Y485036D01*
X521469D01*
X1125686Y375332D02*
Y378331D01*
X1124186D01*
X1123687Y377831D01*
Y376832D01*
X1124186Y376332D01*
X1125686D01*
X1124686D02*
X1123687Y375332D01*
X1120688Y378331D02*
X1122687D01*
Y376832D01*
X1121687Y377331D01*
X1121187D01*
X1120688Y376832D01*
Y375832D01*
X1121187Y375332D01*
X1122187D01*
X1122687Y375832D01*
X633688Y505888D02*
Y508887D01*
X632188D01*
X631689Y508387D01*
Y507388D01*
X632188Y506888D01*
X633688D01*
X632688D02*
X631689Y505888D01*
X629189D02*
Y508887D01*
X630689Y507388D01*
X628690D01*
X568918Y402510D02*
Y405509D01*
X567419D01*
X566919Y405009D01*
Y404010D01*
X567419Y403510D01*
X568918D01*
X567918D02*
X566919Y402510D01*
X565919Y405009D02*
X565419Y405509D01*
X564419D01*
X563920Y405009D01*
Y404509D01*
X564419Y404010D01*
X564919D01*
X564419D01*
X563920Y403510D01*
Y403010D01*
X564419Y402510D01*
X565419D01*
X565919Y403010D01*
X703284Y491918D02*
Y494917D01*
X701785D01*
X701285Y494417D01*
Y493418D01*
X701785Y492918D01*
X703284D01*
X702284D02*
X701285Y491918D01*
X698286D02*
X700285D01*
X698286Y493917D01*
Y494417D01*
X698785Y494917D01*
X699785D01*
X700285Y494417D01*
X869146Y335962D02*
Y338961D01*
X867646D01*
X867147Y338461D01*
Y337462D01*
X867646Y336962D01*
X869146D01*
X868146D02*
X867147Y335962D01*
X866147D02*
X865147D01*
X865647D01*
Y338961D01*
X866147Y338461D01*
X524976Y518031D02*
Y515032D01*
X522977D01*
X521977D02*
X520977D01*
X521477D01*
Y518031D01*
X521977Y517531D01*
X1072633Y467239D02*
X1073132Y467739D01*
X1074132D01*
X1074632Y467239D01*
Y465240D01*
X1074132Y464740D01*
X1073132D01*
X1072633Y465240D01*
X1071633Y464740D02*
X1070633D01*
X1071133D01*
Y467739D01*
X1071633Y467239D01*
X1067134Y467739D02*
X1069134D01*
Y466240D01*
X1068134Y466739D01*
X1067634D01*
X1067134Y466240D01*
Y465240D01*
X1067634Y464740D01*
X1068634D01*
X1069134Y465240D01*
X1066135Y464740D02*
X1065135D01*
X1065635D01*
Y467739D01*
X1066135Y467239D01*
X1146039D02*
X1146538Y467739D01*
X1147538D01*
X1148038Y467239D01*
Y465240D01*
X1147538Y464740D01*
X1146538D01*
X1146039Y465240D01*
X1145039Y464740D02*
X1144039D01*
X1144539D01*
Y467739D01*
X1145039Y467239D01*
X1140540Y467739D02*
X1142540D01*
Y466240D01*
X1141540Y466739D01*
X1141040D01*
X1140540Y466240D01*
Y465240D01*
X1141040Y464740D01*
X1142040D01*
X1142540Y465240D01*
X1139541Y467239D02*
X1139041Y467739D01*
X1138041D01*
X1137541Y467239D01*
Y465240D01*
X1138041Y464740D01*
X1139041D01*
X1139541Y465240D01*
Y467239D01*
X1175757Y454031D02*
X1176256Y454531D01*
X1177256D01*
X1177756Y454031D01*
Y452032D01*
X1177256Y451532D01*
X1176256D01*
X1175757Y452032D01*
X1174757Y451532D02*
X1173757D01*
X1174257D01*
Y454531D01*
X1174757Y454031D01*
X1170758Y451532D02*
Y454531D01*
X1172258Y453032D01*
X1170258D01*
X1169259Y452032D02*
X1168759Y451532D01*
X1167759D01*
X1167259Y452032D01*
Y454031D01*
X1167759Y454531D01*
X1168759D01*
X1169259Y454031D01*
Y453531D01*
X1168759Y453032D01*
X1167259D01*
X448809Y237369D02*
X449309Y237869D01*
X450308D01*
X450808Y237369D01*
Y235370D01*
X450308Y234870D01*
X449309D01*
X448809Y235370D01*
X447809Y234870D02*
X446809D01*
X447309D01*
Y237869D01*
X447809Y237369D01*
X445310D02*
X444810Y237869D01*
X443810D01*
X443310Y237369D01*
Y236869D01*
X443810Y236369D01*
X444310D01*
X443810D01*
X443310Y235870D01*
Y235370D01*
X443810Y234870D01*
X444810D01*
X445310Y235370D01*
X442311Y234870D02*
X441311D01*
X441811D01*
Y237869D01*
X442311Y237369D01*
X1198109Y378085D02*
X1198608Y378585D01*
X1199608D01*
X1200108Y378085D01*
Y376086D01*
X1199608Y375586D01*
X1198608D01*
X1198109Y376086D01*
X1197109Y375586D02*
X1196109D01*
X1196609D01*
Y378585D01*
X1197109Y378085D01*
X1194610D02*
X1194110Y378585D01*
X1193110D01*
X1192610Y378085D01*
Y377585D01*
X1193110Y377085D01*
X1193610D01*
X1193110D01*
X1192610Y376586D01*
Y376086D01*
X1193110Y375586D01*
X1194110D01*
X1194610Y376086D01*
X1191611Y378085D02*
X1191111Y378585D01*
X1190111D01*
X1189611Y378085D01*
Y376086D01*
X1190111Y375586D01*
X1191111D01*
X1191611Y376086D01*
Y378085D01*
X303521Y457841D02*
X304021Y458341D01*
X305020D01*
X305520Y457841D01*
Y455842D01*
X305020Y455342D01*
X304021D01*
X303521Y455842D01*
X302521Y455342D02*
X301521D01*
X302021D01*
Y458341D01*
X302521Y457841D01*
X298022Y455342D02*
X300022D01*
X298022Y457341D01*
Y457841D01*
X298522Y458341D01*
X299522D01*
X300022Y457841D01*
X297023Y455842D02*
X296523Y455342D01*
X295523D01*
X295023Y455842D01*
Y457841D01*
X295523Y458341D01*
X296523D01*
X297023Y457841D01*
Y457341D01*
X296523Y456842D01*
X295023D01*
X374641Y457841D02*
X375140Y458341D01*
X376140D01*
X376640Y457841D01*
Y455842D01*
X376140Y455342D01*
X375140D01*
X374641Y455842D01*
X373641Y455342D02*
X372641D01*
X373141D01*
Y458341D01*
X373641Y457841D01*
X369142Y455342D02*
X371142D01*
X369142Y457341D01*
Y457841D01*
X369642Y458341D01*
X370642D01*
X371142Y457841D01*
X368143D02*
X367643Y458341D01*
X366643D01*
X366143Y457841D01*
Y457341D01*
X366643Y456842D01*
X366143Y456342D01*
Y455842D01*
X366643Y455342D01*
X367643D01*
X368143Y455842D01*
Y456342D01*
X367643Y456842D01*
X368143Y457341D01*
Y457841D01*
X367643Y456842D02*
X366643D01*
X1146547Y396881D02*
X1147047Y397381D01*
X1148046D01*
X1148546Y396881D01*
Y394882D01*
X1148046Y394382D01*
X1147047D01*
X1146547Y394882D01*
X1145547Y394382D02*
X1144547D01*
X1145047D01*
Y397381D01*
X1145547Y396881D01*
X1141048Y394382D02*
X1143048D01*
X1141048Y396381D01*
Y396881D01*
X1141548Y397381D01*
X1142548D01*
X1143048Y396881D01*
X1140049Y397381D02*
X1138049D01*
Y396881D01*
X1140049Y394882D01*
Y394382D01*
X1056631Y364369D02*
X1057131Y364869D01*
X1058130D01*
X1058630Y364369D01*
Y362370D01*
X1058130Y361870D01*
X1057131D01*
X1056631Y362370D01*
X1055631Y361870D02*
X1054631D01*
X1055131D01*
Y364869D01*
X1055631Y364369D01*
X1051132Y361870D02*
X1053132D01*
X1051132Y363869D01*
Y364369D01*
X1051632Y364869D01*
X1052632D01*
X1053132Y364369D01*
X1048133Y364869D02*
X1049133Y364369D01*
X1050133Y363369D01*
Y362370D01*
X1049633Y361870D01*
X1048633D01*
X1048133Y362370D01*
Y362870D01*
X1048633Y363369D01*
X1050133D01*
X565649Y454031D02*
X566148Y454531D01*
X567148D01*
X567648Y454031D01*
Y452032D01*
X567148Y451532D01*
X566148D01*
X565649Y452032D01*
X564649Y451532D02*
X563649D01*
X564149D01*
Y454531D01*
X564649Y454031D01*
X560150Y451532D02*
X562150D01*
X560150Y453531D01*
Y454031D01*
X560650Y454531D01*
X561650D01*
X562150Y454031D01*
X557151Y454531D02*
X559151D01*
Y453032D01*
X558151Y453531D01*
X557651D01*
X557151Y453032D01*
Y452032D01*
X557651Y451532D01*
X558651D01*
X559151Y452032D01*
X247895Y379609D02*
X248395Y380109D01*
X249394D01*
X249894Y379609D01*
Y377610D01*
X249394Y377110D01*
X248395D01*
X247895Y377610D01*
X246895Y377110D02*
X245895D01*
X246395D01*
Y380109D01*
X246895Y379609D01*
X242396Y377110D02*
X244396D01*
X242396Y379109D01*
Y379609D01*
X242896Y380109D01*
X243896D01*
X244396Y379609D01*
X239897Y377110D02*
Y380109D01*
X241397Y378610D01*
X239397D01*
X227321Y318395D02*
X227820Y318895D01*
X228820D01*
X229320Y318395D01*
Y316396D01*
X228820Y315896D01*
X227820D01*
X227321Y316396D01*
X226321Y315896D02*
X225321D01*
X225821D01*
Y318895D01*
X226321Y318395D01*
X221822Y315896D02*
X223822D01*
X221822Y317895D01*
Y318395D01*
X222322Y318895D01*
X223322D01*
X223822Y318395D01*
X220823D02*
X220323Y318895D01*
X219323D01*
X218823Y318395D01*
Y317895D01*
X219323Y317395D01*
X219823D01*
X219323D01*
X218823Y316896D01*
Y316396D01*
X219323Y315896D01*
X220323D01*
X220823Y316396D01*
X1217159Y467239D02*
X1217658Y467739D01*
X1218658D01*
X1219158Y467239D01*
Y465240D01*
X1218658Y464740D01*
X1217658D01*
X1217159Y465240D01*
X1216159Y464740D02*
X1215159D01*
X1215659D01*
Y467739D01*
X1216159Y467239D01*
X1211660Y464740D02*
X1213660D01*
X1211660Y466739D01*
Y467239D01*
X1212160Y467739D01*
X1213160D01*
X1213660Y467239D01*
X1208661Y464740D02*
X1210661D01*
X1208661Y466739D01*
Y467239D01*
X1209161Y467739D01*
X1210161D01*
X1210661Y467239D01*
X426203Y378593D02*
X426702Y379093D01*
X427702D01*
X428202Y378593D01*
Y376594D01*
X427702Y376094D01*
X426702D01*
X426203Y376594D01*
X425203Y376094D02*
X424203D01*
X424703D01*
Y379093D01*
X425203Y378593D01*
X420704Y376094D02*
X422704D01*
X420704Y378093D01*
Y378593D01*
X421204Y379093D01*
X422204D01*
X422704Y378593D01*
X419705Y376094D02*
X418705D01*
X419205D01*
Y379093D01*
X419705Y378593D01*
X600193Y478415D02*
X600692Y478915D01*
X601692D01*
X602192Y478415D01*
Y476416D01*
X601692Y475916D01*
X600692D01*
X600193Y476416D01*
X599193Y475916D02*
X598193D01*
X598693D01*
Y478915D01*
X599193Y478415D01*
X594694Y475916D02*
X596694D01*
X594694Y477915D01*
Y478415D01*
X595194Y478915D01*
X596194D01*
X596694Y478415D01*
X593695D02*
X593195Y478915D01*
X592195D01*
X591695Y478415D01*
Y476416D01*
X592195Y475916D01*
X593195D01*
X593695Y476416D01*
Y478415D01*
X806695Y358527D02*
X807195Y359027D01*
X808194D01*
X808694Y358527D01*
Y356528D01*
X808194Y356028D01*
X807195D01*
X806695Y356528D01*
X805695Y356028D02*
X804695D01*
X805195D01*
Y359027D01*
X805695Y358527D01*
X803196Y356028D02*
X802196D01*
X802696D01*
Y359027D01*
X803196Y358527D01*
X800697Y356528D02*
X800197Y356028D01*
X799197D01*
X798697Y356528D01*
Y358527D01*
X799197Y359027D01*
X800197D01*
X800697Y358527D01*
Y358027D01*
X800197Y357528D01*
X798697D01*
X819649Y478415D02*
X820148Y478915D01*
X821148D01*
X821648Y478415D01*
Y476416D01*
X821148Y475916D01*
X820148D01*
X819649Y476416D01*
X818649Y475916D02*
X817649D01*
X818149D01*
Y478915D01*
X818649Y478415D01*
X816150Y475916D02*
X815150D01*
X815650D01*
Y478915D01*
X816150Y478415D01*
X813651D02*
X813151Y478915D01*
X812151D01*
X811651Y478415D01*
Y477915D01*
X812151Y477416D01*
X811651Y476916D01*
Y476416D01*
X812151Y475916D01*
X813151D01*
X813651Y476416D01*
Y476916D01*
X813151Y477416D01*
X813651Y477915D01*
Y478415D01*
X813151Y477416D02*
X812151D01*
X849621Y428377D02*
X850120Y428877D01*
X851120D01*
X851620Y428377D01*
Y426378D01*
X851120Y425878D01*
X850120D01*
X849621Y426378D01*
X848621Y425878D02*
X847621D01*
X848121D01*
Y428877D01*
X848621Y428377D01*
X846122Y425878D02*
X845122D01*
X845622D01*
Y428877D01*
X846122Y428377D01*
X843623Y428877D02*
X841623D01*
Y428377D01*
X843623Y426378D01*
Y425878D01*
X856733Y488575D02*
X857233Y489075D01*
X858232D01*
X858732Y488575D01*
Y486576D01*
X858232Y486076D01*
X857233D01*
X856733Y486576D01*
X855733Y486076D02*
X854733D01*
X855233D01*
Y489075D01*
X855733Y488575D01*
X853234Y486076D02*
X852234D01*
X852734D01*
Y489075D01*
X853234Y488575D01*
X848735Y489075D02*
X849735Y488575D01*
X850735Y487575D01*
Y486576D01*
X850235Y486076D01*
X849235D01*
X848735Y486576D01*
Y487076D01*
X849235Y487575D01*
X850735D01*
X883911Y434219D02*
X884410Y434719D01*
X885410D01*
X885910Y434219D01*
Y432220D01*
X885410Y431720D01*
X884410D01*
X883911Y432220D01*
X882911Y431720D02*
X881911D01*
X882411D01*
Y434719D01*
X882911Y434219D01*
X880412Y431720D02*
X879412D01*
X879912D01*
Y434719D01*
X880412Y434219D01*
X875913Y434719D02*
X877913D01*
Y433219D01*
X876913Y433719D01*
X876413D01*
X875913Y433219D01*
Y432220D01*
X876413Y431720D01*
X877413D01*
X877913Y432220D01*
X839715Y338461D02*
X840214Y338961D01*
X841214D01*
X841714Y338461D01*
Y336462D01*
X841214Y335962D01*
X840214D01*
X839715Y336462D01*
X838715Y335962D02*
X837715D01*
X838215D01*
Y338961D01*
X838715Y338461D01*
X836216Y335962D02*
X835216D01*
X835716D01*
Y338961D01*
X836216Y338461D01*
X831717Y335962D02*
X833717D01*
X831717Y337961D01*
Y338461D01*
X832217Y338961D01*
X833217D01*
X833717Y338461D01*
X754117Y407041D02*
X754616Y407541D01*
X755616D01*
X756116Y407041D01*
Y405042D01*
X755616Y404542D01*
X754616D01*
X754117Y405042D01*
X753117Y404542D02*
X752117D01*
X752617D01*
Y407541D01*
X753117Y407041D01*
X750618Y404542D02*
X749618D01*
X750118D01*
Y407541D01*
X750618Y407041D01*
X748119Y404542D02*
X747119D01*
X747619D01*
Y407541D01*
X748119Y407041D01*
X729733Y378593D02*
X730232Y379093D01*
X731232D01*
X731732Y378593D01*
Y376594D01*
X731232Y376094D01*
X730232D01*
X729733Y376594D01*
X728733Y376094D02*
X727733D01*
X728233D01*
Y379093D01*
X728733Y378593D01*
X726234Y376094D02*
X725234D01*
X725734D01*
Y379093D01*
X726234Y378593D01*
X723735D02*
X723235Y379093D01*
X722235D01*
X721735Y378593D01*
Y376594D01*
X722235Y376094D01*
X723235D01*
X723735Y376594D01*
Y378593D01*
X707127Y338461D02*
X707626Y338961D01*
X708626D01*
X709126Y338461D01*
Y336462D01*
X708626Y335962D01*
X707626D01*
X707127Y336462D01*
X706127Y335962D02*
X705127D01*
X705627D01*
Y338961D01*
X706127Y338461D01*
X703628D02*
X703128Y338961D01*
X702128D01*
X701628Y338461D01*
Y336462D01*
X702128Y335962D01*
X703128D01*
X703628Y336462D01*
Y338461D01*
X700629Y336462D02*
X700129Y335962D01*
X699129D01*
X698629Y336462D01*
Y338461D01*
X699129Y338961D01*
X700129D01*
X700629Y338461D01*
Y337961D01*
X700129Y337462D01*
X698629D01*
X757165Y348367D02*
X757664Y348867D01*
X758664D01*
X759164Y348367D01*
Y346368D01*
X758664Y345868D01*
X757664D01*
X757165Y346368D01*
X756165Y345868D02*
X755165D01*
X755665D01*
Y348867D01*
X756165Y348367D01*
X753666D02*
X753166Y348867D01*
X752166D01*
X751666Y348367D01*
Y346368D01*
X752166Y345868D01*
X753166D01*
X753666Y346368D01*
Y348367D01*
X750667D02*
X750167Y348867D01*
X749167D01*
X748667Y348367D01*
Y347867D01*
X749167Y347368D01*
X748667Y346868D01*
Y346368D01*
X749167Y345868D01*
X750167D01*
X750667Y346368D01*
Y346868D01*
X750167Y347368D01*
X750667Y347867D01*
Y348367D01*
X750167Y347368D02*
X749167D01*
X803139Y420503D02*
X803639Y421003D01*
X804638D01*
X805138Y420503D01*
Y418504D01*
X804638Y418004D01*
X803639D01*
X803139Y418504D01*
X802139Y420503D02*
X801639Y421003D01*
X800639D01*
X800140Y420503D01*
Y420003D01*
X800639Y419504D01*
X800140Y419004D01*
Y418504D01*
X800639Y418004D01*
X801639D01*
X802139Y418504D01*
Y419004D01*
X801639Y419504D01*
X802139Y420003D01*
Y420503D01*
X801639Y419504D02*
X800639D01*
X799140Y420503D02*
X798640Y421003D01*
X797640D01*
X797141Y420503D01*
Y420003D01*
X797640Y419504D01*
X797141Y419004D01*
Y418504D01*
X797640Y418004D01*
X798640D01*
X799140Y418504D01*
Y419004D01*
X798640Y419504D01*
X799140Y420003D01*
Y420503D01*
X798640Y419504D02*
X797640D01*
X787645Y438537D02*
X788145Y439037D01*
X789144D01*
X789644Y438537D01*
Y436538D01*
X789144Y436038D01*
X788145D01*
X787645Y436538D01*
X786645Y438537D02*
X786145Y439037D01*
X785145D01*
X784646Y438537D01*
Y438037D01*
X785145Y437537D01*
X784646Y437038D01*
Y436538D01*
X785145Y436038D01*
X786145D01*
X786645Y436538D01*
Y437038D01*
X786145Y437537D01*
X786645Y438037D01*
Y438537D01*
X786145Y437537D02*
X785145D01*
X783646Y439037D02*
X781647D01*
Y438537D01*
X783646Y436538D01*
Y436038D01*
X803139Y463937D02*
X803639Y464437D01*
X804638D01*
X805138Y463937D01*
Y461938D01*
X804638Y461438D01*
X803639D01*
X803139Y461938D01*
X802139Y463937D02*
X801639Y464437D01*
X800639D01*
X800140Y463937D01*
Y463437D01*
X800639Y462938D01*
X800140Y462438D01*
Y461938D01*
X800639Y461438D01*
X801639D01*
X802139Y461938D01*
Y462438D01*
X801639Y462938D01*
X802139Y463437D01*
Y463937D01*
X801639Y462938D02*
X800639D01*
X797141Y464437D02*
X798140Y463937D01*
X799140Y462938D01*
Y461938D01*
X798640Y461438D01*
X797640D01*
X797141Y461938D01*
Y462438D01*
X797640Y462938D01*
X799140D01*
X843271Y463937D02*
X843771Y464437D01*
X844770D01*
X845270Y463937D01*
Y461938D01*
X844770Y461438D01*
X843771D01*
X843271Y461938D01*
X842271Y463937D02*
X841771Y464437D01*
X840771D01*
X840272Y463937D01*
Y463437D01*
X840771Y462938D01*
X840272Y462438D01*
Y461938D01*
X840771Y461438D01*
X841771D01*
X842271Y461938D01*
Y462438D01*
X841771Y462938D01*
X842271Y463437D01*
Y463937D01*
X841771Y462938D02*
X840771D01*
X837273Y464437D02*
X839272D01*
Y462938D01*
X838272Y463437D01*
X837772D01*
X837273Y462938D01*
Y461938D01*
X837772Y461438D01*
X838772D01*
X839272Y461938D01*
X873243Y463937D02*
X873743Y464437D01*
X874742D01*
X875242Y463937D01*
Y461938D01*
X874742Y461438D01*
X873743D01*
X873243Y461938D01*
X872243Y463937D02*
X871743Y464437D01*
X870743D01*
X870244Y463937D01*
Y463437D01*
X870743Y462938D01*
X870244Y462438D01*
Y461938D01*
X870743Y461438D01*
X871743D01*
X872243Y461938D01*
Y462438D01*
X871743Y462938D01*
X872243Y463437D01*
Y463937D01*
X871743Y462938D02*
X870743D01*
X867744Y461438D02*
Y464437D01*
X869244Y462938D01*
X867245D01*
X827523Y449713D02*
X828023Y450213D01*
X829022D01*
X829522Y449713D01*
Y447714D01*
X829022Y447214D01*
X828023D01*
X827523Y447714D01*
X826523Y449713D02*
X826023Y450213D01*
X825023D01*
X824524Y449713D01*
Y449213D01*
X825023Y448713D01*
X824524Y448214D01*
Y447714D01*
X825023Y447214D01*
X826023D01*
X826523Y447714D01*
Y448214D01*
X826023Y448713D01*
X826523Y449213D01*
Y449713D01*
X826023Y448713D02*
X825023D01*
X823524Y449713D02*
X823024Y450213D01*
X822024D01*
X821525Y449713D01*
Y449213D01*
X822024Y448713D01*
X822524D01*
X822024D01*
X821525Y448214D01*
Y447714D01*
X822024Y447214D01*
X823024D01*
X823524Y447714D01*
X827269Y417455D02*
X827768Y417955D01*
X828768D01*
X829268Y417455D01*
Y415456D01*
X828768Y414956D01*
X827768D01*
X827269Y415456D01*
X826269Y417455D02*
X825769Y417955D01*
X824769D01*
X824270Y417455D01*
Y416955D01*
X824769Y416455D01*
X824270Y415956D01*
Y415456D01*
X824769Y414956D01*
X825769D01*
X826269Y415456D01*
Y415956D01*
X825769Y416455D01*
X826269Y416955D01*
Y417455D01*
X825769Y416455D02*
X824769D01*
X823270Y417455D02*
X822770Y417955D01*
X821770D01*
X821271Y417455D01*
Y415456D01*
X821770Y414956D01*
X822770D01*
X823270Y415456D01*
Y417455D01*
X583175Y376815D02*
X583675Y377315D01*
X584674D01*
X585174Y376815D01*
Y374816D01*
X584674Y374316D01*
X583675D01*
X583175Y374816D01*
X582175Y377315D02*
X580176D01*
Y376815D01*
X582175Y374816D01*
Y374316D01*
X579176Y374816D02*
X578676Y374316D01*
X577676D01*
X577177Y374816D01*
Y376815D01*
X577676Y377315D01*
X578676D01*
X579176Y376815D01*
Y376315D01*
X578676Y375816D01*
X577177D01*
X893309Y403993D02*
X893809Y404493D01*
X894808D01*
X895308Y403993D01*
Y401994D01*
X894808Y401494D01*
X893809D01*
X893309Y401994D01*
X892309Y404493D02*
X890310D01*
Y403993D01*
X892309Y401994D01*
Y401494D01*
X889310Y403993D02*
X888810Y404493D01*
X887810D01*
X887311Y403993D01*
Y403493D01*
X887810Y402994D01*
X887311Y402494D01*
Y401994D01*
X887810Y401494D01*
X888810D01*
X889310Y401994D01*
Y402494D01*
X888810Y402994D01*
X889310Y403493D01*
Y403993D01*
X888810Y402994D02*
X887810D01*
X867655Y408565D02*
X868155Y409065D01*
X869154D01*
X869654Y408565D01*
Y406566D01*
X869154Y406066D01*
X868155D01*
X867655Y406566D01*
X866655Y409065D02*
X864656D01*
Y408565D01*
X866655Y406566D01*
Y406066D01*
X863656Y409065D02*
X861657D01*
Y408565D01*
X863656Y406566D01*
Y406066D01*
X647691Y358527D02*
X648191Y359027D01*
X649190D01*
X649690Y358527D01*
Y356528D01*
X649190Y356028D01*
X648191D01*
X647691Y356528D01*
X646691Y359027D02*
X644692D01*
Y358527D01*
X646691Y356528D01*
Y356028D01*
X643692Y358527D02*
X643192Y359027D01*
X642192D01*
X641693Y358527D01*
Y356528D01*
X642192Y356028D01*
X643192D01*
X643692Y356528D01*
Y358527D01*
X614671Y388499D02*
X615171Y388999D01*
X616170D01*
X616670Y388499D01*
Y386500D01*
X616170Y386000D01*
X615171D01*
X614671Y386500D01*
X611672Y388999D02*
X612671Y388499D01*
X613671Y387500D01*
Y386500D01*
X613171Y386000D01*
X612171D01*
X611672Y386500D01*
Y387000D01*
X612171Y387500D01*
X613671D01*
X610672Y386500D02*
X610172Y386000D01*
X609172D01*
X608673Y386500D01*
Y388499D01*
X609172Y388999D01*
X610172D01*
X610672Y388499D01*
Y387999D01*
X610172Y387500D01*
X608673D01*
X664709Y388499D02*
X665209Y388999D01*
X666208D01*
X666708Y388499D01*
Y386500D01*
X666208Y386000D01*
X665209D01*
X664709Y386500D01*
X661710Y388999D02*
X662709Y388499D01*
X663709Y387500D01*
Y386500D01*
X663209Y386000D01*
X662209D01*
X661710Y386500D01*
Y387000D01*
X662209Y387500D01*
X663709D01*
X660710Y388499D02*
X660210Y388999D01*
X659210D01*
X658711Y388499D01*
Y387999D01*
X659210Y387500D01*
X658711Y387000D01*
Y386500D01*
X659210Y386000D01*
X660210D01*
X660710Y386500D01*
Y387000D01*
X660210Y387500D01*
X660710Y387999D01*
Y388499D01*
X660210Y387500D02*
X659210D01*
X594859Y418471D02*
X595359Y418971D01*
X596358D01*
X596858Y418471D01*
Y416472D01*
X596358Y415972D01*
X595359D01*
X594859Y416472D01*
X591860Y418971D02*
X592859Y418471D01*
X593859Y417472D01*
Y416472D01*
X593359Y415972D01*
X592359D01*
X591860Y416472D01*
Y416972D01*
X592359Y417472D01*
X593859D01*
X590860Y418971D02*
X588861D01*
Y418471D01*
X590860Y416472D01*
Y415972D01*
X694681Y438537D02*
X695181Y439037D01*
X696180D01*
X696680Y438537D01*
Y436538D01*
X696180Y436038D01*
X695181D01*
X694681Y436538D01*
X691682Y439037D02*
X692681Y438537D01*
X693681Y437537D01*
Y436538D01*
X693181Y436038D01*
X692181D01*
X691682Y436538D01*
Y437038D01*
X692181Y437537D01*
X693681D01*
X688683Y439037D02*
X689682Y438537D01*
X690682Y437537D01*
Y436538D01*
X690182Y436038D01*
X689182D01*
X688683Y436538D01*
Y437038D01*
X689182Y437537D01*
X690682D01*
X655311Y409581D02*
X655810Y410081D01*
X656810D01*
X657310Y409581D01*
Y407582D01*
X656810Y407082D01*
X655810D01*
X655311Y407582D01*
X652312Y410081D02*
X653311Y409581D01*
X654311Y408582D01*
Y407582D01*
X653811Y407082D01*
X652811D01*
X652312Y407582D01*
Y408082D01*
X652811Y408582D01*
X654311D01*
X649313Y410081D02*
X651312D01*
Y408582D01*
X650312Y409081D01*
X649812D01*
X649313Y408582D01*
Y407582D01*
X649812Y407082D01*
X650812D01*
X651312Y407582D01*
X628133Y442601D02*
X628633Y443101D01*
X629632D01*
X630132Y442601D01*
Y440602D01*
X629632Y440102D01*
X628633D01*
X628133Y440602D01*
X625134Y443101D02*
X626133Y442601D01*
X627133Y441601D01*
Y440602D01*
X626633Y440102D01*
X625633D01*
X625134Y440602D01*
Y441102D01*
X625633Y441601D01*
X627133D01*
X622634Y440102D02*
Y443101D01*
X624134Y441601D01*
X622135D01*
X671821Y472827D02*
X672320Y473327D01*
X673320D01*
X673820Y472827D01*
Y470828D01*
X673320Y470328D01*
X672320D01*
X671821Y470828D01*
X668822Y473327D02*
X669821Y472827D01*
X670821Y471828D01*
Y470828D01*
X670321Y470328D01*
X669321D01*
X668822Y470828D01*
Y471328D01*
X669321Y471828D01*
X670821D01*
X667822Y472827D02*
X667322Y473327D01*
X666322D01*
X665823Y472827D01*
Y472327D01*
X666322Y471828D01*
X666822D01*
X666322D01*
X665823Y471328D01*
Y470828D01*
X666322Y470328D01*
X667322D01*
X667822Y470828D01*
X332223Y364115D02*
X332723Y364615D01*
X333722D01*
X334222Y364115D01*
Y362116D01*
X333722Y361616D01*
X332723D01*
X332223Y362116D01*
X329224Y364615D02*
X330223Y364115D01*
X331223Y363116D01*
Y362116D01*
X330723Y361616D01*
X329723D01*
X329224Y362116D01*
Y362616D01*
X329723Y363116D01*
X331223D01*
X328224Y361616D02*
X327224D01*
X327724D01*
Y364615D01*
X328224Y364115D01*
X683251Y336937D02*
X683751Y337437D01*
X684750D01*
X685250Y336937D01*
Y334938D01*
X684750Y334438D01*
X683751D01*
X683251Y334938D01*
X680252Y337437D02*
X682251D01*
Y335938D01*
X681251Y336437D01*
X680751D01*
X680252Y335938D01*
Y334938D01*
X680751Y334438D01*
X681751D01*
X682251Y334938D01*
X679252D02*
X678752Y334438D01*
X677752D01*
X677253Y334938D01*
Y336937D01*
X677752Y337437D01*
X678752D01*
X679252Y336937D01*
Y336437D01*
X678752Y335938D01*
X677253D01*
X573269Y496957D02*
X573769Y497457D01*
X574768D01*
X575268Y496957D01*
Y494958D01*
X574768Y494458D01*
X573769D01*
X573269Y494958D01*
X570270Y497457D02*
X572269D01*
Y495957D01*
X571269Y496457D01*
X570769D01*
X570270Y495957D01*
Y494958D01*
X570769Y494458D01*
X571769D01*
X572269Y494958D01*
X567770Y494458D02*
Y497457D01*
X569270Y495957D01*
X567271D01*
X626609Y408565D02*
X627108Y409065D01*
X628108D01*
X628608Y408565D01*
Y406566D01*
X628108Y406066D01*
X627108D01*
X626609Y406566D01*
X625609Y408565D02*
X625109Y409065D01*
X624109D01*
X623610Y408565D01*
Y408065D01*
X624109Y407565D01*
X624609D01*
X624109D01*
X623610Y407066D01*
Y406566D01*
X624109Y406066D01*
X625109D01*
X625609Y406566D01*
X622610Y406066D02*
X621610D01*
X622110D01*
Y409065D01*
X622610Y408565D01*
X613147Y504069D02*
X613647Y504569D01*
X614646D01*
X615146Y504069D01*
Y502070D01*
X614646Y501570D01*
X613647D01*
X613147Y502070D01*
X610148Y501570D02*
X612147D01*
X610148Y503569D01*
Y504069D01*
X610647Y504569D01*
X611647D01*
X612147Y504069D01*
X609148D02*
X608648Y504569D01*
X607648D01*
X607149Y504069D01*
Y503569D01*
X607648Y503069D01*
X608148D01*
X607648D01*
X607149Y502570D01*
Y502070D01*
X607648Y501570D01*
X608648D01*
X609148Y502070D01*
X516881Y355987D02*
X517380Y356487D01*
X518380D01*
X518880Y355987D01*
Y353988D01*
X518380Y353488D01*
X517380D01*
X516881Y353988D01*
X513882Y353488D02*
X515881D01*
X513882Y355487D01*
Y355987D01*
X514381Y356487D01*
X515381D01*
X515881Y355987D01*
X510883Y353488D02*
X512882D01*
X510883Y355487D01*
Y355987D01*
X511382Y356487D01*
X512382D01*
X512882Y355987D01*
X421885Y411359D02*
X422384Y411859D01*
X423384D01*
X423884Y411359D01*
Y409360D01*
X423384Y408860D01*
X422384D01*
X421885Y409360D01*
X418886Y408860D02*
X420885D01*
X418886Y410859D01*
Y411359D01*
X419385Y411859D01*
X420385D01*
X420885Y411359D01*
X417886Y408860D02*
X416886D01*
X417386D01*
Y411859D01*
X417886Y411359D01*
X454651Y458603D02*
X455150Y459103D01*
X456150D01*
X456650Y458603D01*
Y456604D01*
X456150Y456104D01*
X455150D01*
X454651Y456604D01*
X451652Y456104D02*
X453651D01*
X451652Y458103D01*
Y458603D01*
X452151Y459103D01*
X453151D01*
X453651Y458603D01*
X450652D02*
X450152Y459103D01*
X449152D01*
X448653Y458603D01*
Y456604D01*
X449152Y456104D01*
X450152D01*
X450652Y456604D01*
Y458603D01*
X342637Y433965D02*
X343136Y434465D01*
X344136D01*
X344636Y433965D01*
Y431966D01*
X344136Y431466D01*
X343136D01*
X342637Y431966D01*
X341637Y431466D02*
X340637D01*
X341137D01*
Y434465D01*
X341637Y433965D01*
X339138Y431966D02*
X338638Y431466D01*
X337638D01*
X337138Y431966D01*
Y433965D01*
X337638Y434465D01*
X338638D01*
X339138Y433965D01*
Y433465D01*
X338638Y432966D01*
X337138D01*
X412233Y346843D02*
X412733Y347343D01*
X413732D01*
X414232Y346843D01*
Y344844D01*
X413732Y344344D01*
X412733D01*
X412233Y344844D01*
X411233Y344344D02*
X410233D01*
X410733D01*
Y347343D01*
X411233Y346843D01*
X408734D02*
X408234Y347343D01*
X407234D01*
X406734Y346843D01*
Y346343D01*
X407234Y345844D01*
X406734Y345344D01*
Y344844D01*
X407234Y344344D01*
X408234D01*
X408734Y344844D01*
Y345344D01*
X408234Y345844D01*
X408734Y346343D01*
Y346843D01*
X408234Y345844D02*
X407234D01*
X468113Y346843D02*
X468613Y347343D01*
X469612D01*
X470112Y346843D01*
Y344844D01*
X469612Y344344D01*
X468613D01*
X468113Y344844D01*
X467113Y344344D02*
X466113D01*
X466613D01*
Y347343D01*
X467113Y346843D01*
X464614Y347343D02*
X462614D01*
Y346843D01*
X464614Y344844D01*
Y344344D01*
X372101Y413391D02*
X372601Y413891D01*
X373600D01*
X374100Y413391D01*
Y411392D01*
X373600Y410892D01*
X372601D01*
X372101Y411392D01*
X371101Y410892D02*
X370101D01*
X370601D01*
Y413891D01*
X371101Y413391D01*
X366602Y413891D02*
X367602Y413391D01*
X368602Y412392D01*
Y411392D01*
X368102Y410892D01*
X367102D01*
X366602Y411392D01*
Y411892D01*
X367102Y412392D01*
X368602D01*
X455159Y306203D02*
X455658Y306703D01*
X456658D01*
X457158Y306203D01*
Y304204D01*
X456658Y303704D01*
X455658D01*
X455159Y304204D01*
X454159Y303704D02*
X453159D01*
X453659D01*
Y306703D01*
X454159Y306203D01*
X449660Y306703D02*
X451660D01*
Y305203D01*
X450660Y305703D01*
X450160D01*
X449660Y305203D01*
Y304204D01*
X450160Y303704D01*
X451160D01*
X451660Y304204D01*
X333493Y306711D02*
X333993Y307211D01*
X334992D01*
X335492Y306711D01*
Y304712D01*
X334992Y304212D01*
X333993D01*
X333493Y304712D01*
X332493Y304212D02*
X331493D01*
X331993D01*
Y307211D01*
X332493Y306711D01*
X328494Y304212D02*
Y307211D01*
X329994Y305711D01*
X327994D01*
X1045201Y415931D02*
X1045701Y416431D01*
X1046700D01*
X1047200Y415931D01*
Y413932D01*
X1046700Y413432D01*
X1045701D01*
X1045201Y413932D01*
X1044201Y413432D02*
X1043201D01*
X1043701D01*
Y416431D01*
X1044201Y415931D01*
X1041702D02*
X1041202Y416431D01*
X1040202D01*
X1039702Y415931D01*
Y415431D01*
X1040202Y414931D01*
X1040702D01*
X1040202D01*
X1039702Y414432D01*
Y413932D01*
X1040202Y413432D01*
X1041202D01*
X1041702Y413932D01*
X913121Y419233D02*
X913621Y419733D01*
X914620D01*
X915120Y419233D01*
Y417234D01*
X914620Y416734D01*
X913621D01*
X913121Y417234D01*
X912121Y416734D02*
X911121D01*
X911621D01*
Y419733D01*
X912121Y419233D01*
X907622Y416734D02*
X909622D01*
X907622Y418733D01*
Y419233D01*
X908122Y419733D01*
X909122D01*
X909622Y419233D01*
X440935Y488067D02*
X441435Y488567D01*
X442434D01*
X442934Y488067D01*
Y486068D01*
X442434Y485568D01*
X441435D01*
X440935Y486068D01*
X439935Y485568D02*
X438935D01*
X439435D01*
Y488567D01*
X439935Y488067D01*
X437436Y485568D02*
X436436D01*
X436936D01*
Y488567D01*
X437436Y488067D01*
X402581Y433965D02*
X403080Y434465D01*
X404080D01*
X404580Y433965D01*
Y431966D01*
X404080Y431466D01*
X403080D01*
X402581Y431966D01*
X401581Y431466D02*
X400581D01*
X401081D01*
Y434465D01*
X401581Y433965D01*
X399082D02*
X398582Y434465D01*
X397582D01*
X397082Y433965D01*
Y431966D01*
X397582Y431466D01*
X398582D01*
X399082Y431966D01*
Y433965D01*
X324603Y458603D02*
X325103Y459103D01*
X326102D01*
X326602Y458603D01*
Y456604D01*
X326102Y456104D01*
X325103D01*
X324603Y456604D01*
X323603D02*
X323103Y456104D01*
X322103D01*
X321604Y456604D01*
Y458603D01*
X322103Y459103D01*
X323103D01*
X323603Y458603D01*
Y458103D01*
X323103Y457603D01*
X321604D01*
X333747Y385959D02*
X334246Y386459D01*
X335246D01*
X335746Y385959D01*
Y383960D01*
X335246Y383460D01*
X334246D01*
X333747Y383960D01*
X332747Y385959D02*
X332247Y386459D01*
X331247D01*
X330748Y385959D01*
Y385459D01*
X331247Y384959D01*
X330748Y384460D01*
Y383960D01*
X331247Y383460D01*
X332247D01*
X332747Y383960D01*
Y384460D01*
X332247Y384959D01*
X332747Y385459D01*
Y385959D01*
X332247Y384959D02*
X331247D01*
X303775Y415931D02*
X304275Y416431D01*
X305274D01*
X305774Y415931D01*
Y413932D01*
X305274Y413432D01*
X304275D01*
X303775Y413932D01*
X302775Y416431D02*
X300776D01*
Y415931D01*
X302775Y413932D01*
Y413432D01*
X421123Y459111D02*
X421623Y459611D01*
X422622D01*
X423122Y459111D01*
Y457112D01*
X422622Y456612D01*
X421623D01*
X421123Y457112D01*
X418124Y459611D02*
X419123Y459111D01*
X420123Y458111D01*
Y457112D01*
X419623Y456612D01*
X418623D01*
X418124Y457112D01*
Y457612D01*
X418623Y458111D01*
X420123D01*
X1023865Y375799D02*
X1024364Y376299D01*
X1025364D01*
X1025864Y375799D01*
Y373800D01*
X1025364Y373300D01*
X1024364D01*
X1023865Y373800D01*
X1020866Y376299D02*
X1022865D01*
Y374799D01*
X1021865Y375299D01*
X1021365D01*
X1020866Y374799D01*
Y373800D01*
X1021365Y373300D01*
X1022365D01*
X1022865Y373800D01*
X884165Y354463D02*
X884665Y354963D01*
X885664D01*
X886164Y354463D01*
Y352464D01*
X885664Y351964D01*
X884665D01*
X884165Y352464D01*
X881665Y351964D02*
Y354963D01*
X883165Y353464D01*
X881166D01*
X484623Y488575D02*
X485122Y489075D01*
X486122D01*
X486622Y488575D01*
Y486576D01*
X486122Y486076D01*
X485122D01*
X484623Y486576D01*
X483623Y488575D02*
X483123Y489075D01*
X482123D01*
X481624Y488575D01*
Y488075D01*
X482123Y487575D01*
X482623D01*
X482123D01*
X481624Y487076D01*
Y486576D01*
X482123Y486076D01*
X483123D01*
X483623Y486576D01*
X552695Y494925D02*
X553195Y495425D01*
X554194D01*
X554694Y494925D01*
Y492926D01*
X554194Y492426D01*
X553195D01*
X552695Y492926D01*
X549696Y492426D02*
X551695D01*
X549696Y494425D01*
Y494925D01*
X550195Y495425D01*
X551195D01*
X551695Y494925D01*
X721859Y465969D02*
X722358Y466469D01*
X723358D01*
X723858Y465969D01*
Y463970D01*
X723358Y463470D01*
X722358D01*
X721859Y463970D01*
X720859Y463470D02*
X719859D01*
X720359D01*
Y466469D01*
X720859Y465969D01*
M02*
