G04*
G04 #@! TF.GenerationSoftware,Altium Limited,Altium Designer,26.7.1 (11)*
G04*
G04 Layer_Physical_Order=6*
G04 Layer_Color=6736896*
G04 Board_Origin=26771654|24803150*
%FSLAX44Y44*%
%MOMM*%
G71*
G04*
G04 #@! TF.SameCoordinates,D9171914-07D6-4B2F-AF4B-0BE730A3B9D6*
G04*
G04*
G04 #@! TF.FilePolarity,Positive*
G04*
G01*
G75*
%ADD12C,0.2000*%
%ADD13C,0.1000*%
%ADD14C,0.1270*%
%ADD15C,0.2540*%
%ADD16C,0.1524*%
%ADD95C,1.4000*%
%ADD96C,2.8500*%
%ADD97C,2.2800*%
%ADD98C,0.8000*%
%ADD99R,1.4000X1.4000*%
%ADD100C,0.0100*%
%ADD101C,0.1000*%
%ADD102C,0.0500*%
%ADD103C,0.2540*%
%ADD104C,1.2700*%
%ADD105C,0.4000*%
%ADD106C,0.0400*%
%ADD108C,0.2032*%
%ADD109C,0.1016*%
%ADD122C,0.3810*%
D12*
X798692Y376984D02*
X800177Y378468D01*
X802292D02*
X813353Y389529D01*
X800177Y378468D02*
X802292D01*
X813353Y389529D02*
Y395581D01*
X709280Y311520D02*
X736180Y338420D01*
X693990Y311520D02*
X709280D01*
X688418Y309546D02*
X692016D01*
X693990Y311520D01*
X1107527Y500492D02*
X1124414D01*
X1087847Y480812D02*
X1107527Y500492D01*
X995832Y480812D02*
X1087847D01*
X968770Y453750D02*
X995832Y480812D01*
X813353Y395581D02*
X824414Y406642D01*
D13*
X640164Y468085D02*
X640824Y468745D01*
X640076Y471403D02*
X640824Y470655D01*
Y468745D02*
Y470655D01*
X640164Y459532D02*
Y468085D01*
X651767Y493787D02*
X653331D01*
X653828Y494284D01*
X651328Y492287D02*
Y493347D01*
X650334Y491293D02*
X651328Y492287D01*
Y493347D02*
X651767Y493787D01*
X653828Y494284D02*
X655986D01*
X717787Y396041D02*
X718662Y395166D01*
X716455Y393753D02*
Y395455D01*
X717041Y396041D01*
X718662Y395166D02*
X719558D01*
X713485Y390783D02*
X716455Y393753D01*
X717041Y396041D02*
X717787D01*
X713485Y389900D02*
Y390783D01*
X709877Y386292D02*
X713485Y389900D01*
X719558Y395166D02*
X724352Y399960D01*
X711343Y394445D02*
X716529Y399631D01*
Y401627D01*
X711343Y393366D02*
Y394445D01*
X721777Y403768D02*
X746276D01*
X717020Y402118D02*
X720127D01*
X721777Y403768D01*
X712758Y393017D02*
Y393179D01*
X706214Y396869D02*
X710143Y392940D01*
Y392869D02*
X710846Y392166D01*
X711413D02*
X711415Y392168D01*
X712577Y393359D02*
X712758Y393179D01*
X711415Y392166D02*
X711907D01*
X710143Y392869D02*
Y392940D01*
X710846Y392166D02*
X711413D01*
X711907D02*
X712758Y393017D01*
X716477Y403272D02*
X716523Y403318D01*
X716529Y401627D02*
X717020Y402118D01*
X716523Y403318D02*
X717321D01*
X707668Y403272D02*
X716477D01*
X717321Y403318D02*
X722101Y408098D01*
X667840Y362064D02*
Y362513D01*
X663414Y366939D02*
X667840Y362513D01*
X655986Y494284D02*
X656111Y494159D01*
X657123D01*
X662041Y489241D01*
X657365Y481208D02*
X665975D01*
X656772Y479869D02*
X657704Y478937D01*
X659697Y477569D02*
Y478005D01*
Y477569D02*
X662122Y475144D01*
X657704Y478937D02*
X658765D01*
X659697Y478005D01*
X647588Y481261D02*
Y487670D01*
X650334Y490416D01*
Y491293D01*
X661167Y460658D02*
X664180D01*
X665303Y459866D02*
X665423Y459746D01*
X659705Y459196D02*
X661167Y460658D01*
X664973Y459866D02*
X665303D01*
X663080Y456443D02*
X663095Y456428D01*
X665423Y459746D02*
X670132D01*
X664180Y460658D02*
X664973Y459866D01*
X650980Y462000D02*
X653809Y459171D01*
Y450413D02*
Y459171D01*
X634794Y445561D02*
Y445965D01*
X634091Y446668D02*
X634794Y445965D01*
X633686Y446668D02*
X634091D01*
X634794Y445561D02*
X635364Y444991D01*
X632964Y447391D02*
X633686Y446668D01*
X662122Y475144D02*
X666637D01*
X656772Y480615D02*
X657365Y481208D01*
X656772Y479869D02*
Y480615D01*
X670419Y476494D02*
X673864Y473050D01*
X666637Y475144D02*
X667987Y476494D01*
X670419D01*
X665698Y450240D02*
X670005Y454546D01*
X685727D01*
X692873Y461692D01*
X700880D01*
X704704Y465516D01*
Y466048D01*
X707698Y469042D01*
X712412D01*
X721351Y477982D01*
X814995D01*
X820697Y472280D01*
X863037D01*
X877893Y457423D01*
Y454026D02*
Y457423D01*
Y454026D02*
X889489Y442430D01*
X890047D01*
X892188Y440288D01*
Y439472D02*
Y440288D01*
Y439472D02*
X894080Y437580D01*
X793310Y348620D02*
X794770Y350080D01*
X793072Y348620D02*
X793310D01*
X791612Y347160D02*
X793072Y348620D01*
X761530Y347160D02*
X791612D01*
X793325Y352030D02*
X793775Y352480D01*
X794993D01*
X733713Y352030D02*
X793325D01*
X794993Y352480D02*
X805723Y363210D01*
X795266Y351280D02*
X795716Y350830D01*
X794272Y351280D02*
X795266D01*
X793822Y350830D02*
X794272Y351280D01*
X795716Y350830D02*
X813755D01*
X735737D02*
X793822D01*
X712314Y345242D02*
X723467D01*
X776907Y401390D02*
X805697Y430180D01*
X809800D01*
X762850Y401390D02*
X776907D01*
X797163Y430691D02*
X797690Y431218D01*
X785528Y418844D02*
X797163Y430479D01*
X797690Y431218D02*
X797902D01*
X797163Y430479D02*
Y430691D01*
X797902Y431218D02*
X799928Y433244D01*
X746665Y403380D02*
X771129D01*
X785528Y417780D02*
Y418844D01*
X771129Y403380D02*
X785528Y417780D01*
X799928Y433244D02*
X821017D01*
X770340Y408098D02*
X809710Y447468D01*
X718446Y412340D02*
X771026D01*
X825712Y467026D01*
X722101Y408098D02*
X770340D01*
X724352Y399960D02*
X767580D01*
X708472Y386292D02*
X709877D01*
X706918Y384042D02*
X709300Y381660D01*
X821017Y433244D02*
X834053Y446280D01*
X706214Y396869D02*
Y403515D01*
X717641Y414942D01*
X751535D01*
X752153Y414324D01*
X769836D01*
X707414Y403018D02*
X707668Y403272D01*
X658867Y469937D02*
X659730Y470800D01*
X664752D01*
X669246Y475294D01*
X673864Y470995D02*
Y473050D01*
X662041Y489241D02*
X670930D01*
X729061Y384727D02*
X729359Y385025D01*
X750489D01*
X803360Y394280D02*
X805897D01*
X815600Y403983D01*
Y406376D01*
X825303Y416079D01*
X845684D01*
X855684Y426080D01*
X728121Y383217D02*
Y383982D01*
Y383217D02*
X729574Y381764D01*
X784184Y384464D02*
X790140D01*
X755475Y382514D02*
X782234D01*
X754725Y381764D02*
X755475Y382514D01*
X721306Y384464D02*
X727638D01*
X728121Y383982D01*
X729574Y381764D02*
X754725D01*
X782234Y382514D02*
X784184Y384464D01*
X790140D02*
X821902Y416226D01*
X714206Y377364D02*
X721306Y384464D01*
X729745Y383714D02*
X781738D01*
X789358Y391334D01*
X800105Y391842D02*
X801713D01*
X802416Y392545D01*
X802934Y395480D02*
X824442Y416988D01*
X802160Y393783D02*
X802416Y393527D01*
X802863Y395480D02*
X802934D01*
X802416Y392545D02*
Y393527D01*
X802160Y393783D02*
Y394777D01*
X802863Y395480D01*
X845955Y414879D02*
X846181D01*
X856884Y425583D01*
X856646Y426815D02*
Y429612D01*
X845778Y414702D02*
X845955Y414879D01*
X856646Y426815D02*
X856884Y426577D01*
Y425583D02*
Y426577D01*
X829567Y414702D02*
X845778D01*
X856646Y429612D02*
X857988Y430954D01*
X859620D01*
X857243Y432754D02*
X860366D01*
X822182Y432712D02*
X857201D01*
X859620Y430954D02*
X865216Y425358D01*
X860408Y432712D02*
X866673D01*
X857201D02*
X857243Y432754D01*
X860366D02*
X860408Y432712D01*
X865216Y425358D02*
X877516D01*
X880068Y427910D01*
X819775Y380781D02*
X857800Y418805D01*
Y420179D01*
X819775Y378960D02*
Y380781D01*
X755222Y380564D02*
X755972Y381314D01*
X754490Y380564D02*
X755222D01*
X749258Y375332D02*
X754490Y380564D01*
X755972Y381314D02*
X782732D01*
X715877Y375332D02*
X749258D01*
X714149Y373604D02*
X715877Y375332D01*
X714149Y373524D02*
Y373604D01*
X723362Y369478D02*
X783911D01*
X719540Y373300D02*
X723362Y369478D01*
X783911D02*
X806148Y391715D01*
X797794Y375479D02*
X797988Y375284D01*
X799397D01*
X799591Y375479D01*
X800809D01*
X797054D02*
X797794D01*
X797060Y387200D02*
X797360D01*
X816152Y388080D02*
X822648D01*
X804840Y376768D02*
X816152Y388080D01*
X783090Y340340D02*
X783980D01*
X719180Y316360D02*
X772687D01*
X775209Y318882D01*
X821197D01*
X823945Y321630D01*
X646864Y466989D02*
Y471301D01*
Y466989D02*
X647614Y466239D01*
X645964Y459989D02*
X647614Y461639D01*
Y472051D02*
Y476364D01*
X646864Y471301D02*
X647614Y472051D01*
X646712Y477266D02*
X647614Y476364D01*
X646712Y477266D02*
Y480385D01*
X647588Y481261D01*
X647614Y461639D02*
Y466239D01*
X663095Y447430D02*
X665513Y445012D01*
X666077D01*
X668332Y443585D02*
X671689Y446942D01*
X666077Y445012D02*
X667504Y443585D01*
X668332D01*
X681115Y420738D02*
Y428242D01*
Y420738D02*
X681614Y420239D01*
Y400952D02*
Y420239D01*
X663095Y447430D02*
Y456428D01*
X671718Y490030D02*
X677967D01*
X670930Y489241D02*
X671718Y490030D01*
X607242Y453312D02*
Y458390D01*
X607012Y458620D02*
X607242Y458390D01*
X665975Y481208D02*
X666457Y481690D01*
X669410Y481208D02*
X669619D01*
X668928Y481690D02*
X669410Y481208D01*
X666457Y481690D02*
X668928D01*
X653809Y450413D02*
X655335Y448887D01*
X657493D01*
X672795Y446942D02*
X673498Y446239D01*
Y445245D02*
Y446239D01*
X671689Y446942D02*
X672795D01*
X713174Y378706D02*
X713812Y379344D01*
X711682Y378706D02*
X713174D01*
X709300Y381088D02*
X711682Y378706D01*
X709300Y381088D02*
Y381660D01*
X706917Y384042D02*
X706918D01*
X706214Y384745D02*
X706917Y384042D01*
X706214Y384745D02*
Y385739D01*
X706917Y386442D01*
X708322D01*
X708472Y386292D01*
X712466Y380544D02*
X725288Y393366D01*
X712428Y380544D02*
X712466D01*
X712174Y377364D02*
X714206D01*
X734272Y397188D02*
X777238D01*
X739196Y437308D02*
X786596D01*
X809710Y460422D01*
X670132Y459746D02*
X670158Y459772D01*
X659705Y451099D02*
Y459196D01*
X670158Y459772D02*
X675230D01*
X676573Y461115D01*
X719414Y359772D02*
Y362703D01*
X717774Y364343D02*
X719414Y362703D01*
X717774Y364343D02*
Y367274D01*
X782732Y381314D02*
X782785Y381367D01*
X789530D01*
X821902Y416226D02*
Y427910D01*
X806580Y391715D02*
X829567Y414702D01*
X806148Y391715D02*
X806580D01*
X777751Y393366D02*
X808841Y424456D01*
X811859D01*
X725288Y393366D02*
X777751D01*
X882412Y436742D02*
X889503Y429651D01*
X831461Y436742D02*
X882412D01*
X830624Y435904D02*
X831461Y436742D01*
X811859Y424456D02*
X819364Y431962D01*
X821432D01*
X653999Y381750D02*
Y383504D01*
Y381750D02*
X657707Y378042D01*
X658589D01*
X663973Y372659D01*
Y370933D02*
Y372659D01*
X684706Y362440D02*
X685126Y362860D01*
Y369739D01*
X687055Y371669D01*
X688267D01*
X690197Y373598D01*
X691952D01*
X674428Y419992D02*
Y424394D01*
X675526Y425492D01*
X663414Y371492D02*
X663973Y370933D01*
Y368413D02*
Y370933D01*
X663414Y367854D02*
X663973Y368413D01*
X663414Y366939D02*
Y367854D01*
X681614Y357361D02*
Y380441D01*
X681002Y381053D02*
Y400340D01*
Y381053D02*
X681614Y380441D01*
X646690Y320210D02*
X659780Y333300D01*
X813755Y350830D02*
X814505Y351580D01*
X864325D01*
X866996Y354250D01*
X873585Y369100D02*
X878365Y373880D01*
X870320Y369100D02*
X873585D01*
X821199Y363210D02*
X821254Y363265D01*
X777238Y397188D02*
X782100Y402050D01*
X769571Y404580D02*
X783122Y418131D01*
X784183D01*
X763070Y404580D02*
X769571D01*
X802099Y376768D02*
X804840D01*
X800809Y375479D02*
X802099Y376768D01*
X795600Y376933D02*
X797054Y375479D01*
X793063Y376933D02*
X795600D01*
X776600Y360470D02*
X793063Y376933D01*
X805991Y375568D02*
X817303Y386880D01*
X823848Y395225D02*
X838347Y409724D01*
Y411629D01*
X802596Y375568D02*
X805991D01*
X823146Y386880D02*
X823848Y387583D01*
Y395225D01*
X817303Y386880D02*
X823146D01*
X790110Y363083D02*
X802596Y375568D01*
X725474Y357552D02*
X798368D01*
X819775Y378960D01*
X781853Y363083D02*
X790110D01*
X711414Y344342D02*
X712314Y345242D01*
X742830Y371910D02*
X781770D01*
X797060Y387200D01*
X796563Y388400D02*
X796663D01*
X789530Y381367D02*
X796563Y388400D01*
X796663D02*
X800105Y391842D01*
X730267Y345360D02*
X735737Y350830D01*
X728243Y346560D02*
X733713Y352030D01*
X673498Y445245D02*
X675051Y443692D01*
X675161D01*
X681614Y437239D01*
Y428741D02*
Y437239D01*
X681115Y428242D02*
X681614Y428741D01*
X681002Y400340D02*
X681614Y400952D01*
Y357361D02*
X687801Y351174D01*
X645045Y397062D02*
X650685Y402702D01*
X635507Y454532D02*
X635974D01*
X632964Y451989D02*
X635507Y454532D01*
X632964Y447391D02*
Y451989D01*
X635364Y437095D02*
Y444991D01*
Y437095D02*
X641591Y430868D01*
X642038D01*
X643414Y429492D01*
X792330Y297880D02*
X802913Y287297D01*
X897582D01*
X640393Y458681D02*
Y459303D01*
X640164Y459532D02*
X640393Y459303D01*
X639954Y458242D02*
X640393Y458681D01*
X639684Y458242D02*
X639954D01*
X635030Y320540D02*
Y322221D01*
X651669Y432778D02*
Y439784D01*
X647794Y443658D02*
X651669Y439784D01*
X647794Y443658D02*
Y450664D01*
X670403Y467534D02*
X673864Y470995D01*
X868219Y377599D02*
X880172Y389551D01*
X868219Y359116D02*
Y377599D01*
X866752Y359880D02*
X867019Y359613D01*
X855868Y359880D02*
X866752D01*
X854668Y358680D02*
X855868Y359880D01*
X866996Y357893D02*
X868219Y359116D01*
X866996Y354250D02*
Y357893D01*
X878365Y373880D02*
X881800D01*
X651615Y411649D02*
Y428241D01*
X650685Y402702D02*
Y410719D01*
X651615Y411649D01*
X660638Y409518D02*
X661151D01*
X662864Y411231D01*
X635974Y454532D02*
X639684Y458242D01*
X636093Y684750D02*
X676940D01*
X588111Y636768D02*
X636093Y684750D01*
X497068Y636768D02*
X588111D01*
X471900Y611600D02*
X497068Y636768D01*
X641213Y380738D02*
Y382492D01*
X639562Y379087D02*
X641213Y380738D01*
X639562Y378693D02*
Y379087D01*
X637911Y377042D02*
X639562Y378693D01*
X633522Y377042D02*
X637911D01*
X631819Y378745D02*
X633522Y377042D01*
X631819Y378745D02*
Y382450D01*
X636368Y386999D01*
Y388893D01*
X644537Y397062D01*
X645045D01*
X651615Y428241D02*
X653265Y429891D01*
X654962D01*
X662864Y411231D02*
Y421989D01*
X654962Y429891D02*
X662864Y421989D01*
X651568Y429891D02*
X653265D01*
X643665Y437793D02*
X651568Y429891D01*
X643665Y437793D02*
Y439491D01*
X637414Y445742D02*
X643665Y439491D01*
X637414Y445742D02*
X645964Y454292D01*
Y459989D01*
X677967Y490030D02*
X711603Y523665D01*
X746276Y403768D02*
X746665Y403380D01*
X731733Y429845D02*
X739196Y437308D01*
X711412Y405306D02*
X718446Y412340D01*
X723467Y345242D02*
X724785Y346560D01*
X728243D01*
X805723Y363210D02*
X821199D01*
X725282Y345360D02*
X730267D01*
X855837Y467820D02*
X865800D01*
X866673Y432712D02*
X867754Y431631D01*
X834053Y446280D02*
X834297D01*
X855837Y467820D01*
X821432Y431962D02*
X822182Y432712D01*
X634700Y320210D02*
X635030Y320540D01*
X634700Y320210D02*
X646690D01*
X616983Y442879D02*
X617377Y442485D01*
X613184Y442879D02*
X616983D01*
X611398Y444664D02*
X613184Y442879D01*
X611398Y444664D02*
Y449156D01*
X607242Y453312D02*
X611398Y449156D01*
X679078Y481522D02*
X684391D01*
X674803Y481660D02*
X678939D01*
X669917Y480910D02*
X674053D01*
X684391Y481522D02*
X691861Y488992D01*
X678939Y481660D02*
X679078Y481522D01*
X674053Y480910D02*
X674803Y481660D01*
X735990Y443912D02*
X777960D01*
X730905Y429845D02*
X731733D01*
X729322Y431428D02*
X730905Y429845D01*
X707414Y409368D02*
X720614Y422568D01*
X721814Y422071D02*
Y428039D01*
X720614Y428536D02*
X735990Y443912D01*
X704808Y407492D02*
X707235D01*
X721814Y422071D01*
Y428039D02*
X725203Y431428D01*
X729322D01*
X720614Y422568D02*
Y428536D01*
X781220Y338470D02*
X783090Y340340D01*
X781220Y326590D02*
Y338470D01*
X774510Y319880D02*
X781220Y326590D01*
X669619Y481208D02*
X669917Y480910D01*
X668796Y467534D02*
X670403D01*
X691861Y488992D02*
X708494D01*
X695656Y470582D02*
X703414D01*
X657493Y448887D02*
X659705Y451099D01*
X1088301Y486272D02*
X1088450Y486420D01*
X778910Y486272D02*
X1088301D01*
X676573Y461115D02*
Y462084D01*
X677917Y463428D01*
X678886D01*
X685086Y469628D01*
X694702D01*
X695656Y470582D01*
X936870Y395670D02*
X951390Y410190D01*
X1035320D01*
X1083344Y293492D02*
X1137930D01*
X1050444Y260592D02*
X1083344Y293492D01*
X1036901Y260592D02*
X1050444D01*
X1027832Y251522D02*
X1036901Y260592D01*
X986789Y251522D02*
X1027832D01*
X970351Y267960D02*
X986789Y251522D01*
X952050Y267960D02*
X970351D01*
X798026Y463978D02*
X806662D01*
X777960Y443912D02*
X798026Y463978D01*
X806662D02*
X809710Y467026D01*
X1026190Y388520D02*
X1027950Y386760D01*
X1064580D01*
X824442Y416988D02*
Y422322D01*
X880068Y427910D02*
X881800D01*
D14*
X622690Y371918D02*
X629345D01*
X633557Y368412D02*
X637063Y364907D01*
X632850Y368412D02*
X633557D01*
X629345Y371918D02*
X632850Y368412D01*
X637063Y364907D02*
X641078D01*
X615889Y338018D02*
X615889D01*
X615663Y338244D02*
X615889Y338018D01*
X614031Y341955D02*
X617359Y338627D01*
X585414Y269842D02*
X617359Y301787D01*
Y338627D01*
X614031Y341955D02*
Y345152D01*
X609691Y338244D02*
X615663D01*
X605369Y342566D02*
X609691Y338244D01*
X599398Y342566D02*
X605369D01*
X558470Y345730D02*
X559350Y344850D01*
X661745Y455890D02*
Y456996D01*
Y455890D02*
X661760Y455875D01*
Y446877D02*
Y455875D01*
X663648Y457763D02*
X665492D01*
X662527Y457778D02*
X663633D01*
X661745Y456996D02*
X662527Y457778D01*
X663633D02*
X663648Y457763D01*
X667414Y384492D02*
Y387004D01*
X677749Y397338D01*
Y418965D01*
X679327Y420543D01*
Y428899D01*
X679079Y429147D02*
X679327Y428899D01*
X679079Y429147D02*
Y431965D01*
X671623Y439421D02*
X679079Y431965D01*
X669780Y439421D02*
X671623D01*
X665524Y443677D02*
X669780Y439421D01*
X664960Y443677D02*
X665524D01*
X661760Y446877D02*
X664960Y443677D01*
X665492Y457763D02*
X667373Y455881D01*
X670323D01*
X612260Y347050D02*
X614095Y345215D01*
X615061Y344249D01*
Y342708D02*
X617861Y339907D01*
X615061Y342708D02*
Y344249D01*
X639424Y349247D02*
X642259Y352082D01*
X639424Y349172D02*
Y349247D01*
X621914Y371142D02*
X622690Y371918D01*
X641078Y364907D02*
X642884Y363101D01*
Y357904D02*
Y363101D01*
X642259Y357279D02*
X642884Y357904D01*
X642259Y352082D02*
Y357279D01*
X628929Y338134D02*
Y342028D01*
X620840Y330045D02*
X628929Y338134D01*
X620840Y326150D02*
Y330045D01*
X640902Y362492D02*
X641414D01*
X641758Y336724D02*
Y344586D01*
X637450Y359040D02*
X640902Y362492D01*
X529940Y345770D02*
X529980Y345730D01*
X558470D01*
X641758Y344586D02*
X642414Y345242D01*
X491914Y430992D02*
Y438722D01*
X487414Y443222D02*
X491914Y438722D01*
X625154Y339907D02*
X626414Y341167D01*
X617861Y339907D02*
X625154D01*
X486876Y448992D02*
X487414Y448454D01*
Y443222D02*
Y448454D01*
D15*
X626414Y473854D02*
Y474646D01*
X624384Y471824D02*
X626414Y473854D01*
Y474646D02*
X651468Y499700D01*
X655358Y361845D02*
Y364538D01*
X630945Y334804D02*
X631095Y334954D01*
X630945Y333420D02*
Y334804D01*
Y333420D02*
X631095Y333270D01*
Y334954D02*
Y342466D01*
Y333206D02*
Y333270D01*
X632384Y343755D02*
Y353014D01*
X631095Y333206D02*
X633938Y330363D01*
X631095Y342466D02*
X632384Y343755D01*
X625560Y359838D02*
X632384Y353014D01*
X490178Y70786D02*
X632730Y213338D01*
X633938Y323915D02*
Y330363D01*
X409958Y330000D02*
X410838Y330880D01*
X429440D01*
X439124Y343582D02*
X460206Y364664D01*
X678173Y486495D02*
X678510Y486832D01*
X660264Y486495D02*
X678173D01*
X678510Y486832D02*
X680559D01*
X741525Y547798D01*
X613839Y490486D02*
X616900Y493548D01*
Y520068D02*
X694414Y597582D01*
X616900Y493548D02*
Y520068D01*
X613839Y448809D02*
Y490486D01*
X606764Y476170D02*
X609304Y473630D01*
X591270Y476170D02*
X606764D01*
X590508Y475408D02*
X591270Y476170D01*
X544955Y476548D02*
X545845Y477438D01*
X546112D01*
X544955Y476281D02*
Y476548D01*
X529068Y460395D02*
X544955Y476281D01*
X546112Y477438D02*
X576339Y507666D01*
X604059D01*
X529068Y453732D02*
Y460395D01*
X432774Y453056D02*
X521747D01*
X524017Y450786D02*
X526122D01*
X521747Y453056D02*
X524017Y450786D01*
X517678Y444742D02*
X523953D01*
X526122Y450786D02*
X529068Y453732D01*
X523953Y444742D02*
X534943Y455732D01*
X506688Y433752D02*
X517678Y444742D01*
X534943Y455732D02*
X570824D01*
X716268Y339050D02*
X720490Y343272D01*
X703660Y339050D02*
X716268D01*
X701880Y340830D02*
Y340890D01*
Y340830D02*
X703660Y339050D01*
X720490Y343272D02*
X784392D01*
X857800Y385471D02*
Y386880D01*
X861154Y390234D01*
Y426634D01*
X666255Y492531D02*
X692670Y518946D01*
Y524810D01*
X732160Y560230D02*
X751485D01*
X858527Y667272D01*
Y667787D01*
X909150Y718410D01*
X858804Y428984D02*
X861154Y426634D01*
X844114Y348261D02*
X848985Y343390D01*
X805921Y348261D02*
X844114D01*
X848985Y343390D02*
X906292D01*
X796475Y344196D02*
X800009Y347730D01*
X805390D02*
X805921Y348261D01*
X906292Y343390D02*
X919184Y356282D01*
X800009Y347730D02*
X805390D01*
X784392Y343272D02*
X785316Y344196D01*
X796475D01*
X651468Y549576D02*
X709126Y607234D01*
X651468Y499700D02*
Y549576D01*
X709126Y607234D02*
Y718994D01*
X556314Y633492D02*
X683472D01*
X419820Y496998D02*
X556314Y633492D01*
X705570Y374570D02*
Y382604D01*
X674414Y462711D02*
X677101Y465398D01*
X674414Y461742D02*
Y462711D01*
X623818Y419914D02*
Y429360D01*
X621920Y414462D02*
X624187Y416729D01*
X623963Y461563D02*
X624000D01*
X622725Y466483D02*
X624384Y468141D01*
Y471824D01*
X626384Y431926D02*
Y459179D01*
X623818Y419914D02*
X624187Y419544D01*
X623818Y429360D02*
X626384Y431926D01*
X624187Y416729D02*
Y419544D01*
X622725Y462800D02*
X623963Y461563D01*
X622725Y462800D02*
Y466483D01*
X624000Y461563D02*
X626384Y459179D01*
X658428Y374570D02*
X659276D01*
X578038Y418258D02*
X610372D01*
X613108Y419797D02*
X613368Y420057D01*
X613108Y418414D02*
Y419797D01*
Y418414D02*
X613368Y418154D01*
Y420057D02*
Y435690D01*
Y392604D02*
Y418154D01*
X655644Y371785D02*
X658428Y374570D01*
X655948Y365128D02*
Y368685D01*
X655644Y368989D02*
X655948Y368685D01*
X655644Y368989D02*
Y371785D01*
X657335Y354914D02*
X659843D01*
X655358Y356891D02*
X657335Y354914D01*
X655358Y356891D02*
Y361845D01*
Y364538D02*
X655948Y365128D01*
X659843Y354914D02*
X662634Y352123D01*
Y338915D02*
Y352123D01*
X660384Y399572D02*
Y406058D01*
Y399572D02*
X660464Y399492D01*
X813679Y353540D02*
X821379Y361240D01*
X813670Y353540D02*
X813679D01*
X821379Y361240D02*
X822015D01*
X838299Y387761D02*
X838420Y387640D01*
Y380430D02*
Y387640D01*
X822015Y361240D02*
X824280Y363504D01*
Y366290D01*
X697442Y345328D02*
X701880Y340890D01*
X697442Y345328D02*
Y345360D01*
X729080Y323840D02*
X739990Y334750D01*
X772165D01*
X586992Y522745D02*
Y524470D01*
X585170Y519698D02*
Y520923D01*
X586992Y522745D01*
Y524470D02*
X623528Y561006D01*
X609050Y538654D02*
X650198Y579802D01*
X609050Y510841D02*
Y538654D01*
X692008Y419492D02*
X697664D01*
X942695Y310705D02*
Y311625D01*
X943585Y312515D02*
X944505D01*
X904960Y272970D02*
X942695Y310705D01*
X944505Y312515D02*
X1097414Y465424D01*
X942695Y311625D02*
X943585Y312515D01*
X617444Y365426D02*
X623032Y359838D01*
X617444Y365426D02*
Y411558D01*
X662634Y338915D02*
X664948Y336600D01*
X510238Y354498D02*
X516054D01*
X452078Y296338D02*
X510238Y354498D01*
X516054D02*
X547047Y385490D01*
X590500Y475408D02*
X590508D01*
X632730Y213338D02*
Y322707D01*
X633938Y323915D01*
X705982Y728550D02*
X901198D01*
X902188Y729540D01*
X1189016D01*
X686266Y708834D02*
X705982Y728550D01*
X656920Y518430D02*
Y521974D01*
X683194Y548248D01*
X572928Y510406D02*
X575878D01*
X585170Y519698D01*
X541994Y479472D02*
X572928Y510406D01*
X657582Y408860D02*
X660384Y406058D01*
X657582Y408860D02*
Y423492D01*
X498999Y465941D02*
X593922Y560864D01*
X459470Y763510D02*
Y767937D01*
X459414Y767993D02*
X459470Y767937D01*
X574110Y459270D02*
X575000Y460160D01*
X575252D01*
X574110Y459018D02*
Y459270D01*
X575252Y460160D02*
X590500Y475408D01*
X570824Y455732D02*
X574110Y459018D01*
X606441Y508232D02*
X609050Y510841D01*
X604626Y508232D02*
X606441D01*
X604059Y507666D02*
X604626Y508232D01*
X1016914Y642540D02*
X1097178Y722804D01*
X1134414D01*
X824280Y366290D02*
X838420Y380430D01*
X547047Y385490D02*
Y387266D01*
X578038Y418258D01*
X427440Y261540D02*
X566378Y400478D01*
X623032Y359838D02*
X625560D01*
X613839Y448809D02*
X619347Y443301D01*
Y441669D02*
Y443301D01*
X613368Y435690D02*
X619347Y441669D01*
X1189016Y729540D02*
X1238414Y778938D01*
X693886Y471598D02*
X726673Y504385D01*
X687095Y365426D02*
Y368923D01*
X687664Y369492D01*
Y358242D02*
Y364857D01*
X687095Y365426D02*
X687664Y364857D01*
X726673Y504385D02*
X735428D01*
X738963Y507920D01*
X969730D01*
X741525Y547798D02*
X794724D01*
X969730Y507920D02*
X1076410Y614600D01*
X678070Y465398D02*
X684270Y471598D01*
X677101Y465398D02*
X678070D01*
X684270Y471598D02*
X693886D01*
X919184Y356282D02*
Y419092D01*
X933354Y433262D01*
X926550Y403780D02*
X936094Y413324D01*
Y460314D01*
X933354Y481794D02*
X934842Y483282D01*
X936094Y460314D02*
X949272Y473492D01*
X926550Y356790D02*
Y403780D01*
X934842Y483282D02*
X1086824D01*
X933354Y433262D02*
Y481794D01*
X333968Y355774D02*
X406104Y427910D01*
X407628D02*
X432774Y453056D01*
X406104Y427910D02*
X407628D01*
X281282Y355774D02*
X333968D01*
X750020Y261032D02*
X889720D01*
X733510Y244522D02*
X750020Y261032D01*
X889720D02*
X893022Y264334D01*
X806408Y272970D02*
X904960D01*
X1137871Y323492D02*
X1186670D01*
X1189948Y320214D01*
X687664Y358242D02*
X689414Y356492D01*
X274414Y316415D02*
X307463D01*
X394828Y403780D02*
X464270D01*
X307463Y316415D02*
X394828Y403780D01*
X685948Y276082D02*
Y310569D01*
X688298Y329104D02*
X690248Y327154D01*
Y314869D02*
Y327154D01*
X685948Y310569D02*
X690248Y314869D01*
X685948Y276082D02*
X694394Y267636D01*
X688298Y340026D02*
X693178Y344906D01*
X694394Y267636D02*
X801074D01*
X688298Y329104D02*
Y340026D01*
X693178Y362178D02*
X705570Y374570D01*
X693178Y344906D02*
Y362178D01*
X506688Y285924D02*
X613368Y392604D01*
X497544Y285924D02*
X506688D01*
X689711Y421789D02*
X692008Y419492D01*
X687664Y404426D02*
Y408492D01*
Y404426D02*
X688850Y403240D01*
Y399492D02*
Y403240D01*
X499322Y433752D02*
X506688D01*
X499068Y427783D02*
Y433498D01*
X499322Y433752D01*
X498814Y427529D02*
X499068Y427783D01*
X488019Y427529D02*
X498814D01*
X464270Y403780D02*
X488019Y427529D01*
X1103347Y616886D02*
X1174414D01*
X996159Y509698D02*
X1103347Y616886D01*
X763171Y553492D02*
X813865Y604186D01*
X724112Y553492D02*
X763171D01*
X411877Y465941D02*
X498999D01*
X368766Y422830D02*
X411877Y465941D01*
X314414Y422830D02*
X368766D01*
X798534Y551608D02*
X811488D01*
X794724Y547798D02*
X798534Y551608D01*
X427440Y189150D02*
Y261540D01*
X266404Y117268D02*
X355558D01*
X427440Y189150D01*
X254974Y105838D02*
X266404Y117268D01*
X253260Y105838D02*
X254974D01*
X194414Y46992D02*
X253260Y105838D01*
X360130Y296338D02*
X452078D01*
X801074Y267636D02*
X806408Y272970D01*
X373166Y201034D02*
X394414D01*
X369270Y204930D02*
X373166Y201034D01*
X363835Y204930D02*
X369270D01*
X358334Y199429D02*
X363835Y204930D01*
X358334Y197159D02*
Y199429D01*
Y197159D02*
X364001Y191492D01*
X422914D01*
X361074Y198294D02*
X422716D01*
X422914Y198492D01*
X617444Y411558D02*
X620348Y414462D01*
X621920D01*
X89390Y378492D02*
Y379420D01*
X95970Y386000D01*
X508800Y364664D02*
X525818Y381682D01*
X460206Y364664D02*
X508800D01*
X668740Y244522D02*
X733510D01*
X893022Y264334D02*
X913342D01*
X982176Y333168D01*
X1023324D01*
X1078696Y388540D01*
X1152814D01*
X1254414Y490140D01*
X430914Y191492D02*
X431704Y192282D01*
X472370D01*
X521420Y241332D01*
X994114Y52498D02*
X1357842Y416226D01*
X317458Y52498D02*
X994114D01*
X686266Y628824D02*
Y708834D01*
X650198Y592756D02*
X686266Y628824D01*
X650198Y579802D02*
Y592756D01*
X209000Y283492D02*
X281282Y355774D01*
X886672Y316912D02*
X926550Y356790D01*
X796756Y316912D02*
X886672D01*
X752560Y272716D02*
X796756Y316912D01*
X704414Y272716D02*
X752560D01*
X1004274Y253492D02*
X1100460Y349678D01*
X1211030D01*
X1251162Y389810D01*
X1021914Y633142D02*
X1059804D01*
X1114414Y687752D01*
X451824Y520620D02*
X539708Y608504D01*
X594318D01*
X603716Y617902D01*
X235416Y376602D02*
X237448Y378634D01*
X330414D01*
X871366Y243506D02*
X874414Y246554D01*
X740622Y243506D02*
X871366D01*
X717384Y220268D02*
X740622Y243506D01*
X654414Y220268D02*
X717384D01*
X108162Y398492D02*
X146308D01*
X191728Y443912D01*
X286978D01*
X325078Y482012D01*
X373684D01*
X1291040Y133960D02*
X1357914Y200834D01*
X1291040Y133778D02*
Y133960D01*
X1258020Y100758D02*
X1291040Y133778D01*
X151422Y386000D02*
X171914Y406492D01*
X95970Y386000D02*
X151422D01*
D16*
X663426Y493601D02*
X670126Y500302D01*
X671250Y501425D02*
X675897Y506073D01*
X670126Y500302D02*
X670657D01*
X671250Y500894D02*
Y501425D01*
X670657Y500302D02*
X671250Y500894D01*
X547487Y475499D02*
Y475657D01*
X531300Y459470D02*
X546736Y474906D01*
X546894D02*
X547487Y475499D01*
Y475657D02*
X557444Y485614D01*
X546736Y474906D02*
X546894D01*
X557444Y485614D02*
X596142D01*
X662420Y464486D02*
X665578Y461328D01*
X665716Y461268D02*
Y461328D01*
X665578D02*
X665716D01*
X675897Y507027D02*
X675914Y507044D01*
Y511464D01*
X675897Y506073D02*
Y507027D01*
X675914Y511464D02*
X702790Y538340D01*
X668372Y491492D02*
X703883Y527003D01*
X667918Y445238D02*
X672793Y450113D01*
X688668D01*
X693509Y454954D01*
X709384D01*
X730950Y476520D01*
X564414Y461712D02*
X573396D01*
X574076Y462392D01*
X657973Y464486D02*
X662420D01*
X833910Y527890D02*
X873180D01*
X907170Y561880D01*
X766178Y521215D02*
X959817D01*
X499950Y356730D02*
X515130D01*
X458633Y315413D02*
X499950Y356730D01*
X485841Y500500D02*
X512050D01*
X453515Y468173D02*
X485841Y500500D01*
X414746Y468173D02*
X453515D01*
X414036Y468883D02*
X414746Y468173D01*
X414036Y468883D02*
Y695086D01*
X439340Y720390D01*
X393250Y623920D02*
X414036Y644706D01*
X703883Y536995D02*
X704514Y537626D01*
Y539054D01*
X703883Y527003D02*
Y536995D01*
Y539685D02*
Y561006D01*
Y539685D02*
X704514Y539054D01*
X594847Y563096D02*
X596154Y561789D01*
X590356Y562923D02*
X592825D01*
X592998Y563096D01*
X596154Y559940D02*
Y561789D01*
X595876Y548426D02*
Y559661D01*
X592998Y563096D02*
X594847D01*
X595876Y559661D02*
X596154Y559940D01*
X596142Y485614D02*
X597112Y486584D01*
X583650Y522559D02*
Y536200D01*
X595876Y548426D01*
X589423Y561990D02*
X590356Y562923D01*
X584760Y561990D02*
X589423D01*
X454414Y723510D02*
Y758992D01*
X440202Y709299D02*
X454414Y723510D01*
X440202Y673817D02*
Y709299D01*
Y673817D02*
X441055Y672964D01*
Y642675D02*
Y672964D01*
X435600Y637220D02*
X441055Y642675D01*
X435600Y609180D02*
Y637220D01*
X574076Y462392D02*
X574328D01*
X590788Y478852D01*
X596528D01*
X602130Y484454D01*
Y502580D01*
X605550Y506000D01*
X708728Y500190D02*
Y501757D01*
X737061Y530090D01*
X821040D01*
X728764Y519355D02*
X733786Y524377D01*
X763017D01*
X959817Y521215D02*
X1055434Y616832D01*
X763017Y524377D02*
X766178Y521215D01*
X1055434Y616832D02*
X1077335D01*
X1078642Y615524D01*
Y612573D02*
Y615524D01*
X1074186Y608117D02*
X1078642Y612573D01*
X1074186Y605165D02*
Y608117D01*
Y605165D02*
X1075042Y604309D01*
X1085931D01*
X1136965Y655343D01*
Y657152D01*
X1148800Y668987D01*
X1124416Y645232D02*
Y680907D01*
X1115339Y689984D02*
X1124416Y680907D01*
X1082102Y689984D02*
X1115339D01*
X1032426Y640308D02*
X1082102Y689984D01*
X999190Y640308D02*
X1032426D01*
X987858Y651640D02*
X999190Y640308D01*
X969210Y651640D02*
X987858D01*
X803990Y648780D02*
X806300Y651090D01*
X746680Y648780D02*
X803990D01*
X634205Y626340D02*
X672650D01*
X614137Y606272D02*
X634205Y626340D01*
X575692Y606272D02*
X614137D01*
X525250Y555830D02*
X575692Y606272D01*
X393250Y461340D02*
Y623920D01*
X434414Y315413D02*
X458633D01*
X346403Y413160D02*
X352990D01*
X345510Y412267D02*
X346403Y413160D01*
X345510Y390170D02*
Y412267D01*
X307414Y263304D02*
X364210Y320100D01*
X307414Y223492D02*
Y263304D01*
D95*
X194414Y46992D02*
D03*
X154414D02*
D03*
X214414Y79992D02*
D03*
X194414D02*
D03*
X154414D02*
D03*
X134414D02*
D03*
X214414Y46992D02*
D03*
D96*
X42914Y452192D02*
D03*
Y339792D02*
D03*
D97*
X82914Y452192D02*
D03*
Y339792D02*
D03*
D98*
X1112914Y265292D02*
D03*
X1045914D02*
D03*
D99*
X134414Y46992D02*
D03*
D100*
X1075034Y447612D02*
D03*
X697481Y465558D02*
D03*
X685169Y447054D02*
D03*
X711481Y462843D02*
D03*
X635816Y469778D02*
D03*
X639624Y469242D02*
D03*
X674414Y490949D02*
D03*
X672980Y506550D02*
D03*
X667209Y511277D02*
D03*
X659982Y507742D02*
D03*
X652078Y493037D02*
D03*
X624250Y458260D02*
D03*
X619414Y452807D02*
D03*
X670238Y501314D02*
D03*
X628952Y465538D02*
D03*
X629449Y472116D02*
D03*
X717355Y393592D02*
D03*
X717414Y395141D02*
D03*
X717331Y401368D02*
D03*
X712577Y393359D02*
D03*
X636345Y364161D02*
D03*
X632615Y334112D02*
D03*
X631297Y371217D02*
D03*
X620951Y370248D02*
D03*
X665383Y363354D02*
D03*
X655358Y361845D02*
D03*
X667840Y362064D02*
D03*
X615889Y338018D02*
D03*
X599398Y342566D02*
D03*
X562100Y345620D02*
D03*
X559350Y344850D02*
D03*
X620290Y336930D02*
D03*
X498190Y357060D02*
D03*
X513102Y357742D02*
D03*
X376957Y193492D02*
D03*
X409958Y330000D02*
D03*
X429440Y330880D02*
D03*
X500830Y329120D02*
D03*
X712699Y392958D02*
D03*
X657710Y490041D02*
D03*
X694511Y493211D02*
D03*
X654907Y491679D02*
D03*
X692592Y494450D02*
D03*
X659879Y480384D02*
D03*
X658947Y477694D02*
D03*
X652939Y484260D02*
D03*
X652364Y489321D02*
D03*
X659789Y476417D02*
D03*
X649172Y488193D02*
D03*
X642246Y480986D02*
D03*
X614414Y494577D02*
D03*
X610766Y480844D02*
D03*
X546475Y475918D02*
D03*
X600009Y477866D02*
D03*
X680414Y457401D02*
D03*
X684750Y453200D02*
D03*
X665716Y461268D02*
D03*
X664993Y459116D02*
D03*
X663080Y456443D02*
D03*
X650980Y462000D02*
D03*
X621380Y444595D02*
D03*
X657672Y480242D02*
D03*
X666264Y476044D02*
D03*
Y467228D02*
D03*
X660110Y468348D02*
D03*
X666034Y465098D02*
D03*
X630326Y459544D02*
D03*
X664064Y468056D02*
D03*
X662414Y491295D02*
D03*
X525431Y452456D02*
D03*
X476410Y460240D02*
D03*
X534643Y423492D02*
D03*
X499510Y421520D02*
D03*
X652859Y465381D02*
D03*
X650414Y466617D02*
D03*
X665698Y450240D02*
D03*
X894080Y437580D02*
D03*
X1039170Y475200D02*
D03*
X650864Y459166D02*
D03*
X817800Y371680D02*
D03*
X824322Y356730D02*
D03*
X840871Y364992D02*
D03*
X816617Y346630D02*
D03*
X824890Y354750D02*
D03*
X861190Y350020D02*
D03*
X794770Y350080D02*
D03*
X761530Y347160D02*
D03*
X698360Y341750D02*
D03*
X704290Y340570D02*
D03*
X715414Y343712D02*
D03*
X709500Y335500D02*
D03*
X705412Y337095D02*
D03*
X724570Y339570D02*
D03*
X721089Y348242D02*
D03*
X720258Y340890D02*
D03*
X857954Y374564D02*
D03*
X801584Y430022D02*
D03*
X798063Y430318D02*
D03*
X803902Y425518D02*
D03*
X805800Y436634D02*
D03*
X739298Y418417D02*
D03*
X729151Y409393D02*
D03*
X724872Y396935D02*
D03*
X728443Y396198D02*
D03*
X823090Y440240D02*
D03*
X825800Y449220D02*
D03*
X822640Y439340D02*
D03*
X711415Y392168D02*
D03*
X769836Y414324D02*
D03*
X858525Y453530D02*
D03*
X678757Y471835D02*
D03*
X658867Y469937D02*
D03*
X669246Y475294D02*
D03*
X652384Y471650D02*
D03*
X692670Y524810D02*
D03*
X732160Y560230D02*
D03*
X909150Y718410D02*
D03*
X668372Y491492D02*
D03*
X663426Y493601D02*
D03*
X932360Y738430D02*
D03*
X729061Y384727D02*
D03*
X750489Y385025D02*
D03*
X803360Y394280D02*
D03*
X855684Y426080D02*
D03*
X729745Y383714D02*
D03*
X872681Y426312D02*
D03*
X870362Y424608D02*
D03*
X866291Y421638D02*
D03*
X847328Y409394D02*
D03*
X826870Y406560D02*
D03*
X754414Y382514D02*
D03*
X731935Y376612D02*
D03*
X727328Y376828D02*
D03*
X717024Y369710D02*
D03*
X711544Y363362D02*
D03*
X721318Y362333D02*
D03*
X757030Y368728D02*
D03*
X778250Y376970D02*
D03*
X798094Y380974D02*
D03*
X819400Y388830D02*
D03*
X798692Y376984D02*
D03*
X797360Y387200D02*
D03*
X818440Y344346D02*
D03*
X786564Y340671D02*
D03*
X778580Y338910D02*
D03*
X763510Y339790D02*
D03*
X846818Y350830D02*
D03*
X783980Y340340D02*
D03*
X792550Y337700D02*
D03*
X748440Y340890D02*
D03*
X719180Y316360D02*
D03*
X823945Y321630D02*
D03*
X647614Y470972D02*
D03*
X667414Y384492D02*
D03*
X670323Y455881D02*
D03*
X680680Y559680D02*
D03*
X667918Y445238D02*
D03*
X669646Y426908D02*
D03*
X665942Y501781D02*
D03*
X662932Y333926D02*
D03*
X662414Y490141D02*
D03*
X677922Y497506D02*
D03*
X907280Y779570D02*
D03*
X667532Y525382D02*
D03*
X648890Y525470D02*
D03*
X636460Y496055D02*
D03*
X654824Y523060D02*
D03*
X607012Y458620D02*
D03*
X667693Y478708D02*
D03*
X730950Y476520D02*
D03*
X656414Y451492D02*
D03*
X757460Y483560D02*
D03*
X496760Y483340D02*
D03*
X579700Y771760D02*
D03*
X564414Y461712D02*
D03*
X831822Y341870D02*
D03*
X643414Y412492D02*
D03*
X767580Y399960D02*
D03*
X721710Y392658D02*
D03*
X870670Y432209D02*
D03*
X775720Y386100D02*
D03*
X727328Y383714D02*
D03*
X733128Y380912D02*
D03*
X726021Y386816D02*
D03*
X765121Y435242D02*
D03*
X787600Y470580D02*
D03*
X657973Y464486D02*
D03*
X678260Y469920D02*
D03*
X833910Y527890D02*
D03*
X907170Y561880D02*
D03*
X983180Y606980D02*
D03*
X672400Y491492D02*
D03*
X770660Y525910D02*
D03*
X624395Y463492D02*
D03*
X659816Y538484D02*
D03*
X699224Y697180D02*
D03*
X746020Y753610D02*
D03*
X756580Y367510D02*
D03*
X719414Y359772D02*
D03*
X717774Y367274D02*
D03*
X789358Y391334D02*
D03*
X824414Y399066D02*
D03*
X817882Y397598D02*
D03*
X807392Y393588D02*
D03*
X854668Y435992D02*
D03*
X811569Y425440D02*
D03*
X809355Y425806D02*
D03*
X749430Y390390D02*
D03*
X830624Y435904D02*
D03*
X653999Y383504D02*
D03*
X659276Y374570D02*
D03*
X691952Y373598D02*
D03*
X674428Y419992D02*
D03*
X622517Y418853D02*
D03*
X614778Y419105D02*
D03*
X627264Y483492D02*
D03*
X619067Y485423D02*
D03*
X621280Y489720D02*
D03*
X620168Y487838D02*
D03*
X653400Y663960D02*
D03*
X639650Y724240D02*
D03*
X684750Y714450D02*
D03*
X695090Y551992D02*
D03*
X668902Y395492D02*
D03*
X650414Y384692D02*
D03*
X659019Y370387D02*
D03*
X658733Y358289D02*
D03*
X687486Y479194D02*
D03*
X671956Y397926D02*
D03*
X648695Y388644D02*
D03*
X663414Y371492D02*
D03*
X761530Y333230D02*
D03*
X793087Y334750D02*
D03*
X885940Y382140D02*
D03*
X892518Y384680D02*
D03*
X963710Y324830D02*
D03*
X379720Y438020D02*
D03*
X629856Y449606D02*
D03*
X684414Y429492D02*
D03*
X685876Y417520D02*
D03*
X664948Y336600D02*
D03*
X637769Y334411D02*
D03*
X711500Y323370D02*
D03*
X693770Y320760D02*
D03*
X702065Y330656D02*
D03*
X746159Y327366D02*
D03*
X734718Y333052D02*
D03*
X811743Y342731D02*
D03*
X813670Y353540D02*
D03*
X820050Y350020D02*
D03*
X874467Y363347D02*
D03*
X850261Y367547D02*
D03*
X870320Y369100D02*
D03*
X838299Y387761D02*
D03*
X821254Y363265D02*
D03*
X817300Y361460D02*
D03*
X777408Y411356D02*
D03*
X782100Y402050D02*
D03*
X822648Y388080D02*
D03*
X776600Y360470D02*
D03*
X781853Y363083D02*
D03*
X729080Y323840D02*
D03*
X772165Y334750D02*
D03*
X742830Y371910D02*
D03*
X845790Y366056D02*
D03*
X748208Y355069D02*
D03*
X785750Y350080D02*
D03*
X611291Y344017D02*
D03*
X615400Y360042D02*
D03*
X556527Y503564D02*
D03*
X594316Y538656D02*
D03*
X608080Y576840D02*
D03*
X581558Y764060D02*
D03*
X631846Y326584D02*
D03*
X612260Y347050D02*
D03*
X673278Y421779D02*
D03*
X699930Y426056D02*
D03*
X645286Y490656D02*
D03*
X687801Y351174D02*
D03*
X688414Y351492D02*
D03*
X799040Y335500D02*
D03*
X944215Y310995D02*
D03*
X636228Y489378D02*
D03*
X694430Y343530D02*
D03*
X924414Y476406D02*
D03*
X612370Y383240D02*
D03*
X671509Y392350D02*
D03*
X684806Y431026D02*
D03*
X658459Y399447D02*
D03*
X649671Y402749D02*
D03*
X661454Y382492D02*
D03*
X659780Y333300D02*
D03*
X680171Y319878D02*
D03*
X679920Y323310D02*
D03*
X821260Y315370D02*
D03*
X643414Y429492D02*
D03*
X792330Y297880D02*
D03*
X897582Y287297D02*
D03*
X874414Y443492D02*
D03*
X873309Y439439D02*
D03*
X724305Y388282D02*
D03*
X734272Y397188D02*
D03*
X734414Y363492D02*
D03*
X557040Y363660D02*
D03*
X621914Y371142D02*
D03*
X620840Y326150D02*
D03*
X636514Y337450D02*
D03*
X643748Y367704D02*
D03*
X630414Y403704D02*
D03*
X628259Y408492D02*
D03*
X630414Y401229D02*
D03*
X600837Y395684D02*
D03*
X584161Y394288D02*
D03*
X632414Y358522D02*
D03*
X620330Y397875D02*
D03*
X641414Y362492D02*
D03*
D03*
X620957Y373492D02*
D03*
X639643Y458992D02*
D03*
X653910Y475840D02*
D03*
X672914Y493492D02*
D03*
X604414Y463492D02*
D03*
X687324Y553907D02*
D03*
X720415Y713599D02*
D03*
X528330Y522390D02*
D03*
X564517Y480234D02*
D03*
X542410Y460900D02*
D03*
X632418Y324545D02*
D03*
X635030Y322221D02*
D03*
X587436Y358130D02*
D03*
X613030Y369930D02*
D03*
X651669Y432778D02*
D03*
X647794Y450664D02*
D03*
X672166Y473687D02*
D03*
X718300Y530640D02*
D03*
X897600Y730070D02*
D03*
X677064Y480910D02*
D03*
X889414Y763492D02*
D03*
X874610Y803000D02*
D03*
X484330Y507650D02*
D03*
X639650Y514690D02*
D03*
X656920Y518430D02*
D03*
X683194Y548248D02*
D03*
X692193Y560683D02*
D03*
X665390Y553630D02*
D03*
X657910Y552860D02*
D03*
X604414Y516406D02*
D03*
X583650Y520327D02*
D03*
X512050Y500500D02*
D03*
X867469Y376065D02*
D03*
X867019Y359613D02*
D03*
X854668Y358680D02*
D03*
X804760Y349250D02*
D03*
X531850Y383460D02*
D03*
X569360Y370915D02*
D03*
X653290Y409640D02*
D03*
X650865Y419100D02*
D03*
X620400Y728090D02*
D03*
X750483Y753073D02*
D03*
X739200Y776820D02*
D03*
X702790Y538340D02*
D03*
X888030Y744920D02*
D03*
X534380Y561880D02*
D03*
Y560450D02*
D03*
X574414Y486626D02*
D03*
X583650Y522559D02*
D03*
X584760Y561990D02*
D03*
X476630Y721050D02*
D03*
X597138Y477840D02*
D03*
X459470Y763510D02*
D03*
X435600Y609180D02*
D03*
X575630Y458640D02*
D03*
X605550Y506000D02*
D03*
X708728Y500190D02*
D03*
X821040Y530090D02*
D03*
X934892Y570920D02*
D03*
X597112Y486584D02*
D03*
X660110Y501710D02*
D03*
X676940Y684750D02*
D03*
X471900Y611600D02*
D03*
X378620Y474650D02*
D03*
X531300Y459470D02*
D03*
X728764Y519355D02*
D03*
X969210Y651640D02*
D03*
X806300Y651090D02*
D03*
X746680Y648780D02*
D03*
X672650Y626340D02*
D03*
X525250Y555830D02*
D03*
X393250Y461340D02*
D03*
X439340Y720390D02*
D03*
X641213Y382492D02*
D03*
X711603Y523665D02*
D03*
X890670Y743160D02*
D03*
X711413Y407492D02*
D03*
X722334Y403018D02*
D03*
X747120Y438058D02*
D03*
X721134Y411425D02*
D03*
X815557Y457932D02*
D03*
X817871Y463490D02*
D03*
X863610Y387530D02*
D03*
X822493Y431962D02*
D03*
X842557Y413492D02*
D03*
X822493Y431212D02*
D03*
X838347Y411629D02*
D03*
X784183Y418131D02*
D03*
X763070Y404580D02*
D03*
X684414Y386492D02*
D03*
X689414Y383492D02*
D03*
X672296Y337737D02*
D03*
X515130Y356730D02*
D03*
X434414Y315413D02*
D03*
X354640Y306350D02*
D03*
X470580Y301510D02*
D03*
X489280Y308330D02*
D03*
X508090Y305470D02*
D03*
X533830Y308110D02*
D03*
X617377Y442485D02*
D03*
X597112Y515159D02*
D03*
X903002Y718838D02*
D03*
X902880Y727870D02*
D03*
X899690Y723360D02*
D03*
X725914Y429712D02*
D03*
X740796Y433896D02*
D03*
X739441Y431041D02*
D03*
X841280Y463870D02*
D03*
X838347Y411938D02*
D03*
X774510Y319880D02*
D03*
X741730Y308110D02*
D03*
X662414Y479492D02*
D03*
X725914Y437703D02*
D03*
X732424Y434064D02*
D03*
X760782Y421308D02*
D03*
X703414Y470582D02*
D03*
X736180Y338420D02*
D03*
X709689Y431411D02*
D03*
X719414Y486917D02*
D03*
X714340Y498300D02*
D03*
X747780Y521510D02*
D03*
X708494Y488992D02*
D03*
X674850Y567860D02*
D03*
X673970Y541706D02*
D03*
X577280Y502370D02*
D03*
X798100Y403492D02*
D03*
X801460Y406890D02*
D03*
X800100Y411620D02*
D03*
X795800Y412476D02*
D03*
X793871Y423492D02*
D03*
X796032Y406803D02*
D03*
X795800Y396010D02*
D03*
X715000Y495880D02*
D03*
X758450Y455730D02*
D03*
X1088450Y486420D02*
D03*
X778910Y486272D02*
D03*
X668796Y467534D02*
D03*
X609250Y379850D02*
D03*
X576620Y407110D02*
D03*
X658570Y726220D02*
D03*
X703883Y561006D02*
D03*
X903320Y718520D02*
D03*
X900130Y735900D02*
D03*
X1058970Y532510D02*
D03*
X889503Y429651D02*
D03*
X938488Y424180D02*
D03*
X825684Y378180D02*
D03*
X843260Y377360D02*
D03*
X884730Y375320D02*
D03*
X889800Y443180D02*
D03*
X592680Y434500D02*
D03*
X804430Y761970D02*
D03*
X774414Y611492D02*
D03*
X780450Y720720D02*
D03*
X1084414Y626492D02*
D03*
X997590Y657140D02*
D03*
X717774Y363083D02*
D03*
X931376Y436492D02*
D03*
X902110Y429770D02*
D03*
X330414Y436494D02*
D03*
X276430Y412170D02*
D03*
X361419Y389950D02*
D03*
X350460Y412720D02*
D03*
X352990Y413160D02*
D03*
X345510Y390170D02*
D03*
X416790Y412390D02*
D03*
X304414Y413492D02*
D03*
X292160Y413270D02*
D03*
X268584Y382992D02*
D03*
X231053Y303396D02*
D03*
X284414Y358488D02*
D03*
Y360492D02*
D03*
X278740Y374220D02*
D03*
X222224Y401696D02*
D03*
X171914Y410367D02*
D03*
X218548Y412780D02*
D03*
X182710Y400510D02*
D03*
X195250D02*
D03*
X202180Y384450D02*
D03*
X161810Y400180D02*
D03*
X654414Y339492D02*
D03*
X630630Y361240D02*
D03*
X624414Y369178D02*
D03*
X630414Y418004D02*
D03*
X618414Y467384D02*
D03*
X626560Y504020D02*
D03*
X643720Y323180D02*
D03*
X637450Y359040D02*
D03*
X638076Y339154D02*
D03*
X680790Y721160D02*
D03*
X751850Y545380D02*
D03*
X764414Y504035D02*
D03*
X783294Y496868D02*
D03*
X844414Y494035D02*
D03*
X936870Y395670D02*
D03*
X1035320Y410190D02*
D03*
X1087020Y406340D02*
D03*
X1137871Y323492D02*
D03*
X952050Y267960D02*
D03*
X909810Y280940D02*
D03*
X689414Y356492D02*
D03*
X680678Y315896D02*
D03*
X658414Y382492D02*
D03*
X832040Y455730D02*
D03*
X805945Y463228D02*
D03*
X841060Y425590D02*
D03*
X809800Y430180D02*
D03*
X762850Y401390D02*
D03*
X689643Y419707D02*
D03*
X1026190Y388520D02*
D03*
X1064580Y386760D02*
D03*
X424710Y166760D02*
D03*
X443960Y178860D02*
D03*
X374516Y391610D02*
D03*
X553157Y322377D02*
D03*
X530728Y299949D02*
D03*
X529940Y345770D02*
D03*
X670890Y299090D02*
D03*
X878460Y429880D02*
D03*
X913660Y435820D02*
D03*
X944900Y446600D02*
D03*
X1036420Y479380D02*
D03*
X1124414Y500492D02*
D03*
X968770Y453750D02*
D03*
X824414Y406642D02*
D03*
X793756Y376183D02*
D03*
X688418Y309546D02*
D03*
X584414Y248034D02*
D03*
X518876Y368060D02*
D03*
X497640Y395890D02*
D03*
X641758Y336724D02*
D03*
X644356Y340788D02*
D03*
X491702Y381428D02*
D03*
X498080Y405790D02*
D03*
X623920Y327360D02*
D03*
X513370Y265760D02*
D03*
X633938Y343293D02*
D03*
X689711Y421789D02*
D03*
X688850Y399492D02*
D03*
X889800Y397680D02*
D03*
X899690Y395560D02*
D03*
X885830Y399740D02*
D03*
X871310Y286110D02*
D03*
X886545Y284908D02*
D03*
X884180Y276210D02*
D03*
X1057210Y385000D02*
D03*
X1238132Y444695D02*
D03*
X1192400Y411400D02*
D03*
X1215888Y447160D02*
D03*
X1126180Y599940D02*
D03*
X1169080Y686510D02*
D03*
X844414Y763492D02*
D03*
X336930Y331650D02*
D03*
X744150Y454850D02*
D03*
X1132120Y645810D02*
D03*
X1029160Y251790D02*
D03*
X660770Y392810D02*
D03*
X585414Y269842D02*
D03*
X674960Y371724D02*
D03*
X686290Y331650D02*
D03*
X687372Y342228D02*
D03*
X690414Y335492D02*
D03*
X583440Y727650D02*
D03*
X813340Y367070D02*
D03*
X788920Y355960D02*
D03*
X688728Y325492D02*
D03*
X686290Y339680D02*
D03*
X918610Y717310D02*
D03*
X691020Y460900D02*
D03*
X825800Y365180D02*
D03*
X690414Y339492D02*
D03*
X815870Y332310D02*
D03*
X826980Y329890D02*
D03*
X572880Y215820D02*
D03*
X394414Y201034D02*
D03*
X364210Y320100D02*
D03*
X486876Y448992D02*
D03*
X986920Y359700D02*
D03*
X903430Y340340D02*
D03*
X599060Y262680D02*
D03*
X480920Y246180D02*
D03*
X396770Y233310D02*
D03*
X440990Y245080D02*
D03*
X439120Y217690D02*
D03*
X294360Y333190D02*
D03*
X172150Y364540D02*
D03*
D101*
X684414Y445742D02*
D03*
X719414Y462742D02*
D03*
X639624Y469242D02*
D03*
X615809Y464388D02*
D03*
X512335Y475408D02*
D03*
X670514Y511752D02*
D03*
X654591Y496563D02*
D03*
X716593Y397699D02*
D03*
X711343Y393366D02*
D03*
X661664Y360492D02*
D03*
X439124Y343582D02*
D03*
X498560Y319850D02*
D03*
X711414Y385242D02*
D03*
X713664Y387492D02*
D03*
X651563Y481768D02*
D03*
X650414Y477742D02*
D03*
X660264Y486495D02*
D03*
X605432Y473742D02*
D03*
X591633Y482678D02*
D03*
X672298Y445742D02*
D03*
X661664Y459459D02*
D03*
X633594Y445468D02*
D03*
X646388Y482358D02*
D03*
X648912Y476994D02*
D03*
X640076Y471403D02*
D03*
X642414Y473742D02*
D03*
X652103Y477200D02*
D03*
X670044Y474111D02*
D03*
X682655Y465500D02*
D03*
X662004Y461858D02*
D03*
X881800Y447480D02*
D03*
X1080159Y456612D02*
D03*
X1142450Y479910D02*
D03*
X825229Y361616D02*
D03*
X713664Y347342D02*
D03*
X709664D02*
D03*
X705570Y335350D02*
D03*
X860777Y346751D02*
D03*
X857800Y385471D02*
D03*
X858138Y380718D02*
D03*
X858007Y367173D02*
D03*
X801376Y434904D02*
D03*
X806036Y434684D02*
D03*
X720112Y397417D02*
D03*
X677359Y506422D02*
D03*
X713694Y548070D02*
D03*
X939414Y758992D02*
D03*
X917448Y740542D02*
D03*
X653557Y605456D02*
D03*
X781418Y385951D02*
D03*
X801216Y393042D02*
D03*
X825800Y414879D02*
D03*
X858804Y428984D02*
D03*
X873800Y427980D02*
D03*
X857800Y420179D02*
D03*
X809800Y399880D02*
D03*
X711414Y369242D02*
D03*
X863702Y368650D02*
D03*
X857800Y354380D02*
D03*
X848042Y347424D02*
D03*
X817800Y340380D02*
D03*
X792315Y346166D02*
D03*
X658414Y473742D02*
D03*
X670414Y340325D02*
D03*
X658414Y349242D02*
D03*
X669943Y348419D02*
D03*
X675051Y429795D02*
D03*
X677992Y428346D02*
D03*
X672493Y453116D02*
D03*
X685928Y573517D02*
D03*
X944414Y767993D02*
D03*
X924414Y780050D02*
D03*
X1273514Y709992D02*
D03*
X1274414Y617394D02*
D03*
X620661Y446969D02*
D03*
X621384Y450938D02*
D03*
X615414Y432742D02*
D03*
X611336Y431492D02*
D03*
X607164Y427492D02*
D03*
Y439492D02*
D03*
X597414Y426404D02*
D03*
X615414Y444079D02*
D03*
X607937Y467788D02*
D03*
X609304Y473630D02*
D03*
X615809Y461742D02*
D03*
X683472Y633492D02*
D03*
X709126Y718994D02*
D03*
X666976Y446473D02*
D03*
X619414Y432742D02*
D03*
X650414Y445742D02*
D03*
X654374Y445473D02*
D03*
X1003302Y615992D02*
D03*
X589414Y454992D02*
D03*
X533866Y450815D02*
D03*
X713359Y399356D02*
D03*
X715330Y401326D02*
D03*
X705570Y382604D02*
D03*
X712428Y380544D02*
D03*
X712174Y377364D02*
D03*
X714149Y373524D02*
D03*
X707414Y385242D02*
D03*
X589429Y429748D02*
D03*
X628414Y432742D02*
D03*
X652356Y469550D02*
D03*
X658414Y467148D02*
D03*
X653657Y469695D02*
D03*
X674414Y461742D02*
D03*
X861128Y523492D02*
D03*
X821190D02*
D03*
X791128D02*
D03*
X622815Y459962D02*
D03*
X715229Y369744D02*
D03*
X709273Y366027D02*
D03*
X775229Y426640D02*
D03*
X801735Y428044D02*
D03*
X713812Y379344D02*
D03*
X683925Y366242D02*
D03*
X674660Y412488D02*
D03*
X615414Y420005D02*
D03*
X610372Y418258D02*
D03*
X625788Y420693D02*
D03*
X622315Y500330D02*
D03*
X625641Y519269D02*
D03*
X639414Y758992D02*
D03*
X686414Y473742D02*
D03*
X683038Y426640D02*
D03*
X675526Y425492D02*
D03*
X667879Y391003D02*
D03*
X645799Y391936D02*
D03*
X658635Y392242D02*
D03*
X645177D02*
D03*
X645414Y379242D02*
D03*
X650945D02*
D03*
X645735Y386492D02*
D03*
X654414Y379242D02*
D03*
X653153Y377872D02*
D03*
X657918Y365746D02*
D03*
X653884Y366242D02*
D03*
X652089Y351567D02*
D03*
X645735Y360492D02*
D03*
X889800Y380380D02*
D03*
X684414Y392242D02*
D03*
X680414Y379242D02*
D03*
X684414D02*
D03*
X655609Y432742D02*
D03*
X628384Y443695D02*
D03*
X605414Y446198D02*
D03*
X511914Y435992D02*
D03*
X687664Y429492D02*
D03*
X664863Y378993D02*
D03*
X660464Y399492D02*
D03*
X811249Y359311D02*
D03*
X801882Y380462D02*
D03*
X817800Y385680D02*
D03*
X711414Y344342D02*
D03*
X700314Y345242D02*
D03*
X873800Y384910D02*
D03*
X863600Y378180D02*
D03*
X855229Y369744D02*
D03*
X873800Y380380D02*
D03*
X833800Y386880D02*
D03*
X622414Y349242D02*
D03*
X607164Y367492D02*
D03*
X587968Y375591D02*
D03*
X629715Y758992D02*
D03*
X612352Y671594D02*
D03*
X584414Y767992D02*
D03*
X594414Y767992D02*
D03*
X466048Y344090D02*
D03*
X417280Y348030D02*
D03*
X676414Y392242D02*
D03*
X684414Y419742D02*
D03*
X697664Y419492D02*
D03*
X690414Y353242D02*
D03*
X904198Y279066D02*
D03*
X622935Y386492D02*
D03*
X685642Y404215D02*
D03*
X680414Y405242D02*
D03*
X687664Y412492D02*
D03*
X680414Y431026D02*
D03*
X694414Y465742D02*
D03*
X645397Y417261D02*
D03*
X646896Y408224D02*
D03*
X641414Y419742D02*
D03*
X1025414Y358272D02*
D03*
X675664Y408492D02*
D03*
X676414Y405242D02*
D03*
X634164Y442492D02*
D03*
X641414Y432742D02*
D03*
X655895Y405242D02*
D03*
X809800Y434479D02*
D03*
X589414Y353447D02*
D03*
X597419Y353252D02*
D03*
X511914Y374657D02*
D03*
X639424Y349172D02*
D03*
X633072Y405299D02*
D03*
X637414Y405242D02*
D03*
X630386Y345242D02*
D03*
X643594Y353234D02*
D03*
X638414Y353242D02*
D03*
X635550Y345648D02*
D03*
X635019Y356492D02*
D03*
X634772Y361100D02*
D03*
X620194Y367021D02*
D03*
X618414Y353242D02*
D03*
X622935Y379242D02*
D03*
X624414D02*
D03*
X637414Y445742D02*
D03*
X614414Y767992D02*
D03*
X546734Y498395D02*
D03*
X650414Y337242D02*
D03*
X648362Y334496D02*
D03*
X652164Y339492D02*
D03*
X621164Y412492D02*
D03*
X672664Y471492D02*
D03*
X881846Y686990D02*
D03*
X597787Y333406D02*
D03*
X586513Y329104D02*
D03*
X579840Y344344D02*
D03*
X583797Y411866D02*
D03*
X483066Y499792D02*
D03*
X589414Y397242D02*
D03*
X868952Y358152D02*
D03*
X867019Y363960D02*
D03*
X719414Y336242D02*
D03*
X881800Y373880D02*
D03*
X674901Y360492D02*
D03*
X658204Y379242D02*
D03*
X674664Y356492D02*
D03*
X667414Y379242D02*
D03*
X649477Y405347D02*
D03*
X662208Y387035D02*
D03*
X660638Y409518D02*
D03*
X645414Y405242D02*
D03*
X647164Y412492D02*
D03*
X620732Y429492D02*
D03*
X627638Y422326D02*
D03*
X631557Y461742D02*
D03*
X634164Y459492D02*
D03*
X636990Y458222D02*
D03*
X635974Y454532D02*
D03*
X638414Y477742D02*
D03*
Y473630D02*
D03*
X884414Y767993D02*
D03*
X874414D02*
D03*
X864414D02*
D03*
X854414D02*
D03*
X593922Y560864D02*
D03*
X614414Y526462D02*
D03*
X585229Y467280D02*
D03*
X454414Y758992D02*
D03*
X620480Y502677D02*
D03*
X612352Y535591D02*
D03*
X588006Y478138D02*
D03*
X583527Y475249D02*
D03*
X853652Y605202D02*
D03*
X600668Y500554D02*
D03*
X1016914Y642540D02*
D03*
X351414Y456017D02*
D03*
X296418Y436510D02*
D03*
X304914Y468492D02*
D03*
X719414Y413742D02*
D03*
X865800Y414979D02*
D03*
X863600Y391180D02*
D03*
Y384680D02*
D03*
X833800Y421480D02*
D03*
Y367380D02*
D03*
X809785Y421495D02*
D03*
X689414Y379242D02*
D03*
X693414D02*
D03*
Y391581D02*
D03*
X611336Y424398D02*
D03*
X607164Y451492D02*
D03*
X669985Y482358D02*
D03*
X697664Y335492D02*
D03*
X692315Y329104D02*
D03*
X670414Y469242D02*
D03*
X697664Y479492D02*
D03*
X758656Y374307D02*
D03*
X856429Y329020D02*
D03*
X705569Y342860D02*
D03*
X708594D02*
D03*
X742315Y337232D02*
D03*
X725282Y345360D02*
D03*
X871600Y349080D02*
D03*
X718854Y449181D02*
D03*
X727664Y444492D02*
D03*
X701190Y453492D02*
D03*
X719414Y437742D02*
D03*
X691880Y431026D02*
D03*
X687664Y442492D02*
D03*
Y438492D02*
D03*
X674664Y439204D02*
D03*
X674698Y445742D02*
D03*
X651918Y347246D02*
D03*
X646326Y349112D02*
D03*
X678414Y353242D02*
D03*
X689672Y360478D02*
D03*
X684706Y362440D02*
D03*
X689065Y366242D02*
D03*
X702381Y378775D02*
D03*
X700942Y384704D02*
D03*
X694276Y366242D02*
D03*
X687664Y369492D02*
D03*
X719414Y409242D02*
D03*
X701760Y492123D02*
D03*
X712319Y515395D02*
D03*
X719359Y759047D02*
D03*
X669248Y542677D02*
D03*
X714414Y767993D02*
D03*
X593414Y459742D02*
D03*
X831808Y353953D02*
D03*
X792315Y369744D02*
D03*
X801800Y421480D02*
D03*
Y414979D02*
D03*
X881800Y460560D02*
D03*
X857800D02*
D03*
X889800D02*
D03*
X1133414Y467367D02*
D03*
X615414Y392242D02*
D03*
X619414D02*
D03*
X674161Y382979D02*
D03*
X674664Y399400D02*
D03*
X946914Y686992D02*
D03*
X909414Y750353D02*
D03*
X869414Y758992D02*
D03*
X646414Y465742D02*
D03*
X686414Y468428D02*
D03*
X1068909Y393590D02*
D03*
X880172Y389551D02*
D03*
X881800Y380380D02*
D03*
Y440980D02*
D03*
X593414Y425930D02*
D03*
X589414Y426742D02*
D03*
Y468742D02*
D03*
X595104Y448968D02*
D03*
X592970Y449742D02*
D03*
X622414Y473742D02*
D03*
X642324Y477694D02*
D03*
X593302Y473630D02*
D03*
Y469566D02*
D03*
X844414Y766992D02*
D03*
X859414Y758992D02*
D03*
X725474Y357552D02*
D03*
X867754Y431631D02*
D03*
X887600Y456180D02*
D03*
X871432D02*
D03*
X944414Y442993D02*
D03*
X320414Y437992D02*
D03*
X222208Y381177D02*
D03*
X350098Y393991D02*
D03*
X490432Y412252D02*
D03*
X231945Y369744D02*
D03*
X353914Y312542D02*
D03*
X557488Y183562D02*
D03*
X301094Y408492D02*
D03*
X650414Y332772D02*
D03*
X626040Y363868D02*
D03*
X624040Y365868D02*
D03*
X632414Y366242D02*
D03*
X627809Y379242D02*
D03*
Y405242D02*
D03*
X633019Y379242D02*
D03*
X634164Y408492D02*
D03*
Y416492D02*
D03*
X631462Y431790D02*
D03*
X637414Y432742D02*
D03*
X622414Y469242D02*
D03*
X634388Y349550D02*
D03*
X857800Y473480D02*
D03*
X832575Y380668D02*
D03*
X701664Y367492D02*
D03*
X699414Y365242D02*
D03*
X687664Y386492D02*
D03*
X641414Y379242D02*
D03*
X598973Y386000D02*
D03*
X568203Y404626D02*
D03*
X625052Y348854D02*
D03*
X873800Y473480D02*
D03*
X865800Y467820D02*
D03*
X862625Y460479D02*
D03*
X858340Y440440D02*
D03*
X879410Y423491D02*
D03*
X865707Y434387D02*
D03*
X865800Y440980D02*
D03*
Y427980D02*
D03*
X868975Y421480D02*
D03*
X857800Y434479D02*
D03*
X835472Y410141D02*
D03*
X700866Y412392D02*
D03*
X367918Y274494D02*
D03*
X387625Y239696D02*
D03*
X374516Y386254D02*
D03*
X647164Y455492D02*
D03*
X674664Y369492D02*
D03*
X721764Y377242D02*
D03*
X1142315Y516011D02*
D03*
X1035008Y475591D02*
D03*
X889800Y434479D02*
D03*
X817800Y393380D02*
D03*
X589664Y244442D02*
D03*
X637414Y378242D02*
D03*
X628929Y342028D02*
D03*
X634414Y339453D02*
D03*
X496914Y400992D02*
D03*
Y415992D02*
D03*
X495347Y434425D02*
D03*
X491914Y430992D02*
D03*
X650945Y366242D02*
D03*
X645735Y364478D02*
D03*
X693414Y421462D02*
D03*
X687664Y425492D02*
D03*
X689634Y405242D02*
D03*
X686880Y399492D02*
D03*
X693414Y405242D02*
D03*
X687664Y408492D02*
D03*
X593414Y454992D02*
D03*
X857043Y390423D02*
D03*
X836126Y391334D02*
D03*
X855229Y394128D02*
D03*
X824442Y422322D02*
D03*
X809800Y414979D02*
D03*
X889800Y393380D02*
D03*
X896832Y402677D02*
D03*
X889800Y367380D02*
D03*
X873800Y373880D02*
D03*
X889800Y386880D02*
D03*
X881800Y399880D02*
D03*
X873800D02*
D03*
X978445Y473492D02*
D03*
X1221952Y465802D02*
D03*
X834414Y784112D02*
D03*
X751239Y413541D02*
D03*
X766784Y522677D02*
D03*
X569414Y758992D02*
D03*
X919414Y758992D02*
D03*
X274414Y316415D02*
D03*
X542248Y493492D02*
D03*
X1174208Y475416D02*
D03*
X1164555Y467781D02*
D03*
X1160414Y479617D02*
D03*
X650414Y465742D02*
D03*
X1109857Y461946D02*
D03*
X611844Y524176D02*
D03*
X381974Y767000D02*
D03*
X661664Y429492D02*
D03*
Y421492D02*
D03*
X914414Y767993D02*
D03*
X674664Y442492D02*
D03*
X676414Y432742D02*
D03*
X1174414Y616778D02*
D03*
Y616886D02*
D03*
X996159Y509698D02*
D03*
X807089Y618620D02*
D03*
X813865Y604186D02*
D03*
X724112Y553492D02*
D03*
X955362Y503492D02*
D03*
X809800Y440980D02*
D03*
X711414Y401242D02*
D03*
X703414Y377242D02*
D03*
X674664Y386492D02*
D03*
X676414Y379242D02*
D03*
X657582Y423492D02*
D03*
X709664Y359492D02*
D03*
X634164Y382492D02*
D03*
X754414Y767993D02*
D03*
X904414D02*
D03*
X619414Y405242D02*
D03*
X1037548Y363492D02*
D03*
X1084414Y321484D02*
D03*
X1034414Y360242D02*
D03*
X594414Y561461D02*
D03*
Y560498D02*
D03*
X314414Y422830D02*
D03*
Y400242D02*
D03*
X547328Y294053D02*
D03*
X506914Y370992D02*
D03*
X881800Y386880D02*
D03*
X879014Y352180D02*
D03*
X811488Y551608D02*
D03*
X1109682Y497506D02*
D03*
X1127972Y376348D02*
D03*
X348954Y772080D02*
D03*
X429414Y767992D02*
D03*
X602700Y451532D02*
D03*
X566378Y400478D02*
D03*
X1117050Y243506D02*
D03*
X1049994Y243492D02*
D03*
Y243506D02*
D03*
X809710Y447468D02*
D03*
X707414Y403018D02*
D03*
X705664Y371492D02*
D03*
X699414Y361242D02*
D03*
X889414Y758992D02*
D03*
X434816Y388354D02*
D03*
X434806Y383597D02*
D03*
X515367Y333368D02*
D03*
X515324Y333422D02*
D03*
X644414Y767993D02*
D03*
X649414Y758992D02*
D03*
X618414Y345242D02*
D03*
X742400Y616632D02*
D03*
X678414Y462228D02*
D03*
Y461742D02*
D03*
X678392Y461692D02*
D03*
X320414Y420544D02*
D03*
X321776Y304212D02*
D03*
X764414Y493272D02*
D03*
X894414Y767993D02*
D03*
X1151414Y343607D02*
D03*
X642414Y469742D02*
D03*
X809710Y460422D02*
D03*
X704808Y407492D02*
D03*
X344636Y493492D02*
D03*
X650414Y432742D02*
D03*
X1008225Y674467D02*
D03*
X1258020Y166036D02*
D03*
X1004764Y625992D02*
D03*
X607164Y431492D02*
D03*
X817800Y427980D02*
D03*
X697664Y460492D02*
D03*
X833800Y354380D02*
D03*
X335414Y370242D02*
D03*
X473599Y451024D02*
D03*
X1348343Y686736D02*
D03*
X1398914Y682992D02*
D03*
X1370414Y659492D02*
D03*
X1360914Y671492D02*
D03*
X1306914Y676992D02*
D03*
X1251414Y786992D02*
D03*
X1217414D02*
D03*
X1238208Y749164D02*
D03*
X1213824Y702440D02*
D03*
X1398914Y623992D02*
D03*
X1246336Y647421D02*
D03*
X1334821Y629840D02*
D03*
X1293599Y581072D02*
D03*
X1246336Y607421D02*
D03*
X1221952Y573742D02*
D03*
X1181312Y576993D02*
D03*
X1090414Y788992D02*
D03*
X1158414D02*
D03*
X999414Y792992D02*
D03*
X1014414Y629492D02*
D03*
X1011914Y633142D02*
D03*
X1008225Y683492D02*
D03*
X984414Y780050D02*
D03*
X974414Y767992D02*
D03*
X979414Y758992D02*
D03*
X989414Y746935D02*
D03*
X1140672Y605771D02*
D03*
X1075648D02*
D03*
X1174414Y586716D02*
D03*
X1108160Y572677D02*
D03*
X1059392Y565912D02*
D03*
X1016914Y613842D02*
D03*
X995364Y620992D02*
D03*
X1002496Y565961D02*
D03*
X1205696Y511471D02*
D03*
X1357914Y480992D02*
D03*
X1187414Y467367D02*
D03*
X1059392Y525591D02*
D03*
X1148800Y465802D02*
D03*
X1075648D02*
D03*
X1019445Y503492D02*
D03*
X1181312Y452677D02*
D03*
X1224919Y420612D02*
D03*
X1081159Y438612D02*
D03*
Y420612D02*
D03*
X1004414Y442993D02*
D03*
X1068909Y429612D02*
D03*
X929344Y495591D02*
D03*
X914414Y524742D02*
D03*
X891190Y523492D02*
D03*
X880576Y478933D02*
D03*
X863914Y551492D02*
D03*
X881800Y453979D02*
D03*
X889800Y447480D02*
D03*
Y421480D02*
D03*
X865800Y453979D02*
D03*
X857800Y447480D02*
D03*
X873800Y421480D02*
D03*
Y434479D02*
D03*
X837151Y618620D02*
D03*
X804914Y575492D02*
D03*
X848064Y512677D02*
D03*
X769414Y792992D02*
D03*
X759414Y758992D02*
D03*
X774414Y588461D02*
D03*
X750528Y573092D02*
D03*
X842315Y475408D02*
D03*
X833800Y473480D02*
D03*
X848064Y462677D02*
D03*
X833800Y460479D02*
D03*
X817800Y473480D02*
D03*
X797101Y467280D02*
D03*
X801800Y460479D02*
D03*
X734414Y767992D02*
D03*
X714414Y576778D02*
D03*
X706914Y686992D02*
D03*
X684414Y767992D02*
D03*
X703414Y476265D02*
D03*
X715414Y473742D02*
D03*
X825800Y453979D02*
D03*
X844828Y439942D02*
D03*
X833800Y447480D02*
D03*
X809800Y453979D02*
D03*
X754414Y446778D02*
D03*
X817800Y434479D02*
D03*
Y421480D02*
D03*
X807424Y419134D02*
D03*
X715414Y454742D02*
D03*
X701664Y451492D02*
D03*
X693414Y445742D02*
D03*
X701664Y427492D02*
D03*
Y439492D02*
D03*
X699414Y429742D02*
D03*
X719414Y425742D02*
D03*
X684414Y432742D02*
D03*
X1390914Y415992D02*
D03*
X1224919Y402612D02*
D03*
X1081159D02*
D03*
X1120243Y391620D02*
D03*
X1133585D02*
D03*
X1068909Y411612D02*
D03*
X1041164Y403492D02*
D03*
X921216Y418338D02*
D03*
Y388646D02*
D03*
X1088585Y386000D02*
D03*
X1212669Y375612D02*
D03*
X1284414Y362992D02*
D03*
X1182702Y369744D02*
D03*
X978112Y382677D02*
D03*
X944414Y383992D02*
D03*
X1081159Y366612D02*
D03*
X1068909Y375612D02*
D03*
X879600Y417179D02*
D03*
X888704Y401023D02*
D03*
X865800Y399880D02*
D03*
X848064Y405591D02*
D03*
X1187414Y343607D02*
D03*
X1156513Y329104D02*
D03*
X1198914Y320242D02*
D03*
X1073599Y329104D02*
D03*
X1043586Y359245D02*
D03*
X937472Y355961D02*
D03*
X1017664Y347992D02*
D03*
X986240Y335591D02*
D03*
X961856Y302677D02*
D03*
X1390914Y265992D02*
D03*
X1194414Y282992D02*
D03*
X1154414Y270206D02*
D03*
X1290914Y165992D02*
D03*
X1058664Y250492D02*
D03*
X1134414Y90492D02*
D03*
X940914Y95992D02*
D03*
X889800Y354380D02*
D03*
X881800Y360880D02*
D03*
X873800Y341380D02*
D03*
X863600Y358680D02*
D03*
X929344Y315961D02*
D03*
X890056Y329104D02*
D03*
X896832Y312677D02*
D03*
X874414Y276778D02*
D03*
X848064Y305961D02*
D03*
X872448Y217134D02*
D03*
X831808Y413390D02*
D03*
X828000Y397680D02*
D03*
X833800Y380380D02*
D03*
X817800D02*
D03*
X722815Y418512D02*
D03*
X701664Y403492D02*
D03*
X687664Y416492D02*
D03*
X689414Y392242D02*
D03*
X801800Y368278D02*
D03*
X828000Y358680D02*
D03*
X801800Y354380D02*
D03*
X833914Y178492D02*
D03*
X790914Y95992D02*
D03*
X789383Y293492D02*
D03*
X769445Y273492D02*
D03*
X718016Y305591D02*
D03*
X764414Y222992D02*
D03*
X726144Y195591D02*
D03*
X703733Y352923D02*
D03*
X687664Y373492D02*
D03*
X692664Y331492D02*
D03*
X704414Y230206D02*
D03*
X681664Y331492D02*
D03*
X683414Y138492D02*
D03*
X674414Y767992D02*
D03*
X669414Y758992D02*
D03*
X679414D02*
D03*
X669248Y666868D02*
D03*
X648672Y556688D02*
D03*
X647164Y459492D02*
D03*
X624414Y767992D02*
D03*
X612352Y639936D02*
D03*
X609414Y758992D02*
D03*
X634164Y451492D02*
D03*
X680414Y445742D02*
D03*
X671414Y432742D02*
D03*
X667414D02*
D03*
X658414D02*
D03*
X647164Y442492D02*
D03*
X645414Y432742D02*
D03*
X680414Y419742D02*
D03*
X667414D02*
D03*
X661664Y412492D02*
D03*
Y416492D02*
D03*
X624414Y432742D02*
D03*
X619414Y419742D02*
D03*
X621164Y416492D02*
D03*
X564414Y767992D02*
D03*
X554414Y783992D02*
D03*
X494414Y792992D02*
D03*
X469414Y767992D02*
D03*
X399414D02*
D03*
X579414Y758992D02*
D03*
X572315Y637968D02*
D03*
X547328Y545591D02*
D03*
X506914Y686992D02*
D03*
X506688Y542677D02*
D03*
X414414Y758992D02*
D03*
X464414D02*
D03*
X469445Y513492D02*
D03*
X369414Y767992D02*
D03*
X329414Y783992D02*
D03*
X339414Y767992D02*
D03*
X384414Y758992D02*
D03*
X354414D02*
D03*
X257414Y778492D02*
D03*
X236414Y779492D02*
D03*
X207414Y778492D02*
D03*
X86914Y721992D02*
D03*
X282414Y683492D02*
D03*
X327872Y537135D02*
D03*
X201414Y550492D02*
D03*
X363664Y504742D02*
D03*
X86914Y624992D02*
D03*
X84414Y560992D02*
D03*
X64414Y515992D02*
D03*
X44414Y560992D02*
D03*
Y525992D02*
D03*
X579840Y495591D02*
D03*
X475229Y475408D02*
D03*
X557664Y473492D02*
D03*
X571712Y452677D02*
D03*
X502335Y451024D02*
D03*
X599164Y439492D02*
D03*
X607164Y415492D02*
D03*
X501914Y444167D02*
D03*
X491914D02*
D03*
X501862Y441118D02*
D03*
X491956D02*
D03*
X476914Y420992D02*
D03*
X466914Y410992D02*
D03*
X429568Y475408D02*
D03*
X409152Y477134D02*
D03*
X435242Y451024D02*
D03*
X337414Y459192D02*
D03*
X367538Y445510D02*
D03*
X352256Y432677D02*
D03*
X254720Y457421D02*
D03*
X315229Y451024D02*
D03*
X296418Y445510D02*
D03*
X409152Y432677D02*
D03*
X335414Y430992D02*
D03*
X376640Y421098D02*
D03*
X164414Y431492D02*
D03*
X325414Y430992D02*
D03*
X147414Y428492D02*
D03*
X88414Y427992D02*
D03*
X155414Y423492D02*
D03*
X671414Y405242D02*
D03*
X663414D02*
D03*
X667414D02*
D03*
X658414D02*
D03*
X671414Y379242D02*
D03*
X641414Y405242D02*
D03*
Y392242D02*
D03*
X621164Y408492D02*
D03*
X624414Y405242D02*
D03*
X615414D02*
D03*
X634164Y386492D02*
D03*
X615414Y379242D02*
D03*
X676414Y366242D02*
D03*
X681164Y192492D02*
D03*
X661664Y356492D02*
D03*
X658414Y341242D02*
D03*
X658164Y282542D02*
D03*
X654414Y190206D02*
D03*
X641414Y366242D02*
D03*
X622414Y341242D02*
D03*
X624414Y285743D02*
D03*
X630914Y95992D02*
D03*
X611164Y407492D02*
D03*
X607164Y403492D02*
D03*
Y391492D02*
D03*
Y379492D02*
D03*
X605414Y353242D02*
D03*
X602315Y377872D02*
D03*
X571712Y375591D02*
D03*
X599164Y367492D02*
D03*
X501914Y380992D02*
D03*
X491956Y370760D02*
D03*
X422616Y391529D02*
D03*
X481796Y390826D02*
D03*
X484621Y369744D02*
D03*
X481914Y387817D02*
D03*
X412315Y369744D02*
D03*
X311616Y391413D02*
D03*
X254429Y385992D02*
D03*
X491914Y367817D02*
D03*
X368512Y362677D02*
D03*
X475229Y361616D02*
D03*
X273490Y363492D02*
D03*
X336000Y362677D02*
D03*
X88414Y363992D02*
D03*
X531072Y315591D02*
D03*
X515367Y342392D02*
D03*
X467638Y293492D02*
D03*
X525720Y259650D02*
D03*
X613914Y188492D02*
D03*
Y138492D02*
D03*
X571712Y224307D02*
D03*
X498560Y221393D02*
D03*
X466048Y233071D02*
D03*
X449792Y264968D02*
D03*
Y209564D02*
D03*
X441664Y323742D02*
D03*
X445139Y300928D02*
D03*
X417280Y285591D02*
D03*
X394414Y299192D02*
D03*
X212315Y304720D02*
D03*
X323586Y301620D02*
D03*
X447414Y100492D02*
D03*
X434414Y202992D02*
D03*
X360485Y239696D02*
D03*
X84414Y235992D02*
D03*
Y270992D02*
D03*
X64414Y280992D02*
D03*
X44414Y235992D02*
D03*
X317414Y101492D02*
D03*
X630414Y349242D02*
D03*
X644864Y292932D02*
D03*
X496914Y430992D02*
D03*
X498560Y252138D02*
D03*
X496914Y410992D02*
D03*
X664422Y741092D02*
D03*
Y353484D02*
D03*
X654414Y767992D02*
D03*
X659414Y758992D02*
D03*
X873800Y367380D02*
D03*
X825800Y374062D02*
D03*
X692616Y339518D02*
D03*
X858772Y329104D02*
D03*
X315426Y430958D02*
D03*
X360130Y296338D02*
D03*
X301202Y324278D02*
D03*
X1133414Y343607D02*
D03*
X1160414Y384546D02*
D03*
X439414Y767992D02*
D03*
X449414D02*
D03*
X394420Y758872D02*
D03*
X404414Y650580D02*
D03*
X809710Y467026D02*
D03*
X707414Y409368D02*
D03*
X825712Y467026D02*
D03*
X711412Y405306D02*
D03*
X814790Y454072D02*
D03*
X865800Y447480D02*
D03*
X703538Y361362D02*
D03*
X1076410Y614600D02*
D03*
X1151414Y467367D02*
D03*
X605414Y489632D02*
D03*
X349414Y688689D02*
D03*
X881338Y571674D02*
D03*
X571901Y561461D02*
D03*
Y561260D02*
D03*
X1006914Y613842D02*
D03*
X828000Y462679D02*
D03*
X878346Y468529D02*
D03*
X709380Y387492D02*
D03*
X959414Y758992D02*
D03*
X739383Y270317D02*
D03*
X680414Y366242D02*
D03*
X611164Y387492D02*
D03*
X658164Y257142D02*
D03*
X501914Y375992D02*
D03*
X497290Y378492D02*
D03*
X166914Y433674D02*
D03*
X954414Y767993D02*
D03*
X389414Y780716D02*
D03*
X729414Y758992D02*
D03*
X821902Y427910D02*
D03*
X964414Y767993D02*
D03*
X701664Y391492D02*
D03*
X699414Y389242D02*
D03*
X687664Y395492D02*
D03*
X601414Y389242D02*
D03*
X668664Y269842D02*
D03*
X491914Y375992D02*
D03*
X626414Y345242D02*
D03*
Y341167D02*
D03*
X1124416Y516596D02*
D03*
X504746Y369744D02*
D03*
X496914Y375992D02*
D03*
X669248Y640122D02*
D03*
X496914Y370992D02*
D03*
X403060Y369744D02*
D03*
X619414Y758992D02*
D03*
X599414Y769286D02*
D03*
X878625Y367380D02*
D03*
X557664Y482492D02*
D03*
X556694Y394128D02*
D03*
X1115414Y343582D02*
D03*
X644356Y465550D02*
D03*
X591164Y465492D02*
D03*
X444414Y758992D02*
D03*
X707414Y390318D02*
D03*
X881800Y427910D02*
D03*
X719540Y373300D02*
D03*
X1181312Y425298D02*
D03*
X611336Y395492D02*
D03*
X501914Y370992D02*
D03*
X642414Y345242D02*
D03*
X498560Y346595D02*
D03*
X604414Y767992D02*
D03*
X618414Y341242D02*
D03*
X881800Y347880D02*
D03*
X744414Y767992D02*
D03*
X646414Y473742D02*
D03*
X1169414Y343607D02*
D03*
X1178414Y355857D02*
D03*
X597112Y481504D02*
D03*
X1196414Y484806D02*
D03*
X724414Y767992D02*
D03*
X881800Y466980D02*
D03*
X686414Y461742D02*
D03*
X849414Y758992D02*
D03*
X727664Y453492D02*
D03*
X171914Y440492D02*
D03*
X273490Y369992D02*
D03*
X580164Y282542D02*
D03*
X506914Y375992D02*
D03*
X505974Y361616D02*
D03*
X949414Y747641D02*
D03*
X361074Y198294D02*
D03*
X360328Y331752D02*
D03*
X818292Y414487D02*
D03*
X161914Y406492D02*
D03*
X181414Y423492D02*
D03*
X1224919Y456612D02*
D03*
X459414Y767993D02*
D03*
X879414Y758992D02*
D03*
X934414Y767993D02*
D03*
X899414Y758992D02*
D03*
X315414Y383992D02*
D03*
X340414Y437992D02*
D03*
X325414Y383992D02*
D03*
X347914Y428492D02*
D03*
Y418492D02*
D03*
X300914Y398492D02*
D03*
X865800Y473480D02*
D03*
X873800Y466980D02*
D03*
X817800D02*
D03*
X889800Y360880D02*
D03*
X833800Y466980D02*
D03*
X857800Y347880D02*
D03*
X889800Y440980D02*
D03*
Y373880D02*
D03*
X833800Y453979D02*
D03*
X817800Y440980D02*
D03*
X887600Y397680D02*
D03*
X833800Y440980D02*
D03*
X873800Y414979D02*
D03*
X833800Y427980D02*
D03*
X273490Y382992D02*
D03*
X1033163Y250492D02*
D03*
X1125665D02*
D03*
X1100164D02*
D03*
X577046Y329104D02*
D03*
X89390Y378492D02*
D03*
X1107398Y25320D02*
D03*
X935948Y284908D02*
D03*
X731478Y351492D02*
D03*
X1092158Y348662D02*
D03*
X1174414Y389810D02*
D03*
X352764Y247824D02*
D03*
X231860Y403272D02*
D03*
X824414Y216582D02*
D03*
X525818Y381682D02*
D03*
X668740Y244522D02*
D03*
X1254414Y490140D02*
D03*
X1097914Y313142D02*
D03*
X521420Y241332D02*
D03*
X907914Y113872D02*
D03*
X1106382Y356028D02*
D03*
X790914Y47164D02*
D03*
X1307042Y709992D02*
D03*
X1357842Y416226D02*
D03*
X317458Y52498D02*
D03*
X549868Y183562D02*
D03*
X38058Y475408D02*
D03*
X909532Y459152D02*
D03*
X466048Y201342D02*
D03*
X1101302Y25432D02*
D03*
X356066Y407336D02*
D03*
X361146Y447976D02*
D03*
X831808Y256460D02*
D03*
X228304Y768270D02*
D03*
X1257512Y661474D02*
D03*
X387562Y587168D02*
D03*
X84414Y534590D02*
D03*
X541994Y479472D02*
D03*
X623528Y561006D02*
D03*
X866352Y566602D02*
D03*
X497544Y285924D02*
D03*
X694414Y597582D02*
D03*
X1238414Y778938D02*
D03*
X209000Y283492D02*
D03*
X490178Y70786D02*
D03*
X377214Y240392D02*
D03*
X171914Y406492D02*
D03*
X437336Y133492D02*
D03*
X174414Y396414D02*
D03*
X1194414Y223992D02*
D03*
X275929Y341959D02*
D03*
X88414Y393492D02*
D03*
X658076Y163492D02*
D03*
X419820Y496998D02*
D03*
X656548Y503602D02*
D03*
X1097414Y465424D02*
D03*
X949272Y473492D02*
D03*
X704414Y272716D02*
D03*
X1086824Y483282D02*
D03*
X697442Y345360D02*
D03*
X1137930Y293492D02*
D03*
X867904Y516048D02*
D03*
X1124414Y355774D02*
D03*
X1212554Y411612D02*
D03*
X1198584Y649144D02*
D03*
X814914Y193468D02*
D03*
X682202Y397430D02*
D03*
X511260Y293492D02*
D03*
X429414Y187118D02*
D03*
X453602Y370502D02*
D03*
X219668Y423846D02*
D03*
X431504Y233492D02*
D03*
X1004274Y253492D02*
D03*
X1251162Y389810D02*
D03*
X955914Y526870D02*
D03*
X809456Y250110D02*
D03*
X44408Y270938D02*
D03*
X1317456Y393492D02*
D03*
X1147784Y544496D02*
D03*
X528104Y350590D02*
D03*
X424414Y180028D02*
D03*
X464414Y184883D02*
D03*
X506434Y459152D02*
D03*
X604478Y163492D02*
D03*
X1134414Y722804D02*
D03*
X1021914Y633142D02*
D03*
X1114414Y687752D02*
D03*
X500338Y207692D02*
D03*
X451824Y520620D02*
D03*
X603716Y617902D02*
D03*
X479002Y183492D02*
D03*
X237702Y323492D02*
D03*
X764414Y463724D02*
D03*
X904414Y259254D02*
D03*
X373592Y496236D02*
D03*
X364702Y287142D02*
D03*
X427623Y301926D02*
D03*
X511260Y391588D02*
D03*
X351240Y471598D02*
D03*
X531914Y467534D02*
D03*
X235416Y376602D02*
D03*
X330414Y378634D02*
D03*
X307044Y287142D02*
D03*
Y373300D02*
D03*
X225510Y363140D02*
D03*
X579840Y511476D02*
D03*
X424414Y226292D02*
D03*
X508895Y383206D02*
D03*
X1116288Y612060D02*
D03*
X1088970Y668702D02*
D03*
X656548Y503492D02*
D03*
X1212808Y438612D02*
D03*
X1176994Y513492D02*
D03*
X1205414Y363492D02*
D03*
X268944Y376492D02*
D03*
X474414Y125317D02*
D03*
X418864Y499792D02*
D03*
X410770Y453995D02*
D03*
X1101414Y98726D02*
D03*
X1290914Y98799D02*
D03*
X757914Y95932D02*
D03*
X1371304Y201088D02*
D03*
X874414Y246716D02*
D03*
X439383Y513492D02*
D03*
X915671Y571461D02*
D03*
X136414Y583492D02*
D03*
X1154414Y303443D02*
D03*
X364448Y436546D02*
D03*
X299668Y423338D02*
D03*
X874414Y246554D02*
D03*
X654414Y220268D02*
D03*
X703284Y739822D02*
D03*
X698714Y619492D02*
D03*
X704414Y263444D02*
D03*
X174414Y396492D02*
D03*
X434414Y758992D02*
D03*
X819445Y293492D02*
D03*
X949383Y470317D02*
D03*
X1189948Y320214D02*
D03*
X1101278D02*
D03*
X1097914Y312340D02*
D03*
X1044170Y338992D02*
D03*
X1257978Y295322D02*
D03*
X422914Y191492D02*
D03*
X152612Y583492D02*
D03*
X338714Y206317D02*
D03*
X430914Y191492D02*
D03*
X340995Y406267D02*
D03*
X464914Y158492D02*
D03*
X108162Y398492D02*
D03*
X373684Y482012D02*
D03*
X380958Y209724D02*
D03*
X1357914Y200834D02*
D03*
X1258020Y100758D02*
D03*
X506960Y720010D02*
D03*
X640800Y686992D02*
D03*
X441664Y703500D02*
D03*
X282698Y716454D02*
D03*
X1390914Y560700D02*
D03*
X284414Y76882D02*
D03*
X1239732Y676992D02*
D03*
X973032Y719992D02*
D03*
X690838Y173910D02*
D03*
X754338D02*
D03*
X330414Y437992D02*
D03*
X205588Y325929D02*
D03*
X414414Y75866D02*
D03*
X938488Y33448D02*
D03*
X1121368Y25828D02*
D03*
X597914Y71548D02*
D03*
X561298Y363492D02*
D03*
X1205414Y343607D02*
D03*
X1225000Y366612D02*
D03*
X1275670Y261461D02*
D03*
X521420Y250110D02*
D03*
X904414Y160486D02*
D03*
X764414Y163992D02*
D03*
X173414Y418492D02*
D03*
X147414D02*
D03*
X1075648Y434877D02*
D03*
X1068909Y447612D02*
D03*
X1142414Y355857D02*
D03*
X1139869Y369744D02*
D03*
X1148800Y668987D02*
D03*
X1004414Y383992D02*
D03*
X254720Y430281D02*
D03*
X1148800Y434877D02*
D03*
X1059392Y539358D02*
D03*
X277414Y483492D02*
D03*
X307414Y223492D02*
D03*
X340414Y390992D02*
D03*
X961413Y183492D02*
D03*
X872448Y190579D02*
D03*
X1221952Y605037D02*
D03*
X969414Y746934D02*
D03*
X483914Y158492D02*
D03*
X664414Y138492D02*
D03*
X1124416Y645232D02*
D03*
X401024Y368236D02*
D03*
X345414Y383992D02*
D03*
X409152Y450209D02*
D03*
X376640Y425232D02*
D03*
X335414Y383992D02*
D03*
X320414Y390992D02*
D03*
D102*
X844000Y640000D02*
D03*
X721318Y360672D02*
D03*
X590173Y519523D02*
D03*
X591760Y517935D02*
D03*
X590000Y522525D02*
D03*
X305266Y347780D02*
D03*
X621888Y498014D02*
D03*
X590000Y640000D02*
D03*
X733677Y543059D02*
D03*
X590000Y386000D02*
D03*
X436076Y494966D02*
D03*
X415248Y469385D02*
D03*
X701252Y542972D02*
D03*
X690076Y444166D02*
D03*
X1024340Y532812D02*
D03*
X265134Y332914D02*
D03*
X316188Y480234D02*
D03*
X717000Y259000D02*
D03*
X1225000Y513000D02*
D03*
X181706Y405420D02*
D03*
X759222Y484806D02*
D03*
X1273768Y742616D02*
D03*
X1194012Y747823D02*
D03*
X1352000Y640000D02*
D03*
X1361398Y605964D02*
D03*
X1323806Y588184D02*
D03*
X1225000Y640000D02*
D03*
X1051264Y788082D02*
D03*
X1170644Y713914D02*
D03*
X998940Y715184D02*
D03*
X918930Y645588D02*
D03*
X1342475Y513000D02*
D03*
X1248114Y488108D02*
D03*
X1164802Y491664D02*
D03*
X1083776Y549068D02*
D03*
X1098000Y513000D02*
D03*
X1374352Y448484D02*
D03*
X1157436Y422068D02*
D03*
X1038564Y436292D02*
D03*
X970492Y548306D02*
D03*
X957919Y463470D02*
D03*
X951569Y463328D02*
D03*
X844000Y519350D02*
D03*
Y516175D02*
D03*
X834348Y563546D02*
D03*
X802090Y788590D02*
D03*
X773896Y627554D02*
D03*
X760688Y484806D02*
D03*
X734018Y679624D02*
D03*
X991320Y412924D02*
D03*
X1225000Y386000D02*
D03*
X1098000Y384476D02*
D03*
X971000Y386000D02*
D03*
X1251162Y360346D02*
D03*
X1225000Y340280D02*
D03*
X1212046Y289734D02*
D03*
X1352000Y255825D02*
D03*
X1321520Y144954D02*
D03*
X1158706Y238172D02*
D03*
X1174708Y74850D02*
D03*
X1134576Y299640D02*
D03*
X972778Y71548D02*
D03*
X863558Y173910D02*
D03*
X806662Y266366D02*
D03*
X812250Y265350D02*
D03*
X817584Y111426D02*
D03*
X809075Y265350D02*
D03*
X743670Y163750D02*
D03*
X717000Y132000D02*
D03*
X692108Y281352D02*
D03*
X627338Y571674D02*
D03*
X524468Y760904D02*
D03*
X579840Y539343D02*
D03*
X504148Y649144D02*
D03*
X466302Y549322D02*
D03*
X343874Y768778D02*
D03*
X385022Y749220D02*
D03*
X295614Y788082D02*
D03*
X313902Y691562D02*
D03*
X234146Y559990D02*
D03*
X336000Y513000D02*
D03*
X86826Y673528D02*
D03*
X586317Y490902D02*
D03*
X603462Y425370D02*
D03*
X227796Y467026D02*
D03*
X119846Y445436D02*
D03*
X663406Y227504D02*
D03*
X666200Y101520D02*
D03*
X622258Y224710D02*
D03*
X209000Y386000D02*
D03*
X585174Y305482D02*
D03*
X496782Y276526D02*
D03*
X590000Y132000D02*
D03*
X531072Y214550D02*
D03*
X463000Y259000D02*
D03*
X480780Y176704D02*
D03*
X477478Y74088D02*
D03*
X122894Y339518D02*
D03*
X197062Y336597D02*
D03*
X430742Y255952D02*
D03*
X365210Y279066D02*
D03*
X342096Y225599D02*
D03*
X338032Y75358D02*
D03*
X75142Y178482D02*
D03*
D103*
X1202392Y450220D02*
D03*
X1205414Y466597D02*
D03*
X1088414Y356627D02*
D03*
X87644Y383492D02*
D03*
Y413492D02*
D03*
X696894Y407492D02*
D03*
Y399492D02*
D03*
Y395492D02*
D03*
Y383492D02*
D03*
Y375492D02*
D03*
X599934Y415492D02*
D03*
X708894D02*
D03*
X696894Y371492D02*
D03*
X609414Y440972D02*
D03*
X696894Y443492D02*
D03*
X708894Y427492D02*
D03*
X659894Y343492D02*
D03*
X708894Y439492D02*
D03*
X632934Y471492D02*
D03*
X599934Y451492D02*
D03*
X708894D02*
D03*
X589414Y436972D02*
D03*
X700894Y464492D02*
D03*
X699414Y467972D02*
D03*
X667894Y331492D02*
D03*
X640934D02*
D03*
X589414Y448972D02*
D03*
X707414Y465972D02*
D03*
X679894Y483492D02*
D03*
X628934Y331492D02*
D03*
Y483492D02*
D03*
X691894D02*
D03*
X601414Y472972D02*
D03*
X707414D02*
D03*
X597414D02*
D03*
X711414Y471012D02*
D03*
X707414Y463012D02*
D03*
X858414Y399463D02*
D03*
X845460Y425040D02*
D03*
X805384Y467992D02*
D03*
X887444D02*
D03*
X813384Y337992D02*
D03*
X879444D02*
D03*
X813384Y474492D02*
D03*
X879444D02*
D03*
X805384Y337992D02*
D03*
X887444D02*
D03*
X802414Y471522D02*
D03*
X890414D02*
D03*
X476914Y390992D02*
D03*
X466914Y400992D02*
D03*
X486914Y420992D02*
D03*
X471914Y390992D02*
D03*
X466914Y395992D02*
D03*
X486914Y415992D02*
D03*
X466914Y390992D02*
D03*
X491914D02*
D03*
X466914Y420993D02*
D03*
X476914Y380992D02*
D03*
X481914D02*
D03*
X456914Y400992D02*
D03*
Y410992D02*
D03*
X501914Y405992D02*
D03*
X481914Y425992D02*
D03*
X471914Y380992D02*
D03*
X456914Y395992D02*
D03*
Y415992D02*
D03*
X501914Y400992D02*
D03*
X476914Y425992D02*
D03*
X496914Y390993D02*
D03*
X466914Y380992D02*
D03*
X456914Y390992D02*
D03*
X491914Y385992D02*
D03*
X456914Y420992D02*
D03*
X501914Y395992D02*
D03*
X471914Y430992D02*
D03*
X506914Y415992D02*
D03*
X476914Y375992D02*
D03*
X481914D02*
D03*
X476914Y430992D02*
D03*
X481914D02*
D03*
X451914Y400992D02*
D03*
Y410992D02*
D03*
X471914Y375992D02*
D03*
X476914Y435992D02*
D03*
X506914Y410992D02*
D03*
X461914Y380992D02*
D03*
X456914Y385992D02*
D03*
Y425992D02*
D03*
X501914Y390992D02*
D03*
X466914Y430992D02*
D03*
X506914Y420992D02*
D03*
X451914Y395992D02*
D03*
Y415992D02*
D03*
X466914Y375992D02*
D03*
X471914Y435992D02*
D03*
X511914Y415992D02*
D03*
X451914Y390992D02*
D03*
Y420992D02*
D03*
X456914Y380992D02*
D03*
Y430992D02*
D03*
X506914Y425992D02*
D03*
X461914Y375992D02*
D03*
X466914Y435992D02*
D03*
X511914Y420992D02*
D03*
X476914Y370992D02*
D03*
X481914D02*
D03*
X446914Y400992D02*
D03*
Y410992D02*
D03*
X511914D02*
D03*
X481914Y440992D02*
D03*
X481914Y435992D02*
D03*
X451914Y385992D02*
D03*
Y425992D02*
D03*
X471914Y370992D02*
D03*
X446914Y395992D02*
D03*
Y415992D02*
D03*
X516914Y410992D02*
D03*
X476914Y440992D02*
D03*
X466914Y370992D02*
D03*
X446914Y390992D02*
D03*
Y420992D02*
D03*
X516914Y415992D02*
D03*
X471914Y440992D02*
D03*
X456914Y375992D02*
D03*
X461914Y430992D02*
D03*
X511914Y425992D02*
D03*
X501914Y430992D02*
D03*
X451914Y380992D02*
D03*
Y430992D02*
D03*
X461914Y370992D02*
D03*
X446914Y385992D02*
D03*
Y425992D02*
D03*
X466914Y440992D02*
D03*
X516914Y420992D02*
D03*
X451914Y375992D02*
D03*
Y435992D02*
D03*
X456914Y370992D02*
D03*
X446914Y380992D02*
D03*
Y430992D02*
D03*
X461914Y435992D02*
D03*
X516914Y425992D02*
D03*
Y380992D02*
D03*
X446914Y435992D02*
D03*
X516914Y430992D02*
D03*
X506914Y440992D02*
D03*
X456914Y435992D02*
D03*
X446914Y440992D02*
D03*
X516914Y435992D02*
D03*
X234584Y383242D02*
D03*
D104*
X1206819Y429612D02*
D03*
X1106414Y485467D02*
D03*
X1196414Y376794D02*
D03*
X244414Y761642D02*
D03*
X1023832Y679815D02*
D03*
X1039314Y615992D02*
D03*
X974274Y620992D02*
D03*
X130564Y550492D02*
D03*
D105*
X430914Y191492D02*
D03*
X422914D02*
D03*
Y198492D02*
D03*
X430914D02*
D03*
D106*
X718557Y454850D02*
X744150D01*
X712658Y448951D02*
X718557Y454850D01*
X687066Y448951D02*
X712658D01*
X685169Y447054D02*
X687066Y448951D01*
X672980Y506550D02*
Y508790D01*
X672746Y509024D02*
X672980Y508790D01*
X671323Y509024D02*
X672746D01*
X669071Y511277D02*
X671323Y509024D01*
X667209Y511277D02*
X669071D01*
X624250Y457643D02*
Y458260D01*
X619414Y452807D02*
X624250Y457643D01*
X654824Y497603D02*
Y523060D01*
X651581Y494687D02*
X652333Y495439D01*
X654739D01*
X655491Y496191D01*
X654824Y497603D02*
X655491Y496936D01*
X651395Y494687D02*
X651581D01*
X655491Y496191D02*
Y496936D01*
X650428Y492659D02*
Y493720D01*
X649434Y491665D02*
X650428Y492659D01*
Y493720D02*
X651395Y494687D01*
X649434Y490789D02*
Y491665D01*
X717355Y393592D02*
Y395083D01*
X717414Y395141D01*
X636345Y364161D02*
X636790Y363716D01*
Y361189D02*
Y363716D01*
X636093Y360492D02*
X636790Y361189D01*
X636093Y353062D02*
Y360492D01*
Y353062D02*
X636450Y352705D01*
Y345275D02*
Y352705D01*
X636064Y344889D02*
X636450Y345275D01*
X636064Y337561D02*
Y344889D01*
X632615Y334112D02*
X636064Y337561D01*
X630919Y375464D02*
X638680Y367704D01*
X643748D01*
X630919Y375464D02*
Y403199D01*
X711414Y380247D02*
Y385242D01*
X657710Y489692D02*
Y490041D01*
Y489692D02*
X658890Y488513D01*
Y488181D02*
Y488513D01*
X658594Y487885D02*
X658890Y488181D01*
X658594Y485803D02*
Y487885D01*
Y485803D02*
X659572Y484825D01*
X678865D01*
X679202Y485162D01*
X681251D01*
X689300Y493211D01*
X694511D01*
X657672Y480242D02*
X657980Y479934D01*
X659958D02*
X663847Y476044D01*
X657980Y479934D02*
X659958D01*
X637514Y478868D02*
X649434Y490789D01*
X663847Y476044D02*
X666264D01*
X660110Y468348D02*
X662784D01*
X666034Y465098D01*
X665019Y491295D02*
X666255Y492531D01*
X662414Y491295D02*
X665019D01*
X517647Y460240D02*
X525431Y452456D01*
X476410Y460240D02*
X517647D01*
X507052Y423492D02*
X534643D01*
X505080Y421520D02*
X507052Y423492D01*
X499510Y421520D02*
X505080D01*
X798359Y430022D02*
X801584D01*
X798063Y430318D02*
X798359Y430022D01*
X807742Y438922D02*
X809800Y440980D01*
X807742Y438577D02*
Y438922D01*
X805800Y436634D02*
X807742Y438577D01*
X719165Y394266D02*
X727148D01*
X731855Y398973D01*
X777750D01*
X822640Y439340D02*
Y446059D01*
X825800Y449220D01*
X710141Y385242D02*
X719165Y394266D01*
X662414Y490141D02*
X668665D01*
X670465Y491942D01*
X672358D01*
X861116Y430731D02*
X869191D01*
X857071Y431310D02*
X857616Y431854D01*
X856611Y430850D02*
X857071Y431310D01*
X859993Y431854D02*
X861116Y430731D01*
X851809Y430850D02*
X856611D01*
X857616Y431854D02*
X859993D01*
X672358Y491942D02*
X677922Y497506D01*
X636460Y513040D02*
X648890Y525470D01*
X636460Y496055D02*
Y513040D01*
X641537Y412492D02*
X643414D01*
X633445Y404399D02*
X641537Y412492D01*
X629924Y404399D02*
X633445D01*
X628182Y406142D02*
X629924Y404399D01*
X624041Y406142D02*
X628182D01*
X623141Y405242D02*
X624041Y406142D01*
X619414Y405242D02*
X623141D01*
X712055Y379606D02*
X712801D01*
X711414Y380247D02*
X712055Y379606D01*
X707414Y385242D02*
X710141D01*
X777750Y398973D02*
X790942Y412165D01*
X869191Y430731D02*
X870670Y432209D01*
X848039Y427080D02*
X851809Y430850D01*
X832586Y427080D02*
X848039D01*
X830856Y428810D02*
X832586Y427080D01*
X821529Y428810D02*
X830856D01*
X778819Y386100D02*
X821529Y428810D01*
X775720Y386100D02*
X778819D01*
X624395Y463492D02*
X624655Y463233D01*
X629907D01*
X637514Y470840D01*
Y478868D01*
X811357Y425440D02*
X811569D01*
X811274Y425356D02*
X811357Y425440D01*
X807939Y425356D02*
X811274D01*
X794747Y412165D02*
X807939Y425356D01*
X790942Y412165D02*
X794747D01*
X712801Y379606D02*
X723585Y390390D01*
X749430D01*
X621991Y418326D02*
X622517Y418853D01*
X618774Y418326D02*
X621991D01*
X617994Y419105D02*
X618774Y418326D01*
X614778Y419105D02*
X617994D01*
X854637Y375718D02*
X863600Y384680D01*
X854637Y374903D02*
Y375718D01*
X845790Y366056D02*
X854637Y374903D01*
X874414Y440544D02*
Y443492D01*
X873309Y439439D02*
X874414Y440544D01*
X630414Y403704D02*
X630919Y403199D01*
X672914Y493492D02*
X715314Y535891D01*
X491702Y381428D02*
X494380Y384106D01*
X519863D01*
X520509Y383460D01*
X531850D01*
X534380Y560450D02*
Y561880D01*
X470580Y301510D02*
X477400Y308330D01*
X489280D01*
X902880Y718960D02*
X903002Y718838D01*
X902880Y718960D02*
Y727870D01*
X891618Y723360D02*
X899690D01*
X715314Y547056D02*
X891618Y723360D01*
X715314Y535891D02*
Y547056D01*
D108*
X610766Y490929D02*
X614414Y494577D01*
X610766Y480844D02*
Y490929D01*
X619414Y438220D02*
X622646Y441452D01*
X620797Y446969D02*
X622646Y445120D01*
X620661Y446969D02*
X620797D01*
X622646Y441452D02*
Y445120D01*
X650864Y452628D02*
Y459166D01*
X811641Y333134D02*
X812083Y333576D01*
X809056Y333134D02*
X811641D01*
X808614Y333576D02*
X809056Y333134D01*
X812083Y333576D02*
X854300D01*
X796674D02*
X808614D01*
X792550Y337700D02*
X796674Y333576D01*
X666686Y479492D02*
X667168Y479974D01*
X662414Y479492D02*
X666686D01*
X667168Y479974D02*
X668217D01*
X668997Y479194D02*
X687486D01*
X668217Y479974D02*
X668997Y479194D01*
X619414Y419742D02*
Y432742D01*
X652093Y449702D02*
X654624Y447171D01*
X656321D01*
X671509Y398373D02*
X671956Y397926D01*
X671509Y398373D02*
Y400881D01*
X670868Y395316D02*
X672551D01*
X661664Y399492D02*
X666692D01*
X670868Y395316D01*
X672551D02*
X674664Y397429D01*
X658524Y392132D02*
X658635Y392242D01*
X658414Y392021D02*
X658524Y392132D01*
X658414Y390829D02*
Y392021D01*
X660464Y398892D02*
Y399492D01*
Y398292D02*
Y398892D01*
X658414Y396242D02*
X660464Y398292D01*
X661064Y398892D02*
X661664Y399492D01*
X637769Y334411D02*
X638076Y334718D01*
Y339154D01*
X658414Y392242D02*
Y396242D01*
X664757Y441826D02*
X673130Y433453D01*
X672012Y412717D02*
X673130Y411599D01*
Y402502D02*
Y411599D01*
X672012Y412717D02*
Y429267D01*
X673130Y430385D01*
X671509Y400881D02*
X673130Y402502D01*
X674664Y397429D02*
Y399400D01*
X658414Y390829D02*
X662208Y387035D01*
X619414Y432742D02*
Y438220D01*
X725914Y429712D02*
X728611D01*
X730269Y428054D01*
X732612D01*
X738454Y433896D01*
X740796D01*
X739777Y431041D02*
X749510Y421308D01*
X739441Y431041D02*
X739777D01*
X749510Y421308D02*
X760782D01*
X854300Y333576D02*
X858772Y329104D01*
X656321Y447171D02*
X661666Y441826D01*
X652093Y449702D02*
Y451399D01*
X650864Y452628D02*
X652093Y451399D01*
X687664Y373492D02*
Y386492D01*
X661666Y441826D02*
X664757D01*
X673130Y430385D02*
Y433453D01*
D109*
X649263Y391871D02*
X657656Y383478D01*
X648215Y391871D02*
X649263D01*
X634164Y382492D02*
X638836D01*
X648215Y391871D01*
X680929Y319564D02*
Y320192D01*
X680678Y319313D02*
X680929Y319564D01*
X680678Y315896D02*
Y319313D01*
Y320443D02*
X680929Y320192D01*
X587436Y343758D02*
X597787Y333406D01*
X587436Y343758D02*
Y358130D01*
X680678Y320443D02*
Y330770D01*
X679622Y331826D02*
X680678Y330770D01*
X924654Y429770D02*
X931376Y436492D01*
X902110Y429770D02*
X924654D01*
X657656Y382178D02*
Y383478D01*
Y382178D02*
X679622Y360212D01*
Y331826D02*
Y360212D01*
X480920Y246180D02*
X583632D01*
X599060Y261608D01*
Y262680D01*
X986920Y366498D02*
X1004414Y383992D01*
X986920Y359700D02*
Y366498D01*
D122*
X628952Y465538D02*
X629449Y466035D01*
Y472116D01*
X654907Y491679D02*
X655094Y491492D01*
Y482621D02*
Y491492D01*
X654167Y481694D02*
X655094Y482621D01*
X655809Y472663D02*
X656262Y472210D01*
X655106Y463298D02*
Y466324D01*
X654167Y478790D02*
X655809Y477148D01*
Y467027D02*
Y468227D01*
X656262Y468680D02*
Y472210D01*
X655809Y476989D02*
Y477148D01*
Y476989D02*
X656065Y476733D01*
Y475077D02*
Y476733D01*
X655809Y472663D02*
Y474821D01*
X655106Y466324D02*
X655809Y467027D01*
X654167Y478790D02*
Y481694D01*
X655106Y463298D02*
X656414Y461990D01*
Y451492D02*
Y461990D01*
X814915Y344346D02*
X818440D01*
X814375Y344886D02*
X814915Y344346D01*
X810850Y344886D02*
X814375D01*
X807331Y341367D02*
X810850Y344886D01*
X798419Y341367D02*
X807331D01*
X797873Y340821D02*
X798419Y341367D01*
X791257Y340821D02*
X797873D01*
X791107Y340671D02*
X791257Y340821D01*
X786564Y340671D02*
X791107D01*
X764390Y338910D02*
X778580D01*
X763510Y339790D02*
X764390Y338910D01*
X655809Y474821D02*
X656065Y475077D01*
X655809Y468227D02*
X656262Y468680D01*
X621222Y485844D02*
X626560Y491182D01*
X617760Y482382D02*
X618646Y483268D01*
X621222Y484530D02*
Y485844D01*
X618646Y483268D02*
X619960D01*
X621222Y484530D01*
X659019Y370387D02*
X660523Y368883D01*
Y364667D02*
Y368883D01*
X658733Y362877D02*
X660523Y364667D01*
X658733Y358289D02*
Y362877D01*
X648695Y386021D02*
Y388644D01*
X648259Y385584D02*
X648695Y386021D01*
X653290Y391539D02*
X661064Y383765D01*
X653290Y391539D02*
Y409640D01*
X648259Y365639D02*
X648340Y365557D01*
X649313Y338343D02*
Y349809D01*
Y338343D02*
X650414Y337242D01*
X648340Y350782D02*
X649313Y349809D01*
X648259Y365639D02*
Y385584D01*
X648340Y350782D02*
Y365557D01*
X629893Y446470D02*
Y449568D01*
X629856Y449606D02*
X629893Y449568D01*
X609520Y345789D02*
X611291Y344017D01*
X609520Y345789D02*
Y349975D01*
X615400Y355855D01*
Y360042D01*
X594316Y538656D02*
X608080Y552420D01*
Y576840D01*
X661064Y382882D02*
X661454Y382492D01*
X661064Y382882D02*
Y383765D01*
X637329Y421407D02*
Y429143D01*
X635019Y419097D02*
X637329Y421407D01*
X630414Y418004D02*
X631992D01*
X633085Y419097D01*
X635019D01*
X634809Y431663D02*
X637329Y429143D01*
X626560Y491182D02*
Y504020D01*
X617760Y475640D02*
Y482382D01*
X560722Y480234D02*
X564517D01*
X551566Y471078D02*
X560722Y480234D01*
X551566Y470056D02*
Y471078D01*
X542410Y460900D02*
X551566Y470056D01*
X720352Y507760D02*
X734030D01*
X714340Y501748D02*
X720352Y507760D01*
X714340Y498300D02*
Y501748D01*
X734030Y507760D02*
X747780Y521510D01*
X630989Y435947D02*
Y445374D01*
X634809Y431663D02*
Y432127D01*
X630989Y435947D02*
X634809Y432127D01*
X629893Y446470D02*
X630989Y445374D01*
X630630Y361240D02*
Y362962D01*
X624414Y369178D02*
X630630Y362962D01*
X618414Y467384D02*
Y474986D01*
X617760Y475640D02*
X618414Y474986D01*
M02*
