G04*
G04 #@! TF.GenerationSoftware,Altium Limited,Altium Designer,26.7.1 (11)*
G04*
G04 Layer_Physical_Order=8*
G04 Layer_Color=16737945*
G04 Board_Origin=26771654|24803150*
%FSLAX44Y44*%
%MOMM*%
G71*
G04*
G04 #@! TF.SameCoordinates,D9171914-07D6-4B2F-AF4B-0BE730A3B9D6*
G04*
G04*
G04 #@! TF.FilePolarity,Positive*
G04*
G01*
G75*
%ADD12C,0.2000*%
%ADD13C,0.1000*%
%ADD14C,0.1270*%
%ADD15C,0.2540*%
%ADD16C,0.1524*%
%ADD100C,0.0100*%
%ADD101C,0.1000*%
%ADD102C,0.0500*%
%ADD106C,0.0400*%
%ADD108C,0.2032*%
%ADD109C,0.1016*%
%ADD111C,0.0500*%
%ADD122C,0.3810*%
D12*
X854590Y424050D02*
X869152D01*
X854476Y423936D02*
X854590Y424050D01*
X869844Y423358D02*
X870879D01*
X869152Y424050D02*
X869844Y423358D01*
X871572Y424050D02*
X875536D01*
X870879Y423358D02*
X871572Y424050D01*
X797891Y376183D02*
X798692Y376984D01*
X875536Y424050D02*
X905236Y453750D01*
X968770D01*
X793756Y376183D02*
X797891D01*
X684866Y309546D02*
X688418D01*
X674410Y299090D02*
X684866Y309546D01*
X670890Y299090D02*
X674410D01*
X504148Y392242D02*
X514910Y381480D01*
X501288Y392242D02*
X504148D01*
X497640Y395890D02*
X501288Y392242D01*
D13*
X713070Y456296D02*
X721880D01*
X706664Y462702D02*
X713070Y456296D01*
X706664Y462702D02*
Y467332D01*
X639624Y469242D02*
X639812D01*
X609907Y465704D02*
X610669Y464942D01*
X610142Y463531D02*
X610669Y464058D01*
X609907Y465704D02*
Y468604D01*
X609292Y463531D02*
X610142D01*
X607242Y461481D02*
X609292Y463531D01*
X610669Y464058D02*
Y464942D01*
X604986Y469758D02*
X608753D01*
X603970Y470774D02*
X604986Y469758D01*
X712577Y393359D02*
X712758Y393179D01*
Y393017D02*
Y393179D01*
X712699Y392958D02*
X712758Y393017D01*
X667840Y362064D02*
X668052Y361852D01*
Y348613D02*
Y361852D01*
X714340Y386816D02*
X726021D01*
X713664Y387492D02*
X714340Y386816D01*
X658807Y475436D02*
X659789Y476417D01*
X657942Y475436D02*
X658807D01*
X656884Y474378D02*
X657942Y475436D01*
X603970Y470774D02*
Y473977D01*
X609404Y477055D02*
X612482Y480133D01*
X604463Y487727D02*
X606309D01*
X612482Y480133D02*
Y481554D01*
X607048Y477055D02*
X609404D01*
X603970Y473977D02*
X607048Y477055D01*
X598290Y493900D02*
X604463Y487727D01*
X606309D02*
X612482Y481554D01*
X647614Y465366D02*
X650980Y462000D01*
X642414Y473742D02*
X644062D01*
X645262Y474942D01*
X665111Y466734D02*
Y466880D01*
X657113Y458736D02*
X665111Y466734D01*
X655865Y458736D02*
X657113D01*
X894080Y437580D02*
X894300Y437800D01*
X947540D01*
X645415Y470135D02*
X651244D01*
X651859Y470750D01*
X643008Y472542D02*
X645415Y470135D01*
X817800Y371680D02*
X822330Y367150D01*
X827829D01*
X828799Y366180D01*
X835277D01*
X836462Y367365D01*
X842941D01*
X843527Y366779D01*
Y365951D02*
Y366779D01*
X834305Y356730D02*
X843527Y365951D01*
X824322Y356730D02*
X834305D01*
X838695Y362816D02*
X840871Y364992D01*
X826028Y351952D02*
X833069D01*
X759990Y348700D02*
X761530Y347160D01*
X753500Y348700D02*
X759990D01*
X713664Y347342D02*
X724542D01*
X737670Y360470D01*
X804652Y425207D02*
Y425471D01*
X805737Y426556D01*
X803949Y424768D02*
X804212D01*
X804652Y425207D01*
X801860Y422680D02*
X803949Y424768D01*
X800879Y436104D02*
X801873D01*
X801985Y435992D02*
X803885D01*
X743637D02*
X800767D01*
X801873Y436104D02*
X801985Y435992D01*
X800767D02*
X800879Y436104D01*
X805427Y437534D02*
X817807D01*
X821263Y440990D01*
X803885Y435992D02*
X805427Y437534D01*
X725612Y393366D02*
X726672D01*
X737886Y404580D02*
X763070D01*
X726672Y393366D02*
X737886Y404580D01*
X821263Y440990D02*
X825538D01*
X830624Y435904D01*
X742141Y437487D02*
X743637Y435992D01*
X769836Y414324D02*
X790288D01*
X798644Y422680D01*
X801860D01*
X805737Y426556D02*
X811574D01*
X818780Y433762D01*
X830179D01*
X839924Y443507D01*
Y443976D01*
X848727Y452780D01*
X638414Y476045D02*
Y477742D01*
Y476045D02*
X641917Y472542D01*
X643008D01*
X651859Y470750D02*
X652757D01*
X652902Y470895D01*
X655534D01*
X656492Y469937D01*
X658867D01*
X669246Y475294D02*
X671320Y477368D01*
Y486926D01*
X855684Y426080D02*
X863900D01*
X865800Y427980D01*
X723547Y377940D02*
X729321Y383714D01*
X723547Y373048D02*
Y377940D01*
X729321Y383714D02*
X729745D01*
X809310Y397693D02*
X810683Y399066D01*
X824414D01*
X717774Y367274D02*
X723547Y373048D01*
X717774Y363083D02*
X733763D01*
X734104Y362742D01*
X779815D01*
X781356Y364283D01*
X797360Y387200D02*
Y387500D01*
X799440Y389580D01*
X837332D01*
X852322Y404570D01*
X670834Y339048D02*
X671614Y339828D01*
X670834Y337131D02*
Y339048D01*
Y337131D02*
X671724Y336241D01*
X671614Y339828D02*
Y345051D01*
X668052Y348613D02*
X671614Y345051D01*
X705564Y497506D02*
X706310Y496760D01*
X680064Y497506D02*
X705564D01*
X608753Y469758D02*
X609907Y468604D01*
X607012Y458620D02*
X607242Y458850D01*
Y461481D01*
X651355Y474378D02*
X656884D01*
X650791Y474942D02*
X651355Y474378D01*
X645262Y474942D02*
X650791D01*
X708582Y376164D02*
X712671D01*
X722123Y385616D01*
X737413Y401390D02*
X762850D01*
X726518Y385616D02*
X731965Y391064D01*
Y395943D01*
X737413Y401390D01*
X722123Y385616D02*
X726518D01*
X747158Y438020D02*
X787308D01*
X789358Y391334D02*
X793099D01*
X794363Y390070D01*
X795357D01*
X796060Y390773D01*
Y393042D01*
X795050Y394052D02*
X796060Y393042D01*
X795050Y394052D02*
Y396321D01*
X796423Y397693D01*
X809310D01*
X785280Y400850D02*
X794860Y391270D01*
X634414Y393492D02*
X637711Y390195D01*
X648205D01*
X651502Y386897D01*
Y386000D02*
Y386897D01*
Y386000D02*
X653999Y383504D01*
X846299Y349250D02*
X854668Y357619D01*
X804760Y349250D02*
X846299D01*
X671724Y336241D02*
X677665D01*
X678556Y335350D01*
X661830D02*
X678556D01*
X659780Y333300D02*
X661830Y335350D01*
X854668Y357619D02*
Y358680D01*
X841236Y382946D02*
X843453Y380728D01*
X847972D01*
X848033Y393037D02*
X856780Y401784D01*
X848619Y391623D02*
X859851D01*
X848033Y392209D02*
Y393037D01*
Y392209D02*
X848619Y391623D01*
X852322Y404570D02*
X855626D01*
X856780Y401784D02*
Y403416D01*
X855626Y404570D02*
X856780Y403416D01*
X844414Y363297D02*
Y363492D01*
X833069Y351952D02*
X844414Y363297D01*
X781603Y400850D02*
X785280D01*
X780900Y401553D02*
X781603Y400850D01*
X780900Y401553D02*
Y401827D01*
X777408Y405319D02*
X780900Y401827D01*
X777408Y405319D02*
Y411356D01*
X782100Y402050D02*
X791670Y411620D01*
X737670Y360470D02*
X776600D01*
X781853Y360069D02*
Y363083D01*
X859851Y391623D02*
X860294Y391180D01*
X863600D01*
X785000Y350390D02*
X785300Y350690D01*
X785000Y349769D02*
Y350390D01*
Y349769D02*
X785300Y349469D01*
Y345876D02*
Y349469D01*
Y350690D02*
Y356621D01*
X687801Y351174D02*
X688119Y351492D01*
X688414D01*
X799040Y335500D02*
X837540Y297000D01*
X922020D01*
X647794Y450664D02*
X655865Y458736D01*
X724587Y553492D02*
X738650Y539430D01*
X781853Y360069D02*
X785300Y356621D01*
X747120Y438058D02*
X747158Y438020D01*
X787308D02*
X804637Y455349D01*
X801800Y459183D02*
X813565D01*
X817871Y463490D01*
X782350Y364283D02*
X784173Y362460D01*
X824732Y362816D02*
X838695D01*
X824375Y362460D02*
X824732Y362816D01*
X784173Y362460D02*
X824375D01*
X822493Y431962D02*
X825015D01*
X838427Y418550D01*
Y417622D02*
Y418550D01*
Y417622D02*
X842557Y413492D01*
X721880Y456296D02*
X740689Y437487D01*
X742141D01*
X781356Y364283D02*
X782350D01*
X703414Y470582D02*
X706664Y467332D01*
X876799Y373880D02*
X889800Y360880D01*
X873800Y373880D02*
X876799D01*
X724112Y553492D02*
X724587D01*
X738650Y530640D02*
Y539430D01*
X791670Y411620D02*
X799040D01*
X807530Y412370D02*
X808280Y411620D01*
X799040D02*
X799790Y412370D01*
X807530D01*
X639812Y469242D02*
X641512Y470942D01*
X642911D01*
X647614Y466239D01*
Y465366D02*
Y466239D01*
X889503Y429651D02*
X892239Y426915D01*
X935753D01*
X938488Y424180D01*
X367620Y396762D02*
X370558Y393824D01*
X367620Y396762D02*
Y404140D01*
X1035320Y410190D02*
X1040765D01*
X1049785Y401170D01*
X1055230D01*
X939070Y280940D02*
X952050Y267960D01*
X909810Y280940D02*
X939070D01*
X886545Y284908D02*
X890513Y280940D01*
X909810D01*
X832040Y455730D02*
X832049D01*
X833800Y453979D01*
X835000Y455179D01*
Y462881D01*
X833800Y464081D02*
X835000Y462881D01*
X833800Y464081D02*
Y466980D01*
X832554Y468226D02*
X833800Y466980D01*
X825215Y468226D02*
X832554D01*
X823969Y466980D02*
X825215Y468226D01*
X817800Y466980D02*
X823969D01*
X815924Y465104D02*
X817800Y466980D01*
X807821Y465104D02*
X815924D01*
X805945Y463228D02*
X807821Y465104D01*
X707504Y377242D02*
X708582Y376164D01*
X703414Y377242D02*
X707504D01*
X1064580Y386760D02*
X1086156Y365183D01*
X1129838D01*
X1151414Y343607D01*
D14*
X631730Y326700D02*
Y339619D01*
X632834Y340723D01*
X631730Y326700D02*
X631846Y326584D01*
X667287Y363399D02*
X669645D01*
X675763Y357280D01*
X665529Y362469D02*
X666357D01*
X662217Y359157D02*
X665529Y362469D01*
X666357D02*
X667287Y363399D01*
X659117Y359157D02*
X662217D01*
X659099Y359174D02*
X659117Y359157D01*
X641414Y362492D02*
X645617Y358289D01*
X596421Y345543D02*
X599398Y342566D01*
X592709Y345543D02*
X596421D01*
X590175Y343009D02*
X592709Y345543D01*
X573730Y343009D02*
X590175D01*
X573571Y343168D02*
X573730Y343009D01*
X566908Y343168D02*
X573571D01*
X559350Y344850D02*
X564368Y339832D01*
X513102Y357742D02*
Y364478D01*
X654392Y359174D02*
X659099D01*
X653507Y358289D02*
X654392Y359174D01*
X645617Y358289D02*
X653507D01*
X607403Y351907D02*
X612260Y347050D01*
X618941D02*
X619242Y346749D01*
X625924D02*
X630664Y351489D01*
X619242Y346749D02*
X625924D01*
X612260Y347050D02*
X618941D01*
X588500Y389950D02*
X594000Y384450D01*
X511060Y366520D02*
X513102Y364478D01*
X505019Y361616D02*
X508249Y364846D01*
Y374657D01*
X636885Y345592D02*
X640219Y342258D01*
X636885Y345592D02*
Y346201D01*
X636086Y346999D02*
X636885Y346201D01*
X636354Y356794D02*
X637450Y357890D01*
X636354Y355939D02*
Y356794D01*
X634717Y355157D02*
X635572D01*
X636354Y355939D01*
X631049Y351489D02*
X634717Y355157D01*
X630664Y351489D02*
X631049D01*
X637450Y357890D02*
Y359040D01*
X645826Y335144D02*
X647809Y333161D01*
X648915D01*
X645826Y335144D02*
Y341397D01*
X648915Y333161D02*
X649861Y334107D01*
X650967D01*
X647437Y323180D02*
X652830Y328573D01*
X650967Y334107D02*
X652830Y332244D01*
X564368Y339832D02*
X629710D01*
X631364Y341486D02*
Y342798D01*
X675763Y357280D02*
X688951D01*
X689877D02*
X699710D01*
X688951D02*
X689047Y357377D01*
X689781D01*
X689877Y357280D01*
X640219Y342258D02*
X644965D01*
X645826Y341397D01*
X612370Y383240D02*
X626304D01*
X652830Y328573D02*
Y332244D01*
X643720Y323180D02*
X647437D01*
X641758Y338190D02*
X644356Y340788D01*
X641758Y336724D02*
Y338190D01*
X637052Y372492D02*
X645414D01*
X626304Y383240D02*
X637052Y372492D01*
X594000Y384450D02*
X602140D01*
X627949Y346695D02*
X634676D01*
X626414Y345242D02*
X626496D01*
X627949Y346695D01*
X531172Y378097D02*
X557362Y351907D01*
X607403D01*
X638521Y340788D02*
X644356D01*
X634547Y344763D02*
X638521Y340788D01*
X633329Y344763D02*
X634547D01*
X631364Y342798D02*
X633329Y344763D01*
X629710Y339832D02*
X631364Y341486D01*
X634980Y346999D02*
X636086D01*
X634676Y346695D02*
X634980Y346999D01*
X632834Y342189D02*
X633938Y343293D01*
X502131Y378097D02*
X531172D01*
X500026Y375992D02*
X502131Y378097D01*
X496914Y375992D02*
X500026D01*
X496914Y374104D02*
Y375992D01*
Y374104D02*
X501361Y369657D01*
X503010D01*
X503097Y369744D01*
X504746D01*
X632834Y340723D02*
Y342189D01*
D15*
X682392Y452193D02*
X686863Y447722D01*
X713190D01*
X682392Y452193D02*
Y462300D01*
X612639Y463105D02*
Y465758D01*
X611877Y466520D02*
X612639Y465758D01*
X611877Y462342D02*
X612639Y463105D01*
X611877Y466520D02*
Y473858D01*
Y460699D02*
Y462342D01*
X598636Y467788D02*
X607937D01*
X595080Y471344D02*
X598636Y467788D01*
X612613Y557260D02*
X668118Y501755D01*
X673606Y495162D02*
X681575Y487192D01*
Y481590D02*
X686937Y476228D01*
X693308D01*
X681575Y481590D02*
Y487192D01*
X668118Y500342D02*
X673299Y495162D01*
X668118Y500342D02*
Y501755D01*
X704046Y457755D02*
Y465490D01*
X637865Y363577D02*
Y364791D01*
Y363577D02*
X638793Y362649D01*
X636974Y365681D02*
X637865Y364791D01*
X633230Y368212D02*
X635761Y365681D01*
X636974D01*
X638793Y361572D02*
X644356Y356009D01*
X638793Y361572D02*
Y362649D01*
X644356Y348296D02*
Y356009D01*
X632153Y368212D02*
X633230D01*
X629777Y370588D02*
Y374887D01*
X627554Y377110D02*
X629777Y374887D01*
Y370588D02*
X632153Y368212D01*
X534244Y348662D02*
X599910D01*
X606075Y342497D01*
X611921D01*
X501254Y410992D02*
X556980Y355266D01*
X588447D02*
X588598Y355417D01*
X556980Y355266D02*
X588447D01*
X590230Y355417D02*
X590381Y355266D01*
X588598Y355417D02*
X590230D01*
X539124Y334260D02*
X557234Y316150D01*
X518628Y334260D02*
X539124D01*
X503718Y349170D02*
X518628Y334260D01*
X446490Y349170D02*
X503718D01*
X174414Y396414D02*
X176185D01*
X437336Y133492D02*
Y135263D01*
X176185Y396414D02*
X437336Y135263D01*
X431250Y333168D02*
X459698D01*
X428075Y336343D02*
Y375713D01*
Y336343D02*
X431250Y333168D01*
X434806Y344725D02*
X439251Y340280D01*
X686236Y487472D02*
X714086D01*
X776367Y487791D02*
X791561Y502986D01*
X685092Y488616D02*
X686236Y487472D01*
X684975Y488616D02*
X685092D01*
X714086Y487472D02*
X718016Y483542D01*
X747195D01*
X751445Y487791D01*
X776367D01*
X613239Y478104D02*
X614452Y479317D01*
Y482370D01*
X613239Y483583D02*
Y484567D01*
Y475220D02*
Y478104D01*
Y483583D02*
X614452Y482370D01*
X678936Y465756D02*
X682392Y462300D01*
X673403Y465756D02*
X678936D01*
X666067Y456674D02*
X667616Y458224D01*
X670431Y453840D02*
X674414Y457823D01*
X663694Y454908D02*
X665460Y456674D01*
X655606Y454908D02*
X663694D01*
X668327Y453840D02*
X670431D01*
X665436Y452353D02*
Y452775D01*
X668233Y453934D02*
X668327Y453840D01*
X666595Y453934D02*
X668233D01*
X665460Y456674D02*
X666067D01*
X665251Y452168D02*
X665436Y452353D01*
Y452775D02*
X666595Y453934D01*
X667616Y458224D02*
Y458283D01*
X664840Y452168D02*
X665251D01*
X653028Y440356D02*
X664840Y452168D01*
X616416Y440356D02*
X653028D01*
X669450Y460242D02*
X671510Y462303D01*
Y463864D02*
X673403Y465756D01*
X671510Y462303D02*
Y463864D01*
X480272Y405050D02*
X508466Y433244D01*
X401414Y405050D02*
X480272D01*
X512022Y440610D02*
X593556D01*
X508466Y433244D02*
Y437054D01*
X512022Y440610D01*
X783388Y383057D02*
X793345Y373100D01*
X816434D01*
X815299Y375840D02*
X815849Y376390D01*
X819751D01*
X816984Y373650D02*
X818616D01*
X816434Y373100D02*
X816984Y373650D01*
X819751Y376390D02*
X820301Y375840D01*
X818616Y373650D02*
X820236Y372030D01*
X820301Y375840D02*
X849588D01*
X820236Y372030D02*
X847928D01*
X803719Y375840D02*
X815299D01*
X731478Y351492D02*
X759984D01*
X771030Y332010D02*
X790040D01*
X766885Y336155D02*
Y344591D01*
X759984Y351492D02*
X766885Y344591D01*
Y336155D02*
X771030Y332010D01*
X694430Y343530D02*
X709060Y328900D01*
X714670D01*
X852356Y383714D02*
X871203Y364867D01*
X714460Y415718D02*
X749004D01*
X710904Y412162D02*
X714460Y415718D01*
X765651Y414289D02*
Y414583D01*
X759741Y416325D02*
X760034D01*
X783388Y383057D02*
Y386768D01*
X781908Y388248D02*
X783388Y386768D01*
X781908Y388248D02*
Y388529D01*
X744137Y428054D02*
X758606Y413585D01*
X758900D01*
X760171Y412313D01*
Y410265D02*
X781908Y388529D01*
X765651Y414289D02*
X778930Y401011D01*
X745272Y430794D02*
X759741Y416325D01*
X760875Y419065D02*
X761169D01*
X762911Y413154D02*
Y413448D01*
X715196Y428054D02*
X744137D01*
X761169Y419065D02*
X765651Y414583D01*
X746406Y433534D02*
X760875Y419065D01*
X760034Y416325D02*
X762911Y413448D01*
Y413154D02*
X776190Y399876D01*
X760171Y410265D02*
Y412313D01*
X693308Y476228D02*
X704046Y465490D01*
X597652Y557260D02*
X612613D01*
X628540D01*
X909150Y718410D02*
X944414Y753674D01*
Y767993D01*
X594414Y560498D02*
X597652Y557260D01*
X650198Y586279D02*
Y633698D01*
X706640Y690140D01*
X587714Y557704D02*
X596350Y566340D01*
X587714Y557196D02*
X625306Y519604D01*
X587714Y557196D02*
Y557704D01*
X711211Y365180D02*
X712205D01*
X710024Y363992D02*
X711211Y365180D01*
X710024Y362999D02*
Y363992D01*
X703539Y356514D02*
X710024Y362999D01*
X800105Y379454D02*
X803719Y375840D01*
X789442Y386624D02*
X796612Y379454D01*
X800105D01*
X790577Y389364D02*
X796227Y383714D01*
X814819D01*
X814823Y383710D01*
X833416D01*
X834622Y384916D01*
X842441D01*
X843643Y383714D01*
X852356D01*
X816385Y344251D02*
X817810Y342826D01*
X830865D01*
X831822Y341870D01*
X808605Y344251D02*
X816385D01*
X805769Y341415D02*
X808605Y344251D01*
X772165Y334750D02*
X782793D01*
X789457Y341415D02*
X805769D01*
X782793Y334750D02*
X789457Y341415D01*
X674414Y457823D02*
Y461742D01*
X673299Y495162D02*
X673606D01*
X613444Y443263D02*
Y443328D01*
X597112Y444166D02*
X612606D01*
X613444Y443328D01*
Y443263D02*
X614598Y442109D01*
X611877Y473858D02*
X613239Y475220D01*
X607598Y456420D02*
X611877Y460699D01*
X613239Y484567D02*
X632164Y503492D01*
X599522Y456420D02*
X607598D01*
X806756Y521382D02*
X916644D01*
X791561Y502986D02*
Y506188D01*
X806756Y521382D01*
X667616Y458283D02*
X669450Y460117D01*
Y460242D01*
X832440Y528570D02*
X833280Y529410D01*
X834540D01*
X805468Y528570D02*
X832440D01*
X835380D02*
X924315D01*
X834540Y529410D02*
X835380Y528570D01*
X743308Y433534D02*
X746406D01*
X780787Y398880D02*
X781060D01*
X787387Y392553D01*
Y390518D02*
Y392553D01*
X778930Y400737D02*
Y401011D01*
X784648Y389383D02*
Y391418D01*
Y389383D02*
X787407Y386624D01*
X788541Y389364D02*
X790577D01*
X787407Y386624D02*
X789442D01*
X787387Y390518D02*
X788541Y389364D01*
X779926Y396140D02*
X784648Y391418D01*
X659276Y376757D02*
X660174Y377655D01*
X659276Y374570D02*
Y376757D01*
X625306Y519604D02*
X625641Y519269D01*
X625306Y519604D02*
Y519604D01*
X632164Y503492D02*
X656548D01*
X908516Y322754D02*
X970732D01*
X897848Y333422D02*
X908516Y322754D01*
X970732D02*
X1049994Y243492D01*
X876766Y333422D02*
X897848D01*
X876512Y333676D02*
Y354554D01*
Y333676D02*
X876766Y333422D01*
X689643Y419707D02*
Y428789D01*
X613324Y426386D02*
X665004D01*
X676868Y414522D01*
X611336Y424398D02*
X613324Y426386D01*
X632999Y447976D02*
X648674D01*
X631254Y446231D02*
X632999Y447976D01*
X629235Y446231D02*
X631254D01*
X629200Y446265D02*
X629235Y446231D01*
X593556Y440610D02*
X597112Y444166D01*
X614598Y442109D02*
X614663D01*
X616416Y440356D01*
X689643Y428789D02*
X691880Y431026D01*
X676868Y414522D02*
X696426D01*
X651259Y402187D02*
X661573D01*
X662135Y402749D01*
X659850Y328596D02*
X690076D01*
X656548Y331898D02*
X659850Y328596D01*
X656548Y331898D02*
Y340280D01*
X710871Y321850D02*
X712130D01*
X706264Y322150D02*
X710571D01*
X712130Y321850D02*
X712430Y322150D01*
X710571D02*
X710871Y321850D01*
X712430Y322150D02*
X718437D01*
X721647Y325360D02*
X733821D01*
X735190Y323991D01*
X749129Y325563D02*
X774135D01*
X735190Y323991D02*
X747557D01*
X749129Y325563D01*
X718437Y322150D02*
X721647Y325360D01*
X774135Y325563D02*
X840444Y259254D01*
X702851Y325563D02*
X706264Y322150D01*
X691869Y325563D02*
X702851D01*
X883027Y364867D02*
X888984Y358910D01*
X871203Y364867D02*
X883027D01*
X861034Y356859D02*
Y358923D01*
X847928Y372030D02*
X861034Y358923D01*
Y356859D02*
X871178Y346715D01*
Y312975D02*
Y346715D01*
X838299Y387761D02*
X839971D01*
X854810Y402600D01*
X849588Y375840D02*
X852128Y373300D01*
X855619D01*
X868269Y360650D02*
X870416D01*
X876512Y354554D01*
X855619Y373300D02*
X868269Y360650D01*
X776190Y399602D02*
Y399876D01*
X779652Y396140D02*
X779926D01*
X776190Y399602D02*
X779652Y396140D01*
X778930Y400737D02*
X780787Y398880D01*
X690584Y326848D02*
X691869Y325563D01*
X690584Y326848D02*
Y328088D01*
X790040Y332010D02*
X833233Y288817D01*
X932039D01*
X611921Y342497D02*
X612666Y343242D01*
X625437D01*
X628646Y342028D02*
X628929D01*
X625542Y343137D02*
X627537D01*
X628646Y342028D01*
X625437Y343242D02*
X625542Y343137D01*
X625052Y348854D02*
Y351964D01*
X441410Y354250D02*
X446490Y349170D01*
X434806Y344725D02*
Y383597D01*
X439251Y340280D02*
X508466D01*
X648674Y447976D02*
X655606Y454908D01*
X690414Y343389D02*
X700476Y353451D01*
X919917Y480903D02*
X924414Y476406D01*
X870437Y480903D02*
X919917D01*
X863026Y473492D02*
X870437Y480903D01*
X860957Y473492D02*
X863026D01*
X684625Y402245D02*
X686458D01*
X684121Y402749D02*
X684625Y402245D01*
X662135Y402749D02*
X684121D01*
X686962D02*
X697173D01*
X686458Y402245D02*
X686962Y402749D01*
X656444Y397432D02*
X658459Y399447D01*
X656444Y391426D02*
Y397432D01*
Y391426D02*
X659934Y387936D01*
Y381862D02*
Y387936D01*
Y381862D02*
X660174Y381622D01*
Y377655D02*
Y381622D01*
X648781Y399709D02*
X651259Y402187D01*
X629784Y399709D02*
X648781D01*
X611336Y395492D02*
X618031Y402187D01*
X627306D02*
X629784Y399709D01*
X618031Y402187D02*
X627306D01*
X651552Y345276D02*
X656548Y340280D01*
X614612Y434768D02*
X687565D01*
X688279Y435482D01*
X611336Y431492D02*
X614612Y434768D01*
X932039Y288817D02*
X935948Y284908D01*
X590381Y355266D02*
X621750D01*
X697173Y402749D02*
X706586Y412162D01*
X644356Y348296D02*
X647376Y345276D01*
X676444Y545452D02*
Y551003D01*
X661107Y566340D02*
X676444Y551003D01*
Y545452D02*
X686236Y535660D01*
X543808Y464275D02*
X544851Y463232D01*
X592710D01*
X502132D02*
X538869D01*
X539912Y464275D02*
X543808D01*
X538869Y463232D02*
X539912Y464275D01*
X683194Y548248D02*
X689032Y542410D01*
X697840D01*
X686236Y535660D02*
X691787D01*
X709312Y518135D01*
X596350Y566340D02*
X661107D01*
X884414Y735276D02*
Y767993D01*
X625721Y448968D02*
X628423Y446265D01*
X595104Y448968D02*
X625721D01*
X628423Y446265D02*
X629200D01*
X488396Y449496D02*
X502132Y463232D01*
X592710D02*
X599522Y456420D01*
X924315Y528570D02*
X927058Y525827D01*
X767430Y490532D02*
X805468Y528570D01*
X789158Y544583D02*
X880705Y636130D01*
X853652Y605202D02*
X955362Y503492D01*
X728135Y517835D02*
X729394D01*
X729694Y518135D01*
X709312D02*
X727835D01*
X728135Y517835D01*
X729694Y518135D02*
X739551D01*
X965818Y653872D02*
X970135D01*
X971442Y652564D01*
X969510Y648783D02*
X971442Y650715D01*
X884414Y735276D02*
X965818Y653872D01*
X969510Y625300D02*
Y648783D01*
X971442Y650715D02*
Y652564D01*
X915671Y571461D02*
X969510Y625300D01*
X784239Y365180D02*
X825800D01*
X783166Y366253D02*
X784239Y365180D01*
X703539Y355694D02*
Y356514D01*
X701296Y353451D02*
X703539Y355694D01*
X700476Y353451D02*
X701296D01*
X712205Y365180D02*
X779467D01*
X384414Y346350D02*
Y354758D01*
Y346350D02*
X415095Y315668D01*
X423504D02*
X506334Y232838D01*
X415095Y315668D02*
X423504D01*
X504830Y301295D02*
X504980Y301145D01*
X506364D01*
X506514Y301295D01*
X527660D01*
X491571D02*
X504830D01*
X550452Y301469D02*
X584285Y267636D01*
X459698Y333168D02*
X491571Y301295D01*
X527834Y301469D02*
X550452D01*
X527660Y301295D02*
X527834Y301469D01*
X488396Y435018D02*
Y449496D01*
X713190Y447722D02*
X728135Y432777D01*
X731562D01*
X708482Y434768D02*
X715196Y428054D01*
X739766Y432777D02*
X740167Y432376D01*
X733287Y432777D02*
X739766D01*
X740591Y432376D02*
X742173Y430794D01*
X740167Y432376D02*
X740591D01*
X739873Y435517D02*
X741326D01*
X723604Y451786D02*
X739873Y435517D01*
X741326D02*
X743308Y433534D01*
X779467Y365180D02*
X780540Y366253D01*
X783166D01*
X690076Y328596D02*
X690584Y328088D01*
X731562Y432777D02*
X731795Y432544D01*
X733054D02*
X733287Y432777D01*
X731795Y432544D02*
X733054D01*
X742173Y430794D02*
X745272D01*
X999640Y361678D02*
X1039834Y321484D01*
X888984Y358910D02*
X912493D01*
X915261Y361678D02*
X999640D01*
X912493Y358910D02*
X915261Y361678D01*
X691263Y434768D02*
X708482D01*
X647376Y345276D02*
X651552D01*
X712319Y515395D02*
X725128Y502586D01*
X739551Y518135D02*
X764414Y493272D01*
X564396Y471344D02*
X595080D01*
X542248Y493492D02*
X564396Y471344D01*
X609250Y379850D02*
X610265Y380865D01*
Y384112D01*
X611498Y385345D01*
X611803D01*
X613444Y386986D01*
Y393058D01*
X615407Y395021D01*
Y395499D01*
X880705Y636130D02*
X966770D01*
X356066Y400732D02*
X521166Y235632D01*
X366392Y406110D02*
X368436D01*
X362426Y410076D02*
X366392Y406110D01*
X372330Y404047D02*
Y406091D01*
X369571Y408850D02*
X372330Y406091D01*
X367527Y408850D02*
X369571D01*
X368436Y406110D02*
X369590Y404956D01*
X335238Y410076D02*
X362426D01*
X361146Y415231D02*
X367527Y408850D01*
X369590Y398838D02*
X383698Y384730D01*
X372330Y404047D02*
X375264Y401113D01*
X369590Y398838D02*
Y404956D01*
X383698Y384730D02*
X419058D01*
X328688Y403526D02*
X335238Y410076D01*
X38058Y475408D02*
X109023D01*
X189540Y394890D02*
X244913Y339518D01*
X181190Y399880D02*
X186180Y394890D01*
X181190Y399880D02*
Y403241D01*
X109023Y475408D02*
X181190Y403241D01*
X244913Y339518D02*
X347176D01*
X186180Y394890D02*
X189540D01*
X178450Y398203D02*
X184502Y392150D01*
X178450Y398203D02*
Y399956D01*
X171914Y406492D02*
X178450Y399956D01*
X186256Y392150D02*
X242229Y336177D01*
X184502Y392150D02*
X186256D01*
X242229Y336177D02*
X281429D01*
X852006Y464540D02*
X860957Y473492D01*
X852006Y420914D02*
Y464540D01*
Y420914D02*
X864380Y408540D01*
X840444Y259254D02*
X904414D01*
X682408Y312016D02*
X689442D01*
X678274Y316150D02*
X682408Y312016D01*
X557234Y316150D02*
X678274D01*
X689442Y312016D02*
X744997Y256460D01*
X604986Y377364D02*
Y417496D01*
X605240Y377110D02*
X627554D01*
X604986Y377364D02*
X605240Y377110D01*
X689643Y419707D02*
X692088Y417262D01*
X697561D01*
X699166Y415657D01*
Y413387D02*
Y415657D01*
X696719Y410940D02*
X699166Y413387D01*
X690111Y410940D02*
X696719D01*
X687664Y408492D02*
X690111Y410940D01*
X690549Y435482D02*
X691263Y434768D01*
X688279Y435482D02*
X690549D01*
X621750Y355266D02*
X625052Y351964D01*
X508249Y374657D02*
X534244Y348662D01*
X744997Y256460D02*
X831808D01*
X588848Y242472D02*
X590018D01*
X588830Y242490D02*
X588848Y242472D01*
X562262Y242490D02*
X588830D01*
X590018Y242472D02*
X612222Y220268D01*
X506914Y375992D02*
X508249Y374657D01*
X495630Y383206D02*
X508895D01*
X489924Y367966D02*
Y377500D01*
X495630Y383206D01*
X688850Y396678D02*
Y399492D01*
X687664Y395492D02*
X688850Y396678D01*
X889800Y397680D02*
X891856Y395624D01*
X895800D01*
X819445Y293492D02*
X838129Y274808D01*
X882778D01*
X884180Y276210D01*
X766810Y499290D02*
X789158Y521638D01*
Y544583D01*
X1029160Y251790D02*
X1030458Y250492D01*
X1033163D01*
X1044170Y338992D02*
X1056028Y327134D01*
X1082639D01*
X1087278Y322495D01*
Y276320D02*
Y322495D01*
X1051710Y240752D02*
X1087278Y276320D01*
X1042904Y240752D02*
X1051710D01*
X1033163Y250492D02*
X1042904Y240752D01*
X1100164Y250492D02*
X1125665D01*
X1097914Y312340D02*
Y313142D01*
Y252741D02*
X1100164Y250492D01*
X1097914Y252741D02*
Y312340D01*
X704046Y457755D02*
X707475Y454326D01*
X712428D01*
X714968Y451786D02*
X723604D01*
X712428Y454326D02*
X714968Y451786D01*
X1080474Y323516D02*
X1082506Y321484D01*
X1040850Y323516D02*
X1080474D01*
X1082506Y321484D02*
X1084414D01*
X1039834D02*
X1082506D01*
X1037548Y326818D02*
Y363492D01*
Y326818D02*
X1040850Y323516D01*
X456973Y453200D02*
X459030D01*
X436920Y433147D02*
X456973Y453200D01*
X436920Y412720D02*
Y433147D01*
X508466Y340280D02*
X515324Y333422D01*
X874756Y309397D02*
X919079D01*
X871178Y312975D02*
X874756Y309397D01*
X1062440Y166036D02*
X1258020D01*
X919079Y309397D02*
X1062440Y166036D01*
X496914Y410992D02*
X501254D01*
X690414Y339492D02*
Y343389D01*
X706586Y412162D02*
X710904D01*
X407168Y273986D02*
X459444D01*
X359558Y321595D02*
X407168Y273986D01*
X347176Y339518D02*
X359558Y327136D01*
Y321595D02*
Y327136D01*
X486876Y433498D02*
X488396Y435018D01*
X584285Y267636D02*
X638514D01*
X689568Y216582D01*
X439120Y243210D02*
X440990Y245080D01*
X439120Y217690D02*
Y243210D01*
X281429Y336177D02*
X377214Y240392D01*
X253958Y403526D02*
X328688D01*
X419058Y384730D02*
X428075Y375713D01*
X689568Y216582D02*
X824414D01*
X459444Y273986D02*
X549868Y183562D01*
X1040708Y86026D02*
X1101302Y25432D01*
X987256Y86026D02*
X1040708D01*
X967444Y105838D02*
X987256Y86026D01*
X898356Y105838D02*
X967444D01*
X834094Y170100D02*
X898356Y105838D01*
X657056Y170100D02*
X834094D01*
X591524Y235632D02*
X657056Y170100D01*
X521166Y235632D02*
X591524D01*
X356066Y400732D02*
Y407336D01*
X361146Y415231D02*
Y447976D01*
X375264Y401113D02*
X435358D01*
X441410Y395061D01*
Y354250D02*
Y395061D01*
X588730Y232838D02*
X658076Y163492D01*
X506334Y232838D02*
X588730D01*
X915374Y516048D02*
X1137930Y293492D01*
X867904Y516048D02*
X915374D01*
X916644Y521382D02*
X1099651Y338375D01*
X1107015D01*
X1124414Y355774D01*
X725128Y502586D02*
X741522D01*
X753576Y490532D01*
X767430D01*
X927058Y514843D02*
Y525827D01*
Y514843D02*
X1025167Y416734D01*
X1207432D01*
X1212554Y411612D01*
X612222Y220268D02*
X654414D01*
X511260Y293492D02*
X562262Y242490D01*
X1166452Y544496D02*
X1317456Y393492D01*
X1147784Y544496D02*
X1166452D01*
X479002Y132254D02*
Y183492D01*
X475700Y128952D02*
X479002Y132254D01*
X407628Y128952D02*
X475700D01*
X237702Y298878D02*
X407628Y128952D01*
X237702Y298878D02*
Y323492D01*
X568664Y421306D02*
X601176D01*
X604986Y417496D01*
X351240Y471598D02*
X527850D01*
X531914Y467534D01*
X448522Y360854D02*
X455380Y367712D01*
X489670D01*
X489924Y367966D01*
X152612Y567320D02*
Y583492D01*
Y567320D02*
X283422Y436510D01*
D16*
X687014Y461742D02*
X694414Y469142D01*
X656706Y490468D02*
Y500384D01*
X656698Y490461D02*
X656706Y490468D01*
X656698Y489622D02*
Y490461D01*
Y489622D02*
X656706Y489614D01*
Y482605D02*
Y489614D01*
X656176Y482076D02*
X656706Y482605D01*
X656176Y478106D02*
Y482076D01*
X656706Y500384D02*
X659501Y503180D01*
X653910Y475840D02*
X656176Y478106D01*
X587529Y482728D02*
Y492121D01*
X583861Y521547D02*
X594507Y510901D01*
X592821Y479811D02*
X594507Y481498D01*
Y510901D01*
X590446Y479811D02*
X592821D01*
X587529Y482728D02*
X590446Y479811D01*
X686414Y454864D02*
Y461742D01*
X684750Y453200D02*
X686414Y454864D01*
X666793Y461268D02*
X669278Y463754D01*
X665716Y461268D02*
X666793D01*
X669278Y463754D02*
Y464788D01*
X674410Y469920D01*
X678260D01*
X662072Y494955D02*
X663426Y493601D01*
X932360Y738430D02*
X984500Y686290D01*
X660839Y445011D02*
X667691D01*
X667918Y445238D01*
X661580Y497794D02*
Y498500D01*
Y497794D02*
X662072Y497302D01*
X661472Y500983D02*
X662072Y501583D01*
Y494955D02*
Y497302D01*
X661472Y498608D02*
Y500983D01*
X662072Y501583D02*
Y501827D01*
X661472Y498608D02*
X661580Y498500D01*
X805260Y666880D02*
Y678936D01*
X732710Y594330D02*
X805260Y666880D01*
X607164Y431492D02*
X613796Y438124D01*
X653953D01*
X660839Y445011D01*
X797610Y509080D02*
X813230D01*
X818840Y514690D01*
X915090Y556710D02*
X952600D01*
X959970Y564080D01*
X920700Y561880D02*
X950070Y591250D01*
X907170Y561880D02*
X920700D01*
X950070Y591250D02*
X963600D01*
X692813Y365636D02*
X699573Y358877D01*
X692813Y365636D02*
Y371023D01*
X692964Y371174D01*
Y376560D01*
X691952Y377572D02*
Y380954D01*
Y377572D02*
X692964Y376560D01*
X672296Y337737D02*
X690242Y355683D01*
X700371D01*
X686414Y461742D02*
X687014D01*
X660719Y503180D02*
X662072Y501827D01*
X672650Y626340D02*
X724240D01*
X544629Y500500D02*
X546734Y498395D01*
X578628Y526150D02*
Y540402D01*
X583231Y521547D02*
X583861D01*
X578628Y526150D02*
X583231Y521547D01*
X512050Y500500D02*
X544629D01*
X659501Y503180D02*
X660719D01*
X702680Y538450D02*
X702790Y538340D01*
X702680Y538450D02*
Y550715D01*
X732710Y580745D01*
Y594330D01*
X703883Y597462D02*
X874414Y767993D01*
X703883Y561006D02*
Y597462D01*
X584760Y561990D02*
Y592398D01*
X505452Y671706D02*
X584760Y592398D01*
X505452Y671706D02*
Y686508D01*
X484660Y707300D02*
X505452Y686508D01*
X575630Y458640D02*
X581177D01*
X590075Y449742D01*
X592970D01*
X968220Y650650D02*
X969210Y651640D01*
X957990Y650650D02*
X968220D01*
X957550Y651090D02*
X957990Y650650D01*
X806300Y651090D02*
X957550D01*
X724240Y626340D02*
X746680Y648780D01*
X513850Y555830D02*
X525250D01*
X470051Y512030D02*
X513850Y555830D01*
X429035Y512030D02*
X470051D01*
X411779Y494774D02*
X429035Y512030D01*
X371259Y494774D02*
X411779D01*
X340365Y463879D02*
X371259Y494774D01*
X340365Y447943D02*
Y463879D01*
X330414Y437992D02*
X340365Y447943D01*
X376640Y424010D02*
Y425232D01*
X368101Y415470D02*
X376640Y424010D01*
X689414Y383492D02*
X691952Y380954D01*
X699573Y358877D02*
X700371D01*
X701307Y357942D01*
Y356618D02*
Y357942D01*
X700371Y355683D02*
X701307Y356618D01*
X431927Y317900D02*
X434414Y315413D01*
X416020Y317900D02*
X431927D01*
X577280Y502370D02*
X587529Y492121D01*
X447150Y671880D02*
X578628Y540402D01*
X1168860Y686290D02*
X1169080Y686510D01*
X984500Y686290D02*
X1168860D01*
X593414Y425930D02*
Y433766D01*
X592680Y434500D02*
X593414Y433766D01*
X300754Y436494D02*
X330414D01*
X276430Y412170D02*
X300754Y436494D01*
X338690Y403962D02*
X340995Y406267D01*
X338690Y383811D02*
Y403962D01*
Y383811D02*
X343860Y378641D01*
Y358490D02*
Y378641D01*
X722920Y265210D02*
X725010Y267300D01*
X718520Y265210D02*
X722920D01*
X361790Y322520D02*
X364210Y320100D01*
X361790Y322520D02*
Y372350D01*
X340414Y386925D02*
Y390992D01*
Y386925D02*
X354989Y372350D01*
X361790D01*
D100*
X1075034Y447612D02*
D03*
D03*
X697481Y465558D02*
D03*
D03*
X694414Y469142D02*
D03*
X685169Y447054D02*
D03*
X711481Y462843D02*
D03*
X733260Y455180D02*
D03*
X635816Y469778D02*
D03*
D03*
X609769Y464431D02*
D03*
X504020Y467940D02*
D03*
X639624Y469242D02*
D03*
X674414Y490949D02*
D03*
D03*
X672980Y506550D02*
D03*
X667209Y511277D02*
D03*
X659982Y507742D02*
D03*
D03*
X652078Y493037D02*
D03*
X624250Y458260D02*
D03*
X619414Y452807D02*
D03*
X670238Y501314D02*
D03*
X628952Y465538D02*
D03*
X629449Y472116D02*
D03*
X627110Y468270D02*
D03*
X717355Y393592D02*
D03*
X717414Y395141D02*
D03*
X714125Y395393D02*
D03*
X717331Y401368D02*
D03*
D03*
X712577Y393359D02*
D03*
X636345Y364161D02*
D03*
X632615Y334112D02*
D03*
X631297Y371217D02*
D03*
D03*
X620951Y370248D02*
D03*
D03*
X665383Y363354D02*
D03*
D03*
X655358Y361845D02*
D03*
D03*
X667840Y362064D02*
D03*
X615889Y338018D02*
D03*
X599398Y342566D02*
D03*
X566908Y343168D02*
D03*
X562100Y345620D02*
D03*
D03*
X559350Y344850D02*
D03*
X620290Y336930D02*
D03*
X498190Y357060D02*
D03*
X513102Y357742D02*
D03*
X376957Y193492D02*
D03*
D03*
X409958Y330000D02*
D03*
X429440Y330880D02*
D03*
X500830Y329120D02*
D03*
D03*
X712699Y392958D02*
D03*
X652527Y488309D02*
D03*
X657710Y490041D02*
D03*
X694511Y493211D02*
D03*
X654907Y491679D02*
D03*
X692592Y494450D02*
D03*
D03*
X659879Y480384D02*
D03*
X658947Y477694D02*
D03*
X652939Y484260D02*
D03*
X653596Y484647D02*
D03*
X652364Y489321D02*
D03*
D03*
X661037Y478855D02*
D03*
X659789Y476417D02*
D03*
X649172Y488193D02*
D03*
X642246Y480986D02*
D03*
X614414Y494577D02*
D03*
X610766Y480844D02*
D03*
X565510Y477840D02*
D03*
X546475Y475918D02*
D03*
D03*
X600009Y477866D02*
D03*
D03*
X680414Y457401D02*
D03*
X667414Y451956D02*
D03*
X684750Y453200D02*
D03*
X665716Y461268D02*
D03*
X664993Y459116D02*
D03*
X663080Y456443D02*
D03*
X650980Y462000D02*
D03*
X621380Y444595D02*
D03*
D03*
X657672Y480242D02*
D03*
X666264Y476044D02*
D03*
Y467228D02*
D03*
D03*
X660110Y468348D02*
D03*
X666034Y465098D02*
D03*
X630326Y459544D02*
D03*
D03*
X664064Y468056D02*
D03*
X665111Y466880D02*
D03*
X664064Y468056D02*
D03*
X662414Y491295D02*
D03*
X663614Y470800D02*
D03*
X525431Y452456D02*
D03*
X476410Y460240D02*
D03*
X534643Y423492D02*
D03*
X499510Y421520D02*
D03*
X652859Y465381D02*
D03*
D03*
X650414Y466617D02*
D03*
D03*
X665698Y450240D02*
D03*
X894080Y437580D02*
D03*
X947540Y437800D02*
D03*
X1039170Y475200D02*
D03*
D03*
X650864Y459166D02*
D03*
X817800Y371680D02*
D03*
X824322Y356730D02*
D03*
X840871Y364992D02*
D03*
X816617Y346630D02*
D03*
D03*
X824890Y354750D02*
D03*
D03*
X826028Y351952D02*
D03*
X861190Y350020D02*
D03*
D03*
X794770Y350080D02*
D03*
X761530Y347160D02*
D03*
X753500Y348700D02*
D03*
X698360Y341750D02*
D03*
D03*
X704290Y340570D02*
D03*
X715414Y343712D02*
D03*
X715642Y344160D02*
D03*
X709500Y335500D02*
D03*
D03*
X705412Y337095D02*
D03*
D03*
X724570Y339570D02*
D03*
X719183Y341965D02*
D03*
X721089Y348242D02*
D03*
D03*
X720258Y340890D02*
D03*
X857800Y385471D02*
D03*
X857954Y374564D02*
D03*
D03*
X801584Y430022D02*
D03*
X798063Y430318D02*
D03*
X803902Y425518D02*
D03*
D03*
X805800Y436634D02*
D03*
X768460Y427350D02*
D03*
X739298Y418417D02*
D03*
D03*
X729151Y409393D02*
D03*
D03*
X724872Y396935D02*
D03*
D03*
X728443Y396198D02*
D03*
D03*
X823090Y440240D02*
D03*
D03*
X725612Y393366D02*
D03*
X825800Y449220D02*
D03*
X822640Y439340D02*
D03*
X782540Y420860D02*
D03*
X758355Y411768D02*
D03*
X726132Y403768D02*
D03*
X711415Y392168D02*
D03*
X769836Y414324D02*
D03*
X848727Y452780D02*
D03*
X858525Y453530D02*
D03*
D03*
X678757Y471835D02*
D03*
X658867Y469937D02*
D03*
X669246Y475294D02*
D03*
X671320Y486926D02*
D03*
X650871Y471035D02*
D03*
X652384Y471650D02*
D03*
X692670Y524810D02*
D03*
X732160Y560230D02*
D03*
X909150Y718410D02*
D03*
X668372Y491492D02*
D03*
X663426Y493601D02*
D03*
X932360Y738430D02*
D03*
X628540Y557260D02*
D03*
X650198Y586279D02*
D03*
X706640Y690140D02*
D03*
X729061Y384727D02*
D03*
X750489Y385025D02*
D03*
X803360Y394280D02*
D03*
X855684Y426080D02*
D03*
X729745Y383714D02*
D03*
X854476Y423936D02*
D03*
X872681Y426312D02*
D03*
X870362Y424608D02*
D03*
D03*
X866291Y421638D02*
D03*
D03*
X847328Y409394D02*
D03*
D03*
X826870Y406560D02*
D03*
D03*
X754414Y382514D02*
D03*
D03*
X731935Y376612D02*
D03*
D03*
X727328Y376828D02*
D03*
D03*
X717024Y369710D02*
D03*
D03*
X711544Y363362D02*
D03*
D03*
X721318Y362333D02*
D03*
D03*
X757030Y368728D02*
D03*
D03*
X778250Y376970D02*
D03*
D03*
X798094Y380974D02*
D03*
D03*
X819400Y388830D02*
D03*
D03*
X798692Y376984D02*
D03*
X797360Y387200D02*
D03*
X818440Y344346D02*
D03*
X786564Y340671D02*
D03*
X778580Y338910D02*
D03*
X763510Y339790D02*
D03*
X754414Y342410D02*
D03*
X846818Y350830D02*
D03*
X848238Y345213D02*
D03*
X783980Y340340D02*
D03*
X792550Y337700D02*
D03*
X759440Y342100D02*
D03*
X748440Y340890D02*
D03*
D03*
X719180Y316360D02*
D03*
X823945Y321630D02*
D03*
X647614Y470972D02*
D03*
D03*
X667414Y384492D02*
D03*
X670323Y455881D02*
D03*
X680680Y559680D02*
D03*
D03*
X667918Y445238D02*
D03*
X669646Y426908D02*
D03*
D03*
X665942Y501781D02*
D03*
X664339Y499795D02*
D03*
X665942Y501781D02*
D03*
X662932Y333926D02*
D03*
D03*
X662414Y490141D02*
D03*
X677922Y497506D02*
D03*
X680064D02*
D03*
X907280Y779570D02*
D03*
D03*
X805260Y678936D02*
D03*
X667532Y525382D02*
D03*
X648890Y525470D02*
D03*
X636460Y496055D02*
D03*
X654824Y523060D02*
D03*
X645934Y498014D02*
D03*
X641520Y572550D02*
D03*
X607012Y458620D02*
D03*
X696520Y699930D02*
D03*
X667693Y478708D02*
D03*
X730950Y476520D02*
D03*
X797610Y509080D02*
D03*
X818840Y514690D02*
D03*
X915090Y556710D02*
D03*
X959970Y564080D02*
D03*
X656414Y451492D02*
D03*
X757460Y483560D02*
D03*
D03*
X496760Y483340D02*
D03*
D03*
X579700Y771760D02*
D03*
D03*
X564414Y461712D02*
D03*
X831822Y341870D02*
D03*
X643414Y412492D02*
D03*
X767580Y399960D02*
D03*
X721710Y392658D02*
D03*
D03*
X870670Y432209D02*
D03*
X775720Y386100D02*
D03*
X727328Y383714D02*
D03*
D03*
X733128Y380912D02*
D03*
D03*
X726021Y386816D02*
D03*
X765121Y435242D02*
D03*
D03*
X787600Y470580D02*
D03*
D03*
X657973Y464486D02*
D03*
X678260Y469920D02*
D03*
X833910Y527890D02*
D03*
X907170Y561880D02*
D03*
X963600Y591250D02*
D03*
X983180Y606980D02*
D03*
D03*
X672400Y491492D02*
D03*
D03*
X770660Y525910D02*
D03*
D03*
X624395Y463492D02*
D03*
X659816Y538484D02*
D03*
X699224Y697180D02*
D03*
D03*
X746020Y753610D02*
D03*
D03*
X754414Y393492D02*
D03*
X756580Y367510D02*
D03*
X719414Y359772D02*
D03*
X717774Y367274D02*
D03*
X789358Y391334D02*
D03*
X824414Y399066D02*
D03*
X794860Y391270D02*
D03*
X817882Y397598D02*
D03*
D03*
X807392Y393588D02*
D03*
D03*
X854668Y435992D02*
D03*
X869838D02*
D03*
X848727D02*
D03*
X811569Y425440D02*
D03*
X809355Y425806D02*
D03*
X749430Y390390D02*
D03*
X830624Y435904D02*
D03*
X634414Y393492D02*
D03*
X653999Y383504D02*
D03*
X659276Y374570D02*
D03*
X691952Y373598D02*
D03*
X674428Y419992D02*
D03*
X622517Y418853D02*
D03*
X614778Y419105D02*
D03*
X627264Y483492D02*
D03*
D03*
X619067Y485423D02*
D03*
D03*
X621280Y489720D02*
D03*
D03*
X620168Y487838D02*
D03*
D03*
X653400Y663960D02*
D03*
D03*
X639650Y724240D02*
D03*
D03*
X684750Y714450D02*
D03*
D03*
X695090Y551992D02*
D03*
D03*
X669414Y395492D02*
D03*
X668902D02*
D03*
X650414Y384692D02*
D03*
X659019Y370387D02*
D03*
X658733Y358289D02*
D03*
X687486Y479194D02*
D03*
X671956Y397926D02*
D03*
X648695Y388644D02*
D03*
X663414Y371492D02*
D03*
X761530Y333230D02*
D03*
D03*
X793087Y334750D02*
D03*
X885940Y382140D02*
D03*
D03*
X892518Y384680D02*
D03*
D03*
X963710Y324830D02*
D03*
D03*
X963820Y324720D02*
D03*
X902522Y340340D02*
D03*
X650414Y444117D02*
D03*
X379720Y438020D02*
D03*
X629856Y449606D02*
D03*
X684414Y429492D02*
D03*
X685876Y417520D02*
D03*
D03*
X684968Y419024D02*
D03*
X664948Y336600D02*
D03*
X637769Y334411D02*
D03*
X636273Y332676D02*
D03*
X711500Y323370D02*
D03*
D03*
X693770Y320760D02*
D03*
D03*
X702065Y330656D02*
D03*
X746159Y327366D02*
D03*
X734718Y333052D02*
D03*
D03*
X811743Y342731D02*
D03*
X813670Y353540D02*
D03*
X820050Y350020D02*
D03*
D03*
X874467Y363347D02*
D03*
X850261Y367547D02*
D03*
D03*
X870320Y369100D02*
D03*
X841236Y382946D02*
D03*
X847972Y380728D02*
D03*
X838299Y387761D02*
D03*
X844414Y363492D02*
D03*
X821254Y363265D02*
D03*
X817300Y361460D02*
D03*
D03*
X777408Y411356D02*
D03*
X782100Y402050D02*
D03*
X822648Y388080D02*
D03*
X776600Y360470D02*
D03*
X781853Y363083D02*
D03*
X729080Y323840D02*
D03*
X772165Y334750D02*
D03*
X742830Y371910D02*
D03*
X845790Y366056D02*
D03*
X748208Y355069D02*
D03*
X785750Y350080D02*
D03*
D03*
X611291Y344017D02*
D03*
X615400Y360042D02*
D03*
X548900Y435270D02*
D03*
X556527Y503564D02*
D03*
D03*
X594316Y538656D02*
D03*
X608080Y576840D02*
D03*
X627110Y775830D02*
D03*
X581558Y764060D02*
D03*
D03*
X631846Y326584D02*
D03*
X612260Y347050D02*
D03*
X588500Y389950D02*
D03*
X673278Y421779D02*
D03*
X699930Y426056D02*
D03*
D03*
X645286Y490656D02*
D03*
D03*
X687801Y351174D02*
D03*
X688414Y351492D02*
D03*
X799040Y335500D02*
D03*
X922020Y297000D02*
D03*
X944215Y310995D02*
D03*
D03*
X636228Y489378D02*
D03*
D03*
X694430Y343530D02*
D03*
X924414Y476406D02*
D03*
X612370Y383240D02*
D03*
X671509Y392350D02*
D03*
D03*
X684806Y431026D02*
D03*
X658459Y399447D02*
D03*
X649671Y402749D02*
D03*
D03*
X661454Y382492D02*
D03*
X659780Y333300D02*
D03*
X680171Y319878D02*
D03*
D03*
X679920Y323310D02*
D03*
D03*
X821260Y315370D02*
D03*
D03*
X643414Y429492D02*
D03*
X792330Y297880D02*
D03*
X897582Y287297D02*
D03*
X874414Y443492D02*
D03*
X873309Y439439D02*
D03*
X724305Y388282D02*
D03*
D03*
X734272Y397188D02*
D03*
X734414Y363492D02*
D03*
X557040Y363660D02*
D03*
D03*
X511060Y366520D02*
D03*
X621914Y371142D02*
D03*
X620840Y326150D02*
D03*
X636514Y337450D02*
D03*
D03*
X643748Y367704D02*
D03*
X630414Y403704D02*
D03*
X628259Y408492D02*
D03*
D03*
X630414Y401229D02*
D03*
D03*
X600837Y395684D02*
D03*
X584161Y394288D02*
D03*
X632414Y358522D02*
D03*
X620330Y397875D02*
D03*
X641414Y362492D02*
D03*
D03*
X620957Y373492D02*
D03*
D03*
X638660Y450780D02*
D03*
X639643Y458992D02*
D03*
D03*
X653910Y475840D02*
D03*
X672914Y493492D02*
D03*
X604414Y463492D02*
D03*
D03*
X687324Y553907D02*
D03*
X716782Y686992D02*
D03*
X720415Y713599D02*
D03*
D03*
X577940Y741070D02*
D03*
X528330Y522390D02*
D03*
D03*
X564517Y480234D02*
D03*
X542410Y460900D02*
D03*
X533830Y453420D02*
D03*
X632418Y324545D02*
D03*
D03*
X635030Y322221D02*
D03*
X587436Y358130D02*
D03*
X613030Y369930D02*
D03*
D03*
X651669Y432778D02*
D03*
X647794Y450664D02*
D03*
X672166Y473687D02*
D03*
D03*
X718300Y530640D02*
D03*
X897600Y730070D02*
D03*
D03*
X677064Y480910D02*
D03*
D03*
X889414Y763492D02*
D03*
D03*
X874610Y803000D02*
D03*
D03*
X484330Y507650D02*
D03*
X639650Y514690D02*
D03*
X656920Y518430D02*
D03*
X683194Y548248D02*
D03*
X697840Y542410D02*
D03*
X692193Y560683D02*
D03*
D03*
X665390Y553630D02*
D03*
D03*
X657910Y552860D02*
D03*
D03*
X604414Y516406D02*
D03*
D03*
X583650Y520327D02*
D03*
D03*
X512050Y500500D02*
D03*
X867469Y376065D02*
D03*
D03*
X867019Y359613D02*
D03*
X854668Y358680D02*
D03*
X804760Y349250D02*
D03*
X531850Y383460D02*
D03*
X567386Y371800D02*
D03*
X569360Y370915D02*
D03*
D03*
X653290Y409640D02*
D03*
X650865Y419100D02*
D03*
X644229Y487429D02*
D03*
X636790Y574640D02*
D03*
X626780Y689810D02*
D03*
X620400Y728090D02*
D03*
D03*
X703560Y693440D02*
D03*
X750483Y753073D02*
D03*
D03*
X739200Y776820D02*
D03*
D03*
X702790Y538340D02*
D03*
X888030Y744920D02*
D03*
D03*
X534380Y561880D02*
D03*
Y560450D02*
D03*
X574414Y486626D02*
D03*
X583650Y522559D02*
D03*
X584760Y561990D02*
D03*
X484660Y707300D02*
D03*
X476630Y721050D02*
D03*
D03*
X597138Y477840D02*
D03*
D03*
X459470Y763510D02*
D03*
X435600Y609180D02*
D03*
X575630Y458640D02*
D03*
X605550Y506000D02*
D03*
X708728Y500190D02*
D03*
X821040Y530090D02*
D03*
X934892Y570920D02*
D03*
D03*
X597112Y486584D02*
D03*
X660110Y501710D02*
D03*
X676940Y684750D02*
D03*
X471900Y611600D02*
D03*
X378620Y474650D02*
D03*
D03*
X531300Y459470D02*
D03*
X728764Y519355D02*
D03*
X969210Y651640D02*
D03*
X806300Y651090D02*
D03*
X746680Y648780D02*
D03*
X672650Y626340D02*
D03*
X525250Y555830D02*
D03*
X393250Y461340D02*
D03*
X368101Y415470D02*
D03*
X439340Y720390D02*
D03*
D03*
X641213Y382492D02*
D03*
X711603Y523665D02*
D03*
X890670Y743160D02*
D03*
D03*
X711413Y407492D02*
D03*
D03*
X722334Y403018D02*
D03*
D03*
X747120Y438058D02*
D03*
X721134Y411425D02*
D03*
D03*
X804637Y455349D02*
D03*
X815557Y457932D02*
D03*
D03*
X817871Y463490D02*
D03*
X801800Y459183D02*
D03*
X863610Y387530D02*
D03*
D03*
X822493Y431962D02*
D03*
X842557Y413492D02*
D03*
X822493Y431212D02*
D03*
X854810Y402600D02*
D03*
X838347Y411629D02*
D03*
X784183Y418131D02*
D03*
X763070Y404580D02*
D03*
X684414Y386492D02*
D03*
D03*
X689414Y383492D02*
D03*
D03*
X672296Y337737D02*
D03*
X515130Y356730D02*
D03*
X434414Y315413D02*
D03*
X416020Y317900D02*
D03*
X354640Y306350D02*
D03*
D03*
X470580Y301510D02*
D03*
X489280Y308330D02*
D03*
X505672Y302815D02*
D03*
X507088Y304335D02*
D03*
X508090Y305470D02*
D03*
X533830Y308110D02*
D03*
D03*
X678556Y335350D02*
D03*
X617377Y442485D02*
D03*
X598290Y493900D02*
D03*
X597112Y515159D02*
D03*
D03*
X903002Y718838D02*
D03*
X902880Y727870D02*
D03*
X899690Y723360D02*
D03*
X677991Y487093D02*
D03*
X725914Y429712D02*
D03*
X740796Y433896D02*
D03*
X739441Y431041D02*
D03*
X841280Y463870D02*
D03*
D03*
X838347Y411938D02*
D03*
X785300Y345876D02*
D03*
X774510Y319880D02*
D03*
X741730Y308110D02*
D03*
D03*
X662414Y479492D02*
D03*
X725914Y437703D02*
D03*
D03*
X732424Y434064D02*
D03*
D03*
X760782Y421308D02*
D03*
X703414Y470582D02*
D03*
X736180Y338420D02*
D03*
X738650Y530640D02*
D03*
X709689Y431411D02*
D03*
D03*
X719414Y486917D02*
D03*
X714340Y498300D02*
D03*
X747780Y521510D02*
D03*
X648670Y672100D02*
D03*
X708494Y488992D02*
D03*
X674850Y567860D02*
D03*
D03*
X673970Y541706D02*
D03*
D03*
X577280Y502370D02*
D03*
X447150Y671880D02*
D03*
X798100Y403492D02*
D03*
X801460Y406890D02*
D03*
D03*
X800100Y411620D02*
D03*
D03*
X795800Y412476D02*
D03*
D03*
X793871Y423492D02*
D03*
D03*
X796032Y406803D02*
D03*
D03*
X798100Y403492D02*
D03*
X795800Y396010D02*
D03*
D03*
X706310Y496760D02*
D03*
X715000Y495880D02*
D03*
D03*
X758450Y455730D02*
D03*
D03*
X668372Y483992D02*
D03*
X1088450Y486420D02*
D03*
X778910Y486272D02*
D03*
X668796Y467534D02*
D03*
X609250Y379850D02*
D03*
X615407Y395499D02*
D03*
X576620Y407110D02*
D03*
D03*
X658570Y726220D02*
D03*
D03*
X703883Y561006D02*
D03*
X966770Y636130D02*
D03*
X903320Y718520D02*
D03*
D03*
X900130Y735900D02*
D03*
D03*
X1058970Y532510D02*
D03*
D03*
X889503Y429651D02*
D03*
X938488Y424180D02*
D03*
X825684Y378180D02*
D03*
D03*
X843260Y377360D02*
D03*
D03*
X884730Y375320D02*
D03*
D03*
X889800Y443180D02*
D03*
D03*
X592680Y434500D02*
D03*
X804430Y761970D02*
D03*
D03*
X774414Y611492D02*
D03*
D03*
X780450Y720720D02*
D03*
D03*
X1084414Y626492D02*
D03*
D03*
X997590Y657140D02*
D03*
D03*
X717774Y363083D02*
D03*
X931376Y436492D02*
D03*
X902110Y429770D02*
D03*
X330414Y436494D02*
D03*
X276430Y412170D02*
D03*
X361419Y389950D02*
D03*
X370558Y393824D02*
D03*
X367620Y404140D02*
D03*
X350460Y412720D02*
D03*
D03*
X352990Y413160D02*
D03*
X345510Y390170D02*
D03*
X416790Y412390D02*
D03*
D03*
X304414Y413492D02*
D03*
D03*
X292160Y413270D02*
D03*
D03*
X268584Y382992D02*
D03*
D03*
X231053Y303396D02*
D03*
D03*
X284414Y358488D02*
D03*
D03*
Y360492D02*
D03*
D03*
X278740Y374220D02*
D03*
D03*
X222224Y401696D02*
D03*
D03*
X171914Y410367D02*
D03*
D03*
X218548Y412780D02*
D03*
D03*
X182710Y400510D02*
D03*
D03*
X195250D02*
D03*
D03*
X202180Y384450D02*
D03*
D03*
X161810Y400180D02*
D03*
D03*
X654414Y339492D02*
D03*
D03*
X650090Y329708D02*
D03*
X628906Y356492D02*
D03*
X630630Y361240D02*
D03*
X624414Y369178D02*
D03*
X630414Y418004D02*
D03*
X618414Y467384D02*
D03*
X626560Y504020D02*
D03*
X643720Y323180D02*
D03*
X637450Y359040D02*
D03*
X638076Y339154D02*
D03*
X652740Y360140D02*
D03*
X651464Y397992D02*
D03*
X680790Y721160D02*
D03*
D03*
X751850Y545380D02*
D03*
D03*
X764414Y504035D02*
D03*
D03*
X783294Y496868D02*
D03*
D03*
X844414Y494035D02*
D03*
D03*
X860957Y473492D02*
D03*
X864380Y408540D02*
D03*
X936870Y395670D02*
D03*
X1035320Y410190D02*
D03*
X1055230Y401170D02*
D03*
X1087020Y406340D02*
D03*
D03*
X1137871Y323492D02*
D03*
X952050Y267960D02*
D03*
X909810Y280940D02*
D03*
X689414Y356492D02*
D03*
X680678Y315896D02*
D03*
X658414Y382492D02*
D03*
D03*
X645414Y372492D02*
D03*
X612370Y383240D02*
D03*
X602140Y384450D02*
D03*
X832040Y455730D02*
D03*
X805945Y463228D02*
D03*
X841060Y425590D02*
D03*
D03*
X809800Y430180D02*
D03*
X762850Y401390D02*
D03*
X689643Y419707D02*
D03*
X1026190Y388520D02*
D03*
X1064580Y386760D02*
D03*
X343860Y358490D02*
D03*
X424710Y166760D02*
D03*
D03*
X443960Y178860D02*
D03*
D03*
X374516Y391610D02*
D03*
D03*
X553157Y322377D02*
D03*
D03*
X530728Y299949D02*
D03*
D03*
X529940Y345770D02*
D03*
X672650Y364540D02*
D03*
X670890Y299090D02*
D03*
D03*
X699710Y357280D02*
D03*
X878460Y429880D02*
D03*
D03*
X913660Y435820D02*
D03*
D03*
X944900Y446600D02*
D03*
D03*
X1036420Y479380D02*
D03*
D03*
X1124414Y500492D02*
D03*
X968770Y453750D02*
D03*
X824414Y406642D02*
D03*
X793756Y376183D02*
D03*
X688418Y309546D02*
D03*
X584414Y248034D02*
D03*
D03*
X518876Y368060D02*
D03*
D03*
X514910Y381480D02*
D03*
X497640Y395890D02*
D03*
X641758Y336724D02*
D03*
X644356Y340788D02*
D03*
X491702Y381428D02*
D03*
D03*
X498080Y405790D02*
D03*
D03*
X623920Y327360D02*
D03*
X513370Y265760D02*
D03*
D03*
X633938Y343293D02*
D03*
X689711Y421789D02*
D03*
X688850Y399492D02*
D03*
X889800Y397680D02*
D03*
X895800Y395624D02*
D03*
X899690Y395560D02*
D03*
D03*
X885830Y399740D02*
D03*
D03*
X871310Y286110D02*
D03*
D03*
X886545Y284908D02*
D03*
D03*
X884180Y276210D02*
D03*
X1057210Y385000D02*
D03*
D03*
X1238132Y444695D02*
D03*
D03*
X1192400Y411400D02*
D03*
D03*
X1215888Y447160D02*
D03*
D03*
X1126180Y599940D02*
D03*
D03*
X1169080Y686510D02*
D03*
D03*
X844414Y763492D02*
D03*
D03*
X336930Y331650D02*
D03*
D03*
X744150Y454850D02*
D03*
D03*
X766810Y499290D02*
D03*
X1132120Y645810D02*
D03*
D03*
X1029160Y251790D02*
D03*
X668164Y399492D02*
D03*
X660770Y392810D02*
D03*
X585414Y269842D02*
D03*
X505019Y361616D02*
D03*
X714670Y328900D02*
D03*
X674960Y371724D02*
D03*
D03*
X686290Y331650D02*
D03*
D03*
X687372Y342228D02*
D03*
D03*
X808280Y411620D02*
D03*
X459030Y453200D02*
D03*
X436920Y412720D02*
D03*
X690414Y335492D02*
D03*
D03*
X583440Y727650D02*
D03*
D03*
X813340Y367070D02*
D03*
D03*
X788920Y355960D02*
D03*
D03*
X688728Y325492D02*
D03*
X686290Y339680D02*
D03*
D03*
X688728Y325492D02*
D03*
X918610Y717310D02*
D03*
D03*
X691020Y460900D02*
D03*
D03*
X825800Y365180D02*
D03*
X690414Y339492D02*
D03*
X815870Y332310D02*
D03*
D03*
X826980Y329890D02*
D03*
D03*
X725010Y267300D02*
D03*
X718520Y265210D02*
D03*
X572880Y215820D02*
D03*
D03*
X394414Y201034D02*
D03*
X364210Y320100D02*
D03*
X361790Y372350D02*
D03*
X486876Y448992D02*
D03*
X986920Y359700D02*
D03*
X915310Y358930D02*
D03*
X903430Y340340D02*
D03*
D03*
X599060Y262680D02*
D03*
X480920Y246180D02*
D03*
X413160Y244420D02*
D03*
X396770Y233310D02*
D03*
D03*
X440990Y245080D02*
D03*
X439120Y217690D02*
D03*
X294360Y333190D02*
D03*
D03*
X172150Y364540D02*
D03*
D03*
D101*
X684414Y445742D02*
D03*
X719414Y462742D02*
D03*
X639624Y469242D02*
D03*
X615809Y464388D02*
D03*
X512335Y475408D02*
D03*
X670514Y511752D02*
D03*
X654591Y496563D02*
D03*
X716593Y397699D02*
D03*
X711343Y393366D02*
D03*
X661664Y360492D02*
D03*
X439124Y343582D02*
D03*
X498560Y319850D02*
D03*
X711414Y385242D02*
D03*
X713664Y387492D02*
D03*
X651563Y481768D02*
D03*
X650414Y477742D02*
D03*
X660264Y486495D02*
D03*
X605432Y473742D02*
D03*
X591633Y482678D02*
D03*
X672298Y445742D02*
D03*
X661664Y459459D02*
D03*
X633594Y445468D02*
D03*
X646388Y482358D02*
D03*
X648912Y476994D02*
D03*
X640076Y471403D02*
D03*
X642414Y473742D02*
D03*
X652103Y477200D02*
D03*
X670044Y474111D02*
D03*
X682655Y465500D02*
D03*
X662004Y461858D02*
D03*
X881800Y447480D02*
D03*
X1080159Y456612D02*
D03*
X1142450Y479910D02*
D03*
X825229Y361616D02*
D03*
X713664Y347342D02*
D03*
X709664D02*
D03*
X705570Y335350D02*
D03*
X860777Y346751D02*
D03*
X857800Y385471D02*
D03*
X858138Y380718D02*
D03*
X858007Y367173D02*
D03*
X801376Y434904D02*
D03*
X806036Y434684D02*
D03*
X720112Y397417D02*
D03*
X677359Y506422D02*
D03*
X713694Y548070D02*
D03*
X939414Y758992D02*
D03*
X917448Y740542D02*
D03*
X653557Y605456D02*
D03*
X781418Y385951D02*
D03*
X801216Y393042D02*
D03*
X825800Y414879D02*
D03*
X858804Y428984D02*
D03*
X873800Y427980D02*
D03*
X857800Y420179D02*
D03*
X809800Y399880D02*
D03*
X711414Y369242D02*
D03*
X863702Y368650D02*
D03*
X857800Y354380D02*
D03*
X848042Y347424D02*
D03*
X817800Y340380D02*
D03*
X792315Y346166D02*
D03*
X658414Y473742D02*
D03*
X670414Y340325D02*
D03*
X658414Y349242D02*
D03*
X669943Y348419D02*
D03*
X675051Y429795D02*
D03*
X677992Y428346D02*
D03*
X672493Y453116D02*
D03*
X685928Y573517D02*
D03*
X944414Y767993D02*
D03*
X924414Y780050D02*
D03*
X1273514Y709992D02*
D03*
X1274414Y617394D02*
D03*
X620661Y446969D02*
D03*
X621384Y450938D02*
D03*
X615414Y432742D02*
D03*
X611336Y431492D02*
D03*
X607164Y427492D02*
D03*
Y439492D02*
D03*
X597414Y426404D02*
D03*
X615414Y444079D02*
D03*
X607937Y467788D02*
D03*
X609304Y473630D02*
D03*
X615809Y461742D02*
D03*
X683472Y633492D02*
D03*
X709126Y718994D02*
D03*
X666976Y446473D02*
D03*
X619414Y432742D02*
D03*
X650414Y445742D02*
D03*
X654374Y445473D02*
D03*
X1003302Y615992D02*
D03*
X589414Y454992D02*
D03*
X533866Y450815D02*
D03*
X713359Y399356D02*
D03*
X715330Y401326D02*
D03*
X705570Y382604D02*
D03*
X712428Y380544D02*
D03*
X712174Y377364D02*
D03*
X714149Y373524D02*
D03*
X707414Y385242D02*
D03*
X589429Y429748D02*
D03*
X628414Y432742D02*
D03*
X652356Y469550D02*
D03*
X658414Y467148D02*
D03*
X653657Y469695D02*
D03*
X674414Y461742D02*
D03*
X861128Y523492D02*
D03*
X821190D02*
D03*
X791128D02*
D03*
X622815Y459962D02*
D03*
X715229Y369744D02*
D03*
X709273Y366027D02*
D03*
X775229Y426640D02*
D03*
X801735Y428044D02*
D03*
X713812Y379344D02*
D03*
X683925Y366242D02*
D03*
X674660Y412488D02*
D03*
X615414Y420005D02*
D03*
X610372Y418258D02*
D03*
X625788Y420693D02*
D03*
X622315Y500330D02*
D03*
X625641Y519269D02*
D03*
X639414Y758992D02*
D03*
X684975Y488616D02*
D03*
X686414Y473742D02*
D03*
X683038Y426640D02*
D03*
X675526Y425492D02*
D03*
X667879Y391003D02*
D03*
X645799Y391936D02*
D03*
X658635Y392242D02*
D03*
X645177D02*
D03*
X645414Y379242D02*
D03*
X650945D02*
D03*
X645735Y386492D02*
D03*
X654414Y379242D02*
D03*
X653153Y377872D02*
D03*
X657918Y365746D02*
D03*
X653884Y366242D02*
D03*
X652089Y351567D02*
D03*
X645735Y360492D02*
D03*
X889800Y380380D02*
D03*
X684414Y392242D02*
D03*
X680414Y379242D02*
D03*
X684414D02*
D03*
X655609Y432742D02*
D03*
X628384Y443695D02*
D03*
X605414Y446198D02*
D03*
X511914Y435992D02*
D03*
X687664Y429492D02*
D03*
X664863Y378993D02*
D03*
X660464Y399492D02*
D03*
X811249Y359311D02*
D03*
X801882Y380462D02*
D03*
X817800Y385680D02*
D03*
X711414Y344342D02*
D03*
X700314Y345242D02*
D03*
X873800Y384910D02*
D03*
X863600Y378180D02*
D03*
X855229Y369744D02*
D03*
X873800Y380380D02*
D03*
X833800Y386880D02*
D03*
X622414Y349242D02*
D03*
X607164Y367492D02*
D03*
X587968Y375591D02*
D03*
X629715Y758992D02*
D03*
X612352Y671594D02*
D03*
X584414Y767992D02*
D03*
X594414Y767992D02*
D03*
X466048Y344090D02*
D03*
X417280Y348030D02*
D03*
X676414Y392242D02*
D03*
X684414Y419742D02*
D03*
X697664Y419492D02*
D03*
X690414Y353242D02*
D03*
X904198Y279066D02*
D03*
X622935Y386492D02*
D03*
X685642Y404215D02*
D03*
X680414Y405242D02*
D03*
X687664Y412492D02*
D03*
X680414Y431026D02*
D03*
X694414Y465742D02*
D03*
X645397Y417261D02*
D03*
X646896Y408224D02*
D03*
X641414Y419742D02*
D03*
X1025414Y358272D02*
D03*
X675664Y408492D02*
D03*
X676414Y405242D02*
D03*
X634164Y442492D02*
D03*
X641414Y432742D02*
D03*
X655895Y405242D02*
D03*
X809800Y434479D02*
D03*
X589414Y353447D02*
D03*
X597419Y353252D02*
D03*
X511914Y374657D02*
D03*
X639424Y349172D02*
D03*
X633072Y405299D02*
D03*
X637414Y405242D02*
D03*
X630386Y345242D02*
D03*
X643594Y353234D02*
D03*
X638414Y353242D02*
D03*
X635550Y345648D02*
D03*
X635019Y356492D02*
D03*
X634772Y361100D02*
D03*
X620194Y367021D02*
D03*
X618414Y353242D02*
D03*
X622935Y379242D02*
D03*
X624414D02*
D03*
X637414Y445742D02*
D03*
X614414Y767992D02*
D03*
X546734Y498395D02*
D03*
X650414Y337242D02*
D03*
X648362Y334496D02*
D03*
X652164Y339492D02*
D03*
X621164Y412492D02*
D03*
X672664Y471492D02*
D03*
X881846Y686990D02*
D03*
X597787Y333406D02*
D03*
X586513Y329104D02*
D03*
X579840Y344344D02*
D03*
X583797Y411866D02*
D03*
X483066Y499792D02*
D03*
X589414Y397242D02*
D03*
X868952Y358152D02*
D03*
X867019Y363960D02*
D03*
X719414Y336242D02*
D03*
X881800Y373880D02*
D03*
X674901Y360492D02*
D03*
X658204Y379242D02*
D03*
X674664Y356492D02*
D03*
X667414Y379242D02*
D03*
X649477Y405347D02*
D03*
X662208Y387035D02*
D03*
X660638Y409518D02*
D03*
X645414Y405242D02*
D03*
X647164Y412492D02*
D03*
X620732Y429492D02*
D03*
X627638Y422326D02*
D03*
X631557Y461742D02*
D03*
X634164Y459492D02*
D03*
X636990Y458222D02*
D03*
X635974Y454532D02*
D03*
X638414Y477742D02*
D03*
Y473630D02*
D03*
X884414Y767993D02*
D03*
X874414D02*
D03*
X864414D02*
D03*
X854414D02*
D03*
X593922Y560864D02*
D03*
X614414Y526462D02*
D03*
X585229Y467280D02*
D03*
X454414Y758992D02*
D03*
X620480Y502677D02*
D03*
X612352Y535591D02*
D03*
X588006Y478138D02*
D03*
X583527Y475249D02*
D03*
X853652Y605202D02*
D03*
X600668Y500554D02*
D03*
X1016914Y642540D02*
D03*
X351414Y456017D02*
D03*
X296418Y436510D02*
D03*
X304914Y468492D02*
D03*
X719414Y413742D02*
D03*
X865800Y414979D02*
D03*
X863600Y391180D02*
D03*
Y384680D02*
D03*
X833800Y421480D02*
D03*
Y367380D02*
D03*
X809785Y421495D02*
D03*
X689414Y379242D02*
D03*
X693414D02*
D03*
Y391581D02*
D03*
X611336Y424398D02*
D03*
X607164Y451492D02*
D03*
X669985Y482358D02*
D03*
X697664Y335492D02*
D03*
X692315Y329104D02*
D03*
X670414Y469242D02*
D03*
X697664Y479492D02*
D03*
X758656Y374307D02*
D03*
X856429Y329020D02*
D03*
X705569Y342860D02*
D03*
X708594D02*
D03*
X742315Y337232D02*
D03*
X725282Y345360D02*
D03*
X871600Y349080D02*
D03*
X718854Y449181D02*
D03*
X727664Y444492D02*
D03*
X701190Y453492D02*
D03*
X719414Y437742D02*
D03*
X691880Y431026D02*
D03*
X687664Y442492D02*
D03*
Y438492D02*
D03*
X674664Y439204D02*
D03*
X674698Y445742D02*
D03*
X651918Y347246D02*
D03*
X646326Y349112D02*
D03*
X678414Y353242D02*
D03*
X689672Y360478D02*
D03*
X684706Y362440D02*
D03*
X689065Y366242D02*
D03*
X702381Y378775D02*
D03*
X700942Y384704D02*
D03*
X694276Y366242D02*
D03*
X687664Y369492D02*
D03*
X719414Y409242D02*
D03*
X701760Y492123D02*
D03*
X712319Y515395D02*
D03*
X719359Y759047D02*
D03*
X669248Y542677D02*
D03*
X714414Y767993D02*
D03*
X593414Y459742D02*
D03*
X831808Y353953D02*
D03*
X792315Y369744D02*
D03*
X801800Y421480D02*
D03*
Y414979D02*
D03*
X881800Y460560D02*
D03*
X857800D02*
D03*
X889800D02*
D03*
X1133414Y467367D02*
D03*
X615414Y392242D02*
D03*
X619414D02*
D03*
X674161Y382979D02*
D03*
X674664Y399400D02*
D03*
X946914Y686992D02*
D03*
X909414Y750353D02*
D03*
X869414Y758992D02*
D03*
X646414Y465742D02*
D03*
X686414Y468428D02*
D03*
X1068909Y393590D02*
D03*
X880172Y389551D02*
D03*
X881800Y380380D02*
D03*
Y440980D02*
D03*
X593414Y425930D02*
D03*
X589414Y426742D02*
D03*
Y468742D02*
D03*
X595104Y448968D02*
D03*
X592970Y449742D02*
D03*
X622414Y473742D02*
D03*
X642324Y477694D02*
D03*
X593302Y473630D02*
D03*
Y469566D02*
D03*
X844414Y766992D02*
D03*
X859414Y758992D02*
D03*
X725474Y357552D02*
D03*
X867754Y431631D02*
D03*
X887600Y456180D02*
D03*
X871432D02*
D03*
X944414Y442993D02*
D03*
X320414Y437992D02*
D03*
X222208Y381177D02*
D03*
X350098Y393991D02*
D03*
X490432Y412252D02*
D03*
X231945Y369744D02*
D03*
X353914Y312542D02*
D03*
X557488Y183562D02*
D03*
X301094Y408492D02*
D03*
X650414Y332772D02*
D03*
X626040Y363868D02*
D03*
X624040Y365868D02*
D03*
X632414Y366242D02*
D03*
X627809Y379242D02*
D03*
Y405242D02*
D03*
X633019Y379242D02*
D03*
X634164Y408492D02*
D03*
Y416492D02*
D03*
X631462Y431790D02*
D03*
X637414Y432742D02*
D03*
X622414Y469242D02*
D03*
X634388Y349550D02*
D03*
X857800Y473480D02*
D03*
X832575Y380668D02*
D03*
X701664Y367492D02*
D03*
X699414Y365242D02*
D03*
X687664Y386492D02*
D03*
X641414Y379242D02*
D03*
X598973Y386000D02*
D03*
X568203Y404626D02*
D03*
X625052Y348854D02*
D03*
X873800Y473480D02*
D03*
X865800Y467820D02*
D03*
X862625Y460479D02*
D03*
X858340Y440440D02*
D03*
X879410Y423491D02*
D03*
X865707Y434387D02*
D03*
X865800Y440980D02*
D03*
Y427980D02*
D03*
X868975Y421480D02*
D03*
X857800Y434479D02*
D03*
X835472Y410141D02*
D03*
X700866Y412392D02*
D03*
X696426Y414522D02*
D03*
X367918Y274494D02*
D03*
X387625Y239696D02*
D03*
X374516Y386254D02*
D03*
X647164Y455492D02*
D03*
X674664Y369492D02*
D03*
X721764Y377242D02*
D03*
X1142315Y516011D02*
D03*
X1035008Y475591D02*
D03*
X889800Y434479D02*
D03*
X817800Y393380D02*
D03*
X589664Y244442D02*
D03*
X637414Y378242D02*
D03*
X628929Y342028D02*
D03*
X634414Y339453D02*
D03*
X496914Y400992D02*
D03*
Y415992D02*
D03*
X495347Y434425D02*
D03*
X491914Y430992D02*
D03*
X650945Y366242D02*
D03*
X645735Y364478D02*
D03*
X693414Y421462D02*
D03*
X687664Y425492D02*
D03*
X689634Y405242D02*
D03*
X686880Y399492D02*
D03*
X693414Y405242D02*
D03*
X687664Y408492D02*
D03*
X593414Y454992D02*
D03*
X857043Y390423D02*
D03*
X836126Y391334D02*
D03*
X855229Y394128D02*
D03*
X824442Y422322D02*
D03*
X809800Y414979D02*
D03*
X889800Y393380D02*
D03*
X896832Y402677D02*
D03*
X889800Y367380D02*
D03*
X873800Y373880D02*
D03*
X889800Y386880D02*
D03*
X881800Y399880D02*
D03*
X873800D02*
D03*
X978445Y473492D02*
D03*
X1221952Y465802D02*
D03*
X834414Y784112D02*
D03*
X751239Y413541D02*
D03*
X766784Y522677D02*
D03*
X569414Y758992D02*
D03*
X919414Y758992D02*
D03*
X274414Y316415D02*
D03*
X542248Y493492D02*
D03*
X1174208Y475416D02*
D03*
X1164555Y467781D02*
D03*
X1160414Y479617D02*
D03*
X650414Y465742D02*
D03*
X1109857Y461946D02*
D03*
X611844Y524176D02*
D03*
X381974Y767000D02*
D03*
X661664Y429492D02*
D03*
Y421492D02*
D03*
X914414Y767993D02*
D03*
X674664Y442492D02*
D03*
X676414Y432742D02*
D03*
X1174414Y616778D02*
D03*
Y616886D02*
D03*
X996159Y509698D02*
D03*
X807089Y618620D02*
D03*
X813865Y604186D02*
D03*
X724112Y553492D02*
D03*
X955362Y503492D02*
D03*
X809800Y440980D02*
D03*
X711414Y401242D02*
D03*
X703414Y377242D02*
D03*
X674664Y386492D02*
D03*
X676414Y379242D02*
D03*
X657582Y423492D02*
D03*
X709664Y359492D02*
D03*
X634164Y382492D02*
D03*
X754414Y767993D02*
D03*
X904414D02*
D03*
X619414Y405242D02*
D03*
X1037548Y363492D02*
D03*
X1084414Y321484D02*
D03*
X1034414Y360242D02*
D03*
X594414Y561461D02*
D03*
Y560498D02*
D03*
X314414Y422830D02*
D03*
Y400242D02*
D03*
X547328Y294053D02*
D03*
X506914Y370992D02*
D03*
X881800Y386880D02*
D03*
X879014Y352180D02*
D03*
X811488Y551608D02*
D03*
X1109682Y497506D02*
D03*
X1127972Y376348D02*
D03*
X348954Y772080D02*
D03*
X429414Y767992D02*
D03*
X602700Y451532D02*
D03*
X566378Y400478D02*
D03*
X1117050Y243506D02*
D03*
X1049994Y243492D02*
D03*
Y243506D02*
D03*
X809710Y447468D02*
D03*
X707414Y403018D02*
D03*
X705664Y371492D02*
D03*
X699414Y361242D02*
D03*
X889414Y758992D02*
D03*
X434816Y388354D02*
D03*
X434806Y383597D02*
D03*
X515367Y333368D02*
D03*
X515324Y333422D02*
D03*
X644414Y767993D02*
D03*
X649414Y758992D02*
D03*
X618414Y345242D02*
D03*
X742400Y616632D02*
D03*
X678414Y462228D02*
D03*
Y461742D02*
D03*
X678392Y461692D02*
D03*
X320414Y420544D02*
D03*
X321776Y304212D02*
D03*
X764414Y493272D02*
D03*
X894414Y767993D02*
D03*
X1151414Y343607D02*
D03*
X642414Y469742D02*
D03*
X809710Y460422D02*
D03*
X704808Y407492D02*
D03*
X344636Y493492D02*
D03*
X650414Y432742D02*
D03*
X1008225Y674467D02*
D03*
X1258020Y166036D02*
D03*
X1004764Y625992D02*
D03*
X607164Y431492D02*
D03*
X817800Y427980D02*
D03*
X697664Y460492D02*
D03*
X833800Y354380D02*
D03*
X335414Y370242D02*
D03*
X473599Y451024D02*
D03*
X1348343Y686736D02*
D03*
X1398914Y682992D02*
D03*
X1370414Y659492D02*
D03*
X1360914Y671492D02*
D03*
X1306914Y676992D02*
D03*
X1251414Y786992D02*
D03*
X1217414D02*
D03*
X1238208Y749164D02*
D03*
X1213824Y702440D02*
D03*
X1398914Y623992D02*
D03*
X1246336Y647421D02*
D03*
X1334821Y629840D02*
D03*
X1293599Y581072D02*
D03*
X1246336Y607421D02*
D03*
X1221952Y573742D02*
D03*
X1181312Y576993D02*
D03*
X1090414Y788992D02*
D03*
X1158414D02*
D03*
X999414Y792992D02*
D03*
X1014414Y629492D02*
D03*
X1011914Y633142D02*
D03*
X1008225Y683492D02*
D03*
X984414Y780050D02*
D03*
X974414Y767992D02*
D03*
X979414Y758992D02*
D03*
X989414Y746935D02*
D03*
X1140672Y605771D02*
D03*
X1075648D02*
D03*
X1174414Y586716D02*
D03*
X1108160Y572677D02*
D03*
X1059392Y565912D02*
D03*
X1016914Y613842D02*
D03*
X995364Y620992D02*
D03*
X1002496Y565961D02*
D03*
X1205696Y511471D02*
D03*
X1357914Y480992D02*
D03*
X1187414Y467367D02*
D03*
X1059392Y525591D02*
D03*
X1148800Y465802D02*
D03*
X1075648D02*
D03*
X1019445Y503492D02*
D03*
X1181312Y452677D02*
D03*
X1224919Y420612D02*
D03*
X1081159Y438612D02*
D03*
Y420612D02*
D03*
X1004414Y442993D02*
D03*
X1068909Y429612D02*
D03*
X929344Y495591D02*
D03*
X914414Y524742D02*
D03*
X891190Y523492D02*
D03*
X880576Y478933D02*
D03*
X863914Y551492D02*
D03*
X881800Y453979D02*
D03*
X889800Y447480D02*
D03*
Y421480D02*
D03*
X865800Y453979D02*
D03*
X857800Y447480D02*
D03*
X873800Y421480D02*
D03*
Y434479D02*
D03*
X837151Y618620D02*
D03*
X804914Y575492D02*
D03*
X848064Y512677D02*
D03*
X769414Y792992D02*
D03*
X759414Y758992D02*
D03*
X774414Y588461D02*
D03*
X750528Y573092D02*
D03*
X842315Y475408D02*
D03*
X833800Y473480D02*
D03*
X848064Y462677D02*
D03*
X833800Y460479D02*
D03*
X817800Y473480D02*
D03*
X797101Y467280D02*
D03*
X801800Y460479D02*
D03*
X734414Y767992D02*
D03*
X714414Y576778D02*
D03*
X706914Y686992D02*
D03*
X684414Y767992D02*
D03*
X703414Y476265D02*
D03*
X715414Y473742D02*
D03*
X825800Y453979D02*
D03*
X844828Y439942D02*
D03*
X833800Y447480D02*
D03*
X809800Y453979D02*
D03*
X754414Y446778D02*
D03*
X817800Y434479D02*
D03*
Y421480D02*
D03*
X807424Y419134D02*
D03*
X715414Y454742D02*
D03*
X701664Y451492D02*
D03*
X693414Y445742D02*
D03*
X701664Y427492D02*
D03*
Y439492D02*
D03*
X699414Y429742D02*
D03*
X719414Y425742D02*
D03*
X684414Y432742D02*
D03*
X1390914Y415992D02*
D03*
X1224919Y402612D02*
D03*
X1081159D02*
D03*
X1120243Y391620D02*
D03*
X1133585D02*
D03*
X1068909Y411612D02*
D03*
X1041164Y403492D02*
D03*
X921216Y418338D02*
D03*
Y388646D02*
D03*
X1088585Y386000D02*
D03*
X1212669Y375612D02*
D03*
X1284414Y362992D02*
D03*
X1182702Y369744D02*
D03*
X978112Y382677D02*
D03*
X944414Y383992D02*
D03*
X1081159Y366612D02*
D03*
X1068909Y375612D02*
D03*
X879600Y417179D02*
D03*
X888704Y401023D02*
D03*
X865800Y399880D02*
D03*
X848064Y405591D02*
D03*
X1187414Y343607D02*
D03*
X1156513Y329104D02*
D03*
X1198914Y320242D02*
D03*
X1073599Y329104D02*
D03*
X1043586Y359245D02*
D03*
X937472Y355961D02*
D03*
X1017664Y347992D02*
D03*
X986240Y335591D02*
D03*
X961856Y302677D02*
D03*
X1390914Y265992D02*
D03*
X1194414Y282992D02*
D03*
X1154414Y270206D02*
D03*
X1290914Y165992D02*
D03*
X1058664Y250492D02*
D03*
X1134414Y90492D02*
D03*
X940914Y95992D02*
D03*
X889800Y354380D02*
D03*
X881800Y360880D02*
D03*
X873800Y341380D02*
D03*
X863600Y358680D02*
D03*
X929344Y315961D02*
D03*
X890056Y329104D02*
D03*
X896832Y312677D02*
D03*
X874414Y276778D02*
D03*
X848064Y305961D02*
D03*
X872448Y217134D02*
D03*
X831808Y413390D02*
D03*
X828000Y397680D02*
D03*
X833800Y380380D02*
D03*
X817800D02*
D03*
X722815Y418512D02*
D03*
X701664Y403492D02*
D03*
X687664Y416492D02*
D03*
X689414Y392242D02*
D03*
X801800Y368278D02*
D03*
X828000Y358680D02*
D03*
X801800Y354380D02*
D03*
X833914Y178492D02*
D03*
X790914Y95992D02*
D03*
X789383Y293492D02*
D03*
X769445Y273492D02*
D03*
X718016Y305591D02*
D03*
X764414Y222992D02*
D03*
X726144Y195591D02*
D03*
X703733Y352923D02*
D03*
X687664Y373492D02*
D03*
X692664Y331492D02*
D03*
X704414Y230206D02*
D03*
X681664Y331492D02*
D03*
X683414Y138492D02*
D03*
X674414Y767992D02*
D03*
X669414Y758992D02*
D03*
X679414D02*
D03*
X669248Y666868D02*
D03*
X648672Y556688D02*
D03*
X647164Y459492D02*
D03*
X624414Y767992D02*
D03*
X612352Y639936D02*
D03*
X609414Y758992D02*
D03*
X634164Y451492D02*
D03*
X680414Y445742D02*
D03*
X671414Y432742D02*
D03*
X667414D02*
D03*
X658414D02*
D03*
X647164Y442492D02*
D03*
X645414Y432742D02*
D03*
X680414Y419742D02*
D03*
X667414D02*
D03*
X661664Y412492D02*
D03*
Y416492D02*
D03*
X624414Y432742D02*
D03*
X619414Y419742D02*
D03*
X621164Y416492D02*
D03*
X564414Y767992D02*
D03*
X554414Y783992D02*
D03*
X494414Y792992D02*
D03*
X469414Y767992D02*
D03*
X399414D02*
D03*
X579414Y758992D02*
D03*
X572315Y637968D02*
D03*
X547328Y545591D02*
D03*
X506914Y686992D02*
D03*
X506688Y542677D02*
D03*
X414414Y758992D02*
D03*
X464414D02*
D03*
X469445Y513492D02*
D03*
X369414Y767992D02*
D03*
X329414Y783992D02*
D03*
X339414Y767992D02*
D03*
X384414Y758992D02*
D03*
X354414D02*
D03*
X257414Y778492D02*
D03*
X236414Y779492D02*
D03*
X207414Y778492D02*
D03*
X86914Y721992D02*
D03*
X282414Y683492D02*
D03*
X327872Y537135D02*
D03*
X201414Y550492D02*
D03*
X363664Y504742D02*
D03*
X86914Y624992D02*
D03*
X84414Y560992D02*
D03*
X64414Y515992D02*
D03*
X44414Y560992D02*
D03*
Y525992D02*
D03*
X579840Y495591D02*
D03*
X475229Y475408D02*
D03*
X557664Y473492D02*
D03*
X571712Y452677D02*
D03*
X502335Y451024D02*
D03*
X599164Y439492D02*
D03*
X607164Y415492D02*
D03*
X501914Y444167D02*
D03*
X491914D02*
D03*
X501862Y441118D02*
D03*
X491956D02*
D03*
X476914Y420992D02*
D03*
X466914Y410992D02*
D03*
X429568Y475408D02*
D03*
X409152Y477134D02*
D03*
X435242Y451024D02*
D03*
X337414Y459192D02*
D03*
X367538Y445510D02*
D03*
X352256Y432677D02*
D03*
X254720Y457421D02*
D03*
X315229Y451024D02*
D03*
X296418Y445510D02*
D03*
X409152Y432677D02*
D03*
X335414Y430992D02*
D03*
X376640Y421098D02*
D03*
X164414Y431492D02*
D03*
X325414Y430992D02*
D03*
X147414Y428492D02*
D03*
X88414Y427992D02*
D03*
X155414Y423492D02*
D03*
X671414Y405242D02*
D03*
X663414D02*
D03*
X667414D02*
D03*
X658414D02*
D03*
X671414Y379242D02*
D03*
X641414Y405242D02*
D03*
Y392242D02*
D03*
X621164Y408492D02*
D03*
X624414Y405242D02*
D03*
X615414D02*
D03*
X634164Y386492D02*
D03*
X615414Y379242D02*
D03*
X676414Y366242D02*
D03*
X681164Y192492D02*
D03*
X661664Y356492D02*
D03*
X658414Y341242D02*
D03*
X658164Y282542D02*
D03*
X654414Y190206D02*
D03*
X641414Y366242D02*
D03*
X622414Y341242D02*
D03*
X624414Y285743D02*
D03*
X630914Y95992D02*
D03*
X611164Y407492D02*
D03*
X607164Y403492D02*
D03*
Y391492D02*
D03*
Y379492D02*
D03*
X605414Y353242D02*
D03*
X602315Y377872D02*
D03*
X571712Y375591D02*
D03*
X599164Y367492D02*
D03*
X501914Y380992D02*
D03*
X491956Y370760D02*
D03*
X422616Y391529D02*
D03*
X481796Y390826D02*
D03*
X484621Y369744D02*
D03*
X481914Y387817D02*
D03*
X412315Y369744D02*
D03*
X311616Y391413D02*
D03*
X254429Y385992D02*
D03*
X491914Y367817D02*
D03*
X368512Y362677D02*
D03*
X475229Y361616D02*
D03*
X273490Y363492D02*
D03*
X336000Y362677D02*
D03*
X88414Y363992D02*
D03*
X531072Y315591D02*
D03*
X515367Y342392D02*
D03*
X467638Y293492D02*
D03*
X525720Y259650D02*
D03*
X613914Y188492D02*
D03*
Y138492D02*
D03*
X571712Y224307D02*
D03*
X498560Y221393D02*
D03*
X466048Y233071D02*
D03*
X449792Y264968D02*
D03*
Y209564D02*
D03*
X441664Y323742D02*
D03*
X445139Y300928D02*
D03*
X417280Y285591D02*
D03*
X394414Y299192D02*
D03*
X212315Y304720D02*
D03*
X323586Y301620D02*
D03*
X447414Y100492D02*
D03*
X434414Y202992D02*
D03*
X360485Y239696D02*
D03*
X84414Y235992D02*
D03*
Y270992D02*
D03*
X64414Y280992D02*
D03*
X44414Y235992D02*
D03*
X317414Y101492D02*
D03*
X630414Y349242D02*
D03*
X644864Y292932D02*
D03*
X496914Y430992D02*
D03*
X498560Y252138D02*
D03*
X496914Y410992D02*
D03*
X664422Y741092D02*
D03*
Y353484D02*
D03*
X654414Y767992D02*
D03*
X659414Y758992D02*
D03*
X873800Y367380D02*
D03*
X825800Y374062D02*
D03*
X692616Y339518D02*
D03*
X858772Y329104D02*
D03*
X315426Y430958D02*
D03*
X360130Y296338D02*
D03*
X301202Y324278D02*
D03*
X1133414Y343607D02*
D03*
X1160414Y384546D02*
D03*
X439414Y767992D02*
D03*
X449414D02*
D03*
X394420Y758872D02*
D03*
X404414Y650580D02*
D03*
X809710Y467026D02*
D03*
X707414Y409368D02*
D03*
X825712Y467026D02*
D03*
X711412Y405306D02*
D03*
X814790Y454072D02*
D03*
X865800Y447480D02*
D03*
X703538Y361362D02*
D03*
X1076410Y614600D02*
D03*
X401414Y405050D02*
D03*
X1151414Y467367D02*
D03*
X605414Y489632D02*
D03*
X349414Y688689D02*
D03*
X881338Y571674D02*
D03*
X571901Y561461D02*
D03*
Y561260D02*
D03*
X1006914Y613842D02*
D03*
X828000Y462679D02*
D03*
X878346Y468529D02*
D03*
X709380Y387492D02*
D03*
X959414Y758992D02*
D03*
X739383Y270317D02*
D03*
X680414Y366242D02*
D03*
X611164Y387492D02*
D03*
X658164Y257142D02*
D03*
X501914Y375992D02*
D03*
X497290Y378492D02*
D03*
X166914Y433674D02*
D03*
X954414Y767993D02*
D03*
X389414Y780716D02*
D03*
X729414Y758992D02*
D03*
X821902Y427910D02*
D03*
X964414Y767993D02*
D03*
X701664Y391492D02*
D03*
X699414Y389242D02*
D03*
X687664Y395492D02*
D03*
X601414Y389242D02*
D03*
X668664Y269842D02*
D03*
X491914Y375992D02*
D03*
X626414Y345242D02*
D03*
Y341167D02*
D03*
X1124416Y516596D02*
D03*
X504746Y369744D02*
D03*
X496914Y375992D02*
D03*
X669248Y640122D02*
D03*
X496914Y370992D02*
D03*
X403060Y369744D02*
D03*
X619414Y758992D02*
D03*
X599414Y769286D02*
D03*
X878625Y367380D02*
D03*
X557664Y482492D02*
D03*
X556694Y394128D02*
D03*
X1115414Y343582D02*
D03*
X644356Y465550D02*
D03*
X591164Y465492D02*
D03*
X444414Y758992D02*
D03*
X707414Y390318D02*
D03*
X881800Y427910D02*
D03*
X719540Y373300D02*
D03*
X1181312Y425298D02*
D03*
X749004Y415718D02*
D03*
X611336Y395492D02*
D03*
X501914Y370992D02*
D03*
X642414Y345242D02*
D03*
X498560Y346595D02*
D03*
X604414Y767992D02*
D03*
X618414Y341242D02*
D03*
X881800Y347880D02*
D03*
X744414Y767992D02*
D03*
X646414Y473742D02*
D03*
X1169414Y343607D02*
D03*
X1178414Y355857D02*
D03*
X597112Y481504D02*
D03*
X1196414Y484806D02*
D03*
X724414Y767992D02*
D03*
X881800Y466980D02*
D03*
X686414Y461742D02*
D03*
X849414Y758992D02*
D03*
X727664Y453492D02*
D03*
X171914Y440492D02*
D03*
X273490Y369992D02*
D03*
X580164Y282542D02*
D03*
X506914Y375992D02*
D03*
X505974Y361616D02*
D03*
X949414Y747641D02*
D03*
X361074Y198294D02*
D03*
X360328Y331752D02*
D03*
X818292Y414487D02*
D03*
X161914Y406492D02*
D03*
X181414Y423492D02*
D03*
X1224919Y456612D02*
D03*
X459414Y767993D02*
D03*
X879414Y758992D02*
D03*
X934414Y767993D02*
D03*
X899414Y758992D02*
D03*
X315414Y383992D02*
D03*
X340414Y437992D02*
D03*
X325414Y383992D02*
D03*
X347914Y428492D02*
D03*
Y418492D02*
D03*
X300914Y398492D02*
D03*
X865800Y473480D02*
D03*
X873800Y466980D02*
D03*
X817800D02*
D03*
X889800Y360880D02*
D03*
X833800Y466980D02*
D03*
X857800Y347880D02*
D03*
X889800Y440980D02*
D03*
Y373880D02*
D03*
X833800Y453979D02*
D03*
X817800Y440980D02*
D03*
X887600Y397680D02*
D03*
X833800Y440980D02*
D03*
X873800Y414979D02*
D03*
X833800Y427980D02*
D03*
X273490Y382992D02*
D03*
X1033163Y250492D02*
D03*
X1125665D02*
D03*
X1100164D02*
D03*
X577046Y329104D02*
D03*
X89390Y378492D02*
D03*
X1107398Y25320D02*
D03*
X935948Y284908D02*
D03*
X731478Y351492D02*
D03*
X1092158Y348662D02*
D03*
X1174414Y389810D02*
D03*
X352764Y247824D02*
D03*
X231860Y403272D02*
D03*
X253958Y403526D02*
D03*
X824414Y216582D02*
D03*
X525818Y381682D02*
D03*
X668740Y244522D02*
D03*
X1254414Y490140D02*
D03*
X1097914Y313142D02*
D03*
X521420Y241332D02*
D03*
X907914Y113872D02*
D03*
X1106382Y356028D02*
D03*
X790914Y47164D02*
D03*
X1307042Y709992D02*
D03*
X1357842Y416226D02*
D03*
X317458Y52498D02*
D03*
X549868Y183562D02*
D03*
X38058Y475408D02*
D03*
X909532Y459152D02*
D03*
X466048Y201342D02*
D03*
X1101302Y25432D02*
D03*
X356066Y407336D02*
D03*
X361146Y447976D02*
D03*
X831808Y256460D02*
D03*
X228304Y768270D02*
D03*
X1257512Y661474D02*
D03*
X387562Y587168D02*
D03*
X84414Y534590D02*
D03*
X541994Y479472D02*
D03*
X623528Y561006D02*
D03*
X866352Y566602D02*
D03*
X497544Y285924D02*
D03*
X694414Y597582D02*
D03*
X1238414Y778938D02*
D03*
X209000Y283492D02*
D03*
X490178Y70786D02*
D03*
X377214Y240392D02*
D03*
X171914Y406492D02*
D03*
X437336Y133492D02*
D03*
X174414Y396414D02*
D03*
X1194414Y223992D02*
D03*
X275929Y341959D02*
D03*
X88414Y393492D02*
D03*
X658076Y163492D02*
D03*
X384414Y354758D02*
D03*
X419820Y496998D02*
D03*
X656548Y503602D02*
D03*
X1097414Y465424D02*
D03*
X949272Y473492D02*
D03*
X704414Y272716D02*
D03*
X1086824Y483282D02*
D03*
X697442Y345360D02*
D03*
X1137930Y293492D02*
D03*
X867904Y516048D02*
D03*
X1124414Y355774D02*
D03*
X1212554Y411612D02*
D03*
X1198584Y649144D02*
D03*
X814914Y193468D02*
D03*
X682202Y397430D02*
D03*
X511260Y293492D02*
D03*
X429414Y187118D02*
D03*
X453602Y370502D02*
D03*
X219668Y423846D02*
D03*
X431504Y233492D02*
D03*
X1004274Y253492D02*
D03*
X1251162Y389810D02*
D03*
X955914Y526870D02*
D03*
X809456Y250110D02*
D03*
X44408Y270938D02*
D03*
X1317456Y393492D02*
D03*
X1147784Y544496D02*
D03*
X486876Y433498D02*
D03*
X528104Y350590D02*
D03*
X424414Y180028D02*
D03*
X464414Y184883D02*
D03*
X506434Y459152D02*
D03*
X604478Y163492D02*
D03*
X1134414Y722804D02*
D03*
X1021914Y633142D02*
D03*
X1114414Y687752D02*
D03*
X500338Y207692D02*
D03*
X451824Y520620D02*
D03*
X603716Y617902D02*
D03*
X479002Y183492D02*
D03*
X237702Y323492D02*
D03*
X764414Y463724D02*
D03*
X568664Y421306D02*
D03*
X904414Y259254D02*
D03*
X373592Y496236D02*
D03*
X364702Y287142D02*
D03*
X427623Y301926D02*
D03*
X511260Y391588D02*
D03*
X351240Y471598D02*
D03*
X531914Y467534D02*
D03*
X235416Y376602D02*
D03*
X330414Y378634D02*
D03*
X307044Y287142D02*
D03*
Y373300D02*
D03*
X225510Y363140D02*
D03*
X579840Y511476D02*
D03*
X424414Y226292D02*
D03*
X448522Y360854D02*
D03*
X508895Y383206D02*
D03*
X1116288Y612060D02*
D03*
X1088970Y668702D02*
D03*
X656548Y503492D02*
D03*
X1212808Y438612D02*
D03*
X1176994Y513492D02*
D03*
X1205414Y363492D02*
D03*
X268944Y376492D02*
D03*
X474414Y125317D02*
D03*
X418864Y499792D02*
D03*
X410770Y453995D02*
D03*
X1101414Y98726D02*
D03*
X1290914Y98799D02*
D03*
X757914Y95932D02*
D03*
X1371304Y201088D02*
D03*
X874414Y246716D02*
D03*
X439383Y513492D02*
D03*
X915671Y571461D02*
D03*
X136414Y583492D02*
D03*
X1154414Y303443D02*
D03*
X364448Y436546D02*
D03*
X299668Y423338D02*
D03*
X874414Y246554D02*
D03*
X654414Y220268D02*
D03*
X703284Y739822D02*
D03*
X698714Y619492D02*
D03*
X704414Y263444D02*
D03*
X174414Y396492D02*
D03*
X434414Y758992D02*
D03*
X819445Y293492D02*
D03*
X949383Y470317D02*
D03*
X1189948Y320214D02*
D03*
X1101278D02*
D03*
X1097914Y312340D02*
D03*
X1044170Y338992D02*
D03*
X1257978Y295322D02*
D03*
X422914Y191492D02*
D03*
X152612Y583492D02*
D03*
X283422Y436510D02*
D03*
X338714Y206317D02*
D03*
X430914Y191492D02*
D03*
X340995Y406267D02*
D03*
X464914Y158492D02*
D03*
X108162Y398492D02*
D03*
X373684Y482012D02*
D03*
X380958Y209724D02*
D03*
X1357914Y200834D02*
D03*
X1258020Y100758D02*
D03*
X506960Y720010D02*
D03*
X640800Y686992D02*
D03*
X441664Y703500D02*
D03*
X282698Y716454D02*
D03*
X1390914Y560700D02*
D03*
X284414Y76882D02*
D03*
X1239732Y676992D02*
D03*
X973032Y719992D02*
D03*
X690838Y173910D02*
D03*
X754338D02*
D03*
X330414Y437992D02*
D03*
X205588Y325929D02*
D03*
X414414Y75866D02*
D03*
X938488Y33448D02*
D03*
X1121368Y25828D02*
D03*
X597914Y71548D02*
D03*
X561298Y363492D02*
D03*
X1205414Y343607D02*
D03*
X1225000Y366612D02*
D03*
X1275670Y261461D02*
D03*
X521420Y250110D02*
D03*
X904414Y160486D02*
D03*
X764414Y163992D02*
D03*
X173414Y418492D02*
D03*
X147414D02*
D03*
X1075648Y434877D02*
D03*
X1068909Y447612D02*
D03*
X1142414Y355857D02*
D03*
X1139869Y369744D02*
D03*
X1148800Y668987D02*
D03*
X1004414Y383992D02*
D03*
X254720Y430281D02*
D03*
X1148800Y434877D02*
D03*
X1059392Y539358D02*
D03*
X277414Y483492D02*
D03*
X307414Y223492D02*
D03*
X340414Y390992D02*
D03*
X961413Y183492D02*
D03*
X872448Y190579D02*
D03*
X1221952Y605037D02*
D03*
X969414Y746934D02*
D03*
X483914Y158492D02*
D03*
X664414Y138492D02*
D03*
X1124416Y645232D02*
D03*
X401024Y368236D02*
D03*
X345414Y383992D02*
D03*
X409152Y450209D02*
D03*
X376640Y425232D02*
D03*
X335414Y383992D02*
D03*
X320414Y390992D02*
D03*
D102*
X844000Y640000D02*
D03*
X721318Y360672D02*
D03*
X590173Y519523D02*
D03*
X591760Y517935D02*
D03*
X590000Y522525D02*
D03*
X305266Y347780D02*
D03*
X621888Y498014D02*
D03*
X590000Y640000D02*
D03*
X733677Y543059D02*
D03*
X590000Y386000D02*
D03*
X436076Y494966D02*
D03*
X415248Y469385D02*
D03*
X701252Y542972D02*
D03*
X690076Y444166D02*
D03*
X1024340Y532812D02*
D03*
X265134Y332914D02*
D03*
X316188Y480234D02*
D03*
X717000Y259000D02*
D03*
X1225000Y513000D02*
D03*
X181706Y405420D02*
D03*
X759222Y484806D02*
D03*
X1273768Y742616D02*
D03*
X1194012Y747823D02*
D03*
X1352000Y640000D02*
D03*
X1361398Y605964D02*
D03*
X1323806Y588184D02*
D03*
X1225000Y640000D02*
D03*
X1051264Y788082D02*
D03*
X1170644Y713914D02*
D03*
X998940Y715184D02*
D03*
X918930Y645588D02*
D03*
X1342475Y513000D02*
D03*
X1248114Y488108D02*
D03*
X1164802Y491664D02*
D03*
X1083776Y549068D02*
D03*
X1098000Y513000D02*
D03*
X1374352Y448484D02*
D03*
X1157436Y422068D02*
D03*
X1038564Y436292D02*
D03*
X970492Y548306D02*
D03*
X957919Y463470D02*
D03*
X951569Y463328D02*
D03*
X844000Y519350D02*
D03*
Y516175D02*
D03*
X834348Y563546D02*
D03*
X802090Y788590D02*
D03*
X773896Y627554D02*
D03*
X760688Y484806D02*
D03*
X734018Y679624D02*
D03*
X991320Y412924D02*
D03*
X1225000Y386000D02*
D03*
X1098000Y384476D02*
D03*
X971000Y386000D02*
D03*
X1251162Y360346D02*
D03*
X1225000Y340280D02*
D03*
X1212046Y289734D02*
D03*
X1352000Y255825D02*
D03*
X1321520Y144954D02*
D03*
X1158706Y238172D02*
D03*
X1174708Y74850D02*
D03*
X1134576Y299640D02*
D03*
X972778Y71548D02*
D03*
X863558Y173910D02*
D03*
X806662Y266366D02*
D03*
X812250Y265350D02*
D03*
X817584Y111426D02*
D03*
X809075Y265350D02*
D03*
X743670Y163750D02*
D03*
X717000Y132000D02*
D03*
X692108Y281352D02*
D03*
X627338Y571674D02*
D03*
X524468Y760904D02*
D03*
X579840Y539343D02*
D03*
X504148Y649144D02*
D03*
X466302Y549322D02*
D03*
X343874Y768778D02*
D03*
X385022Y749220D02*
D03*
X295614Y788082D02*
D03*
X313902Y691562D02*
D03*
X234146Y559990D02*
D03*
X336000Y513000D02*
D03*
X86826Y673528D02*
D03*
X586317Y490902D02*
D03*
X603462Y425370D02*
D03*
X227796Y467026D02*
D03*
X119846Y445436D02*
D03*
X663406Y227504D02*
D03*
X666200Y101520D02*
D03*
X622258Y224710D02*
D03*
X209000Y386000D02*
D03*
X585174Y305482D02*
D03*
X496782Y276526D02*
D03*
X590000Y132000D02*
D03*
X531072Y214550D02*
D03*
X463000Y259000D02*
D03*
X480780Y176704D02*
D03*
X477478Y74088D02*
D03*
X122894Y339518D02*
D03*
X197062Y336597D02*
D03*
X430742Y255952D02*
D03*
X365210Y279066D02*
D03*
X342096Y225599D02*
D03*
X338032Y75358D02*
D03*
X75142Y178482D02*
D03*
D106*
X685065Y447158D02*
X685169Y447054D01*
X684528Y447158D02*
X685065D01*
X680414Y451272D02*
X684528Y447158D01*
X608726Y464431D02*
X609769D01*
X608167Y463872D02*
X608726Y464431D01*
X607125Y463872D02*
X608167D01*
X605948Y465049D02*
X607125Y463872D01*
X599013Y465049D02*
X605948D01*
X597670Y466392D02*
X599013Y465049D01*
X585614Y466392D02*
X597670D01*
X585602Y466380D02*
X585614Y466392D01*
X539655Y466380D02*
X585602D01*
X539139Y465864D02*
X539655Y466380D01*
X522618Y465864D02*
X539139D01*
X520542Y467940D02*
X522618Y465864D01*
X504020Y467940D02*
X520542D01*
X614909Y466688D02*
X614914Y466693D01*
X614309Y462413D02*
Y466450D01*
X613547Y467212D02*
X614309Y466450D01*
X614914Y466693D02*
Y467515D01*
X613547Y461651D02*
X614309Y462413D01*
X613547Y467212D02*
Y473167D01*
Y460007D02*
Y461651D01*
X614909Y461369D02*
Y466688D01*
X644805Y493037D02*
X652078D01*
X626202Y474434D02*
X644805Y493037D01*
X626202Y460212D02*
Y474434D01*
X624250Y458260D02*
X626202Y460212D01*
X633984Y486064D02*
X645934Y498014D01*
X614914Y467515D02*
X633464Y486064D01*
X633984D01*
X717355Y393592D02*
X717414Y393651D01*
Y395141D01*
X716539Y396016D02*
X717414Y395141D01*
X714748Y396016D02*
X716539D01*
X714748D02*
X715372Y396640D01*
X714125Y395393D02*
X714748Y396016D01*
X715372Y396640D02*
Y399409D01*
X717331Y401368D01*
X519320Y335930D02*
X619290D01*
X620290Y336930D01*
X498190Y357060D02*
X519320Y335930D01*
X650414Y477742D02*
Y482695D01*
X652527Y484808D01*
Y488309D01*
X658947Y479452D02*
X659879Y480384D01*
X658947Y477694D02*
Y479452D01*
X652939Y484260D02*
X652968Y484231D01*
X653423D01*
X653596Y484403D01*
Y484647D01*
X661695Y479513D02*
Y481136D01*
X660698Y482133D02*
X661695Y481136D01*
X661037Y478855D02*
X661695Y479513D01*
X660698Y482133D02*
Y483235D01*
X661556Y484093D01*
Y490437D01*
X619846Y445045D02*
X624076D01*
X624526Y444595D02*
X628757D01*
X617793Y447098D02*
X619846Y445045D01*
X624076D02*
X624526Y444595D01*
X631953Y444568D02*
X637315D01*
X631946Y444561D02*
X631953Y444568D01*
X637315D02*
X637766Y444117D01*
X661556Y490437D02*
X662414Y491295D01*
X800842Y355516D02*
X835165D01*
X794956Y349630D02*
X800842Y355516D01*
X835165D02*
X844041Y364392D01*
X789852Y344976D02*
X794506Y349630D01*
X794956D01*
X715414Y343712D02*
Y343932D01*
X715642Y344160D01*
X722175Y341965D02*
X724570Y339570D01*
X719183Y341965D02*
X722175D01*
X799883Y429868D02*
X803258Y433244D01*
X797877Y429868D02*
X799883D01*
X797748Y429997D02*
X797877Y429868D01*
X791677Y429997D02*
X797748D01*
X801158Y431992D02*
X805800Y436634D01*
X779308Y431992D02*
X801158D01*
X774666Y427350D02*
X779308Y431992D01*
X768460Y427350D02*
X774666D01*
X782540Y420860D02*
X791677Y429997D01*
X803258Y433244D02*
X814790D01*
X820886Y439340D02*
X822640D01*
X814790Y433244D02*
X820886Y439340D01*
X757526Y410940D02*
X758355Y411768D01*
X741913Y410940D02*
X757526D01*
X734741Y403768D02*
X741913Y410940D01*
X726132Y403768D02*
X734741D01*
X821410Y432862D02*
X845598D01*
X813987Y425440D02*
X821410Y432862D01*
X845598D02*
X848727Y435992D01*
X650871Y471035D02*
X651486Y471650D01*
X652384D01*
X740458Y396760D02*
X760782D01*
X727778Y384080D02*
X740458Y396760D01*
X727778Y383528D02*
Y384080D01*
X722647Y378397D02*
X727778Y383528D01*
X722647Y378288D02*
Y378397D01*
X756580Y367510D02*
Y391326D01*
X754414Y393492D02*
X756580Y391326D01*
X873800Y427817D02*
Y427980D01*
X873119Y427137D02*
X873800Y427817D01*
X873119Y426750D02*
Y427137D01*
X872681Y426312D02*
X873119Y426750D01*
X840567Y337542D02*
X848238Y345213D01*
X779436Y344976D02*
X789852D01*
X664610Y522460D02*
X667532Y525382D01*
X651900Y522460D02*
X664610D01*
X648890Y525470D02*
X651900Y522460D01*
X626480Y486076D02*
X636460Y496055D01*
X626456Y486076D02*
X626480D01*
X613547Y473167D02*
X626456Y486076D01*
X608290Y454750D02*
X613547Y460007D01*
X598830Y454750D02*
X608290D01*
X598588Y454992D02*
X598830Y454750D01*
X593414Y454992D02*
X598588D01*
X654824Y523060D02*
Y533493D01*
X608642Y453334D02*
X614147Y458839D01*
X598244Y453334D02*
X608642D01*
X614147Y460607D02*
X614909Y461369D01*
X597486Y454092D02*
X598244Y453334D01*
X590477Y454092D02*
X597486D01*
X614147Y458839D02*
Y460607D01*
X589414Y454992D02*
X589577D01*
X590477Y454092D01*
X641520Y572550D02*
Y668210D01*
X673240Y699930D01*
X696520D01*
X771442Y386100D02*
X775720D01*
X760782Y396760D02*
X771442Y386100D01*
X721764Y377404D02*
X722647Y378288D01*
X721764Y377242D02*
Y377404D01*
X654824Y533493D02*
X659816Y538484D01*
X811569Y425440D02*
X813987D01*
X793087Y334750D02*
X795879Y337542D01*
X840567D01*
X947750Y340790D02*
X963820Y324720D01*
X903244Y340790D02*
X947750D01*
X902794Y340340D02*
X903244Y340790D01*
X902522Y340340D02*
X902794D01*
X637766Y444117D02*
X650414D01*
X628792Y444561D02*
X631946D01*
X628757Y444595D02*
X628792Y444561D01*
X516148Y447098D02*
X617793D01*
X502575Y433525D02*
X516148Y447098D01*
X493174Y433525D02*
X502575D01*
X491477Y431828D02*
X493174Y433525D01*
X486184Y431828D02*
X491477D01*
X482364Y435648D02*
X486184Y431828D01*
X482364Y435648D02*
Y441178D01*
X475505Y448037D02*
X482364Y441178D01*
X475314Y448037D02*
X475505D01*
X468455Y454895D02*
X475314Y448037D01*
X396595Y454895D02*
X468455D01*
X379720Y438020D02*
X396595Y454895D01*
X684787Y418842D02*
X684968Y419024D01*
X676215Y418842D02*
X684787D01*
X673278Y421779D02*
X676215Y418842D01*
X844126Y364392D02*
X845790Y366056D01*
X844041Y364392D02*
X844126D01*
X748208Y355069D02*
X769343D01*
X779436Y344976D01*
X630414Y403704D02*
Y405701D01*
X622517Y413597D02*
X630414Y405701D01*
X622517Y413597D02*
Y418853D01*
X672914Y493492D02*
X677991Y488415D01*
X531850Y383460D02*
X544395Y370915D01*
X569360D01*
X534380Y560450D02*
X574414Y520416D01*
Y486626D02*
Y520416D01*
X489280Y308330D02*
X493396Y304214D01*
X504964D01*
X505672Y303505D01*
Y302815D02*
Y303505D01*
X902880Y727870D02*
Y742458D01*
X919414Y758992D01*
X899680Y740619D02*
X909414Y750353D01*
X899680Y729728D02*
Y740619D01*
Y729728D02*
X899690Y729718D01*
Y723360D02*
Y729718D01*
X677991Y487093D02*
Y488415D01*
D108*
X718694Y469746D02*
X733260Y455180D01*
X652740Y361018D02*
X654833Y363111D01*
X652740Y360140D02*
Y361018D01*
X654833Y363111D02*
X655711D01*
X656130Y363530D01*
Y388225D01*
X653958Y390397D02*
X656130Y388225D01*
X642246Y480986D02*
X649313Y488053D01*
X604777Y480844D02*
X610766D01*
X600356Y476422D02*
X604777Y480844D01*
X584781Y476422D02*
X600356D01*
X583363Y477840D02*
X584781Y476422D01*
X565510Y477840D02*
X583363D01*
X663738Y460449D02*
Y462088D01*
Y460449D02*
X664993Y459194D01*
X663738Y462088D02*
X664897Y463246D01*
X664993Y459116D02*
Y459194D01*
X664897Y463246D02*
X664939D01*
X665525Y463832D01*
X667530Y465837D02*
Y476755D01*
X667300Y465607D02*
X667530Y465837D01*
X666559Y463832D02*
X667300Y464573D01*
Y465607D01*
X665525Y463832D02*
X666559D01*
X678757Y471835D02*
X680664Y473742D01*
X686414D01*
X670672Y585498D02*
X687324Y568845D01*
Y553907D02*
Y568845D01*
X670672Y585498D02*
Y627159D01*
X675289Y631776D01*
X668269Y483889D02*
X668372Y483992D01*
X667530Y476755D02*
X668959Y478183D01*
Y480691D01*
X668269Y481381D02*
Y483889D01*
Y481381D02*
X668959Y480691D01*
X687486Y479194D02*
X690102Y481810D01*
X691785D01*
X672775Y389381D02*
Y397107D01*
X671956Y397926D02*
X672775Y397107D01*
X672445Y382268D02*
X673130Y381584D01*
X672445Y389051D02*
X672775Y389381D01*
X672445Y382268D02*
Y389051D01*
X653958Y390397D02*
Y395498D01*
X651464Y397992D02*
X653958Y395498D01*
X675289Y631776D02*
X684183D01*
X716782Y664375D01*
Y686992D01*
X691785Y481810D02*
X701297Y472298D01*
X704125D01*
X706676Y469746D01*
X718694D01*
X673130Y372486D02*
Y381584D01*
X672650Y372006D02*
X673130Y372486D01*
X672650Y364540D02*
Y372006D01*
X667452Y399492D02*
X668164D01*
X660770Y392810D02*
X667452Y399492D01*
D109*
X680414Y451272D02*
Y457401D01*
X627110Y468270D02*
X629084Y466296D01*
X629266D02*
X629710Y465852D01*
Y462894D02*
Y465852D01*
X629084Y466296D02*
X629266D01*
X659055Y482491D02*
Y500656D01*
Y482491D02*
X660787Y480760D01*
X659055Y500656D02*
X660110Y501710D01*
X660129Y479231D02*
X660787Y479889D01*
X660129Y477785D02*
X660997Y476917D01*
X660787Y479889D02*
Y480760D01*
X660129Y477785D02*
Y479231D01*
X660868Y475788D02*
X660997Y475917D01*
X658731Y464350D02*
X660868Y466488D01*
X645161Y450780D02*
X658108Y463728D01*
X660868Y466488D02*
Y475788D01*
X658287Y463728D02*
X658731Y464172D01*
X660997Y475917D02*
Y476917D01*
X658731Y464172D02*
Y464350D01*
X678987Y457401D02*
X680414D01*
X678392Y456806D02*
X678987Y457401D01*
X678392Y455094D02*
Y456806D01*
X675160Y451862D02*
X678392Y455094D01*
X667508Y451862D02*
X675160D01*
X667414Y451956D02*
X667508Y451862D01*
X658108Y463728D02*
X658287D01*
X684414Y429492D02*
X685876Y428030D01*
Y417520D02*
Y428030D01*
X599441Y394288D02*
X600837Y395684D01*
X584161Y394288D02*
X599441D01*
X638660Y450780D02*
X645161D01*
X638018D02*
X638660D01*
X629206Y459592D02*
X638018Y450780D01*
X629206Y459592D02*
Y462390D01*
X629710Y462894D01*
X986150Y358930D02*
X986920Y359700D01*
X915310Y358930D02*
X986150D01*
X480042Y247058D02*
X480920Y246180D01*
X440171Y247058D02*
X480042D01*
X437533Y244420D02*
X440171Y247058D01*
X413160Y244420D02*
X437533D01*
D111*
X854668Y435992D02*
X857130Y433529D01*
X861060D01*
X861917Y434387D01*
X865707D01*
X868233D01*
X869838Y435992D01*
D122*
X623138Y455955D02*
X623507D01*
X629856Y449606D01*
X620210Y458882D02*
X623138Y455955D01*
X629449Y472116D02*
Y472649D01*
X591633Y482678D02*
X591641Y482686D01*
Y508820D01*
X389414Y711046D02*
X591641Y508820D01*
X663614Y477644D02*
X664830Y478860D01*
X663614Y470800D02*
Y477644D01*
X648800Y582904D02*
X649316D01*
X646823Y584881D02*
Y635096D01*
X648670Y636943D02*
Y672100D01*
X649316Y582904D02*
X679819Y552401D01*
X646823Y635096D02*
X648670Y636943D01*
X646823Y584881D02*
X648800Y582904D01*
X761750Y339790D02*
X763510D01*
X759440Y342100D02*
X761750Y339790D01*
X759130Y342410D02*
X759440Y342100D01*
X754414Y342410D02*
X759130D01*
X664743Y498686D02*
X666293Y497136D01*
X664743Y498686D02*
Y499391D01*
X666293Y492460D02*
Y497136D01*
X664339Y499795D02*
X664743Y499391D01*
X618414Y461048D02*
X620210Y459252D01*
X618414Y461048D02*
Y467384D01*
X620210Y458882D02*
Y459252D01*
X664830Y484956D02*
X666217Y486342D01*
X664830Y478860D02*
Y484956D01*
X668902Y395492D02*
X669414D01*
X636273Y332676D02*
X636456D01*
X639795Y329337D01*
X702065Y330656D02*
X702531D01*
X707662Y325525D01*
X716845D01*
X720055Y328735D01*
X744790D01*
X746159Y327366D01*
X610930Y360042D02*
X615400D01*
X574465Y396507D02*
X610930Y360042D01*
X574465Y396507D02*
Y409705D01*
X548900Y435270D02*
X574465Y409705D01*
X608080Y576840D02*
X617595Y586355D01*
Y686296D01*
X627110Y695811D01*
Y775830D01*
X587492Y741070D02*
X614414Y767992D01*
X577940Y741070D02*
X587492D01*
X666217Y486342D02*
Y492384D01*
X666293Y492460D01*
X628906Y359516D02*
X630630Y361240D01*
X628906Y356492D02*
Y359516D01*
X679819Y546850D02*
X687634Y539035D01*
X679819Y546850D02*
Y552401D01*
X541310Y460900D02*
X542410D01*
X533830Y453420D02*
X541310Y460900D01*
X687634Y539035D02*
X693185D01*
X710710Y521510D01*
X389414Y711046D02*
Y780716D01*
X650865Y412065D02*
X653290Y409640D01*
X650865Y412065D02*
Y419100D01*
X629449Y472649D02*
X644229Y487429D01*
X626780Y584650D02*
X636790Y574640D01*
X626780Y584650D02*
Y689810D01*
X417280Y755824D02*
X578062Y595042D01*
Y557958D02*
Y595042D01*
X712845Y493486D02*
X719414Y486917D01*
X712845Y493486D02*
Y496773D01*
X714340Y498268D01*
Y498300D01*
X710710Y521510D02*
X747780D01*
X649719Y329337D02*
X650090Y329708D01*
X639795Y329337D02*
X649719D01*
X417280Y755824D02*
Y789225D01*
X578062Y557958D02*
X611844Y524176D01*
X385149Y792400D02*
X414105D01*
X417280Y789225D01*
X381974D02*
X385149Y792400D01*
X381974Y767000D02*
Y789225D01*
M02*
