G04*
G04 #@! TF.GenerationSoftware,Altium Limited,Altium Designer,26.7.1 (11)*
G04*
G04 Layer_Physical_Order=10*
G04 Layer_Color=16711680*
G04 Board_Origin=26771654|24803150*
%FSLAX44Y44*%
%MOMM*%
G71*
G04*
G04 #@! TF.SameCoordinates,D9171914-07D6-4B2F-AF4B-0BE730A3B9D6*
G04*
G04*
G04 #@! TF.FilePolarity,Positive*
G04*
G01*
G75*
%ADD12C,0.2000*%
%ADD13C,0.1000*%
%ADD14C,0.1270*%
%ADD15C,0.2540*%
%ADD16C,0.1524*%
%ADD28R,0.4627X0.5541*%
%ADD29R,0.5541X0.4627*%
%ADD32R,1.2552X1.1062*%
%ADD33R,0.4627X0.5541*%
%ADD34R,0.6062X0.6281*%
%ADD35R,0.3200X0.3600*%
%ADD36R,0.5541X0.4627*%
%ADD37R,0.6621X0.6596*%
%ADD41R,0.2627X0.3541*%
%ADD45R,0.3600X0.3200*%
%ADD57R,0.4034X0.4767*%
G04:AMPARAMS|DCode=59|XSize=0.55mm|YSize=0.5mm|CornerRadius=0.0625mm|HoleSize=0mm|Usage=FLASHONLY|Rotation=90.000|XOffset=0mm|YOffset=0mm|HoleType=Round|Shape=RoundedRectangle|*
%AMROUNDEDRECTD59*
21,1,0.5500,0.3750,0,0,90.0*
21,1,0.4250,0.5000,0,0,90.0*
1,1,0.1250,0.1875,0.2125*
1,1,0.1250,0.1875,-0.2125*
1,1,0.1250,-0.1875,-0.2125*
1,1,0.1250,-0.1875,0.2125*
%
%ADD59ROUNDEDRECTD59*%
G04:AMPARAMS|DCode=60|XSize=0.55mm|YSize=0.5mm|CornerRadius=0.0625mm|HoleSize=0mm|Usage=FLASHONLY|Rotation=180.000|XOffset=0mm|YOffset=0mm|HoleType=Round|Shape=RoundedRectangle|*
%AMROUNDEDRECTD60*
21,1,0.5500,0.3750,0,0,180.0*
21,1,0.4250,0.5000,0,0,180.0*
1,1,0.1250,-0.2125,0.1875*
1,1,0.1250,0.2125,0.1875*
1,1,0.1250,0.2125,-0.1875*
1,1,0.1250,-0.2125,-0.1875*
%
%ADD60ROUNDEDRECTD60*%
%ADD61R,0.6281X0.6062*%
%ADD62R,0.4500X0.5500*%
%ADD81R,0.3541X0.2627*%
%ADD83R,0.4500X0.3500*%
%ADD95C,1.4000*%
%ADD96C,2.8500*%
%ADD97C,2.2800*%
%ADD98C,0.8000*%
%ADD99R,1.4000X1.4000*%
%ADD100C,0.0100*%
%ADD101C,0.1000*%
%ADD102C,0.0500*%
%ADD103C,0.2540*%
%ADD104C,1.2700*%
%ADD105C,0.4000*%
%ADD106C,0.0400*%
%ADD108C,0.2032*%
%ADD109C,0.1016*%
%ADD110C,0.0890*%
%ADD111C,0.0500*%
%ADD112C,1.0160*%
%ADD113C,0.0889*%
%ADD129R,0.5500X0.4500*%
%ADD130R,0.4767X0.4034*%
%ADD131R,0.6596X0.6621*%
%ADD132R,0.3000X0.2500*%
%ADD133R,0.5000X0.4000*%
%ADD134R,0.4541X0.3627*%
%ADD135R,0.3627X0.4541*%
%ADD136R,0.3000X0.2500*%
%ADD137R,0.3500X0.4500*%
%ADD138R,0.7500X1.4000*%
%ADD139C,0.5000*%
D12*
X847546Y417006D02*
X854476Y423936D01*
X838717Y417006D02*
X847546D01*
X653400Y663960D02*
Y687225D01*
X639650Y700975D02*
X653400Y687225D01*
X639650Y700975D02*
Y724240D01*
X514910Y372026D02*
Y381480D01*
Y372026D02*
X518876Y368060D01*
X832885Y411174D02*
X838717Y417006D01*
X829096Y411174D02*
X832885D01*
X824564Y406642D02*
X829096Y411174D01*
X824414Y406642D02*
X824564D01*
X619834Y248034D02*
X670890Y299090D01*
X584414Y248034D02*
X619834D01*
X498614Y396186D02*
Y402772D01*
X494444Y392016D02*
X498614Y396186D01*
X494444Y384170D02*
Y392016D01*
X491702Y381428D02*
X494444Y384170D01*
X498080Y403306D02*
X498614Y402772D01*
X498080Y403306D02*
Y405790D01*
D13*
X633667Y372292D02*
X636767D01*
X631099D02*
X631999Y373192D01*
X632767D01*
X633667Y372292D01*
X636767D02*
X646967Y382492D01*
X628625Y373492D02*
X629825Y372292D01*
X631099D01*
X646131Y480242D02*
X665664D01*
X666414Y479492D01*
X633315D02*
X645381D01*
X646131Y480242D01*
X583685Y475408D02*
X597999D01*
X602019D02*
X629231D01*
X601552Y474942D02*
X602019Y475408D01*
X598466Y474942D02*
X601552D01*
X597999Y475408D02*
X598466Y474942D01*
X600009Y477866D02*
X609106Y486962D01*
X619292D01*
X668069Y469590D02*
X672166Y473687D01*
X665646Y469590D02*
X668069D01*
X665060Y469004D02*
X665646Y469590D01*
X665060Y466931D02*
X665111Y466880D01*
X666869Y465607D02*
X668796Y467534D01*
X666586Y465607D02*
X666869D01*
X665060Y466931D02*
Y469004D01*
X666345Y465848D02*
X666586Y465607D01*
X665724Y465848D02*
X666345D01*
X665483Y465607D02*
X665724Y465848D01*
X660709Y465607D02*
X665483D01*
X660368Y465948D02*
X660709Y465607D01*
X947540Y437800D02*
X1001770D01*
X1039170Y475200D01*
X650083Y470072D02*
X654208Y465948D01*
X660368D01*
X646414Y470899D02*
X647241Y470072D01*
X650083D01*
X646414Y470899D02*
Y473742D01*
X824324Y355950D02*
X825387D01*
X826090Y352014D02*
Y355247D01*
X825387Y355950D02*
X826090Y355247D01*
X816617Y346630D02*
Y348295D01*
X820957Y352635D01*
X822775D01*
X824890Y354750D01*
X818508Y361766D02*
X824324Y355950D01*
X818508Y361766D02*
Y361960D01*
X826028Y351952D02*
X826090Y352014D01*
X862130Y349080D02*
X871600D01*
X861190Y350020D02*
X862130Y349080D01*
X753058Y349142D02*
X753500Y348700D01*
X719054Y349142D02*
X753058D01*
X718454Y348542D02*
X719054Y349142D01*
X709167Y348542D02*
X718454D01*
X704667Y344042D02*
X709167Y348542D01*
X700652Y344042D02*
X704667D01*
X698360Y341750D02*
X700652Y344042D01*
X856938Y384609D02*
X857800Y385471D01*
X856938Y378398D02*
Y384609D01*
Y378398D02*
X857954Y377381D01*
Y374564D02*
Y377381D01*
X858162Y387530D02*
X863610D01*
X852212Y381580D02*
X858162Y387530D01*
X848817Y381580D02*
X852212D01*
X722973Y397417D02*
X723456Y396935D01*
X720112Y397417D02*
X722973D01*
X724903Y392658D02*
X725612Y393366D01*
X721710Y392658D02*
X724903D01*
X848727Y452780D02*
X857775D01*
X858525Y453530D01*
X670088Y488158D02*
X671320Y486926D01*
X670088Y488158D02*
Y492654D01*
X677359Y499925D01*
Y506422D01*
X799230Y385306D02*
Y386900D01*
X794860Y391270D02*
X799230Y386900D01*
Y385306D02*
X801043Y383492D01*
X801957D01*
X783980Y340340D02*
X784300D01*
X679959Y497506D02*
X680064D01*
X676359Y493906D02*
X679959Y497506D01*
X803798Y676879D02*
X805550Y675128D01*
X803798Y679542D02*
X804655Y680398D01*
X803798Y676879D02*
Y679542D01*
X604414Y436035D02*
Y441398D01*
X728764Y470395D02*
Y520754D01*
X718634Y460265D02*
X728764Y470395D01*
X765121Y435242D02*
Y435592D01*
X760210Y440503D02*
X765121Y435592D01*
X760210Y440503D02*
Y443190D01*
X787600Y470580D01*
X779182Y476462D02*
X828688D01*
X828688Y473840D02*
Y476462D01*
X758450Y455730D02*
X779182Y476462D01*
X672400Y488888D02*
Y491492D01*
X676428Y488888D02*
Y493009D01*
X672810Y488478D02*
X676018D01*
X672400Y488888D02*
X672810Y488478D01*
X676018D02*
X676428Y488888D01*
X820367Y416550D02*
X825297Y421480D01*
X813210Y416550D02*
X820367D01*
X825297Y421480D02*
X833800D01*
X808280Y411620D02*
X813210Y416550D01*
X629231Y475408D02*
X633315Y479492D01*
X619292Y486962D02*
X620168Y487838D01*
X646967Y382492D02*
Y382864D01*
X655069Y385837D02*
X658414Y382492D01*
X649940Y385837D02*
X655069D01*
X646967Y382864D02*
X649940Y385837D01*
X886015Y383492D02*
X894414D01*
X884663Y382140D02*
X886015Y383492D01*
X884663Y382140D02*
X885940D01*
X878099Y388704D02*
X884663Y382140D01*
X734718Y333052D02*
X745317D01*
X848926Y367547D02*
X850261D01*
X844871Y363492D02*
X848926Y367547D01*
X844414Y363492D02*
X844871D01*
X844414Y385949D02*
Y386406D01*
X841411Y382946D02*
X844414Y385949D01*
X841236Y382946D02*
X841411D01*
X847972Y374796D02*
Y380728D01*
X844414Y371238D02*
X847972Y374796D01*
X844414Y363492D02*
Y371238D01*
X845344Y379798D02*
X847475Y381928D01*
X842613Y375370D02*
X845344Y378101D01*
Y379798D01*
X848469Y381928D02*
X848817Y381580D01*
X847475Y381928D02*
X848469D01*
X817800Y362668D02*
X818508Y361960D01*
X812324Y362668D02*
X817800D01*
X811500Y363492D02*
X812324Y362668D01*
X821254Y363265D02*
X833359Y375370D01*
X811500Y363492D02*
X811957D01*
X814548Y366083D01*
Y370444D01*
X803771Y381221D02*
X814548Y370444D01*
X803771Y381221D02*
Y381678D01*
X801957Y383492D02*
X803771Y381678D01*
X784162Y350080D02*
X785750D01*
X922020Y297000D02*
X930220D01*
X944215Y310995D01*
X679920Y323310D02*
Y333986D01*
X680171Y319878D02*
X681399D01*
X684414Y316863D01*
X889414Y758992D02*
Y763492D01*
X764561Y330478D02*
X784162Y350080D01*
X747890Y330478D02*
X764561D01*
X745317Y333052D02*
X747890Y330478D01*
X617548Y454532D02*
X635974D01*
X804655Y680398D02*
X810821D01*
X889414Y758992D01*
X805550Y640919D02*
Y675128D01*
X604414Y441398D02*
X617548Y454532D01*
X583527Y475249D02*
X583685Y475408D01*
X471900Y611281D02*
Y611600D01*
X344111Y483492D02*
X471900Y611281D01*
X277414Y483492D02*
X344111D01*
X774914Y610284D02*
X805550Y640919D01*
X711603Y523665D02*
Y566604D01*
X773503Y628504D01*
X774289D01*
X774846Y627948D01*
Y620289D02*
Y627948D01*
X773206Y618650D02*
X774846Y620289D01*
X773206Y610992D02*
Y618650D01*
Y610992D02*
X773914Y610284D01*
X774914D01*
X711413Y407492D02*
X717860D01*
X722334Y403018D01*
X721099Y411460D02*
Y419223D01*
Y411460D02*
X721134Y411425D01*
X804637Y455349D02*
X807220Y457932D01*
X815557D01*
X771942Y429325D02*
X801800Y459183D01*
X731201Y429325D02*
X771942D01*
X721099Y419223D02*
X731201Y429325D01*
X833359Y375370D02*
X842613D01*
X508090Y305470D02*
X510730Y308110D01*
X533830D01*
X678556Y335350D02*
X679920Y333986D01*
X684414Y316406D02*
Y316863D01*
X597112Y495078D02*
X598290Y493900D01*
X597112Y495078D02*
Y515159D01*
X676359Y493078D02*
Y493906D01*
Y493078D02*
X676428Y493009D01*
X830399Y463382D02*
Y465276D01*
X833303Y468180D01*
X820944Y460888D02*
Y466096D01*
Y460888D02*
X821354Y460478D01*
X827496D01*
X836970Y468180D02*
X841280Y463870D01*
X827496Y460478D02*
X830399Y463382D01*
X833303Y468180D02*
X836970D01*
X820944Y466096D02*
X828688Y473840D01*
X785300Y341340D02*
Y345876D01*
X784300Y340340D02*
X785300Y341340D01*
X753500Y319880D02*
X774510D01*
X741730Y308110D02*
X753500Y319880D01*
X726545Y440761D02*
X726557D01*
X724726Y438942D02*
X726545Y440761D01*
X726557D02*
X729380Y443585D01*
X717220Y438942D02*
X724726D01*
X729380Y443585D02*
Y445400D01*
X728764Y520754D02*
X738650Y530640D01*
X718634Y451098D02*
Y460265D01*
Y451098D02*
X722020Y447712D01*
X727068D01*
X729380Y445400D01*
X709689Y431411D02*
X717220Y438942D01*
X684706Y361493D02*
X685311Y360887D01*
Y359940D02*
Y360887D01*
X684706Y361493D02*
Y362440D01*
X684414Y359043D02*
X685311Y359940D01*
X798100Y403492D02*
X800871D01*
X802143Y402219D01*
X802600D01*
X804414Y400406D01*
Y399949D02*
Y400406D01*
X706310Y496760D02*
X707190Y495880D01*
X715000D01*
X361419Y389950D02*
X366684D01*
X370558Y393824D01*
X363428Y404140D02*
X367620D01*
X362018Y405551D02*
X363428Y404140D01*
X352355Y405551D02*
X362018D01*
X346685Y411221D02*
X352355Y405551D01*
X346228Y411221D02*
X346685D01*
X344414Y413035D02*
X346228Y411221D01*
X344414Y413035D02*
Y413492D01*
X1055230Y384912D02*
Y401170D01*
Y384912D02*
X1056604Y383538D01*
X1060297D01*
X1064269Y387510D01*
X1068190D01*
X1087020Y406340D01*
X621500Y373492D02*
X628625D01*
X874414Y393492D02*
X874871D01*
X878099Y390264D01*
Y388704D02*
Y390264D01*
X871310Y286110D02*
X885343D01*
X886545Y284908D01*
X969414Y746934D02*
X1019976Y696372D01*
X1081558D01*
X1132120Y645810D01*
X684414Y350992D02*
Y359043D01*
X1174414Y425846D02*
X1174962Y425298D01*
X1174414Y425846D02*
Y433492D01*
X1174962Y425298D02*
X1181312D01*
X1139869Y365995D02*
Y369744D01*
X1137366Y363492D02*
X1139869Y365995D01*
X1129500Y363492D02*
X1137366D01*
D14*
X670238Y501314D02*
X680680Y511756D01*
X564552Y343168D02*
X566908D01*
X562100Y345620D02*
X564552Y343168D01*
X878460Y429880D02*
X884400Y435820D01*
X913660D01*
X730900Y375566D02*
X738020Y368446D01*
X730900Y375566D02*
Y378685D01*
X733128Y380912D01*
X722839Y358887D02*
X736074D01*
X718696D02*
X720485D01*
X720551Y358821D01*
X722773D01*
X722839Y358887D01*
X680680Y511756D02*
Y559680D01*
X579823Y398627D02*
X588500Y389950D01*
X559736Y398627D02*
X579823D01*
X547212Y373488D02*
X557040Y363660D01*
X531395Y373488D02*
X547212D01*
X521567Y383315D02*
X531395Y373488D01*
X512349Y383315D02*
X521567D01*
X505026Y375992D02*
X512349Y383315D01*
X501914Y375992D02*
X505026D01*
X511914Y367374D02*
Y374657D01*
X511060Y366520D02*
X511914Y367374D01*
X611160Y384450D02*
X612370Y383240D01*
X602140Y384450D02*
X611160D01*
X534871Y423492D02*
X559736Y398627D01*
X534414Y423492D02*
X534871D01*
X699710Y357280D02*
X717089D01*
X718696Y358887D01*
X736074D02*
X738020Y360832D01*
Y368446D01*
X944900Y446600D02*
X977680Y479380D01*
X1036420D01*
X623920Y324411D02*
Y327360D01*
X565270Y265760D02*
X623920Y324411D01*
X513370Y265760D02*
X565270D01*
X505019Y361616D02*
X505974D01*
X504064D02*
X505019D01*
X489881Y378492D02*
X497290D01*
X485548Y382825D02*
Y393067D01*
Y382825D02*
X489881Y378492D01*
X504746Y369744D02*
X510998Y363492D01*
X524414D01*
X403060Y366091D02*
Y369744D01*
X400461Y363492D02*
X403060Y366091D01*
X391500Y363492D02*
X400461D01*
X498560Y345820D02*
Y346595D01*
X494414Y341674D02*
X498560Y345820D01*
X494414Y336035D02*
Y341674D01*
Y363492D02*
X502188D01*
X504064Y361616D01*
X486876Y453454D02*
X486914Y453492D01*
X486876Y448992D02*
Y453454D01*
D15*
X833800Y427980D02*
Y440980D01*
X376957Y193492D02*
X380958Y197493D01*
Y209724D01*
X429440Y330880D02*
Y331402D01*
X436638Y338600D01*
Y344612D01*
X438094Y346068D01*
X440154D01*
X447769Y338453D01*
Y337615D02*
Y338453D01*
Y337615D02*
X455384Y330000D01*
X465838D01*
X476296D01*
X488932Y317364D01*
X499590D01*
X501046Y318820D01*
Y328904D01*
X500830Y329120D02*
X501046Y328904D01*
X628540Y557260D02*
Y569187D01*
X640222Y580869D01*
X644788D01*
X650198Y586279D01*
X703560Y693220D02*
X706640Y690140D01*
X703560Y693220D02*
Y693440D01*
X858804Y428984D02*
X859944Y427844D01*
X857204Y424701D02*
X859770Y422135D01*
X854668Y429245D02*
Y441692D01*
X858804Y431657D02*
X859770Y432622D01*
X859944Y425835D02*
X864621Y421159D01*
X858804Y428984D02*
Y431657D01*
X857204Y424701D02*
Y426710D01*
X859944Y425835D02*
Y427844D01*
X854668Y429245D02*
X857204Y426710D01*
X865599Y419968D02*
X865811D01*
X864621Y420947D02*
Y421159D01*
X865811Y419968D02*
X870800Y414979D01*
X864621Y420947D02*
X865599Y419968D01*
X870800Y414979D02*
X873800D01*
X677529Y453116D02*
X677904Y453492D01*
X672493Y453116D02*
X677529D01*
X703560Y693440D02*
Y706150D01*
X750483Y753073D01*
X957738Y563156D02*
Y565005D01*
Y563156D02*
X958870Y562024D01*
Y566137D02*
Y724680D01*
X957738Y565005D02*
X958870Y566137D01*
Y483090D02*
Y562024D01*
X854668Y441692D02*
X856156Y443180D01*
X692193Y548057D02*
Y560683D01*
Y548057D02*
X697840Y542410D01*
X694634Y493045D02*
X695245Y493657D01*
Y493945D01*
X694634Y478924D02*
Y493045D01*
X695245Y493945D02*
X918610Y717310D01*
X859999Y474449D02*
Y478450D01*
X821260Y307424D02*
Y315370D01*
X718300Y530640D02*
X723690D01*
X814494Y621444D01*
Y622424D01*
X905298Y713228D01*
Y722372D01*
X897600Y730070D02*
X905298Y722372D01*
X884414Y767993D02*
Y793196D01*
X874610Y803000D02*
X884414Y793196D01*
X604414Y516406D02*
X615480Y505340D01*
X622443D01*
X625741Y502042D01*
X627379D01*
X633515Y508177D01*
Y508555D01*
X639650Y514690D01*
X657910Y552860D02*
X658680Y553630D01*
X926530Y757020D02*
X958870Y724680D01*
X949272Y473492D02*
X958870Y483090D01*
X296418Y436510D02*
X299668D01*
X854810Y402600D02*
X858440D01*
X864380Y408540D01*
X800100Y411620D02*
Y413280D01*
X801800Y414979D01*
X796032Y406803D02*
Y412244D01*
X795800Y412476D02*
X796032Y412244D01*
X795800Y401192D02*
X798100Y403492D01*
X795800Y396010D02*
Y401192D01*
X612050Y398856D02*
X615407Y395499D01*
X606593Y398856D02*
X612050D01*
X601957Y403492D02*
X606593Y398856D01*
X601500Y403492D02*
X601957D01*
X966770Y636130D02*
X967010Y636370D01*
Y720415D01*
X955914Y509431D02*
Y526870D01*
X284414Y358488D02*
Y360492D01*
X301414Y343492D02*
X314414D01*
X284414Y360492D02*
X301414Y343492D01*
X274512Y369992D02*
X278740Y374220D01*
X273490Y369992D02*
X274512D01*
X218548Y412680D02*
X219028Y412200D01*
Y404892D02*
Y412200D01*
Y404892D02*
X222224Y401696D01*
X691020Y460900D02*
Y475310D01*
X694634Y478924D01*
X658680Y553630D02*
X665390D01*
X751850Y544720D02*
Y545380D01*
Y544720D02*
X770660Y525910D01*
X764414Y504035D02*
X776127D01*
X783294Y496868D01*
X844414Y494035D02*
X859999Y478450D01*
Y474449D02*
X860957Y473492D01*
X859823Y408540D02*
X864380D01*
X854871Y413492D02*
X859823Y408540D01*
X854414Y413492D02*
X854871D01*
X884414Y421273D02*
Y421383D01*
X880336Y425461D02*
X884414Y421383D01*
X873533Y425461D02*
X880336D01*
X871830Y427164D02*
X873533Y425461D01*
X871830Y427164D02*
Y431050D01*
X859700Y443180D02*
X871830Y431050D01*
X856156Y443180D02*
X859700D01*
X859770Y418391D02*
Y422135D01*
X854871Y413492D02*
X859770Y418391D01*
X858340Y440440D02*
X859770Y439010D01*
Y432622D02*
Y439010D01*
X844414Y443035D02*
Y443492D01*
X841060Y439681D02*
X844414Y443035D01*
X841060Y425590D02*
Y439681D01*
X443960Y178860D02*
Y183353D01*
X432351Y194962D02*
X443960Y183353D01*
X429368Y194962D02*
X432351D01*
X425898Y191492D02*
X429368Y194962D01*
X422914Y191492D02*
X425898D01*
X895800Y395624D02*
X895864Y395560D01*
X899690D01*
X885830Y399450D02*
Y399740D01*
Y399450D02*
X887600Y397680D01*
X881214D02*
X887600D01*
X879014Y399880D02*
X881214Y397680D01*
X873800Y399880D02*
X879014D01*
X873800D02*
Y414979D01*
X744150Y454850D02*
X766810Y477510D01*
Y499290D01*
X959414Y728011D02*
X967010Y720415D01*
X959414Y728011D02*
Y758992D01*
X650923Y423492D02*
X657582D01*
X1034414Y360242D02*
Y363492D01*
X314414Y400242D02*
Y403492D01*
X515367Y333368D02*
X515378D01*
X519178D01*
X926530Y760109D02*
X934414Y767993D01*
X926530Y757020D02*
Y760109D01*
X916957Y470474D02*
X943314Y496831D01*
X955914Y509431D01*
X916957Y453492D02*
Y470474D01*
X819445Y293492D02*
X821260Y295307D01*
Y307424D01*
X835827Y321992D01*
X815870Y331650D02*
Y332310D01*
Y331650D02*
X817630Y329890D01*
X826980D01*
X836871Y323492D02*
X837328D01*
X835827Y322448D02*
X836871Y323492D01*
X835827Y321992D02*
Y322448D01*
D16*
X1072378Y446617D02*
X1073373Y447612D01*
X1075034D01*
X694414Y469142D02*
X698813Y473541D01*
X665942Y501781D02*
X666409Y501314D01*
X665196Y497725D02*
X666409Y498938D01*
Y501314D01*
X662414Y495665D02*
X664474Y497725D01*
X665196D01*
X382420Y211418D02*
X383190Y210648D01*
Y208280D02*
Y210648D01*
Y208280D02*
X424710Y166760D01*
X382420Y211418D02*
Y233118D01*
X652179Y483220D02*
X654228D01*
X654572Y482877D01*
X658059D01*
X661725Y485889D02*
Y486237D01*
X660869Y485033D02*
X661725Y485889D01*
Y486237D02*
X663426Y487938D01*
X658708Y483220D02*
X660521Y485033D01*
X658403Y483220D02*
X658708D01*
X660521Y485033D02*
X660869D01*
X658059Y482877D02*
X658403Y483220D01*
X652092Y458030D02*
X655921Y461858D01*
X662004D01*
X645482Y458030D02*
X652092D01*
X644926Y482364D02*
Y482964D01*
X645782Y483820D01*
X646993D01*
X647594Y483220D01*
X643822Y481260D02*
X644926Y482364D01*
X647594Y483220D02*
X650947D01*
X650958Y483230D01*
X652169D01*
X652179Y483220D01*
X662414Y493182D02*
X663426Y492170D01*
X662414Y493182D02*
Y495665D01*
X663426Y487938D02*
Y492170D01*
X825993Y357412D02*
X827552Y355853D01*
X824929Y357412D02*
X825993D01*
X827552Y354789D02*
Y355853D01*
Y354789D02*
X828388Y353953D01*
X819970Y362371D02*
X824929Y357412D01*
X783025Y303537D02*
X831808Y352321D01*
X679008Y725462D02*
X679857D01*
X673126Y718731D02*
X676488Y722093D01*
X679857Y725462D02*
X702170Y747776D01*
X683368Y721379D02*
Y722228D01*
X679722Y723738D02*
X681858D01*
X678212Y722228D02*
X679722Y723738D01*
X678212Y721379D02*
Y722228D01*
X674850Y718017D02*
X678212Y721379D01*
X683368D02*
X693959Y710788D01*
X681858Y723738D02*
X683368Y722228D01*
X676488Y722942D02*
X679008Y725462D01*
X676488Y722093D02*
Y722942D01*
X805260Y678936D02*
X822046D01*
X693959Y697880D02*
X706309Y685530D01*
X715447D01*
X693959Y697880D02*
Y710788D01*
X730950Y476520D02*
X763510Y509080D01*
X797610D01*
X818840Y514690D02*
X860860Y556710D01*
X915090D01*
X959970Y564080D02*
X1004764Y608874D01*
Y625992D01*
X562190Y784190D02*
X763180D01*
X764720Y782650D01*
X486384Y708384D02*
X562190Y784190D01*
X963600Y591250D02*
X967450D01*
X983180Y606980D01*
X624817Y479028D02*
X630783D01*
X633015Y481260D01*
X643822D01*
X623629Y477840D02*
X624817Y479028D01*
X602383Y477840D02*
X623629D01*
X681060Y425098D02*
X682952Y423206D01*
X681060Y428182D02*
X682120Y429243D01*
X681060Y425098D02*
Y428182D01*
X682120Y429243D02*
X683023D01*
X684806Y431026D01*
X684180Y396611D02*
Y415267D01*
X682952Y416496D02*
X684180Y415267D01*
X682050Y394480D02*
X684180Y396611D01*
X682952Y416496D02*
Y423206D01*
X673639Y394480D02*
X682050D01*
X819737Y362799D02*
X819970Y362566D01*
Y362371D02*
Y362566D01*
X819737Y362799D02*
Y370910D01*
X671509Y392350D02*
X673639Y394480D01*
X698813Y473541D02*
X704550D01*
X710500Y479492D01*
X711211D01*
X639643Y458992D02*
X644520D01*
X597138Y477840D02*
X597967D01*
X599403Y476404D02*
X600947D01*
X602383Y477840D01*
X597967D02*
X599403Y476404D01*
X717601Y685014D02*
X718117Y685530D01*
X715963Y685014D02*
X717601D01*
X718117Y685530D02*
X727990D01*
X715447D02*
X715963Y685014D01*
X543559Y498395D02*
X546734D01*
X538462Y503492D02*
X543559Y498395D01*
X409045Y470733D02*
X435257Y496944D01*
X436895D02*
X445926Y487913D01*
X435257Y496944D02*
X436895D01*
X702170Y747776D02*
X710156D01*
X739200Y776820D01*
X822046Y678936D02*
X888030Y744920D01*
X484660Y707300D02*
Y713020D01*
X476630Y721050D02*
X484660Y713020D01*
X450598Y670800D02*
X486384Y706586D01*
X450598Y670452D02*
Y670800D01*
X486384Y706586D02*
Y708384D01*
X821040Y530090D02*
X859014Y568064D01*
X914341D01*
X917197Y570920D01*
X934892D01*
X304914Y468492D02*
X323864D01*
X332251Y476879D01*
X351201D01*
X353430Y474650D01*
X378620D01*
X674850Y628009D02*
X675386Y627473D01*
X674850Y567860D02*
Y624671D01*
X673662Y625921D02*
Y626759D01*
X675386Y625207D02*
Y627473D01*
X673126Y627295D02*
Y718731D01*
Y627295D02*
X673662Y626759D01*
X673126Y625385D02*
X673662Y625921D01*
X674850Y628009D02*
Y718017D01*
Y624671D02*
X675386Y625207D01*
X673126Y542550D02*
Y625385D01*
X365790Y413160D02*
X368101Y415470D01*
X352990Y413160D02*
X365790D01*
X409045Y456280D02*
Y470733D01*
X404414Y413492D02*
Y413949D01*
X401138Y417225D02*
X404414Y413949D01*
X401138Y417225D02*
Y429561D01*
X410876Y439299D01*
Y451451D01*
X409045Y453281D02*
X410876Y451451D01*
X409045Y453281D02*
Y456280D01*
X445926Y474747D02*
Y487913D01*
Y474747D02*
X447181Y473492D01*
X447548D01*
X174492Y396492D02*
X446432Y668432D01*
X174414Y396492D02*
X174492D01*
X254044D01*
X174414Y396414D02*
X174492Y396492D01*
X446432Y668432D02*
X448578D01*
X450598Y670452D01*
X429414Y689616D02*
X447150Y671880D01*
X429414Y689616D02*
Y767992D01*
X819737Y370910D02*
X820612Y371784D01*
X828388Y353953D02*
X831808D01*
X394768Y339152D02*
X416020Y317900D01*
X363198Y339152D02*
X394768D01*
X673126Y542550D02*
X673970Y541706D01*
X831808Y352321D02*
Y353953D01*
X727990Y685530D02*
X804430Y761970D01*
X1053766Y657140D02*
X1084414Y626492D01*
X997590Y657140D02*
X1053766D01*
X350460Y412720D02*
X350900Y413160D01*
X352990D01*
X339332Y383992D02*
X345510Y390170D01*
X335414Y383992D02*
X339332D01*
X500237Y417454D02*
X500488Y417203D01*
X491532Y417454D02*
X500237D01*
X481408Y407330D02*
X491532Y417454D01*
X447420Y407330D02*
X481408D01*
X442962Y411788D02*
X447420Y407330D01*
X442962Y411788D02*
Y415223D01*
X439423Y418762D02*
X442962Y415223D01*
X434417Y418762D02*
X439423D01*
X434255Y418600D02*
X434417Y418762D01*
X423000Y418600D02*
X434255D01*
X416790Y412390D02*
X423000Y418600D01*
X304385Y413492D02*
X304414D01*
X302183Y415694D02*
X304385Y413492D01*
X300920Y415694D02*
X302183D01*
X298497Y413270D02*
X300920Y415694D01*
X292160Y413270D02*
X298497D01*
X268584Y382992D02*
X273490D01*
X820612Y371784D02*
X824414Y375586D01*
X343860Y358490D02*
X363198Y339152D01*
Y286579D02*
Y339152D01*
Y286579D02*
X369896Y279881D01*
Y245642D02*
Y279881D01*
Y245642D02*
X382420Y233118D01*
X375978Y385648D02*
Y385751D01*
X375122Y384792D02*
X375978Y385648D01*
X362578Y372350D02*
X375019Y384792D01*
X375122D01*
X375978Y385751D02*
X392086Y401858D01*
X620647Y246072D02*
X639785Y265210D01*
X603132Y246072D02*
X620647D01*
X572880Y215820D02*
X603132Y246072D01*
X639785Y265210D02*
X718520D01*
X644520Y458992D02*
X645482Y458030D01*
X1057210Y385000D02*
X1107087Y434877D01*
X1148800D01*
X1215888Y446247D02*
Y446617D01*
Y446247D02*
X1217440Y444695D01*
X1238132D01*
X1187035Y406035D02*
X1192400Y411400D01*
X1174414Y406035D02*
X1187035D01*
X1126180Y599940D02*
X1169080Y642840D01*
Y686510D01*
X863181Y769226D02*
X864414Y767993D01*
X863181Y769226D02*
Y781417D01*
X861947Y782650D02*
X863181Y781417D01*
X764720Y782650D02*
X861947D01*
X254044Y396492D02*
X261043Y403492D01*
X261500D01*
X261957D02*
X263509Y401940D01*
Y401483D02*
Y401940D01*
Y401483D02*
X273490Y391503D01*
Y382992D02*
Y391503D01*
X360226Y331650D02*
X360328Y331752D01*
X336930Y331650D02*
X360226D01*
X559951Y393492D02*
X567914D01*
X554414Y482492D02*
X557664D01*
X556694Y394128D02*
X559315D01*
X559951Y393492D01*
X761247Y303537D02*
X783025D01*
X725010Y267300D02*
X761247Y303537D01*
X361790Y372350D02*
X362578D01*
X392086Y401858D02*
Y433142D01*
X409152Y450209D01*
X529914Y503492D02*
X538462D01*
X410770Y453995D02*
X413945D01*
X419698Y448242D02*
X424414D01*
X413945Y453995D02*
X419698Y448242D01*
X1072378Y439451D02*
Y446617D01*
Y439451D02*
X1075648Y436181D01*
Y434877D02*
Y436181D01*
X1144768Y439832D02*
Y446617D01*
Y439832D02*
X1148800Y435800D01*
Y434877D02*
Y435800D01*
X824414Y375586D02*
Y380949D01*
X401414Y371369D02*
Y378976D01*
X401024Y370979D02*
X401414Y371369D01*
X401024Y368236D02*
Y370979D01*
D28*
X485548Y400153D02*
D03*
X314414Y336406D02*
D03*
X485548Y393067D02*
D03*
X314414Y343492D02*
D03*
D29*
X703871Y479492D02*
D03*
X877957Y323492D02*
D03*
X634414Y493492D02*
D03*
X487328Y363492D02*
D03*
X574414Y323492D02*
D03*
X870871D02*
D03*
X391500Y363492D02*
D03*
X641500Y493492D02*
D03*
X710957Y479492D02*
D03*
X494414Y363492D02*
D03*
X261500Y403492D02*
D03*
X254414D02*
D03*
X384414Y363492D02*
D03*
X567328Y323492D02*
D03*
D32*
X677904Y453492D02*
D03*
X650923Y423492D02*
D03*
X694414Y453492D02*
D03*
X634414Y423492D02*
D03*
D33*
X684414Y316406D02*
D03*
X334414Y343492D02*
D03*
X574414Y476406D02*
D03*
X404414Y413492D02*
D03*
X344414D02*
D03*
X1215888Y453703D02*
D03*
X1144768D02*
D03*
X1174414Y440578D02*
D03*
X1072378Y453703D02*
D03*
X874414Y450578D02*
D03*
X844414D02*
D03*
X804414D02*
D03*
X894414Y390578D02*
D03*
X844414Y393492D02*
D03*
X804414Y407035D02*
D03*
X754414Y386406D02*
D03*
X684414Y323492D02*
D03*
X614414Y490578D02*
D03*
X574414Y483492D02*
D03*
X564414Y440578D02*
D03*
X404414Y420578D02*
D03*
X344414D02*
D03*
X584414Y363492D02*
D03*
X334414Y350578D02*
D03*
X844414Y386406D02*
D03*
X1174414Y433492D02*
D03*
X1072378Y446617D02*
D03*
X1215888D02*
D03*
X1144768D02*
D03*
X564414Y433492D02*
D03*
X754414Y393492D02*
D03*
X614414Y483492D02*
D03*
X894414Y383492D02*
D03*
X804414Y399949D02*
D03*
X844414Y443492D02*
D03*
X584414Y356406D02*
D03*
X874414Y443492D02*
D03*
X804414D02*
D03*
D34*
X375058Y392720D02*
D03*
X884414Y413492D02*
D03*
X375058Y400500D02*
D03*
X884414Y421273D02*
D03*
D35*
X409958Y330000D02*
D03*
X465838D02*
D03*
X824414Y400692D02*
D03*
X465838Y335600D02*
D03*
X409958D02*
D03*
X444414Y220692D02*
D03*
Y226292D02*
D03*
X824414Y406292D02*
D03*
D36*
X494414Y473492D02*
D03*
X634414Y393492D02*
D03*
X701500Y423492D02*
D03*
X671500Y373492D02*
D03*
X601500Y403492D02*
D03*
X621500Y373492D02*
D03*
X654414Y343492D02*
D03*
X454414Y443492D02*
D03*
X854414Y473492D02*
D03*
X817328Y463492D02*
D03*
X787328Y423492D02*
D03*
X694414D02*
D03*
X847328Y413492D02*
D03*
X867328Y393492D02*
D03*
Y363492D02*
D03*
X837328D02*
D03*
X844414Y323492D02*
D03*
X794414Y383492D02*
D03*
X804414Y363492D02*
D03*
X727328D02*
D03*
X804414Y343492D02*
D03*
X754414Y333492D02*
D03*
X704414Y323492D02*
D03*
X597328Y463492D02*
D03*
X487328Y473492D02*
D03*
X461500Y443492D02*
D03*
X327328D02*
D03*
X627328Y393492D02*
D03*
X664414Y373492D02*
D03*
X614414D02*
D03*
X647328Y343492D02*
D03*
X594414Y403492D02*
D03*
X424414Y363492D02*
D03*
X224414Y303492D02*
D03*
X811500Y363492D02*
D03*
X844414D02*
D03*
X801500Y383492D02*
D03*
X874414Y363492D02*
D03*
X231500Y303492D02*
D03*
X334414Y443492D02*
D03*
X431500Y363492D02*
D03*
X734414D02*
D03*
X711500Y323492D02*
D03*
X761500Y333492D02*
D03*
X837328Y323492D02*
D03*
X874414Y393492D02*
D03*
X604414Y463492D02*
D03*
X811500Y343492D02*
D03*
X824414Y463492D02*
D03*
X861500Y473492D02*
D03*
X854414Y413492D02*
D03*
X794414Y423492D02*
D03*
D37*
X519178Y333368D02*
D03*
Y342392D02*
D03*
D41*
X676414Y421578D02*
D03*
X824414Y386035D02*
D03*
X689414Y389035D02*
D03*
X494414Y330949D02*
D03*
X624414Y448578D02*
D03*
X674414Y496035D02*
D03*
X401414Y384062D02*
D03*
X494414Y336035D02*
D03*
X604414Y436035D02*
D03*
X645414Y372035D02*
D03*
X464414Y410949D02*
D03*
X284414Y360949D02*
D03*
X645414Y366949D02*
D03*
X624414Y443492D02*
D03*
X676414Y416492D02*
D03*
X401414Y378976D02*
D03*
X674414Y490949D02*
D03*
X604414Y430949D02*
D03*
X1174414Y400949D02*
D03*
Y406035D02*
D03*
X284414Y366035D02*
D03*
X464414Y416035D02*
D03*
X500488Y412117D02*
D03*
Y417203D02*
D03*
X824414Y380949D02*
D03*
X689414Y383949D02*
D03*
D45*
X890014Y343492D02*
D03*
X884414D02*
D03*
D57*
X914414Y406626D02*
D03*
Y400358D02*
D03*
D59*
X1034414Y363492D02*
D03*
X314414Y403492D02*
D03*
X344414Y373492D02*
D03*
X1025414Y363492D02*
D03*
X305414Y403492D02*
D03*
X335414Y373492D02*
D03*
D60*
X1044414Y394492D02*
D03*
X724414Y444492D02*
D03*
X1044414Y403492D02*
D03*
X554414Y473492D02*
D03*
X370788Y445510D02*
D03*
X299668D02*
D03*
X554414Y482492D02*
D03*
X724414Y453492D02*
D03*
X299668Y436510D02*
D03*
X370788D02*
D03*
D61*
X662195Y393492D02*
D03*
X826633Y433492D02*
D03*
X634414Y463492D02*
D03*
X654414Y393492D02*
D03*
X244414Y363492D02*
D03*
X642195Y463492D02*
D03*
X252195Y363492D02*
D03*
X834414Y433492D02*
D03*
D62*
X715414Y391492D02*
D03*
X684414Y350992D02*
D03*
X715414Y383992D02*
D03*
X684414Y343492D02*
D03*
D81*
X1124414Y363492D02*
D03*
X666957Y303492D02*
D03*
X661871D02*
D03*
X534414Y423492D02*
D03*
X916957Y453492D02*
D03*
X911871D02*
D03*
X1129500Y363492D02*
D03*
X539500Y423492D02*
D03*
D83*
X574414Y393492D02*
D03*
X567914D02*
D03*
D95*
X194414Y46992D02*
D03*
X154414D02*
D03*
X214414Y79992D02*
D03*
X194414D02*
D03*
X154414D02*
D03*
X134414D02*
D03*
X214414Y46992D02*
D03*
D96*
X42914Y452192D02*
D03*
Y339792D02*
D03*
D97*
X82914Y452192D02*
D03*
Y339792D02*
D03*
D98*
X1112914Y265292D02*
D03*
X1045914D02*
D03*
D99*
X134414Y46992D02*
D03*
D100*
X1075034Y447612D02*
D03*
X697481Y465558D02*
D03*
X694414Y469142D02*
D03*
X685169Y447054D02*
D03*
X733260Y455180D02*
D03*
X635816Y469778D02*
D03*
X609769Y464431D02*
D03*
X504020Y467940D02*
D03*
X674414Y490949D02*
D03*
X667209Y511277D02*
D03*
X659982Y507742D02*
D03*
X624250Y458260D02*
D03*
X619414Y452807D02*
D03*
X670238Y501314D02*
D03*
X629449Y472116D02*
D03*
X627110Y468270D02*
D03*
X714125Y395393D02*
D03*
X717331Y401368D02*
D03*
X712577Y393359D02*
D03*
X632615Y334112D02*
D03*
X631297Y371217D02*
D03*
X620951Y370248D02*
D03*
X665383Y363354D02*
D03*
X655358Y361845D02*
D03*
X667840Y362064D02*
D03*
X615889Y338018D02*
D03*
X599398Y342566D02*
D03*
X566908Y343168D02*
D03*
X562100Y345620D02*
D03*
X559350Y344850D02*
D03*
X376957Y193492D02*
D03*
X409958Y330000D02*
D03*
X429440Y330880D02*
D03*
X500830Y329120D02*
D03*
X652527Y488309D02*
D03*
X657710Y490041D02*
D03*
X654907Y491679D02*
D03*
X692592Y494450D02*
D03*
X653596Y484647D02*
D03*
X652364Y489321D02*
D03*
X661037Y478855D02*
D03*
X610766Y480844D02*
D03*
X565510Y477840D02*
D03*
X546475Y475918D02*
D03*
X600009Y477866D02*
D03*
X667414Y451956D02*
D03*
X665716Y461268D02*
D03*
X650980Y462000D02*
D03*
X621380Y444595D02*
D03*
X666264Y476044D02*
D03*
Y467228D02*
D03*
X666034Y465098D02*
D03*
X630326Y459544D02*
D03*
X664064Y468056D02*
D03*
X665111Y466880D02*
D03*
X662414Y491295D02*
D03*
X663614Y470800D02*
D03*
X476410Y460240D02*
D03*
X534643Y423492D02*
D03*
X499510Y421520D02*
D03*
X652859Y465381D02*
D03*
X650414Y466617D02*
D03*
X894080Y437580D02*
D03*
X947540Y437800D02*
D03*
X1039170Y475200D02*
D03*
X650864Y459166D02*
D03*
X816617Y346630D02*
D03*
X824890Y354750D02*
D03*
X826028Y351952D02*
D03*
X861190Y350020D02*
D03*
X761530Y347160D02*
D03*
X753500Y348700D02*
D03*
X698360Y341750D02*
D03*
X715642Y344160D02*
D03*
X709500Y335500D02*
D03*
X705412Y337095D02*
D03*
X719183Y341965D02*
D03*
X721089Y348242D02*
D03*
X857800Y385471D02*
D03*
X857954Y374564D02*
D03*
X798063Y430318D02*
D03*
X803902Y425518D02*
D03*
X805800Y436634D02*
D03*
X768460Y427350D02*
D03*
X739298Y418417D02*
D03*
X729151Y409393D02*
D03*
X724872Y396935D02*
D03*
X728443Y396198D02*
D03*
X823090Y440240D02*
D03*
X725612Y393366D02*
D03*
X825800Y449220D02*
D03*
X822640Y439340D02*
D03*
X782540Y420860D02*
D03*
X758355Y411768D02*
D03*
X726132Y403768D02*
D03*
X711415Y392168D02*
D03*
X769836Y414324D02*
D03*
X848727Y452780D02*
D03*
X858525Y453530D02*
D03*
X658867Y469937D02*
D03*
X669246Y475294D02*
D03*
X671320Y486926D02*
D03*
X650871Y471035D02*
D03*
X909150Y718410D02*
D03*
X663426Y493601D02*
D03*
X628540Y557260D02*
D03*
X650198Y586279D02*
D03*
X706640Y690140D02*
D03*
X855684Y426080D02*
D03*
X729745Y383714D02*
D03*
X854476Y423936D02*
D03*
X870362Y424608D02*
D03*
X866291Y421638D02*
D03*
X847328Y409394D02*
D03*
X826870Y406560D02*
D03*
X754414Y382514D02*
D03*
X731935Y376612D02*
D03*
X727328Y376828D02*
D03*
X717024Y369710D02*
D03*
X711544Y363362D02*
D03*
X721318Y362333D02*
D03*
X757030Y368728D02*
D03*
X778250Y376970D02*
D03*
X798094Y380974D02*
D03*
X819400Y388830D02*
D03*
X798692Y376984D02*
D03*
X797360Y387200D02*
D03*
X763510Y339790D02*
D03*
X754414Y342410D02*
D03*
X846818Y350830D02*
D03*
X848238Y345213D02*
D03*
X783980Y340340D02*
D03*
X759440Y342100D02*
D03*
X748440Y340890D02*
D03*
X647614Y470972D02*
D03*
X680680Y559680D02*
D03*
X667918Y445238D02*
D03*
X669646Y426908D02*
D03*
X665942Y501781D02*
D03*
X664339Y499795D02*
D03*
X662932Y333926D02*
D03*
X677922Y497506D02*
D03*
X680064D02*
D03*
X907280Y779570D02*
D03*
X805260Y678936D02*
D03*
X648890Y525470D02*
D03*
X636460Y496055D02*
D03*
X654824Y523060D02*
D03*
X645934Y498014D02*
D03*
X641520Y572550D02*
D03*
X607012Y458620D02*
D03*
X696520Y699930D02*
D03*
X667693Y478708D02*
D03*
X730950Y476520D02*
D03*
X797610Y509080D02*
D03*
X818840Y514690D02*
D03*
X915090Y556710D02*
D03*
X959970Y564080D02*
D03*
X656414Y451492D02*
D03*
X757460Y483560D02*
D03*
X496760Y483340D02*
D03*
X579700Y771760D02*
D03*
X721710Y392658D02*
D03*
X775720Y386100D02*
D03*
X727328Y383714D02*
D03*
X733128Y380912D02*
D03*
X765121Y435242D02*
D03*
X787600Y470580D02*
D03*
X907170Y561880D02*
D03*
X963600Y591250D02*
D03*
X983180Y606980D02*
D03*
X672400Y491492D02*
D03*
X770660Y525910D02*
D03*
X699224Y697180D02*
D03*
X746020Y753610D02*
D03*
X754414Y393492D02*
D03*
X719414Y359772D02*
D03*
X717774Y367274D02*
D03*
X789358Y391334D02*
D03*
X794860Y391270D02*
D03*
X817882Y397598D02*
D03*
X807392Y393588D02*
D03*
X869838Y435992D02*
D03*
X848727D02*
D03*
X811569Y425440D02*
D03*
X809355Y425806D02*
D03*
X830624Y435904D02*
D03*
X634414Y393492D02*
D03*
X653999Y383504D02*
D03*
X659276Y374570D02*
D03*
X627264Y483492D02*
D03*
X619067Y485423D02*
D03*
X621280Y489720D02*
D03*
X620168Y487838D02*
D03*
X653400Y663960D02*
D03*
X639650Y724240D02*
D03*
X684750Y714450D02*
D03*
X695090Y551992D02*
D03*
X669414Y395492D02*
D03*
X650414Y384692D02*
D03*
X659019Y370387D02*
D03*
X658733Y358289D02*
D03*
X687486Y479194D02*
D03*
X671956Y397926D02*
D03*
X761530Y333230D02*
D03*
X885940Y382140D02*
D03*
X892518Y384680D02*
D03*
X963710Y324830D02*
D03*
X963820Y324720D02*
D03*
X902522Y340340D02*
D03*
X650414Y444117D02*
D03*
X629856Y449606D02*
D03*
X685876Y417520D02*
D03*
X684968Y419024D02*
D03*
X637769Y334411D02*
D03*
X636273Y332676D02*
D03*
X711500Y323370D02*
D03*
X693770Y320760D02*
D03*
X734718Y333052D02*
D03*
X811743Y342731D02*
D03*
X820050Y350020D02*
D03*
X874467Y363347D02*
D03*
X850261Y367547D02*
D03*
X841236Y382946D02*
D03*
X847972Y380728D02*
D03*
X838299Y387761D02*
D03*
X844414Y363492D02*
D03*
X821254Y363265D02*
D03*
X817300Y361460D02*
D03*
X782100Y402050D02*
D03*
X822648Y388080D02*
D03*
X776600Y360470D02*
D03*
X781853Y363083D02*
D03*
X772165Y334750D02*
D03*
X845790Y366056D02*
D03*
X785750Y350080D02*
D03*
X615400Y360042D02*
D03*
X548900Y435270D02*
D03*
X556527Y503564D02*
D03*
X608080Y576840D02*
D03*
X627110Y775830D02*
D03*
X581558Y764060D02*
D03*
X612260Y347050D02*
D03*
X588500Y389950D02*
D03*
X699930Y426056D02*
D03*
X645286Y490656D02*
D03*
X687801Y351174D02*
D03*
X922020Y297000D02*
D03*
X944215Y310995D02*
D03*
X636228Y489378D02*
D03*
X671509Y392350D02*
D03*
X684806Y431026D02*
D03*
X649671Y402749D02*
D03*
X659780Y333300D02*
D03*
X680171Y319878D02*
D03*
X679920Y323310D02*
D03*
X821260Y315370D02*
D03*
X897582Y287297D02*
D03*
X874414Y443492D02*
D03*
X724305Y388282D02*
D03*
X734414Y363492D02*
D03*
X557040Y363660D02*
D03*
X511060Y366520D02*
D03*
X620840Y326150D02*
D03*
X636514Y337450D02*
D03*
X630414Y403704D02*
D03*
X628259Y408492D02*
D03*
X630414Y401229D02*
D03*
X632414Y358522D02*
D03*
X620330Y397875D02*
D03*
X641414Y362492D02*
D03*
X620957Y373492D02*
D03*
X638660Y450780D02*
D03*
X639643Y458992D02*
D03*
X672914Y493492D02*
D03*
X604414Y463492D02*
D03*
X716782Y686992D02*
D03*
X720415Y713599D02*
D03*
X577940Y741070D02*
D03*
X528330Y522390D02*
D03*
X542410Y460900D02*
D03*
X533830Y453420D02*
D03*
X632418Y324545D02*
D03*
X587436Y358130D02*
D03*
X613030Y369930D02*
D03*
X647794Y450664D02*
D03*
X672166Y473687D02*
D03*
X718300Y530640D02*
D03*
X897600Y730070D02*
D03*
X677064Y480910D02*
D03*
X889414Y763492D02*
D03*
X874610Y803000D02*
D03*
X484330Y507650D02*
D03*
X639650Y514690D02*
D03*
X683194Y548248D02*
D03*
X697840Y542410D02*
D03*
X692193Y560683D02*
D03*
X665390Y553630D02*
D03*
X657910Y552860D02*
D03*
X604414Y516406D02*
D03*
X583650Y520327D02*
D03*
X512050Y500500D02*
D03*
X867469Y376065D02*
D03*
X854668Y358680D02*
D03*
X531850Y383460D02*
D03*
X567386Y371800D02*
D03*
X569360Y370915D02*
D03*
X653290Y409640D02*
D03*
X644229Y487429D02*
D03*
X636790Y574640D02*
D03*
X626780Y689810D02*
D03*
X620400Y728090D02*
D03*
X703560Y693440D02*
D03*
X750483Y753073D02*
D03*
X739200Y776820D02*
D03*
X702790Y538340D02*
D03*
X888030Y744920D02*
D03*
X534380Y560450D02*
D03*
X584760Y561990D02*
D03*
X484660Y707300D02*
D03*
X476630Y721050D02*
D03*
X597138Y477840D02*
D03*
D03*
X459470Y763510D02*
D03*
X821040Y530090D02*
D03*
X934892Y570920D02*
D03*
X471900Y611600D02*
D03*
X378620Y474650D02*
D03*
X969210Y651640D02*
D03*
X806300Y651090D02*
D03*
X746680Y648780D02*
D03*
X672650Y626340D02*
D03*
X525250Y555830D02*
D03*
X368101Y415470D02*
D03*
X439340Y720390D02*
D03*
X711603Y523665D02*
D03*
X890670Y743160D02*
D03*
X711413Y407492D02*
D03*
X722334Y403018D02*
D03*
X721134Y411425D02*
D03*
X804637Y455349D02*
D03*
X815557Y457932D02*
D03*
X801800Y459183D02*
D03*
X863610Y387530D02*
D03*
X854810Y402600D02*
D03*
X838347Y411629D02*
D03*
X763070Y404580D02*
D03*
X684414Y386492D02*
D03*
X689414Y383492D02*
D03*
X434414Y315413D02*
D03*
X416020Y317900D02*
D03*
X354640Y306350D02*
D03*
X489280Y308330D02*
D03*
X505672Y302815D02*
D03*
X507088Y304335D02*
D03*
X508090Y305470D02*
D03*
X533830Y308110D02*
D03*
X678556Y335350D02*
D03*
X598290Y493900D02*
D03*
X597112Y515159D02*
D03*
X902880Y727870D02*
D03*
X899690Y723360D02*
D03*
X677991Y487093D02*
D03*
X725914Y429712D02*
D03*
X740796Y433896D02*
D03*
X739441Y431041D02*
D03*
X841280Y463870D02*
D03*
X785300Y345876D02*
D03*
X774510Y319880D02*
D03*
X741730Y308110D02*
D03*
X662414Y479492D02*
D03*
X725914Y437703D02*
D03*
X732424Y434064D02*
D03*
X703414Y470582D02*
D03*
X738650Y530640D02*
D03*
X709689Y431411D02*
D03*
X714340Y498300D02*
D03*
X747780Y521510D02*
D03*
X648670Y672100D02*
D03*
X674850Y567860D02*
D03*
X673970Y541706D02*
D03*
X447150Y671880D02*
D03*
X801460Y406890D02*
D03*
X800100Y411620D02*
D03*
X795800Y412476D02*
D03*
X793871Y423492D02*
D03*
X796032Y406803D02*
D03*
X798100Y403492D02*
D03*
X795800Y396010D02*
D03*
X706310Y496760D02*
D03*
X715000Y495880D02*
D03*
X758450Y455730D02*
D03*
X668372Y483992D02*
D03*
X668796Y467534D02*
D03*
X615407Y395499D02*
D03*
X576620Y407110D02*
D03*
X658570Y726220D02*
D03*
X703883Y561006D02*
D03*
X966770Y636130D02*
D03*
X903320Y718520D02*
D03*
X900130Y735900D02*
D03*
X1058970Y532510D02*
D03*
X889503Y429651D02*
D03*
X825684Y378180D02*
D03*
X843260Y377360D02*
D03*
X884730Y375320D02*
D03*
X889800Y443180D02*
D03*
X592680Y434500D02*
D03*
X804430Y761970D02*
D03*
X774414Y611492D02*
D03*
X780450Y720720D02*
D03*
X1084414Y626492D02*
D03*
X997590Y657140D02*
D03*
X361419Y389950D02*
D03*
X370558Y393824D02*
D03*
X367620Y404140D02*
D03*
X350460Y412720D02*
D03*
X352990Y413160D02*
D03*
X345510Y390170D02*
D03*
X416790Y412390D02*
D03*
X304414Y413492D02*
D03*
X292160Y413270D02*
D03*
X268584Y382992D02*
D03*
X231053Y303396D02*
D03*
X284414Y358488D02*
D03*
Y360492D02*
D03*
X278740Y374220D02*
D03*
X222224Y401696D02*
D03*
X171914Y410367D02*
D03*
X218548Y412780D02*
D03*
X182710Y400510D02*
D03*
X195250D02*
D03*
X202180Y384450D02*
D03*
X161810Y400180D02*
D03*
X654414Y339492D02*
D03*
X650090Y329708D02*
D03*
X628906Y356492D02*
D03*
X630630Y361240D02*
D03*
X618414Y467384D02*
D03*
X626560Y504020D02*
D03*
X637450Y359040D02*
D03*
X638076Y339154D02*
D03*
X652740Y360140D02*
D03*
X651464Y397992D02*
D03*
X680790Y721160D02*
D03*
X751850Y545380D02*
D03*
X764414Y504035D02*
D03*
X783294Y496868D02*
D03*
X844414Y494035D02*
D03*
X860957Y473492D02*
D03*
X864380Y408540D02*
D03*
X1035320Y410190D02*
D03*
X1055230Y401170D02*
D03*
X1087020Y406340D02*
D03*
X1137871Y323492D02*
D03*
X952050Y267960D02*
D03*
X689414Y356492D02*
D03*
X680678Y315896D02*
D03*
X658414Y382492D02*
D03*
X645414Y372492D02*
D03*
X612370Y383240D02*
D03*
X602140Y384450D02*
D03*
X841060Y425590D02*
D03*
X809800Y430180D02*
D03*
X762850Y401390D02*
D03*
X1064580Y386760D02*
D03*
X343860Y358490D02*
D03*
X424710Y166760D02*
D03*
X443960Y178860D02*
D03*
X374516Y391610D02*
D03*
X553157Y322377D02*
D03*
X530728Y299949D02*
D03*
X529940Y345770D02*
D03*
X672650Y364540D02*
D03*
X670890Y299090D02*
D03*
X699710Y357280D02*
D03*
X878460Y429880D02*
D03*
X913660Y435820D02*
D03*
X944900Y446600D02*
D03*
X1036420Y479380D02*
D03*
X1124414Y500492D02*
D03*
X968770Y453750D02*
D03*
X824414Y406642D02*
D03*
X688418Y309546D02*
D03*
X584414Y248034D02*
D03*
X518876Y368060D02*
D03*
X514910Y381480D02*
D03*
X641758Y336724D02*
D03*
X491702Y381428D02*
D03*
X498080Y405790D02*
D03*
X623920Y327360D02*
D03*
X513370Y265760D02*
D03*
X689711Y421789D02*
D03*
X688850Y399492D02*
D03*
X895800Y395624D02*
D03*
X899690Y395560D02*
D03*
X885830Y399740D02*
D03*
X871310Y286110D02*
D03*
X886545Y284908D02*
D03*
X1057210Y385000D02*
D03*
X1238132Y444695D02*
D03*
X1192400Y411400D02*
D03*
X1215888Y447160D02*
D03*
X1126180Y599940D02*
D03*
X1169080Y686510D02*
D03*
X844414Y763492D02*
D03*
X336930Y331650D02*
D03*
X744150Y454850D02*
D03*
X766810Y499290D02*
D03*
X1132120Y645810D02*
D03*
X668164Y399492D02*
D03*
X585414Y269842D02*
D03*
X505019Y361616D02*
D03*
X714670Y328900D02*
D03*
X674960Y371724D02*
D03*
X686290Y331650D02*
D03*
X687372Y342228D02*
D03*
X808280Y411620D02*
D03*
X459030Y453200D02*
D03*
X436920Y412720D02*
D03*
X690414Y335492D02*
D03*
X583440Y727650D02*
D03*
X813340Y367070D02*
D03*
X788920Y355960D02*
D03*
X686290Y339680D02*
D03*
X688728Y325492D02*
D03*
X918610Y717310D02*
D03*
X691020Y460900D02*
D03*
X815870Y332310D02*
D03*
X826980Y329890D02*
D03*
X725010Y267300D02*
D03*
X718520Y265210D02*
D03*
X572880Y215820D02*
D03*
X394414Y201034D02*
D03*
X364210Y320100D02*
D03*
X361790Y372350D02*
D03*
X486876Y448992D02*
D03*
X986920Y359700D02*
D03*
X915310Y358930D02*
D03*
X903430Y340340D02*
D03*
X480920Y246180D02*
D03*
X413160Y244420D02*
D03*
X396770Y233310D02*
D03*
X294360Y333190D02*
D03*
X172150Y364540D02*
D03*
D101*
X684414Y445742D02*
D03*
X719414Y462742D02*
D03*
X639624Y469242D02*
D03*
X615809Y464388D02*
D03*
X512335Y475408D02*
D03*
X670514Y511752D02*
D03*
X654591Y496563D02*
D03*
X716593Y397699D02*
D03*
X711343Y393366D02*
D03*
X661664Y360492D02*
D03*
X439124Y343582D02*
D03*
X498560Y319850D02*
D03*
X711414Y385242D02*
D03*
X713664Y387492D02*
D03*
X651563Y481768D02*
D03*
X650414Y477742D02*
D03*
X660264Y486495D02*
D03*
X605432Y473742D02*
D03*
X591633Y482678D02*
D03*
X672298Y445742D02*
D03*
X661664Y459459D02*
D03*
X633594Y445468D02*
D03*
X646388Y482358D02*
D03*
X648912Y476994D02*
D03*
X640076Y471403D02*
D03*
X642414Y473742D02*
D03*
X652103Y477200D02*
D03*
X670044Y474111D02*
D03*
X682655Y465500D02*
D03*
X662004Y461858D02*
D03*
X881800Y447480D02*
D03*
X1080159Y456612D02*
D03*
X1142450Y479910D02*
D03*
X825229Y361616D02*
D03*
X713664Y347342D02*
D03*
X709664D02*
D03*
X705570Y335350D02*
D03*
X860777Y346751D02*
D03*
X857800Y385471D02*
D03*
X858138Y380718D02*
D03*
X858007Y367173D02*
D03*
X801376Y434904D02*
D03*
X806036Y434684D02*
D03*
X720112Y397417D02*
D03*
X677359Y506422D02*
D03*
X713694Y548070D02*
D03*
X939414Y758992D02*
D03*
X917448Y740542D02*
D03*
X653557Y605456D02*
D03*
X781418Y385951D02*
D03*
X801216Y393042D02*
D03*
X825800Y414879D02*
D03*
X858804Y428984D02*
D03*
X873800Y427980D02*
D03*
X857800Y420179D02*
D03*
X809800Y399880D02*
D03*
X711414Y369242D02*
D03*
X863702Y368650D02*
D03*
X857800Y354380D02*
D03*
X848042Y347424D02*
D03*
X817800Y340380D02*
D03*
X792315Y346166D02*
D03*
X658414Y473742D02*
D03*
X670414Y340325D02*
D03*
X658414Y349242D02*
D03*
X669943Y348419D02*
D03*
X675051Y429795D02*
D03*
X677992Y428346D02*
D03*
X672493Y453116D02*
D03*
X685928Y573517D02*
D03*
X944414Y767993D02*
D03*
X924414Y780050D02*
D03*
X1273514Y709992D02*
D03*
X1274414Y617394D02*
D03*
X620661Y446969D02*
D03*
X621384Y450938D02*
D03*
X615414Y432742D02*
D03*
X611336Y431492D02*
D03*
X607164Y427492D02*
D03*
Y439492D02*
D03*
X597414Y426404D02*
D03*
X615414Y444079D02*
D03*
X607937Y467788D02*
D03*
X609304Y473630D02*
D03*
X615809Y461742D02*
D03*
X683472Y633492D02*
D03*
X709126Y718994D02*
D03*
X666976Y446473D02*
D03*
X619414Y432742D02*
D03*
X650414Y445742D02*
D03*
X654374Y445473D02*
D03*
X1003302Y615992D02*
D03*
X589414Y454992D02*
D03*
X533866Y450815D02*
D03*
X713359Y399356D02*
D03*
X715330Y401326D02*
D03*
X705570Y382604D02*
D03*
X712428Y380544D02*
D03*
X712174Y377364D02*
D03*
X714149Y373524D02*
D03*
X707414Y385242D02*
D03*
X589429Y429748D02*
D03*
X628414Y432742D02*
D03*
X652356Y469550D02*
D03*
X658414Y467148D02*
D03*
X653657Y469695D02*
D03*
X674414Y461742D02*
D03*
X861128Y523492D02*
D03*
X821190D02*
D03*
X791128D02*
D03*
X622815Y459962D02*
D03*
X715229Y369744D02*
D03*
X709273Y366027D02*
D03*
X775229Y426640D02*
D03*
X801735Y428044D02*
D03*
X713812Y379344D02*
D03*
X683925Y366242D02*
D03*
X674660Y412488D02*
D03*
X615414Y420005D02*
D03*
X610372Y418258D02*
D03*
X625788Y420693D02*
D03*
X622315Y500330D02*
D03*
X625641Y519269D02*
D03*
X639414Y758992D02*
D03*
X684975Y488616D02*
D03*
X686414Y473742D02*
D03*
X683038Y426640D02*
D03*
X675526Y425492D02*
D03*
X667879Y391003D02*
D03*
X645799Y391936D02*
D03*
X658635Y392242D02*
D03*
X645177D02*
D03*
X645414Y379242D02*
D03*
X650945D02*
D03*
X645735Y386492D02*
D03*
X654414Y379242D02*
D03*
X653153Y377872D02*
D03*
X657918Y365746D02*
D03*
X653884Y366242D02*
D03*
X652089Y351567D02*
D03*
X645735Y360492D02*
D03*
X889800Y380380D02*
D03*
X684414Y392242D02*
D03*
X680414Y379242D02*
D03*
X684414D02*
D03*
X655609Y432742D02*
D03*
X628384Y443695D02*
D03*
X605414Y446198D02*
D03*
X511914Y435992D02*
D03*
X687664Y429492D02*
D03*
X664863Y378993D02*
D03*
X660464Y399492D02*
D03*
X811249Y359311D02*
D03*
X801882Y380462D02*
D03*
X817800Y385680D02*
D03*
X711414Y344342D02*
D03*
X700314Y345242D02*
D03*
X873800Y384910D02*
D03*
X863600Y378180D02*
D03*
X855229Y369744D02*
D03*
X873800Y380380D02*
D03*
X833800Y386880D02*
D03*
X622414Y349242D02*
D03*
X607164Y367492D02*
D03*
X587968Y375591D02*
D03*
X629715Y758992D02*
D03*
X612352Y671594D02*
D03*
X584414Y767992D02*
D03*
X594414Y767992D02*
D03*
X466048Y344090D02*
D03*
X417280Y348030D02*
D03*
X676414Y392242D02*
D03*
X684414Y419742D02*
D03*
X697664Y419492D02*
D03*
X690414Y353242D02*
D03*
X904198Y279066D02*
D03*
X622935Y386492D02*
D03*
X685642Y404215D02*
D03*
X680414Y405242D02*
D03*
X687664Y412492D02*
D03*
X680414Y431026D02*
D03*
X694414Y465742D02*
D03*
X645397Y417261D02*
D03*
X646896Y408224D02*
D03*
X641414Y419742D02*
D03*
X1025414Y358272D02*
D03*
X675664Y408492D02*
D03*
X676414Y405242D02*
D03*
X634164Y442492D02*
D03*
X641414Y432742D02*
D03*
X655895Y405242D02*
D03*
X809800Y434479D02*
D03*
X589414Y353447D02*
D03*
X597419Y353252D02*
D03*
X511914Y374657D02*
D03*
X639424Y349172D02*
D03*
X633072Y405299D02*
D03*
X637414Y405242D02*
D03*
X630386Y345242D02*
D03*
X643594Y353234D02*
D03*
X638414Y353242D02*
D03*
X635550Y345648D02*
D03*
X635019Y356492D02*
D03*
X634772Y361100D02*
D03*
X620194Y367021D02*
D03*
X618414Y353242D02*
D03*
X622935Y379242D02*
D03*
X624414D02*
D03*
X637414Y445742D02*
D03*
X614414Y767992D02*
D03*
X546734Y498395D02*
D03*
X650414Y337242D02*
D03*
X648362Y334496D02*
D03*
X652164Y339492D02*
D03*
X621164Y412492D02*
D03*
X672664Y471492D02*
D03*
X881846Y686990D02*
D03*
X597787Y333406D02*
D03*
X586513Y329104D02*
D03*
X579840Y344344D02*
D03*
X583797Y411866D02*
D03*
X483066Y499792D02*
D03*
X589414Y397242D02*
D03*
X868952Y358152D02*
D03*
X867019Y363960D02*
D03*
X719414Y336242D02*
D03*
X881800Y373880D02*
D03*
X674901Y360492D02*
D03*
X658204Y379242D02*
D03*
X674664Y356492D02*
D03*
X667414Y379242D02*
D03*
X649477Y405347D02*
D03*
X662208Y387035D02*
D03*
X660638Y409518D02*
D03*
X645414Y405242D02*
D03*
X647164Y412492D02*
D03*
X620732Y429492D02*
D03*
X627638Y422326D02*
D03*
X631557Y461742D02*
D03*
X634164Y459492D02*
D03*
X636990Y458222D02*
D03*
X635974Y454532D02*
D03*
X638414Y477742D02*
D03*
Y473630D02*
D03*
X884414Y767993D02*
D03*
X874414D02*
D03*
X864414D02*
D03*
X854414D02*
D03*
X593922Y560864D02*
D03*
X614414Y526462D02*
D03*
X585229Y467280D02*
D03*
X454414Y758992D02*
D03*
X620480Y502677D02*
D03*
X612352Y535591D02*
D03*
X588006Y478138D02*
D03*
X583527Y475249D02*
D03*
X853652Y605202D02*
D03*
X600668Y500554D02*
D03*
X1016914Y642540D02*
D03*
X351414Y456017D02*
D03*
X296418Y436510D02*
D03*
X304914Y468492D02*
D03*
X719414Y413742D02*
D03*
X865800Y414979D02*
D03*
X863600Y391180D02*
D03*
Y384680D02*
D03*
X833800Y421480D02*
D03*
Y367380D02*
D03*
X809785Y421495D02*
D03*
X689414Y379242D02*
D03*
X693414D02*
D03*
Y391581D02*
D03*
X611336Y424398D02*
D03*
X607164Y451492D02*
D03*
X669985Y482358D02*
D03*
X697664Y335492D02*
D03*
X692315Y329104D02*
D03*
X670414Y469242D02*
D03*
X697664Y479492D02*
D03*
X758656Y374307D02*
D03*
X856429Y329020D02*
D03*
X705569Y342860D02*
D03*
X708594D02*
D03*
X742315Y337232D02*
D03*
X725282Y345360D02*
D03*
X871600Y349080D02*
D03*
X718854Y449181D02*
D03*
X727664Y444492D02*
D03*
X701190Y453492D02*
D03*
X719414Y437742D02*
D03*
X691880Y431026D02*
D03*
X687664Y442492D02*
D03*
Y438492D02*
D03*
X674664Y439204D02*
D03*
X674698Y445742D02*
D03*
X651918Y347246D02*
D03*
X646326Y349112D02*
D03*
X678414Y353242D02*
D03*
X689672Y360478D02*
D03*
X684706Y362440D02*
D03*
X689065Y366242D02*
D03*
X702381Y378775D02*
D03*
X700942Y384704D02*
D03*
X694276Y366242D02*
D03*
X687664Y369492D02*
D03*
X719414Y409242D02*
D03*
X701760Y492123D02*
D03*
X712319Y515395D02*
D03*
X719359Y759047D02*
D03*
X669248Y542677D02*
D03*
X714414Y767993D02*
D03*
X593414Y459742D02*
D03*
X831808Y353953D02*
D03*
X792315Y369744D02*
D03*
X801800Y421480D02*
D03*
Y414979D02*
D03*
X881800Y460560D02*
D03*
X857800D02*
D03*
X889800D02*
D03*
X1133414Y467367D02*
D03*
X615414Y392242D02*
D03*
X619414D02*
D03*
X674161Y382979D02*
D03*
X674664Y399400D02*
D03*
X946914Y686992D02*
D03*
X909414Y750353D02*
D03*
X869414Y758992D02*
D03*
X646414Y465742D02*
D03*
X686414Y468428D02*
D03*
X1068909Y393590D02*
D03*
X880172Y389551D02*
D03*
X881800Y380380D02*
D03*
Y440980D02*
D03*
X593414Y425930D02*
D03*
X589414Y426742D02*
D03*
Y468742D02*
D03*
X595104Y448968D02*
D03*
X592970Y449742D02*
D03*
X622414Y473742D02*
D03*
X642324Y477694D02*
D03*
X593302Y473630D02*
D03*
Y469566D02*
D03*
X844414Y766992D02*
D03*
X859414Y758992D02*
D03*
X725474Y357552D02*
D03*
X867754Y431631D02*
D03*
X887600Y456180D02*
D03*
X871432D02*
D03*
X944414Y442993D02*
D03*
X320414Y437992D02*
D03*
X222208Y381177D02*
D03*
X350098Y393991D02*
D03*
X490432Y412252D02*
D03*
X231945Y369744D02*
D03*
X353914Y312542D02*
D03*
X557488Y183562D02*
D03*
X301094Y408492D02*
D03*
X650414Y332772D02*
D03*
X626040Y363868D02*
D03*
X624040Y365868D02*
D03*
X632414Y366242D02*
D03*
X627809Y379242D02*
D03*
Y405242D02*
D03*
X633019Y379242D02*
D03*
X634164Y408492D02*
D03*
Y416492D02*
D03*
X631462Y431790D02*
D03*
X637414Y432742D02*
D03*
X622414Y469242D02*
D03*
X634388Y349550D02*
D03*
X857800Y473480D02*
D03*
X832575Y380668D02*
D03*
X701664Y367492D02*
D03*
X699414Y365242D02*
D03*
X687664Y386492D02*
D03*
X641414Y379242D02*
D03*
X598973Y386000D02*
D03*
X568203Y404626D02*
D03*
X625052Y348854D02*
D03*
X873800Y473480D02*
D03*
X865800Y467820D02*
D03*
X862625Y460479D02*
D03*
X858340Y440440D02*
D03*
X879410Y423491D02*
D03*
X865707Y434387D02*
D03*
X865800Y440980D02*
D03*
Y427980D02*
D03*
X868975Y421480D02*
D03*
X857800Y434479D02*
D03*
X835472Y410141D02*
D03*
X700866Y412392D02*
D03*
X696426Y414522D02*
D03*
X367918Y274494D02*
D03*
X387625Y239696D02*
D03*
X374516Y386254D02*
D03*
X647164Y455492D02*
D03*
X674664Y369492D02*
D03*
X721764Y377242D02*
D03*
X1142315Y516011D02*
D03*
X1035008Y475591D02*
D03*
X889800Y434479D02*
D03*
X817800Y393380D02*
D03*
X589664Y244442D02*
D03*
X637414Y378242D02*
D03*
X628929Y342028D02*
D03*
X634414Y339453D02*
D03*
X496914Y400992D02*
D03*
Y415992D02*
D03*
X495347Y434425D02*
D03*
X491914Y430992D02*
D03*
X650945Y366242D02*
D03*
X645735Y364478D02*
D03*
X693414Y421462D02*
D03*
X687664Y425492D02*
D03*
X689634Y405242D02*
D03*
X686880Y399492D02*
D03*
X693414Y405242D02*
D03*
X687664Y408492D02*
D03*
X593414Y454992D02*
D03*
X857043Y390423D02*
D03*
X836126Y391334D02*
D03*
X855229Y394128D02*
D03*
X824442Y422322D02*
D03*
X809800Y414979D02*
D03*
X889800Y393380D02*
D03*
X896832Y402677D02*
D03*
X889800Y367380D02*
D03*
X873800Y373880D02*
D03*
X889800Y386880D02*
D03*
X881800Y399880D02*
D03*
X873800D02*
D03*
X978445Y473492D02*
D03*
X1221952Y465802D02*
D03*
X834414Y784112D02*
D03*
X751239Y413541D02*
D03*
X766784Y522677D02*
D03*
X569414Y758992D02*
D03*
X919414Y758992D02*
D03*
X274414Y316415D02*
D03*
X542248Y493492D02*
D03*
X1174208Y475416D02*
D03*
X1164555Y467781D02*
D03*
X1160414Y479617D02*
D03*
X650414Y465742D02*
D03*
X1109857Y461946D02*
D03*
X611844Y524176D02*
D03*
X381974Y767000D02*
D03*
X661664Y429492D02*
D03*
Y421492D02*
D03*
X914414Y767993D02*
D03*
X674664Y442492D02*
D03*
X676414Y432742D02*
D03*
X1174414Y616778D02*
D03*
Y616886D02*
D03*
X996159Y509698D02*
D03*
X807089Y618620D02*
D03*
X813865Y604186D02*
D03*
X724112Y553492D02*
D03*
X955362Y503492D02*
D03*
X809800Y440980D02*
D03*
X711414Y401242D02*
D03*
X703414Y377242D02*
D03*
X674664Y386492D02*
D03*
X676414Y379242D02*
D03*
X657582Y423492D02*
D03*
X709664Y359492D02*
D03*
X634164Y382492D02*
D03*
X754414Y767993D02*
D03*
X904414D02*
D03*
X619414Y405242D02*
D03*
X1037548Y363492D02*
D03*
X1084414Y321484D02*
D03*
X1034414Y360242D02*
D03*
X594414Y561461D02*
D03*
Y560498D02*
D03*
X314414Y422830D02*
D03*
Y400242D02*
D03*
X547328Y294053D02*
D03*
X506914Y370992D02*
D03*
X881800Y386880D02*
D03*
X879014Y352180D02*
D03*
X811488Y551608D02*
D03*
X1109682Y497506D02*
D03*
X1127972Y376348D02*
D03*
X348954Y772080D02*
D03*
X429414Y767992D02*
D03*
X602700Y451532D02*
D03*
X566378Y400478D02*
D03*
X1117050Y243506D02*
D03*
X1049994Y243492D02*
D03*
Y243506D02*
D03*
X809710Y447468D02*
D03*
X707414Y403018D02*
D03*
X705664Y371492D02*
D03*
X699414Y361242D02*
D03*
X889414Y758992D02*
D03*
X434816Y388354D02*
D03*
X434806Y383597D02*
D03*
X515367Y333368D02*
D03*
X515324Y333422D02*
D03*
X644414Y767993D02*
D03*
X649414Y758992D02*
D03*
X618414Y345242D02*
D03*
X742400Y616632D02*
D03*
X678414Y462228D02*
D03*
Y461742D02*
D03*
X678392Y461692D02*
D03*
X320414Y420544D02*
D03*
X321776Y304212D02*
D03*
X764414Y493272D02*
D03*
X894414Y767993D02*
D03*
X1151414Y343607D02*
D03*
X642414Y469742D02*
D03*
X809710Y460422D02*
D03*
X704808Y407492D02*
D03*
X344636Y493492D02*
D03*
X650414Y432742D02*
D03*
X1008225Y674467D02*
D03*
X1258020Y166036D02*
D03*
X1004764Y625992D02*
D03*
X607164Y431492D02*
D03*
X817800Y427980D02*
D03*
X697664Y460492D02*
D03*
X833800Y354380D02*
D03*
X335414Y370242D02*
D03*
X473599Y451024D02*
D03*
X1348343Y686736D02*
D03*
X1398914Y682992D02*
D03*
X1370414Y659492D02*
D03*
X1360914Y671492D02*
D03*
X1306914Y676992D02*
D03*
X1251414Y786992D02*
D03*
X1217414D02*
D03*
X1238208Y749164D02*
D03*
X1213824Y702440D02*
D03*
X1398914Y623992D02*
D03*
X1246336Y647421D02*
D03*
X1334821Y629840D02*
D03*
X1293599Y581072D02*
D03*
X1246336Y607421D02*
D03*
X1221952Y573742D02*
D03*
X1181312Y576993D02*
D03*
X1090414Y788992D02*
D03*
X1158414D02*
D03*
X999414Y792992D02*
D03*
X1014414Y629492D02*
D03*
X1011914Y633142D02*
D03*
X1008225Y683492D02*
D03*
X984414Y780050D02*
D03*
X974414Y767992D02*
D03*
X979414Y758992D02*
D03*
X989414Y746935D02*
D03*
X1140672Y605771D02*
D03*
X1075648D02*
D03*
X1174414Y586716D02*
D03*
X1108160Y572677D02*
D03*
X1059392Y565912D02*
D03*
X1016914Y613842D02*
D03*
X995364Y620992D02*
D03*
X1002496Y565961D02*
D03*
X1205696Y511471D02*
D03*
X1357914Y480992D02*
D03*
X1187414Y467367D02*
D03*
X1059392Y525591D02*
D03*
X1148800Y465802D02*
D03*
X1075648D02*
D03*
X1019445Y503492D02*
D03*
X1181312Y452677D02*
D03*
X1224919Y420612D02*
D03*
X1081159Y438612D02*
D03*
Y420612D02*
D03*
X1004414Y442993D02*
D03*
X1068909Y429612D02*
D03*
X929344Y495591D02*
D03*
X914414Y524742D02*
D03*
X891190Y523492D02*
D03*
X880576Y478933D02*
D03*
X863914Y551492D02*
D03*
X881800Y453979D02*
D03*
X889800Y447480D02*
D03*
Y421480D02*
D03*
X865800Y453979D02*
D03*
X857800Y447480D02*
D03*
X873800Y421480D02*
D03*
Y434479D02*
D03*
X837151Y618620D02*
D03*
X804914Y575492D02*
D03*
X848064Y512677D02*
D03*
X769414Y792992D02*
D03*
X759414Y758992D02*
D03*
X774414Y588461D02*
D03*
X750528Y573092D02*
D03*
X842315Y475408D02*
D03*
X833800Y473480D02*
D03*
X848064Y462677D02*
D03*
X833800Y460479D02*
D03*
X817800Y473480D02*
D03*
X797101Y467280D02*
D03*
X801800Y460479D02*
D03*
X734414Y767992D02*
D03*
X714414Y576778D02*
D03*
X706914Y686992D02*
D03*
X684414Y767992D02*
D03*
X703414Y476265D02*
D03*
X715414Y473742D02*
D03*
X825800Y453979D02*
D03*
X844828Y439942D02*
D03*
X833800Y447480D02*
D03*
X809800Y453979D02*
D03*
X754414Y446778D02*
D03*
X817800Y434479D02*
D03*
Y421480D02*
D03*
X807424Y419134D02*
D03*
X715414Y454742D02*
D03*
X701664Y451492D02*
D03*
X693414Y445742D02*
D03*
X701664Y427492D02*
D03*
Y439492D02*
D03*
X699414Y429742D02*
D03*
X719414Y425742D02*
D03*
X684414Y432742D02*
D03*
X1390914Y415992D02*
D03*
X1224919Y402612D02*
D03*
X1081159D02*
D03*
X1120243Y391620D02*
D03*
X1133585D02*
D03*
X1068909Y411612D02*
D03*
X1041164Y403492D02*
D03*
X921216Y418338D02*
D03*
Y388646D02*
D03*
X1088585Y386000D02*
D03*
X1212669Y375612D02*
D03*
X1284414Y362992D02*
D03*
X1182702Y369744D02*
D03*
X978112Y382677D02*
D03*
X944414Y383992D02*
D03*
X1081159Y366612D02*
D03*
X1068909Y375612D02*
D03*
X879600Y417179D02*
D03*
X888704Y401023D02*
D03*
X865800Y399880D02*
D03*
X848064Y405591D02*
D03*
X1187414Y343607D02*
D03*
X1156513Y329104D02*
D03*
X1198914Y320242D02*
D03*
X1073599Y329104D02*
D03*
X1043586Y359245D02*
D03*
X937472Y355961D02*
D03*
X1017664Y347992D02*
D03*
X986240Y335591D02*
D03*
X961856Y302677D02*
D03*
X1390914Y265992D02*
D03*
X1194414Y282992D02*
D03*
X1154414Y270206D02*
D03*
X1290914Y165992D02*
D03*
X1058664Y250492D02*
D03*
X1134414Y90492D02*
D03*
X940914Y95992D02*
D03*
X889800Y354380D02*
D03*
X881800Y360880D02*
D03*
X873800Y341380D02*
D03*
X863600Y358680D02*
D03*
X929344Y315961D02*
D03*
X890056Y329104D02*
D03*
X896832Y312677D02*
D03*
X874414Y276778D02*
D03*
X848064Y305961D02*
D03*
X872448Y217134D02*
D03*
X831808Y413390D02*
D03*
X828000Y397680D02*
D03*
X833800Y380380D02*
D03*
X817800D02*
D03*
X722815Y418512D02*
D03*
X701664Y403492D02*
D03*
X687664Y416492D02*
D03*
X689414Y392242D02*
D03*
X801800Y368278D02*
D03*
X828000Y358680D02*
D03*
X801800Y354380D02*
D03*
X833914Y178492D02*
D03*
X790914Y95992D02*
D03*
X789383Y293492D02*
D03*
X769445Y273492D02*
D03*
X718016Y305591D02*
D03*
X764414Y222992D02*
D03*
X726144Y195591D02*
D03*
X703733Y352923D02*
D03*
X687664Y373492D02*
D03*
X692664Y331492D02*
D03*
X704414Y230206D02*
D03*
X681664Y331492D02*
D03*
X683414Y138492D02*
D03*
X674414Y767992D02*
D03*
X669414Y758992D02*
D03*
X679414D02*
D03*
X669248Y666868D02*
D03*
X648672Y556688D02*
D03*
X647164Y459492D02*
D03*
X624414Y767992D02*
D03*
X612352Y639936D02*
D03*
X609414Y758992D02*
D03*
X634164Y451492D02*
D03*
X680414Y445742D02*
D03*
X671414Y432742D02*
D03*
X667414D02*
D03*
X658414D02*
D03*
X647164Y442492D02*
D03*
X645414Y432742D02*
D03*
X680414Y419742D02*
D03*
X667414D02*
D03*
X661664Y412492D02*
D03*
Y416492D02*
D03*
X624414Y432742D02*
D03*
X619414Y419742D02*
D03*
X621164Y416492D02*
D03*
X564414Y767992D02*
D03*
X554414Y783992D02*
D03*
X494414Y792992D02*
D03*
X469414Y767992D02*
D03*
X399414D02*
D03*
X579414Y758992D02*
D03*
X572315Y637968D02*
D03*
X547328Y545591D02*
D03*
X506914Y686992D02*
D03*
X506688Y542677D02*
D03*
X414414Y758992D02*
D03*
X464414D02*
D03*
X469445Y513492D02*
D03*
X369414Y767992D02*
D03*
X329414Y783992D02*
D03*
X339414Y767992D02*
D03*
X384414Y758992D02*
D03*
X354414D02*
D03*
X257414Y778492D02*
D03*
X236414Y779492D02*
D03*
X207414Y778492D02*
D03*
X86914Y721992D02*
D03*
X282414Y683492D02*
D03*
X327872Y537135D02*
D03*
X201414Y550492D02*
D03*
X363664Y504742D02*
D03*
X86914Y624992D02*
D03*
X84414Y560992D02*
D03*
X64414Y515992D02*
D03*
X44414Y560992D02*
D03*
Y525992D02*
D03*
X579840Y495591D02*
D03*
X475229Y475408D02*
D03*
X557664Y473492D02*
D03*
X571712Y452677D02*
D03*
X502335Y451024D02*
D03*
X599164Y439492D02*
D03*
X607164Y415492D02*
D03*
X501914Y444167D02*
D03*
X491914D02*
D03*
X501862Y441118D02*
D03*
X491956D02*
D03*
X476914Y420992D02*
D03*
X466914Y410992D02*
D03*
X429568Y475408D02*
D03*
X409152Y477134D02*
D03*
X435242Y451024D02*
D03*
X337414Y459192D02*
D03*
X367538Y445510D02*
D03*
X352256Y432677D02*
D03*
X254720Y457421D02*
D03*
X315229Y451024D02*
D03*
X296418Y445510D02*
D03*
X409152Y432677D02*
D03*
X335414Y430992D02*
D03*
X376640Y421098D02*
D03*
X164414Y431492D02*
D03*
X325414Y430992D02*
D03*
X147414Y428492D02*
D03*
X88414Y427992D02*
D03*
X155414Y423492D02*
D03*
X671414Y405242D02*
D03*
X663414D02*
D03*
X667414D02*
D03*
X658414D02*
D03*
X671414Y379242D02*
D03*
X641414Y405242D02*
D03*
Y392242D02*
D03*
X621164Y408492D02*
D03*
X624414Y405242D02*
D03*
X615414D02*
D03*
X634164Y386492D02*
D03*
X615414Y379242D02*
D03*
X676414Y366242D02*
D03*
X681164Y192492D02*
D03*
X661664Y356492D02*
D03*
X658414Y341242D02*
D03*
X658164Y282542D02*
D03*
X654414Y190206D02*
D03*
X641414Y366242D02*
D03*
X622414Y341242D02*
D03*
X624414Y285743D02*
D03*
X630914Y95992D02*
D03*
X611164Y407492D02*
D03*
X607164Y403492D02*
D03*
Y391492D02*
D03*
Y379492D02*
D03*
X605414Y353242D02*
D03*
X602315Y377872D02*
D03*
X571712Y375591D02*
D03*
X599164Y367492D02*
D03*
X501914Y380992D02*
D03*
X491956Y370760D02*
D03*
X422616Y391529D02*
D03*
X481796Y390826D02*
D03*
X484621Y369744D02*
D03*
X481914Y387817D02*
D03*
X412315Y369744D02*
D03*
X311616Y391413D02*
D03*
X254429Y385992D02*
D03*
X491914Y367817D02*
D03*
X368512Y362677D02*
D03*
X475229Y361616D02*
D03*
X273490Y363492D02*
D03*
X336000Y362677D02*
D03*
X88414Y363992D02*
D03*
X531072Y315591D02*
D03*
X515367Y342392D02*
D03*
X467638Y293492D02*
D03*
X525720Y259650D02*
D03*
X613914Y188492D02*
D03*
Y138492D02*
D03*
X571712Y224307D02*
D03*
X498560Y221393D02*
D03*
X466048Y233071D02*
D03*
X449792Y264968D02*
D03*
Y209564D02*
D03*
X441664Y323742D02*
D03*
X445139Y300928D02*
D03*
X417280Y285591D02*
D03*
X394414Y299192D02*
D03*
X212315Y304720D02*
D03*
X323586Y301620D02*
D03*
X447414Y100492D02*
D03*
X434414Y202992D02*
D03*
X360485Y239696D02*
D03*
X84414Y235992D02*
D03*
Y270992D02*
D03*
X64414Y280992D02*
D03*
X44414Y235992D02*
D03*
X317414Y101492D02*
D03*
X630414Y349242D02*
D03*
X644864Y292932D02*
D03*
X496914Y430992D02*
D03*
X498560Y252138D02*
D03*
X496914Y410992D02*
D03*
X664422Y741092D02*
D03*
Y353484D02*
D03*
X654414Y767992D02*
D03*
X659414Y758992D02*
D03*
X873800Y367380D02*
D03*
X825800Y374062D02*
D03*
X692616Y339518D02*
D03*
X858772Y329104D02*
D03*
X315426Y430958D02*
D03*
X360130Y296338D02*
D03*
X301202Y324278D02*
D03*
X1133414Y343607D02*
D03*
X1160414Y384546D02*
D03*
X439414Y767992D02*
D03*
X449414D02*
D03*
X394420Y758872D02*
D03*
X404414Y650580D02*
D03*
X809710Y467026D02*
D03*
X707414Y409368D02*
D03*
X825712Y467026D02*
D03*
X711412Y405306D02*
D03*
X814790Y454072D02*
D03*
X865800Y447480D02*
D03*
X703538Y361362D02*
D03*
X1076410Y614600D02*
D03*
X401414Y405050D02*
D03*
X1151414Y467367D02*
D03*
X605414Y489632D02*
D03*
X349414Y688689D02*
D03*
X881338Y571674D02*
D03*
X571901Y561461D02*
D03*
Y561260D02*
D03*
X1006914Y613842D02*
D03*
X828000Y462679D02*
D03*
X878346Y468529D02*
D03*
X709380Y387492D02*
D03*
X959414Y758992D02*
D03*
X739383Y270317D02*
D03*
X680414Y366242D02*
D03*
X611164Y387492D02*
D03*
X658164Y257142D02*
D03*
X501914Y375992D02*
D03*
X497290Y378492D02*
D03*
X166914Y433674D02*
D03*
X954414Y767993D02*
D03*
X389414Y780716D02*
D03*
X729414Y758992D02*
D03*
X821902Y427910D02*
D03*
X964414Y767993D02*
D03*
X701664Y391492D02*
D03*
X699414Y389242D02*
D03*
X687664Y395492D02*
D03*
X601414Y389242D02*
D03*
X668664Y269842D02*
D03*
X491914Y375992D02*
D03*
X626414Y345242D02*
D03*
Y341167D02*
D03*
X1124416Y516596D02*
D03*
X504746Y369744D02*
D03*
X496914Y375992D02*
D03*
X669248Y640122D02*
D03*
X496914Y370992D02*
D03*
X403060Y369744D02*
D03*
X619414Y758992D02*
D03*
X599414Y769286D02*
D03*
X878625Y367380D02*
D03*
X557664Y482492D02*
D03*
X556694Y394128D02*
D03*
X1115414Y343582D02*
D03*
X644356Y465550D02*
D03*
X591164Y465492D02*
D03*
X444414Y758992D02*
D03*
X707414Y390318D02*
D03*
X881800Y427910D02*
D03*
X719540Y373300D02*
D03*
X1181312Y425298D02*
D03*
X749004Y415718D02*
D03*
X611336Y395492D02*
D03*
X501914Y370992D02*
D03*
X642414Y345242D02*
D03*
X498560Y346595D02*
D03*
X604414Y767992D02*
D03*
X618414Y341242D02*
D03*
X881800Y347880D02*
D03*
X744414Y767992D02*
D03*
X646414Y473742D02*
D03*
X1169414Y343607D02*
D03*
X1178414Y355857D02*
D03*
X597112Y481504D02*
D03*
X1196414Y484806D02*
D03*
X724414Y767992D02*
D03*
X881800Y466980D02*
D03*
X686414Y461742D02*
D03*
X849414Y758992D02*
D03*
X727664Y453492D02*
D03*
X171914Y440492D02*
D03*
X273490Y369992D02*
D03*
X580164Y282542D02*
D03*
X506914Y375992D02*
D03*
X505974Y361616D02*
D03*
X949414Y747641D02*
D03*
X361074Y198294D02*
D03*
X360328Y331752D02*
D03*
X818292Y414487D02*
D03*
X161914Y406492D02*
D03*
X181414Y423492D02*
D03*
X1224919Y456612D02*
D03*
X459414Y767993D02*
D03*
X879414Y758992D02*
D03*
X934414Y767993D02*
D03*
X899414Y758992D02*
D03*
X315414Y383992D02*
D03*
X340414Y437992D02*
D03*
X325414Y383992D02*
D03*
X347914Y428492D02*
D03*
Y418492D02*
D03*
X300914Y398492D02*
D03*
X865800Y473480D02*
D03*
X873800Y466980D02*
D03*
X817800D02*
D03*
X889800Y360880D02*
D03*
X833800Y466980D02*
D03*
X857800Y347880D02*
D03*
X889800Y440980D02*
D03*
Y373880D02*
D03*
X833800Y453979D02*
D03*
X817800Y440980D02*
D03*
X887600Y397680D02*
D03*
X833800Y440980D02*
D03*
X873800Y414979D02*
D03*
X833800Y427980D02*
D03*
X273490Y382992D02*
D03*
X1033163Y250492D02*
D03*
X1125665D02*
D03*
X1100164D02*
D03*
X577046Y329104D02*
D03*
X89390Y378492D02*
D03*
X1107398Y25320D02*
D03*
X935948Y284908D02*
D03*
X731478Y351492D02*
D03*
X1092158Y348662D02*
D03*
X1174414Y389810D02*
D03*
X352764Y247824D02*
D03*
X231860Y403272D02*
D03*
X253958Y403526D02*
D03*
X824414Y216582D02*
D03*
X525818Y381682D02*
D03*
X668740Y244522D02*
D03*
X1254414Y490140D02*
D03*
X1097914Y313142D02*
D03*
X521420Y241332D02*
D03*
X907914Y113872D02*
D03*
X1106382Y356028D02*
D03*
X790914Y47164D02*
D03*
X1307042Y709992D02*
D03*
X1357842Y416226D02*
D03*
X317458Y52498D02*
D03*
X549868Y183562D02*
D03*
X38058Y475408D02*
D03*
X909532Y459152D02*
D03*
X466048Y201342D02*
D03*
X1101302Y25432D02*
D03*
X356066Y407336D02*
D03*
X361146Y447976D02*
D03*
X831808Y256460D02*
D03*
X228304Y768270D02*
D03*
X1257512Y661474D02*
D03*
X387562Y587168D02*
D03*
X84414Y534590D02*
D03*
X541994Y479472D02*
D03*
X623528Y561006D02*
D03*
X866352Y566602D02*
D03*
X497544Y285924D02*
D03*
X694414Y597582D02*
D03*
X1238414Y778938D02*
D03*
X209000Y283492D02*
D03*
X490178Y70786D02*
D03*
X377214Y240392D02*
D03*
X171914Y406492D02*
D03*
X437336Y133492D02*
D03*
X174414Y396414D02*
D03*
X1194414Y223992D02*
D03*
X275929Y341959D02*
D03*
X88414Y393492D02*
D03*
X658076Y163492D02*
D03*
X384414Y354758D02*
D03*
X419820Y496998D02*
D03*
X656548Y503602D02*
D03*
X1097414Y465424D02*
D03*
X949272Y473492D02*
D03*
X704414Y272716D02*
D03*
X1086824Y483282D02*
D03*
X697442Y345360D02*
D03*
X1137930Y293492D02*
D03*
X867904Y516048D02*
D03*
X1124414Y355774D02*
D03*
X1212554Y411612D02*
D03*
X1198584Y649144D02*
D03*
X814914Y193468D02*
D03*
X682202Y397430D02*
D03*
X511260Y293492D02*
D03*
X429414Y187118D02*
D03*
X453602Y370502D02*
D03*
X219668Y423846D02*
D03*
X431504Y233492D02*
D03*
X1004274Y253492D02*
D03*
X1251162Y389810D02*
D03*
X955914Y526870D02*
D03*
X809456Y250110D02*
D03*
X44408Y270938D02*
D03*
X1317456Y393492D02*
D03*
X1147784Y544496D02*
D03*
X486876Y433498D02*
D03*
X528104Y350590D02*
D03*
X424414Y180028D02*
D03*
X464414Y184883D02*
D03*
X506434Y459152D02*
D03*
X604478Y163492D02*
D03*
X1134414Y722804D02*
D03*
X1021914Y633142D02*
D03*
X1114414Y687752D02*
D03*
X500338Y207692D02*
D03*
X451824Y520620D02*
D03*
X603716Y617902D02*
D03*
X479002Y183492D02*
D03*
X237702Y323492D02*
D03*
X764414Y463724D02*
D03*
X568664Y421306D02*
D03*
X904414Y259254D02*
D03*
X373592Y496236D02*
D03*
X364702Y287142D02*
D03*
X427623Y301926D02*
D03*
X511260Y391588D02*
D03*
X351240Y471598D02*
D03*
X531914Y467534D02*
D03*
X235416Y376602D02*
D03*
X330414Y378634D02*
D03*
X307044Y287142D02*
D03*
Y373300D02*
D03*
X225510Y363140D02*
D03*
X579840Y511476D02*
D03*
X424414Y226292D02*
D03*
X448522Y360854D02*
D03*
X508895Y383206D02*
D03*
X1116288Y612060D02*
D03*
X1088970Y668702D02*
D03*
X656548Y503492D02*
D03*
X1212808Y438612D02*
D03*
X1176994Y513492D02*
D03*
X1205414Y363492D02*
D03*
X268944Y376492D02*
D03*
X474414Y125317D02*
D03*
X418864Y499792D02*
D03*
X410770Y453995D02*
D03*
X1101414Y98726D02*
D03*
X1290914Y98799D02*
D03*
X757914Y95932D02*
D03*
X1371304Y201088D02*
D03*
X874414Y246716D02*
D03*
X439383Y513492D02*
D03*
X915671Y571461D02*
D03*
X136414Y583492D02*
D03*
X1154414Y303443D02*
D03*
X364448Y436546D02*
D03*
X299668Y423338D02*
D03*
X874414Y246554D02*
D03*
X654414Y220268D02*
D03*
X703284Y739822D02*
D03*
X698714Y619492D02*
D03*
X704414Y263444D02*
D03*
X174414Y396492D02*
D03*
X434414Y758992D02*
D03*
X819445Y293492D02*
D03*
X949383Y470317D02*
D03*
X1189948Y320214D02*
D03*
X1101278D02*
D03*
X1097914Y312340D02*
D03*
X1044170Y338992D02*
D03*
X1257978Y295322D02*
D03*
X422914Y191492D02*
D03*
X152612Y583492D02*
D03*
X283422Y436510D02*
D03*
X338714Y206317D02*
D03*
X430914Y191492D02*
D03*
X340995Y406267D02*
D03*
X464914Y158492D02*
D03*
X108162Y398492D02*
D03*
X373684Y482012D02*
D03*
X380958Y209724D02*
D03*
X1357914Y200834D02*
D03*
X1258020Y100758D02*
D03*
X506960Y720010D02*
D03*
X640800Y686992D02*
D03*
X441664Y703500D02*
D03*
X282698Y716454D02*
D03*
X1390914Y560700D02*
D03*
X284414Y76882D02*
D03*
X1239732Y676992D02*
D03*
X973032Y719992D02*
D03*
X690838Y173910D02*
D03*
X754338D02*
D03*
X330414Y437992D02*
D03*
X205588Y325929D02*
D03*
X414414Y75866D02*
D03*
X938488Y33448D02*
D03*
X1121368Y25828D02*
D03*
X597914Y71548D02*
D03*
X561298Y363492D02*
D03*
X1205414Y343607D02*
D03*
X1225000Y366612D02*
D03*
X1275670Y261461D02*
D03*
X521420Y250110D02*
D03*
X904414Y160486D02*
D03*
X764414Y163992D02*
D03*
X173414Y418492D02*
D03*
X147414D02*
D03*
X1075648Y434877D02*
D03*
X1068909Y447612D02*
D03*
X1142414Y355857D02*
D03*
X1139869Y369744D02*
D03*
X1148800Y668987D02*
D03*
X1004414Y383992D02*
D03*
X254720Y430281D02*
D03*
X1148800Y434877D02*
D03*
X1059392Y539358D02*
D03*
X277414Y483492D02*
D03*
X307414Y223492D02*
D03*
X340414Y390992D02*
D03*
X961413Y183492D02*
D03*
X872448Y190579D02*
D03*
X1221952Y605037D02*
D03*
X969414Y746934D02*
D03*
X483914Y158492D02*
D03*
X664414Y138492D02*
D03*
X1124416Y645232D02*
D03*
X401024Y368236D02*
D03*
X345414Y383992D02*
D03*
X409152Y450209D02*
D03*
X376640Y425232D02*
D03*
X335414Y383992D02*
D03*
X320414Y390992D02*
D03*
D102*
X844000Y640000D02*
D03*
X721318Y360672D02*
D03*
X590173Y519523D02*
D03*
X591760Y517935D02*
D03*
X590000Y522525D02*
D03*
X305266Y347780D02*
D03*
X621888Y498014D02*
D03*
X590000Y640000D02*
D03*
X733677Y543059D02*
D03*
X590000Y386000D02*
D03*
X436076Y494966D02*
D03*
X415248Y469385D02*
D03*
X701252Y542972D02*
D03*
X690076Y444166D02*
D03*
X1024340Y532812D02*
D03*
X265134Y332914D02*
D03*
X316188Y480234D02*
D03*
X717000Y259000D02*
D03*
X1225000Y513000D02*
D03*
X181706Y405420D02*
D03*
X759222Y484806D02*
D03*
X1273768Y742616D02*
D03*
X1194012Y747823D02*
D03*
X1352000Y640000D02*
D03*
X1361398Y605964D02*
D03*
X1323806Y588184D02*
D03*
X1225000Y640000D02*
D03*
X1051264Y788082D02*
D03*
X1170644Y713914D02*
D03*
X998940Y715184D02*
D03*
X918930Y645588D02*
D03*
X1342475Y513000D02*
D03*
X1248114Y488108D02*
D03*
X1164802Y491664D02*
D03*
X1083776Y549068D02*
D03*
X1098000Y513000D02*
D03*
X1374352Y448484D02*
D03*
X1157436Y422068D02*
D03*
X1038564Y436292D02*
D03*
X970492Y548306D02*
D03*
X957919Y463470D02*
D03*
X951569Y463328D02*
D03*
X844000Y519350D02*
D03*
Y516175D02*
D03*
X834348Y563546D02*
D03*
X802090Y788590D02*
D03*
X773896Y627554D02*
D03*
X760688Y484806D02*
D03*
X734018Y679624D02*
D03*
X991320Y412924D02*
D03*
X1225000Y386000D02*
D03*
X1098000Y384476D02*
D03*
X971000Y386000D02*
D03*
X1251162Y360346D02*
D03*
X1225000Y340280D02*
D03*
X1212046Y289734D02*
D03*
X1352000Y255825D02*
D03*
X1321520Y144954D02*
D03*
X1158706Y238172D02*
D03*
X1174708Y74850D02*
D03*
X1134576Y299640D02*
D03*
X972778Y71548D02*
D03*
X863558Y173910D02*
D03*
X806662Y266366D02*
D03*
X812250Y265350D02*
D03*
X817584Y111426D02*
D03*
X809075Y265350D02*
D03*
X743670Y163750D02*
D03*
X717000Y132000D02*
D03*
X692108Y281352D02*
D03*
X627338Y571674D02*
D03*
X524468Y760904D02*
D03*
X579840Y539343D02*
D03*
X504148Y649144D02*
D03*
X466302Y549322D02*
D03*
X343874Y768778D02*
D03*
X385022Y749220D02*
D03*
X295614Y788082D02*
D03*
X313902Y691562D02*
D03*
X234146Y559990D02*
D03*
X336000Y513000D02*
D03*
X86826Y673528D02*
D03*
X586317Y490902D02*
D03*
X603462Y425370D02*
D03*
X227796Y467026D02*
D03*
X119846Y445436D02*
D03*
X663406Y227504D02*
D03*
X666200Y101520D02*
D03*
X622258Y224710D02*
D03*
X209000Y386000D02*
D03*
X585174Y305482D02*
D03*
X496782Y276526D02*
D03*
X590000Y132000D02*
D03*
X531072Y214550D02*
D03*
X463000Y259000D02*
D03*
X480780Y176704D02*
D03*
X477478Y74088D02*
D03*
X122894Y339518D02*
D03*
X197062Y336597D02*
D03*
X430742Y255952D02*
D03*
X365210Y279066D02*
D03*
X342096Y225599D02*
D03*
X338032Y75358D02*
D03*
X75142Y178482D02*
D03*
D103*
X1202392Y450220D02*
D03*
X1205414Y466597D02*
D03*
X1088414Y356627D02*
D03*
X87644Y383492D02*
D03*
Y413492D02*
D03*
X696894Y407492D02*
D03*
Y399492D02*
D03*
Y395492D02*
D03*
Y383492D02*
D03*
Y375492D02*
D03*
X599934Y415492D02*
D03*
X708894D02*
D03*
X696894Y371492D02*
D03*
X609414Y440972D02*
D03*
X696894Y443492D02*
D03*
X708894Y427492D02*
D03*
X659894Y343492D02*
D03*
X708894Y439492D02*
D03*
X632934Y471492D02*
D03*
X599934Y451492D02*
D03*
X708894D02*
D03*
X589414Y436972D02*
D03*
X700894Y464492D02*
D03*
X699414Y467972D02*
D03*
X667894Y331492D02*
D03*
X640934D02*
D03*
X589414Y448972D02*
D03*
X707414Y465972D02*
D03*
X679894Y483492D02*
D03*
X628934Y331492D02*
D03*
Y483492D02*
D03*
X691894D02*
D03*
X601414Y472972D02*
D03*
X707414D02*
D03*
X597414D02*
D03*
X711414Y471012D02*
D03*
X707414Y463012D02*
D03*
X858414Y399463D02*
D03*
X845460Y425040D02*
D03*
X805384Y467992D02*
D03*
X887444D02*
D03*
X813384Y337992D02*
D03*
X879444D02*
D03*
X813384Y474492D02*
D03*
X879444D02*
D03*
X805384Y337992D02*
D03*
X887444D02*
D03*
X802414Y471522D02*
D03*
X890414D02*
D03*
X476914Y390992D02*
D03*
X466914Y400992D02*
D03*
X486914Y420992D02*
D03*
X471914Y390992D02*
D03*
X466914Y395992D02*
D03*
X486914Y415992D02*
D03*
X466914Y390992D02*
D03*
X491914D02*
D03*
X466914Y420993D02*
D03*
X476914Y380992D02*
D03*
X481914D02*
D03*
X456914Y400992D02*
D03*
Y410992D02*
D03*
X501914Y405992D02*
D03*
X481914Y425992D02*
D03*
X471914Y380992D02*
D03*
X456914Y395992D02*
D03*
Y415992D02*
D03*
X501914Y400992D02*
D03*
X476914Y425992D02*
D03*
X496914Y390993D02*
D03*
X466914Y380992D02*
D03*
X456914Y390992D02*
D03*
X491914Y385992D02*
D03*
X456914Y420992D02*
D03*
X501914Y395992D02*
D03*
X471914Y430992D02*
D03*
X506914Y415992D02*
D03*
X476914Y375992D02*
D03*
X481914D02*
D03*
X476914Y430992D02*
D03*
X481914D02*
D03*
X451914Y400992D02*
D03*
Y410992D02*
D03*
X471914Y375992D02*
D03*
X476914Y435992D02*
D03*
X506914Y410992D02*
D03*
X461914Y380992D02*
D03*
X456914Y385992D02*
D03*
Y425992D02*
D03*
X501914Y390992D02*
D03*
X466914Y430992D02*
D03*
X506914Y420992D02*
D03*
X451914Y395992D02*
D03*
Y415992D02*
D03*
X466914Y375992D02*
D03*
X471914Y435992D02*
D03*
X511914Y415992D02*
D03*
X451914Y390992D02*
D03*
Y420992D02*
D03*
X456914Y380992D02*
D03*
Y430992D02*
D03*
X506914Y425992D02*
D03*
X461914Y375992D02*
D03*
X466914Y435992D02*
D03*
X511914Y420992D02*
D03*
X476914Y370992D02*
D03*
X481914D02*
D03*
X446914Y400992D02*
D03*
Y410992D02*
D03*
X511914D02*
D03*
X481914Y440992D02*
D03*
X481914Y435992D02*
D03*
X451914Y385992D02*
D03*
Y425992D02*
D03*
X471914Y370992D02*
D03*
X446914Y395992D02*
D03*
Y415992D02*
D03*
X516914Y410992D02*
D03*
X476914Y440992D02*
D03*
X466914Y370992D02*
D03*
X446914Y390992D02*
D03*
Y420992D02*
D03*
X516914Y415992D02*
D03*
X471914Y440992D02*
D03*
X456914Y375992D02*
D03*
X461914Y430992D02*
D03*
X511914Y425992D02*
D03*
X501914Y430992D02*
D03*
X451914Y380992D02*
D03*
Y430992D02*
D03*
X461914Y370992D02*
D03*
X446914Y385992D02*
D03*
Y425992D02*
D03*
X466914Y440992D02*
D03*
X516914Y420992D02*
D03*
X451914Y375992D02*
D03*
Y435992D02*
D03*
X456914Y370992D02*
D03*
X446914Y380992D02*
D03*
Y430992D02*
D03*
X461914Y435992D02*
D03*
X516914Y425992D02*
D03*
Y380992D02*
D03*
X446914Y435992D02*
D03*
X516914Y430992D02*
D03*
X506914Y440992D02*
D03*
X456914Y435992D02*
D03*
X446914Y440992D02*
D03*
X516914Y435992D02*
D03*
X234584Y383242D02*
D03*
D104*
X1206819Y429612D02*
D03*
X1106414Y485467D02*
D03*
X1196414Y376794D02*
D03*
X244414Y761642D02*
D03*
X1023832Y679815D02*
D03*
X1039314Y615992D02*
D03*
X974274Y620992D02*
D03*
X130564Y550492D02*
D03*
D105*
X430914Y191492D02*
D03*
X422914D02*
D03*
Y198492D02*
D03*
X430914D02*
D03*
D106*
X703414Y479492D02*
X703871D01*
X698625Y474703D02*
X703414Y479492D01*
X698332Y474703D02*
X698625D01*
X693252Y469623D02*
X698332Y474703D01*
X693252Y468661D02*
Y469623D01*
Y468661D02*
X696354Y465558D01*
X697481D01*
X632971Y466934D02*
X635816Y469778D01*
X617082Y466934D02*
X632971D01*
X614580Y464431D02*
X617082Y466934D01*
X609769Y464431D02*
X614580D01*
X500423Y467940D02*
X504020D01*
X494871Y473492D02*
X500423Y467940D01*
X494414Y473492D02*
X494871D01*
X664780Y508848D02*
X667209Y511277D01*
X664780Y501300D02*
Y508848D01*
Y501300D02*
X665247Y500833D01*
Y499419D02*
Y500833D01*
X664715Y498887D02*
X665247Y499419D01*
X663963Y498887D02*
X664715D01*
X660799Y502051D02*
X663963Y498887D01*
X660799Y502051D02*
Y506924D01*
X659982Y507742D02*
X660799Y506924D01*
X619414Y446406D02*
Y452807D01*
X604414Y431406D02*
X619414Y446406D01*
X604414Y430949D02*
Y431406D01*
X723282Y400918D02*
X726132Y403768D01*
X716415Y401212D02*
X716709Y400918D01*
X715444Y401212D02*
X716415D01*
X715330Y401326D02*
X715444Y401212D01*
X716709Y400918D02*
X723282D01*
X630328Y370248D02*
X631297Y371217D01*
X620951Y370248D02*
X630328D01*
X664073Y363354D02*
X665383D01*
X661666Y365761D02*
X664073Y363354D01*
X660357Y365761D02*
X661666D01*
X656441Y361845D02*
X660357Y365761D01*
X655358Y361845D02*
X656441D01*
X459030Y453200D02*
X466070Y460240D01*
X652527Y488309D02*
X655978D01*
X657710Y490041D01*
X651927Y488885D02*
X652364Y489321D01*
X651927Y486316D02*
Y488885D01*
Y486316D02*
X653596Y484647D01*
X661037Y478855D02*
X664522Y475370D01*
X656790Y452400D02*
X662804Y446385D01*
X655274Y445100D02*
Y451636D01*
X666264Y476044D02*
X669098Y473211D01*
X670417D01*
X671793Y474587D01*
X672539D01*
X673066Y474060D01*
Y473314D02*
Y474060D01*
X668442Y468690D02*
X673066Y473314D01*
X667726Y468690D02*
X668442D01*
X666264Y467228D02*
X667726Y468690D01*
X664064Y468056D02*
Y469387D01*
X664522Y469845D02*
Y475370D01*
X664064Y469387D02*
X664522Y469845D01*
X466070Y460240D02*
X476410D01*
X456916Y451086D02*
X459030Y453200D01*
X496540Y421520D02*
X499510D01*
X495110Y422950D02*
X496540Y421520D01*
X486510Y422950D02*
X495110D01*
X473652Y410092D02*
X486510Y422950D01*
X465271Y410092D02*
X473652D01*
X464414Y410949D02*
X465271Y410092D01*
X651623Y466617D02*
X652859Y465381D01*
X650414Y466617D02*
X651623D01*
X881728Y447407D02*
X881800Y447480D01*
X869961Y447407D02*
X881728D01*
X711464Y339982D02*
X715642Y344160D01*
X707104Y339982D02*
X711464D01*
X704567Y337445D02*
X707104Y339982D01*
X704567Y336745D02*
Y337445D01*
Y336745D02*
X705062Y336250D01*
X708750D01*
X709500Y335500D01*
X719183Y341965D02*
X721089Y343871D01*
Y348242D01*
X798063Y430318D02*
X804414Y436669D01*
Y443492D01*
X803902Y425518D02*
Y425518D01*
X802275Y427144D02*
X803902Y425518D01*
X804777Y436184D02*
X806823D01*
X797249Y428656D02*
X804777Y436184D01*
X772545Y428656D02*
X797249D01*
X806823Y436184D02*
X809427Y433579D01*
X759527Y418417D02*
X768460Y427350D01*
X739298Y418417D02*
X759527D01*
X726806Y409393D02*
X729151D01*
X725512Y408098D02*
X726806Y409393D01*
X725512Y404923D02*
Y408098D01*
X722707Y402118D02*
X725512Y404923D01*
X718886Y402118D02*
X722707D01*
X718777Y402226D02*
X718886Y402118D01*
X714957Y402226D02*
X718777D01*
X713972Y401242D02*
X714957Y402226D01*
X711414Y401242D02*
X713972D01*
X723456Y396935D02*
X724872D01*
X728443Y396198D02*
X729859Y397614D01*
Y399003D01*
X730094Y399238D01*
X730425D01*
X730690Y398973D01*
X735399D01*
X750866Y414441D01*
X758330D01*
X772545Y428656D01*
X809427Y433579D02*
X812928D01*
X819139Y439790D01*
X822640D01*
X823090Y440240D01*
X773448Y411768D02*
X782540Y420860D01*
X758355Y411768D02*
X773448D01*
X729902Y384164D02*
X758106Y412368D01*
X758955D01*
X774642Y428056D01*
X727778Y384164D02*
X729902D01*
X774642Y428056D02*
X788003D01*
X647614Y470972D02*
X650808D01*
X650871Y471035D01*
X867392Y421638D02*
X870362Y424608D01*
X866291Y421638D02*
X867392D01*
X844494Y406560D02*
X847328Y409394D01*
X826870Y406560D02*
X844494D01*
X750080Y378180D02*
X754414Y382514D01*
X736670Y378180D02*
X750080D01*
X735102Y376612D02*
X736670Y378180D01*
X731935Y376612D02*
X735102D01*
X722899Y372400D02*
X727328Y376828D01*
X719714Y372400D02*
X722899D01*
X717024Y369710D02*
X719714Y372400D01*
X852220Y353480D02*
X890173D01*
X846626Y346825D02*
Y348010D01*
Y346825D02*
X848238Y345213D01*
X847591Y348976D02*
X847716D01*
X846626Y348010D02*
X847591Y348976D01*
X847716D02*
X852220Y353480D01*
X668819Y426908D02*
X669646D01*
X683644Y503228D02*
Y570523D01*
X677922Y497506D02*
X683644Y503228D01*
X679374Y574793D02*
Y721747D01*
Y574793D02*
X683644Y570523D01*
X662790Y334068D02*
X662932Y333926D01*
X658934Y334068D02*
X662790D01*
X679374Y721747D02*
X680203Y722576D01*
X681376D01*
X682206Y721747D01*
Y575966D02*
Y721747D01*
Y575966D02*
X688740Y569432D01*
Y516886D02*
Y569432D01*
Y516886D02*
X694433Y511193D01*
X694765D01*
X702340Y518768D01*
Y618410D01*
X751850Y667920D01*
Y693404D01*
X808779Y750333D01*
X869116D01*
X898353Y779570D01*
X907280D01*
X645934Y498014D02*
Y533075D01*
X641520Y537489D02*
X645934Y533075D01*
X641520Y537489D02*
Y572550D01*
X696520Y699930D02*
Y712933D01*
X729414Y745827D01*
Y758992D01*
X699224Y697180D02*
Y706814D01*
X746020Y753610D01*
X655274Y451636D02*
X656038Y452400D01*
X656790D01*
X713776Y374424D02*
X717333D01*
X712506Y373154D02*
X713776Y374424D01*
X727328Y383714D02*
X727778Y384164D01*
X670764Y481908D02*
X675949Y487093D01*
X670764Y477076D02*
Y481908D01*
X675949Y487093D02*
X677991D01*
X813872Y393588D02*
X817882Y397598D01*
X807392Y393588D02*
X813872D01*
X711326Y373154D02*
X712506D01*
X788003Y428056D02*
X788915Y427144D01*
X802275D01*
X881637Y440980D02*
X881800D01*
X880979Y440321D02*
X881637Y440980D01*
X868443Y440321D02*
X880979D01*
X863915Y444850D02*
X868443Y440321D01*
X855464Y444850D02*
X863915D01*
X852096Y441481D02*
X855464Y444850D01*
X852096Y439360D02*
Y441481D01*
X848727Y435992D02*
X852096Y439360D01*
X809355Y425806D02*
X811299D01*
X811383Y425890D01*
X811756D02*
X811875Y425771D01*
X825649D01*
X811383Y425890D02*
X811756D01*
X825649Y425771D02*
X830174Y430295D01*
Y439715D01*
X837121Y446662D01*
X846148D01*
X847866Y448380D01*
X868989D01*
X869961Y447407D01*
X625424Y483492D02*
X627264D01*
X621280Y487636D02*
X625424Y483492D01*
X619067Y485423D02*
X621280Y487636D01*
Y489720D01*
X890173Y353480D02*
X897128Y360435D01*
Y386428D01*
X896676Y386880D02*
X897128Y386428D01*
X889800Y386880D02*
X896676D01*
X963710Y324830D02*
X963820Y324720D01*
Y324720D02*
Y324720D01*
X893366Y340340D02*
X902522D01*
X890214Y343492D02*
X893366Y340340D01*
X890014Y343492D02*
X890214D01*
X680414Y366242D02*
Y379242D01*
X684414Y383242D01*
X662804Y432922D02*
X668819Y426908D01*
X662804Y432922D02*
Y446385D01*
X654291Y444117D02*
X655274Y445100D01*
X650414Y444117D02*
X654291D01*
X684968Y419024D02*
X685072Y419127D01*
X686716D01*
X653665Y328800D02*
X658934Y334068D01*
X649714Y328800D02*
X653665D01*
X649182Y329332D02*
X649714Y328800D01*
X649182Y329332D02*
Y330172D01*
X651314Y332304D01*
Y333145D01*
X650787Y333672D02*
X651314Y333145D01*
X648822Y333672D02*
X650787D01*
X648312Y333162D02*
X648822Y333672D01*
X640242Y333162D02*
X648312D01*
X639264Y332184D02*
X640242Y333162D01*
X639264Y332162D02*
Y332184D01*
X637654Y330552D02*
X639264Y332162D01*
X632236Y330552D02*
X637654D01*
X629296Y333492D02*
X632236Y330552D01*
X618164Y333492D02*
X629296D01*
X588975Y520327D02*
X589586Y520939D01*
X590760D02*
X590933Y520766D01*
X600054D01*
X589586Y520939D02*
X590760D01*
X583650Y520327D02*
X588975D01*
X686716Y419127D02*
X687223Y418621D01*
X688580D01*
X690351Y420392D01*
X697943D01*
X701043Y423492D01*
X701500D01*
X858930Y475606D02*
X860957Y473578D01*
X724305Y381396D02*
Y388282D01*
X717333Y374424D02*
X724305Y381396D01*
X699414Y361242D02*
X711326Y373154D01*
X677064Y480910D02*
X677064Y480910D01*
X677064Y477076D02*
Y480910D01*
X600054Y520766D02*
X604414Y516406D01*
X567386Y371800D02*
X568475D01*
X569360Y370915D01*
X807089Y671591D02*
X813272Y677774D01*
X822528D01*
X877299Y732545D01*
X880055D01*
X350653Y473014D02*
X371483D01*
X338648Y461008D02*
X350653Y473014D01*
X371483D02*
X388216Y456280D01*
X314414Y422830D02*
X316842Y425258D01*
Y431544D01*
X306397Y441990D02*
X316842Y431544D01*
X291600Y441990D02*
X306397D01*
X289796Y443794D02*
X291600Y441990D01*
X289796Y443794D02*
Y444126D01*
X298110Y452440D01*
X331935D01*
X338648Y459153D01*
Y461008D01*
X388216Y456280D02*
X409045D01*
X807089Y618620D02*
Y671591D01*
X880055Y732545D02*
X890670Y743160D01*
X684414Y383242D02*
Y386492D01*
X334414Y326576D02*
Y343492D01*
Y326576D02*
X354640Y306350D01*
X505672Y302815D02*
Y302919D01*
X507088Y304335D01*
Y304468D01*
X508090Y305470D01*
X670764Y477076D02*
X670998Y476842D01*
X676830D01*
X677064Y477076D01*
X824414Y463492D02*
X824871D01*
X826985Y465606D01*
Y467937D01*
X835872Y476824D01*
X856732D01*
X857950Y475606D01*
X858930D01*
X860957Y473492D02*
Y473578D01*
D108*
X621380Y444595D02*
Y445262D01*
X627233Y463492D02*
X634414D01*
X622815Y460022D02*
X626284Y463492D01*
X622004D02*
X626284D01*
X627233D01*
X618168Y459656D02*
X622004Y463492D01*
X512335Y475408D02*
X514496D01*
X655424Y551830D02*
X668625Y538629D01*
X668372Y502065D02*
Y510437D01*
X668387Y498119D02*
Y502050D01*
X668372Y510437D02*
X668625Y510690D01*
Y538629D01*
X668372Y502065D02*
X668387Y502050D01*
X668372Y483992D02*
Y498103D01*
X668387Y498119D01*
X654226Y496199D02*
X654591Y496563D01*
X657674Y494771D02*
X658039Y495135D01*
X656548Y499482D02*
Y503492D01*
Y499482D02*
X658039Y497992D01*
X657674Y492008D02*
Y494771D01*
X658039Y495135D02*
Y497992D01*
X651899Y493492D02*
X654226Y495819D01*
X641500Y493492D02*
X651899D01*
X654226Y495819D02*
Y496199D01*
X844414Y459660D02*
X854414Y469660D01*
X817076Y433492D02*
X819900D01*
X799550Y351710D02*
X804414Y356574D01*
X712859Y394868D02*
Y398856D01*
Y394868D02*
X713843Y393884D01*
X712859Y398856D02*
X713359Y399356D01*
X715414Y391492D02*
Y391992D01*
X713843Y393563D02*
Y393884D01*
Y393563D02*
X715414Y391992D01*
X694394Y434026D02*
Y446178D01*
X674306Y392350D02*
X689160D01*
X661664Y360856D02*
X664887D01*
X584414Y372538D02*
X590000Y378124D01*
X620214Y368982D02*
X620364Y368832D01*
X631064Y368982D02*
X641101D01*
X619210D02*
X620214D01*
X630914Y368832D02*
X631064Y368982D01*
X620364Y368832D02*
X630914D01*
X606634Y356406D02*
X619210Y368982D01*
X641101D02*
X642379Y367704D01*
X658951Y360856D02*
X661664D01*
X664871Y373492D02*
X666168Y372194D01*
X664414Y373492D02*
X664871D01*
X664887Y360856D02*
X666574Y362542D01*
Y362588D02*
X666799Y362813D01*
X666574Y362542D02*
Y362588D01*
X666168Y367819D02*
X666799Y367189D01*
Y362813D02*
Y367189D01*
X669106Y366361D02*
X674469Y371724D01*
X666168Y367819D02*
Y372194D01*
X662706Y355107D02*
X669106Y361507D01*
Y366361D01*
X614414Y373492D02*
Y389331D01*
X439124Y300902D02*
Y343582D01*
X494414Y325041D02*
X498560Y320895D01*
Y319850D02*
Y320895D01*
X653732Y489955D02*
X655621D01*
X652950Y490737D02*
X653732Y489955D01*
X655621D02*
X657674Y492008D01*
X690931Y495138D02*
X691904Y496111D01*
X693895D01*
X690931Y493762D02*
X691041Y493652D01*
Y491676D02*
Y493652D01*
X690931Y493762D02*
Y495138D01*
X644943Y485705D02*
X649975Y490737D01*
X652950D01*
X552159Y477840D02*
X565510D01*
X550237Y475918D02*
X552159Y477840D01*
X546475Y475918D02*
X550237D01*
X629964Y481006D02*
X634663Y485705D01*
X567742Y482301D02*
X568932Y483492D01*
X574414D01*
X564414Y463492D02*
Y473587D01*
X567742Y476916D01*
Y482301D01*
X675051Y429795D02*
X676414Y431158D01*
X672298Y444858D02*
X674664Y442492D01*
X672298Y444858D02*
Y445742D01*
X665260Y432469D02*
X668311Y429418D01*
X669138Y451242D02*
Y462857D01*
X669698Y432015D02*
Y448646D01*
X669138Y462857D02*
X682380Y476099D01*
X665260Y447364D02*
X669138Y451242D01*
X665260Y432469D02*
Y447364D01*
X669698Y448646D02*
X672493Y451441D01*
Y453116D01*
X668311Y429418D02*
X669138D01*
X671062Y427494D01*
X682380Y476099D02*
Y482589D01*
X825229Y361616D02*
X827409D01*
X715414Y351492D02*
X731478D01*
X860066Y345035D02*
X861488D01*
X859741Y345360D02*
X860066Y345035D01*
X861812Y345360D02*
X863278D01*
X850106D02*
X859741D01*
X861488Y345035D02*
X861812Y345360D01*
X855229Y366589D02*
X867328Y378688D01*
X806120Y434684D02*
X809358Y431446D01*
X806036Y434684D02*
X806120D01*
X728443Y411461D02*
Y413492D01*
Y411461D02*
X729096Y410808D01*
X728443Y403028D02*
X730567Y405152D01*
X728443Y398200D02*
Y403028D01*
X730567Y405152D02*
Y409979D01*
X729738Y410808D02*
X730567Y409979D01*
X729096Y410808D02*
X729738D01*
X727027Y396784D02*
X728443Y398200D01*
X727027Y394870D02*
Y396784D01*
Y394870D02*
X727328Y394569D01*
Y392655D02*
Y394569D01*
X725912Y391239D02*
X727328Y392655D01*
X823676Y441656D02*
X824506Y440826D01*
Y439846D02*
X826633Y437719D01*
X822696Y441656D02*
X823676D01*
X813774Y450578D02*
X822696Y441656D01*
X824506Y439846D02*
Y440826D01*
X804414Y450578D02*
X813774D01*
X859236Y455246D02*
X863903Y450578D01*
X874414D01*
X854414Y456436D02*
Y469660D01*
Y456436D02*
X855604Y455246D01*
X847696Y405959D02*
X848744Y407007D01*
X855604Y455246D02*
X859236D01*
X917448Y740542D02*
X920200Y737790D01*
X781418Y385951D02*
X781467Y386000D01*
X844540Y413492D02*
X847446D01*
X848744Y407007D02*
Y412194D01*
X847446Y413492D02*
X848744Y412194D01*
X781467Y386000D02*
X784179D01*
X755439Y383492D02*
Y385381D01*
X754414Y386406D02*
X755439Y385381D01*
X754414Y380512D02*
X755830Y381927D01*
X755439Y383492D02*
X755830Y383101D01*
X755439Y383492D02*
X786687D01*
X755830Y381927D02*
Y383101D01*
X754414Y379546D02*
Y380512D01*
X728744Y374305D02*
Y377594D01*
X727328Y379010D02*
X728744Y377594D01*
X727328Y379010D02*
Y382298D01*
Y372889D02*
X728744Y374305D01*
X727328Y363492D02*
Y372889D01*
X717595Y363994D02*
X722946D01*
X722006Y360672D02*
X723448Y362114D01*
Y363492D01*
X721318Y360672D02*
X722006D01*
X715229Y366360D02*
X717595Y363994D01*
X722946D02*
X723448Y363492D01*
X727328D01*
X848042Y347424D02*
X850106Y345360D01*
X844414Y328850D02*
Y355774D01*
X863278Y345360D02*
X865145Y343492D01*
X793121Y345360D02*
X794500D01*
X792315Y346166D02*
X793121Y345360D01*
X754414Y361465D02*
Y379546D01*
Y361465D02*
X756075Y359804D01*
Y341722D02*
Y359804D01*
X754414Y340061D02*
X756075Y341722D01*
X754414Y333492D02*
Y340061D01*
X668698Y349601D02*
Y357872D01*
X668227Y349130D02*
X668698Y349601D01*
X664348Y344431D02*
X668227Y348310D01*
Y349130D01*
X677992Y423613D02*
Y428346D01*
X675526Y425492D02*
Y429343D01*
X675063Y429807D02*
X675526Y429343D01*
X661871Y322872D02*
X664348Y325349D01*
Y344431D01*
X687324Y491115D02*
Y568845D01*
X682380Y482589D02*
X687207Y487417D01*
Y490999D02*
X687324Y491115D01*
X687207Y487417D02*
Y490999D01*
X622233Y451786D02*
X629466D01*
X621384Y450938D02*
X622233Y451786D01*
X606258Y459656D02*
X606488Y459886D01*
X601446Y459656D02*
X606258D01*
X607766D02*
X618168D01*
X606488Y459886D02*
X607537D01*
X607766Y459656D01*
X496760Y483340D02*
X497310Y483890D01*
Y505120D01*
X538505Y546315D01*
Y720510D01*
X579700Y761705D01*
Y771760D01*
X532921Y450079D02*
X533130D01*
X533866Y450815D01*
X526334Y443492D02*
X532921Y450079D01*
X705570Y382604D02*
X714180D01*
X715414Y383839D01*
Y383992D01*
X711920Y374570D02*
X713190Y375840D01*
X716746D01*
X720556Y379650D02*
Y391238D01*
X715414Y391492D02*
X720302D01*
X720556Y391238D01*
X727328Y382298D02*
X731900D01*
X725912Y383128D02*
Y391239D01*
X726741Y382298D02*
X727328D01*
X725912Y383128D02*
X726741Y382298D01*
X765991Y433526D02*
X799745Y467280D01*
X760628Y437308D02*
X764410Y433526D01*
X742320Y437308D02*
X760628D01*
X764410Y433526D02*
X765991D01*
X622815Y459962D02*
Y460022D01*
X622315Y496360D02*
Y498014D01*
Y500330D01*
X715229Y366360D02*
Y369744D01*
X736008Y386406D02*
X754414D01*
X731900Y382298D02*
X736008Y386406D01*
X775229Y426640D02*
X776773D01*
X807939Y426393D02*
X808768Y427222D01*
X804414Y416009D02*
Y420830D01*
X807939Y424355D02*
Y426393D01*
X804414Y420830D02*
X807939Y424355D01*
X810806Y427222D02*
X814296Y430712D01*
X808768Y427222D02*
X810806D01*
X804414Y407107D02*
Y414511D01*
X807424Y417521D01*
X657579Y374476D02*
Y374692D01*
X658751Y373304D02*
X664226D01*
X656320Y375952D02*
X657579Y374692D01*
Y374476D02*
X658751Y373304D01*
X653243Y377872D02*
X655742Y375373D01*
X610372Y418258D02*
X610574D01*
X614414Y483492D02*
X623421D01*
X634663Y485705D02*
X644943D01*
X625907Y481006D02*
X629964D01*
X623421Y483492D02*
X625907Y481006D01*
X614414Y493492D02*
X625183D01*
X689439Y490074D02*
X691041Y491676D01*
X688318Y482010D02*
Y484973D01*
Y482010D02*
X689408Y480920D01*
Y486063D02*
Y486461D01*
X689439Y486492D02*
Y490074D01*
X693895Y496111D02*
X707602Y509818D01*
X689408Y486461D02*
X689439Y486492D01*
X683472Y486838D02*
X684975Y488341D01*
Y488616D01*
X689408Y479325D02*
Y480920D01*
X688318Y484973D02*
X689408Y486063D01*
X707602Y509818D02*
Y565070D01*
X678900Y468817D02*
X689408Y479325D01*
X672794Y418057D02*
Y420008D01*
X673294Y420508D01*
X669646Y414909D02*
X672794Y418057D01*
X701070Y453492D02*
X701190D01*
X701070D02*
X710070Y444492D01*
X683038Y426640D02*
X683859D01*
X694414Y453492D02*
X701070D01*
X673294Y420508D02*
Y428419D01*
X671062Y425816D02*
Y427494D01*
X676712Y422333D02*
X677992Y423613D01*
X669698Y432015D02*
X673294Y428419D01*
X665698Y420453D02*
X671062Y425816D01*
X683859Y426640D02*
X687007Y423492D01*
X669646Y405047D02*
Y414909D01*
X676414Y414702D02*
Y416492D01*
X681948Y414702D02*
X682202Y414448D01*
X676414Y414702D02*
X681948D01*
X682202Y397430D02*
Y414448D01*
X654414Y379242D02*
X656320Y377336D01*
X653153Y377872D02*
X653243D01*
X650257Y349813D02*
Y352162D01*
X658951Y360856D01*
X647328Y346884D02*
X650257Y349813D01*
X654414Y389142D02*
X664364Y379192D01*
X664414Y379142D01*
X664562Y378993D01*
X670179Y388223D02*
X674306Y392350D01*
X676414Y431158D02*
Y432742D01*
Y421578D02*
X676712Y421876D01*
Y422333D01*
X665698Y410099D02*
Y420453D01*
X664562Y378993D02*
X664863D01*
X664414Y379242D02*
Y384096D01*
X668698Y357872D02*
X672650Y361824D01*
Y364540D01*
X661871Y303492D02*
Y322872D01*
X639540Y336182D02*
Y338470D01*
X637769Y334411D02*
X639540Y336182D01*
X846954Y358314D02*
X855229Y366589D01*
X844414Y355774D02*
X846954Y358314D01*
X837582D02*
X846954D01*
X855229Y366589D02*
Y369744D01*
X584414Y370696D02*
X587968Y374250D01*
Y375591D01*
X590173Y518051D02*
Y519523D01*
X590000Y516202D02*
Y517878D01*
X591703D01*
X591760Y517935D01*
X590000Y517878D02*
X590173Y518051D01*
X412826Y346729D02*
X415979D01*
X335414Y359766D02*
Y373492D01*
X305266Y347780D02*
X308064Y350578D01*
X415979Y346729D02*
X417280Y348030D01*
X466048Y343715D02*
Y344090D01*
X484688Y363492D02*
X487328D01*
X308064Y350578D02*
X334414D01*
X335414Y359766D02*
X336000Y360352D01*
X484688Y363492D02*
X491956Y370760D01*
X482700Y363492D02*
X484688D01*
X416848Y348462D02*
X424414Y356028D01*
X334414Y358766D02*
X335414Y359766D01*
X465838Y343505D02*
Y346630D01*
Y343505D02*
X466048Y343715D01*
X465838Y346630D02*
X482700Y363492D01*
X465838Y335600D02*
Y343505D01*
X701178Y419274D02*
X715373D01*
X696426Y414522D02*
X701178Y419274D01*
X668541Y388223D02*
X670179D01*
X664414Y384096D02*
X668541Y388223D01*
X656320Y375952D02*
Y377336D01*
X664226Y373304D02*
X664414Y373492D01*
X678455Y320589D02*
X679460Y321594D01*
X680631D01*
X678455Y319167D02*
X679412Y318211D01*
X680631Y321594D02*
X680774Y321738D01*
X679412Y314241D02*
Y318211D01*
X680774Y321738D02*
X683116D01*
X678455Y319167D02*
Y320589D01*
X1025414Y358272D02*
Y360242D01*
Y357425D02*
Y358272D01*
Y360242D02*
Y363492D01*
X628942Y440610D02*
X631159Y442828D01*
Y450093D01*
X716746Y375840D02*
X720556Y379650D01*
X702628Y374570D02*
X711920D01*
X500063Y375226D02*
Y376914D01*
X559615Y361809D02*
X561298Y363492D01*
X556273Y361809D02*
X559615D01*
X500084Y369617D02*
Y375205D01*
X500063Y375226D02*
X500084Y375205D01*
X531914Y363492D02*
X554590D01*
X500063Y376914D02*
X501274Y378126D01*
X554590Y363492D02*
X556273Y361809D01*
X501274Y378126D02*
X504148D01*
X1114764Y390064D02*
X1144160D01*
X1133585Y388735D02*
Y391620D01*
X1114811Y386992D02*
X1119439Y391620D01*
X1108414Y386992D02*
X1114811D01*
X850730Y400732D02*
X857334Y394128D01*
X826777Y395729D02*
X828364Y397316D01*
X689160Y392350D02*
X689414Y392096D01*
X634414Y416492D02*
Y423492D01*
X597328Y463492D02*
X597785D01*
X590241D02*
X597328D01*
X473599Y446360D02*
Y451024D01*
X461500Y443492D02*
X470731D01*
X468619D02*
X487328Y462200D01*
X618575Y393492D02*
X620965D01*
X618096Y393013D02*
X618575Y393492D01*
X615414Y393013D02*
X618096D01*
X610661D02*
X615414D01*
X614414Y389331D02*
X618096Y393013D01*
X214668Y379650D02*
X215858D01*
X214414Y378309D02*
X217282Y381177D01*
X334414Y350578D02*
Y358766D01*
X494414Y331390D02*
X497290D01*
X202650Y303492D02*
X216047D01*
X598973Y393492D02*
X603029Y397548D01*
X603928D01*
X598973Y386000D02*
Y393492D01*
X635628Y342385D02*
X638466Y339547D01*
X635625Y342385D02*
X635628D01*
X638466Y339544D02*
X639540Y338470D01*
X638466Y339544D02*
Y339547D01*
X633318Y344692D02*
X635625Y342385D01*
X647328Y343492D02*
Y346884D01*
X639281Y343492D02*
X647328D01*
X633318Y344692D02*
Y346572D01*
X634579Y347834D01*
X635099D01*
X635550Y345648D02*
X637092D01*
X716782Y686992D02*
X720415Y690625D01*
Y713599D01*
X521914Y443492D02*
X526334D01*
X597873Y333492D02*
X610664D01*
X597787Y333406D02*
X597873Y333492D01*
X580589Y323492D02*
X586201Y329104D01*
X586513D01*
X579840Y356152D02*
X580094Y356406D01*
X584414D01*
X579840Y344344D02*
Y356152D01*
X582315Y410384D02*
X583797Y411866D01*
X582315Y406360D02*
Y410384D01*
X590000Y378124D02*
Y386000D01*
X594414Y390414D01*
X584414Y370696D02*
Y372538D01*
X436076Y473746D02*
Y494966D01*
X470731Y443492D02*
X473599Y446360D01*
X487328Y462200D02*
Y473492D01*
X655424Y551830D02*
Y553890D01*
X658570Y557036D01*
X747303Y333492D02*
X754414D01*
X743563Y337232D02*
X747303Y333492D01*
X672296Y314372D02*
Y358314D01*
X575014Y526462D02*
X614414D01*
X574414Y483492D02*
Y489759D01*
X579840Y495185D01*
X585229Y467280D02*
X586453D01*
X557234Y508682D02*
X575014Y526462D01*
X617282Y502677D02*
X620480D01*
X586453Y467280D02*
X590241Y463492D01*
X315229Y446360D02*
X318097Y443492D01*
X305835Y445510D02*
X330768Y420578D01*
X318097Y443492D02*
X327328D01*
X330768Y420578D02*
X330809Y420619D01*
X315229Y446360D02*
Y451024D01*
X802921Y454560D02*
Y456059D01*
Y454560D02*
X803116Y454365D01*
Y451876D02*
X804414Y450578D01*
X802921Y456059D02*
X804414Y457553D01*
Y459025D01*
X803116Y451876D02*
Y454365D01*
X838420Y413492D02*
X844540D01*
X835472Y410544D02*
X838420Y413492D01*
X835472Y410141D02*
Y410544D01*
X688192Y371522D02*
X694648Y377978D01*
X699220D01*
X679975Y363377D02*
X682130Y365531D01*
X679975Y361088D02*
Y363377D01*
X677456Y358568D02*
X679975Y361088D01*
X672550Y358568D02*
X677456D01*
X677804Y355266D02*
X680504D01*
X683911Y364156D02*
X692362D01*
X682207Y356970D02*
Y362452D01*
X682130Y365531D02*
Y370332D01*
X682207Y362452D02*
X683911Y364156D01*
X682130Y370332D02*
X683320Y371522D01*
X688192D01*
X680504Y355266D02*
X682207Y356970D01*
X504256Y254282D02*
Y303505D01*
X505672Y304921D01*
X485225Y235251D02*
X504256Y254282D01*
X505672Y304921D02*
Y310816D01*
X676152Y353614D02*
X677804Y355266D01*
X676152Y318314D02*
X676614Y317852D01*
Y271700D02*
Y317852D01*
X683116Y321738D02*
X684414Y323035D01*
X676152Y318314D02*
Y353614D01*
X624414Y448121D02*
Y448578D01*
X622771Y446479D02*
X624414Y448121D01*
X622597Y446479D02*
X622771D01*
X621380Y445262D02*
X622597Y446479D01*
X613368Y434768D02*
X621380Y442780D01*
Y444595D01*
X600427Y460675D02*
Y460849D01*
X597785Y463492D02*
X600427Y460849D01*
Y460675D02*
X601446Y459656D01*
X590000Y516175D02*
X590013Y516188D01*
X675648Y482762D02*
X678864Y485978D01*
X679818D01*
X675648Y480726D02*
Y482762D01*
X679818Y485978D02*
X680678Y486838D01*
X674414Y479492D02*
X675648Y480726D01*
X680678Y486838D02*
X683472D01*
X673914Y479492D02*
X674414D01*
X740796Y433896D02*
X740850Y433950D01*
Y435838D01*
X742320Y437308D01*
X804286Y414511D02*
Y416009D01*
X799745Y467280D02*
X802389D01*
X769405Y474994D02*
X814536Y520124D01*
X723348Y429863D02*
X768478Y474994D01*
X715373Y419274D02*
X723348Y427249D01*
X814536Y520124D02*
Y559228D01*
X723348Y427249D02*
Y429863D01*
X768478Y474994D02*
X769405D01*
X739441Y431041D02*
Y431140D01*
X732619Y434258D02*
X736323D01*
X739441Y431140D01*
X844414Y457734D02*
X848064Y461384D01*
X844414Y450578D02*
Y457734D01*
Y459660D01*
X692627Y329104D02*
X698239Y323492D01*
X692315Y329104D02*
X692627D01*
X733260Y445037D02*
Y455180D01*
X727268Y439045D02*
X733260Y445037D01*
X727256Y439045D02*
X727268D01*
X725914Y437703D02*
X727256Y439045D01*
X732424Y434064D02*
X732619Y434258D01*
X678900Y462714D02*
Y468817D01*
X754414Y379546D02*
X758656Y375304D01*
Y374307D02*
Y375304D01*
X856117Y329020D02*
X856429D01*
X850589Y323492D02*
X856117Y329020D01*
X742315Y337232D02*
X743563D01*
X794500Y345360D02*
X796367Y343492D01*
X804414D01*
X724414Y444492D02*
X727664D01*
X690076Y444166D02*
Y445670D01*
X694414Y450008D01*
X674664Y434492D02*
Y439204D01*
Y442492D01*
Y434492D02*
X676414Y432742D01*
X692362Y364156D02*
X695918Y360600D01*
X680790Y575379D02*
X687324Y568845D01*
X624414Y440864D02*
Y443492D01*
X624668Y440610D02*
X628942D01*
X629466Y451786D02*
X631159Y450093D01*
X624414Y440864D02*
X624668Y440610D01*
X564414Y463492D02*
X590241D01*
X792315Y366360D02*
Y369744D01*
X787358Y351710D02*
X799550D01*
X787104Y351964D02*
X787358Y351710D01*
X787104Y351964D02*
Y370308D01*
X794414Y377618D01*
Y383492D01*
X627328Y404761D02*
X627809Y405242D01*
X796830Y414962D02*
X799333Y417465D01*
X802830D01*
X804286Y416009D01*
X794770Y414962D02*
X796830D01*
X792486Y412678D02*
X794770Y414962D01*
X787328Y411400D02*
X788518Y410210D01*
X790202D01*
X792486Y412494D01*
Y412678D01*
X844414Y394382D02*
Y394796D01*
Y393492D02*
Y394382D01*
X604385Y397548D02*
X605563Y396370D01*
X607304D01*
X597620Y399716D02*
X601760D01*
X607304Y396370D02*
X610661Y393013D01*
X601760Y399716D02*
X603928Y397548D01*
X604385D01*
X620965Y393492D02*
X627328D01*
X658570Y557036D02*
Y726220D01*
X680790Y575379D02*
Y721160D01*
X217282Y381177D02*
X222208D01*
X490432Y411576D02*
Y412252D01*
X485548Y406692D02*
X490432Y411576D01*
X420892Y420578D02*
X433436D01*
X415183Y363492D02*
X415375D01*
X436330Y473492D02*
X441280D01*
X433598Y420740D02*
X437920D01*
X433436Y420578D02*
X433598Y420740D01*
X433645Y473492D02*
X436330D01*
X415375Y363492D02*
X424414D01*
X437920Y420740D02*
X441280Y424100D01*
X281390Y357996D02*
Y391215D01*
X308060Y414341D02*
Y427275D01*
X303928Y410208D02*
X308060Y414341D01*
X300383Y410208D02*
X303928D01*
X281390Y391215D02*
X300383Y410208D01*
X268944Y366950D02*
Y376492D01*
X265486Y363492D02*
X268944Y366950D01*
X231945Y366360D02*
Y369744D01*
X627328Y393492D02*
Y404761D01*
X614414Y493492D02*
Y499809D01*
Y490578D02*
Y493492D01*
X635099Y347834D02*
X638223Y350958D01*
X643745D01*
X648522Y355736D01*
Y355922D01*
X652740Y360140D01*
X651464Y397992D02*
X653590D01*
X665698Y410099D01*
X637092Y345648D02*
X637109Y345664D01*
X827752Y385491D02*
X832575Y380668D01*
X1038564Y403746D02*
Y436292D01*
Y403746D02*
X1038818Y403492D01*
X1041164D01*
X679412Y314241D02*
X680678Y312975D01*
X684414Y323035D02*
Y323492D01*
X682841Y310812D02*
X693996D01*
X704414Y321230D01*
X680678Y312975D02*
X682841Y310812D01*
X802389Y467280D02*
X806177Y463492D01*
X808881D01*
X804414Y459025D02*
X808881Y463492D01*
X797101Y467280D02*
X799745D01*
X809358Y431446D02*
X810324D01*
X811058Y430712D01*
X814296D01*
X337970Y274494D02*
X367918D01*
X429269Y184883D02*
X434421D01*
X442930Y176374D02*
X455904D01*
X434421Y184883D02*
X442930Y176374D01*
X455904D02*
X464414Y184883D01*
X528104Y350590D02*
X555202Y323492D01*
X567328D01*
X674469Y371724D02*
X674960D01*
X637109Y345664D02*
X639281Y343492D01*
X455458Y438492D02*
X499068D01*
X499322Y427402D02*
Y438238D01*
X499068Y438492D02*
X499322Y438238D01*
X455443Y438478D02*
X455458Y438492D01*
X445913Y438478D02*
X455443D01*
X444428Y439962D02*
Y447875D01*
X505672Y310816D02*
X529675Y334819D01*
Y341169D01*
X505418Y365426D02*
X529675Y341169D01*
X855229Y394128D02*
X857334D01*
X893314Y394594D02*
X893348Y394560D01*
X893314Y394594D02*
Y396654D01*
X894414Y397754D02*
Y398350D01*
X896422Y400358D02*
X896832Y400768D01*
X893348Y391644D02*
Y394560D01*
X893314Y396654D02*
X894414Y397754D01*
X893348Y391644D02*
X894414Y390578D01*
X857334Y394128D02*
X858029D01*
X896422Y400358D02*
X914414D01*
X895562D02*
X896422D01*
X847328Y400732D02*
Y403562D01*
X855229Y366360D02*
Y366589D01*
X824414Y395398D02*
Y398093D01*
X847328Y403562D02*
X848064Y404298D01*
X894414Y399210D02*
X895562Y400358D01*
X877788Y397176D02*
X884386Y390578D01*
X894414D01*
X814914Y193468D02*
X991320Y369874D01*
Y398446D01*
X1218756Y465802D02*
X1221952D01*
X914414Y395652D02*
Y400358D01*
X871736Y343492D02*
X884414D01*
X863402Y363492D02*
X867328D01*
X825381Y394333D02*
X827752Y391962D01*
X824414Y398093D02*
Y400692D01*
X825381Y394333D02*
X826777Y395729D01*
X820358Y399454D02*
Y409334D01*
Y399454D02*
X824414Y395398D01*
X808881Y463492D02*
X817328D01*
X814296Y430712D02*
X817076Y433492D01*
X728042Y413893D02*
X728443Y413492D01*
X668164Y403565D02*
X669646Y405047D01*
X668164Y399492D02*
Y403565D01*
X514496Y475408D02*
X516412Y473492D01*
X524414D01*
X662706Y351107D02*
Y355107D01*
X658693Y347094D02*
X662706Y351107D01*
X658473Y347094D02*
X658693D01*
X654414Y343492D02*
X654871D01*
X658473Y347094D01*
X1122638Y363492D02*
Y371014D01*
X1127972Y376348D01*
X1122638Y363492D02*
X1124414D01*
X602700Y447214D02*
Y451532D01*
X601684Y427275D02*
Y446198D01*
X602700Y447214D01*
X598001Y423592D02*
X601684Y427275D01*
X575395Y423592D02*
X598001D01*
X566378Y400478D02*
Y414575D01*
X575395Y423592D01*
X742400Y599868D02*
Y616632D01*
X707602Y565070D02*
X742400Y599868D01*
X678414Y462228D02*
X678900Y462714D01*
X820358Y409334D02*
X824414Y413390D01*
Y395299D02*
Y395398D01*
Y393366D02*
X825381Y394333D01*
X844414Y328850D02*
X859056Y343492D01*
X858029Y394128D02*
X858665Y393492D01*
X824414Y413390D02*
X831808D01*
X812777Y407035D02*
X820358Y399454D01*
X865145Y343492D02*
X871736D01*
X824414Y395299D02*
X825381Y394333D01*
X859056Y343492D02*
X865145D01*
X786687Y383492D02*
X787612D01*
X470731Y443492D02*
X489582D01*
X491956Y441118D01*
X1238240Y488108D02*
X1248114D01*
X1215888Y465756D02*
X1238240Y488108D01*
X1098000Y491378D02*
Y513000D01*
X1148800Y464700D02*
Y465802D01*
X1072378Y465756D02*
X1098000Y491378D01*
X1215888Y462934D02*
X1218756Y465802D01*
X1215888Y453703D02*
Y462934D01*
Y465756D01*
X1177282Y452677D02*
X1181312D01*
X1174414Y440578D02*
Y449809D01*
X1144768Y460668D02*
X1148800Y464700D01*
X1144768Y453703D02*
Y460668D01*
X1153233Y453703D02*
X1157436Y449500D01*
X1174414Y449809D02*
X1177282Y452677D01*
X1144768Y453703D02*
X1153233D01*
X1161214Y440578D02*
X1174414D01*
X1157436Y422068D02*
Y436800D01*
Y449500D01*
Y436800D02*
X1161214Y440578D01*
X1075648Y464319D02*
Y465802D01*
X1072378Y461049D02*
X1075648Y464319D01*
X1072378Y461049D02*
Y465756D01*
Y453703D02*
Y461049D01*
X874414Y478933D02*
X880576D01*
X870358Y474877D02*
X874414Y478933D01*
X870358Y460997D02*
Y474877D01*
Y460997D02*
X874414Y456941D01*
X917282Y418338D02*
X921216D01*
X874414Y450578D02*
Y456941D01*
X846391Y473492D02*
X854414D01*
X844475Y475408D02*
X846391Y473492D01*
X854414Y469660D02*
Y473492D01*
X842315Y475408D02*
X844475D01*
X848064Y461384D02*
Y462677D01*
X826633Y446325D02*
X830886Y450578D01*
X844414D01*
X826633Y437719D02*
Y446325D01*
Y433492D02*
Y437719D01*
X819900Y433492D02*
X826633D01*
X807424Y417521D02*
Y419134D01*
X776773Y426640D02*
X779921Y423492D01*
X787328D01*
X722815Y418512D02*
X723423D01*
X694414Y450008D02*
Y453492D01*
X710070Y444492D02*
X724414D01*
X694414Y446198D02*
Y450008D01*
X694394Y446178D02*
X694414Y446198D01*
X694394Y434026D02*
X694414Y434006D01*
Y423492D02*
Y434006D01*
X687007Y423492D02*
X694414D01*
X1119439Y391620D02*
X1120243D01*
X1144160Y390064D02*
X1144414Y389810D01*
X1108414Y386992D02*
X1111692D01*
X1041164Y403492D02*
X1044414D01*
X914414Y415470D02*
X917282Y418338D01*
X914414Y406626D02*
Y415470D01*
Y400358D02*
Y406626D01*
X894414Y399210D02*
Y408225D01*
X917282Y388646D02*
X921216D01*
X914414Y391514D02*
Y395652D01*
Y391514D02*
X917282Y388646D01*
X896832Y400768D02*
Y402677D01*
X894414Y398350D02*
Y399210D01*
X1133585Y388735D02*
X1136454Y385867D01*
X1144414D01*
X1111692Y386992D02*
X1114764Y390064D01*
X1225000Y371395D02*
Y386000D01*
X1144414Y385867D02*
Y389810D01*
X1088585Y382860D02*
Y386000D01*
Y382860D02*
X1091453Y379992D01*
X1194668Y368220D02*
X1221825D01*
X1225000Y371395D01*
X1194414Y367966D02*
X1194668Y368220D01*
X1194414Y363492D02*
Y367966D01*
X1091453Y379992D02*
X1100414D01*
X1182702Y366360D02*
X1185570Y363492D01*
X1182702Y366360D02*
Y369744D01*
X884414Y413492D02*
X889147D01*
X894414Y408225D01*
X884414Y406286D02*
X888704Y401996D01*
X884414Y406286D02*
Y413492D01*
X888704Y401023D02*
Y401996D01*
X867582Y397176D02*
X877788D01*
X867328Y396922D02*
X867582Y397176D01*
X858665Y393492D02*
X867328D01*
X848064Y404298D02*
Y405591D01*
X847328Y400732D02*
X850730D01*
X847328Y397710D02*
Y400732D01*
X844414Y394796D02*
X847328Y397710D01*
X828125Y394382D02*
X844000D01*
X867328Y378688D02*
Y393492D01*
Y396922D01*
X855229Y366360D02*
X858097Y363492D01*
X1185570D02*
X1194414D01*
X1043586Y356360D02*
Y359245D01*
X1025414Y357425D02*
X1029347Y353492D01*
X1046454D02*
X1054414D01*
X1043586Y356360D02*
X1046454Y353492D01*
X1029347D02*
X1046454D01*
X858097Y363492D02*
X863402D01*
X837328Y358568D02*
X837582Y358314D01*
X829285Y363492D02*
X837328D01*
Y358568D02*
Y363492D01*
X889744Y329104D02*
X890056D01*
X884414Y335454D02*
Y343492D01*
X877957Y328997D02*
X884414Y335454D01*
X884132Y323492D02*
X889744Y329104D01*
X877957Y323492D02*
X884132D01*
X877957D02*
Y328997D01*
X844414Y323492D02*
X850589D01*
X844414D02*
Y328850D01*
X826777Y395729D02*
X828125Y394382D01*
X787328Y411400D02*
Y423492D01*
X804414Y407035D02*
X812777D01*
X824414Y391398D02*
Y393366D01*
X827752Y385491D02*
Y391962D01*
X824414Y386035D02*
Y391398D01*
X787328Y383776D02*
Y411400D01*
Y383776D02*
X787612Y383492D01*
X784179Y386000D02*
X786687Y383492D01*
X787612D02*
X794414D01*
X728443Y413492D02*
X734414D01*
X723423Y418512D02*
X728042Y413893D01*
X689414Y389035D02*
Y392096D01*
X795183Y363492D02*
X804414D01*
X827409Y361616D02*
X829285Y363492D01*
X804414Y356574D02*
Y363492D01*
X792315Y366360D02*
X795183Y363492D01*
X704414Y321230D02*
Y323492D01*
X698239D02*
X704414D01*
X680678Y292782D02*
X692108Y281352D01*
X680678Y292782D02*
Y312975D01*
X622315Y496360D02*
X625183Y493492D01*
X634414D01*
X614414Y499809D02*
X617282Y502677D01*
X593175Y490578D02*
X614414D01*
X590000Y493753D02*
Y516175D01*
Y486667D02*
Y493753D01*
X593175Y490578D01*
X586825Y483492D02*
X590000Y486667D01*
X574414Y483492D02*
X586825D01*
X579840Y495185D02*
Y495591D01*
X477389Y475408D02*
X479305Y473492D01*
X475229Y475408D02*
X477389D01*
X567282Y452677D02*
X571712D01*
X554414Y467328D02*
X558250Y463492D01*
X564414D01*
Y449809D02*
Y463492D01*
Y449809D02*
X567282Y452677D01*
X554414Y467328D02*
Y473492D01*
X557664D01*
X479305D02*
X487328D01*
X505204Y443492D02*
X514414D01*
X502335Y446360D02*
X505204Y443492D01*
X504236D02*
X505204D01*
X564414Y440578D02*
Y449809D01*
X501862Y441118D02*
X504236Y443492D01*
X502335Y446360D02*
Y451024D01*
X441280Y424100D02*
Y473492D01*
X429568Y475408D02*
X431729D01*
X433645Y473492D01*
X436076Y473746D02*
X436330Y473492D01*
X435242Y446360D02*
Y451024D01*
X432374Y443492D02*
X435242Y446360D01*
X424414Y443492D02*
X432374D01*
X409152Y431928D02*
Y432677D01*
X348700Y445510D02*
X367538D01*
X370788D01*
X344414Y441224D02*
X348700Y445510D01*
X347282Y432677D02*
X352256D01*
X299668Y445510D02*
X305835D01*
X296418D02*
X299668D01*
X424414Y424100D02*
Y443492D01*
X344414Y429809D02*
X347282Y432677D01*
X404414Y427190D02*
X409152Y431928D01*
X420892Y420578D02*
X424414Y424100D01*
X344414Y420578D02*
Y429809D01*
X404414Y420578D02*
Y427190D01*
X344414Y429809D02*
Y441224D01*
X327328Y424100D02*
X330809Y420619D01*
X409670Y420578D02*
X420892D01*
X404414D02*
X409670D01*
X409958Y420290D01*
X376640Y414707D02*
Y421098D01*
X375058Y413125D02*
X376640Y414707D01*
X330850Y420578D02*
X344414D01*
X370925D01*
X330809Y420619D02*
X330850Y420578D01*
X370925D02*
X375058Y416445D01*
Y413125D02*
Y416445D01*
X327328Y424100D02*
Y443492D01*
X664414Y373492D02*
Y379142D01*
X654414Y389142D02*
Y393492D01*
X653746Y389810D02*
X654414Y389142D01*
X627582Y389810D02*
X653746D01*
X627328Y390064D02*
X627582Y389810D01*
X627328Y390064D02*
Y393492D01*
X594414Y403492D02*
X597239D01*
X597366Y403365D01*
Y399970D02*
Y403365D01*
Y399970D02*
X597620Y399716D01*
X582315Y406360D02*
X585183Y403492D01*
X594414D01*
Y390414D02*
Y403492D01*
X607623Y373492D02*
X614414D01*
X603243Y377872D02*
X607623Y373492D01*
X602315Y377872D02*
X603243D01*
X584414Y363492D02*
Y370696D01*
X485548Y400153D02*
Y406692D01*
X481796Y399899D02*
X482050Y400153D01*
X485548D01*
X415375Y395340D02*
X422616D01*
X481796Y390826D02*
Y399899D01*
X422616Y391529D02*
Y395340D01*
X375058Y400500D02*
Y413125D01*
X305414Y394281D02*
Y403492D01*
Y394281D02*
X308282Y391413D01*
X305414Y391334D02*
X323256Y373492D01*
X305414Y391334D02*
Y394281D01*
X308282Y391413D02*
X311616D01*
X209000Y386000D02*
X214414Y380586D01*
X323256Y373492D02*
X335414D01*
X214414Y379396D02*
Y380586D01*
Y379396D02*
X214668Y379650D01*
X214414Y369578D02*
Y378309D01*
Y379396D01*
X480564Y365688D02*
X484621Y369744D01*
X472952Y365688D02*
X480564D01*
X415375Y363492D02*
Y395340D01*
X470756Y363492D02*
X472952Y365688D01*
X412315Y366360D02*
Y369744D01*
Y366360D02*
X415183Y363492D01*
X409958Y343860D02*
Y420290D01*
X470756Y363492D02*
X479285D01*
X482700D01*
X477409Y361616D02*
X479285Y363492D01*
X475229Y361616D02*
X477409D01*
X464414Y363492D02*
X470756D01*
X424414Y356028D02*
Y363492D01*
X232016D02*
X234813D01*
X215858Y379650D02*
X232016Y363492D01*
X231945Y366360D02*
X234813Y363492D01*
X336000Y360352D02*
Y362677D01*
X234813Y363492D02*
X244414D01*
X574414Y323492D02*
X580589D01*
X574414Y316242D02*
X585174Y305482D01*
X574414Y316242D02*
Y323492D01*
X515367Y342392D02*
X519178D01*
X508292D02*
X515367D01*
X497290Y331390D02*
X508292Y342392D01*
X494414Y331390D02*
Y332787D01*
X480018Y332914D02*
X494287D01*
X494414Y332787D01*
X465838Y335600D02*
X477332D01*
X480018Y332914D01*
X494414Y330949D02*
Y331390D01*
Y325041D02*
Y330949D01*
X455968Y295175D02*
X478133D01*
X448007D02*
X455968D01*
X478133D02*
X496782Y276526D01*
X480780Y176704D02*
Y189704D01*
X449792Y209564D02*
Y209993D01*
Y220692D02*
X480780Y189704D01*
X409958Y343860D02*
X412826Y346729D01*
X409958Y335600D02*
Y343860D01*
X445139Y298043D02*
X448007Y295175D01*
X445139Y298043D02*
Y300928D01*
X197062Y309080D02*
X202650Y303492D01*
X197062Y309080D02*
Y336597D01*
X323586Y298735D02*
Y301620D01*
X216047Y303492D02*
X224414D01*
X334414Y295867D02*
X348409D01*
X323586Y298735D02*
X326454Y295867D01*
X334414D01*
X214820Y304720D02*
X216047Y303492D01*
X212315Y304720D02*
X214820D01*
X348409Y295867D02*
X365210Y279066D01*
X444414Y220692D02*
X449792D01*
X444414Y215371D02*
X449792Y209993D01*
X444414Y215371D02*
Y220692D01*
X859084Y329104D02*
X864696Y323492D01*
X870871D01*
X858772Y329104D02*
X859084D01*
X699220Y377978D02*
X702628Y374570D01*
X672296Y358314D02*
X672550Y358568D01*
X666708Y308784D02*
X672296Y314372D01*
X666708Y303492D02*
Y308784D01*
Y303492D02*
X666957D01*
X613368Y421052D02*
Y434768D01*
X610574Y418258D02*
X613368Y421052D01*
X320125Y326310D02*
X330158D01*
X360130Y296338D01*
X311743Y430958D02*
X315426D01*
X314414Y332021D02*
Y336406D01*
X302980D02*
X314414D01*
X308060Y427275D02*
X311743Y430958D01*
X281390Y357996D02*
X302980Y336406D01*
X314414Y328092D02*
Y332021D01*
X320125Y326310D01*
X310600Y324278D02*
X314414Y328092D01*
X301202Y324278D02*
X310600D01*
X524668Y508682D02*
X557234D01*
X524414Y508428D02*
X524668Y508682D01*
X524414Y503492D02*
Y508428D01*
X401414Y384062D02*
Y405050D01*
X746778Y413492D02*
X749004Y415718D01*
X740500Y413492D02*
X746778D01*
X921096Y716280D02*
Y718340D01*
X920200Y719236D02*
X921096Y718340D01*
X920200Y664892D02*
Y715384D01*
Y719236D02*
Y737790D01*
Y715384D02*
X921096Y716280D01*
X814536Y559228D02*
X920200Y664892D01*
X719339Y267188D02*
X760125Y226403D01*
Y224855D02*
Y226403D01*
Y224855D02*
X800910Y184070D01*
X681126Y267188D02*
X719339D01*
X800910Y184070D02*
X938988D01*
X676614Y271700D02*
X681126Y267188D01*
X444428Y439962D02*
X445913Y438478D01*
X444428Y447875D02*
X450300Y453747D01*
Y460422D01*
X451824Y461946D01*
X645414Y366949D02*
Y367406D01*
X642379Y367704D02*
X645117D01*
X645414Y367406D01*
X567582Y329104D02*
X577046D01*
X1073108Y348916D02*
X1091904D01*
X1054414D02*
X1073108D01*
X1078442Y354250D01*
X1072934Y348742D02*
X1073108Y348916D01*
X705570Y351202D02*
Y351492D01*
X684414Y345360D02*
X697442D01*
X439124Y290425D02*
X449601D01*
X500488Y410384D02*
X504148D01*
X500488Y412670D02*
X502878D01*
X253958Y403492D02*
X254414D01*
X253958D02*
Y403526D01*
X214414Y363140D02*
X225510D01*
X1107398Y25320D02*
Y307768D01*
X1197822Y398192D01*
Y540802D01*
X1274414Y617394D01*
X1108414Y376094D02*
Y379992D01*
X1096476Y364156D02*
X1108414Y376094D01*
X1096476Y348542D02*
Y364156D01*
X1032842Y284908D02*
X1096476Y348542D01*
X935948Y284908D02*
X1032842D01*
X1054414Y348742D02*
Y348916D01*
X1091904D02*
X1092158Y348662D01*
X1174414Y389810D02*
Y400949D01*
X253704Y403272D02*
X253958Y403526D01*
X231860Y403272D02*
X253704D01*
X525818Y381682D02*
Y399150D01*
X439124Y300902D02*
X449601Y290425D01*
X455968D01*
X705570Y351492D02*
X707914D01*
X701125Y351202D02*
X705570D01*
X695918Y356409D02*
X701125Y351202D01*
X695918Y356409D02*
Y360600D01*
X938988Y184070D02*
X1099196Y344277D01*
Y348842D01*
X1106382Y356028D01*
X790914Y47164D02*
X827744Y83994D01*
X843746D01*
X1119336Y359584D01*
X1143593D01*
X1147784Y363775D01*
Y410003D01*
X1151975Y414194D01*
X1186138D01*
X1189186Y417242D01*
Y618156D01*
X1281022Y709992D01*
X1307042D01*
X909532Y453746D02*
Y459152D01*
Y453746D02*
X909786Y453492D01*
X911871D01*
X531914Y473492D02*
X536014D01*
X541994Y479472D01*
X384414Y354758D02*
Y363492D01*
X684414Y343492D02*
Y345360D01*
X1078442Y529002D02*
X1198584Y649144D01*
X1078442Y485568D02*
Y529002D01*
X991320Y398446D02*
X1078442Y485568D01*
X421725Y187118D02*
X429414D01*
X418550Y190293D02*
X421725Y187118D01*
X418550Y190293D02*
Y276018D01*
X424392Y281860D01*
Y346249D01*
X434953Y356810D01*
X453475D01*
X456914Y360249D01*
Y363492D01*
X453856D02*
X456914D01*
X453602Y363746D02*
X453856Y363492D01*
X453602Y363746D02*
Y370502D01*
X218548Y422726D02*
X219668Y423846D01*
X218548Y419180D02*
Y422726D01*
X464414Y416035D02*
Y433244D01*
X464668Y433498D01*
X486876D01*
X567328Y328850D02*
X567582Y329104D01*
X567328Y323492D02*
Y328850D01*
X424414Y180028D02*
X429269Y184883D01*
X494414Y453492D02*
X500774D01*
X506434Y459152D01*
X485225Y222805D02*
X500338Y207692D01*
X485225Y222805D02*
Y235251D01*
X504275Y365426D02*
X505418D01*
X500084Y369617D02*
X504275Y365426D01*
X504148Y378126D02*
X504402Y378380D01*
Y410130D01*
X504148Y410384D02*
X504402Y410130D01*
X500488Y410384D02*
Y412117D01*
Y412670D01*
X502878D02*
X503132Y412924D01*
Y423592D01*
X499322Y427402D02*
X503132Y423592D01*
X451824Y461946D02*
Y520620D01*
X564414Y425556D02*
Y433492D01*
Y425556D02*
X568664Y421306D01*
X427623Y301926D02*
X439124Y290425D01*
X511260Y391588D02*
X511318Y391646D01*
Y399150D01*
X334414Y443492D02*
X339810D01*
X340064Y443746D01*
Y460422D01*
X351240Y471598D01*
X531914Y467534D02*
Y473492D01*
X287589Y373300D02*
X307044D01*
X284414Y370125D02*
X287589Y373300D01*
X284414Y366035D02*
Y370125D01*
X214414Y363140D02*
Y363492D01*
X424414Y226292D02*
X444414D01*
X539500Y423492D02*
X549106D01*
X559106Y433492D01*
X564414D01*
X431500Y361108D02*
Y363492D01*
Y361108D02*
X431754Y360854D01*
X448522D01*
X584414Y356406D02*
X606634D01*
X334414Y278050D02*
X337970Y274494D01*
X334414Y278050D02*
Y291117D01*
X1200682Y363492D02*
X1205414D01*
X1097008Y386992D02*
X1100414D01*
X1094698Y389302D02*
X1097008Y386992D01*
X1081744Y389302D02*
X1094698D01*
X1078442Y386000D02*
X1081744Y389302D01*
X1078442Y354250D02*
Y386000D01*
X1054414Y348742D02*
X1072934D01*
X252195Y363492D02*
X265486D01*
X1126811Y381117D02*
X1144414D01*
X1125686Y379992D02*
X1126811Y381117D01*
X1108414Y379992D02*
X1125686D01*
D109*
X509482Y461184D02*
Y514854D01*
X513800Y456866D02*
X533485D01*
X509482Y461184D02*
X513800Y456866D01*
X661707Y502427D02*
Y543109D01*
Y502427D02*
X664339Y499795D01*
X653700Y551116D02*
X661707Y543109D01*
X654824Y498768D02*
Y510144D01*
Y498768D02*
X656315Y497278D01*
X655950Y492722D02*
Y495485D01*
X656315Y495849D01*
Y497278D01*
X618836Y468034D02*
X626874D01*
X627110Y468270D01*
X634195Y331460D02*
X637278D01*
X627846Y334438D02*
X631217D01*
X634195Y331460D01*
X614134Y343324D02*
X620988Y336470D01*
X566128Y347388D02*
X570896Y342620D01*
X592163D01*
X592867Y343324D02*
X614134D01*
X592163Y342620D02*
X592867Y343324D01*
X654907Y491679D02*
X655950Y492722D01*
X654824Y510144D02*
X655582Y510902D01*
X664932Y454438D02*
X667414Y451956D01*
X664932Y454438D02*
Y461010D01*
X662450Y463492D02*
X664932Y461010D01*
X642195Y463492D02*
X662450D01*
X637206Y467873D02*
Y470242D01*
X641497Y472700D02*
X641664Y472534D01*
X637206Y470242D02*
X639664Y472700D01*
X641497D01*
X637206Y467873D02*
X638262Y466816D01*
X641664Y472534D02*
X643497D01*
X656847Y470800D02*
X663614D01*
X688710Y340890D02*
X697511D01*
X697859Y340542D02*
X698860D01*
X697511Y340890D02*
X697859Y340542D01*
X698860D02*
X699208Y340890D01*
X711088D01*
X687372Y342228D02*
X688710Y340890D01*
X711088D02*
X715266Y345068D01*
X717496Y342368D02*
X718974Y340890D01*
X715266Y345068D02*
X716018D01*
X717496Y342368D02*
Y343590D01*
X716018Y345068D02*
X717496Y343590D01*
X718974Y340890D02*
X748440D01*
X652697Y474950D02*
X656847Y470800D01*
X626849Y518768D02*
Y519769D01*
X626560Y520058D02*
Y571097D01*
Y520058D02*
X626849Y519769D01*
X619706Y577951D02*
X626560Y571097D01*
X619706Y577951D02*
Y665948D01*
X654824Y557448D02*
Y656266D01*
X652484Y555107D02*
X654824Y557448D01*
X583440Y727650D02*
X654824Y656266D01*
X656040Y556944D02*
Y656770D01*
X604414Y708396D02*
X656040Y656770D01*
X653700Y554604D02*
X656040Y556944D01*
X790795Y347084D02*
X791601Y347890D01*
X793835Y347084D02*
X802924D01*
X793029Y347890D02*
X793835Y347084D01*
X784800D02*
X790795D01*
X791601Y347890D02*
X793029D01*
X645913Y474950D02*
X652697D01*
X656414Y433646D02*
Y451492D01*
X817566Y513885D02*
X818231Y513220D01*
X819449D01*
X820114Y513885D01*
X882100D01*
X812649D02*
X817566D01*
X540229Y710101D02*
X599414Y769286D01*
X509482Y514854D02*
X540229Y545601D01*
Y710101D01*
X652484Y550612D02*
X655582Y547514D01*
Y510902D02*
Y547514D01*
X626560Y518479D02*
X626849Y518768D01*
X626560Y504020D02*
Y518479D01*
X656817Y432631D02*
X659560Y429888D01*
X656414Y433646D02*
X656817Y433242D01*
Y432631D02*
Y433242D01*
X634802Y444436D02*
Y444563D01*
X634094Y443728D02*
X634802Y444436D01*
X633691Y443728D02*
X634094D01*
X634802Y444563D02*
X635962Y445723D01*
X632883Y442920D02*
X633691Y443728D01*
X639888Y334070D02*
X640314Y334496D01*
X638356Y332538D02*
Y332560D01*
X639866Y334070D01*
X637278Y331460D02*
X638356Y332538D01*
X639866Y334070D02*
X639888D01*
X636273Y332676D02*
Y332869D01*
X691656Y322874D02*
X693770Y320760D01*
X846818Y350830D02*
X851576Y355588D01*
X862216D01*
X864781Y358152D01*
X868952D01*
X820050Y345956D02*
Y350020D01*
X802924Y347084D02*
X817300Y361460D01*
X743264Y327366D02*
X765853D01*
X775326Y336839D02*
Y337611D01*
X765853Y327366D02*
X775326Y336839D01*
Y337611D02*
X784800Y347084D01*
X629414Y691356D02*
Y758691D01*
X629715Y758992D01*
X584414Y767992D02*
X585622Y766784D01*
X594914D02*
X598632Y770502D01*
X585622Y766784D02*
X594914D01*
X598632Y770502D02*
X599917D01*
X600630Y769790D01*
X604414Y708396D02*
Y767992D01*
X600630Y768782D02*
Y769790D01*
X580250Y748403D02*
X600630Y768782D01*
X580250Y703780D02*
X599166Y684864D01*
X580250Y703780D02*
Y748403D01*
X644229Y487429D02*
X645286Y488486D01*
Y490656D01*
X637320Y490470D02*
X637478D01*
X637892Y490885D02*
Y510135D01*
X636228Y489378D02*
X637320Y490470D01*
X637478D02*
X637892Y490885D01*
X646896Y408224D02*
X647164Y408492D01*
Y412492D01*
X649671Y402749D02*
X655110D01*
X657206Y404845D01*
X635962Y445723D02*
Y449801D01*
X632883Y431503D02*
Y442920D01*
X642912Y416744D02*
Y427802D01*
Y416744D02*
X647164Y412492D01*
X638660Y432054D02*
X642912Y427802D01*
X657206Y404845D02*
Y406794D01*
X659430Y409018D01*
X635622Y338342D02*
X636514Y337450D01*
X635622Y338342D02*
Y339953D01*
X628259Y408492D02*
X631172Y405579D01*
Y401987D02*
Y405579D01*
X630414Y401229D02*
X631172Y401987D01*
X621364Y406984D02*
X624451Y410071D01*
Y426338D01*
X628523Y430410D01*
X634914Y340661D02*
X635622Y339953D01*
X634911Y340661D02*
X634914D01*
X631594Y343978D02*
X634911Y340661D01*
X631594Y343978D02*
Y347286D01*
X631787Y347480D01*
Y357895D01*
X632414Y358522D01*
X620330Y397875D02*
X621364Y398909D01*
Y406984D01*
X628523Y430410D02*
X631790D01*
X632883Y431503D01*
X635962Y449801D02*
X637829Y451669D01*
Y456387D01*
X638198Y456756D01*
Y458723D01*
X638173Y458748D02*
X638198Y458723D01*
X638173Y458748D02*
Y460078D01*
X638262Y460168D01*
Y466816D01*
X643497Y472534D02*
X645913Y474950D01*
X630378Y343475D02*
X632418Y341434D01*
X630378Y343475D02*
Y343570D01*
X632418Y336724D02*
Y341434D01*
X629914Y344034D02*
X630378Y343570D01*
X629885Y344034D02*
X629914D01*
X628906Y345042D02*
X629178Y344770D01*
Y344742D02*
Y344770D01*
Y344742D02*
X629885Y344034D01*
X628906Y345042D02*
Y356492D01*
X632418Y336724D02*
X636273Y332869D01*
X638660Y432054D02*
Y450780D01*
X653700Y551116D02*
Y554604D01*
X652484Y550612D02*
Y555107D01*
X641628Y513871D02*
Y528476D01*
X637892Y510135D02*
X641628Y513871D01*
X531801Y428639D02*
X537676Y434514D01*
X531801Y411941D02*
Y428639D01*
Y411941D02*
X566128Y377614D01*
Y347388D02*
Y377614D01*
X640314Y334496D02*
X648362D01*
X587436Y358130D02*
X601230D01*
X613030Y369930D01*
X869785Y718520D02*
X903320D01*
X484330Y507650D02*
Y673908D01*
X569414Y758992D01*
X537676Y434514D02*
Y452675D01*
X636790Y533314D02*
X641628Y528476D01*
X739974Y330656D02*
X743264Y327366D01*
X695250Y330656D02*
X739974D01*
X690414Y335492D02*
X695250Y330656D01*
X636790Y533314D02*
Y574640D01*
X626780Y689810D02*
Y721710D01*
X620400Y728090D02*
X626780Y721710D01*
X867592Y721555D02*
X868187Y722150D01*
X867592Y720713D02*
Y721555D01*
Y720713D02*
X869785Y718520D01*
X868187Y722150D02*
X886380D01*
X583027Y474041D02*
X583349D01*
X582319Y474749D02*
X583027Y474041D01*
X582319Y474749D02*
Y475072D01*
X583349Y474041D02*
X586617Y470774D01*
X580985Y476406D02*
X582319Y475072D01*
X774414Y611492D02*
X780450Y617528D01*
Y720720D01*
X586617Y470774D02*
X608026D01*
X610766Y468034D01*
X788920Y355960D02*
Y368787D01*
X791601Y371468D01*
X709380Y387492D02*
Y410740D01*
X730700Y432060D02*
Y434778D01*
X709380Y410740D02*
X730700Y432060D01*
X734877Y436114D02*
X812649Y513885D01*
X730700Y434778D02*
X732037Y436114D01*
X734877D01*
X629414Y691356D02*
X648670Y672100D01*
X886380Y722150D02*
X900130Y735900D01*
X610766Y468034D02*
X617992D01*
X618100Y468142D01*
X618728D01*
X618836Y468034D01*
X844414Y763492D02*
Y766992D01*
X171914Y410367D02*
X173414Y411867D01*
Y418492D01*
X182710Y400510D02*
X195250D01*
X177540Y384450D02*
X202180D01*
X161810Y400180D02*
X177540Y384450D01*
X654414Y334031D02*
Y339492D01*
X650090Y329708D02*
X654414Y334031D01*
X600790Y684864D02*
X619706Y665948D01*
X599166Y684864D02*
X600790D01*
X659430Y409018D02*
Y410019D01*
X659560Y410149D02*
Y429888D01*
X659430Y410019D02*
X659560Y410149D01*
X814063Y339970D02*
X820050Y345956D01*
X552860Y322080D02*
X553157Y322377D01*
X552530Y322080D02*
X552860D01*
X546810Y316360D02*
X552530Y322080D01*
X546810Y316031D02*
Y316360D01*
X530728Y299949D02*
X546810Y316031D01*
X791601Y371468D02*
X796902D01*
X625814Y336470D02*
X627846Y334438D01*
X620988Y336470D02*
X625814D01*
X574414Y476406D02*
X580985D01*
X796340Y326150D02*
X810160Y339970D01*
X814063D01*
X717420Y326150D02*
X796340D01*
X714670Y328900D02*
X717420Y326150D01*
X686290Y331650D02*
X687512Y330428D01*
X689626Y322874D02*
X691656D01*
X687512Y324989D02*
Y330428D01*
Y324989D02*
X689626Y322874D01*
X801300Y367070D02*
X813340D01*
X796902Y371468D02*
X801300Y367070D01*
X885393Y475576D02*
Y510592D01*
X878346Y468529D02*
X885393Y475576D01*
X882100Y513885D02*
X885393Y510592D01*
X688728Y325492D02*
Y337242D01*
X686290Y339680D02*
X688728Y337242D01*
X533485Y456866D02*
X537676Y452675D01*
X915310Y352220D02*
Y358930D01*
X903430Y340340D02*
X915310Y352220D01*
X402050Y233310D02*
X413160Y244420D01*
X396770Y233310D02*
X402050D01*
X284698Y333190D02*
X294360D01*
X275929Y341959D02*
X284698Y333190D01*
X230862Y341959D02*
X275929D01*
X208281Y364540D02*
X230862Y341959D01*
X172150Y364540D02*
X208281D01*
D110*
X684019Y446887D02*
X685269Y448137D01*
Y468902D01*
X683940Y446887D02*
X684019D01*
X681614Y444561D02*
X683940Y446887D01*
X681614Y435250D02*
Y444561D01*
X692592Y494450D02*
X692702Y494340D01*
Y487008D02*
Y494340D01*
X705412Y337095D02*
X718648D01*
X721290Y339737D01*
X751741D01*
X800742Y391897D02*
X801663D01*
X804731Y388830D01*
X794386Y392415D02*
X800223D01*
X800742Y391897D01*
X711544Y363362D02*
X712573Y362333D01*
X721318D01*
X757030Y368728D02*
X770008D01*
X778250Y376970D01*
X797830Y381239D02*
X798094Y380974D01*
X797830Y381239D02*
Y386073D01*
X797398Y386505D02*
X797830Y386073D01*
X797072Y386505D02*
X797398D01*
X793715Y389862D02*
X797072Y386505D01*
X793715Y389862D02*
Y391744D01*
X794386Y392415D01*
X804731Y388830D02*
X819400D01*
X751741Y339737D02*
X754414Y342410D01*
X684750Y714450D02*
X691350Y707850D01*
Y630630D02*
Y707850D01*
Y630630D02*
X695559Y626421D01*
Y575258D02*
Y626421D01*
X695090Y574790D02*
X695559Y575258D01*
X695090Y551992D02*
Y574790D01*
X689979Y484285D02*
X692702Y487008D01*
X689979Y482699D02*
Y484285D01*
Y482699D02*
X691069Y481609D01*
Y478067D02*
Y481609D01*
X687559Y474557D02*
X691069Y478067D01*
X687559Y471192D02*
Y474557D01*
X685269Y468902D02*
X687559Y471192D01*
X679269Y432905D02*
X681614Y435250D01*
X679269Y429418D02*
Y432905D01*
Y429418D02*
X679653Y429034D01*
Y420821D02*
Y429034D01*
X677995Y419163D02*
X679653Y420821D01*
X675088Y419163D02*
X677995D01*
X674455Y418530D02*
X675088Y419163D01*
X674455Y414312D02*
Y418530D01*
Y414312D02*
X675805Y412962D01*
Y410252D02*
Y412962D01*
X674519Y408966D02*
X675805Y410252D01*
X674519Y403498D02*
Y408966D01*
X669414Y398393D02*
X674519Y403498D01*
X669414Y395492D02*
Y398393D01*
X649800Y384078D02*
X650414Y384692D01*
X649800Y378768D02*
Y384078D01*
Y378768D02*
X656737Y371831D01*
X657575D01*
X659019Y370387D01*
X658733Y356190D02*
Y358289D01*
X651939Y349396D02*
X658733Y356190D01*
X651939Y347267D02*
Y349396D01*
X651918Y347246D02*
X651939Y347267D01*
X587369Y330597D02*
X626366D01*
X632418Y324545D01*
X530648Y397299D02*
X563311Y364635D01*
Y348574D02*
Y364635D01*
Y348574D02*
X576158Y335728D01*
X577940Y572000D02*
Y741070D01*
X528330Y522390D02*
X577940Y572000D01*
X533830Y453420D02*
X535527Y451723D01*
Y434033D02*
Y451723D01*
X530648Y429154D02*
X535527Y434033D01*
X530648Y397299D02*
Y429154D01*
X576158Y335728D02*
X582238D01*
X587369Y330597D01*
D111*
X869838Y435992D02*
X878155D01*
X883143Y440980D01*
X889800D01*
Y443180D01*
X589585Y389501D02*
Y394145D01*
X588949Y388865D02*
X589585Y389501D01*
X576620Y407110D02*
X589585Y394145D01*
X867469Y376065D02*
X880959D01*
X883143Y373880D02*
X889800D01*
X880959Y376065D02*
X883143Y373880D01*
X574414Y393492D02*
X575914Y391992D01*
X581118D01*
X584245Y388865D01*
X588949D01*
X825684Y378180D02*
X826503Y377360D01*
X843260D01*
X888225Y375320D02*
X889665Y373880D01*
X884730Y375320D02*
X888225D01*
X377878Y368236D02*
X401024D01*
X371369Y361727D02*
X377878Y368236D01*
X348358Y361727D02*
X371369D01*
X338884Y371201D02*
X348358Y361727D01*
X338884Y371201D02*
Y377462D01*
X345414Y383992D01*
D112*
X434816Y388354D02*
Y410616D01*
X355878Y391597D02*
Y396385D01*
X355639Y384717D02*
Y391357D01*
X322030Y399771D02*
X352492D01*
X355878Y396385D01*
X355639Y391357D02*
X355878Y391597D01*
X344414Y373492D02*
X355639Y384717D01*
X434816Y410616D02*
X436920Y412720D01*
X752354Y484806D02*
X759222D01*
X1037675Y394492D02*
X1044414D01*
X1034414Y391231D02*
X1037675Y394492D01*
X1034414Y363492D02*
X1037548D01*
X1034414D02*
Y391231D01*
X318309Y403492D02*
X322030Y399771D01*
X314414Y403492D02*
Y422830D01*
Y403492D02*
X318309D01*
X456543Y451086D02*
X456916D01*
X452430Y446973D02*
X456543Y451086D01*
X452430Y445940D02*
Y446973D01*
Y445940D02*
X452835Y445535D01*
Y444774D02*
Y445535D01*
X515324Y333422D02*
X515378Y333368D01*
X724414Y456866D02*
X752354Y484806D01*
X724414Y453492D02*
Y456866D01*
X942722Y476205D02*
X943314Y476797D01*
Y496831D01*
X942722Y470779D02*
X943314Y470187D01*
Y459406D02*
Y470187D01*
X942722Y470779D02*
Y476205D01*
X364448Y436510D02*
Y436546D01*
X283422Y436510D02*
X296418D01*
X364484D02*
X370788D01*
X364448D02*
X364484D01*
X299668Y423338D02*
Y436510D01*
X938488Y454580D02*
X943314Y459406D01*
X938488Y393780D02*
Y454580D01*
X927058Y382350D02*
X938488Y393780D01*
X927058Y352218D02*
Y382350D01*
X837257Y262417D02*
X927058Y352218D01*
X821763Y262417D02*
X837257D01*
X809456Y250110D02*
X821763Y262417D01*
X364448Y436546D02*
X364484Y436510D01*
D113*
X544814Y478688D02*
X556527Y490401D01*
X544814Y439356D02*
Y478688D01*
Y439356D02*
X548900Y435270D01*
X556527Y490401D02*
Y503564D01*
X590622Y775830D02*
X627110D01*
X582747Y767955D02*
X590622Y775830D01*
X582747Y765249D02*
Y767955D01*
X581558Y764060D02*
X582747Y765249D01*
D129*
X524414Y473492D02*
D03*
X618164Y333492D02*
D03*
X666414Y479492D02*
D03*
X514414Y443492D02*
D03*
X464414Y363492D02*
D03*
X610664Y333492D02*
D03*
X524414Y363492D02*
D03*
X531914Y473492D02*
D03*
X673914Y479492D02*
D03*
X707914Y351492D02*
D03*
X715414D02*
D03*
X531914Y363492D02*
D03*
X494414Y453492D02*
D03*
X486914D02*
D03*
X521914Y443492D02*
D03*
X456914Y363492D02*
D03*
D130*
X447548Y473492D02*
D03*
X1194414Y363492D02*
D03*
X441280Y473492D02*
D03*
X1200682Y363492D02*
D03*
D131*
X431641Y395340D02*
D03*
X422616D02*
D03*
D132*
X1144414Y385867D02*
D03*
X1054414Y353492D02*
D03*
X424414Y443492D02*
D03*
X455968Y295175D02*
D03*
X334414Y295867D02*
D03*
X424414Y448242D02*
D03*
X1144414Y381117D02*
D03*
X1054414Y348742D02*
D03*
X334414Y291117D02*
D03*
X455968Y290425D02*
D03*
D133*
X1108414Y386992D02*
D03*
X1100414Y379992D02*
D03*
Y386992D02*
D03*
X1108414Y379992D02*
D03*
D134*
X734414Y413492D02*
D03*
X740500D02*
D03*
D135*
X214414Y369578D02*
D03*
Y363492D02*
D03*
D136*
X524414Y503492D02*
D03*
X529914D02*
D03*
D137*
X218548Y412680D02*
D03*
Y419180D02*
D03*
D138*
X525818Y399150D02*
D03*
X511318D02*
D03*
D139*
X724414Y453492D02*
X727664D01*
M02*
