G04*
G04 #@! TF.GenerationSoftware,Altium Limited,Altium Designer,26.7.1 (11)*
G04*
G04 Layer_Color=128*
G04 Board_Origin=26771654|24803150*
%FSLAX44Y44*%
%MOMM*%
G71*
G04*
G04 #@! TF.SameCoordinates,D9171914-07D6-4B2F-AF4B-0BE730A3B9D6*
G04*
G04*
G04 #@! TF.FilePolarity,Positive*
G04*
G01*
G75*
%ADD28R,0.4627X0.5541*%
%ADD29R,0.5541X0.4627*%
%ADD32R,1.2552X1.1062*%
%ADD33R,0.4627X0.5541*%
%ADD34R,0.6062X0.6281*%
%ADD35R,0.3200X0.3600*%
%ADD36R,0.5541X0.4627*%
%ADD37R,0.6621X0.6596*%
%ADD41R,0.2627X0.3541*%
%ADD45R,0.3600X0.3200*%
%ADD57R,0.4034X0.4767*%
G04:AMPARAMS|DCode=59|XSize=0.55mm|YSize=0.5mm|CornerRadius=0.0625mm|HoleSize=0mm|Usage=FLASHONLY|Rotation=90.000|XOffset=0mm|YOffset=0mm|HoleType=Round|Shape=RoundedRectangle|*
%AMROUNDEDRECTD59*
21,1,0.5500,0.3750,0,0,90.0*
21,1,0.4250,0.5000,0,0,90.0*
1,1,0.1250,0.1875,0.2125*
1,1,0.1250,0.1875,-0.2125*
1,1,0.1250,-0.1875,-0.2125*
1,1,0.1250,-0.1875,0.2125*
%
%ADD59ROUNDEDRECTD59*%
G04:AMPARAMS|DCode=60|XSize=0.55mm|YSize=0.5mm|CornerRadius=0.0625mm|HoleSize=0mm|Usage=FLASHONLY|Rotation=180.000|XOffset=0mm|YOffset=0mm|HoleType=Round|Shape=RoundedRectangle|*
%AMROUNDEDRECTD60*
21,1,0.5500,0.3750,0,0,180.0*
21,1,0.4250,0.5000,0,0,180.0*
1,1,0.1250,-0.2125,0.1875*
1,1,0.1250,0.2125,0.1875*
1,1,0.1250,0.2125,-0.1875*
1,1,0.1250,-0.2125,-0.1875*
%
%ADD60ROUNDEDRECTD60*%
%ADD61R,0.6281X0.6062*%
%ADD62R,0.4500X0.5500*%
%ADD81R,0.3541X0.2627*%
%ADD83R,0.4500X0.3500*%
%ADD129R,0.5500X0.4500*%
%ADD130R,0.4767X0.4034*%
%ADD131R,0.6596X0.6621*%
%ADD132R,0.3000X0.2500*%
%ADD133R,0.5000X0.4000*%
%ADD134R,0.4541X0.3627*%
%ADD135R,0.3627X0.4541*%
%ADD136R,0.3000X0.2500*%
%ADD137R,0.3500X0.4500*%
%ADD138R,0.7500X1.4000*%
D28*
X485548Y400153D02*
D03*
X314414Y336406D02*
D03*
X485548Y393067D02*
D03*
X314414Y343492D02*
D03*
D29*
X703871Y479492D02*
D03*
X877957Y323492D02*
D03*
X634414Y493492D02*
D03*
X487328Y363492D02*
D03*
X574414Y323492D02*
D03*
X870871D02*
D03*
X391500Y363492D02*
D03*
X641500Y493492D02*
D03*
X710957Y479492D02*
D03*
X494414Y363492D02*
D03*
X261500Y403492D02*
D03*
X254414D02*
D03*
X384414Y363492D02*
D03*
X567328Y323492D02*
D03*
D32*
X677904Y453492D02*
D03*
X650923Y423492D02*
D03*
X694414Y453492D02*
D03*
X634414Y423492D02*
D03*
D33*
X684414Y316406D02*
D03*
X334414Y343492D02*
D03*
X574414Y476406D02*
D03*
X404414Y413492D02*
D03*
X344414D02*
D03*
X1215888Y453703D02*
D03*
X1144768D02*
D03*
X1174414Y440578D02*
D03*
X1072378Y453703D02*
D03*
X874414Y450578D02*
D03*
X844414D02*
D03*
X804414D02*
D03*
X894414Y390578D02*
D03*
X844414Y393492D02*
D03*
X804414Y407035D02*
D03*
X754414Y386406D02*
D03*
X684414Y323492D02*
D03*
X614414Y490578D02*
D03*
X574414Y483492D02*
D03*
X564414Y440578D02*
D03*
X404414Y420578D02*
D03*
X344414D02*
D03*
X584414Y363492D02*
D03*
X334414Y350578D02*
D03*
X844414Y386406D02*
D03*
X1174414Y433492D02*
D03*
X1072378Y446617D02*
D03*
X1215888D02*
D03*
X1144768D02*
D03*
X564414Y433492D02*
D03*
X754414Y393492D02*
D03*
X614414Y483492D02*
D03*
X894414Y383492D02*
D03*
X804414Y399949D02*
D03*
X844414Y443492D02*
D03*
X584414Y356406D02*
D03*
X874414Y443492D02*
D03*
X804414D02*
D03*
D34*
X375058Y392720D02*
D03*
X884414Y413492D02*
D03*
X375058Y400500D02*
D03*
X884414Y421273D02*
D03*
D35*
X409958Y330000D02*
D03*
X465838D02*
D03*
X824414Y400692D02*
D03*
X465838Y335600D02*
D03*
X409958D02*
D03*
X444414Y220692D02*
D03*
Y226292D02*
D03*
X824414Y406292D02*
D03*
D36*
X494414Y473492D02*
D03*
X634414Y393492D02*
D03*
X701500Y423492D02*
D03*
X671500Y373492D02*
D03*
X601500Y403492D02*
D03*
X621500Y373492D02*
D03*
X654414Y343492D02*
D03*
X454414Y443492D02*
D03*
X854414Y473492D02*
D03*
X817328Y463492D02*
D03*
X787328Y423492D02*
D03*
X694414D02*
D03*
X847328Y413492D02*
D03*
X867328Y393492D02*
D03*
Y363492D02*
D03*
X837328D02*
D03*
X844414Y323492D02*
D03*
X794414Y383492D02*
D03*
X804414Y363492D02*
D03*
X727328D02*
D03*
X804414Y343492D02*
D03*
X754414Y333492D02*
D03*
X704414Y323492D02*
D03*
X597328Y463492D02*
D03*
X487328Y473492D02*
D03*
X461500Y443492D02*
D03*
X327328D02*
D03*
X627328Y393492D02*
D03*
X664414Y373492D02*
D03*
X614414D02*
D03*
X647328Y343492D02*
D03*
X594414Y403492D02*
D03*
X424414Y363492D02*
D03*
X224414Y303492D02*
D03*
X811500Y363492D02*
D03*
X844414D02*
D03*
X801500Y383492D02*
D03*
X874414Y363492D02*
D03*
X231500Y303492D02*
D03*
X334414Y443492D02*
D03*
X431500Y363492D02*
D03*
X734414D02*
D03*
X711500Y323492D02*
D03*
X761500Y333492D02*
D03*
X837328Y323492D02*
D03*
X874414Y393492D02*
D03*
X604414Y463492D02*
D03*
X811500Y343492D02*
D03*
X824414Y463492D02*
D03*
X861500Y473492D02*
D03*
X854414Y413492D02*
D03*
X794414Y423492D02*
D03*
D37*
X519178Y333368D02*
D03*
Y342392D02*
D03*
D41*
X676414Y421578D02*
D03*
X824414Y386035D02*
D03*
X689414Y389035D02*
D03*
X494414Y330949D02*
D03*
X624414Y448578D02*
D03*
X674414Y496035D02*
D03*
X401414Y384062D02*
D03*
X494414Y336035D02*
D03*
X604414Y436035D02*
D03*
X645414Y372035D02*
D03*
X464414Y410949D02*
D03*
X284414Y360949D02*
D03*
X645414Y366949D02*
D03*
X624414Y443492D02*
D03*
X676414Y416492D02*
D03*
X401414Y378976D02*
D03*
X674414Y490949D02*
D03*
X604414Y430949D02*
D03*
X1174414Y400949D02*
D03*
Y406035D02*
D03*
X284414Y366035D02*
D03*
X464414Y416035D02*
D03*
X500488Y412117D02*
D03*
Y417203D02*
D03*
X824414Y380949D02*
D03*
X689414Y383949D02*
D03*
D45*
X890014Y343492D02*
D03*
X884414D02*
D03*
D57*
X914414Y406626D02*
D03*
Y400358D02*
D03*
D59*
X1034414Y363492D02*
D03*
X314414Y403492D02*
D03*
X344414Y373492D02*
D03*
X1025414Y363492D02*
D03*
X305414Y403492D02*
D03*
X335414Y373492D02*
D03*
D60*
X1044414Y394492D02*
D03*
X724414Y444492D02*
D03*
X1044414Y403492D02*
D03*
X554414Y473492D02*
D03*
X370788Y445510D02*
D03*
X299668D02*
D03*
X554414Y482492D02*
D03*
X724414Y453492D02*
D03*
X299668Y436510D02*
D03*
X370788D02*
D03*
D61*
X662195Y393492D02*
D03*
X826633Y433492D02*
D03*
X634414Y463492D02*
D03*
X654414Y393492D02*
D03*
X244414Y363492D02*
D03*
X642195Y463492D02*
D03*
X252195Y363492D02*
D03*
X834414Y433492D02*
D03*
D62*
X715414Y391492D02*
D03*
X684414Y350992D02*
D03*
X715414Y383992D02*
D03*
X684414Y343492D02*
D03*
D81*
X1124414Y363492D02*
D03*
X666957Y303492D02*
D03*
X661871D02*
D03*
X534414Y423492D02*
D03*
X916957Y453492D02*
D03*
X911871D02*
D03*
X1129500Y363492D02*
D03*
X539500Y423492D02*
D03*
D83*
X574414Y393492D02*
D03*
X567914D02*
D03*
D129*
X524414Y473492D02*
D03*
X618164Y333492D02*
D03*
X666414Y479492D02*
D03*
X514414Y443492D02*
D03*
X464414Y363492D02*
D03*
X610664Y333492D02*
D03*
X524414Y363492D02*
D03*
X531914Y473492D02*
D03*
X673914Y479492D02*
D03*
X707914Y351492D02*
D03*
X715414D02*
D03*
X531914Y363492D02*
D03*
X494414Y453492D02*
D03*
X486914D02*
D03*
X521914Y443492D02*
D03*
X456914Y363492D02*
D03*
D130*
X447548Y473492D02*
D03*
X1194414Y363492D02*
D03*
X441280Y473492D02*
D03*
X1200682Y363492D02*
D03*
D131*
X431641Y395340D02*
D03*
X422616D02*
D03*
D132*
X1144414Y385867D02*
D03*
X1054414Y353492D02*
D03*
X424414Y443492D02*
D03*
X455968Y295175D02*
D03*
X334414Y295867D02*
D03*
X424414Y448242D02*
D03*
X1144414Y381117D02*
D03*
X1054414Y348742D02*
D03*
X334414Y291117D02*
D03*
X455968Y290425D02*
D03*
D133*
X1108414Y386992D02*
D03*
X1100414Y379992D02*
D03*
Y386992D02*
D03*
X1108414Y379992D02*
D03*
D134*
X734414Y413492D02*
D03*
X740500D02*
D03*
D135*
X214414Y369578D02*
D03*
Y363492D02*
D03*
D136*
X524414Y503492D02*
D03*
X529914D02*
D03*
D137*
X218548Y412680D02*
D03*
Y419180D02*
D03*
D138*
X525818Y399150D02*
D03*
X511318D02*
D03*
M02*
