G04*
G04 #@! TF.GenerationSoftware,Altium Limited,Altium Designer,26.7.1 (11)*
G04*
G04 Layer_Color=8421504*
G04 Board_Origin=26771654|24803150*
%FSLAX44Y44*%
%MOMM*%
G71*
G04*
G04 #@! TF.SameCoordinates,D9171914-07D6-4B2F-AF4B-0BE730A3B9D6*
G04*
G04*
G04 #@! TF.FilePolarity,Positive*
G04*
G01*
G75*
%ADD19C,0.4000*%
%ADD20R,0.9330X1.7330*%
%ADD21R,1.4500X1.5000*%
%ADD22R,1.4500X1.5000*%
%ADD23R,1.5000X1.4500*%
%ADD24R,1.5000X1.4500*%
%ADD25C,0.2500*%
%ADD26R,0.3000X0.8000*%
%ADD27C,0.3400*%
%ADD28R,0.4627X0.5541*%
%ADD29R,0.5541X0.4627*%
%ADD30R,0.5000X1.1250*%
%ADD31R,1.1062X1.2552*%
%ADD32R,1.2552X1.1062*%
%ADD33R,0.4627X0.5541*%
%ADD34R,0.6062X0.6281*%
%ADD35R,0.3200X0.3600*%
%ADD36R,0.5541X0.4627*%
%ADD37R,0.6621X0.6596*%
%ADD38R,0.6500X0.7000*%
%ADD39R,1.5549X2.3062*%
%ADD40C,0.3500*%
%ADD41R,0.2627X0.3541*%
%ADD42R,1.8000X1.2000*%
%ADD43R,1.3000X0.6000*%
%ADD44R,0.8000X0.9000*%
%ADD45R,0.3600X0.3200*%
%ADD46R,0.9000X1.5000*%
G04:AMPARAMS|DCode=47|XSize=0.27mm|YSize=0.84mm|CornerRadius=0.0338mm|HoleSize=0mm|Usage=FLASHONLY|Rotation=90.000|XOffset=0mm|YOffset=0mm|HoleType=Round|Shape=RoundedRectangle|*
%AMROUNDEDRECTD47*
21,1,0.2700,0.7725,0,0,90.0*
21,1,0.2025,0.8400,0,0,90.0*
1,1,0.0675,0.3863,0.1013*
1,1,0.0675,0.3863,-0.1013*
1,1,0.0675,-0.3863,-0.1013*
1,1,0.0675,-0.3863,0.1013*
%
%ADD47ROUNDEDRECTD47*%
%ADD48R,0.8000X0.7000*%
%ADD49R,1.5000X0.9000*%
%ADD50R,0.8500X0.6000*%
%ADD51R,1.2000X1.7000*%
%ADD52R,0.5000X1.1000*%
%ADD53R,1.6000X3.0000*%
%ADD54R,0.4000X0.8000*%
G04:AMPARAMS|DCode=55|XSize=0.84mm|YSize=0.27mm|CornerRadius=0.0338mm|HoleSize=0mm|Usage=FLASHONLY|Rotation=90.000|XOffset=0mm|YOffset=0mm|HoleType=Round|Shape=RoundedRectangle|*
%AMROUNDEDRECTD55*
21,1,0.8400,0.2025,0,0,90.0*
21,1,0.7725,0.2700,0,0,90.0*
1,1,0.0675,0.1013,0.3863*
1,1,0.0675,0.1013,-0.3863*
1,1,0.0675,-0.1013,-0.3863*
1,1,0.0675,-0.1013,0.3863*
%
%ADD55ROUNDEDRECTD55*%
%ADD56R,0.7000X0.7000*%
%ADD57R,0.4034X0.4767*%
%ADD58R,1.1250X0.5000*%
G04:AMPARAMS|DCode=59|XSize=0.55mm|YSize=0.5mm|CornerRadius=0.0625mm|HoleSize=0mm|Usage=FLASHONLY|Rotation=90.000|XOffset=0mm|YOffset=0mm|HoleType=Round|Shape=RoundedRectangle|*
%AMROUNDEDRECTD59*
21,1,0.5500,0.3750,0,0,90.0*
21,1,0.4250,0.5000,0,0,90.0*
1,1,0.1250,0.1875,0.2125*
1,1,0.1250,0.1875,-0.2125*
1,1,0.1250,-0.1875,-0.2125*
1,1,0.1250,-0.1875,0.2125*
%
%ADD59ROUNDEDRECTD59*%
G04:AMPARAMS|DCode=60|XSize=0.55mm|YSize=0.5mm|CornerRadius=0.0625mm|HoleSize=0mm|Usage=FLASHONLY|Rotation=180.000|XOffset=0mm|YOffset=0mm|HoleType=Round|Shape=RoundedRectangle|*
%AMROUNDEDRECTD60*
21,1,0.5500,0.3750,0,0,180.0*
21,1,0.4250,0.5000,0,0,180.0*
1,1,0.1250,-0.2125,0.1875*
1,1,0.1250,0.2125,0.1875*
1,1,0.1250,0.2125,-0.1875*
1,1,0.1250,-0.2125,-0.1875*
%
%ADD60ROUNDEDRECTD60*%
%ADD61R,0.6281X0.6062*%
%ADD62R,0.4500X0.5500*%
%ADD63R,1.4000X1.6000*%
%ADD64R,1.0000X3.2000*%
%ADD65R,1.0000X1.0000*%
G04:AMPARAMS|DCode=66|XSize=0.76mm|YSize=0.6604mm|CornerRadius=0.0825mm|HoleSize=0mm|Usage=FLASHONLY|Rotation=270.000|XOffset=0mm|YOffset=0mm|HoleType=Round|Shape=RoundedRectangle|*
%AMROUNDEDRECTD66*
21,1,0.7600,0.4953,0,0,270.0*
21,1,0.5949,0.6604,0,0,270.0*
1,1,0.1651,-0.2477,-0.2975*
1,1,0.1651,-0.2477,0.2975*
1,1,0.1651,0.2477,0.2975*
1,1,0.1651,0.2477,-0.2975*
%
%ADD66ROUNDEDRECTD66*%
%ADD67R,0.7000X0.3000*%
%ADD68R,1.5000X1.5000*%
%ADD69R,1.1000X0.6000*%
%ADD70R,0.9500X0.4500*%
%ADD71R,3.4500X4.3500*%
G04:AMPARAMS|DCode=72|XSize=0.881mm|YSize=0.2925mm|CornerRadius=0.1462mm|HoleSize=0mm|Usage=FLASHONLY|Rotation=0.000|XOffset=0mm|YOffset=0mm|HoleType=Round|Shape=RoundedRectangle|*
%AMROUNDEDRECTD72*
21,1,0.8810,0.0000,0,0,0.0*
21,1,0.5886,0.2925,0,0,0.0*
1,1,0.2925,0.2943,0.0000*
1,1,0.2925,-0.2943,0.0000*
1,1,0.2925,-0.2943,0.0000*
1,1,0.2925,0.2943,0.0000*
%
%ADD72ROUNDEDRECTD72*%
G04:AMPARAMS|DCode=73|XSize=0.76mm|YSize=0.6604mm|CornerRadius=0.0825mm|HoleSize=0mm|Usage=FLASHONLY|Rotation=180.000|XOffset=0mm|YOffset=0mm|HoleType=Round|Shape=RoundedRectangle|*
%AMROUNDEDRECTD73*
21,1,0.7600,0.4953,0,0,180.0*
21,1,0.5949,0.6604,0,0,180.0*
1,1,0.1651,-0.2975,0.2477*
1,1,0.1651,0.2975,0.2477*
1,1,0.1651,0.2975,-0.2477*
1,1,0.1651,-0.2975,-0.2477*
%
%ADD73ROUNDEDRECTD73*%
%ADD74R,0.5400X0.5800*%
G04:AMPARAMS|DCode=75|XSize=0.2mm|YSize=0.6mm|CornerRadius=0.05mm|HoleSize=0mm|Usage=FLASHONLY|Rotation=0.000|XOffset=0mm|YOffset=0mm|HoleType=Round|Shape=RoundedRectangle|*
%AMROUNDEDRECTD75*
21,1,0.2000,0.5000,0,0,0.0*
21,1,0.1000,0.6000,0,0,0.0*
1,1,0.1000,0.0500,-0.2500*
1,1,0.1000,-0.0500,-0.2500*
1,1,0.1000,-0.0500,0.2500*
1,1,0.1000,0.0500,0.2500*
%
%ADD75ROUNDEDRECTD75*%
%ADD76R,0.3000X0.7000*%
%ADD77R,0.8810X0.2925*%
%ADD78R,1.7000X2.5000*%
%ADD79R,2.5000X1.7000*%
G04:AMPARAMS|DCode=80|XSize=1.05mm|YSize=0.4mm|CornerRadius=0.05mm|HoleSize=0mm|Usage=FLASHONLY|Rotation=0.000|XOffset=0mm|YOffset=0mm|HoleType=Round|Shape=RoundedRectangle|*
%AMROUNDEDRECTD80*
21,1,1.0500,0.3000,0,0,0.0*
21,1,0.9500,0.4000,0,0,0.0*
1,1,0.1000,0.4750,-0.1500*
1,1,0.1000,-0.4750,-0.1500*
1,1,0.1000,-0.4750,0.1500*
1,1,0.1000,0.4750,0.1500*
%
%ADD80ROUNDEDRECTD80*%
%ADD81R,0.3541X0.2627*%
%ADD82R,2.3062X1.5549*%
%ADD83R,0.4500X0.3500*%
%ADD84R,1.1000X0.3000*%
%ADD85R,1.0000X5.5000*%
%ADD86R,1.1061X0.9582*%
G36*
X307414Y394992D02*
X301414D01*
Y391992D01*
X307414D01*
Y394992D01*
D02*
G37*
G36*
X311914Y390492D02*
X308914D01*
Y384492D01*
X311914D01*
Y390492D01*
D02*
G37*
G36*
X307414Y399992D02*
X301414D01*
Y396992D01*
X307414D01*
Y399992D01*
D02*
G37*
G36*
Y404992D02*
X301414D01*
Y401992D01*
X307414D01*
Y404992D01*
D02*
G37*
G36*
Y409992D02*
X301414D01*
Y406992D01*
X307414D01*
Y409992D01*
D02*
G37*
G36*
X316914Y390492D02*
X313914D01*
Y384492D01*
X316914D01*
Y390492D01*
D02*
G37*
G36*
X321914D02*
X318914D01*
Y384492D01*
X321914D01*
Y390492D01*
D02*
G37*
G36*
X326914D02*
X323914D01*
Y384492D01*
X326914D01*
Y390492D01*
D02*
G37*
G36*
X331914D02*
X328914D01*
Y384492D01*
X331914D01*
Y390492D01*
D02*
G37*
G36*
X336914D02*
X333914D01*
Y384492D01*
X336914D01*
Y390492D01*
D02*
G37*
G36*
X307414Y414992D02*
X301414D01*
Y411992D01*
X307414D01*
Y414992D01*
D02*
G37*
G36*
Y419992D02*
X301414D01*
Y416992D01*
X307414D01*
Y419992D01*
D02*
G37*
G36*
Y424992D02*
X301414D01*
Y421992D01*
X307414D01*
Y424992D01*
D02*
G37*
G36*
Y429992D02*
X301414D01*
Y426992D01*
X307414D01*
Y429992D01*
D02*
G37*
G36*
X311914Y437492D02*
X308914D01*
Y431492D01*
X311914D01*
Y437492D01*
D02*
G37*
G36*
X316914D02*
X313914D01*
Y431492D01*
X316914D01*
Y437492D01*
D02*
G37*
G36*
X321914D02*
X318914D01*
Y431492D01*
X321914D01*
Y437492D01*
D02*
G37*
G36*
X326914D02*
X323914D01*
Y431492D01*
X326914D01*
Y437492D01*
D02*
G37*
G36*
X331914D02*
X328914D01*
Y431492D01*
X331914D01*
Y437492D01*
D02*
G37*
G36*
X336914D02*
X333914D01*
Y431492D01*
X336914D01*
Y437492D01*
D02*
G37*
G36*
X346914Y431492D02*
X343914D01*
Y437492D01*
X346914D01*
Y431492D01*
D02*
G37*
G36*
X341914D02*
X338914D01*
Y437492D01*
X341914D01*
Y431492D01*
D02*
G37*
G36*
X354414Y426992D02*
X348414D01*
Y429992D01*
X354414D01*
Y426992D01*
D02*
G37*
G36*
Y421992D02*
X348414D01*
Y424992D01*
X354414D01*
Y421992D01*
D02*
G37*
G36*
Y416992D02*
X348414D01*
Y419992D01*
X354414D01*
Y416992D01*
D02*
G37*
G36*
Y411992D02*
X348414D01*
Y414992D01*
X354414D01*
Y411992D01*
D02*
G37*
G36*
Y406992D02*
X348414D01*
Y409992D01*
X354414D01*
Y406992D01*
D02*
G37*
G36*
Y401992D02*
X348414D01*
Y404992D01*
X354414D01*
Y401992D01*
D02*
G37*
G36*
Y396992D02*
X348414D01*
Y399992D01*
X354414D01*
Y396992D01*
D02*
G37*
G36*
Y391992D02*
X348414D01*
Y394992D01*
X354414D01*
Y391992D01*
D02*
G37*
G36*
X346914Y384492D02*
X343914D01*
Y390492D01*
X346914D01*
Y384492D01*
D02*
G37*
G36*
X341914D02*
X338914D01*
Y390492D01*
X341914D01*
Y384492D01*
D02*
G37*
G36*
X1122664Y252492D02*
X1123062D01*
X1123797Y252188D01*
X1124360Y251625D01*
X1124664Y250890D01*
Y250492D01*
Y250094D01*
X1124360Y249359D01*
X1123797Y248797D01*
X1123062Y248492D01*
X1119766D01*
X1119031Y248797D01*
X1118468Y249359D01*
X1118164Y250094D01*
Y250492D01*
Y250890D01*
X1118468Y251625D01*
X1119031Y252188D01*
X1119766Y252492D01*
X1120164D01*
Y252492D01*
X1122664Y252492D01*
D02*
G37*
G36*
X1105664D02*
X1106062D01*
X1106797Y252188D01*
X1107359Y251625D01*
X1107664Y250890D01*
Y250492D01*
Y250094D01*
X1107359Y249359D01*
X1106797Y248797D01*
X1106062Y248492D01*
X1102766D01*
X1102031Y248797D01*
X1101469Y249359D01*
X1101164Y250094D01*
Y250492D01*
Y250890D01*
X1101469Y251625D01*
X1102031Y252188D01*
X1102766Y252492D01*
X1103164D01*
Y252492D01*
X1105664Y252492D01*
D02*
G37*
G36*
X1055664D02*
X1056062D01*
X1056797Y252188D01*
X1057359Y251625D01*
X1057664Y250890D01*
Y250492D01*
Y250094D01*
X1057359Y249359D01*
X1056797Y248797D01*
X1056062Y248492D01*
X1052766D01*
X1052031Y248797D01*
X1051469Y249359D01*
X1051164Y250094D01*
Y250492D01*
Y250890D01*
X1051469Y251625D01*
X1052031Y252188D01*
X1052766Y252492D01*
X1053164D01*
Y252492D01*
X1055664Y252492D01*
D02*
G37*
G36*
X1038664D02*
X1039062D01*
X1039797Y252188D01*
X1040359Y251625D01*
X1040664Y250890D01*
Y250492D01*
Y250094D01*
X1040359Y249359D01*
X1039797Y248797D01*
X1039062Y248492D01*
X1035766D01*
X1035031Y248797D01*
X1034469Y249359D01*
X1034164Y250094D01*
Y250492D01*
Y250890D01*
X1034469Y251625D01*
X1035031Y252188D01*
X1035766Y252492D01*
X1036164D01*
Y252492D01*
X1038664Y252492D01*
D02*
G37*
G36*
X1123797Y245187D02*
X1124360Y244625D01*
X1124664Y243890D01*
Y243492D01*
Y243094D01*
X1124360Y242359D01*
X1123797Y241796D01*
X1123062Y241492D01*
X1119766D01*
X1119031Y241796D01*
X1118468Y242359D01*
X1118164Y243094D01*
Y243492D01*
Y243890D01*
X1118468Y244625D01*
X1119031Y245187D01*
X1119766Y245492D01*
X1123062D01*
X1123797Y245187D01*
D02*
G37*
G36*
X1106797D02*
X1107359Y244625D01*
X1107664Y243890D01*
Y243492D01*
Y243094D01*
X1107359Y242359D01*
X1106797Y241796D01*
X1106062Y241492D01*
X1102766D01*
X1102031Y241796D01*
X1101469Y242359D01*
X1101164Y243094D01*
Y243492D01*
Y243890D01*
X1101469Y244625D01*
X1102031Y245187D01*
X1102766Y245492D01*
X1106062D01*
X1106797Y245187D01*
D02*
G37*
G36*
X1056797D02*
X1057359Y244625D01*
X1057664Y243890D01*
Y243492D01*
Y243094D01*
X1057359Y242359D01*
X1056797Y241796D01*
X1056062Y241492D01*
X1052766D01*
X1052031Y241796D01*
X1051469Y242359D01*
X1051164Y243094D01*
Y243492D01*
Y243890D01*
X1051469Y244625D01*
X1052031Y245187D01*
X1052766Y245492D01*
X1056062D01*
X1056797Y245187D01*
D02*
G37*
G36*
X1039797D02*
X1040359Y244625D01*
X1040664Y243890D01*
Y243492D01*
Y243094D01*
X1040359Y242359D01*
X1039797Y241796D01*
X1039062Y241492D01*
X1035766D01*
X1035031Y241796D01*
X1034469Y242359D01*
X1034164Y243094D01*
Y243492D01*
Y243890D01*
X1034469Y244625D01*
X1035031Y245187D01*
X1035766Y245492D01*
X1039062D01*
X1039797Y245187D01*
D02*
G37*
D19*
X1106904Y270572D02*
G03*
X1105342Y267874I6010J-5281D01*
G01*
Y262710D02*
G03*
X1106904Y260012I7572J2582D01*
G01*
X1111239Y257469D02*
G03*
X1114589Y257469I1675J7823D01*
G01*
X1118924Y260012D02*
G03*
X1120486Y262710I-6010J5280D01*
G01*
X1120486Y267874D02*
G03*
X1118924Y270572I-7572J-2582D01*
G01*
X1114589Y273140D02*
G03*
X1111239Y273140I-1675J-7823D01*
G01*
X1039904Y270572D02*
G03*
X1038342Y267874I6010J-5281D01*
G01*
Y262710D02*
G03*
X1039904Y260012I7572J2582D01*
G01*
X1044239Y257469D02*
G03*
X1047589Y257469I1675J7823D01*
G01*
X1051924Y260012D02*
G03*
X1053486Y262710I-6010J5280D01*
G01*
X1053486Y267874D02*
G03*
X1051924Y270572I-7572J-2582D01*
G01*
X1047589Y273140D02*
G03*
X1044239Y273140I-1675J-7823D01*
G01*
D20*
X254429Y373242D02*
D03*
D21*
X955914Y533494D02*
D03*
D22*
X914414D02*
D03*
X405164Y513493D02*
D03*
X363664D02*
D03*
D23*
X1284413Y354242D02*
D03*
X764417Y214242D02*
D03*
Y172742D02*
D03*
X1004415Y392739D02*
D03*
Y434239D02*
D03*
D24*
X1284413Y312742D02*
D03*
X944413Y434242D02*
D03*
Y392742D02*
D03*
X1194423Y232743D02*
D03*
Y274243D02*
D03*
D25*
X678414Y347492D02*
D03*
X674414Y351492D02*
D03*
Y347492D02*
D03*
X666414Y351492D02*
D03*
X662414D02*
D03*
Y347492D02*
D03*
X686414Y331492D02*
D03*
X682414Y347492D02*
D03*
Y335492D02*
D03*
X678414D02*
D03*
Y339492D02*
D03*
Y343492D02*
D03*
X674414Y339492D02*
D03*
Y331492D02*
D03*
Y343492D02*
D03*
X670414Y331492D02*
D03*
Y335492D02*
D03*
X666414Y347492D02*
D03*
Y343492D02*
D03*
Y339492D02*
D03*
Y335492D02*
D03*
X662414Y331492D02*
D03*
Y335492D02*
D03*
Y339492D02*
D03*
Y343492D02*
D03*
X658414Y335492D02*
D03*
Y331492D02*
D03*
X654414Y343492D02*
D03*
Y335492D02*
D03*
X638414Y351492D02*
D03*
X630414D02*
D03*
X626414D02*
D03*
X609414Y347492D02*
D03*
Y343492D02*
D03*
Y339492D02*
D03*
Y331492D02*
D03*
X605414Y343492D02*
D03*
Y331492D02*
D03*
Y335492D02*
D03*
X650414Y351492D02*
D03*
X654414D02*
D03*
X642414D02*
D03*
X654414Y339492D02*
D03*
X650414Y347492D02*
D03*
Y343492D02*
D03*
Y339492D02*
D03*
Y335492D02*
D03*
Y331492D02*
D03*
X646414Y335492D02*
D03*
Y331492D02*
D03*
X642414Y347492D02*
D03*
Y339492D02*
D03*
X638414D02*
D03*
Y335492D02*
D03*
Y331492D02*
D03*
X634414Y335492D02*
D03*
Y331492D02*
D03*
X630414Y335492D02*
D03*
X626414Y331492D02*
D03*
Y335492D02*
D03*
X622414D02*
D03*
Y331492D02*
D03*
X614414Y347492D02*
D03*
X597414D02*
D03*
X601414D02*
D03*
X593414Y351492D02*
D03*
Y347492D02*
D03*
X618414Y343492D02*
D03*
Y339492D02*
D03*
Y335492D02*
D03*
X614414Y343492D02*
D03*
Y339492D02*
D03*
Y331492D02*
D03*
Y335492D02*
D03*
X601414Y343492D02*
D03*
Y339492D02*
D03*
Y335492D02*
D03*
X597414Y339492D02*
D03*
Y331492D02*
D03*
X593414Y343492D02*
D03*
Y339492D02*
D03*
Y331492D02*
D03*
Y335492D02*
D03*
X589414Y339492D02*
D03*
Y335492D02*
D03*
Y343492D02*
D03*
X699414Y347492D02*
D03*
X690414D02*
D03*
X719414Y343492D02*
D03*
Y339492D02*
D03*
Y335492D02*
D03*
X715414Y339492D02*
D03*
Y335492D02*
D03*
Y331492D02*
D03*
X711414D02*
D03*
Y339492D02*
D03*
Y343492D02*
D03*
X707414D02*
D03*
Y335492D02*
D03*
Y339492D02*
D03*
X703414Y335492D02*
D03*
X699414D02*
D03*
Y339492D02*
D03*
Y343492D02*
D03*
Y331492D02*
D03*
X694414Y347492D02*
D03*
Y335492D02*
D03*
Y343492D02*
D03*
Y339492D02*
D03*
X690414Y335492D02*
D03*
Y339492D02*
D03*
Y343492D02*
D03*
X686414Y339492D02*
D03*
X719414Y351492D02*
D03*
X715414Y347492D02*
D03*
X711414Y351492D02*
D03*
Y347492D02*
D03*
X707414D02*
D03*
X690414Y463492D02*
D03*
X703414Y460492D02*
D03*
X707414D02*
D03*
X662414Y463492D02*
D03*
X650414D02*
D03*
X654414D02*
D03*
Y467492D02*
D03*
X662414D02*
D03*
X678414D02*
D03*
Y463492D02*
D03*
X674414D02*
D03*
X666414D02*
D03*
X674414Y467492D02*
D03*
X711414Y483492D02*
D03*
X715414D02*
D03*
X699414D02*
D03*
X694414D02*
D03*
X703414Y479492D02*
D03*
X707414D02*
D03*
X715414D02*
D03*
X719414D02*
D03*
X694414D02*
D03*
X699414Y475492D02*
D03*
X707414D02*
D03*
X711414D02*
D03*
X694414D02*
D03*
X690414D02*
D03*
X719414Y468492D02*
D03*
X699414Y470492D02*
D03*
X707414Y468492D02*
D03*
X711414D02*
D03*
X715414D02*
D03*
X694414Y471492D02*
D03*
X690414D02*
D03*
X703414Y464492D02*
D03*
X690414Y467492D02*
D03*
X686414Y483492D02*
D03*
X682414D02*
D03*
X674414D02*
D03*
X670414D02*
D03*
X662414D02*
D03*
X658414D02*
D03*
X650414D02*
D03*
X686414Y479492D02*
D03*
X682414D02*
D03*
X674414D02*
D03*
X670414D02*
D03*
X666414D02*
D03*
X658414D02*
D03*
X662414D02*
D03*
X682414Y475492D02*
D03*
X674414D02*
D03*
X666414D02*
D03*
X662414D02*
D03*
X654414D02*
D03*
X682414Y471492D02*
D03*
X674414D02*
D03*
X666414D02*
D03*
X654414D02*
D03*
X662414D02*
D03*
X666414Y467492D02*
D03*
X715414Y464492D02*
D03*
X711414D02*
D03*
X715414Y460492D02*
D03*
X711414D02*
D03*
X642414Y463492D02*
D03*
X609414Y475492D02*
D03*
X618414Y471492D02*
D03*
X614414Y475492D02*
D03*
Y471492D02*
D03*
Y467492D02*
D03*
X605414Y461492D02*
D03*
X609414Y469492D02*
D03*
Y461492D02*
D03*
X650414Y479492D02*
D03*
Y475492D02*
D03*
Y471492D02*
D03*
Y467492D02*
D03*
X646414Y483492D02*
D03*
Y479492D02*
D03*
Y475492D02*
D03*
X642414Y479492D02*
D03*
Y475492D02*
D03*
Y471492D02*
D03*
Y467492D02*
D03*
X638414Y479492D02*
D03*
Y483492D02*
D03*
Y475492D02*
D03*
Y471492D02*
D03*
Y467492D02*
D03*
X634414Y483492D02*
D03*
Y479492D02*
D03*
Y475492D02*
D03*
X630414D02*
D03*
Y471492D02*
D03*
X626414Y479492D02*
D03*
Y483492D02*
D03*
Y475492D02*
D03*
Y471492D02*
D03*
X622414Y483492D02*
D03*
Y479492D02*
D03*
X618414Y475492D02*
D03*
X638414Y463492D02*
D03*
X626414Y467492D02*
D03*
Y463492D02*
D03*
X630414Y467492D02*
D03*
X609414Y483492D02*
D03*
Y479492D02*
D03*
X605414D02*
D03*
Y483492D02*
D03*
X614414Y479492D02*
D03*
Y483492D02*
D03*
X601414Y479492D02*
D03*
Y475492D02*
D03*
X597414Y465492D02*
D03*
X601414Y469492D02*
D03*
X597414Y479492D02*
D03*
Y483492D02*
D03*
Y475492D02*
D03*
Y469492D02*
D03*
X601414Y461492D02*
D03*
X597414D02*
D03*
X593414Y483492D02*
D03*
X589414Y465492D02*
D03*
X593414Y479492D02*
D03*
Y465492D02*
D03*
X589414Y479492D02*
D03*
X593414Y461492D02*
D03*
Y470492D02*
D03*
Y475492D02*
D03*
X719414Y456492D02*
D03*
X711414Y455492D02*
D03*
X715414Y451492D02*
D03*
X711414D02*
D03*
X715414Y447492D02*
D03*
X711414D02*
D03*
X719414Y443492D02*
D03*
X711414D02*
D03*
X715414Y439492D02*
D03*
X689414Y459492D02*
D03*
X707414Y455492D02*
D03*
X703414D02*
D03*
X699414D02*
D03*
X684414D02*
D03*
X693414D02*
D03*
X707414Y447492D02*
D03*
X703414D02*
D03*
X689414D02*
D03*
X699414D02*
D03*
X707414Y443492D02*
D03*
X703414D02*
D03*
X699414D02*
D03*
X693414Y442492D02*
D03*
X684414D02*
D03*
X711414Y439492D02*
D03*
X715414Y435492D02*
D03*
X711414D02*
D03*
X707414D02*
D03*
X703414D02*
D03*
X719414Y431492D02*
D03*
X711414D02*
D03*
X707414D02*
D03*
X715414Y427492D02*
D03*
X711414D02*
D03*
X715414Y423492D02*
D03*
X711414D02*
D03*
X707414D02*
D03*
X719414Y419492D02*
D03*
X711414D02*
D03*
X707414D02*
D03*
X715414Y415492D02*
D03*
X711414D02*
D03*
X703414D02*
D03*
X715414Y411492D02*
D03*
X711414D02*
D03*
X707414D02*
D03*
X719414Y407492D02*
D03*
X711414D02*
D03*
X707414D02*
D03*
X699414Y435492D02*
D03*
X689414Y434492D02*
D03*
X693414D02*
D03*
X703414Y431492D02*
D03*
X693414Y429492D02*
D03*
X699414Y423492D02*
D03*
X689414Y421492D02*
D03*
X699414Y419492D02*
D03*
X684414Y416492D02*
D03*
X693414D02*
D03*
X703414Y411492D02*
D03*
X689414Y408492D02*
D03*
X693414D02*
D03*
X703414Y407492D02*
D03*
X699414D02*
D03*
X676414Y459492D02*
D03*
Y455492D02*
D03*
X671414D02*
D03*
X680414Y451492D02*
D03*
X676414D02*
D03*
Y447492D02*
D03*
X671414D02*
D03*
X676414Y442492D02*
D03*
X680414Y438492D02*
D03*
X676414D02*
D03*
X671414D02*
D03*
X676414Y434492D02*
D03*
X658414Y459492D02*
D03*
X663414Y455492D02*
D03*
X658414D02*
D03*
X663414Y451492D02*
D03*
Y447492D02*
D03*
X658414D02*
D03*
X654414D02*
D03*
X663414Y442492D02*
D03*
X654414D02*
D03*
X663414Y438492D02*
D03*
X658414D02*
D03*
X663414Y434492D02*
D03*
X650414D02*
D03*
X684414Y429492D02*
D03*
X676414D02*
D03*
X671414D02*
D03*
X663414D02*
D03*
X680414Y425492D02*
D03*
X676414D02*
D03*
X663414D02*
D03*
X676414Y421492D02*
D03*
X671414D02*
D03*
X680414Y412492D02*
D03*
X667414D02*
D03*
X671414Y408492D02*
D03*
X667414D02*
D03*
X663414D02*
D03*
Y421492D02*
D03*
X658414Y429492D02*
D03*
Y421492D02*
D03*
Y412492D02*
D03*
Y408492D02*
D03*
X654414D02*
D03*
X650414Y459492D02*
D03*
X645414Y447492D02*
D03*
Y451492D02*
D03*
X641414D02*
D03*
Y447492D02*
D03*
X637414Y459492D02*
D03*
Y447492D02*
D03*
Y455492D02*
D03*
X632414D02*
D03*
X624414D02*
D03*
Y447492D02*
D03*
X619414Y455492D02*
D03*
Y451492D02*
D03*
X609414Y455492D02*
D03*
Y447492D02*
D03*
X605414Y455492D02*
D03*
Y447492D02*
D03*
X601414Y455492D02*
D03*
Y447492D02*
D03*
X597414Y455492D02*
D03*
Y447492D02*
D03*
Y451492D02*
D03*
X593414Y456492D02*
D03*
Y447492D02*
D03*
Y451492D02*
D03*
X589414Y456492D02*
D03*
Y451492D02*
D03*
X650414Y438492D02*
D03*
X645414D02*
D03*
X641414D02*
D03*
Y434492D02*
D03*
Y425492D02*
D03*
X637414Y438492D02*
D03*
Y425492D02*
D03*
X632414Y442492D02*
D03*
Y438492D02*
D03*
Y434492D02*
D03*
X628414Y438492D02*
D03*
Y425492D02*
D03*
X624414Y429492D02*
D03*
X619414Y438492D02*
D03*
X650414Y425492D02*
D03*
Y421492D02*
D03*
X645414Y425492D02*
D03*
Y408492D02*
D03*
Y412492D02*
D03*
X641414Y421492D02*
D03*
Y412492D02*
D03*
X637414D02*
D03*
Y408492D02*
D03*
X632414Y425492D02*
D03*
Y421492D02*
D03*
Y412492D02*
D03*
X628414D02*
D03*
Y408492D02*
D03*
X619414Y425492D02*
D03*
Y412492D02*
D03*
Y442492D02*
D03*
X609414Y443492D02*
D03*
Y435492D02*
D03*
Y431492D02*
D03*
Y423492D02*
D03*
X605414Y443492D02*
D03*
Y435492D02*
D03*
Y431492D02*
D03*
X601414Y443492D02*
D03*
Y435492D02*
D03*
Y431492D02*
D03*
X597414Y443492D02*
D03*
Y435492D02*
D03*
Y431492D02*
D03*
Y427492D02*
D03*
X593414Y443492D02*
D03*
Y439492D02*
D03*
Y435492D02*
D03*
Y431492D02*
D03*
Y427492D02*
D03*
X589414Y443492D02*
D03*
Y439492D02*
D03*
Y431492D02*
D03*
Y427492D02*
D03*
X615414Y416492D02*
D03*
X609414Y419492D02*
D03*
Y411492D02*
D03*
X605414Y423492D02*
D03*
Y419492D02*
D03*
Y411492D02*
D03*
Y407492D02*
D03*
X601414Y423492D02*
D03*
Y419492D02*
D03*
Y411492D02*
D03*
Y407492D02*
D03*
X597414Y423492D02*
D03*
Y419492D02*
D03*
Y415492D02*
D03*
Y407492D02*
D03*
Y411492D02*
D03*
X593414Y423492D02*
D03*
Y419492D02*
D03*
Y411492D02*
D03*
Y407492D02*
D03*
X589414Y419492D02*
D03*
Y415492D02*
D03*
Y407492D02*
D03*
X719414Y395492D02*
D03*
X715414Y391492D02*
D03*
Y403492D02*
D03*
Y399492D02*
D03*
Y387492D02*
D03*
X711414Y399492D02*
D03*
Y395492D02*
D03*
Y403492D02*
D03*
Y391492D02*
D03*
Y387492D02*
D03*
X707414Y399492D02*
D03*
Y395492D02*
D03*
Y387492D02*
D03*
X703414Y391492D02*
D03*
X699414Y399492D02*
D03*
Y395492D02*
D03*
Y387492D02*
D03*
X693414Y395492D02*
D03*
Y399492D02*
D03*
X689414Y395492D02*
D03*
X719414Y371492D02*
D03*
Y383492D02*
D03*
X715414Y379492D02*
D03*
Y375492D02*
D03*
X711414Y371492D02*
D03*
Y379492D02*
D03*
Y383492D02*
D03*
Y375492D02*
D03*
X707414Y371492D02*
D03*
Y375492D02*
D03*
Y383492D02*
D03*
X703414Y375492D02*
D03*
Y383492D02*
D03*
X699414Y371492D02*
D03*
Y383492D02*
D03*
Y375492D02*
D03*
X693414Y382492D02*
D03*
Y373492D02*
D03*
Y386492D02*
D03*
X689414Y382492D02*
D03*
Y369492D02*
D03*
X684414Y399492D02*
D03*
Y386492D02*
D03*
X680414Y403492D02*
D03*
Y390492D02*
D03*
X676414Y395492D02*
D03*
Y399492D02*
D03*
Y390492D02*
D03*
X671414Y399492D02*
D03*
Y390492D02*
D03*
X663414Y395492D02*
D03*
Y399492D02*
D03*
Y390492D02*
D03*
X658414Y399492D02*
D03*
Y390492D02*
D03*
X684414Y373492D02*
D03*
X680414Y377492D02*
D03*
X676414Y386492D02*
D03*
Y382492D02*
D03*
Y377492D02*
D03*
Y373492D02*
D03*
X671414Y382492D02*
D03*
Y373492D02*
D03*
X663414Y386492D02*
D03*
Y382492D02*
D03*
X658414D02*
D03*
X719414Y359492D02*
D03*
X715414Y367492D02*
D03*
Y363492D02*
D03*
X711414Y367492D02*
D03*
Y363492D02*
D03*
Y359492D02*
D03*
X707414Y363492D02*
D03*
Y359492D02*
D03*
X703414D02*
D03*
X699414Y363492D02*
D03*
Y359492D02*
D03*
X693414Y360492D02*
D03*
X689414Y356492D02*
D03*
X684414Y360492D02*
D03*
X680414Y356492D02*
D03*
Y364492D02*
D03*
X671414D02*
D03*
Y360492D02*
D03*
X667414Y364492D02*
D03*
X663414D02*
D03*
X658414Y356492D02*
D03*
X650414Y386492D02*
D03*
X645414Y395492D02*
D03*
Y399492D02*
D03*
X641414D02*
D03*
Y386492D02*
D03*
X637414Y399492D02*
D03*
Y395492D02*
D03*
Y386492D02*
D03*
X632414Y399492D02*
D03*
X628414D02*
D03*
Y395492D02*
D03*
X624414Y399492D02*
D03*
X650414Y382492D02*
D03*
X645414D02*
D03*
Y373492D02*
D03*
Y369492D02*
D03*
X641414Y382492D02*
D03*
Y369492D02*
D03*
X637414Y382492D02*
D03*
Y369492D02*
D03*
Y373492D02*
D03*
X632414Y382492D02*
D03*
Y369492D02*
D03*
X628414Y386492D02*
D03*
Y382492D02*
D03*
Y369492D02*
D03*
Y373492D02*
D03*
X619414Y399492D02*
D03*
Y403492D02*
D03*
Y395492D02*
D03*
X609414Y399492D02*
D03*
Y395492D02*
D03*
Y387492D02*
D03*
X605414Y399492D02*
D03*
Y395492D02*
D03*
Y387492D02*
D03*
X601414Y399492D02*
D03*
Y395492D02*
D03*
Y387492D02*
D03*
X597414Y399492D02*
D03*
Y395492D02*
D03*
Y391492D02*
D03*
Y387492D02*
D03*
X593414Y399492D02*
D03*
Y403492D02*
D03*
Y395492D02*
D03*
Y391492D02*
D03*
Y387492D02*
D03*
X589414Y403492D02*
D03*
Y391492D02*
D03*
X619414Y382492D02*
D03*
Y369492D02*
D03*
X615414Y386492D02*
D03*
Y382492D02*
D03*
X609414Y383492D02*
D03*
Y371492D02*
D03*
Y375492D02*
D03*
X605414Y383492D02*
D03*
Y375492D02*
D03*
Y371492D02*
D03*
X601414Y383492D02*
D03*
Y375492D02*
D03*
Y371492D02*
D03*
X597414Y383492D02*
D03*
Y379492D02*
D03*
Y375492D02*
D03*
Y371492D02*
D03*
X593414Y375492D02*
D03*
Y371492D02*
D03*
Y379492D02*
D03*
X589414Y383492D02*
D03*
Y379492D02*
D03*
Y371492D02*
D03*
X654414Y356492D02*
D03*
Y364492D02*
D03*
X650414Y360492D02*
D03*
X645414Y356492D02*
D03*
X637414Y364492D02*
D03*
X628414Y360492D02*
D03*
X624414D02*
D03*
X619414Y356492D02*
D03*
Y360492D02*
D03*
X615414Y364492D02*
D03*
X609414Y363492D02*
D03*
Y359492D02*
D03*
X605414D02*
D03*
Y363492D02*
D03*
X601414Y359492D02*
D03*
Y363492D02*
D03*
X597414Y359492D02*
D03*
Y363492D02*
D03*
X593414Y367492D02*
D03*
Y359492D02*
D03*
Y363492D02*
D03*
X589414Y359492D02*
D03*
Y367492D02*
D03*
X605414D02*
D03*
X615414Y356492D02*
D03*
Y360492D02*
D03*
X619414Y364492D02*
D03*
X624414Y356492D02*
D03*
Y364492D02*
D03*
X628414Y356492D02*
D03*
Y364492D02*
D03*
X632414Y356492D02*
D03*
Y364492D02*
D03*
Y360492D02*
D03*
X637414Y356492D02*
D03*
Y360492D02*
D03*
X641414D02*
D03*
Y356492D02*
D03*
Y364492D02*
D03*
X645414Y360492D02*
D03*
Y364492D02*
D03*
X650414D02*
D03*
Y356492D02*
D03*
X593414Y383492D02*
D03*
X597414Y367492D02*
D03*
X605414Y379492D02*
D03*
X615414Y369492D02*
D03*
Y377492D02*
D03*
Y373492D02*
D03*
X619414Y377492D02*
D03*
Y373492D02*
D03*
Y386492D02*
D03*
X589414Y395492D02*
D03*
X597414Y403492D02*
D03*
X605414Y391492D02*
D03*
Y403492D02*
D03*
X615414Y390492D02*
D03*
Y395492D02*
D03*
Y399492D02*
D03*
Y403492D02*
D03*
X619414Y390492D02*
D03*
X624414Y369492D02*
D03*
Y373492D02*
D03*
Y377492D02*
D03*
Y382492D02*
D03*
Y386492D02*
D03*
X628414Y377492D02*
D03*
X632414Y373492D02*
D03*
Y377492D02*
D03*
Y386492D02*
D03*
X637414Y377492D02*
D03*
X641414Y373492D02*
D03*
Y377492D02*
D03*
X645414D02*
D03*
Y386492D02*
D03*
X650414Y369492D02*
D03*
Y373492D02*
D03*
Y377492D02*
D03*
X624414Y390492D02*
D03*
Y403492D02*
D03*
Y395492D02*
D03*
X628414Y390492D02*
D03*
Y403492D02*
D03*
X632414Y390492D02*
D03*
Y395492D02*
D03*
Y403492D02*
D03*
X637414Y390492D02*
D03*
Y403492D02*
D03*
X641414Y390492D02*
D03*
Y395492D02*
D03*
Y403492D02*
D03*
X645414Y390492D02*
D03*
Y403492D02*
D03*
X650414Y390492D02*
D03*
Y399492D02*
D03*
Y395492D02*
D03*
Y403492D02*
D03*
X654414Y395492D02*
D03*
Y360492D02*
D03*
X658414Y364492D02*
D03*
Y360492D02*
D03*
X663414Y356492D02*
D03*
Y360492D02*
D03*
X667414D02*
D03*
Y356492D02*
D03*
Y369492D02*
D03*
X671414D02*
D03*
Y356492D02*
D03*
X676414Y364492D02*
D03*
Y356492D02*
D03*
Y360492D02*
D03*
X680414D02*
D03*
X684414Y364492D02*
D03*
Y369492D02*
D03*
Y356492D02*
D03*
X689414Y360492D02*
D03*
Y364492D02*
D03*
X693414Y356492D02*
D03*
Y369492D02*
D03*
Y364492D02*
D03*
X703414Y363492D02*
D03*
Y367492D02*
D03*
X715414Y359492D02*
D03*
X719414Y367492D02*
D03*
X654414Y369492D02*
D03*
Y373492D02*
D03*
Y377492D02*
D03*
Y382492D02*
D03*
Y386492D02*
D03*
X658414Y373492D02*
D03*
Y369492D02*
D03*
Y377492D02*
D03*
Y386492D02*
D03*
X663414Y369492D02*
D03*
Y373492D02*
D03*
Y377492D02*
D03*
X667414Y373492D02*
D03*
Y377492D02*
D03*
Y382492D02*
D03*
X671414Y377492D02*
D03*
X676414Y369492D02*
D03*
X680414Y373492D02*
D03*
Y369492D02*
D03*
Y382492D02*
D03*
X684414Y377492D02*
D03*
X654414Y390492D02*
D03*
Y399492D02*
D03*
Y403492D02*
D03*
X658414D02*
D03*
Y395492D02*
D03*
X663414Y403492D02*
D03*
X667414Y386492D02*
D03*
Y390492D02*
D03*
Y399492D02*
D03*
Y395492D02*
D03*
X671414Y386492D02*
D03*
Y403492D02*
D03*
Y395492D02*
D03*
X680414Y386492D02*
D03*
Y399492D02*
D03*
Y395492D02*
D03*
X684414Y390492D02*
D03*
Y403492D02*
D03*
Y382492D02*
D03*
X689414Y377492D02*
D03*
Y386492D02*
D03*
Y373492D02*
D03*
X693414Y377492D02*
D03*
X703414Y379492D02*
D03*
Y371492D02*
D03*
Y387492D02*
D03*
X715414Y383492D02*
D03*
Y371492D02*
D03*
X719414Y379492D02*
D03*
X684414Y395492D02*
D03*
X689414Y390492D02*
D03*
Y403492D02*
D03*
Y399492D02*
D03*
X693414Y403492D02*
D03*
Y390492D02*
D03*
X703414Y395492D02*
D03*
Y399492D02*
D03*
Y403492D02*
D03*
X715414Y395492D02*
D03*
X719414Y391492D02*
D03*
Y403492D02*
D03*
X593414Y415492D02*
D03*
X605414D02*
D03*
X609414Y407492D02*
D03*
X615414Y408492D02*
D03*
Y412492D02*
D03*
Y421492D02*
D03*
X619414Y416492D02*
D03*
Y408492D02*
D03*
Y421492D02*
D03*
X597414Y439492D02*
D03*
X605414Y427492D02*
D03*
Y439492D02*
D03*
X615414Y425492D02*
D03*
Y429492D02*
D03*
Y434492D02*
D03*
Y438492D02*
D03*
Y442492D02*
D03*
X624414Y421492D02*
D03*
Y412492D02*
D03*
Y408492D02*
D03*
Y416492D02*
D03*
Y425492D02*
D03*
X628414Y416492D02*
D03*
Y421492D02*
D03*
X632414Y408492D02*
D03*
Y416492D02*
D03*
X637414Y421492D02*
D03*
Y416492D02*
D03*
X641414Y408492D02*
D03*
Y416492D02*
D03*
X645414Y421492D02*
D03*
Y416492D02*
D03*
X650414Y412492D02*
D03*
X619414Y434492D02*
D03*
Y429492D02*
D03*
X624414Y434492D02*
D03*
Y438492D02*
D03*
Y442492D02*
D03*
X628414Y429492D02*
D03*
Y434492D02*
D03*
Y442492D02*
D03*
X632414Y429492D02*
D03*
X637414D02*
D03*
Y434492D02*
D03*
Y442492D02*
D03*
X641414Y429492D02*
D03*
Y442492D02*
D03*
X645414Y429492D02*
D03*
Y434492D02*
D03*
Y442492D02*
D03*
X650414D02*
D03*
X605414Y451492D02*
D03*
X615414D02*
D03*
Y447492D02*
D03*
Y455492D02*
D03*
Y459492D02*
D03*
X619414Y447492D02*
D03*
Y459492D02*
D03*
X624414Y451492D02*
D03*
Y459492D02*
D03*
X628414Y447492D02*
D03*
Y455492D02*
D03*
Y451492D02*
D03*
Y459492D02*
D03*
X632414Y447492D02*
D03*
Y451492D02*
D03*
Y459492D02*
D03*
X637414Y451492D02*
D03*
X641414Y455492D02*
D03*
Y459492D02*
D03*
X645414Y455492D02*
D03*
Y459492D02*
D03*
X650414Y447492D02*
D03*
Y455492D02*
D03*
Y408492D02*
D03*
Y416492D02*
D03*
Y429492D02*
D03*
X654414Y425492D02*
D03*
Y416492D02*
D03*
Y412492D02*
D03*
Y421492D02*
D03*
X658414Y416492D02*
D03*
Y425492D02*
D03*
X663414Y412492D02*
D03*
X667414Y403492D02*
D03*
X676414D02*
D03*
Y408492D02*
D03*
X680414D02*
D03*
X671414Y412492D02*
D03*
X684414D02*
D03*
X676414D02*
D03*
X663414Y416492D02*
D03*
X667414D02*
D03*
X671414D02*
D03*
X680414D02*
D03*
X676414D02*
D03*
X667414Y421492D02*
D03*
X680414D02*
D03*
X667414Y425492D02*
D03*
X671414D02*
D03*
X667414Y429492D02*
D03*
X680414D02*
D03*
X654414D02*
D03*
Y434492D02*
D03*
X658414D02*
D03*
X654414Y438492D02*
D03*
X667414D02*
D03*
X658414Y442492D02*
D03*
X667414Y447492D02*
D03*
X654414Y451492D02*
D03*
X650414D02*
D03*
X658414D02*
D03*
X654414Y455492D02*
D03*
Y459492D02*
D03*
X663414D02*
D03*
X667414Y434492D02*
D03*
X671414D02*
D03*
X680414D02*
D03*
X684414Y438492D02*
D03*
X667414Y442492D02*
D03*
X671414D02*
D03*
X680414D02*
D03*
Y447492D02*
D03*
X667414Y451492D02*
D03*
X671414D02*
D03*
X667414Y455492D02*
D03*
X680414D02*
D03*
X667414Y459492D02*
D03*
X671414D02*
D03*
X680414D02*
D03*
X684414Y408492D02*
D03*
X699414Y411492D02*
D03*
X693414Y412492D02*
D03*
X689414D02*
D03*
Y416492D02*
D03*
X693414Y421492D02*
D03*
X684414D02*
D03*
X703414Y423492D02*
D03*
X693414Y425492D02*
D03*
X689414D02*
D03*
X684414D02*
D03*
X703414Y427492D02*
D03*
X689414Y429492D02*
D03*
X699414Y431492D02*
D03*
X684414Y434492D02*
D03*
X693414Y438492D02*
D03*
X689414D02*
D03*
X715414Y407492D02*
D03*
X719414Y415492D02*
D03*
X703414Y419492D02*
D03*
X715414D02*
D03*
X719414Y427492D02*
D03*
X715414Y431492D02*
D03*
X703414Y439492D02*
D03*
X689414Y442492D02*
D03*
X684414Y447492D02*
D03*
X693414D02*
D03*
X684414Y451492D02*
D03*
X693414D02*
D03*
X689414D02*
D03*
X703414D02*
D03*
X689414Y455492D02*
D03*
X684414Y459492D02*
D03*
X693414D02*
D03*
X719414Y439492D02*
D03*
X715414Y443492D02*
D03*
X719414Y451492D02*
D03*
X715414Y456492D02*
D03*
X589414Y483492D02*
D03*
Y470492D02*
D03*
X618414Y479492D02*
D03*
X630414Y463492D02*
D03*
X622414Y467492D02*
D03*
Y475492D02*
D03*
X630414Y479492D02*
D03*
X634414Y467492D02*
D03*
X646414D02*
D03*
X605414Y475492D02*
D03*
X618414Y463492D02*
D03*
Y467492D02*
D03*
X605414Y465492D02*
D03*
X719414Y464492D02*
D03*
X670414Y467492D02*
D03*
X678414Y471492D02*
D03*
X658414Y475492D02*
D03*
X670414D02*
D03*
X678414D02*
D03*
X654414Y479492D02*
D03*
X678414D02*
D03*
X694414Y467492D02*
D03*
X703414Y468492D02*
D03*
X686414Y475492D02*
D03*
X715414D02*
D03*
X690414Y479492D02*
D03*
X711414D02*
D03*
X699414D02*
D03*
X703414Y483492D02*
D03*
X719414D02*
D03*
X658414Y467492D02*
D03*
X699414Y460492D02*
D03*
X686414Y467492D02*
D03*
X682414D02*
D03*
X715414Y351492D02*
D03*
X686414Y335492D02*
D03*
X694414Y331492D02*
D03*
X703414D02*
D03*
Y347492D02*
D03*
X711414Y335492D02*
D03*
X715414Y343492D02*
D03*
X719414Y331492D02*
D03*
X686414Y351492D02*
D03*
X690414D02*
D03*
X703414D02*
D03*
X589414Y331492D02*
D03*
X597414Y335492D02*
D03*
Y343492D02*
D03*
X622414Y339492D02*
D03*
X618414Y347492D02*
D03*
X589414Y351492D02*
D03*
X597414D02*
D03*
X605414D02*
D03*
X618414D02*
D03*
X622414Y347492D02*
D03*
X634414Y339492D02*
D03*
X642414Y335492D02*
D03*
X646414Y339492D02*
D03*
Y347492D02*
D03*
X609414Y335492D02*
D03*
X605414Y347492D02*
D03*
X634414D02*
D03*
X654414D02*
D03*
X658414Y339492D02*
D03*
Y347492D02*
D03*
X670414Y339492D02*
D03*
X674414Y335492D02*
D03*
X682414Y339492D02*
D03*
Y331492D02*
D03*
Y343492D02*
D03*
X686414Y347492D02*
D03*
X670414D02*
D03*
X678414Y351492D02*
D03*
X686414Y463492D02*
D03*
X626414Y343492D02*
D03*
X642414D02*
D03*
X626414Y339492D02*
D03*
X638414Y343492D02*
D03*
X630414D02*
D03*
Y339492D02*
D03*
Y347492D02*
D03*
X626414D02*
D03*
X638414D02*
D03*
D26*
X569414Y763492D02*
D03*
X919414D02*
D03*
X374414D02*
D03*
X379414D02*
D03*
X419414D02*
D03*
X914414D02*
D03*
X844414D02*
D03*
X904414D02*
D03*
X754414D02*
D03*
X589414D02*
D03*
X749414D02*
D03*
X909414D02*
D03*
X344414D02*
D03*
X429414D02*
D03*
X889414D02*
D03*
X649414D02*
D03*
X644414D02*
D03*
X484414D02*
D03*
X479414D02*
D03*
X474414D02*
D03*
X944414D02*
D03*
X894414D02*
D03*
X409414D02*
D03*
X869414D02*
D03*
X989414D02*
D03*
X984414D02*
D03*
X979414D02*
D03*
X974414D02*
D03*
X759414D02*
D03*
X734414D02*
D03*
X684414D02*
D03*
X679414D02*
D03*
X674414D02*
D03*
X669414D02*
D03*
X639414D02*
D03*
X624414D02*
D03*
X609414D02*
D03*
X594414D02*
D03*
X579414D02*
D03*
X564414D02*
D03*
X469414D02*
D03*
X464414D02*
D03*
X414414D02*
D03*
X399414D02*
D03*
X384414D02*
D03*
X354414D02*
D03*
X369414D02*
D03*
X339414D02*
D03*
X664414D02*
D03*
X654414D02*
D03*
X629414D02*
D03*
X584414D02*
D03*
X634414D02*
D03*
X574414D02*
D03*
X659414D02*
D03*
X439414D02*
D03*
X449414D02*
D03*
X394414D02*
D03*
X404414D02*
D03*
X454414D02*
D03*
X739414D02*
D03*
X349414D02*
D03*
X364414D02*
D03*
X959414D02*
D03*
X954414D02*
D03*
X389414D02*
D03*
X729414D02*
D03*
X964414D02*
D03*
X619414D02*
D03*
X614414D02*
D03*
X599414D02*
D03*
X424414D02*
D03*
X444414D02*
D03*
X939414D02*
D03*
X604414D02*
D03*
X874414D02*
D03*
X744414D02*
D03*
X359414D02*
D03*
X724414D02*
D03*
X929414D02*
D03*
X854414D02*
D03*
X849414D02*
D03*
X719414D02*
D03*
X714414D02*
D03*
X864414D02*
D03*
X434414D02*
D03*
X459414D02*
D03*
X689414D02*
D03*
X694414D02*
D03*
X699414D02*
D03*
X704414D02*
D03*
X709414D02*
D03*
X859414D02*
D03*
X879414D02*
D03*
X884414D02*
D03*
X899414D02*
D03*
X924414D02*
D03*
X934414D02*
D03*
X949414D02*
D03*
X969414D02*
D03*
D27*
X817800Y352180D02*
D03*
X809800Y443180D02*
D03*
Y430180D02*
D03*
X817800Y384680D02*
D03*
X825800Y352180D02*
D03*
X881800Y384680D02*
D03*
X865800Y365180D02*
D03*
X881800Y352180D02*
D03*
X809800Y365180D02*
D03*
Y449680D02*
D03*
X873800Y462679D02*
D03*
X833800Y423680D02*
D03*
X881800Y443180D02*
D03*
X825800Y391180D02*
D03*
X809800Y436680D02*
D03*
Y352180D02*
D03*
X817800Y358680D02*
D03*
X865800Y391180D02*
D03*
X817800Y462679D02*
D03*
X809800D02*
D03*
X825800Y449680D02*
D03*
X817800D02*
D03*
Y430180D02*
D03*
X865800Y423680D02*
D03*
X873800Y430180D02*
D03*
X889800Y462679D02*
D03*
X873800Y475680D02*
D03*
X857800D02*
D03*
X881800Y456180D02*
D03*
X857800Y462679D02*
D03*
X865800Y456180D02*
D03*
X889800Y436680D02*
D03*
Y449680D02*
D03*
Y423680D02*
D03*
X873800Y436680D02*
D03*
X857800Y449680D02*
D03*
Y436680D02*
D03*
X873800Y423680D02*
D03*
X833800Y475680D02*
D03*
Y462679D02*
D03*
X817800Y475680D02*
D03*
X801800Y462679D02*
D03*
X825800Y456180D02*
D03*
X833800Y449680D02*
D03*
X809800Y456180D02*
D03*
X801800Y449680D02*
D03*
X833800Y436680D02*
D03*
X817800D02*
D03*
Y423680D02*
D03*
X801800Y436680D02*
D03*
Y423680D02*
D03*
X881800Y417179D02*
D03*
X865800D02*
D03*
X881800Y397680D02*
D03*
X865800D02*
D03*
X889800Y391180D02*
D03*
X873800D02*
D03*
X889800Y378180D02*
D03*
Y365180D02*
D03*
X873800Y378180D02*
D03*
X857800D02*
D03*
Y365180D02*
D03*
X881800Y358680D02*
D03*
X889800Y352180D02*
D03*
X865800Y358680D02*
D03*
X857800Y352180D02*
D03*
X873800Y339180D02*
D03*
X825800Y417179D02*
D03*
Y397680D02*
D03*
X809800Y417179D02*
D03*
Y397680D02*
D03*
X817800Y391180D02*
D03*
Y378180D02*
D03*
X801800Y391180D02*
D03*
X833800Y378180D02*
D03*
Y365180D02*
D03*
Y352180D02*
D03*
X825800Y358680D02*
D03*
X809800D02*
D03*
X801800Y352180D02*
D03*
Y378180D02*
D03*
Y365180D02*
D03*
X817800Y339180D02*
D03*
X873800Y365180D02*
D03*
X825800Y371680D02*
D03*
X809800Y469180D02*
D03*
X825800D02*
D03*
X817800Y456180D02*
D03*
X865800Y449680D02*
D03*
X825800Y423680D02*
D03*
X809800Y391180D02*
D03*
X857800D02*
D03*
X809800Y371680D02*
D03*
X873800Y384680D02*
D03*
X865800Y371680D02*
D03*
Y345680D02*
D03*
X817800Y365180D02*
D03*
X825800Y384680D02*
D03*
Y462679D02*
D03*
X873800Y449680D02*
D03*
X865800Y384680D02*
D03*
X881800Y391180D02*
D03*
X873800Y358680D02*
D03*
X825800Y345680D02*
D03*
X865800Y443180D02*
D03*
X825800Y430180D02*
D03*
X865800D02*
D03*
X809800Y345680D02*
D03*
X865800Y352180D02*
D03*
X881800Y371680D02*
D03*
Y365180D02*
D03*
X825800D02*
D03*
X857800Y423680D02*
D03*
X809800Y384680D02*
D03*
X865800Y462679D02*
D03*
X873800Y456180D02*
D03*
X881800Y430180D02*
D03*
Y462679D02*
D03*
Y423680D02*
D03*
Y345680D02*
D03*
X873800Y352180D02*
D03*
X825800Y443180D02*
D03*
X881800Y469180D02*
D03*
X865800D02*
D03*
X881800Y449680D02*
D03*
X809800Y423680D02*
D03*
X833800Y391180D02*
D03*
X889800Y339180D02*
D03*
X881800D02*
D03*
X865800D02*
D03*
X857800D02*
D03*
X833800D02*
D03*
X825800D02*
D03*
X809800D02*
D03*
X801800D02*
D03*
X889800Y345680D02*
D03*
X873800D02*
D03*
X857800D02*
D03*
X833800D02*
D03*
X817800D02*
D03*
X801800D02*
D03*
X889800Y358680D02*
D03*
X857800D02*
D03*
X833800D02*
D03*
X801800D02*
D03*
X889800Y371680D02*
D03*
X873800D02*
D03*
X857800D02*
D03*
X833800D02*
D03*
X817800D02*
D03*
X801800D02*
D03*
X881800Y378180D02*
D03*
X865800D02*
D03*
X825800D02*
D03*
X809800D02*
D03*
X889800Y384680D02*
D03*
X857800D02*
D03*
X833800D02*
D03*
X801800D02*
D03*
X889800Y397680D02*
D03*
X873800D02*
D03*
X857800D02*
D03*
X833800D02*
D03*
X817800D02*
D03*
X801800D02*
D03*
X889800Y417179D02*
D03*
X873800D02*
D03*
X857800D02*
D03*
X833800D02*
D03*
X817800D02*
D03*
X801800D02*
D03*
X889800Y430180D02*
D03*
X857800D02*
D03*
X833800D02*
D03*
X801800D02*
D03*
X881800Y436680D02*
D03*
X865800D02*
D03*
X825800D02*
D03*
X889800Y443180D02*
D03*
X873800D02*
D03*
X857800D02*
D03*
X833800D02*
D03*
X817800D02*
D03*
X801800D02*
D03*
X889800Y456180D02*
D03*
X857800D02*
D03*
X833800D02*
D03*
X801800D02*
D03*
X889800Y469180D02*
D03*
X873800D02*
D03*
X857800D02*
D03*
X833800D02*
D03*
X817800D02*
D03*
X801800D02*
D03*
X889800Y475680D02*
D03*
X881800D02*
D03*
X865800D02*
D03*
X825800D02*
D03*
X809800D02*
D03*
X801800D02*
D03*
D28*
X274414Y323492D02*
D03*
X734580Y628737D02*
D03*
X764414Y480578D02*
D03*
X364414Y350578D02*
D03*
X494414Y233492D02*
D03*
Y240578D02*
D03*
X704414Y503492D02*
D03*
X574414Y530578D02*
D03*
X734580Y635823D02*
D03*
X1214414Y616406D02*
D03*
Y623492D02*
D03*
X1124414Y633492D02*
D03*
Y626406D02*
D03*
X574414Y523492D02*
D03*
X374414Y413492D02*
D03*
Y406406D02*
D03*
X1254414Y510578D02*
D03*
Y503492D02*
D03*
X364414Y343492D02*
D03*
X764414Y473492D02*
D03*
X704414Y510578D02*
D03*
X434414Y153492D02*
D03*
Y160578D02*
D03*
X274414Y330578D02*
D03*
D29*
X501500Y493492D02*
D03*
X637328Y503492D02*
D03*
X644414D02*
D03*
X217328Y323492D02*
D03*
X224414D02*
D03*
X494414Y493492D02*
D03*
D30*
X1178414Y473492D02*
D03*
X1169414D02*
D03*
X1160414D02*
D03*
X1115414D02*
D03*
X1124414D02*
D03*
X1151414Y349732D02*
D03*
X1187414Y473492D02*
D03*
Y349732D02*
D03*
X1133414D02*
D03*
X1160414D02*
D03*
X1151414Y473492D02*
D03*
X1142414D02*
D03*
X1115414Y349732D02*
D03*
X1133414Y473492D02*
D03*
X1169414Y349732D02*
D03*
X1178414D02*
D03*
X1196414Y473492D02*
D03*
X1088414Y349732D02*
D03*
X1097414D02*
D03*
X1106414D02*
D03*
X1124414D02*
D03*
X1142414D02*
D03*
X1196414D02*
D03*
X1205414D02*
D03*
Y473492D02*
D03*
X1106414D02*
D03*
X1097414D02*
D03*
X1088414D02*
D03*
D31*
X1174414Y610002D02*
D03*
X714414Y553492D02*
D03*
X774414Y611747D02*
D03*
X1174414Y593492D02*
D03*
X774414Y595237D02*
D03*
X714414Y570002D02*
D03*
X754414Y440001D02*
D03*
X1154414Y276982D02*
D03*
X874414Y270002D02*
D03*
X704414Y236982D02*
D03*
X654414Y196982D02*
D03*
X754414Y423492D02*
D03*
X1154414Y293492D02*
D03*
X704414Y253492D02*
D03*
X654414Y213492D02*
D03*
X874414Y253492D02*
D03*
D32*
X813865Y618620D02*
D03*
X996159Y503492D02*
D03*
X1012669D02*
D03*
X972669Y473492D02*
D03*
X884414Y523492D02*
D03*
X830375Y618620D02*
D03*
X814414Y523492D02*
D03*
X796159Y293492D02*
D03*
X762669Y273492D02*
D03*
X462669Y513492D02*
D03*
X474414Y293492D02*
D03*
X746159Y273492D02*
D03*
X812669Y293492D02*
D03*
X867904Y523492D02*
D03*
X797905D02*
D03*
X956159Y473492D02*
D03*
X490924Y293492D02*
D03*
X446159Y513492D02*
D03*
D33*
X1054414Y506406D02*
D03*
X1034414Y456406D02*
D03*
X984414Y316406D02*
D03*
X604414Y516406D02*
D03*
X544414Y526406D02*
D03*
X504414Y523492D02*
D03*
X414414Y266406D02*
D03*
X714414Y286406D02*
D03*
X724414Y176406D02*
D03*
X564414Y356406D02*
D03*
Y243492D02*
D03*
X524414Y296406D02*
D03*
X1104414Y560578D02*
D03*
X1054414Y513492D02*
D03*
X1034414Y463492D02*
D03*
X924414Y483492D02*
D03*
X844414Y500578D02*
D03*
X764414Y510578D02*
D03*
X743670Y560993D02*
D03*
X685250D02*
D03*
X974414Y370578D02*
D03*
X984414Y323492D02*
D03*
X954414Y290578D02*
D03*
X894414Y300578D02*
D03*
X724414Y183492D02*
D03*
X714414Y293492D02*
D03*
X664414Y530578D02*
D03*
X604414Y523492D02*
D03*
X544414Y533492D02*
D03*
X504414Y530578D02*
D03*
X564414Y363492D02*
D03*
X524414Y303492D02*
D03*
X564414Y236406D02*
D03*
X414414Y273492D02*
D03*
X1104414Y553492D02*
D03*
X664414Y523492D02*
D03*
X974414Y363492D02*
D03*
X954414Y283492D02*
D03*
X894414Y293492D02*
D03*
X924414Y476406D02*
D03*
X844414Y493492D02*
D03*
X764414Y503492D02*
D03*
X743670Y553907D02*
D03*
X685250D02*
D03*
D34*
X934414Y335711D02*
D03*
X434414Y303492D02*
D03*
X994414Y545711D02*
D03*
X1207080Y682189D02*
D03*
X1214414Y553492D02*
D03*
X1207080Y689970D02*
D03*
X1214414Y561273D02*
D03*
X994414Y553492D02*
D03*
X934414Y343492D02*
D03*
X924414Y303492D02*
D03*
X844414Y293492D02*
D03*
X434414Y311273D02*
D03*
X844414Y285711D02*
D03*
X924414Y295711D02*
D03*
D35*
X1074414Y589042D02*
D03*
X1132834D02*
D03*
X1177348Y560264D02*
D03*
X1244414Y630692D02*
D03*
Y590692D02*
D03*
Y636292D02*
D03*
Y596292D02*
D03*
X1074414Y594642D02*
D03*
X1132834D02*
D03*
X1177348Y565864D02*
D03*
X254414Y446292D02*
D03*
Y440692D02*
D03*
D36*
X634414Y603492D02*
D03*
X1315636Y623178D02*
D03*
X1274414Y573492D02*
D03*
X1322722Y623178D02*
D03*
X1281500Y573492D02*
D03*
X1154414Y513492D02*
D03*
X1144414Y323492D02*
D03*
X1061500D02*
D03*
X641500Y603492D02*
D03*
X584414Y633492D02*
D03*
X591500D02*
D03*
X1161500Y513492D02*
D03*
X1137328Y323492D02*
D03*
X1054414D02*
D03*
D37*
X564414Y394467D02*
D03*
X1004414Y674467D02*
D03*
Y683492D02*
D03*
X564414Y403492D02*
D03*
D38*
X1084414Y323492D02*
D03*
X1097914D02*
D03*
D39*
X594414Y573492D02*
D03*
X893158Y583492D02*
D03*
X571901Y573492D02*
D03*
X915671Y583492D02*
D03*
X1275670Y273492D02*
D03*
X1253157D02*
D03*
D40*
X504414Y373492D02*
D03*
Y438492D02*
D03*
X499414Y433492D02*
D03*
Y428492D02*
D03*
X494414Y438492D02*
D03*
X489414Y383492D02*
D03*
X509414Y433492D02*
D03*
X499414Y438492D02*
D03*
X494414Y433492D02*
D03*
Y413492D02*
D03*
X489414Y438492D02*
D03*
X479414Y418492D02*
D03*
X494414Y403492D02*
D03*
X469414Y408492D02*
D03*
X484414Y393492D02*
D03*
X499414Y383492D02*
D03*
X489414Y373492D02*
D03*
X494414Y428492D02*
D03*
Y408492D02*
D03*
X499414Y378492D02*
D03*
X509414D02*
D03*
X489414D02*
D03*
X494414D02*
D03*
Y373492D02*
D03*
X499414D02*
D03*
X504414Y378492D02*
D03*
X514414Y373492D02*
D03*
Y378492D02*
D03*
Y383492D02*
D03*
Y388492D02*
D03*
Y393492D02*
D03*
Y398492D02*
D03*
Y403492D02*
D03*
Y408492D02*
D03*
Y413492D02*
D03*
Y418492D02*
D03*
Y423492D02*
D03*
Y428492D02*
D03*
Y433492D02*
D03*
Y438492D02*
D03*
X509414Y373492D02*
D03*
Y383492D02*
D03*
Y388492D02*
D03*
Y393492D02*
D03*
Y398492D02*
D03*
Y403492D02*
D03*
Y408492D02*
D03*
Y413492D02*
D03*
Y418492D02*
D03*
Y423492D02*
D03*
Y428492D02*
D03*
Y438492D02*
D03*
X504414Y383492D02*
D03*
Y388492D02*
D03*
Y393492D02*
D03*
Y398492D02*
D03*
Y403492D02*
D03*
Y408492D02*
D03*
Y413492D02*
D03*
Y418492D02*
D03*
Y423492D02*
D03*
Y428492D02*
D03*
Y433492D02*
D03*
X499414Y388492D02*
D03*
X494414Y383492D02*
D03*
Y393492D02*
D03*
Y398492D02*
D03*
Y418492D02*
D03*
X489414Y393492D02*
D03*
Y418492D02*
D03*
Y428492D02*
D03*
Y433492D02*
D03*
X484414Y373492D02*
D03*
Y378492D02*
D03*
Y383492D02*
D03*
Y418492D02*
D03*
Y428492D02*
D03*
Y433492D02*
D03*
Y438492D02*
D03*
X479414Y373492D02*
D03*
Y378492D02*
D03*
Y383492D02*
D03*
Y393492D02*
D03*
Y428492D02*
D03*
Y433492D02*
D03*
Y438492D02*
D03*
X474414Y373492D02*
D03*
Y378492D02*
D03*
Y383492D02*
D03*
Y393492D02*
D03*
Y418492D02*
D03*
Y428492D02*
D03*
Y433492D02*
D03*
Y438492D02*
D03*
X469414Y373492D02*
D03*
Y378492D02*
D03*
Y383492D02*
D03*
Y393492D02*
D03*
Y398492D02*
D03*
Y403492D02*
D03*
Y413492D02*
D03*
Y418492D02*
D03*
Y428492D02*
D03*
Y433492D02*
D03*
Y438492D02*
D03*
X464414Y373492D02*
D03*
Y378492D02*
D03*
Y383492D02*
D03*
Y428492D02*
D03*
Y433492D02*
D03*
Y438492D02*
D03*
X459414Y373492D02*
D03*
Y378492D02*
D03*
Y383492D02*
D03*
Y388492D02*
D03*
Y393492D02*
D03*
Y398492D02*
D03*
Y403492D02*
D03*
Y408492D02*
D03*
Y413492D02*
D03*
Y418492D02*
D03*
Y423492D02*
D03*
Y428492D02*
D03*
Y433492D02*
D03*
Y438492D02*
D03*
X454414Y373492D02*
D03*
Y378492D02*
D03*
Y383492D02*
D03*
Y388492D02*
D03*
Y393492D02*
D03*
Y398492D02*
D03*
Y403492D02*
D03*
Y408492D02*
D03*
Y413492D02*
D03*
Y418492D02*
D03*
Y423492D02*
D03*
Y428492D02*
D03*
Y433492D02*
D03*
Y438492D02*
D03*
X449414Y373492D02*
D03*
Y378492D02*
D03*
Y383492D02*
D03*
Y388492D02*
D03*
Y393492D02*
D03*
Y398492D02*
D03*
Y403492D02*
D03*
Y408492D02*
D03*
Y413492D02*
D03*
Y418492D02*
D03*
Y423492D02*
D03*
Y428492D02*
D03*
Y433492D02*
D03*
Y438492D02*
D03*
D41*
X544414Y283492D02*
D03*
X1057000Y554813D02*
D03*
X864414Y206035D02*
D03*
X664724Y655768D02*
D03*
X324414Y526035D02*
D03*
X404414Y466035D02*
D03*
X644414Y303492D02*
D03*
X1084414Y620949D02*
D03*
X1124414Y506035D02*
D03*
X664724Y650682D02*
D03*
X1084414Y626035D02*
D03*
X734414Y500949D02*
D03*
X1088970Y684813D02*
D03*
X1147390D02*
D03*
Y679727D02*
D03*
X1088970D02*
D03*
X1057000Y549727D02*
D03*
X324414Y520949D02*
D03*
X404414Y460949D02*
D03*
X734414Y506035D02*
D03*
X864414Y200949D02*
D03*
X1124414Y500949D02*
D03*
X544414Y278406D02*
D03*
X644414Y308578D02*
D03*
X1274414Y633492D02*
D03*
Y628406D02*
D03*
D42*
X814414Y551492D02*
D03*
X854414D02*
D03*
X814414Y575492D02*
D03*
X854414D02*
D03*
D43*
X307914Y299842D02*
D03*
X360914Y312542D02*
D03*
X307914D02*
D03*
Y274442D02*
D03*
Y287142D02*
D03*
X360914Y299842D02*
D03*
Y287142D02*
D03*
Y274442D02*
D03*
D44*
X314414Y493492D02*
D03*
X833914Y183492D02*
D03*
X683414Y143492D02*
D03*
X613914D02*
D03*
Y193492D02*
D03*
X295414Y493492D02*
D03*
X304914Y473492D02*
D03*
X474414Y133492D02*
D03*
X824414Y203492D02*
D03*
X464914Y153492D02*
D03*
X483914D02*
D03*
X604414Y163492D02*
D03*
X594914Y143492D02*
D03*
X604414Y213492D02*
D03*
X594914Y193492D02*
D03*
X673914Y163492D02*
D03*
X664414Y143492D02*
D03*
X814914Y183492D02*
D03*
D45*
X1331614Y683492D02*
D03*
X1337214D02*
D03*
X371614Y233492D02*
D03*
X377214D02*
D03*
D46*
X1257914Y157992D02*
D03*
X1357914Y488992D02*
D03*
X1390914Y407992D02*
D03*
Y257992D02*
D03*
X1290914Y157992D02*
D03*
X1134414Y82492D02*
D03*
X940914Y87992D02*
D03*
X790914D02*
D03*
X630914D02*
D03*
X447414Y92492D02*
D03*
X317414Y93492D02*
D03*
X907914Y87992D02*
D03*
X940914Y38992D02*
D03*
X907914D02*
D03*
X414414Y92492D02*
D03*
X447414Y43492D02*
D03*
X414414D02*
D03*
X1257914Y108992D02*
D03*
X1290914D02*
D03*
X1101414Y33492D02*
D03*
X1134414D02*
D03*
X1101414Y82492D02*
D03*
X597914Y38992D02*
D03*
X630914D02*
D03*
X597914Y87992D02*
D03*
X284414Y44492D02*
D03*
X317414D02*
D03*
X284414Y93492D02*
D03*
X1357914Y358992D02*
D03*
X1390914D02*
D03*
X1357914Y407992D02*
D03*
X1390914Y537992D02*
D03*
X1357914D02*
D03*
X1390914Y488992D02*
D03*
X1357914Y208992D02*
D03*
X1390914D02*
D03*
X1357914Y257992D02*
D03*
X757914Y38992D02*
D03*
X790914D02*
D03*
X757914Y87992D02*
D03*
D47*
X1000064Y625992D02*
D03*
Y620992D02*
D03*
Y615992D02*
D03*
X1028764D02*
D03*
Y620992D02*
D03*
Y625992D02*
D03*
Y630992D02*
D03*
X1000064D02*
D03*
D48*
X1403414Y682992D02*
D03*
Y623992D02*
D03*
D49*
X1298914Y676992D02*
D03*
X938914Y686992D02*
D03*
X698914D02*
D03*
X498914D02*
D03*
X274414Y683492D02*
D03*
X193414Y550492D02*
D03*
X1249914Y709992D02*
D03*
Y676992D02*
D03*
X1298914Y709992D02*
D03*
X889914Y719992D02*
D03*
Y686992D02*
D03*
X938914Y719992D02*
D03*
X649914D02*
D03*
Y686992D02*
D03*
X698914Y719992D02*
D03*
X449914D02*
D03*
Y686992D02*
D03*
X498914Y719992D02*
D03*
X225414Y716492D02*
D03*
Y683492D02*
D03*
X274414Y716492D02*
D03*
X144414Y583492D02*
D03*
Y550492D02*
D03*
X193414Y583492D02*
D03*
D50*
X1365664Y671492D02*
D03*
Y659492D02*
D03*
Y635492D02*
D03*
Y647492D02*
D03*
D51*
X1251414Y777992D02*
D03*
X1217414D02*
D03*
X257414Y787492D02*
D03*
X207414D02*
D03*
D52*
X1230414Y763992D02*
D03*
X236414Y773492D02*
D03*
X1238414Y763992D02*
D03*
X220414Y773492D02*
D03*
X228414D02*
D03*
X244414D02*
D03*
D53*
X1158414D02*
D03*
X1090414D02*
D03*
D54*
X999414Y788492D02*
D03*
X834414D02*
D03*
X769414D02*
D03*
X554414D02*
D03*
X494414D02*
D03*
X329414D02*
D03*
D55*
X1011914Y637842D02*
D03*
X1016914Y609142D02*
D03*
X1006914D02*
D03*
X1011914D02*
D03*
X1021914D02*
D03*
Y637842D02*
D03*
X1016914D02*
D03*
X1006914D02*
D03*
D56*
X1014414Y623492D02*
D03*
D57*
X1204414Y499759D02*
D03*
Y493492D02*
D03*
D58*
X1218794Y420612D02*
D03*
X1075034Y456612D02*
D03*
Y438612D02*
D03*
Y429612D02*
D03*
Y420612D02*
D03*
X1218794Y402612D02*
D03*
X1075034D02*
D03*
Y411612D02*
D03*
Y393612D02*
D03*
X1218794Y375612D02*
D03*
X1075034D02*
D03*
Y366612D02*
D03*
Y447612D02*
D03*
Y384612D02*
D03*
X1218794Y366612D02*
D03*
Y384612D02*
D03*
Y393612D02*
D03*
Y411612D02*
D03*
Y429612D02*
D03*
Y438612D02*
D03*
Y447612D02*
D03*
Y456612D02*
D03*
D59*
X1198914Y323492D02*
D03*
X1189914D02*
D03*
D60*
X1014414Y347992D02*
D03*
X684414Y192492D02*
D03*
Y183492D02*
D03*
X1014414Y338992D02*
D03*
D61*
X637070Y556180D02*
D03*
X629290D02*
D03*
D62*
X605034Y652015D02*
D03*
X464414Y220992D02*
D03*
X605034Y659515D02*
D03*
X394414Y193492D02*
D03*
Y200992D02*
D03*
X464414Y213492D02*
D03*
D63*
X86914Y713492D02*
D03*
Y633492D02*
D03*
X41914Y713492D02*
D03*
Y633492D02*
D03*
D64*
X84414Y577492D02*
D03*
X44414D02*
D03*
Y509492D02*
D03*
X84414Y287492D02*
D03*
X44414Y219492D02*
D03*
X84414D02*
D03*
Y509492D02*
D03*
X44414Y287492D02*
D03*
D65*
X64414Y510492D02*
D03*
Y286492D02*
D03*
D66*
X337414Y463492D02*
D03*
X394414Y303492D02*
D03*
X434414Y233492D02*
D03*
X420414D02*
D03*
X408414Y303492D02*
D03*
X351414Y463492D02*
D03*
D67*
X151414Y428492D02*
D03*
Y423492D02*
D03*
X177414Y428492D02*
D03*
Y418492D02*
D03*
Y423492D02*
D03*
X151414Y418492D02*
D03*
D68*
X164414Y423492D02*
D03*
D69*
X94414Y427992D02*
D03*
Y363992D02*
D03*
Y419992D02*
D03*
Y371992D02*
D03*
D70*
X663414Y282542D02*
D03*
Y257142D02*
D03*
Y269842D02*
D03*
X585414D02*
D03*
Y257142D02*
D03*
Y282542D02*
D03*
X663414Y244442D02*
D03*
X585414D02*
D03*
D71*
X624414Y263492D02*
D03*
D72*
X268584Y363492D02*
D03*
Y369992D02*
D03*
X240273Y376492D02*
D03*
Y369992D02*
D03*
Y363492D02*
D03*
X268584Y376492D02*
D03*
Y382992D02*
D03*
D73*
X521420Y259650D02*
D03*
X334414Y209492D02*
D03*
Y223492D02*
D03*
X694414Y619492D02*
D03*
Y633492D02*
D03*
X521420Y245650D02*
D03*
D74*
X447760Y252740D02*
D03*
Y244940D02*
D03*
D75*
X434414Y206492D02*
D03*
X429414D02*
D03*
X424414D02*
D03*
X419414D02*
D03*
X434414Y183492D02*
D03*
X429414D02*
D03*
X424414D02*
D03*
X419414D02*
D03*
D76*
X166914Y436492D02*
D03*
X171914D02*
D03*
X161914D02*
D03*
X156914D02*
D03*
Y410492D02*
D03*
X161914D02*
D03*
X166914D02*
D03*
X171914D02*
D03*
D77*
X240273Y382992D02*
D03*
D78*
X174414Y383492D02*
D03*
Y343492D02*
D03*
X904414Y213492D02*
D03*
Y173492D02*
D03*
D79*
X224414Y283492D02*
D03*
X264414D02*
D03*
X934414Y253492D02*
D03*
X974414D02*
D03*
X1304414Y393492D02*
D03*
X1264414D02*
D03*
X264414Y483492D02*
D03*
X224414D02*
D03*
X294414Y223492D02*
D03*
X254414D02*
D03*
X524414Y573492D02*
D03*
X484414D02*
D03*
X364414Y583492D02*
D03*
X404414D02*
D03*
X974414Y183492D02*
D03*
X1014414D02*
D03*
X504414D02*
D03*
X544414D02*
D03*
D80*
X433664Y198492D02*
D03*
Y191492D02*
D03*
X420164D02*
D03*
Y198492D02*
D03*
D81*
X376957Y193492D02*
D03*
X371871D02*
D03*
D82*
X1264414Y442236D02*
D03*
Y464749D02*
D03*
D83*
X1241164Y323492D02*
D03*
X1247664D02*
D03*
D84*
X94414Y408492D02*
D03*
Y398492D02*
D03*
Y393492D02*
D03*
Y383492D02*
D03*
Y378492D02*
D03*
Y388492D02*
D03*
Y403492D02*
D03*
Y413492D02*
D03*
D85*
X1134414Y750992D02*
D03*
X1114414D02*
D03*
D86*
X829171Y250110D02*
D03*
X815649D02*
D03*
M02*
