G04*
G04 #@! TF.GenerationSoftware,Altium Limited,Altium Designer,26.7.1 (11)*
G04*
G04 Layer_Physical_Order=3*
G04 Layer_Color=36540*
G04 Board_Origin=26771654|24803150*
%FSLAX44Y44*%
%MOMM*%
G71*
G04*
G04 #@! TF.SameCoordinates,D9171914-07D6-4B2F-AF4B-0BE730A3B9D6*
G04*
G04*
G04 #@! TF.FilePolarity,Positive*
G04*
G01*
G75*
%ADD12C,0.2000*%
%ADD13C,0.1000*%
%ADD14C,0.1270*%
%ADD15C,0.2540*%
%ADD16C,0.1524*%
%ADD100C,0.0100*%
%ADD101C,0.1000*%
%ADD102C,0.0500*%
%ADD106C,0.0400*%
%ADD108C,0.2032*%
%ADD109C,0.1016*%
%ADD111C,0.0500*%
%ADD122C,0.3810*%
D12*
X744729Y356319D02*
X775089D01*
X743490Y355080D02*
X744729Y356319D01*
X775089D02*
X778910Y360140D01*
X544414Y277949D02*
Y293016D01*
X520850Y316580D02*
X544414Y293016D01*
D13*
X655565Y463736D02*
X698192D01*
X651214Y468087D02*
X655565Y463736D01*
X741843Y460420D02*
X746457D01*
X746963Y459914D01*
X702014D02*
X741337D01*
X793454D02*
X797613Y464072D01*
X741337Y459914D02*
X741843Y460420D01*
X698192Y463736D02*
X702014Y459914D01*
X746963D02*
X793454D01*
X675231Y492649D02*
X680200Y497618D01*
X783605D01*
X663358Y492649D02*
X675231D01*
X656540Y485831D02*
X663358Y492649D01*
X715414Y409205D02*
X724835Y418626D01*
X715414Y403285D02*
X717331Y401368D01*
X715414Y403285D02*
Y407492D01*
X656247Y485831D02*
X656540D01*
X676256Y478960D02*
X695435D01*
X657393Y477200D02*
X658636Y478444D01*
X663440Y479458D02*
X675759D01*
X676753Y480160D02*
X694938D01*
X675759Y479458D02*
X676256Y478960D01*
X659426Y480992D02*
X659568Y481134D01*
X675780D01*
X657362Y480992D02*
X659426D01*
X1097522Y481892D02*
X1101597Y477817D01*
X659755Y479644D02*
X659907Y479492D01*
X659410Y478292D02*
X659636D01*
X658139Y479644D02*
X659755D01*
X659258Y478444D02*
X659410Y478292D01*
X675780Y481134D02*
X676753Y480160D01*
X659907Y479492D02*
X660133D01*
X660883Y478742D01*
X658636Y478444D02*
X659258D01*
X695435Y478960D02*
X697167Y480692D01*
X659636Y478292D02*
X660386Y477542D01*
X1096272Y480692D02*
X1100348Y476617D01*
X660386Y477542D02*
X663222D01*
X657689Y479194D02*
X658139Y479644D01*
X662725Y478742D02*
X663440Y479458D01*
X652103Y477200D02*
X657393D01*
X660883Y478742D02*
X662725D01*
X649415Y479194D02*
X657689D01*
X652628Y483510D02*
X653926D01*
X648488Y483858D02*
X652280D01*
X653926Y483510D02*
X656247Y485831D01*
X652280Y483858D02*
X652628Y483510D01*
X646988Y482358D02*
X648488Y483858D01*
X647712Y477491D02*
X649415Y479194D01*
X645188Y480558D02*
X656928D01*
X600009Y467897D02*
Y477866D01*
X741271Y458151D02*
X742340Y459220D01*
X665895Y461208D02*
X668951Y458151D01*
X741271D01*
X662864Y459599D02*
X664473Y461208D01*
X662864Y458961D02*
Y459599D01*
X662161Y458259D02*
X662864Y458961D01*
X661167Y458259D02*
X662161D01*
X653647Y458292D02*
X661134D01*
X661167Y458259D01*
X646388Y475662D02*
X647712Y476986D01*
X646388Y482358D02*
X646988D01*
X647712Y476986D02*
Y477491D01*
X648912Y476994D02*
X651214Y474692D01*
X642324Y477694D02*
X645188Y480558D01*
X656928D02*
X657362Y480992D01*
X694938Y480160D02*
X696670Y481892D01*
X665892Y468128D02*
X666747D01*
X663753Y467306D02*
X665070D01*
X665892Y468128D01*
X666747D02*
X667647Y467228D01*
X661962Y469098D02*
X663753Y467306D01*
X667647Y467228D02*
X690024D01*
X653160Y468495D02*
X656489D01*
X657092Y469098D02*
X661962D01*
X656489Y468495D02*
X657092Y469098D01*
X652457Y469198D02*
X653160Y468495D01*
X690024Y467228D02*
X693378Y470582D01*
X648914Y455492D02*
X654166Y450240D01*
X665698D01*
X651214Y468087D02*
Y468995D01*
X647510Y470222D02*
X649182Y468550D01*
X646864Y470662D02*
X647303Y470222D01*
X647510D01*
X649182Y462757D02*
Y468550D01*
X641054Y472360D02*
X645372D01*
X646864Y470868D01*
Y470662D02*
Y470868D01*
X652380Y447826D02*
X668991D01*
X668992Y447824D02*
X670414D01*
X668991Y447826D02*
X668992Y447824D01*
X670414D02*
X670415Y447826D01*
X692466D01*
X1140357Y477817D02*
X1142450Y479910D01*
X816402Y364664D02*
X825800Y374062D01*
X708018Y364664D02*
X816402D01*
X741638Y350186D02*
X744444Y347380D01*
X820299D02*
X821455Y346224D01*
X860249D01*
X744444Y347380D02*
X820299D01*
X821110Y350020D02*
X861190D01*
X820360Y350770D02*
X821110Y350020D01*
X807910Y350770D02*
X820360D01*
X807220Y350080D02*
X807910Y350770D01*
X794770Y350080D02*
X807220D01*
X704370Y334853D02*
Y334957D01*
X699740Y339587D02*
X704370Y334957D01*
X699462Y339587D02*
X699740D01*
X694832Y344217D02*
X699462Y339587D01*
X694832Y344217D02*
Y345074D01*
X688414Y351492D02*
X694832Y345074D01*
X820886Y345096D02*
X821822Y344160D01*
X792942Y345096D02*
X820886D01*
X724483Y344462D02*
X724785Y344160D01*
X792006D01*
X714801Y344160D02*
X715103Y344462D01*
X724483D01*
X712928Y344160D02*
X714801D01*
X792006Y344160D02*
X792942Y345096D01*
X713933Y342959D02*
X810910D01*
X709512Y341942D02*
X712408D01*
X712778Y342312D02*
X713286D01*
X712408Y341942D02*
X712778Y342312D01*
X713286D02*
X713933Y342959D01*
X810910D02*
X811432Y343481D01*
X707470Y335350D02*
X708070Y334750D01*
X718625D01*
X705073Y334150D02*
X705177D01*
X704370Y334853D02*
X705073Y334150D01*
X705177D02*
X717247Y322080D01*
X705570Y335350D02*
X707470D01*
X718625Y334750D02*
X718917Y335042D01*
X811432Y343481D02*
X820804D01*
X721768Y347342D02*
X724612Y350186D01*
X715511Y347342D02*
X721768D01*
X714161Y348692D02*
X715511Y347342D01*
X698742Y348692D02*
X714161D01*
X724612Y350186D02*
X741638D01*
X697442Y347392D02*
X698742Y348692D01*
X860249Y346224D02*
X860777Y346751D01*
X821325Y342960D02*
X865683D01*
X866269Y343545D01*
X821822Y344160D02*
X863120D01*
X864320Y345360D02*
Y357552D01*
X863120Y344160D02*
X864320Y345360D01*
X859261Y373814D02*
X859320Y373873D01*
X856938Y374519D02*
X857643Y373814D01*
X856938Y374519D02*
Y381215D01*
X857643Y373814D02*
X859261D01*
X859320Y373873D02*
X870792D01*
X873174Y371491D01*
X856938Y381215D02*
X859770Y384047D01*
Y387696D01*
X858987Y369850D02*
X870631D01*
X858490Y371050D02*
X871919D01*
X856446Y367309D02*
X858987Y369850D01*
X853525Y366085D02*
X858490Y371050D01*
X856446Y366950D02*
Y367309D01*
X852579Y363083D02*
X856446Y366950D01*
X749006Y452780D02*
X1006217D01*
X747320Y454466D02*
X749006Y452780D01*
X763248Y398572D02*
X763698D01*
X763070Y398750D02*
X763248Y398572D01*
X741070Y386980D02*
X760851D01*
X763031Y384800D01*
X780873D01*
X781345Y384327D01*
X846728Y421380D02*
X858297D01*
X837597Y412249D02*
X846728Y421380D01*
X858788Y420888D02*
X868383D01*
X858297Y421380D02*
X858788Y420888D01*
X868383D02*
X868975Y421480D01*
X717694Y366134D02*
X730091Y378531D01*
X742489Y391334D02*
X826560D01*
X730091Y378937D02*
X742489Y391334D01*
X730091Y378531D02*
Y378937D01*
X709380Y366134D02*
X717694D01*
X719287Y361362D02*
X721007Y363083D01*
X703538Y361362D02*
X719287D01*
X721007Y363083D02*
X733763D01*
X734104Y362742D01*
X734725D01*
X735065Y363083D01*
X863702Y368650D02*
X864800Y367552D01*
Y366423D02*
Y367552D01*
X864958Y362194D02*
Y366265D01*
X864800Y366423D02*
X864958Y366265D01*
X864800Y362036D02*
X864958Y362194D01*
X864800Y358032D02*
Y362036D01*
X866269Y363210D02*
X867019Y363960D01*
X866269Y343545D02*
Y363210D01*
X820804Y343481D02*
X821325Y342960D01*
X718917Y335042D02*
X757901D01*
X651214Y470105D02*
Y474692D01*
X651156Y469053D02*
Y470047D01*
X651214Y470105D01*
X651156Y469053D02*
X651214Y468995D01*
X649182Y462757D02*
X653647Y458292D01*
X696670Y481892D02*
X1097522D01*
X642414Y456045D02*
X653174Y445284D01*
X644356Y455850D02*
X652380Y447826D01*
X644197Y416764D02*
X647269Y413692D01*
X649142D02*
X657095Y405739D01*
X647269Y413692D02*
X649142D01*
X711750Y381970D02*
X720114D01*
X734904Y396760D01*
X817447D01*
X663374Y477694D02*
X1096963D01*
X663222Y477542D02*
X663374Y477694D01*
X1096963D02*
X1099241Y475416D01*
X652356Y469550D02*
X652457Y469449D01*
Y469198D02*
Y469449D01*
X824414Y399066D02*
X826093D01*
X837597Y410569D01*
Y412249D01*
X782339Y384327D02*
X782812Y384800D01*
X816920D01*
X781345Y384327D02*
X782339D01*
X817447Y396760D02*
X817509Y396698D01*
X818255D01*
X818317Y396760D01*
X827223D01*
X899831Y396480D02*
X900641Y395670D01*
X709273Y366027D02*
X709380Y366134D01*
X761404Y438091D02*
X873316D01*
X746120Y453375D02*
X761404Y438091D01*
X757901Y335042D02*
X758359Y335500D01*
X797343D02*
X798543Y336700D01*
X758359Y335500D02*
X797343D01*
X892518Y384680D02*
X907488Y369710D01*
X951720D01*
X717247Y322080D02*
X746432D01*
X794399Y323645D02*
X799040Y328286D01*
Y335500D01*
X743554Y326287D02*
Y326655D01*
Y326287D02*
X746196Y323645D01*
X746564D01*
X738717Y331492D02*
X743554Y326655D01*
X746564Y323645D02*
X748129Y322080D01*
X751391Y323645D02*
X794399D01*
X748626Y320880D02*
X751391Y323645D01*
X715414Y331492D02*
X738717D01*
X746432Y322080D02*
X747632Y320880D01*
X748626D01*
X871919Y371050D02*
X871974Y370994D01*
X851723Y366085D02*
X853525D01*
X850261Y367547D02*
X851723Y366085D01*
X870686Y369794D02*
X872471D01*
X873174Y370497D01*
Y371491D01*
X870631Y369850D02*
X870686Y369794D01*
X816920Y384800D02*
X817800Y385680D01*
X710009Y343142D02*
X711911D01*
X708594Y342860D02*
X709512Y341942D01*
X709091Y344060D02*
X710009Y343142D01*
X711911D02*
X712928Y344160D01*
X706769Y344060D02*
X709091D01*
X675981Y437292D02*
X692585D01*
X689739Y352042D02*
X690911D01*
X687917Y352692D02*
X689089D01*
X689739Y352042D01*
X687214Y350995D02*
Y351989D01*
Y350995D02*
X693632Y344577D01*
Y340534D02*
Y344577D01*
X690911Y352042D02*
X693632Y354763D01*
X687214Y351989D02*
X687917Y352692D01*
X693632Y354763D02*
Y362155D01*
X798543Y336700D02*
X873821D01*
X876766Y339645D01*
X644197Y416764D02*
Y417020D01*
X643414Y417803D02*
X644197Y417020D01*
X639016Y416492D02*
X643028D01*
X643414Y417803D02*
Y429492D01*
X637816Y417692D02*
X639016Y416492D01*
X628763Y415292D02*
X631163Y417692D01*
X637816D01*
X657095Y404864D02*
Y405739D01*
Y404864D02*
X658592Y403367D01*
X659997D01*
X661375Y401989D01*
X873316Y438091D02*
X880429Y430978D01*
X734014Y418626D02*
X753891Y398750D01*
X763070D01*
X735065Y363083D02*
X852579D01*
X702494Y370188D02*
X708018Y364664D01*
X600009Y467897D02*
X604414Y463492D01*
X615414Y416492D02*
X616614Y415292D01*
X628763D01*
X636990Y458222D02*
Y475408D01*
X637244Y475662D02*
X646388D01*
X636990Y475408D02*
X637244Y475662D01*
X638414Y473630D02*
X639784D01*
X641054Y472360D01*
X923616Y646538D02*
X930100Y640055D01*
Y573645D02*
Y640055D01*
Y573645D02*
X936583Y567161D01*
X1002993D01*
X1037434Y532721D01*
X1059181D01*
X887762Y646538D02*
X923617D01*
X864070Y670230D02*
X887762Y646538D01*
X833470Y670230D02*
X864070D01*
X648414Y384492D02*
X650414Y386492D01*
X643213Y384492D02*
X648414D01*
X641213Y382492D02*
X643213Y384492D01*
X849491Y457182D02*
X849689Y457380D01*
X883934D01*
X886480Y454834D01*
X747779Y457401D02*
X815027D01*
X815246Y457182D01*
X849491D01*
X841777Y465070D02*
X842775Y464072D01*
X842274Y466270D02*
X843263Y465281D01*
X817890Y464571D02*
X834785D01*
X835284Y465070D02*
X841777D01*
X834787Y466270D02*
X842274D01*
X817401Y465780D02*
X834297D01*
X817391Y464072D02*
X817890Y464571D01*
X816903Y465281D02*
X817401Y465780D01*
X712648Y465281D02*
X816903D01*
X834785Y464571D02*
X835284Y465070D01*
X797613Y464072D02*
X817391D01*
X834297Y465780D02*
X834787Y466270D01*
X715414Y407492D02*
Y409205D01*
X724835Y418626D02*
X734014D01*
X533830Y308110D02*
X542080Y316360D01*
X599170D01*
X841280Y463870D02*
X845871Y459279D01*
X891866D01*
X697167Y480692D02*
X1096272D01*
X693335Y436542D02*
X725814D01*
X746120Y453375D02*
Y455666D01*
X742180Y452908D02*
Y455666D01*
X725814Y436542D02*
X742180Y452908D01*
X705569Y342860D02*
X706769Y344060D01*
X692585Y437292D02*
X693335Y436542D01*
X675269Y438004D02*
X675981Y437292D01*
X660455Y438004D02*
X675269D01*
X654185Y444273D02*
X660455Y438004D01*
X692466Y447826D02*
X699982Y455342D01*
X653877Y444273D02*
X654185D01*
X653174Y444976D02*
Y445284D01*
Y444976D02*
X653877Y444273D01*
X891866Y459279D02*
X892938Y460352D01*
X922676D01*
X923669Y459360D01*
X937310D01*
X843263Y465281D02*
X1056124D01*
X842775Y464072D02*
X850465D01*
X852591Y461946D01*
X1109857D01*
X745960Y459220D02*
X747779Y457401D01*
X664473Y461208D02*
X665895D01*
X696960Y367180D02*
X711750Y381970D01*
X906212Y403370D02*
X935660D01*
X880429Y430978D02*
X902610D01*
X899672Y425623D02*
X903318Y429270D01*
X888600Y421977D02*
X892246Y425623D01*
X888600Y420983D02*
Y421977D01*
X892246Y425623D02*
X899672D01*
X902610Y430978D02*
X903318Y430270D01*
Y429270D02*
Y430270D01*
X783717Y497506D02*
X1109682D01*
X783605Y497618D02*
X783717Y497506D01*
X827223Y396760D02*
X827503Y396480D01*
X899831D01*
X900641Y395670D02*
X936870D01*
X701665Y370188D02*
X702494D01*
X693632Y362155D02*
X701665Y370188D01*
X642414Y456045D02*
Y469742D01*
X742180Y455666D02*
X743334Y456820D01*
X744966D01*
X746120Y455666D01*
X888600Y420983D02*
X906212Y403370D01*
X747320Y454466D02*
Y456163D01*
X738806Y452292D02*
X740980Y454466D01*
Y456163D02*
X742837Y458020D01*
X742340Y459220D02*
X745960D01*
X742837Y458020D02*
X745463D01*
X740980Y454466D02*
Y456163D01*
X745463Y458020D02*
X747320Y456163D01*
X644356Y455850D02*
Y465550D01*
X857043Y390423D02*
X859770Y387696D01*
X836126Y386420D02*
Y391334D01*
X826560D02*
X832984Y384910D01*
X834616D02*
X836126Y386420D01*
X832984Y384910D02*
X834616D01*
X1006217Y452780D02*
X1115414Y343582D01*
X710650Y455342D02*
X713700Y452292D01*
X738806D01*
X1099241Y475416D02*
X1174208D01*
X1062186Y471344D02*
X1160992D01*
X1164555Y467781D01*
X1056124Y465281D02*
X1062186Y471344D01*
X693378Y470582D02*
X707348D01*
X712648Y465281D01*
X876766Y349932D02*
X879014Y352180D01*
X876766Y339645D02*
Y349932D01*
X692616Y339518D02*
X693632Y340534D01*
X886480Y454834D02*
X1090126D01*
X1160414Y384546D01*
X864320Y357552D02*
X864800Y358032D01*
X1101597Y477817D02*
X1140357D01*
X699982Y455342D02*
X710650D01*
X1188224Y476617D02*
X1196414Y484806D01*
X1100348Y476617D02*
X1188224D01*
D14*
X550236Y369045D02*
X618496D01*
X620593Y371142D01*
X621914D01*
X870728Y423723D02*
X871531Y424526D01*
X873546D01*
X869995Y423723D02*
X870728D01*
X862969Y424526D02*
X869193D01*
X869995Y423723D01*
X861859Y423415D02*
X862969Y424526D01*
X652300Y344960D02*
X654353Y342907D01*
X658637D01*
X659913Y341631D01*
X668841D01*
X668870Y341660D01*
X673563D01*
X676077Y344173D01*
X833537Y410943D02*
X846009Y423415D01*
X861859D01*
X826830Y408908D02*
X831520D01*
X833537Y410925D02*
Y410943D01*
X831520Y408908D02*
X833537Y410925D01*
X873546Y424526D02*
X876150Y427130D01*
X622461Y347307D02*
X628321D01*
X621595Y348173D02*
X622461Y347307D01*
X596892Y348173D02*
X621595D01*
X628321Y347307D02*
X630386Y345242D01*
X595693Y349372D02*
X596892Y348173D01*
X589725Y349372D02*
X595693D01*
X589015Y348662D02*
X589725Y349372D01*
X561298Y348662D02*
X589015D01*
X513102Y357742D02*
X513933Y356911D01*
Y356676D02*
Y356911D01*
Y356676D02*
X514763Y355845D01*
X515497D01*
X516151Y356499D01*
X615407D01*
X617035Y354870D01*
X636786D01*
X638414Y353242D01*
X496914Y370992D02*
X498384Y372462D01*
X546819D01*
X550236Y369045D01*
X460664Y365242D02*
Y365994D01*
X466765Y372095D01*
X493607D01*
X494710Y370992D01*
X496914D01*
X506914D02*
X508551Y369355D01*
X539914D01*
X496914Y430992D02*
X499340Y428566D01*
X515592D01*
X518018Y426140D01*
X523600D01*
X526020Y395340D02*
X549560Y371800D01*
X602910D01*
D15*
X818292Y414487D02*
X820308D01*
X680594Y500798D02*
X707186D01*
X658614Y494619D02*
X674415D01*
X657126Y489496D02*
Y493131D01*
X1137436Y502012D02*
X1152610Y486838D01*
X674415Y494619D02*
X680594Y500798D01*
X657126Y493131D02*
X658614Y494619D01*
X864274Y501522D02*
X1020261D01*
X707186Y500798D02*
X708098Y501710D01*
X864085D02*
X864274Y501522D01*
X708098Y501710D02*
X864085D01*
X651020Y486077D02*
X653707D01*
X657126Y489496D01*
X621440Y335930D02*
X641648D01*
X603720D02*
X619140D01*
X619660Y335410D01*
X594107Y345543D02*
X603720Y335930D01*
X619660Y335410D02*
X620920D01*
X621440Y335930D01*
X641648D02*
X648420Y342702D01*
X650424Y486673D02*
X651020Y486077D01*
X643473Y486673D02*
X650424D01*
X640292Y483492D02*
X643473Y486673D01*
X521686Y506130D02*
X564584Y463232D01*
X565044D02*
X565934Y462341D01*
X564584Y463232D02*
X565044D01*
X857800Y385471D02*
Y386880D01*
Y384863D02*
Y385471D01*
X850980Y393700D02*
X857800Y386880D01*
X859502Y376918D02*
X869464Y386880D01*
X859502Y376477D02*
Y376918D01*
X801735Y427144D02*
Y428044D01*
X749320Y340890D02*
X749430Y340780D01*
X748440Y340890D02*
X749320D01*
X750642Y320110D02*
X853152D01*
X692708Y323972D02*
X696570Y320110D01*
X749442Y318910D02*
X750642Y320110D01*
X745616D02*
X746816Y318910D01*
X696570Y320110D02*
X745616D01*
X853152D02*
X857872Y324830D01*
X746816Y318910D02*
X749442D01*
X662884Y333973D02*
X662932Y333926D01*
X662884Y333973D02*
Y334536D01*
X621284Y450938D02*
X621384D01*
X570696Y457120D02*
X615101D01*
X821590Y394790D02*
X825890D01*
X801735Y425535D02*
X803770Y423500D01*
X801735Y425535D02*
Y427144D01*
X803770Y419623D02*
Y423500D01*
X666067Y397430D02*
X667504Y398867D01*
X670300D02*
X671737Y397430D01*
X660816D02*
X666067D01*
X671737D02*
X682202D01*
X667504Y398867D02*
X670300D01*
X651016Y393867D02*
X657253D01*
X647491Y393803D02*
X650951D01*
X657253Y393867D02*
X660816Y397430D01*
X650951Y393803D02*
X651016Y393867D01*
X647388Y393906D02*
X647491Y393803D01*
X646537Y393906D02*
X647388D01*
X643012Y397430D02*
X646537Y393906D01*
X881800Y380380D02*
X885080Y383660D01*
X881800Y380380D02*
Y380380D01*
X885080Y383660D02*
X886580D01*
X889800Y386880D01*
X890340D01*
X686384Y394212D02*
X687664Y395492D01*
X686384Y391426D02*
Y394212D01*
X678866Y383908D02*
X686384Y391426D01*
X678866Y380605D02*
Y383908D01*
X678444Y380183D02*
X678866Y380605D01*
X678444Y378426D02*
Y380183D01*
Y378426D02*
X682911Y373959D01*
X683197D01*
X687664Y369492D01*
X391930Y446198D02*
X605414D01*
X869464Y386880D02*
X881800D01*
X832316Y388364D02*
X833800Y386880D01*
X662884Y334536D02*
X664948Y336600D01*
X660512Y330368D02*
Y332472D01*
Y330368D02*
X663845Y327035D01*
X662576Y334536D02*
X662884D01*
X660512Y332472D02*
X662576Y334536D01*
X619478Y351520D02*
X635199D01*
X552361Y751553D02*
X785533D01*
X494022Y346060D02*
X496528Y348565D01*
X278545Y346060D02*
X494022D01*
X260816Y363789D02*
X278545Y346060D01*
X496528Y348565D02*
X499673D01*
X681407Y323972D02*
X692708D01*
X643414Y412492D02*
X645712Y410194D01*
X647712D01*
X658459Y399447D01*
X663845Y327035D02*
X678345D01*
X681407Y323972D01*
X857872Y324830D02*
X963710D01*
X596565Y351477D02*
X596770Y351272D01*
X588853Y351477D02*
X596565D01*
X588618Y351242D02*
X588853Y351477D01*
X596770Y351272D02*
X619230D01*
X619478Y351520D01*
X545082Y351242D02*
X588618D01*
X591311Y345543D02*
X594107D01*
X590112Y344344D02*
X591311Y345543D01*
X579840Y344344D02*
X590112D01*
X457096Y359646D02*
X512029D01*
X512425Y360042D01*
X633044D01*
X639286Y351137D02*
X639391Y351242D01*
X641602D01*
X635477D02*
X637437D01*
X637542Y351137D02*
X639286D01*
X637437Y351242D02*
X637542Y351137D01*
X641602Y351242D02*
X643594Y353234D01*
X438870Y377872D02*
X457096Y359646D01*
X633956Y359129D02*
X642549D01*
X633044Y360042D02*
X633956Y359129D01*
X642549D02*
X647039Y354640D01*
Y351844D02*
Y354640D01*
X609250Y379850D02*
X615608Y373492D01*
X620957D01*
X621496Y399716D02*
X623782Y397430D01*
X513546Y399716D02*
X621496D01*
X623782Y397430D02*
X643012D01*
X648420Y342702D02*
Y350463D01*
X418864Y499792D02*
X483066D01*
X156914Y453310D02*
X210316Y506712D01*
X366292Y506130D02*
X521686D01*
X210316Y506712D02*
X365710D01*
X366292Y506130D01*
X743339Y561826D02*
X861576D01*
X623528Y561006D02*
X624725Y562203D01*
X861576Y561826D02*
X866352Y566602D01*
X742962Y562203D02*
X743339Y561826D01*
X624725Y562203D02*
X742962D01*
X525484Y778430D02*
X552361Y751553D01*
X785533D02*
X875612Y661474D01*
X615101Y457120D02*
X621284Y450938D01*
X565934Y461882D02*
X570696Y457120D01*
X565934Y461882D02*
Y462341D01*
X1020261Y501522D02*
X1020751Y502012D01*
X343134Y351306D02*
X527388D01*
X300948Y393492D02*
X343134Y351306D01*
X527388D02*
X528104Y350590D01*
X647039Y351844D02*
X648420Y350463D01*
X801800Y417653D02*
X803770Y419623D01*
X801800Y414979D02*
Y417653D01*
Y414979D02*
X808349Y408430D01*
X504402Y408860D02*
X513546Y399716D01*
X344636Y493492D02*
X391930Y446198D01*
X580283Y569642D02*
X879306D01*
X571901Y561260D02*
X580283Y569642D01*
X879306D02*
X881338Y571674D01*
X366852Y441626D02*
X390776Y417702D01*
X397331D01*
X305266Y441626D02*
X366852D01*
X310844Y434514D02*
X341334D01*
X299668Y423338D02*
X310844Y434514D01*
X341334D02*
X343366Y436546D01*
X299170Y447722D02*
X305266Y441626D01*
X408459Y406574D02*
X494750D01*
X397331Y417702D02*
X408459Y406574D01*
X228050Y415464D02*
X316188D01*
X332444Y399208D01*
X219668Y423846D02*
X228050Y415464D01*
X215380Y384780D02*
X235950D01*
X356950Y263780D01*
X387970Y259160D02*
X394271Y265461D01*
X416020D01*
X417508Y266949D01*
X426711D01*
X438350Y255310D01*
X260816Y363789D02*
Y389429D01*
X64220Y251126D02*
X481796D01*
X44408Y270938D02*
X64220Y251126D01*
X481796D02*
X485113Y254443D01*
X549868Y183562D02*
X557488D01*
X635199Y351520D02*
X635477Y351242D01*
X826210Y278740D02*
Y289300D01*
Y278740D02*
X843150Y261800D01*
X833804Y393700D02*
X850980D01*
X832316Y392212D02*
X833804Y393700D01*
X832316Y388364D02*
Y392212D01*
X434414Y160035D02*
X436575D01*
X438130Y161590D01*
Y173690D01*
X439780Y175340D01*
X438130Y170862D02*
X1133518D01*
X446109Y190674D02*
X532342D01*
X441410Y185975D02*
X446109Y190674D01*
X434414Y185975D02*
X441410D01*
X366200Y391610D02*
X374516D01*
X362890Y388300D02*
X366200Y391610D01*
X376640Y395652D02*
X394420Y377872D01*
X541486Y347646D02*
X545082Y351242D01*
X1020751Y502012D02*
X1137436D01*
X825890Y394790D02*
X832316Y388364D01*
X820308Y414487D02*
X833800Y427980D01*
X814106Y408430D02*
X819228Y413552D01*
X808349Y408430D02*
X814106D01*
X818292Y414487D02*
X819228Y413552D01*
X889800Y371680D02*
Y373880D01*
X890340Y386880D02*
X894038Y390578D01*
X744150Y426566D02*
X754414Y416302D01*
X744150Y426566D02*
Y454850D01*
X1198584Y450516D02*
Y486584D01*
X1198330Y486838D02*
X1198584Y486584D01*
X1165564Y417496D02*
X1198584Y450516D01*
X1152610Y486838D02*
X1198330D01*
X1165564Y384476D02*
Y417496D01*
X1157436Y376348D02*
X1165564Y384476D01*
X1127972Y376348D02*
X1157436D01*
X1049994Y243506D02*
X1117050D01*
X500592Y347646D02*
X541486D01*
X499673Y348565D02*
X500592Y347646D01*
X166914Y433674D02*
X206968Y393620D01*
X256625D01*
X260816Y389429D01*
X409660Y235632D02*
X1033992D01*
X397468Y247824D02*
X409660Y235632D01*
X1033992D02*
X1101175Y302815D01*
X241766Y230044D02*
X651214D01*
X665438Y215820D01*
X1070822Y312340D02*
X1097914D01*
X1174414Y342018D02*
Y389810D01*
X1167850Y335454D02*
X1174414Y342018D01*
X1101937Y335454D02*
X1167850D01*
X1098508Y332025D02*
X1101937Y335454D01*
X1098508Y316404D02*
Y332025D01*
Y316404D02*
X1101175Y313737D01*
Y302815D02*
Y313737D01*
X352764Y247824D02*
X397468D01*
X665438Y215820D02*
X794470D01*
X800566Y221916D01*
X961348D01*
X999772Y183492D01*
X175734Y88312D02*
X1005290D01*
X134414Y46992D02*
X175734Y88312D01*
X557488Y183562D02*
X681572D01*
X681642Y183492D01*
X532342Y190674D02*
X539631Y183385D01*
Y182912D02*
Y183385D01*
Y182912D02*
X544388Y178155D01*
X696099D01*
X727160Y209216D01*
X881338D01*
X1083546Y177466D02*
X1216642Y310562D01*
X930614Y177466D02*
X1083546D01*
X895562Y212518D02*
X930614Y177466D01*
X477224Y212518D02*
X895562D01*
X466048Y201342D02*
X477224Y212518D01*
X228304Y768270D02*
Y789225D01*
X231479Y792400D01*
X358860D01*
X372830Y778430D01*
X525484D01*
X875612Y661474D02*
X1257512D01*
X136992Y587168D02*
X387562D01*
X84414Y534590D02*
X136992Y587168D01*
X497036Y408860D02*
X504402D01*
X494750Y406574D02*
X497036Y408860D01*
X172328Y447722D02*
X299170D01*
X161914Y437308D02*
X172328Y447722D01*
X450558Y370502D02*
X453602D01*
X435822Y385238D02*
X450558Y370502D01*
X398992Y385238D02*
X435822D01*
X385022Y399208D02*
X398992Y385238D01*
X332444Y399208D02*
X385022D01*
X858986Y261794D02*
X979128D01*
X851635Y254443D02*
X858986Y261794D01*
X485113Y254443D02*
X851635D01*
X394420Y377872D02*
X438870D01*
X364702Y287142D02*
Y301672D01*
X364956Y301926D01*
X427623D01*
X1101414Y98726D02*
X1290841D01*
X1290914Y98799D01*
X757914Y95932D02*
X760454Y93392D01*
X1308820D01*
X1371304Y155876D01*
Y201088D01*
X343366Y436546D02*
X364448D01*
X1101278Y320214D02*
X1189948D01*
X1044170Y338992D02*
X1070822Y312340D01*
X1133518Y170862D02*
X1257978Y295322D01*
X380958Y209724D02*
X395690Y194992D01*
X427414D01*
X430914Y198492D01*
X506960Y720010D02*
X607782D01*
X640800Y686992D01*
X428710Y716454D02*
X441664Y703500D01*
X282698Y716454D02*
X428710D01*
X314132Y47164D02*
X630894D01*
X284414Y76882D02*
X314132Y47164D01*
X1239732Y676992D02*
Y713279D01*
X1234525Y718486D02*
X1239732Y713279D01*
X974538Y718486D02*
X1234525D01*
X973032Y719992D02*
X974538Y718486D01*
X690838Y173910D02*
X754338D01*
X414414Y75866D02*
X425590Y64690D01*
X567648D01*
X573490Y58848D01*
X641054D01*
X646896Y53006D01*
X918930D01*
X938488Y33448D01*
X1083776Y63420D02*
X1121368Y25828D01*
X812758Y63420D02*
X1083776D01*
X804630Y71548D02*
X812758Y63420D01*
X597914Y71548D02*
X804630D01*
X521420Y250110D02*
X809456D01*
X767920Y160486D02*
X904414D01*
X764414Y163992D02*
X767920Y160486D01*
D16*
X669248Y513018D02*
Y516570D01*
Y513018D02*
X670514Y511752D01*
X653376Y488902D02*
Y493170D01*
X647329Y499217D02*
X653376Y493170D01*
X647329Y499217D02*
Y500479D01*
X674740Y527890D01*
X629964Y464959D02*
Y476765D01*
X639643Y454903D02*
Y458992D01*
X630414Y445674D02*
X639643Y454903D01*
X627778Y445674D02*
X630414D01*
X629964Y476765D02*
X644867Y491668D01*
X647145D02*
X649908Y488905D01*
X644867Y491668D02*
X647145D01*
X651348Y488905D02*
X651945Y488309D01*
X649908Y488905D02*
X651348D01*
X652783Y488309D02*
X653376Y488902D01*
X651945Y488309D02*
X652783D01*
X597112Y486584D02*
X607852D01*
X645349Y529614D02*
X675454D01*
X619018Y503283D02*
X645349Y529614D01*
X619018Y497750D02*
Y503283D01*
X607852Y486584D02*
X619018Y497750D01*
X628952Y460918D02*
X630326Y459544D01*
X620301Y437580D02*
X631457D01*
X637994Y444117D01*
X643789D01*
X888030Y658350D02*
X897270Y649110D01*
X982850D01*
X619332Y447708D02*
X620055Y448431D01*
X613016Y447708D02*
X619332D01*
X621266Y448431D02*
X624290Y445408D01*
X620055Y448431D02*
X621266D01*
X618527Y437580D02*
X618995Y437112D01*
X595100Y437580D02*
X618527D01*
X624290Y445408D02*
X627512D01*
X619833Y437112D02*
X620301Y437580D01*
X618995Y437112D02*
X619833D01*
X587290Y434390D02*
X591910D01*
X595100Y437580D01*
X662663Y383504D02*
X671509Y392350D01*
X640608Y381030D02*
X650398D01*
X652872Y383504D01*
X662663D01*
X637684Y383954D02*
X640608Y381030D01*
X634357Y344305D02*
X635657Y343005D01*
X607140D02*
X621965D01*
X636125D02*
X637128Y342002D01*
X630892Y343490D02*
X631707Y344305D01*
X603570Y346576D02*
X607140Y343005D01*
X622450Y343490D02*
X630892D01*
X635657Y343005D02*
X636125D01*
X631707Y344305D02*
X634357D01*
X621965Y343005D02*
X622450Y343490D01*
X593268Y508928D02*
Y509043D01*
X584662Y517649D02*
X593268Y509043D01*
Y508928D02*
X594588Y507608D01*
X594645Y507666D01*
X612370Y383240D02*
X613084Y383954D01*
X637684D01*
X595032Y347775D02*
X596231Y346576D01*
X590387Y347775D02*
X595032D01*
X589187Y346576D02*
X590387Y347775D01*
X630888Y531338D02*
X676168D01*
X675454Y529614D02*
X676464Y528604D01*
X676168Y531338D02*
X680129Y527377D01*
Y506991D02*
Y527377D01*
X596231Y346576D02*
X603570D01*
X578915D02*
X589187D01*
X583650Y522559D02*
X584662Y521547D01*
Y517649D02*
Y521547D01*
X607194Y453530D02*
X613016Y447708D01*
X627512Y445408D02*
X627778Y445674D01*
X628952Y460918D02*
Y463947D01*
X629964Y464959D01*
X605550Y506000D02*
X630888Y531338D01*
X680129Y506991D02*
X684090Y503030D01*
X934892Y570920D02*
X963992D01*
X1006914Y613842D01*
X676464Y523786D02*
Y528604D01*
X378620Y465410D02*
Y474650D01*
Y465410D02*
X382250Y461780D01*
X669248Y516570D02*
X676464Y523786D01*
X637128Y342002D02*
X642587D01*
X577608Y345269D02*
X578915Y346576D01*
X577608Y344958D02*
Y345269D01*
X577060Y344410D02*
X577608Y344958D01*
X650414Y432742D02*
Y435649D01*
X651307Y436542D01*
X674664D01*
X771980Y576180D02*
X807455Y611655D01*
X821425D01*
X856900Y647130D01*
X886490Y669130D02*
Y741916D01*
X869414Y758992D02*
X886490Y741916D01*
X568100Y483734D02*
X568920Y484554D01*
Y491700D01*
X396407Y415470D02*
X400100Y411776D01*
X321530Y415470D02*
X396407D01*
X586630Y453530D02*
X607194D01*
X572220Y459910D02*
Y463923D01*
X557664Y478479D02*
X572220Y463923D01*
X557664Y478479D02*
Y482492D01*
X1215888Y447160D02*
Y510232D01*
X1126180Y599940D02*
X1215888Y510232D01*
D100*
X1075034Y447612D02*
D03*
D03*
X697481Y465558D02*
D03*
D03*
X696876Y461758D02*
D03*
X670414Y461206D02*
D03*
X711481Y462843D02*
D03*
D03*
X635816Y469778D02*
D03*
D03*
X639624Y469242D02*
D03*
D03*
X674414Y490949D02*
D03*
D03*
X673724Y496289D02*
D03*
X673476Y504252D02*
D03*
X672980Y506550D02*
D03*
X659982Y507742D02*
D03*
D03*
X660110Y503180D02*
D03*
X661472Y499732D02*
D03*
X652078Y493037D02*
D03*
X677156Y493513D02*
D03*
X670238Y501314D02*
D03*
X628952Y465538D02*
D03*
X717355Y393592D02*
D03*
D03*
X717414Y395141D02*
D03*
X717331Y401368D02*
D03*
X712577Y393359D02*
D03*
X635741Y454532D02*
D03*
X636345Y364161D02*
D03*
X632615Y334112D02*
D03*
X631400Y457380D02*
D03*
X631297Y371217D02*
D03*
D03*
X620951Y370248D02*
D03*
D03*
X665383Y363354D02*
D03*
D03*
X655358Y361845D02*
D03*
D03*
X615889Y338018D02*
D03*
X562100Y345620D02*
D03*
D03*
X620290Y336930D02*
D03*
X498190Y357060D02*
D03*
D03*
X513102Y357742D02*
D03*
X376957Y193492D02*
D03*
D03*
X500830Y329120D02*
D03*
D03*
X712699Y392958D02*
D03*
D03*
X694511Y493211D02*
D03*
D03*
X692592Y494450D02*
D03*
D03*
X659879Y480384D02*
D03*
D03*
X658947Y477694D02*
D03*
X653889Y481308D02*
D03*
X652939Y484260D02*
D03*
D03*
X652364Y489321D02*
D03*
D03*
X659789Y476417D02*
D03*
X651907Y482958D02*
D03*
X649172Y488193D02*
D03*
D03*
X642246Y480986D02*
D03*
D03*
X650801Y490883D02*
D03*
X620830Y492608D02*
D03*
X614414Y494577D02*
D03*
X546475Y475918D02*
D03*
D03*
X600009Y477866D02*
D03*
X683468Y454546D02*
D03*
X680414Y457401D02*
D03*
X684750Y453200D02*
D03*
X664993Y459116D02*
D03*
X663080Y456443D02*
D03*
X621380Y444595D02*
D03*
D03*
X657672Y480242D02*
D03*
X666264Y467228D02*
D03*
X655732Y466776D02*
D03*
X660110Y468348D02*
D03*
X666034Y465098D02*
D03*
X618428Y442613D02*
D03*
X630326Y459544D02*
D03*
X664949Y468459D02*
D03*
X664064Y468056D02*
D03*
D03*
X635364Y438124D02*
D03*
X556694Y431080D02*
D03*
X525431Y452456D02*
D03*
X652859Y465381D02*
D03*
D03*
X650414Y466617D02*
D03*
D03*
X648914Y455492D02*
D03*
X665698Y450240D02*
D03*
X1039170Y475200D02*
D03*
D03*
X650864Y459166D02*
D03*
X669703Y449540D02*
D03*
X817800Y371680D02*
D03*
D03*
X824322Y356730D02*
D03*
D03*
X840871Y364992D02*
D03*
D03*
X816617Y346630D02*
D03*
D03*
X824890Y354750D02*
D03*
D03*
X861190Y350020D02*
D03*
X794770Y350080D02*
D03*
X698360Y341750D02*
D03*
D03*
X704290Y340570D02*
D03*
D03*
X715414Y343712D02*
D03*
D03*
X709500Y335500D02*
D03*
D03*
X705412Y337095D02*
D03*
D03*
X719302Y341846D02*
D03*
X724570Y339570D02*
D03*
D03*
X721089Y348242D02*
D03*
X839415Y351580D02*
D03*
X720258Y340890D02*
D03*
X857954Y374564D02*
D03*
D03*
X859502Y376477D02*
D03*
X857800Y384863D02*
D03*
X801735Y427144D02*
D03*
X801584Y430022D02*
D03*
X803902Y425518D02*
D03*
D03*
X739298Y418417D02*
D03*
D03*
X729151Y409393D02*
D03*
D03*
X724872Y396935D02*
D03*
D03*
X728443Y396198D02*
D03*
D03*
X823090Y440240D02*
D03*
D03*
X825800Y449220D02*
D03*
X858525Y453530D02*
D03*
D03*
X678757Y471835D02*
D03*
D03*
X652384Y471650D02*
D03*
X692670Y524810D02*
D03*
X732160Y560230D02*
D03*
X668372Y491492D02*
D03*
X932360Y738430D02*
D03*
D03*
X715414Y363492D02*
D03*
X729061Y384727D02*
D03*
X750489Y385025D02*
D03*
X803360Y394280D02*
D03*
X763698Y398572D02*
D03*
X872681Y426312D02*
D03*
D03*
X870362Y424608D02*
D03*
D03*
X866291Y421638D02*
D03*
D03*
X847328Y409394D02*
D03*
D03*
X826870Y406560D02*
D03*
D03*
X754414Y382514D02*
D03*
D03*
X731935Y376612D02*
D03*
D03*
X727328Y376828D02*
D03*
D03*
X717024Y369710D02*
D03*
D03*
X711544Y363362D02*
D03*
D03*
X721318Y362333D02*
D03*
D03*
X757030Y368728D02*
D03*
D03*
X778250Y376970D02*
D03*
D03*
X798094Y380974D02*
D03*
D03*
X819400Y388830D02*
D03*
D03*
X862353Y365187D02*
D03*
X854668Y355588D02*
D03*
X818440Y344346D02*
D03*
X786564Y340671D02*
D03*
X778580Y338910D02*
D03*
X846818Y350830D02*
D03*
X792550Y337700D02*
D03*
X748440Y340890D02*
D03*
X703094Y335172D02*
D03*
X719180Y316360D02*
D03*
X823945Y321630D02*
D03*
X647614Y470972D02*
D03*
D03*
X644384Y469469D02*
D03*
X659781Y454874D02*
D03*
X652300Y344960D02*
D03*
X676077Y344173D02*
D03*
X667414Y384492D02*
D03*
X670323Y455881D02*
D03*
X680680Y559680D02*
D03*
D03*
X669680Y351822D02*
D03*
X669646Y425492D02*
D03*
Y426908D02*
D03*
X665942Y501781D02*
D03*
D03*
X662932Y333926D02*
D03*
D03*
X664414Y473542D02*
D03*
X662414Y490141D02*
D03*
X907280Y779570D02*
D03*
D03*
X888030Y658350D02*
D03*
X982850Y649110D02*
D03*
X619414Y438124D02*
D03*
X667532Y525382D02*
D03*
X667693Y478708D02*
D03*
X757460Y483560D02*
D03*
D03*
X614414Y471492D02*
D03*
X560340Y460240D02*
D03*
X496760Y483340D02*
D03*
D03*
X579700Y771760D02*
D03*
D03*
X564414Y461712D02*
D03*
X831822Y341870D02*
D03*
D03*
X643414Y412492D02*
D03*
X767580Y399960D02*
D03*
X721710Y392658D02*
D03*
D03*
X870670Y432209D02*
D03*
X727328Y383714D02*
D03*
D03*
X733128Y380912D02*
D03*
D03*
X726021Y386816D02*
D03*
D03*
X765121Y435242D02*
D03*
D03*
X787600Y470580D02*
D03*
D03*
X587290Y434390D02*
D03*
X643789Y444117D02*
D03*
X657973Y464486D02*
D03*
X678260Y469920D02*
D03*
X833910Y527890D02*
D03*
X983180Y606980D02*
D03*
D03*
X672400Y491492D02*
D03*
D03*
X770660Y525910D02*
D03*
D03*
X614414Y467492D02*
D03*
X624395Y463492D02*
D03*
X659816Y538484D02*
D03*
D03*
X699224Y697180D02*
D03*
D03*
X746020Y753610D02*
D03*
D03*
X756580Y367510D02*
D03*
D03*
X719414Y359772D02*
D03*
X824414Y399066D02*
D03*
X817882Y397598D02*
D03*
X807392Y393588D02*
D03*
X821590Y394790D02*
D03*
X801800Y443180D02*
D03*
X822140Y439340D02*
D03*
X825800Y436680D02*
D03*
X854668Y435992D02*
D03*
X809355Y425806D02*
D03*
X749430Y390390D02*
D03*
X691952Y373598D02*
D03*
X674428Y419992D02*
D03*
X622517Y418853D02*
D03*
X614778Y419105D02*
D03*
X629926Y451326D02*
D03*
X627264Y483492D02*
D03*
X619067Y485423D02*
D03*
D03*
X621280Y489720D02*
D03*
D03*
X620168Y487838D02*
D03*
D03*
X653400Y663960D02*
D03*
D03*
X639650Y724240D02*
D03*
D03*
X684750Y714450D02*
D03*
D03*
X695090Y551992D02*
D03*
D03*
X668902Y395492D02*
D03*
X652414Y390492D02*
D03*
X650414Y384692D02*
D03*
X649873Y397502D02*
D03*
X648695Y388644D02*
D03*
X663414Y371492D02*
D03*
X761530Y333230D02*
D03*
D03*
X793087Y334750D02*
D03*
D03*
X885940Y382140D02*
D03*
D03*
X892518Y384680D02*
D03*
X951720Y369710D02*
D03*
X963710Y324830D02*
D03*
D03*
X379720Y438020D02*
D03*
D03*
X684414Y429492D02*
D03*
D03*
X685876Y417520D02*
D03*
D03*
X664948Y336600D02*
D03*
D03*
X711500Y323370D02*
D03*
D03*
X693770Y320760D02*
D03*
D03*
X699414Y331492D02*
D03*
X702065Y330656D02*
D03*
X746159Y327366D02*
D03*
X793320Y326250D02*
D03*
X734718Y333052D02*
D03*
D03*
X748129Y322080D02*
D03*
X811743Y342731D02*
D03*
X813670Y353540D02*
D03*
X820050Y350020D02*
D03*
D03*
X874467Y363347D02*
D03*
X871974Y370994D02*
D03*
X850261Y367547D02*
D03*
X870320Y369100D02*
D03*
X817300Y361460D02*
D03*
D03*
X777408Y411356D02*
D03*
D03*
X822648Y388080D02*
D03*
X729080Y323840D02*
D03*
X741070Y386980D02*
D03*
X742830Y371910D02*
D03*
X748208Y355069D02*
D03*
D03*
X785750Y350080D02*
D03*
D03*
X743689Y351010D02*
D03*
X656548Y338789D02*
D03*
X644757Y329337D02*
D03*
X611291Y344017D02*
D03*
X556527Y503564D02*
D03*
D03*
X554950Y533280D02*
D03*
X596135Y510115D02*
D03*
X594316Y538656D02*
D03*
X581558Y764060D02*
D03*
D03*
X631846Y326584D02*
D03*
D03*
X594645Y507666D02*
D03*
X673278Y421779D02*
D03*
X699930Y426056D02*
D03*
D03*
X645286Y490656D02*
D03*
D03*
X688414Y351492D02*
D03*
X799040Y335500D02*
D03*
X944215Y310995D02*
D03*
D03*
X636228Y489378D02*
D03*
D03*
X694430Y343530D02*
D03*
D03*
X924414Y476406D02*
D03*
D03*
X612370Y383240D02*
D03*
X671509Y392350D02*
D03*
X684806Y431026D02*
D03*
X643414Y412492D02*
D03*
X658459Y399447D02*
D03*
X643028Y416492D02*
D03*
X649671Y402749D02*
D03*
X661454Y382492D02*
D03*
X680171Y319878D02*
D03*
D03*
X679920Y323310D02*
D03*
D03*
X821260Y315370D02*
D03*
D03*
X643414Y429492D02*
D03*
X661375Y401989D02*
D03*
X792330Y297880D02*
D03*
X897582Y287297D02*
D03*
X873309Y439439D02*
D03*
X795800Y420283D02*
D03*
X724305Y388282D02*
D03*
X734272Y397188D02*
D03*
X734414Y363492D02*
D03*
X735240Y367290D02*
D03*
X795800Y378391D02*
D03*
X561298Y348662D02*
D03*
X557040Y363660D02*
D03*
D03*
X592709Y342168D02*
D03*
X621914Y371142D02*
D03*
X620840Y326150D02*
D03*
X636514Y337450D02*
D03*
D03*
X643748Y367704D02*
D03*
X622517Y418853D02*
D03*
X628259Y408492D02*
D03*
D03*
X630414Y401229D02*
D03*
D03*
X624250Y399960D02*
D03*
X600837Y395684D02*
D03*
X584161Y394288D02*
D03*
D03*
X632414Y358522D02*
D03*
X620330Y397875D02*
D03*
X641414Y362492D02*
D03*
X620957Y373492D02*
D03*
X639643Y458992D02*
D03*
D03*
X653910Y475840D02*
D03*
D03*
X604414Y463492D02*
D03*
X667532Y525382D02*
D03*
X687324Y553907D02*
D03*
X720415Y713599D02*
D03*
D03*
X722810Y755590D02*
D03*
X528330Y522390D02*
D03*
X541740Y508682D02*
D03*
X564517Y480234D02*
D03*
X632418Y324545D02*
D03*
D03*
X635030Y322221D02*
D03*
X613030Y369930D02*
D03*
D03*
X615414Y416492D02*
D03*
X651669Y432778D02*
D03*
X672166Y473687D02*
D03*
D03*
X674414Y475492D02*
D03*
X718300Y530640D02*
D03*
X897600Y730070D02*
D03*
D03*
X677064Y480910D02*
D03*
D03*
X889414Y763492D02*
D03*
D03*
X874610Y803000D02*
D03*
D03*
X651972Y325492D02*
D03*
X484330Y507650D02*
D03*
X639650Y514690D02*
D03*
X656920Y518430D02*
D03*
X692193Y560683D02*
D03*
D03*
X665390Y553630D02*
D03*
X657910Y552860D02*
D03*
D03*
X665390Y553630D02*
D03*
X604414Y516406D02*
D03*
D03*
X583650Y520327D02*
D03*
D03*
X867469Y376065D02*
D03*
D03*
X867019Y359613D02*
D03*
X804760Y349250D02*
D03*
D03*
X715414Y331492D02*
D03*
X569360Y370915D02*
D03*
D03*
X650865Y419100D02*
D03*
D03*
X626414Y448275D02*
D03*
X625124Y454170D02*
D03*
X620400Y728090D02*
D03*
D03*
X750483Y753073D02*
D03*
D03*
X739200Y776820D02*
D03*
D03*
X888030Y744920D02*
D03*
D03*
X600871Y464992D02*
D03*
X459800Y718322D02*
D03*
Y717970D02*
D03*
X533500Y563860D02*
D03*
X534380Y561880D02*
D03*
X574414Y486626D02*
D03*
D03*
X593780Y465630D02*
D03*
X583650Y522559D02*
D03*
X476630Y721050D02*
D03*
D03*
X597138Y477840D02*
D03*
X459470Y763510D02*
D03*
X435600Y609180D02*
D03*
X575630Y458640D02*
D03*
X619414Y455492D02*
D03*
X605550Y506000D02*
D03*
X684090Y503030D02*
D03*
X708728Y500190D02*
D03*
X934892Y570920D02*
D03*
X597112Y486584D02*
D03*
X674740Y527890D02*
D03*
X660110Y501710D02*
D03*
D03*
X833470Y670230D02*
D03*
X676940Y684750D02*
D03*
X378620Y474650D02*
D03*
X382250Y461780D02*
D03*
X531300Y459470D02*
D03*
X667532Y513990D02*
D03*
X728764Y519355D02*
D03*
X393250Y461340D02*
D03*
X439340Y720390D02*
D03*
D03*
X650414Y386492D02*
D03*
X641213Y382492D02*
D03*
X890670Y743160D02*
D03*
D03*
X711413Y407492D02*
D03*
D03*
X722334Y403018D02*
D03*
D03*
X747120Y438058D02*
D03*
D03*
X721134Y411425D02*
D03*
D03*
X725914Y416021D02*
D03*
X815557Y457932D02*
D03*
D03*
X817871Y463490D02*
D03*
D03*
X715414Y407492D02*
D03*
X863610Y387530D02*
D03*
D03*
X822493Y431962D02*
D03*
D03*
X842557Y413492D02*
D03*
D03*
X822493Y431212D02*
D03*
D03*
X857800Y358680D02*
D03*
X838347Y411629D02*
D03*
X784183Y418131D02*
D03*
X684414Y386492D02*
D03*
D03*
X689414Y383492D02*
D03*
X672296Y337737D02*
D03*
X642587Y342002D02*
D03*
X577060Y344410D02*
D03*
X515130Y356730D02*
D03*
X354640Y306350D02*
D03*
D03*
X434414Y304758D02*
D03*
X470580Y301510D02*
D03*
X533830Y308110D02*
D03*
X599170Y316360D02*
D03*
X617377Y442485D02*
D03*
X597112Y515159D02*
D03*
D03*
X666414Y475492D02*
D03*
X903002Y718838D02*
D03*
X725914Y429712D02*
D03*
X841280Y463870D02*
D03*
X865800Y473480D02*
D03*
X848727Y447035D02*
D03*
X838347Y411938D02*
D03*
X741730Y308110D02*
D03*
D03*
X662414Y479492D02*
D03*
X725914Y437703D02*
D03*
D03*
X732424Y434064D02*
D03*
D03*
X760782Y421308D02*
D03*
X736180Y338420D02*
D03*
X709689Y431411D02*
D03*
X674664Y436542D02*
D03*
X771980Y576180D02*
D03*
X856900Y647130D02*
D03*
X886490Y669130D02*
D03*
X719414Y486917D02*
D03*
X708494Y488992D02*
D03*
X674850Y567860D02*
D03*
D03*
X673970Y541706D02*
D03*
D03*
X593414Y459742D02*
D03*
X576290Y465850D02*
D03*
X576070Y467170D02*
D03*
X568100Y483734D02*
D03*
X568920Y491700D02*
D03*
X577280Y502370D02*
D03*
D03*
X582914Y453604D02*
D03*
X798100Y403492D02*
D03*
X801460Y406890D02*
D03*
D03*
X800100Y411620D02*
D03*
D03*
X795800Y412476D02*
D03*
D03*
X793871Y423492D02*
D03*
D03*
X796032Y406803D02*
D03*
D03*
X798100Y403492D02*
D03*
X795800Y396010D02*
D03*
D03*
X715000Y495880D02*
D03*
D03*
X758450Y455730D02*
D03*
D03*
X937310Y459360D02*
D03*
X1088450Y486420D02*
D03*
X778910Y486272D02*
D03*
X609250Y379850D02*
D03*
X576620Y407110D02*
D03*
D03*
X666414Y347492D02*
D03*
X658570Y726220D02*
D03*
D03*
X662414Y475492D02*
D03*
X903320Y718520D02*
D03*
D03*
X900130Y735900D02*
D03*
D03*
X1058970Y532510D02*
D03*
D03*
X938488Y424180D02*
D03*
X1085590Y394790D02*
D03*
X825684Y378180D02*
D03*
D03*
X843260Y377360D02*
D03*
D03*
X884730Y375320D02*
D03*
D03*
X889800Y443180D02*
D03*
D03*
X804430Y761970D02*
D03*
D03*
X774414Y611492D02*
D03*
D03*
X780450Y720720D02*
D03*
D03*
X1084414Y626492D02*
D03*
D03*
X997590Y657140D02*
D03*
D03*
X719414Y383492D02*
D03*
X717774Y363083D02*
D03*
X931376Y436492D02*
D03*
X902110Y429770D02*
D03*
X382140Y431750D02*
D03*
X374670Y431658D02*
D03*
X289960Y429110D02*
D03*
X330414Y436494D02*
D03*
D03*
X276430Y412170D02*
D03*
D03*
X361419Y389950D02*
D03*
X350460Y412720D02*
D03*
X416790Y412390D02*
D03*
D03*
X400100Y411776D02*
D03*
X321530Y415470D02*
D03*
X304414Y413492D02*
D03*
D03*
X292160Y413270D02*
D03*
D03*
X268584Y382992D02*
D03*
D03*
X231053Y303396D02*
D03*
D03*
X284414Y358488D02*
D03*
D03*
Y360492D02*
D03*
D03*
X278740Y374220D02*
D03*
D03*
X222224Y401696D02*
D03*
D03*
X215380Y384780D02*
D03*
X356950Y263780D02*
D03*
X387970Y259160D02*
D03*
X438350Y255310D02*
D03*
X171914Y410367D02*
D03*
D03*
X218548Y412780D02*
D03*
D03*
X182710Y400510D02*
D03*
D03*
X195250D02*
D03*
D03*
X202180Y384450D02*
D03*
D03*
X161810Y400180D02*
D03*
D03*
X654414Y339492D02*
D03*
D03*
X624414Y369178D02*
D03*
X630414Y418004D02*
D03*
X643720Y323180D02*
D03*
D03*
X638076Y339154D02*
D03*
X680790Y721160D02*
D03*
D03*
X751850Y545380D02*
D03*
D03*
X764414Y504035D02*
D03*
D03*
X783294Y496868D02*
D03*
D03*
X844414Y494035D02*
D03*
D03*
X823945Y298105D02*
D03*
X826210Y289300D02*
D03*
X843150Y261800D02*
D03*
X696960Y367180D02*
D03*
X936870Y395670D02*
D03*
X1087020Y406340D02*
D03*
D03*
X1137871Y323492D02*
D03*
X909810Y280940D02*
D03*
D03*
X689414Y356492D02*
D03*
X680678Y315896D02*
D03*
X658414Y382492D02*
D03*
D03*
X832040Y455730D02*
D03*
D03*
X805945Y463228D02*
D03*
D03*
X841060Y425590D02*
D03*
D03*
X826830Y408908D02*
D03*
X809800Y430180D02*
D03*
X689643Y419707D02*
D03*
D03*
X935660Y403370D02*
D03*
X1026190Y388520D02*
D03*
X424710Y166760D02*
D03*
D03*
X434414Y160035D02*
D03*
X439780Y175340D02*
D03*
X443960Y178860D02*
D03*
D03*
X374516Y391610D02*
D03*
X362890Y388300D02*
D03*
X460664Y365242D02*
D03*
X539914Y369355D02*
D03*
X553157Y322377D02*
D03*
D03*
X530728Y299949D02*
D03*
D03*
X529940Y345770D02*
D03*
X670890Y299090D02*
D03*
D03*
X876150Y427130D02*
D03*
X878460Y429880D02*
D03*
D03*
X913660Y435820D02*
D03*
D03*
X944900Y446600D02*
D03*
D03*
X1036420Y479380D02*
D03*
D03*
X1124414Y500492D02*
D03*
X793756Y376183D02*
D03*
D03*
X778910Y360140D02*
D03*
X743490Y355080D02*
D03*
X584414Y248034D02*
D03*
D03*
X544414Y277949D02*
D03*
X520850Y316580D02*
D03*
X518876Y368060D02*
D03*
D03*
X497640Y395890D02*
D03*
D03*
X644356Y340788D02*
D03*
X491702Y381428D02*
D03*
D03*
X498080Y405790D02*
D03*
D03*
X523600Y426140D02*
D03*
X526020Y395340D02*
D03*
X602910Y371800D02*
D03*
X623920Y327360D02*
D03*
X513370Y265760D02*
D03*
D03*
X633938Y343293D02*
D03*
D03*
X689711Y421789D02*
D03*
X586630Y453530D02*
D03*
X572220Y459910D02*
D03*
X889800Y397680D02*
D03*
D03*
X899690Y395560D02*
D03*
D03*
X889800Y371680D02*
D03*
X894038Y390578D02*
D03*
X885830Y399740D02*
D03*
D03*
X871310Y286110D02*
D03*
D03*
X886545Y284908D02*
D03*
D03*
X884180Y276210D02*
D03*
D03*
X1057210Y385000D02*
D03*
D03*
X1238132Y444695D02*
D03*
D03*
X1192400Y411400D02*
D03*
D03*
X1215888Y447160D02*
D03*
X1126180Y599940D02*
D03*
X1169080Y686510D02*
D03*
D03*
X844414Y763492D02*
D03*
D03*
X336930Y331650D02*
D03*
D03*
X744150Y454850D02*
D03*
X1132120Y645810D02*
D03*
D03*
X1138610Y575630D02*
D03*
X1106600Y583220D02*
D03*
X1029160Y251790D02*
D03*
D03*
X660770Y392810D02*
D03*
D03*
X585414Y269842D02*
D03*
X676414Y373492D02*
D03*
X674960Y371724D02*
D03*
D03*
X686290Y331650D02*
D03*
D03*
X749430Y340780D02*
D03*
X687372Y342228D02*
D03*
D03*
X690414Y335492D02*
D03*
D03*
X583440Y727650D02*
D03*
D03*
X813340Y367070D02*
D03*
D03*
X788920Y355960D02*
D03*
D03*
X688728Y325492D02*
D03*
D03*
X686290Y339680D02*
D03*
D03*
X918610Y717310D02*
D03*
D03*
X691020Y460900D02*
D03*
D03*
X825800Y365180D02*
D03*
D03*
X690414Y339492D02*
D03*
D03*
X734580Y635280D02*
D03*
X727650Y718960D02*
D03*
X815870Y332310D02*
D03*
D03*
X826980Y329890D02*
D03*
D03*
X572880Y215820D02*
D03*
D03*
X394414Y201034D02*
D03*
X903430Y340340D02*
D03*
D03*
X733920Y287430D02*
D03*
X601810Y263670D02*
D03*
X599060Y262680D02*
D03*
X396770Y233310D02*
D03*
D03*
X440990Y245080D02*
D03*
D03*
X439120Y217690D02*
D03*
D03*
X1060400Y277530D02*
D03*
X294360Y333190D02*
D03*
X172150Y364540D02*
D03*
D03*
D101*
X684414Y445742D02*
D03*
X719414Y462742D02*
D03*
X639624Y469242D02*
D03*
X615809Y464388D02*
D03*
X512335Y475408D02*
D03*
X670514Y511752D02*
D03*
X654591Y496563D02*
D03*
X716593Y397699D02*
D03*
X711343Y393366D02*
D03*
X661664Y360492D02*
D03*
X439124Y343582D02*
D03*
X498560Y319850D02*
D03*
X711414Y385242D02*
D03*
X713664Y387492D02*
D03*
X651563Y481768D02*
D03*
X650414Y477742D02*
D03*
X660264Y486495D02*
D03*
X605432Y473742D02*
D03*
X591633Y482678D02*
D03*
X672298Y445742D02*
D03*
X661664Y459459D02*
D03*
X633594Y445468D02*
D03*
X646388Y482358D02*
D03*
X648912Y476994D02*
D03*
X640076Y471403D02*
D03*
X642414Y473742D02*
D03*
X652103Y477200D02*
D03*
X670044Y474111D02*
D03*
X682655Y465500D02*
D03*
X662004Y461858D02*
D03*
X881800Y447480D02*
D03*
X1080159Y456612D02*
D03*
X1142450Y479910D02*
D03*
X825229Y361616D02*
D03*
X713664Y347342D02*
D03*
X709664D02*
D03*
X705570Y335350D02*
D03*
X860777Y346751D02*
D03*
X857800Y385471D02*
D03*
X858138Y380718D02*
D03*
X858007Y367173D02*
D03*
X801376Y434904D02*
D03*
X806036Y434684D02*
D03*
X720112Y397417D02*
D03*
X677359Y506422D02*
D03*
X713694Y548070D02*
D03*
X939414Y758992D02*
D03*
X917448Y740542D02*
D03*
X653557Y605456D02*
D03*
X781418Y385951D02*
D03*
X801216Y393042D02*
D03*
X825800Y414879D02*
D03*
X858804Y428984D02*
D03*
X873800Y427980D02*
D03*
X857800Y420179D02*
D03*
X809800Y399880D02*
D03*
X711414Y369242D02*
D03*
X863702Y368650D02*
D03*
X857800Y354380D02*
D03*
X848042Y347424D02*
D03*
X817800Y340380D02*
D03*
X792315Y346166D02*
D03*
X658414Y473742D02*
D03*
X670414Y340325D02*
D03*
X658414Y349242D02*
D03*
X669943Y348419D02*
D03*
X675051Y429795D02*
D03*
X677992Y428346D02*
D03*
X672493Y453116D02*
D03*
X685928Y573517D02*
D03*
X944414Y767993D02*
D03*
X924414Y780050D02*
D03*
X1273514Y709992D02*
D03*
X1274414Y617394D02*
D03*
X620661Y446969D02*
D03*
X621384Y450938D02*
D03*
X615414Y432742D02*
D03*
X611336Y431492D02*
D03*
X607164Y427492D02*
D03*
Y439492D02*
D03*
X597414Y426404D02*
D03*
X615414Y444079D02*
D03*
X607937Y467788D02*
D03*
X609304Y473630D02*
D03*
X615809Y461742D02*
D03*
X683472Y633492D02*
D03*
X666976Y446473D02*
D03*
X619414Y432742D02*
D03*
X650414Y445742D02*
D03*
X654374Y445473D02*
D03*
X1003302Y615992D02*
D03*
X589414Y454992D02*
D03*
X533866Y450815D02*
D03*
X713359Y399356D02*
D03*
X715330Y401326D02*
D03*
X712428Y380544D02*
D03*
X712174Y377364D02*
D03*
X714149Y373524D02*
D03*
X707414Y385242D02*
D03*
X589429Y429748D02*
D03*
X628414Y432742D02*
D03*
X652356Y469550D02*
D03*
X658414Y467148D02*
D03*
X653657Y469695D02*
D03*
X674414Y461742D02*
D03*
X861128Y523492D02*
D03*
X821190D02*
D03*
X791128D02*
D03*
X622815Y459962D02*
D03*
X715229Y369744D02*
D03*
X709273Y366027D02*
D03*
X775229Y426640D02*
D03*
X801735Y428044D02*
D03*
X713812Y379344D02*
D03*
X683925Y366242D02*
D03*
X674660Y412488D02*
D03*
X615414Y420005D02*
D03*
X625788Y420693D02*
D03*
X622315Y500330D02*
D03*
X625641Y519269D02*
D03*
X639414Y758992D02*
D03*
X686414Y473742D02*
D03*
X683038Y426640D02*
D03*
X675526Y425492D02*
D03*
X667879Y391003D02*
D03*
X645799Y391936D02*
D03*
X658635Y392242D02*
D03*
X645177D02*
D03*
X645414Y379242D02*
D03*
X650945D02*
D03*
X645735Y386492D02*
D03*
X654414Y379242D02*
D03*
X653153Y377872D02*
D03*
X657918Y365746D02*
D03*
X653884Y366242D02*
D03*
X652089Y351567D02*
D03*
X645735Y360492D02*
D03*
X889800Y380380D02*
D03*
X684414Y392242D02*
D03*
X680414Y379242D02*
D03*
X684414D02*
D03*
X655609Y432742D02*
D03*
X628384Y443695D02*
D03*
X605414Y446198D02*
D03*
X511914Y435992D02*
D03*
X687664Y429492D02*
D03*
X664863Y378993D02*
D03*
X660464Y399492D02*
D03*
X811249Y359311D02*
D03*
X801882Y380462D02*
D03*
X817800Y385680D02*
D03*
X711414Y344342D02*
D03*
X700314Y345242D02*
D03*
X873800Y384910D02*
D03*
X863600Y378180D02*
D03*
X855229Y369744D02*
D03*
X873800Y380380D02*
D03*
X833800Y386880D02*
D03*
X622414Y349242D02*
D03*
X607164Y367492D02*
D03*
X587968Y375591D02*
D03*
X629715Y758992D02*
D03*
X612352Y671594D02*
D03*
X584414Y767992D02*
D03*
X594414Y767992D02*
D03*
X466048Y344090D02*
D03*
X417280Y348030D02*
D03*
X676414Y392242D02*
D03*
X684414Y419742D02*
D03*
X697664Y419492D02*
D03*
X690414Y353242D02*
D03*
X904198Y279066D02*
D03*
X622935Y386492D02*
D03*
X685642Y404215D02*
D03*
X680414Y405242D02*
D03*
X687664Y412492D02*
D03*
X680414Y431026D02*
D03*
X694414Y465742D02*
D03*
X645397Y417261D02*
D03*
X646896Y408224D02*
D03*
X641414Y419742D02*
D03*
X1025414Y358272D02*
D03*
X675664Y408492D02*
D03*
X676414Y405242D02*
D03*
X634164Y442492D02*
D03*
X641414Y432742D02*
D03*
X655895Y405242D02*
D03*
X809800Y434479D02*
D03*
X589414Y353447D02*
D03*
X597419Y353252D02*
D03*
X511914Y374657D02*
D03*
X639424Y349172D02*
D03*
X633072Y405299D02*
D03*
X637414Y405242D02*
D03*
X630386Y345242D02*
D03*
X643594Y353234D02*
D03*
X638414Y353242D02*
D03*
X635550Y345648D02*
D03*
X635019Y356492D02*
D03*
X634772Y361100D02*
D03*
X620194Y367021D02*
D03*
X618414Y353242D02*
D03*
X622935Y379242D02*
D03*
X624414D02*
D03*
X637414Y445742D02*
D03*
X614414Y767992D02*
D03*
X546734Y498395D02*
D03*
X650414Y337242D02*
D03*
X648362Y334496D02*
D03*
X652164Y339492D02*
D03*
X621164Y412492D02*
D03*
X672664Y471492D02*
D03*
X881846Y686990D02*
D03*
X597787Y333406D02*
D03*
X586513Y329104D02*
D03*
X579840Y344344D02*
D03*
X583797Y411866D02*
D03*
X483066Y499792D02*
D03*
X589414Y397242D02*
D03*
X868952Y358152D02*
D03*
X867019Y363960D02*
D03*
X719414Y336242D02*
D03*
X881800Y373880D02*
D03*
X674901Y360492D02*
D03*
X658204Y379242D02*
D03*
X674664Y356492D02*
D03*
X667414Y379242D02*
D03*
X649477Y405347D02*
D03*
X662208Y387035D02*
D03*
X660638Y409518D02*
D03*
X645414Y405242D02*
D03*
X647164Y412492D02*
D03*
X620732Y429492D02*
D03*
X627638Y422326D02*
D03*
X631557Y461742D02*
D03*
X634164Y459492D02*
D03*
X636990Y458222D02*
D03*
X638414Y477742D02*
D03*
Y473630D02*
D03*
X884414Y767993D02*
D03*
X874414D02*
D03*
X864414D02*
D03*
X854414D02*
D03*
X593922Y560864D02*
D03*
X614414Y526462D02*
D03*
X585229Y467280D02*
D03*
X454414Y758992D02*
D03*
X620480Y502677D02*
D03*
X612352Y535591D02*
D03*
X588006Y478138D02*
D03*
X583527Y475249D02*
D03*
X853652Y605202D02*
D03*
X600668Y500554D02*
D03*
X1016914Y642540D02*
D03*
X351414Y456017D02*
D03*
X296418Y436510D02*
D03*
X304914Y468492D02*
D03*
X719414Y413742D02*
D03*
X865800Y414979D02*
D03*
X863600Y391180D02*
D03*
Y384680D02*
D03*
X833800Y421480D02*
D03*
Y367380D02*
D03*
X809785Y421495D02*
D03*
X689414Y379242D02*
D03*
X693414D02*
D03*
Y391581D02*
D03*
X611336Y424398D02*
D03*
X607164Y451492D02*
D03*
X669985Y482358D02*
D03*
X697664Y335492D02*
D03*
X692315Y329104D02*
D03*
X670414Y469242D02*
D03*
X697664Y479492D02*
D03*
X758656Y374307D02*
D03*
X856429Y329020D02*
D03*
X705569Y342860D02*
D03*
X708594D02*
D03*
X742315Y337232D02*
D03*
X725282Y345360D02*
D03*
X871600Y349080D02*
D03*
X718854Y449181D02*
D03*
X727664Y444492D02*
D03*
X701190Y453492D02*
D03*
X719414Y437742D02*
D03*
X691880Y431026D02*
D03*
X687664Y442492D02*
D03*
Y438492D02*
D03*
X674664Y439204D02*
D03*
X674698Y445742D02*
D03*
X651918Y347246D02*
D03*
X646326Y349112D02*
D03*
X678414Y353242D02*
D03*
X689672Y360478D02*
D03*
X684706Y362440D02*
D03*
X689065Y366242D02*
D03*
X702381Y378775D02*
D03*
X700942Y384704D02*
D03*
X694276Y366242D02*
D03*
X687664Y369492D02*
D03*
X719414Y409242D02*
D03*
X701760Y492123D02*
D03*
X712319Y515395D02*
D03*
X719359Y759047D02*
D03*
X669248Y542677D02*
D03*
X714414Y767993D02*
D03*
X593414Y459742D02*
D03*
X831808Y353953D02*
D03*
X792315Y369744D02*
D03*
X801800Y421480D02*
D03*
Y414979D02*
D03*
X881800Y460560D02*
D03*
X857800D02*
D03*
X889800D02*
D03*
X1133414Y467367D02*
D03*
X615414Y392242D02*
D03*
X619414D02*
D03*
X674161Y382979D02*
D03*
X674664Y399400D02*
D03*
X946914Y686992D02*
D03*
X909414Y750353D02*
D03*
X869414Y758992D02*
D03*
X646414Y465742D02*
D03*
X686414Y468428D02*
D03*
X1068909Y393590D02*
D03*
X880172Y389551D02*
D03*
X881800Y380380D02*
D03*
Y440980D02*
D03*
X593414Y425930D02*
D03*
X589414Y426742D02*
D03*
Y468742D02*
D03*
X595104Y448968D02*
D03*
X592970Y449742D02*
D03*
X622414Y473742D02*
D03*
X642324Y477694D02*
D03*
X593302Y473630D02*
D03*
Y469566D02*
D03*
X844414Y766992D02*
D03*
X859414Y758992D02*
D03*
X725474Y357552D02*
D03*
X867754Y431631D02*
D03*
X887600Y456180D02*
D03*
X871432D02*
D03*
X944414Y442993D02*
D03*
X320414Y437992D02*
D03*
X222208Y381177D02*
D03*
X350098Y393991D02*
D03*
X490432Y412252D02*
D03*
X231945Y369744D02*
D03*
X353914Y312542D02*
D03*
X557488Y183562D02*
D03*
X301094Y408492D02*
D03*
X156914Y453310D02*
D03*
X650414Y332772D02*
D03*
X626040Y363868D02*
D03*
X624040Y365868D02*
D03*
X632414Y366242D02*
D03*
X627809Y379242D02*
D03*
Y405242D02*
D03*
X633019Y379242D02*
D03*
X634164Y408492D02*
D03*
Y416492D02*
D03*
X631462Y431790D02*
D03*
X637414Y432742D02*
D03*
X622414Y469242D02*
D03*
X634388Y349550D02*
D03*
X857800Y473480D02*
D03*
X832575Y380668D02*
D03*
X701664Y367492D02*
D03*
X699414Y365242D02*
D03*
X687664Y386492D02*
D03*
X641414Y379242D02*
D03*
X598973Y386000D02*
D03*
X568203Y404626D02*
D03*
X625052Y348854D02*
D03*
X873800Y473480D02*
D03*
X865800Y467820D02*
D03*
X862625Y460479D02*
D03*
X858340Y440440D02*
D03*
X879410Y423491D02*
D03*
X865707Y434387D02*
D03*
X865800Y440980D02*
D03*
Y427980D02*
D03*
X868975Y421480D02*
D03*
X857800Y434479D02*
D03*
X835472Y410141D02*
D03*
X700866Y412392D02*
D03*
X367918Y274494D02*
D03*
X387625Y239696D02*
D03*
X374516Y386254D02*
D03*
X647164Y455492D02*
D03*
X674664Y369492D02*
D03*
X721764Y377242D02*
D03*
X1142315Y516011D02*
D03*
X1035008Y475591D02*
D03*
X889800Y434479D02*
D03*
X817800Y393380D02*
D03*
X589664Y244442D02*
D03*
X637414Y378242D02*
D03*
X628929Y342028D02*
D03*
X634414Y339453D02*
D03*
X496914Y400992D02*
D03*
Y415992D02*
D03*
X495347Y434425D02*
D03*
X491914Y430992D02*
D03*
X650945Y366242D02*
D03*
X645735Y364478D02*
D03*
X693414Y421462D02*
D03*
X687664Y425492D02*
D03*
X689634Y405242D02*
D03*
X686880Y399492D02*
D03*
X693414Y405242D02*
D03*
X687664Y408492D02*
D03*
X593414Y454992D02*
D03*
X857043Y390423D02*
D03*
X836126Y391334D02*
D03*
X855229Y394128D02*
D03*
X824442Y422322D02*
D03*
X809800Y414979D02*
D03*
X889800Y393380D02*
D03*
X896832Y402677D02*
D03*
X889800Y367380D02*
D03*
X873800Y373880D02*
D03*
X889800Y386880D02*
D03*
X881800Y399880D02*
D03*
X873800D02*
D03*
X978445Y473492D02*
D03*
X1221952Y465802D02*
D03*
X834414Y784112D02*
D03*
X754414Y416302D02*
D03*
X751239Y413541D02*
D03*
X766784Y522677D02*
D03*
X569414Y758992D02*
D03*
X919414Y758992D02*
D03*
X274414Y316415D02*
D03*
X542248Y493492D02*
D03*
X1174208Y475416D02*
D03*
X1164555Y467781D02*
D03*
X1160414Y479617D02*
D03*
X650414Y465742D02*
D03*
X1109857Y461946D02*
D03*
X611844Y524176D02*
D03*
X381974Y767000D02*
D03*
X661664Y429492D02*
D03*
Y421492D02*
D03*
X914414Y767993D02*
D03*
X674664Y442492D02*
D03*
X676414Y432742D02*
D03*
X1174414Y616778D02*
D03*
Y616886D02*
D03*
X996159Y509698D02*
D03*
X807089Y618620D02*
D03*
X813865Y604186D02*
D03*
X724112Y553492D02*
D03*
X955362Y503492D02*
D03*
X809800Y440980D02*
D03*
X711414Y401242D02*
D03*
X703414Y377242D02*
D03*
X674664Y386492D02*
D03*
X676414Y379242D02*
D03*
X657582Y423492D02*
D03*
X709664Y359492D02*
D03*
X634164Y382492D02*
D03*
X754414Y767993D02*
D03*
X904414D02*
D03*
X619414Y405242D02*
D03*
X1037548Y363492D02*
D03*
X1084538Y319452D02*
D03*
X1084414Y321484D02*
D03*
X1034414Y360242D02*
D03*
X594414Y561461D02*
D03*
Y560498D02*
D03*
X314414Y400242D02*
D03*
X547328Y294053D02*
D03*
X506914Y370992D02*
D03*
X881800Y386880D02*
D03*
X879014Y352180D02*
D03*
X811488Y551608D02*
D03*
X1109682Y497506D02*
D03*
X1127972Y376348D02*
D03*
X640292Y483492D02*
D03*
X348954Y772080D02*
D03*
X429414Y767992D02*
D03*
X602700Y451532D02*
D03*
X1117050Y243506D02*
D03*
X1049994Y243492D02*
D03*
Y243506D02*
D03*
X809710Y447468D02*
D03*
X707414Y403018D02*
D03*
X705664Y371492D02*
D03*
X699414Y361242D02*
D03*
X889414Y758992D02*
D03*
X434816Y388354D02*
D03*
X434806Y383597D02*
D03*
X515367Y333368D02*
D03*
X515324Y333422D02*
D03*
X644414Y767993D02*
D03*
X649414Y758992D02*
D03*
X618414Y345242D02*
D03*
X742400Y616632D02*
D03*
X678414Y462228D02*
D03*
Y461742D02*
D03*
X678392Y461692D02*
D03*
X320414Y420544D02*
D03*
X321776Y304212D02*
D03*
X764414Y493272D02*
D03*
X894414Y767993D02*
D03*
X1151414Y343607D02*
D03*
X642414Y469742D02*
D03*
X426678Y591994D02*
D03*
X809710Y460422D02*
D03*
X704808Y407492D02*
D03*
X344636Y493492D02*
D03*
X650414Y432742D02*
D03*
X1008225Y674467D02*
D03*
X1258020Y166036D02*
D03*
X1004764Y625992D02*
D03*
X607164Y431492D02*
D03*
X817800Y427980D02*
D03*
X697664Y460492D02*
D03*
X833800Y354380D02*
D03*
X335414Y370242D02*
D03*
X473599Y451024D02*
D03*
X1348343Y686736D02*
D03*
X1398914Y682992D02*
D03*
X1370414Y659492D02*
D03*
X1360914Y671492D02*
D03*
X1306914Y676992D02*
D03*
X1251414Y786992D02*
D03*
X1217414D02*
D03*
X1238208Y749164D02*
D03*
X1213824Y702440D02*
D03*
X1398914Y623992D02*
D03*
X1246336Y647421D02*
D03*
X1334821Y629840D02*
D03*
X1293599Y581072D02*
D03*
X1246336Y607421D02*
D03*
X1221952Y573742D02*
D03*
X1181312Y576993D02*
D03*
X1090414Y788992D02*
D03*
X1158414D02*
D03*
X999414Y792992D02*
D03*
X1014414Y629492D02*
D03*
X1011914Y633142D02*
D03*
X1008225Y683492D02*
D03*
X984414Y780050D02*
D03*
X974414Y767992D02*
D03*
X979414Y758992D02*
D03*
X989414Y746935D02*
D03*
X1140672Y605771D02*
D03*
X1075648D02*
D03*
X1174414Y586716D02*
D03*
X1108160Y572677D02*
D03*
X1059392Y565912D02*
D03*
X1016914Y613842D02*
D03*
X995364Y620992D02*
D03*
X1002496Y565961D02*
D03*
X1205696Y511471D02*
D03*
X1357914Y480992D02*
D03*
X1187414Y467367D02*
D03*
X1059392Y525591D02*
D03*
X1148800Y465802D02*
D03*
X1075648D02*
D03*
X1019445Y503492D02*
D03*
X1181312Y452677D02*
D03*
X1224919Y420612D02*
D03*
X1081159Y438612D02*
D03*
Y420612D02*
D03*
X1004414Y442993D02*
D03*
X1068909Y429612D02*
D03*
X929344Y495591D02*
D03*
X914414Y524742D02*
D03*
X891190Y523492D02*
D03*
X880576Y478933D02*
D03*
X863914Y551492D02*
D03*
X881800Y453979D02*
D03*
X889800Y447480D02*
D03*
Y421480D02*
D03*
X865800Y453979D02*
D03*
X857800Y447480D02*
D03*
X873800Y421480D02*
D03*
Y434479D02*
D03*
X837151Y618620D02*
D03*
X804914Y575492D02*
D03*
X848064Y512677D02*
D03*
X769414Y792992D02*
D03*
X759414Y758992D02*
D03*
X774414Y588461D02*
D03*
X750528Y573092D02*
D03*
X842315Y475408D02*
D03*
X833800Y473480D02*
D03*
X848064Y462677D02*
D03*
X833800Y460479D02*
D03*
X817800Y473480D02*
D03*
X797101Y467280D02*
D03*
X801800Y460479D02*
D03*
X734414Y767992D02*
D03*
X714414Y576778D02*
D03*
X706914Y686992D02*
D03*
X684414Y767992D02*
D03*
X703414Y476265D02*
D03*
X715414Y473742D02*
D03*
X825800Y453979D02*
D03*
X844828Y439942D02*
D03*
X833800Y447480D02*
D03*
X809800Y453979D02*
D03*
X754414Y446778D02*
D03*
X817800Y434479D02*
D03*
Y421480D02*
D03*
X807424Y419134D02*
D03*
X715414Y454742D02*
D03*
X701664Y451492D02*
D03*
X693414Y445742D02*
D03*
X701664Y427492D02*
D03*
Y439492D02*
D03*
X699414Y429742D02*
D03*
X719414Y425742D02*
D03*
X684414Y432742D02*
D03*
X1390914Y415992D02*
D03*
X1224919Y402612D02*
D03*
X1081159D02*
D03*
X1120243Y391620D02*
D03*
X1133585D02*
D03*
X1068909Y411612D02*
D03*
X1041164Y403492D02*
D03*
X921216Y418338D02*
D03*
Y388646D02*
D03*
X1088585Y386000D02*
D03*
X1212669Y375612D02*
D03*
X1284414Y362992D02*
D03*
X1182702Y369744D02*
D03*
X978112Y382677D02*
D03*
X944414Y383992D02*
D03*
X1081159Y366612D02*
D03*
X1068909Y375612D02*
D03*
X879600Y417179D02*
D03*
X888704Y401023D02*
D03*
X865800Y399880D02*
D03*
X848064Y405591D02*
D03*
X1187414Y343607D02*
D03*
X1156513Y329104D02*
D03*
X1198914Y320242D02*
D03*
X1073599Y329104D02*
D03*
X1043586Y359245D02*
D03*
X937472Y355961D02*
D03*
X1017664Y347992D02*
D03*
X986240Y335591D02*
D03*
X961856Y302677D02*
D03*
X1390914Y265992D02*
D03*
X1194414Y282992D02*
D03*
X1154414Y270206D02*
D03*
X1290914Y165992D02*
D03*
X1058664Y250492D02*
D03*
X1134414Y90492D02*
D03*
X940914Y95992D02*
D03*
X889800Y354380D02*
D03*
X881800Y360880D02*
D03*
X873800Y341380D02*
D03*
X863600Y358680D02*
D03*
X929344Y315961D02*
D03*
X890056Y329104D02*
D03*
X896832Y312677D02*
D03*
X874414Y276778D02*
D03*
X848064Y305961D02*
D03*
X872448Y217134D02*
D03*
X831808Y413390D02*
D03*
X828000Y397680D02*
D03*
X833800Y380380D02*
D03*
X817800D02*
D03*
X722815Y418512D02*
D03*
X701664Y403492D02*
D03*
X687664Y416492D02*
D03*
X689414Y392242D02*
D03*
X801800Y368278D02*
D03*
X828000Y358680D02*
D03*
X801800Y354380D02*
D03*
X833914Y178492D02*
D03*
X790914Y95992D02*
D03*
X789383Y293492D02*
D03*
X769445Y273492D02*
D03*
X718016Y305591D02*
D03*
X764414Y222992D02*
D03*
X726144Y195591D02*
D03*
X703733Y352923D02*
D03*
X687664Y373492D02*
D03*
X692664Y331492D02*
D03*
X704414Y230206D02*
D03*
X681664Y331492D02*
D03*
X683414Y138492D02*
D03*
X674414Y767992D02*
D03*
X669414Y758992D02*
D03*
X679414D02*
D03*
X669248Y666868D02*
D03*
X648672Y556688D02*
D03*
X647164Y459492D02*
D03*
X624414Y767992D02*
D03*
X612352Y639936D02*
D03*
X609414Y758992D02*
D03*
X634164Y451492D02*
D03*
X680414Y445742D02*
D03*
X671414Y432742D02*
D03*
X667414D02*
D03*
X658414D02*
D03*
X647164Y442492D02*
D03*
X645414Y432742D02*
D03*
X680414Y419742D02*
D03*
X667414D02*
D03*
X661664Y412492D02*
D03*
Y416492D02*
D03*
X624414Y432742D02*
D03*
X619414Y419742D02*
D03*
X621164Y416492D02*
D03*
X564414Y767992D02*
D03*
X554414Y783992D02*
D03*
X494414Y792992D02*
D03*
X469414Y767992D02*
D03*
X399414D02*
D03*
X579414Y758992D02*
D03*
X572315Y637968D02*
D03*
X547328Y545591D02*
D03*
X506914Y686992D02*
D03*
X506688Y542677D02*
D03*
X414414Y758992D02*
D03*
X464414D02*
D03*
X469445Y513492D02*
D03*
X369414Y767992D02*
D03*
X329414Y783992D02*
D03*
X339414Y767992D02*
D03*
X384414Y758992D02*
D03*
X354414D02*
D03*
X257414Y778492D02*
D03*
X236414Y779492D02*
D03*
X207414Y778492D02*
D03*
X86914Y721992D02*
D03*
X282414Y683492D02*
D03*
X327872Y537135D02*
D03*
X201414Y550492D02*
D03*
X363664Y504742D02*
D03*
X86914Y624992D02*
D03*
X84414Y560992D02*
D03*
X64414Y515992D02*
D03*
X44414Y560992D02*
D03*
Y525992D02*
D03*
X579840Y495591D02*
D03*
X475229Y475408D02*
D03*
X557664Y473492D02*
D03*
X571712Y452677D02*
D03*
X502335Y451024D02*
D03*
X599164Y439492D02*
D03*
X607164Y415492D02*
D03*
X501914Y444167D02*
D03*
X491914D02*
D03*
X501862Y441118D02*
D03*
X491956D02*
D03*
X476914Y420992D02*
D03*
X466914Y410992D02*
D03*
X429568Y475408D02*
D03*
X409152Y477134D02*
D03*
X435242Y451024D02*
D03*
X337414Y459192D02*
D03*
X367538Y445510D02*
D03*
X352256Y432677D02*
D03*
X254720Y457421D02*
D03*
X315229Y451024D02*
D03*
X296418Y445510D02*
D03*
X409152Y432677D02*
D03*
X335414Y430992D02*
D03*
X376640Y421098D02*
D03*
X164414Y431492D02*
D03*
X325414Y430992D02*
D03*
X147414Y428492D02*
D03*
X88414Y427992D02*
D03*
X155414Y423492D02*
D03*
X671414Y405242D02*
D03*
X663414D02*
D03*
X667414D02*
D03*
X658414D02*
D03*
X671414Y379242D02*
D03*
X641414Y405242D02*
D03*
Y392242D02*
D03*
X621164Y408492D02*
D03*
X624414Y405242D02*
D03*
X615414D02*
D03*
X634164Y386492D02*
D03*
X615414Y379242D02*
D03*
X676414Y366242D02*
D03*
X681164Y192492D02*
D03*
X661664Y356492D02*
D03*
X658414Y341242D02*
D03*
X658164Y282542D02*
D03*
X654414Y190206D02*
D03*
X641414Y366242D02*
D03*
X622414Y341242D02*
D03*
X624414Y285743D02*
D03*
X630914Y95992D02*
D03*
X611164Y407492D02*
D03*
X607164Y403492D02*
D03*
Y391492D02*
D03*
Y379492D02*
D03*
X605414Y353242D02*
D03*
X602315Y377872D02*
D03*
X571712Y375591D02*
D03*
X599164Y367492D02*
D03*
X501914Y380992D02*
D03*
X491956Y370760D02*
D03*
X422616Y391529D02*
D03*
X481796Y390826D02*
D03*
X484621Y369744D02*
D03*
X481914Y387817D02*
D03*
X412315Y369744D02*
D03*
X311616Y391413D02*
D03*
X254429Y385992D02*
D03*
X491914Y367817D02*
D03*
X368512Y362677D02*
D03*
X475229Y361616D02*
D03*
X273490Y363492D02*
D03*
X336000Y362677D02*
D03*
X88414Y363992D02*
D03*
X531072Y315591D02*
D03*
X515367Y342392D02*
D03*
X467638Y293492D02*
D03*
X525720Y259650D02*
D03*
X613914Y188492D02*
D03*
Y138492D02*
D03*
X571712Y224307D02*
D03*
X498560Y221393D02*
D03*
X466048Y233071D02*
D03*
X449792Y264968D02*
D03*
Y209564D02*
D03*
X441664Y323742D02*
D03*
X445139Y300928D02*
D03*
X417280Y285591D02*
D03*
X394414Y299192D02*
D03*
X212315Y304720D02*
D03*
X323586Y301620D02*
D03*
X447414Y100492D02*
D03*
X434414Y202992D02*
D03*
X360485Y239696D02*
D03*
X84414Y235992D02*
D03*
Y270992D02*
D03*
X64414Y280992D02*
D03*
X44414Y235992D02*
D03*
X317414Y101492D02*
D03*
X630414Y349242D02*
D03*
X644864Y292932D02*
D03*
X496914Y430992D02*
D03*
X498560Y252138D02*
D03*
X496914Y410992D02*
D03*
X664422Y741092D02*
D03*
Y353484D02*
D03*
X654414Y767992D02*
D03*
X659414Y758992D02*
D03*
X873800Y367380D02*
D03*
X825800Y374062D02*
D03*
X692616Y339518D02*
D03*
X858772Y329104D02*
D03*
X656040Y471344D02*
D03*
X315426Y430958D02*
D03*
X301202Y324278D02*
D03*
X1133414Y343607D02*
D03*
X1160414Y384546D02*
D03*
X439414Y767992D02*
D03*
X449414D02*
D03*
X394420Y758872D02*
D03*
X404414Y650580D02*
D03*
X809710Y467026D02*
D03*
X707414Y409368D02*
D03*
X825712Y467026D02*
D03*
X711412Y405306D02*
D03*
X814790Y454072D02*
D03*
X865800Y447480D02*
D03*
X703538Y361362D02*
D03*
X1076410Y614600D02*
D03*
X1151414Y467367D02*
D03*
X605414Y489632D02*
D03*
X349414Y688689D02*
D03*
X881338Y571674D02*
D03*
X571901Y561461D02*
D03*
Y561260D02*
D03*
X1006914Y613842D02*
D03*
X828000Y462679D02*
D03*
X878346Y468529D02*
D03*
X709380Y387492D02*
D03*
X959414Y758992D02*
D03*
X746159Y297961D02*
D03*
X739383Y270317D02*
D03*
X680414Y366242D02*
D03*
X611164Y387492D02*
D03*
X658164Y257142D02*
D03*
X501914Y375992D02*
D03*
X497290Y378492D02*
D03*
X166914Y433674D02*
D03*
X954414Y767993D02*
D03*
X389414Y780716D02*
D03*
X729414Y758992D02*
D03*
X821902Y427910D02*
D03*
X964414Y767993D02*
D03*
X701664Y391492D02*
D03*
X699414Y389242D02*
D03*
X687664Y395492D02*
D03*
X601414Y389242D02*
D03*
X610320Y659515D02*
D03*
X668664Y269842D02*
D03*
X491914Y375992D02*
D03*
X626414Y345242D02*
D03*
Y341167D02*
D03*
X1124416Y516596D02*
D03*
X504746Y369744D02*
D03*
X496914Y375992D02*
D03*
X669248Y640122D02*
D03*
X496914Y370992D02*
D03*
X403060Y369744D02*
D03*
X619414Y758992D02*
D03*
X599414Y769286D02*
D03*
X697442Y347392D02*
D03*
X878625Y367380D02*
D03*
X557664Y482492D02*
D03*
X556694Y394128D02*
D03*
X1115414Y343582D02*
D03*
X644356Y465550D02*
D03*
X591164Y465492D02*
D03*
X444414Y758992D02*
D03*
X707414Y390318D02*
D03*
X881800Y427910D02*
D03*
X719540Y373300D02*
D03*
X1181312Y425298D02*
D03*
X611336Y395492D02*
D03*
X501914Y370992D02*
D03*
X642414Y345242D02*
D03*
X498560Y346595D02*
D03*
X604414Y767992D02*
D03*
X618414Y341242D02*
D03*
X881800Y347880D02*
D03*
X744414Y767992D02*
D03*
X646414Y473742D02*
D03*
X1169414Y343607D02*
D03*
X1178414Y355857D02*
D03*
X597112Y481504D02*
D03*
X381466Y780970D02*
D03*
X1196414Y484806D02*
D03*
X724414Y767992D02*
D03*
X881800Y466980D02*
D03*
X686414Y461742D02*
D03*
X849414Y758992D02*
D03*
X727664Y453492D02*
D03*
X171914Y440492D02*
D03*
X273490Y369992D02*
D03*
X580164Y282542D02*
D03*
X506914Y375992D02*
D03*
X505974Y361616D02*
D03*
X949414Y747641D02*
D03*
X361074Y198294D02*
D03*
X360328Y331752D02*
D03*
X818292Y414487D02*
D03*
X161914Y406492D02*
D03*
X181414Y423492D02*
D03*
X1224919Y456612D02*
D03*
X459414Y767993D02*
D03*
X879414Y758992D02*
D03*
X934414Y767993D02*
D03*
X899414Y758992D02*
D03*
X315414Y383992D02*
D03*
X340414Y437992D02*
D03*
X325414Y383992D02*
D03*
X347914Y428492D02*
D03*
Y418492D02*
D03*
X300914Y398492D02*
D03*
X865800Y473480D02*
D03*
X873800Y466980D02*
D03*
X817800D02*
D03*
X889800Y360880D02*
D03*
X833800Y466980D02*
D03*
X857800Y347880D02*
D03*
X889800Y440980D02*
D03*
Y373880D02*
D03*
X833800Y453979D02*
D03*
X817800Y440980D02*
D03*
X887600Y397680D02*
D03*
X833800Y440980D02*
D03*
X873800Y414979D02*
D03*
X833800Y427980D02*
D03*
X273490Y382992D02*
D03*
X1033163Y250492D02*
D03*
X1125665D02*
D03*
X1100164D02*
D03*
X577046Y329104D02*
D03*
X89390Y378492D02*
D03*
X1107398Y25320D02*
D03*
X935948Y284908D02*
D03*
X731478Y351492D02*
D03*
X1092158Y348662D02*
D03*
X1174414Y389810D02*
D03*
X352764Y247824D02*
D03*
X231860Y403272D02*
D03*
X824414Y216582D02*
D03*
X241766Y230044D02*
D03*
X999772Y183492D02*
D03*
X525818Y381682D02*
D03*
X668740Y244522D02*
D03*
X1254414Y490140D02*
D03*
X1097914Y313142D02*
D03*
X521420Y241332D02*
D03*
X907914Y113872D02*
D03*
X1106382Y356028D02*
D03*
X790914Y47164D02*
D03*
X1307042Y709992D02*
D03*
X1357842Y416226D02*
D03*
X317458Y52498D02*
D03*
X1005290Y88312D02*
D03*
X681642Y183492D02*
D03*
X549868Y183562D02*
D03*
X38058Y475408D02*
D03*
X434414Y185975D02*
D03*
X881338Y209216D02*
D03*
X909532Y459152D02*
D03*
X1216642Y310562D02*
D03*
X466048Y201342D02*
D03*
X1101302Y25432D02*
D03*
X356066Y407336D02*
D03*
X361146Y447976D02*
D03*
X831808Y256460D02*
D03*
X228304Y768270D02*
D03*
X1257512Y661474D02*
D03*
X387562Y587168D02*
D03*
X84414Y534590D02*
D03*
X623528Y561006D02*
D03*
X866352Y566602D02*
D03*
X497544Y285924D02*
D03*
X694414Y597582D02*
D03*
X1238414Y778938D02*
D03*
X209000Y283492D02*
D03*
X490178Y70786D02*
D03*
X377214Y240392D02*
D03*
X171914Y406492D02*
D03*
X437336Y133492D02*
D03*
X174414Y396414D02*
D03*
X1194414Y223992D02*
D03*
X275929Y341959D02*
D03*
X88414Y393492D02*
D03*
X658076Y163492D02*
D03*
X419820Y496998D02*
D03*
X921470Y256206D02*
D03*
X656548Y503602D02*
D03*
X1097414Y465424D02*
D03*
X949272Y473492D02*
D03*
X704414Y272716D02*
D03*
X1086824Y483282D02*
D03*
X1137930Y293492D02*
D03*
X867904Y516048D02*
D03*
X1124414Y355774D02*
D03*
X1212554Y411612D02*
D03*
X1198584Y649144D02*
D03*
X814914Y193468D02*
D03*
X682202Y397430D02*
D03*
X161914Y437308D02*
D03*
X511260Y293492D02*
D03*
X429414Y187118D02*
D03*
X453602Y370502D02*
D03*
X219668Y423846D02*
D03*
X431504Y233492D02*
D03*
X1004274Y253492D02*
D03*
X1251162Y389810D02*
D03*
X955914Y526870D02*
D03*
X809456Y250110D02*
D03*
X979128Y261794D02*
D03*
X44408Y270938D02*
D03*
X376640Y395652D02*
D03*
X1317456Y393492D02*
D03*
X1147784Y544496D02*
D03*
X300948Y393492D02*
D03*
X528104Y350590D02*
D03*
X424414Y180028D02*
D03*
X464414Y184883D02*
D03*
X506434Y459152D02*
D03*
X604478Y163492D02*
D03*
X1134414Y722804D02*
D03*
X1021914Y633142D02*
D03*
X1114414Y687752D02*
D03*
X500338Y207692D02*
D03*
X603716Y617902D02*
D03*
X479002Y183492D02*
D03*
X237702Y323492D02*
D03*
X764414Y463724D02*
D03*
X904414Y259254D02*
D03*
X373592Y496236D02*
D03*
X364702Y287142D02*
D03*
X427623Y301926D02*
D03*
X404580Y274442D02*
D03*
X511260Y391588D02*
D03*
X351240Y471598D02*
D03*
X531914Y467534D02*
D03*
X235416Y376602D02*
D03*
X330414Y378634D02*
D03*
X366734Y299894D02*
D03*
X307044Y287142D02*
D03*
Y373300D02*
D03*
X225510Y363140D02*
D03*
X537422Y573492D02*
D03*
X579840Y511476D02*
D03*
X424414Y226292D02*
D03*
X508895Y383206D02*
D03*
X1116288Y612060D02*
D03*
X1088970Y668702D02*
D03*
X656548Y503492D02*
D03*
X1212808Y438612D02*
D03*
X1176994Y513492D02*
D03*
X1205414Y363492D02*
D03*
X268944Y376492D02*
D03*
X474414Y125317D02*
D03*
X418864Y499792D02*
D03*
X410770Y453995D02*
D03*
X1101414Y98726D02*
D03*
X1290914Y98799D02*
D03*
X757914Y95932D02*
D03*
X1371304Y201088D02*
D03*
X874414Y246716D02*
D03*
X439383Y513492D02*
D03*
X915671Y571461D02*
D03*
X136414Y583492D02*
D03*
X1154414Y303443D02*
D03*
X364448Y436546D02*
D03*
X299668Y423338D02*
D03*
X874414Y246554D02*
D03*
X654414Y220268D02*
D03*
X703284Y739822D02*
D03*
X698714Y619492D02*
D03*
X704414Y263444D02*
D03*
X174414Y396492D02*
D03*
X434414Y758992D02*
D03*
X819445Y293492D02*
D03*
X949383Y470317D02*
D03*
X1189948Y320214D02*
D03*
X1101278D02*
D03*
X1097914Y312340D02*
D03*
X1044170Y338992D02*
D03*
X1257978Y295322D02*
D03*
X422914Y191492D02*
D03*
X152612Y583492D02*
D03*
X338714Y206317D02*
D03*
X430914Y191492D02*
D03*
X340995Y406267D02*
D03*
X464914Y158492D02*
D03*
X108162Y398492D02*
D03*
X373684Y482012D02*
D03*
X380958Y209724D02*
D03*
X1357914Y200834D02*
D03*
X1258020Y100758D02*
D03*
X506960Y720010D02*
D03*
X640800Y686992D02*
D03*
X441664Y703500D02*
D03*
X282698Y716454D02*
D03*
X1390914Y560700D02*
D03*
X630894Y47164D02*
D03*
X284414Y76882D02*
D03*
X1239732Y676992D02*
D03*
X973032Y719992D02*
D03*
X690838Y173910D02*
D03*
X754338D02*
D03*
X330414Y437992D02*
D03*
X205588Y325929D02*
D03*
X414414Y75866D02*
D03*
X938488Y33448D02*
D03*
X1121368Y25828D02*
D03*
X597914Y71548D02*
D03*
X588730Y218614D02*
D03*
X561298Y363492D02*
D03*
X1253194Y261540D02*
D03*
X1205414Y343607D02*
D03*
X1225000Y366612D02*
D03*
X1275670Y261461D02*
D03*
X521420Y250110D02*
D03*
X904414Y160486D02*
D03*
X764414Y163992D02*
D03*
X173414Y418492D02*
D03*
X147414D02*
D03*
X1075648Y434877D02*
D03*
X1068909Y447612D02*
D03*
X1142414Y355857D02*
D03*
X1139869Y369744D02*
D03*
X1148800Y668987D02*
D03*
X1004414Y383992D02*
D03*
X254720Y430281D02*
D03*
X1148800Y434877D02*
D03*
X1059392Y539358D02*
D03*
X277414Y483492D02*
D03*
X307414Y223492D02*
D03*
X340414Y390992D02*
D03*
X961413Y183492D02*
D03*
X872448Y190579D02*
D03*
X1221952Y605037D02*
D03*
X969414Y746934D02*
D03*
X483914Y158492D02*
D03*
X664414Y138492D02*
D03*
X1124416Y645232D02*
D03*
X401024Y368236D02*
D03*
X345414Y383992D02*
D03*
X409152Y450209D02*
D03*
X376640Y425232D02*
D03*
X335414Y383992D02*
D03*
X320414Y390992D02*
D03*
D102*
X844000Y640000D02*
D03*
X721318Y360672D02*
D03*
X590173Y519523D02*
D03*
X591760Y517935D02*
D03*
X590000Y522525D02*
D03*
X305266Y347780D02*
D03*
X621888Y498014D02*
D03*
X590000Y640000D02*
D03*
X733677Y543059D02*
D03*
X590000Y386000D02*
D03*
X436076Y494966D02*
D03*
X415248Y469385D02*
D03*
X701252Y542972D02*
D03*
X690076Y444166D02*
D03*
X1024340Y532812D02*
D03*
X265134Y332914D02*
D03*
X316188Y480234D02*
D03*
X717000Y259000D02*
D03*
X1225000Y513000D02*
D03*
X181706Y405420D02*
D03*
X759222Y484806D02*
D03*
X1273768Y742616D02*
D03*
X1194012Y747823D02*
D03*
X1352000Y640000D02*
D03*
X1361398Y605964D02*
D03*
X1323806Y588184D02*
D03*
X1225000Y640000D02*
D03*
X1051264Y788082D02*
D03*
X1170644Y713914D02*
D03*
X998940Y715184D02*
D03*
X918930Y645588D02*
D03*
X1342475Y513000D02*
D03*
X1248114Y488108D02*
D03*
X1164802Y491664D02*
D03*
X1083776Y549068D02*
D03*
X1098000Y513000D02*
D03*
X1374352Y448484D02*
D03*
X1157436Y422068D02*
D03*
X1038564Y436292D02*
D03*
X970492Y548306D02*
D03*
X957919Y463470D02*
D03*
X951569Y463328D02*
D03*
X844000Y519350D02*
D03*
Y516175D02*
D03*
X834348Y563546D02*
D03*
X802090Y788590D02*
D03*
X773896Y627554D02*
D03*
X760688Y484806D02*
D03*
X734018Y679624D02*
D03*
X991320Y412924D02*
D03*
X1225000Y386000D02*
D03*
X1098000Y384476D02*
D03*
X971000Y386000D02*
D03*
X1251162Y360346D02*
D03*
X1225000Y340280D02*
D03*
X1212046Y289734D02*
D03*
X1352000Y255825D02*
D03*
X1321520Y144954D02*
D03*
X1158706Y238172D02*
D03*
X1174708Y74850D02*
D03*
X1134576Y299640D02*
D03*
X972778Y71548D02*
D03*
X863558Y173910D02*
D03*
X806662Y266366D02*
D03*
X812250Y265350D02*
D03*
X817584Y111426D02*
D03*
X809075Y265350D02*
D03*
X743670Y163750D02*
D03*
X717000Y132000D02*
D03*
X692108Y281352D02*
D03*
X627338Y571674D02*
D03*
X524468Y760904D02*
D03*
X579840Y539343D02*
D03*
X504148Y649144D02*
D03*
X466302Y549322D02*
D03*
X343874Y768778D02*
D03*
X385022Y749220D02*
D03*
X295614Y788082D02*
D03*
X313902Y691562D02*
D03*
X234146Y559990D02*
D03*
X336000Y513000D02*
D03*
X86826Y673528D02*
D03*
X586317Y490902D02*
D03*
X603462Y425370D02*
D03*
X227796Y467026D02*
D03*
X119846Y445436D02*
D03*
X663406Y227504D02*
D03*
X666200Y101520D02*
D03*
X622258Y224710D02*
D03*
X209000Y386000D02*
D03*
X585174Y305482D02*
D03*
X496782Y276526D02*
D03*
X590000Y132000D02*
D03*
X531072Y214550D02*
D03*
X463000Y259000D02*
D03*
X480780Y176704D02*
D03*
X477478Y74088D02*
D03*
X122894Y339518D02*
D03*
X197062Y336597D02*
D03*
X430742Y255952D02*
D03*
X365210Y279066D02*
D03*
X342096Y225599D02*
D03*
X338032Y75358D02*
D03*
X75142Y178482D02*
D03*
D106*
X687703Y461758D02*
X696876D01*
X686737Y460792D02*
X687703Y461758D01*
X674091Y460792D02*
X686737D01*
X673677Y461206D02*
X674091Y460792D01*
X670414Y461206D02*
X673677D01*
X673476Y496537D02*
X673724Y496289D01*
X673476Y496537D02*
Y504252D01*
X630326Y459544D02*
X630800Y459070D01*
Y457132D02*
Y459070D01*
Y457132D02*
X632100Y455832D01*
X634441D01*
X635741Y454532D01*
X631400Y457380D02*
Y458975D01*
X651617Y482668D02*
X651907Y482958D01*
X638787Y476842D02*
X643403Y481458D01*
X647361D01*
X631400Y458975D02*
X633384Y460960D01*
Y473075D01*
X637151Y476842D01*
X638787D01*
X647361Y481458D02*
X648571Y482668D01*
X651617D01*
X666264Y467228D02*
X666374D01*
X667510Y466093D01*
Y465761D02*
Y466093D01*
X667055Y465307D02*
X667510Y465761D01*
X658157Y465307D02*
X667055D01*
X657682Y464831D02*
X658157Y465307D01*
X655966Y464831D02*
X657682D01*
X655732Y465066D02*
X655966Y464831D01*
X655732Y465066D02*
Y466776D01*
X664414Y468994D02*
X664949Y468459D01*
X627832Y430592D02*
X635364Y438124D01*
X589858Y430592D02*
X627832D01*
X589370Y431080D02*
X589858Y430592D01*
X556694Y431080D02*
X589370D01*
X721089Y348242D02*
X725239Y352392D01*
X820011D01*
X820824Y351580D01*
X839415D01*
X763621Y397672D02*
X764071D01*
X763828Y399472D02*
X764071D01*
Y397672D02*
X764598Y398199D01*
X764071Y399472D02*
X764598Y398945D01*
X750339Y412961D02*
X763828Y399472D01*
X763265Y397672D02*
X763621D01*
X763253Y397660D02*
X763265Y397672D01*
X764598Y398199D02*
Y398945D01*
X736902Y394730D02*
X806250D01*
X807392Y393588D01*
X711414Y369242D02*
X736902Y394730D01*
X871157Y422688D02*
X871960Y423491D01*
X879410D01*
X869566Y422688D02*
X871157D01*
X868764Y423491D02*
X869566Y422688D01*
X863398Y423491D02*
X868764D01*
X778064Y376520D02*
X778436D01*
X778549Y376633D01*
X777951D02*
X778064Y376520D01*
X778549Y376633D02*
X794042D01*
X769312D02*
X777951D01*
X644384Y469469D02*
X645514Y468339D01*
Y465152D02*
Y468339D01*
Y465152D02*
X655792Y454874D01*
X659781D01*
X670537Y428346D02*
X677992D01*
X669060Y426908D02*
X669646D01*
X664743Y422592D02*
X669060Y426908D01*
X664414Y468994D02*
Y473542D01*
X614414Y467492D02*
X620395D01*
X624395Y463492D01*
X834572Y410496D02*
Y410514D01*
X846437Y422380D02*
X862287D01*
X824159Y403874D02*
X827950D01*
X834572Y410514D02*
X846437Y422380D01*
X827950Y403874D02*
X834572Y410496D01*
X862287Y422380D02*
X863398Y423491D01*
X817882Y397598D02*
X824159Y403874D01*
X629926Y451326D02*
Y458301D01*
X627264Y460962D02*
X629926Y458301D01*
X627264Y460962D02*
Y483492D01*
X666913Y431970D02*
X670537Y428346D01*
X661980Y431970D02*
X666913D01*
X656396Y426386D02*
X661980Y431970D01*
X654215Y426386D02*
X656396D01*
X653981Y426152D02*
X654215Y426386D01*
X653981Y425820D02*
Y426152D01*
Y425820D02*
X657209Y422592D01*
X664743D01*
X670246Y426894D02*
X671755Y425385D01*
X661448Y427358D02*
X668661D01*
X671755Y423302D02*
Y425385D01*
X669894Y427508D02*
X670246Y427156D01*
X668661Y427358D02*
X668811Y427508D01*
X670246Y426894D02*
Y427156D01*
X668811Y427508D02*
X669894D01*
X657582Y423492D02*
X661448Y427358D01*
X671755Y423302D02*
X673278Y421779D01*
X788934Y413416D02*
X795800Y420283D01*
X752860Y413416D02*
X788934D01*
X751835Y414441D02*
X752860Y413416D01*
X750866Y414441D02*
X751835D01*
X750339Y413913D02*
X750866Y414441D01*
X750339Y412961D02*
Y413913D01*
X733683Y397660D02*
X763253D01*
X724305Y388282D02*
X733683Y397660D01*
X735240Y367290D02*
X759970D01*
X769312Y376633D01*
X794042D02*
X795800Y378391D01*
X459800Y717970D02*
X504798Y672972D01*
Y616278D02*
Y672972D01*
Y616278D02*
X533500Y587576D01*
Y563860D02*
Y587576D01*
D108*
X667680Y372935D02*
X676380Y381635D01*
X666414Y347492D02*
X667680Y348758D01*
Y372935D01*
X648039Y493646D02*
X650801Y490883D01*
X634953Y493646D02*
X648039D01*
X633915Y492608D02*
X634953Y493646D01*
X620830Y492608D02*
X633915D01*
X665560Y459116D02*
X669057Y455619D01*
X664993Y459116D02*
X665560D01*
X669646Y449597D02*
X669703Y449540D01*
X669646Y449597D02*
Y454768D01*
Y404583D02*
Y425492D01*
X669057Y455357D02*
X669646Y454768D01*
X669057Y455357D02*
Y455619D01*
X676380Y381635D02*
Y388526D01*
X682507Y429608D02*
X683889Y428226D01*
X682507Y429608D02*
Y431360D01*
X681125Y432742D02*
X682507Y431360D01*
X683889Y428226D02*
X684938D01*
X685680Y429935D02*
X688741Y432996D01*
X684938Y428226D02*
X685680Y428968D01*
Y429935D01*
X688741Y432996D02*
X690334D01*
X674698Y390208D02*
Y393486D01*
X675888Y394677D01*
X682964D01*
X674698Y390208D02*
X676380Y388526D01*
X693960Y432462D02*
X708639D01*
X690850Y433512D02*
X692910D01*
X690334Y432996D02*
X690850Y433512D01*
X708639Y432462D02*
X709689Y431411D01*
X692910Y433512D02*
X693960Y432462D01*
X722810Y755590D02*
X724414Y757194D01*
Y767992D01*
X676414Y432742D02*
X681125D01*
X682964Y394677D02*
X684688Y396400D01*
Y398460D01*
X681626Y401521D02*
X684688Y398460D01*
X672708Y401521D02*
X681626D01*
X669646Y404583D02*
X672708Y401521D01*
X727650Y642210D02*
Y718960D01*
Y642210D02*
X734580Y635280D01*
D109*
X660868Y507326D02*
X667532Y513990D01*
X660868Y502468D02*
Y507326D01*
X660110Y501710D02*
X660868Y502468D01*
X640833Y439032D02*
X648593Y431272D01*
X593549Y433950D02*
X629906D01*
X634988Y439032D01*
X640833D01*
X800826Y430336D02*
X803210Y432720D01*
X800826Y429932D02*
Y430336D01*
X799757Y428864D02*
X800826Y429932D01*
X799757Y427645D02*
Y428864D01*
X753236Y414324D02*
X786436D01*
X799757Y427645D01*
X803210Y432720D02*
X836800D01*
X857299Y429188D02*
X858304Y430192D01*
X877076D01*
X840332Y429188D02*
X857299D01*
X877076Y430192D02*
X878146Y429122D01*
X592519Y432920D02*
X593549Y433950D01*
X582401Y437200D02*
X586681Y432920D01*
X499830Y437200D02*
X582401D01*
X586681Y432920D02*
X592519D01*
X651236Y431272D02*
X655035Y435072D01*
X675451Y435250D02*
X690122D01*
X675273Y435072D02*
X675451Y435250D01*
X655035Y435072D02*
X675273D01*
X690122Y435250D02*
X690136Y435236D01*
X693624D01*
X694140Y434720D01*
X648593Y431272D02*
X651236D01*
X611055Y320127D02*
X615961D01*
X516715Y330312D02*
X600870D01*
X615961Y320127D02*
X644364Y291724D01*
X600870Y330312D02*
X611055Y320127D01*
X836800Y432720D02*
X840332Y429188D01*
X694140Y434720D02*
X731768D01*
X731870Y434822D02*
X732738D01*
X753236Y414324D01*
X731768Y434720D02*
X731870Y434822D01*
X937876Y442993D02*
X944414D01*
X931376Y436492D02*
X937876Y442993D01*
X901462Y429122D02*
X902110Y429770D01*
X878146Y429122D02*
X901462D01*
X495848Y433217D02*
X499830Y437200D01*
X448067Y433217D02*
X495848D01*
X446319Y431469D02*
X448067Y433217D01*
X396037Y431469D02*
X446319D01*
X395756Y431750D02*
X396037Y431469D01*
X382140Y431750D02*
X395756D01*
X644364Y291724D02*
X1046206D01*
X1131020Y583220D02*
X1138610Y575630D01*
X1106600Y583220D02*
X1131020D01*
X720836Y287430D02*
X733920D01*
X697076Y263670D02*
X720836Y287430D01*
X601810Y263670D02*
X697076D01*
X1046206Y291724D02*
X1060400Y277530D01*
X513836Y333190D02*
X516715Y330312D01*
X294360Y333190D02*
X513836D01*
D111*
X805640Y439340D02*
X822140D01*
X801800Y443180D02*
X805640Y439340D01*
X825800Y436680D02*
X826488Y435992D01*
X854668D01*
D122*
X718248Y391437D02*
X719533Y392722D01*
X709383Y395971D02*
X713013D01*
X719533Y392722D02*
Y393528D01*
X720817Y394813D01*
X713013Y395971D02*
X715200Y393784D01*
X720817Y394813D02*
X721191D01*
X715200Y392700D02*
Y393784D01*
X716463Y391437D02*
X718248D01*
X715200Y392700D02*
X716463Y391437D01*
X704809Y384887D02*
Y391397D01*
X709383Y395971D01*
X722717Y397827D02*
X731834Y406944D01*
Y410101D01*
X721191Y394813D02*
X722717Y396339D01*
Y397827D01*
X725914Y416021D02*
X731834Y410101D01*
X858001Y360835D02*
X862353Y365187D01*
X856907Y360835D02*
X858001D01*
X855645Y359572D02*
X856907Y360835D01*
X855645Y356565D02*
Y359572D01*
X854668Y355588D02*
X855645Y356565D01*
X673009Y346913D02*
X675769D01*
X667707Y344371D02*
X669150Y345814D01*
X665121Y344371D02*
X667707D01*
X671910Y345814D02*
X673009Y346913D01*
X669150Y345814D02*
X671910D01*
X675769Y346913D02*
X684414Y355558D01*
X658009Y345647D02*
X663845D01*
X652089Y351567D02*
X658009Y345647D01*
X663845Y345647D02*
X665121Y344371D01*
X694739Y373337D02*
Y376385D01*
X698674Y380320D01*
X700242D01*
X704809Y384887D01*
X691671Y365163D02*
Y370269D01*
X694739Y373337D01*
X626414Y448275D02*
Y452880D01*
X625124Y454170D02*
X626414Y452880D01*
X668902Y395380D02*
Y395492D01*
X666964Y393442D02*
X668902Y395380D01*
X664450Y393442D02*
X666964D01*
X660645Y389637D02*
X664450Y393442D01*
X656491Y389637D02*
X660645D01*
X655637Y390492D02*
X656491Y389637D01*
X652414Y390492D02*
X655637D01*
X649671Y397705D02*
X649873Y397502D01*
X699414Y331492D02*
X700250Y330656D01*
X702065D01*
X746159Y327366D02*
X747275Y326250D01*
X793320D01*
X656548Y335222D02*
Y338789D01*
X650663Y329337D02*
X656548Y335222D01*
X644757Y329337D02*
X650663D01*
X554950Y533280D02*
X576984D01*
X587529Y522735D01*
Y518837D02*
Y522735D01*
Y518837D02*
X596135Y510230D01*
Y510115D02*
Y510230D01*
X634069Y328855D02*
X641899Y321025D01*
X537305Y529270D02*
X565776D01*
X532747Y533828D02*
X537305Y529270D01*
X504275Y533828D02*
X532747D01*
X565776Y529270D02*
X605414Y489632D01*
X600668Y500554D02*
Y523668D01*
X649671Y397705D02*
Y402749D01*
X592709Y342168D02*
X609672Y325205D01*
X641899Y321025D02*
X647505D01*
X618737Y325205D02*
X619947Y323995D01*
X624578D01*
X609672Y325205D02*
X618737D01*
X629438Y328855D02*
X634069D01*
X624578Y323995D02*
X629438Y328855D01*
X528330Y522092D02*
Y522390D01*
Y522092D02*
X541740Y508682D01*
X529991Y526400D02*
X545750Y510641D01*
Y509752D02*
Y510641D01*
X529102Y526400D02*
X529991D01*
X526754Y528748D02*
X529102Y526400D01*
X545750Y509752D02*
X560935Y494567D01*
X647505Y321025D02*
X651972Y325492D01*
X410676Y772080D02*
X522690Y660066D01*
X585401Y477059D02*
Y487119D01*
X582975Y489545D02*
X585401Y487119D01*
Y477059D02*
X588830Y473630D01*
X684414Y355558D02*
Y357280D01*
X687067Y359933D01*
Y361207D01*
X687221Y361361D01*
Y361711D01*
X688606Y363097D01*
X689604D01*
X691671Y365163D01*
X575130Y489545D02*
X582975D01*
X570107Y494567D02*
X575130Y489545D01*
X560935Y494567D02*
X570107D01*
X588830Y473630D02*
X593302D01*
X522690Y601646D02*
X600668Y523668D01*
X522690Y601646D02*
Y660066D01*
X348954Y772080D02*
X410676D01*
X503386Y528748D02*
X526754D01*
X426678Y591994D02*
X440140D01*
X503386Y528748D01*
X349414Y688689D02*
X504275Y533828D01*
M02*
