G04*
G04 #@! TF.GenerationSoftware,Altium Limited,Altium Designer,26.7.1 (11)*
G04*
G04 Layer_Physical_Order=5*
G04 Layer_Color=16440176*
G04 Board_Origin=26771654|24803150*
%FSLAX44Y44*%
%MOMM*%
G71*
G04*
G04 #@! TF.SameCoordinates,D9171914-07D6-4B2F-AF4B-0BE730A3B9D6*
G04*
G04*
G04 #@! TF.FilePolarity,Positive*
G04*
G01*
G75*
%ADD12C,0.2000*%
%ADD13C,0.1000*%
%ADD14C,0.1270*%
%ADD15C,0.2540*%
%ADD16C,0.1524*%
%ADD95C,1.4000*%
%ADD96C,2.8500*%
%ADD97C,2.2800*%
%ADD98C,0.8000*%
%ADD99R,1.4000X1.4000*%
%ADD100C,0.0100*%
%ADD101C,0.1000*%
%ADD102C,0.0500*%
%ADD103C,0.2540*%
%ADD104C,1.2700*%
%ADD105C,0.4000*%
%ADD106C,0.0400*%
%ADD108C,0.2032*%
%ADD109C,0.1016*%
%ADD122C,0.3810*%
D12*
X743689Y351010D02*
Y354881D01*
X736180Y338420D02*
X743689Y345929D01*
X743490Y355080D02*
X743689Y354881D01*
Y345929D02*
Y351010D01*
D13*
X660582Y475256D02*
Y475624D01*
X659789Y476417D02*
X660582Y475624D01*
Y475256D02*
X661808Y474030D01*
X661812Y457711D02*
X663080Y456443D01*
X660997Y458429D02*
X661167Y458259D01*
X661200D02*
X661748Y457711D01*
X660169Y458429D02*
X660997D01*
X661167Y458259D02*
X661200D01*
X644395Y442655D02*
X660169Y458429D01*
X661748Y457711D02*
X661812D01*
X618306Y442492D02*
X618428Y442613D01*
X664295Y451623D02*
Y458525D01*
X661507Y460658D02*
X662161D01*
X660043Y462123D02*
X661507Y460658D01*
X660043Y462123D02*
Y464483D01*
X658578Y465948D02*
X660043Y464483D01*
X657005Y465948D02*
X658578D01*
X655359Y465876D02*
X656933D01*
X653657Y467579D02*
X655359Y465876D01*
X653657Y467579D02*
Y469695D01*
X656933Y465876D02*
X657005Y465948D01*
X648364Y471095D02*
X651614Y467845D01*
X648364Y471095D02*
Y471283D01*
X651614Y458855D02*
Y467845D01*
X649402Y456643D02*
X651614Y458855D01*
X649402Y454340D02*
Y456643D01*
X642327Y447265D02*
X649402Y454340D01*
X709167Y346142D02*
X710314D01*
X709664Y347492D02*
X718524Y356352D01*
X709664Y347342D02*
Y347492D01*
X710314Y346142D02*
X710614Y346442D01*
X704933Y350526D02*
X708464Y346995D01*
Y346845D02*
X709167Y346142D01*
X708464Y346845D02*
Y346995D01*
X721158Y340201D02*
Y341263D01*
X720230Y339274D02*
X721158Y340201D01*
X716279Y346142D02*
X721158Y341263D01*
X712211Y346142D02*
X716279D01*
X720230Y338212D02*
Y339274D01*
Y338212D02*
X721384Y337058D01*
X860280Y347951D02*
X861274D01*
X861346Y347880D01*
X860208D02*
X860280Y347951D01*
X861346Y347880D02*
X881800D01*
X859497D02*
X860208D01*
X856480Y379060D02*
X858138Y380718D01*
X849640Y379060D02*
X856480D01*
X733203Y394226D02*
Y396120D01*
X725286Y387566D02*
X726544D01*
X723994Y387532D02*
X725252D01*
X725286Y387566D01*
X726544D02*
X733203Y394226D01*
Y396120D02*
X734272Y397188D01*
X715414Y363492D02*
X717023Y361883D01*
X718271D01*
X718974Y362585D01*
Y364283D01*
X729061Y374370D01*
Y384727D01*
X750489Y385025D02*
X759066Y393601D01*
Y422019D01*
X760071Y423024D01*
X761493D01*
X762498Y422019D01*
Y397625D02*
Y422019D01*
Y397625D02*
X765843Y394280D01*
X803360D01*
X720174Y362089D02*
Y363786D01*
X718768Y360683D02*
X720174Y362089D01*
X717071Y360683D02*
X718768D01*
X715880Y359492D02*
X717071Y360683D01*
X720174Y363786D02*
X741070Y384682D01*
X717774Y363083D02*
Y381852D01*
X763698Y398122D02*
Y398572D01*
Y398122D02*
X765060Y396760D01*
X768860Y398680D02*
X817860D01*
X818225Y398316D02*
X826939D01*
X817860Y398680D02*
X818225Y398316D01*
X811591Y396760D02*
X816972Y391380D01*
X817911D01*
X820386Y388905D01*
X839795D01*
X861151Y369850D02*
X869570D01*
X859000Y351978D02*
Y357480D01*
X857800Y350778D02*
X859000Y351978D01*
X857800Y358680D02*
X859000Y357480D01*
X844056Y341741D02*
X850394D01*
X855212Y346560D02*
X858177D01*
X823945Y321630D02*
X844056Y341741D01*
X850394D02*
X855212Y346560D01*
X703094Y335172D02*
X712250Y326016D01*
Y323290D02*
Y326016D01*
Y323290D02*
X719180Y316360D01*
X858177Y346560D02*
X859497Y347880D01*
X647614Y471845D02*
X647737Y471722D01*
X647924D02*
X648364Y471283D01*
X647737Y471722D02*
X647924D01*
X647614Y471845D02*
Y475664D01*
X646712Y476566D02*
X647614Y475664D01*
X651614Y424942D02*
Y432722D01*
X645133Y418461D02*
X651614Y424942D01*
Y432722D02*
X651669Y432778D01*
X617384Y442492D02*
X618306D01*
X617377Y442485D02*
X617384Y442492D01*
X665356Y476371D02*
X667693Y478708D01*
X665356Y476366D02*
Y476371D01*
X663019Y474030D02*
X665356Y476366D01*
X661808Y474030D02*
X663019D01*
X767580Y399960D02*
X768860Y398680D01*
X826939Y398316D02*
X827503Y398880D01*
X852897D01*
X875000Y420983D01*
Y439021D01*
X870375Y443646D02*
X875000Y439021D01*
X869634Y443646D02*
X870375D01*
X865800Y447480D02*
X869634Y443646D01*
X708576Y371492D02*
X716574Y379490D01*
X642327Y443511D02*
Y447265D01*
X643184Y442655D02*
X644395D01*
X642327Y443511D02*
X643184Y442655D01*
X662161Y460658D02*
X664295Y458525D01*
X817800Y427813D02*
Y427980D01*
X796150Y417934D02*
X807921D01*
X817800Y427813D01*
X683664Y381886D02*
X691952Y373598D01*
X683664Y381886D02*
Y387180D01*
X685614Y389130D01*
Y392739D01*
X683517Y394836D02*
X685614Y392739D01*
X683099Y394836D02*
X683517D01*
X681002Y396933D02*
X683099Y394836D01*
X681002Y396933D02*
Y404133D01*
X681614Y404745D01*
Y414504D01*
X674925Y421192D02*
X681614Y414504D01*
X673752Y421192D02*
X674925D01*
X671102Y418542D02*
X673752Y421192D01*
X666917Y418542D02*
X671102D01*
X660164Y425295D02*
X666917Y418542D01*
X660164Y425295D02*
Y447492D01*
X664295Y451623D01*
X674428Y414559D02*
Y419992D01*
X661664Y397795D02*
X666017Y393442D01*
X667911D01*
X661664Y397795D02*
Y401700D01*
X679016Y380442D02*
X680911D01*
X673464Y385995D02*
Y387890D01*
X667911Y393442D02*
X673464Y387890D01*
X659553Y395088D02*
Y398380D01*
X659264Y398669D02*
X659553Y398380D01*
Y395088D02*
X664059Y390582D01*
X659264Y398669D02*
Y401575D01*
X663414Y371492D02*
Y380714D01*
X779357Y322080D02*
X798232Y340955D01*
Y352509D01*
X748129Y322080D02*
X779357D01*
X680911Y380442D02*
X686464Y374889D01*
X673464Y385995D02*
X679016Y380442D01*
X663911Y404042D02*
X674428Y414559D01*
X661731Y404042D02*
X663911D01*
X659264Y401575D02*
X661731Y404042D01*
X664059Y381359D02*
Y390582D01*
X663414Y380714D02*
X664059Y381359D01*
X661375Y401989D02*
X661664Y401700D01*
X848727Y441880D02*
Y447035D01*
X818187Y357480D02*
X844662D01*
X803203D02*
X807721D01*
X815156Y360511D02*
X818187Y357480D01*
X810752Y360511D02*
X815156D01*
X807721Y357480D02*
X810752Y360511D01*
X798232Y352509D02*
X803203Y357480D01*
X871974Y365840D02*
X874467Y363347D01*
X871974Y365840D02*
Y370994D01*
X872430Y359613D02*
X878625Y365808D01*
Y367380D01*
X867019Y359613D02*
X872430D01*
X869570Y369850D02*
X870320Y369100D01*
X859882Y368580D02*
X861151Y369850D01*
X844662Y357480D02*
X855762Y368580D01*
X711911Y346442D02*
X712211Y346142D01*
X721384Y336969D02*
Y337058D01*
Y336969D02*
X742480Y315873D01*
X855762Y368580D02*
X859882D01*
X741070Y384682D02*
Y386980D01*
X709664Y359492D02*
X715880D01*
X718524Y356352D02*
X728547D01*
X738809Y366614D01*
Y367888D01*
X742830Y371910D01*
X742480Y298854D02*
Y315873D01*
X688864Y369489D02*
Y370595D01*
Y369489D02*
X704933Y353420D01*
Y350526D02*
Y353420D01*
X710614Y346442D02*
X711911D01*
X839795Y388905D02*
X849640Y379060D01*
X646174Y496479D02*
X647002D01*
X647588Y479849D02*
Y495894D01*
X638414Y488719D02*
X646174Y496479D01*
X638414Y477742D02*
Y488719D01*
X647002Y496479D02*
X647588Y495894D01*
X646712Y478973D02*
X647588Y479849D01*
X646712Y476566D02*
Y478973D01*
X644197Y417758D02*
X644900Y418461D01*
X643164Y416492D02*
X644197Y417525D01*
Y417758D01*
X643028Y416492D02*
X643164D01*
X644900Y418461D02*
X645133D01*
X686464Y372995D02*
Y374889D01*
Y372995D02*
X688864Y370595D01*
X742480Y298854D02*
X745343Y295991D01*
X767892D01*
X769781Y297880D01*
X792330D01*
X723813Y387713D02*
X723994Y387532D01*
X721938Y387713D02*
X723813D01*
X629169Y316360D02*
X635030Y322221D01*
X599170Y316360D02*
X629169D01*
X789844Y626604D02*
X833470Y670230D01*
X750675Y626604D02*
X789844D01*
X741593Y617522D02*
X750675Y626604D01*
X697898Y617522D02*
X741593D01*
X687419Y628001D02*
X697898Y617522D01*
X687419Y628001D02*
Y674271D01*
X676940Y684750D02*
X687419Y674271D01*
X765060Y396760D02*
X811591D01*
X857800Y347880D02*
Y350778D01*
X795954Y418131D02*
X796150Y417934D01*
X784183Y418131D02*
X795954D01*
X848727Y422318D02*
Y441880D01*
X838347Y411938D02*
X848727Y422318D01*
X720493Y489522D02*
X721023Y488992D01*
X718335Y489522D02*
X720493D01*
X717805Y488992D02*
X718335Y489522D01*
X721023Y488992D02*
X776190D01*
X708494D02*
X717805D01*
X937310Y459360D02*
X941258Y455412D01*
X1123156D01*
X1135111Y467367D01*
X1151414D01*
X1107503D02*
X1133414D01*
X1088450Y486420D02*
X1107503Y467367D01*
X776190Y488992D02*
X778910Y486272D01*
X938488Y424180D02*
X953183Y409485D01*
X1006922D01*
X1021617Y394790D01*
X1085590D01*
X717774Y381852D02*
X719414Y383492D01*
X716574Y379490D02*
Y382349D01*
X721938Y387713D01*
X361419Y389771D02*
X362890Y388300D01*
X361419Y389771D02*
Y389950D01*
X935660Y403370D02*
X1011340D01*
X1026190Y388520D01*
X705664Y371492D02*
X708576D01*
D14*
X670238Y500372D02*
Y501314D01*
Y500372D02*
X671320Y499290D01*
X669079Y475033D02*
Y477357D01*
X668709Y473558D02*
X669079Y473189D01*
Y458932D02*
Y473189D01*
X668709Y473558D02*
Y474664D01*
X669079Y475033D01*
Y477357D02*
X671320Y479599D01*
X669079Y458932D02*
X670609Y457401D01*
X639424Y349172D02*
X643756D01*
X647968Y344960D01*
X652300D01*
X672420Y347830D02*
X676077Y344173D01*
X672420Y347830D02*
Y376124D01*
X667414Y381130D02*
X672420Y376124D01*
X667414Y381130D02*
Y384492D01*
X670323Y455881D02*
X670609Y456168D01*
Y457401D01*
X671320Y479599D02*
Y499290D01*
X630414Y348068D02*
X647497Y330985D01*
X644864Y325569D02*
X647497Y328202D01*
X644864Y292932D02*
Y325569D01*
X647497Y328202D02*
Y330985D01*
X607856Y371800D02*
X630414Y349242D01*
Y348068D02*
Y349242D01*
X403060Y369744D02*
X407562Y365242D01*
X460664D01*
X602910Y371800D02*
X607856D01*
X623920Y347722D02*
X625052Y348854D01*
X623920Y327360D02*
Y347722D01*
D15*
X637336Y461354D02*
Y471922D01*
X634708Y474550D02*
X637336Y471922D01*
X636134Y460152D02*
X637336Y461354D01*
X634708Y474550D02*
Y635127D01*
X636134Y458676D02*
Y460152D01*
X674923Y494508D02*
X679946Y499530D01*
X674923Y492589D02*
Y494508D01*
Y492589D02*
X675934Y491578D01*
X674414Y488799D02*
X675934Y490319D01*
Y491578D01*
X674414Y475492D02*
Y488799D01*
X654252Y489582D02*
X664422Y499752D01*
Y552448D01*
X634708Y456036D02*
Y457250D01*
X631596Y451710D02*
X634071Y454184D01*
Y455398D02*
X634708Y456036D01*
X634071Y454184D02*
Y455398D01*
X651879Y374570D02*
X664422Y362027D01*
Y353484D02*
Y362027D01*
X560580Y344990D02*
X561298Y344272D01*
X560580Y344990D02*
Y346250D01*
X561298Y298624D02*
Y344272D01*
Y346968D02*
Y363492D01*
X560580Y346250D02*
X561298Y346968D01*
Y298624D02*
X572728Y287194D01*
X654252Y489060D02*
Y489582D01*
X652471Y487801D02*
X652993D01*
X649593Y484923D02*
X652471Y487801D01*
X652993D02*
X654252Y489060D01*
X649593Y480952D02*
Y484923D01*
X643766Y491286D02*
X644211Y491731D01*
X643766Y480284D02*
X644384Y479666D01*
X643766Y480284D02*
Y491286D01*
X644384Y468364D02*
Y479666D01*
X640964Y464944D02*
X644384Y468364D01*
X640964Y448688D02*
Y458163D01*
X639444Y360600D02*
X650447Y349597D01*
X641163Y458362D02*
Y459622D01*
X640964Y459821D02*
Y464944D01*
Y459821D02*
X641163Y459622D01*
X640964Y458163D02*
X641163Y458362D01*
X639444Y447168D02*
X640964Y448688D01*
X649593Y480952D02*
X650747Y479798D01*
X651647D01*
X652210Y479234D02*
X653002D01*
X651647Y479798D02*
X652210Y479234D01*
X653002D02*
X655430Y476807D01*
X621037Y495094D02*
X621860D01*
X623316Y491578D02*
Y493638D01*
X621860Y495094D02*
X623316Y493638D01*
X622800Y476914D02*
Y491062D01*
X620168Y495963D02*
X621037Y495094D01*
X622800Y491062D02*
X623316Y491578D01*
X619414Y438124D02*
X620397Y439107D01*
X619860Y443966D02*
X620397Y443428D01*
X619860Y443966D02*
Y444984D01*
X618691Y446153D02*
X619860Y444984D01*
X620397Y439107D02*
Y443428D01*
X618691Y446153D02*
Y450461D01*
X661780Y468828D02*
X662544Y468064D01*
Y464840D02*
Y468064D01*
X661780Y468828D02*
Y469040D01*
X660590Y470018D02*
X660802D01*
X661780Y469040D01*
X659264Y471344D02*
X660590Y470018D01*
X662544Y464840D02*
X666650Y460733D01*
X656040Y471344D02*
X659264D01*
X668616Y423006D02*
X671050D01*
X665006Y426616D02*
X668616Y423006D01*
X665006Y426616D02*
Y447398D01*
X667218Y449610D01*
X666650Y451437D02*
X667218Y450870D01*
X666650Y451437D02*
Y460733D01*
X667218Y449610D02*
Y450870D01*
X655430Y474696D02*
Y476807D01*
X652384Y471650D02*
X655430Y474696D01*
X692670Y524810D02*
X693220D01*
X715664Y547254D01*
Y547830D01*
X728064Y560230D01*
X732160D01*
X812520Y342731D02*
X823945Y331306D01*
Y324416D02*
Y331306D01*
X811743Y342731D02*
X812520D01*
X746688Y340493D02*
Y408576D01*
Y340493D02*
X747679Y339501D01*
Y324416D02*
Y339501D01*
X703792Y323770D02*
X765768Y261794D01*
X688300Y323770D02*
X703792D01*
X765768Y261794D02*
X915882D01*
X821975Y316804D02*
Y322446D01*
X823945Y298105D02*
Y314834D01*
X821975Y316804D02*
X823945Y314834D01*
X821975Y322446D02*
X823945Y324416D01*
X649345Y419887D02*
X653639Y424181D01*
Y444738D01*
X669127Y346449D02*
X670064D01*
X674528Y341985D01*
X656548Y347138D02*
X668438D01*
X669127Y346449D01*
X677992Y428346D02*
Y428526D01*
X671050Y423006D02*
X671382Y423338D01*
X679946Y502043D02*
X689096Y511193D01*
X723758D01*
X730996Y518430D01*
X618691Y450461D02*
X619414Y451184D01*
Y455492D01*
X623934Y442973D02*
X631596Y450634D01*
X623934Y437921D02*
Y442973D01*
X617432Y433546D02*
X618670Y434784D01*
X620798D02*
X623934Y437921D01*
X617432Y410130D02*
Y433546D01*
X618670Y434784D02*
X620798D01*
X712449Y398446D02*
X713359Y399356D01*
X707221Y398446D02*
X712449D01*
X639444Y360600D02*
Y447168D01*
X631596Y450634D02*
Y451710D01*
X610320Y659515D02*
X634708Y635127D01*
Y457250D02*
X636134Y458676D01*
X620168Y495963D02*
Y500203D01*
X619414Y473528D02*
X622800Y476914D01*
X652444Y402703D02*
Y406003D01*
X656665Y386170D02*
Y393058D01*
X657583Y393976D01*
X652444Y402703D02*
X657583Y397564D01*
Y393976D02*
Y397564D01*
X651812Y381317D02*
X656665Y386170D01*
X648420Y374824D02*
Y379829D01*
X649908Y381317D02*
X651812D01*
X648420Y379829D02*
X649908Y381317D01*
X648674Y374570D02*
X651879D01*
X648420Y374824D02*
X648674Y374570D01*
X650447Y349597D02*
X654089D01*
X656548Y347138D01*
X894038Y289226D02*
Y425116D01*
X874988Y444166D02*
X894038Y425116D01*
Y289226D02*
X896062Y287202D01*
X677992Y428526D02*
X678392Y428926D01*
X671382Y423338D02*
X683862D01*
X678392Y428926D02*
Y461692D01*
X746688Y408576D02*
X751446Y413334D01*
X746159Y297961D02*
Y322896D01*
X747679Y324416D01*
X811743Y342731D02*
Y351613D01*
X813670Y353540D01*
X719414Y333506D02*
Y336242D01*
Y333506D02*
X729080Y323840D01*
X683862Y423338D02*
X693297Y413903D01*
X653639Y444738D02*
X654374Y445473D01*
X649345Y418423D02*
Y419887D01*
X643414Y412492D02*
X649345Y418423D01*
X896062Y286667D02*
Y287202D01*
X897487Y285777D02*
X904198Y279066D01*
X896952Y285777D02*
X897487D01*
X896062Y286667D02*
X896952Y285777D01*
X874988Y444166D02*
Y459406D01*
X870162Y459660D02*
X874734D01*
X874988Y459406D01*
X482812Y276018D02*
X517337Y310543D01*
X511260Y380666D02*
X513884Y378042D01*
Y364037D02*
Y378042D01*
X511582Y361735D02*
X513884Y364037D01*
X511582Y348963D02*
X517337Y343208D01*
X511582Y348963D02*
Y361735D01*
X596858Y360092D02*
Y394503D01*
X604964Y397662D02*
X617432Y410130D01*
X600017Y397662D02*
X604964D01*
X596858Y394503D02*
X600017Y397662D01*
X619414Y455492D02*
Y473528D01*
X679946Y499530D02*
Y502043D01*
X730996Y518430D02*
Y520280D01*
X725816Y525460D02*
X730996Y520280D01*
X723480Y525460D02*
X725816D01*
X718300Y530640D02*
X723480Y525460D01*
X881846Y686990D02*
X932896Y635940D01*
X599398Y335017D02*
Y357552D01*
X595047Y332271D02*
Y332693D01*
X596604Y279828D02*
Y330714D01*
X595047Y332271D02*
X596604Y330714D01*
X597787Y333406D02*
X599398Y335017D01*
X566632Y361108D02*
X595047Y332693D01*
X566632Y361108D02*
Y402002D01*
X639650Y514690D02*
X653180D01*
X656920Y518430D01*
X579840Y511476D02*
Y531074D01*
X537422Y573492D02*
X579840Y531074D01*
X594414Y561461D02*
X618510Y537365D01*
Y501861D02*
Y537365D01*
Y501861D02*
X620168Y500203D01*
X663870Y553000D02*
Y554260D01*
Y553000D02*
X664422Y552448D01*
X663870Y554260D02*
X664422Y554812D01*
X765438Y464748D02*
X816980D01*
X818503Y465010D02*
X825630Y457882D01*
X817241Y465010D02*
X818503D01*
X816980Y464748D02*
X817241Y465010D01*
X825630Y457882D02*
X837904D01*
X674528Y336812D02*
Y341985D01*
X672550Y334834D02*
X674528Y336812D01*
X672550Y326945D02*
Y334834D01*
X674205Y325290D02*
X686780D01*
X672550Y326945D02*
X674205Y325290D01*
X517337Y310543D02*
Y343208D01*
X686780Y325290D02*
X688300Y323770D01*
X907914Y113872D02*
X932896Y138854D01*
Y635940D01*
X375878Y433696D02*
Y493950D01*
X376648Y430839D02*
Y432926D01*
X375878Y433696D02*
X376648Y432926D01*
X374670Y428861D02*
X376648Y430839D01*
X374670Y411858D02*
Y428861D01*
X351704Y390281D02*
Y392386D01*
X350098Y393991D02*
X351704Y392386D01*
X347422Y386000D02*
X351704Y390281D01*
X664422Y554812D02*
Y741092D01*
X764414Y463724D02*
X765438Y464748D01*
X693297Y413903D02*
X694357D01*
X703792Y404469D01*
Y401875D02*
Y404469D01*
X362890Y388300D02*
X367676Y383514D01*
X401678D01*
X406518Y388354D01*
X434816D01*
X374670Y411858D02*
X376036Y410492D01*
Y387774D02*
Y410492D01*
X374516Y386254D02*
X376036Y387774D01*
X373592Y496236D02*
X375878Y493950D01*
X596858Y360092D02*
X599398Y357552D01*
X703792Y401875D02*
X707221Y398446D01*
X332825Y315261D02*
Y408133D01*
X320414Y420544D02*
X332825Y408133D01*
X321776Y304212D02*
X332825Y315261D01*
X604478Y163492D02*
Y271954D01*
X596604Y279828D02*
X604478Y271954D01*
X431504Y219884D02*
Y233492D01*
Y199082D02*
Y219884D01*
X644444Y491498D02*
X656548Y503602D01*
X431504Y219884D02*
X497544Y285924D01*
X915882Y261794D02*
X921470Y256206D01*
X430914Y198492D02*
X431504Y199082D01*
X506434Y459152D02*
X509482D01*
X566632Y402002D01*
X864574Y465248D02*
X870162Y459660D01*
X845270Y465248D02*
X864574D01*
X837904Y457882D02*
X845270Y465248D01*
X404580Y274442D02*
X406156Y276018D01*
X482812D01*
X511260Y380666D02*
Y391588D01*
X344128Y299894D02*
X366734D01*
X340572Y303450D02*
X344128Y299894D01*
X340572Y303450D02*
Y382825D01*
X343747Y386000D01*
X347422D01*
X307044Y287142D02*
Y373300D01*
X1116288Y612060D02*
Y641384D01*
X1088970Y668702D02*
X1116288Y641384D01*
X1212808Y438612D02*
Y477678D01*
X1176994Y513492D02*
X1212808Y477678D01*
X700744Y737282D02*
X703284Y739822D01*
X700744Y621522D02*
Y737282D01*
X698714Y619492D02*
X700744Y621522D01*
X1273514Y709992D02*
X1292818Y690688D01*
Y658796D02*
Y690688D01*
Y658796D02*
X1390914Y560700D01*
X572728Y234616D02*
X588730Y218614D01*
X572728Y234616D02*
Y287194D01*
X1253194Y261540D02*
Y295827D01*
X1205414Y343607D02*
X1253194Y295827D01*
X1225000Y366612D02*
X1262592Y329020D01*
Y274540D02*
Y329020D01*
Y274540D02*
X1275670Y261461D01*
D16*
X678166Y489395D02*
Y492503D01*
X677064Y488293D02*
X678166Y489395D01*
X677064Y483165D02*
Y488293D01*
X677156Y493513D02*
X678166Y492503D01*
X670512Y511754D02*
X670514Y511752D01*
X670512Y511754D02*
Y513017D01*
X676851Y519355D01*
X693799Y477694D02*
X743995Y527890D01*
X833910D01*
X686034Y477694D02*
X693799D01*
X610766Y467182D02*
Y523186D01*
X610382Y523570D02*
X610766Y523186D01*
X684750Y447473D02*
Y453200D01*
X512321Y459470D02*
X531300D01*
X508727Y463064D02*
X512321Y459470D01*
X657973Y460843D02*
Y464486D01*
X643789Y446660D02*
X657973Y460843D01*
X676536Y462993D02*
Y471045D01*
X678260Y469920D02*
X678273D01*
X678076Y472585D02*
Y482153D01*
X679769Y471415D02*
Y471429D01*
X686034Y477694D01*
X678273Y469920D02*
X679769Y471415D01*
X676536Y471045D02*
X678076Y472585D01*
X677064Y483165D02*
X678076Y482153D01*
X663426Y486546D02*
X668372Y491492D01*
X663426Y476504D02*
Y486546D01*
X662414Y475492D02*
X663426Y476504D01*
X583876Y451880D02*
X591738Y459742D01*
X582200Y451880D02*
X583876D01*
X579245Y454835D02*
Y462895D01*
Y454835D02*
X582200Y451880D01*
X576290Y465850D02*
X579245Y462895D01*
X564414Y454763D02*
Y461712D01*
X643789Y444117D02*
Y446660D01*
X564414Y454763D02*
X589429Y429748D01*
X676160Y462617D02*
X676536Y462993D01*
X674664Y436542D02*
X675152Y437030D01*
X675269D01*
X676160Y437921D02*
Y462617D01*
X675269Y437030D02*
X676160Y437921D01*
X657725Y337612D02*
X672171D01*
X672296Y337737D01*
X653335Y342002D02*
X657725Y337612D01*
X594245Y493791D02*
X594645Y494191D01*
X594245Y474754D02*
Y493791D01*
X594645Y494191D02*
Y507666D01*
X684806Y431026D02*
X685876Y432096D01*
Y446347D01*
X684750Y447473D02*
X685876Y446347D01*
X543173Y365724D02*
X562223D01*
X564400Y363546D01*
X534179Y356730D02*
X543173Y365724D01*
X603646Y472047D02*
Y473896D01*
X601674Y475868D02*
X603646Y473896D01*
X599110Y475868D02*
X601674D01*
X594425Y462826D02*
X603646Y472047D01*
X597138Y477840D02*
X599110Y475868D01*
X642587Y342002D02*
X653335D01*
X383534Y463064D02*
X508727D01*
X600871Y461124D02*
Y464992D01*
Y461124D02*
X601763Y460231D01*
X603815D01*
X610766Y467182D01*
X610382Y523570D02*
Y539599D01*
X592182Y557799D02*
X610382Y539599D01*
X592182Y557799D02*
Y615224D01*
X439414Y767992D02*
X592182Y615224D01*
X593780Y465630D02*
X596169Y468019D01*
Y471060D01*
X595182Y472047D02*
X596169Y471060D01*
X595182Y472047D02*
Y473817D01*
X594245Y474754D02*
X595182Y473817D01*
X582914Y453604D02*
X592136Y462826D01*
X594425D01*
X435600Y598072D02*
Y609180D01*
Y598072D02*
X541642Y492030D01*
X542240D01*
X575630Y458640D01*
X684090Y503030D02*
X686930Y500190D01*
X708728D01*
X382250Y461780D02*
X383534Y463064D01*
X676851Y519355D02*
X728764D01*
X400595Y453995D02*
X410770D01*
X393250Y461340D02*
X400595Y453995D01*
X564400Y357070D02*
X577060Y344410D01*
X564400Y357070D02*
Y363546D01*
X515130Y356730D02*
X534179D01*
X591738Y459742D02*
X593414D01*
X568100Y475140D02*
X576070Y467170D01*
X568100Y475140D02*
Y483734D01*
D95*
X194414Y46992D02*
D03*
X154414D02*
D03*
X214414Y79992D02*
D03*
X194414D02*
D03*
X154414D02*
D03*
X134414D02*
D03*
X214414Y46992D02*
D03*
D96*
X42914Y452192D02*
D03*
Y339792D02*
D03*
D97*
X82914Y452192D02*
D03*
Y339792D02*
D03*
D98*
X1112914Y265292D02*
D03*
X1045914D02*
D03*
D99*
X134414Y46992D02*
D03*
D100*
X1075034Y447612D02*
D03*
X697481Y465558D02*
D03*
X711481Y462843D02*
D03*
X635816Y469778D02*
D03*
X639624Y469242D02*
D03*
X674414Y490949D02*
D03*
X673476Y504252D02*
D03*
X672980Y506550D02*
D03*
X659982Y507742D02*
D03*
X660110Y503180D02*
D03*
X661472Y499732D02*
D03*
X652078Y493037D02*
D03*
X677156Y493513D02*
D03*
X670238Y501314D02*
D03*
X628952Y465538D02*
D03*
X717355Y393592D02*
D03*
X717414Y395141D02*
D03*
X717331Y401368D02*
D03*
X712577Y393359D02*
D03*
X635741Y454532D02*
D03*
X636345Y364161D02*
D03*
X632615Y334112D02*
D03*
X631297Y371217D02*
D03*
X620951Y370248D02*
D03*
X665383Y363354D02*
D03*
X655358Y361845D02*
D03*
X615889Y338018D02*
D03*
X562100Y345620D02*
D03*
X620290Y336930D02*
D03*
X498190Y357060D02*
D03*
X513102Y357742D02*
D03*
X376957Y193492D02*
D03*
X500830Y329120D02*
D03*
X712699Y392958D02*
D03*
X694511Y493211D02*
D03*
X692592Y494450D02*
D03*
X659879Y480384D02*
D03*
X658947Y477694D02*
D03*
X653889Y481308D02*
D03*
X652939Y484260D02*
D03*
X652364Y489321D02*
D03*
X659789Y476417D02*
D03*
X651907Y482958D02*
D03*
X649172Y488193D02*
D03*
X642246Y480986D02*
D03*
X620830Y492608D02*
D03*
X614414Y494577D02*
D03*
X546475Y475918D02*
D03*
X600009Y477866D02*
D03*
X683468Y454546D02*
D03*
X680414Y457401D02*
D03*
X684750Y453200D02*
D03*
X664993Y459116D02*
D03*
X663080Y456443D02*
D03*
X621380Y444595D02*
D03*
X657672Y480242D02*
D03*
X666264Y467228D02*
D03*
X655732Y466776D02*
D03*
X660110Y468348D02*
D03*
X666034Y465098D02*
D03*
X618428Y442613D02*
D03*
X630326Y459544D02*
D03*
X664064Y468056D02*
D03*
X556694Y431080D02*
D03*
X525431Y452456D02*
D03*
X652859Y465381D02*
D03*
X650414Y466617D02*
D03*
X665698Y450240D02*
D03*
X1039170Y475200D02*
D03*
X650864Y459166D02*
D03*
X669703Y449540D02*
D03*
X817800Y371680D02*
D03*
X824322Y356730D02*
D03*
X840871Y364992D02*
D03*
X816617Y346630D02*
D03*
X824890Y354750D02*
D03*
X861190Y350020D02*
D03*
X794770Y350080D02*
D03*
X698360Y341750D02*
D03*
X704290Y340570D02*
D03*
X715414Y343712D02*
D03*
X709500Y335500D02*
D03*
X705412Y337095D02*
D03*
X719302Y341846D02*
D03*
X724570Y339570D02*
D03*
X721089Y348242D02*
D03*
X720258Y340890D02*
D03*
X857954Y374564D02*
D03*
X801735Y427144D02*
D03*
X801584Y430022D02*
D03*
X803902Y425518D02*
D03*
X739298Y418417D02*
D03*
X729151Y409393D02*
D03*
X724872Y396935D02*
D03*
X728443Y396198D02*
D03*
X823090Y440240D02*
D03*
X825800Y449220D02*
D03*
X858525Y453530D02*
D03*
X678757Y471835D02*
D03*
X652384Y471650D02*
D03*
X692670Y524810D02*
D03*
X732160Y560230D02*
D03*
X668372Y491492D02*
D03*
X932360Y738430D02*
D03*
X715414Y363492D02*
D03*
X729061Y384727D02*
D03*
X750489Y385025D02*
D03*
X803360Y394280D02*
D03*
X763698Y398572D02*
D03*
X872681Y426312D02*
D03*
X870362Y424608D02*
D03*
X866291Y421638D02*
D03*
X847328Y409394D02*
D03*
X826870Y406560D02*
D03*
X754414Y382514D02*
D03*
X731935Y376612D02*
D03*
X727328Y376828D02*
D03*
X717024Y369710D02*
D03*
X711544Y363362D02*
D03*
X721318Y362333D02*
D03*
X757030Y368728D02*
D03*
X778250Y376970D02*
D03*
X798094Y380974D02*
D03*
X819400Y388830D02*
D03*
X854668Y355588D02*
D03*
X818440Y344346D02*
D03*
X786564Y340671D02*
D03*
X778580Y338910D02*
D03*
X846818Y350830D02*
D03*
X792550Y337700D02*
D03*
X748440Y340890D02*
D03*
X703094Y335172D02*
D03*
X719180Y316360D02*
D03*
X823945Y321630D02*
D03*
X647614Y470972D02*
D03*
X659781Y454874D02*
D03*
X652300Y344960D02*
D03*
X676077Y344173D02*
D03*
X667414Y384492D02*
D03*
X670323Y455881D02*
D03*
X680680Y559680D02*
D03*
X669680Y351822D02*
D03*
X669646Y425492D02*
D03*
Y426908D02*
D03*
X665942Y501781D02*
D03*
X662932Y333926D02*
D03*
X664414Y473542D02*
D03*
X662414Y490141D02*
D03*
X907280Y779570D02*
D03*
X619414Y438124D02*
D03*
X667532Y525382D02*
D03*
X667693Y478708D02*
D03*
X757460Y483560D02*
D03*
X614414Y471492D02*
D03*
X560340Y460240D02*
D03*
X496760Y483340D02*
D03*
X579700Y771760D02*
D03*
X564414Y461712D02*
D03*
X831822Y341870D02*
D03*
X643414Y412492D02*
D03*
X767580Y399960D02*
D03*
X721710Y392658D02*
D03*
X870670Y432209D02*
D03*
X727328Y383714D02*
D03*
X733128Y380912D02*
D03*
X726021Y386816D02*
D03*
X765121Y435242D02*
D03*
X787600Y470580D02*
D03*
X643789Y444117D02*
D03*
X657973Y464486D02*
D03*
X678260Y469920D02*
D03*
X833910Y527890D02*
D03*
X983180Y606980D02*
D03*
X672400Y491492D02*
D03*
X770660Y525910D02*
D03*
X624395Y463492D02*
D03*
X659816Y538484D02*
D03*
X699224Y697180D02*
D03*
X746020Y753610D02*
D03*
X756580Y367510D02*
D03*
X719414Y359772D02*
D03*
X824414Y399066D02*
D03*
X817882Y397598D02*
D03*
X807392Y393588D02*
D03*
X854668Y435992D02*
D03*
X809355Y425806D02*
D03*
X749430Y390390D02*
D03*
X691952Y373598D02*
D03*
X674428Y419992D02*
D03*
X622517Y418853D02*
D03*
X614778Y419105D02*
D03*
X629926Y451326D02*
D03*
X627264Y483492D02*
D03*
X619067Y485423D02*
D03*
X621280Y489720D02*
D03*
X620168Y487838D02*
D03*
X653400Y663960D02*
D03*
X639650Y724240D02*
D03*
X684750Y714450D02*
D03*
X695090Y551992D02*
D03*
X668902Y395492D02*
D03*
X652414Y390492D02*
D03*
X650414Y384692D02*
D03*
X649873Y397502D02*
D03*
X648695Y388644D02*
D03*
X663414Y371492D02*
D03*
X761530Y333230D02*
D03*
X793087Y334750D02*
D03*
X885940Y382140D02*
D03*
X892518Y384680D02*
D03*
X963710Y324830D02*
D03*
X379720Y438020D02*
D03*
X684414Y429492D02*
D03*
X685876Y417520D02*
D03*
X664948Y336600D02*
D03*
X711500Y323370D02*
D03*
X693770Y320760D02*
D03*
X702065Y330656D02*
D03*
X746159Y327366D02*
D03*
X793320Y326250D02*
D03*
X734718Y333052D02*
D03*
X748129Y322080D02*
D03*
X811743Y342731D02*
D03*
X813670Y353540D02*
D03*
X820050Y350020D02*
D03*
X874467Y363347D02*
D03*
X871974Y370994D02*
D03*
X850261Y367547D02*
D03*
X870320Y369100D02*
D03*
X817300Y361460D02*
D03*
X777408Y411356D02*
D03*
X822648Y388080D02*
D03*
X729080Y323840D02*
D03*
X741070Y386980D02*
D03*
X742830Y371910D02*
D03*
X748208Y355069D02*
D03*
X785750Y350080D02*
D03*
X743689Y351010D02*
D03*
X644757Y329337D02*
D03*
X611291Y344017D02*
D03*
X556527Y503564D02*
D03*
X596135Y510115D02*
D03*
X594316Y538656D02*
D03*
X581558Y764060D02*
D03*
X631846Y326584D02*
D03*
X594645Y507666D02*
D03*
X673278Y421779D02*
D03*
X699930Y426056D02*
D03*
X645286Y490656D02*
D03*
X688414Y351492D02*
D03*
X799040Y335500D02*
D03*
X944215Y310995D02*
D03*
X636228Y489378D02*
D03*
X694430Y343530D02*
D03*
X924414Y476406D02*
D03*
X612370Y383240D02*
D03*
X671509Y392350D02*
D03*
X684806Y431026D02*
D03*
X643414Y412492D02*
D03*
X658459Y399447D02*
D03*
X643028Y416492D02*
D03*
X649671Y402749D02*
D03*
X661454Y382492D02*
D03*
X680171Y319878D02*
D03*
X679920Y323310D02*
D03*
X821260Y315370D02*
D03*
X643414Y429492D02*
D03*
X661375Y401989D02*
D03*
X792330Y297880D02*
D03*
X897582Y287297D02*
D03*
X873309Y439439D02*
D03*
X795800Y420283D02*
D03*
X724305Y388282D02*
D03*
X734272Y397188D02*
D03*
X734414Y363492D02*
D03*
X735240Y367290D02*
D03*
X557040Y363660D02*
D03*
X592709Y342168D02*
D03*
X621914Y371142D02*
D03*
X620840Y326150D02*
D03*
X636514Y337450D02*
D03*
X643748Y367704D02*
D03*
X628259Y408492D02*
D03*
X630414Y401229D02*
D03*
X624250Y399960D02*
D03*
X600837Y395684D02*
D03*
X584161Y394288D02*
D03*
X632414Y358522D02*
D03*
X620330Y397875D02*
D03*
X641414Y362492D02*
D03*
X620957Y373492D02*
D03*
X639643Y458992D02*
D03*
X653910Y475840D02*
D03*
X604414Y463492D02*
D03*
X667532Y525382D02*
D03*
X687324Y553907D02*
D03*
X720415Y713599D02*
D03*
X528330Y522390D02*
D03*
X541740Y508682D02*
D03*
X564517Y480234D02*
D03*
X632418Y324545D02*
D03*
X635030Y322221D02*
D03*
X613030Y369930D02*
D03*
X651669Y432778D02*
D03*
X672166Y473687D02*
D03*
X674414Y475492D02*
D03*
X718300Y530640D02*
D03*
X897600Y730070D02*
D03*
X677064Y480910D02*
D03*
X889414Y763492D02*
D03*
X874610Y803000D02*
D03*
X484330Y507650D02*
D03*
X639650Y514690D02*
D03*
X656920Y518430D02*
D03*
X692193Y560683D02*
D03*
X665390Y553630D02*
D03*
X657910Y552860D02*
D03*
X604414Y516406D02*
D03*
X583650Y520327D02*
D03*
X867469Y376065D02*
D03*
X867019Y359613D02*
D03*
X804760Y349250D02*
D03*
X569360Y370915D02*
D03*
X650865Y419100D02*
D03*
X625124Y454170D02*
D03*
X620400Y728090D02*
D03*
X750483Y753073D02*
D03*
X739200Y776820D02*
D03*
X888030Y744920D02*
D03*
X600871Y464992D02*
D03*
X459800Y718322D02*
D03*
X533500Y563860D02*
D03*
X534380Y561880D02*
D03*
X574414Y486626D02*
D03*
X593780Y465630D02*
D03*
X583650Y522559D02*
D03*
X476630Y721050D02*
D03*
X597138Y477840D02*
D03*
X459470Y763510D02*
D03*
X435600Y609180D02*
D03*
X575630Y458640D02*
D03*
X619414Y455492D02*
D03*
X605550Y506000D02*
D03*
X684090Y503030D02*
D03*
X708728Y500190D02*
D03*
X934892Y570920D02*
D03*
X597112Y486584D02*
D03*
X660110Y501710D02*
D03*
X833470Y670230D02*
D03*
X676940Y684750D02*
D03*
X378620Y474650D02*
D03*
X382250Y461780D02*
D03*
X531300Y459470D02*
D03*
X667532Y513990D02*
D03*
X728764Y519355D02*
D03*
X393250Y461340D02*
D03*
X439340Y720390D02*
D03*
X641213Y382492D02*
D03*
X890670Y743160D02*
D03*
X711413Y407492D02*
D03*
X722334Y403018D02*
D03*
X747120Y438058D02*
D03*
X721134Y411425D02*
D03*
X725914Y416021D02*
D03*
X815557Y457932D02*
D03*
X817871Y463490D02*
D03*
X863610Y387530D02*
D03*
X822493Y431962D02*
D03*
X842557Y413492D02*
D03*
X822493Y431212D02*
D03*
X857800Y358680D02*
D03*
X838347Y411629D02*
D03*
X784183Y418131D02*
D03*
X684414Y386492D02*
D03*
X689414Y383492D02*
D03*
X672296Y337737D02*
D03*
X642587Y342002D02*
D03*
X577060Y344410D02*
D03*
X515130Y356730D02*
D03*
X354640Y306350D02*
D03*
X434414Y304758D02*
D03*
X470580Y301510D02*
D03*
X533830Y308110D02*
D03*
X599170Y316360D02*
D03*
X617377Y442485D02*
D03*
X597112Y515159D02*
D03*
X666414Y475492D02*
D03*
X903002Y718838D02*
D03*
X725914Y429712D02*
D03*
X841280Y463870D02*
D03*
X848727Y447035D02*
D03*
X838347Y411938D02*
D03*
X741730Y308110D02*
D03*
X662414Y479492D02*
D03*
X725914Y437703D02*
D03*
X732424Y434064D02*
D03*
X760782Y421308D02*
D03*
X736180Y338420D02*
D03*
X709689Y431411D02*
D03*
X674664Y436542D02*
D03*
X719414Y486917D02*
D03*
X708494Y488992D02*
D03*
X674850Y567860D02*
D03*
X673970Y541706D02*
D03*
X593414Y459742D02*
D03*
X576290Y465850D02*
D03*
X576070Y467170D02*
D03*
X568100Y483734D02*
D03*
X577280Y502370D02*
D03*
X582914Y453604D02*
D03*
X798100Y403492D02*
D03*
X801460Y406890D02*
D03*
X800100Y411620D02*
D03*
X795800Y412476D02*
D03*
X793871Y423492D02*
D03*
X796032Y406803D02*
D03*
X795800Y396010D02*
D03*
X715000Y495880D02*
D03*
X758450Y455730D02*
D03*
X937310Y459360D02*
D03*
X1088450Y486420D02*
D03*
X778910Y486272D02*
D03*
X609250Y379850D02*
D03*
X576620Y407110D02*
D03*
X658570Y726220D02*
D03*
X662414Y475492D02*
D03*
X903320Y718520D02*
D03*
X900130Y735900D02*
D03*
X1058970Y532510D02*
D03*
X938488Y424180D02*
D03*
X1085590Y394790D02*
D03*
X825684Y378180D02*
D03*
X843260Y377360D02*
D03*
X884730Y375320D02*
D03*
X889800Y443180D02*
D03*
X804430Y761970D02*
D03*
X774414Y611492D02*
D03*
X780450Y720720D02*
D03*
X1084414Y626492D02*
D03*
X997590Y657140D02*
D03*
X719414Y383492D02*
D03*
X717774Y363083D02*
D03*
X931376Y436492D02*
D03*
X902110Y429770D02*
D03*
X374670Y431658D02*
D03*
X289960Y429110D02*
D03*
X330414Y436494D02*
D03*
X276430Y412170D02*
D03*
X361419Y389950D02*
D03*
X350460Y412720D02*
D03*
X416790Y412390D02*
D03*
X304414Y413492D02*
D03*
X292160Y413270D02*
D03*
X268584Y382992D02*
D03*
X231053Y303396D02*
D03*
X284414Y358488D02*
D03*
Y360492D02*
D03*
X278740Y374220D02*
D03*
X222224Y401696D02*
D03*
X171914Y410367D02*
D03*
X218548Y412780D02*
D03*
X182710Y400510D02*
D03*
X195250D02*
D03*
X202180Y384450D02*
D03*
X161810Y400180D02*
D03*
X654414Y339492D02*
D03*
X624414Y369178D02*
D03*
X630414Y418004D02*
D03*
X643720Y323180D02*
D03*
X638076Y339154D02*
D03*
X680790Y721160D02*
D03*
X751850Y545380D02*
D03*
X764414Y504035D02*
D03*
X783294Y496868D02*
D03*
X844414Y494035D02*
D03*
X823945Y298105D02*
D03*
X936870Y395670D02*
D03*
X1087020Y406340D02*
D03*
X1137871Y323492D02*
D03*
X909810Y280940D02*
D03*
X689414Y356492D02*
D03*
X680678Y315896D02*
D03*
X658414Y382492D02*
D03*
X832040Y455730D02*
D03*
X805945Y463228D02*
D03*
X841060Y425590D02*
D03*
X809800Y430180D02*
D03*
X689643Y419707D02*
D03*
X935660Y403370D02*
D03*
X1026190Y388520D02*
D03*
X424710Y166760D02*
D03*
X443960Y178860D02*
D03*
X374516Y391610D02*
D03*
X362890Y388300D02*
D03*
X460664Y365242D02*
D03*
X553157Y322377D02*
D03*
X530728Y299949D02*
D03*
X529940Y345770D02*
D03*
X670890Y299090D02*
D03*
X878460Y429880D02*
D03*
X913660Y435820D02*
D03*
X944900Y446600D02*
D03*
X1036420Y479380D02*
D03*
X1124414Y500492D02*
D03*
X793756Y376183D02*
D03*
X743490Y355080D02*
D03*
X584414Y248034D02*
D03*
X518876Y368060D02*
D03*
X497640Y395890D02*
D03*
X644356Y340788D02*
D03*
X491702Y381428D02*
D03*
X498080Y405790D02*
D03*
X602910Y371800D02*
D03*
X623920Y327360D02*
D03*
X513370Y265760D02*
D03*
X633938Y343293D02*
D03*
X689711Y421789D02*
D03*
X889800Y397680D02*
D03*
X899690Y395560D02*
D03*
X885830Y399740D02*
D03*
X871310Y286110D02*
D03*
X886545Y284908D02*
D03*
X884180Y276210D02*
D03*
X1057210Y385000D02*
D03*
X1238132Y444695D02*
D03*
X1192400Y411400D02*
D03*
X1215888Y447160D02*
D03*
X1126180Y599940D02*
D03*
X1169080Y686510D02*
D03*
X844414Y763492D02*
D03*
X336930Y331650D02*
D03*
X744150Y454850D02*
D03*
X1132120Y645810D02*
D03*
X1029160Y251790D02*
D03*
X660770Y392810D02*
D03*
X585414Y269842D02*
D03*
X676414Y373492D02*
D03*
X674960Y371724D02*
D03*
X686290Y331650D02*
D03*
X687372Y342228D02*
D03*
X690414Y335492D02*
D03*
X583440Y727650D02*
D03*
X813340Y367070D02*
D03*
X788920Y355960D02*
D03*
X688728Y325492D02*
D03*
X686290Y339680D02*
D03*
X918610Y717310D02*
D03*
X691020Y460900D02*
D03*
X825800Y365180D02*
D03*
X690414Y339492D02*
D03*
X815870Y332310D02*
D03*
X826980Y329890D02*
D03*
X572880Y215820D02*
D03*
X394414Y201034D02*
D03*
X903430Y340340D02*
D03*
X601810Y263670D02*
D03*
X599060Y262680D02*
D03*
X396770Y233310D02*
D03*
X440990Y245080D02*
D03*
X439120Y217690D02*
D03*
X1060400Y277530D02*
D03*
X294360Y333190D02*
D03*
X172150Y364540D02*
D03*
D101*
X684414Y445742D02*
D03*
X719414Y462742D02*
D03*
X639624Y469242D02*
D03*
X615809Y464388D02*
D03*
X512335Y475408D02*
D03*
X670514Y511752D02*
D03*
X654591Y496563D02*
D03*
X716593Y397699D02*
D03*
X711343Y393366D02*
D03*
X661664Y360492D02*
D03*
X439124Y343582D02*
D03*
X498560Y319850D02*
D03*
X711414Y385242D02*
D03*
X713664Y387492D02*
D03*
X651563Y481768D02*
D03*
X650414Y477742D02*
D03*
X660264Y486495D02*
D03*
X605432Y473742D02*
D03*
X591633Y482678D02*
D03*
X672298Y445742D02*
D03*
X661664Y459459D02*
D03*
X633594Y445468D02*
D03*
X646388Y482358D02*
D03*
X648912Y476994D02*
D03*
X640076Y471403D02*
D03*
X642414Y473742D02*
D03*
X652103Y477200D02*
D03*
X670044Y474111D02*
D03*
X682655Y465500D02*
D03*
X662004Y461858D02*
D03*
X881800Y447480D02*
D03*
X1080159Y456612D02*
D03*
X1142450Y479910D02*
D03*
X825229Y361616D02*
D03*
X713664Y347342D02*
D03*
X709664D02*
D03*
X705570Y335350D02*
D03*
X860777Y346751D02*
D03*
X857800Y385471D02*
D03*
X858138Y380718D02*
D03*
X858007Y367173D02*
D03*
X801376Y434904D02*
D03*
X806036Y434684D02*
D03*
X720112Y397417D02*
D03*
X677359Y506422D02*
D03*
X713694Y548070D02*
D03*
X939414Y758992D02*
D03*
X917448Y740542D02*
D03*
X653557Y605456D02*
D03*
X781418Y385951D02*
D03*
X801216Y393042D02*
D03*
X825800Y414879D02*
D03*
X858804Y428984D02*
D03*
X873800Y427980D02*
D03*
X857800Y420179D02*
D03*
X809800Y399880D02*
D03*
X711414Y369242D02*
D03*
X863702Y368650D02*
D03*
X857800Y354380D02*
D03*
X848042Y347424D02*
D03*
X817800Y340380D02*
D03*
X792315Y346166D02*
D03*
X658414Y473742D02*
D03*
X670414Y340325D02*
D03*
X658414Y349242D02*
D03*
X669943Y348419D02*
D03*
X675051Y429795D02*
D03*
X677992Y428346D02*
D03*
X672493Y453116D02*
D03*
X685928Y573517D02*
D03*
X944414Y767993D02*
D03*
X924414Y780050D02*
D03*
X1273514Y709992D02*
D03*
X1274414Y617394D02*
D03*
X620661Y446969D02*
D03*
X621384Y450938D02*
D03*
X615414Y432742D02*
D03*
X611336Y431492D02*
D03*
X607164Y427492D02*
D03*
Y439492D02*
D03*
X597414Y426404D02*
D03*
X615414Y444079D02*
D03*
X607937Y467788D02*
D03*
X609304Y473630D02*
D03*
X615809Y461742D02*
D03*
X683472Y633492D02*
D03*
X666976Y446473D02*
D03*
X619414Y432742D02*
D03*
X650414Y445742D02*
D03*
X654374Y445473D02*
D03*
X1003302Y615992D02*
D03*
X589414Y454992D02*
D03*
X533866Y450815D02*
D03*
X713359Y399356D02*
D03*
X715330Y401326D02*
D03*
X712428Y380544D02*
D03*
X712174Y377364D02*
D03*
X714149Y373524D02*
D03*
X707414Y385242D02*
D03*
X589429Y429748D02*
D03*
X628414Y432742D02*
D03*
X652356Y469550D02*
D03*
X658414Y467148D02*
D03*
X653657Y469695D02*
D03*
X674414Y461742D02*
D03*
X861128Y523492D02*
D03*
X821190D02*
D03*
X791128D02*
D03*
X622815Y459962D02*
D03*
X715229Y369744D02*
D03*
X709273Y366027D02*
D03*
X775229Y426640D02*
D03*
X801735Y428044D02*
D03*
X713812Y379344D02*
D03*
X683925Y366242D02*
D03*
X674660Y412488D02*
D03*
X615414Y420005D02*
D03*
X625788Y420693D02*
D03*
X622315Y500330D02*
D03*
X625641Y519269D02*
D03*
X639414Y758992D02*
D03*
X686414Y473742D02*
D03*
X683038Y426640D02*
D03*
X675526Y425492D02*
D03*
X667879Y391003D02*
D03*
X645799Y391936D02*
D03*
X658635Y392242D02*
D03*
X645177D02*
D03*
X645414Y379242D02*
D03*
X650945D02*
D03*
X645735Y386492D02*
D03*
X654414Y379242D02*
D03*
X653153Y377872D02*
D03*
X657918Y365746D02*
D03*
X653884Y366242D02*
D03*
X652089Y351567D02*
D03*
X645735Y360492D02*
D03*
X889800Y380380D02*
D03*
X684414Y392242D02*
D03*
X680414Y379242D02*
D03*
X684414D02*
D03*
X655609Y432742D02*
D03*
X628384Y443695D02*
D03*
X605414Y446198D02*
D03*
X511914Y435992D02*
D03*
X687664Y429492D02*
D03*
X664863Y378993D02*
D03*
X660464Y399492D02*
D03*
X811249Y359311D02*
D03*
X801882Y380462D02*
D03*
X817800Y385680D02*
D03*
X711414Y344342D02*
D03*
X700314Y345242D02*
D03*
X873800Y384910D02*
D03*
X863600Y378180D02*
D03*
X855229Y369744D02*
D03*
X873800Y380380D02*
D03*
X833800Y386880D02*
D03*
X622414Y349242D02*
D03*
X607164Y367492D02*
D03*
X587968Y375591D02*
D03*
X629715Y758992D02*
D03*
X612352Y671594D02*
D03*
X584414Y767992D02*
D03*
X594414Y767992D02*
D03*
X466048Y344090D02*
D03*
X417280Y348030D02*
D03*
X676414Y392242D02*
D03*
X684414Y419742D02*
D03*
X697664Y419492D02*
D03*
X690414Y353242D02*
D03*
X904198Y279066D02*
D03*
X622935Y386492D02*
D03*
X685642Y404215D02*
D03*
X680414Y405242D02*
D03*
X687664Y412492D02*
D03*
X680414Y431026D02*
D03*
X694414Y465742D02*
D03*
X645397Y417261D02*
D03*
X646896Y408224D02*
D03*
X641414Y419742D02*
D03*
X1025414Y358272D02*
D03*
X675664Y408492D02*
D03*
X676414Y405242D02*
D03*
X634164Y442492D02*
D03*
X641414Y432742D02*
D03*
X655895Y405242D02*
D03*
X809800Y434479D02*
D03*
X589414Y353447D02*
D03*
X597419Y353252D02*
D03*
X511914Y374657D02*
D03*
X639424Y349172D02*
D03*
X633072Y405299D02*
D03*
X637414Y405242D02*
D03*
X630386Y345242D02*
D03*
X643594Y353234D02*
D03*
X638414Y353242D02*
D03*
X635550Y345648D02*
D03*
X635019Y356492D02*
D03*
X634772Y361100D02*
D03*
X620194Y367021D02*
D03*
X618414Y353242D02*
D03*
X622935Y379242D02*
D03*
X624414D02*
D03*
X637414Y445742D02*
D03*
X614414Y767992D02*
D03*
X546734Y498395D02*
D03*
X650414Y337242D02*
D03*
X648362Y334496D02*
D03*
X652164Y339492D02*
D03*
X621164Y412492D02*
D03*
X672664Y471492D02*
D03*
X881846Y686990D02*
D03*
X597787Y333406D02*
D03*
X586513Y329104D02*
D03*
X579840Y344344D02*
D03*
X583797Y411866D02*
D03*
X483066Y499792D02*
D03*
X589414Y397242D02*
D03*
X868952Y358152D02*
D03*
X867019Y363960D02*
D03*
X719414Y336242D02*
D03*
X881800Y373880D02*
D03*
X674901Y360492D02*
D03*
X658204Y379242D02*
D03*
X674664Y356492D02*
D03*
X667414Y379242D02*
D03*
X649477Y405347D02*
D03*
X662208Y387035D02*
D03*
X660638Y409518D02*
D03*
X645414Y405242D02*
D03*
X647164Y412492D02*
D03*
X620732Y429492D02*
D03*
X627638Y422326D02*
D03*
X631557Y461742D02*
D03*
X634164Y459492D02*
D03*
X636990Y458222D02*
D03*
X638414Y477742D02*
D03*
Y473630D02*
D03*
X884414Y767993D02*
D03*
X874414D02*
D03*
X864414D02*
D03*
X854414D02*
D03*
X593922Y560864D02*
D03*
X614414Y526462D02*
D03*
X585229Y467280D02*
D03*
X454414Y758992D02*
D03*
X620480Y502677D02*
D03*
X612352Y535591D02*
D03*
X588006Y478138D02*
D03*
X583527Y475249D02*
D03*
X853652Y605202D02*
D03*
X600668Y500554D02*
D03*
X1016914Y642540D02*
D03*
X351414Y456017D02*
D03*
X296418Y436510D02*
D03*
X304914Y468492D02*
D03*
X719414Y413742D02*
D03*
X865800Y414979D02*
D03*
X863600Y391180D02*
D03*
Y384680D02*
D03*
X833800Y421480D02*
D03*
Y367380D02*
D03*
X809785Y421495D02*
D03*
X689414Y379242D02*
D03*
X693414D02*
D03*
Y391581D02*
D03*
X611336Y424398D02*
D03*
X607164Y451492D02*
D03*
X669985Y482358D02*
D03*
X697664Y335492D02*
D03*
X692315Y329104D02*
D03*
X670414Y469242D02*
D03*
X697664Y479492D02*
D03*
X758656Y374307D02*
D03*
X856429Y329020D02*
D03*
X705569Y342860D02*
D03*
X708594D02*
D03*
X742315Y337232D02*
D03*
X725282Y345360D02*
D03*
X871600Y349080D02*
D03*
X718854Y449181D02*
D03*
X727664Y444492D02*
D03*
X701190Y453492D02*
D03*
X719414Y437742D02*
D03*
X691880Y431026D02*
D03*
X687664Y442492D02*
D03*
Y438492D02*
D03*
X674664Y439204D02*
D03*
X674698Y445742D02*
D03*
X651918Y347246D02*
D03*
X646326Y349112D02*
D03*
X678414Y353242D02*
D03*
X689672Y360478D02*
D03*
X684706Y362440D02*
D03*
X689065Y366242D02*
D03*
X702381Y378775D02*
D03*
X700942Y384704D02*
D03*
X694276Y366242D02*
D03*
X687664Y369492D02*
D03*
X719414Y409242D02*
D03*
X701760Y492123D02*
D03*
X712319Y515395D02*
D03*
X719359Y759047D02*
D03*
X669248Y542677D02*
D03*
X714414Y767993D02*
D03*
X593414Y459742D02*
D03*
X831808Y353953D02*
D03*
X792315Y369744D02*
D03*
X801800Y421480D02*
D03*
Y414979D02*
D03*
X881800Y460560D02*
D03*
X857800D02*
D03*
X889800D02*
D03*
X1133414Y467367D02*
D03*
X615414Y392242D02*
D03*
X619414D02*
D03*
X674161Y382979D02*
D03*
X674664Y399400D02*
D03*
X946914Y686992D02*
D03*
X909414Y750353D02*
D03*
X869414Y758992D02*
D03*
X646414Y465742D02*
D03*
X686414Y468428D02*
D03*
X1068909Y393590D02*
D03*
X880172Y389551D02*
D03*
X881800Y380380D02*
D03*
Y440980D02*
D03*
X593414Y425930D02*
D03*
X589414Y426742D02*
D03*
Y468742D02*
D03*
X595104Y448968D02*
D03*
X592970Y449742D02*
D03*
X622414Y473742D02*
D03*
X642324Y477694D02*
D03*
X593302Y473630D02*
D03*
Y469566D02*
D03*
X844414Y766992D02*
D03*
X859414Y758992D02*
D03*
X725474Y357552D02*
D03*
X867754Y431631D02*
D03*
X887600Y456180D02*
D03*
X871432D02*
D03*
X944414Y442993D02*
D03*
X320414Y437992D02*
D03*
X222208Y381177D02*
D03*
X350098Y393991D02*
D03*
X490432Y412252D02*
D03*
X231945Y369744D02*
D03*
X353914Y312542D02*
D03*
X557488Y183562D02*
D03*
X301094Y408492D02*
D03*
X650414Y332772D02*
D03*
X626040Y363868D02*
D03*
X624040Y365868D02*
D03*
X632414Y366242D02*
D03*
X627809Y379242D02*
D03*
Y405242D02*
D03*
X633019Y379242D02*
D03*
X634164Y408492D02*
D03*
Y416492D02*
D03*
X631462Y431790D02*
D03*
X637414Y432742D02*
D03*
X622414Y469242D02*
D03*
X634388Y349550D02*
D03*
X857800Y473480D02*
D03*
X832575Y380668D02*
D03*
X701664Y367492D02*
D03*
X699414Y365242D02*
D03*
X687664Y386492D02*
D03*
X641414Y379242D02*
D03*
X598973Y386000D02*
D03*
X568203Y404626D02*
D03*
X625052Y348854D02*
D03*
X873800Y473480D02*
D03*
X865800Y467820D02*
D03*
X862625Y460479D02*
D03*
X858340Y440440D02*
D03*
X879410Y423491D02*
D03*
X865707Y434387D02*
D03*
X865800Y440980D02*
D03*
Y427980D02*
D03*
X868975Y421480D02*
D03*
X857800Y434479D02*
D03*
X835472Y410141D02*
D03*
X700866Y412392D02*
D03*
X367918Y274494D02*
D03*
X387625Y239696D02*
D03*
X374516Y386254D02*
D03*
X647164Y455492D02*
D03*
X674664Y369492D02*
D03*
X721764Y377242D02*
D03*
X1142315Y516011D02*
D03*
X1035008Y475591D02*
D03*
X889800Y434479D02*
D03*
X817800Y393380D02*
D03*
X589664Y244442D02*
D03*
X637414Y378242D02*
D03*
X628929Y342028D02*
D03*
X634414Y339453D02*
D03*
X496914Y400992D02*
D03*
Y415992D02*
D03*
X495347Y434425D02*
D03*
X491914Y430992D02*
D03*
X650945Y366242D02*
D03*
X645735Y364478D02*
D03*
X693414Y421462D02*
D03*
X687664Y425492D02*
D03*
X689634Y405242D02*
D03*
X686880Y399492D02*
D03*
X693414Y405242D02*
D03*
X687664Y408492D02*
D03*
X593414Y454992D02*
D03*
X857043Y390423D02*
D03*
X836126Y391334D02*
D03*
X855229Y394128D02*
D03*
X824442Y422322D02*
D03*
X809800Y414979D02*
D03*
X889800Y393380D02*
D03*
X896832Y402677D02*
D03*
X889800Y367380D02*
D03*
X873800Y373880D02*
D03*
X889800Y386880D02*
D03*
X881800Y399880D02*
D03*
X873800D02*
D03*
X978445Y473492D02*
D03*
X1221952Y465802D02*
D03*
X834414Y784112D02*
D03*
X754414Y416302D02*
D03*
X751239Y413541D02*
D03*
X766784Y522677D02*
D03*
X569414Y758992D02*
D03*
X919414Y758992D02*
D03*
X274414Y316415D02*
D03*
X542248Y493492D02*
D03*
X1174208Y475416D02*
D03*
X1164555Y467781D02*
D03*
X1160414Y479617D02*
D03*
X650414Y465742D02*
D03*
X1109857Y461946D02*
D03*
X611844Y524176D02*
D03*
X381974Y767000D02*
D03*
X661664Y429492D02*
D03*
Y421492D02*
D03*
X914414Y767993D02*
D03*
X674664Y442492D02*
D03*
X676414Y432742D02*
D03*
X1174414Y616778D02*
D03*
Y616886D02*
D03*
X996159Y509698D02*
D03*
X807089Y618620D02*
D03*
X813865Y604186D02*
D03*
X724112Y553492D02*
D03*
X955362Y503492D02*
D03*
X809800Y440980D02*
D03*
X711414Y401242D02*
D03*
X703414Y377242D02*
D03*
X674664Y386492D02*
D03*
X676414Y379242D02*
D03*
X657582Y423492D02*
D03*
X709664Y359492D02*
D03*
X634164Y382492D02*
D03*
X754414Y767993D02*
D03*
X904414D02*
D03*
X619414Y405242D02*
D03*
X1037548Y363492D02*
D03*
X1084414Y321484D02*
D03*
X1034414Y360242D02*
D03*
X594414Y561461D02*
D03*
Y560498D02*
D03*
X314414Y400242D02*
D03*
X547328Y294053D02*
D03*
X506914Y370992D02*
D03*
X881800Y386880D02*
D03*
X879014Y352180D02*
D03*
X811488Y551608D02*
D03*
X1109682Y497506D02*
D03*
X1127972Y376348D02*
D03*
X348954Y772080D02*
D03*
X429414Y767992D02*
D03*
X602700Y451532D02*
D03*
X1117050Y243506D02*
D03*
X1049994Y243492D02*
D03*
Y243506D02*
D03*
X809710Y447468D02*
D03*
X707414Y403018D02*
D03*
X705664Y371492D02*
D03*
X699414Y361242D02*
D03*
X889414Y758992D02*
D03*
X434816Y388354D02*
D03*
X434806Y383597D02*
D03*
X515367Y333368D02*
D03*
X515324Y333422D02*
D03*
X644414Y767993D02*
D03*
X649414Y758992D02*
D03*
X618414Y345242D02*
D03*
X742400Y616632D02*
D03*
X678414Y462228D02*
D03*
Y461742D02*
D03*
X678392Y461692D02*
D03*
X320414Y420544D02*
D03*
X321776Y304212D02*
D03*
X764414Y493272D02*
D03*
X894414Y767993D02*
D03*
X1151414Y343607D02*
D03*
X642414Y469742D02*
D03*
X809710Y460422D02*
D03*
X704808Y407492D02*
D03*
X344636Y493492D02*
D03*
X650414Y432742D02*
D03*
X1008225Y674467D02*
D03*
X1258020Y166036D02*
D03*
X1004764Y625992D02*
D03*
X607164Y431492D02*
D03*
X817800Y427980D02*
D03*
X697664Y460492D02*
D03*
X833800Y354380D02*
D03*
X335414Y370242D02*
D03*
X473599Y451024D02*
D03*
X1348343Y686736D02*
D03*
X1398914Y682992D02*
D03*
X1370414Y659492D02*
D03*
X1360914Y671492D02*
D03*
X1306914Y676992D02*
D03*
X1251414Y786992D02*
D03*
X1217414D02*
D03*
X1238208Y749164D02*
D03*
X1213824Y702440D02*
D03*
X1398914Y623992D02*
D03*
X1246336Y647421D02*
D03*
X1334821Y629840D02*
D03*
X1293599Y581072D02*
D03*
X1246336Y607421D02*
D03*
X1221952Y573742D02*
D03*
X1181312Y576993D02*
D03*
X1090414Y788992D02*
D03*
X1158414D02*
D03*
X999414Y792992D02*
D03*
X1014414Y629492D02*
D03*
X1011914Y633142D02*
D03*
X1008225Y683492D02*
D03*
X984414Y780050D02*
D03*
X974414Y767992D02*
D03*
X979414Y758992D02*
D03*
X989414Y746935D02*
D03*
X1140672Y605771D02*
D03*
X1075648D02*
D03*
X1174414Y586716D02*
D03*
X1108160Y572677D02*
D03*
X1059392Y565912D02*
D03*
X1016914Y613842D02*
D03*
X995364Y620992D02*
D03*
X1002496Y565961D02*
D03*
X1205696Y511471D02*
D03*
X1357914Y480992D02*
D03*
X1187414Y467367D02*
D03*
X1059392Y525591D02*
D03*
X1148800Y465802D02*
D03*
X1075648D02*
D03*
X1019445Y503492D02*
D03*
X1181312Y452677D02*
D03*
X1224919Y420612D02*
D03*
X1081159Y438612D02*
D03*
Y420612D02*
D03*
X1004414Y442993D02*
D03*
X1068909Y429612D02*
D03*
X929344Y495591D02*
D03*
X914414Y524742D02*
D03*
X891190Y523492D02*
D03*
X880576Y478933D02*
D03*
X863914Y551492D02*
D03*
X881800Y453979D02*
D03*
X889800Y447480D02*
D03*
Y421480D02*
D03*
X865800Y453979D02*
D03*
X857800Y447480D02*
D03*
X873800Y421480D02*
D03*
Y434479D02*
D03*
X837151Y618620D02*
D03*
X804914Y575492D02*
D03*
X848064Y512677D02*
D03*
X769414Y792992D02*
D03*
X759414Y758992D02*
D03*
X774414Y588461D02*
D03*
X750528Y573092D02*
D03*
X842315Y475408D02*
D03*
X833800Y473480D02*
D03*
X848064Y462677D02*
D03*
X833800Y460479D02*
D03*
X817800Y473480D02*
D03*
X797101Y467280D02*
D03*
X801800Y460479D02*
D03*
X734414Y767992D02*
D03*
X714414Y576778D02*
D03*
X706914Y686992D02*
D03*
X684414Y767992D02*
D03*
X703414Y476265D02*
D03*
X715414Y473742D02*
D03*
X825800Y453979D02*
D03*
X844828Y439942D02*
D03*
X833800Y447480D02*
D03*
X809800Y453979D02*
D03*
X754414Y446778D02*
D03*
X817800Y434479D02*
D03*
Y421480D02*
D03*
X807424Y419134D02*
D03*
X715414Y454742D02*
D03*
X701664Y451492D02*
D03*
X693414Y445742D02*
D03*
X701664Y427492D02*
D03*
Y439492D02*
D03*
X699414Y429742D02*
D03*
X719414Y425742D02*
D03*
X684414Y432742D02*
D03*
X1390914Y415992D02*
D03*
X1224919Y402612D02*
D03*
X1081159D02*
D03*
X1120243Y391620D02*
D03*
X1133585D02*
D03*
X1068909Y411612D02*
D03*
X1041164Y403492D02*
D03*
X921216Y418338D02*
D03*
Y388646D02*
D03*
X1088585Y386000D02*
D03*
X1212669Y375612D02*
D03*
X1284414Y362992D02*
D03*
X1182702Y369744D02*
D03*
X978112Y382677D02*
D03*
X944414Y383992D02*
D03*
X1081159Y366612D02*
D03*
X1068909Y375612D02*
D03*
X879600Y417179D02*
D03*
X888704Y401023D02*
D03*
X865800Y399880D02*
D03*
X848064Y405591D02*
D03*
X1187414Y343607D02*
D03*
X1156513Y329104D02*
D03*
X1198914Y320242D02*
D03*
X1073599Y329104D02*
D03*
X1043586Y359245D02*
D03*
X937472Y355961D02*
D03*
X1017664Y347992D02*
D03*
X986240Y335591D02*
D03*
X961856Y302677D02*
D03*
X1390914Y265992D02*
D03*
X1194414Y282992D02*
D03*
X1154414Y270206D02*
D03*
X1290914Y165992D02*
D03*
X1058664Y250492D02*
D03*
X1134414Y90492D02*
D03*
X940914Y95992D02*
D03*
X889800Y354380D02*
D03*
X881800Y360880D02*
D03*
X873800Y341380D02*
D03*
X863600Y358680D02*
D03*
X929344Y315961D02*
D03*
X890056Y329104D02*
D03*
X896832Y312677D02*
D03*
X874414Y276778D02*
D03*
X848064Y305961D02*
D03*
X872448Y217134D02*
D03*
X831808Y413390D02*
D03*
X828000Y397680D02*
D03*
X833800Y380380D02*
D03*
X817800D02*
D03*
X722815Y418512D02*
D03*
X701664Y403492D02*
D03*
X687664Y416492D02*
D03*
X689414Y392242D02*
D03*
X801800Y368278D02*
D03*
X828000Y358680D02*
D03*
X801800Y354380D02*
D03*
X833914Y178492D02*
D03*
X790914Y95992D02*
D03*
X789383Y293492D02*
D03*
X769445Y273492D02*
D03*
X718016Y305591D02*
D03*
X764414Y222992D02*
D03*
X726144Y195591D02*
D03*
X703733Y352923D02*
D03*
X687664Y373492D02*
D03*
X692664Y331492D02*
D03*
X704414Y230206D02*
D03*
X681664Y331492D02*
D03*
X683414Y138492D02*
D03*
X674414Y767992D02*
D03*
X669414Y758992D02*
D03*
X679414D02*
D03*
X669248Y666868D02*
D03*
X648672Y556688D02*
D03*
X647164Y459492D02*
D03*
X624414Y767992D02*
D03*
X612352Y639936D02*
D03*
X609414Y758992D02*
D03*
X634164Y451492D02*
D03*
X680414Y445742D02*
D03*
X671414Y432742D02*
D03*
X667414D02*
D03*
X658414D02*
D03*
X647164Y442492D02*
D03*
X645414Y432742D02*
D03*
X680414Y419742D02*
D03*
X667414D02*
D03*
X661664Y412492D02*
D03*
Y416492D02*
D03*
X624414Y432742D02*
D03*
X619414Y419742D02*
D03*
X621164Y416492D02*
D03*
X564414Y767992D02*
D03*
X554414Y783992D02*
D03*
X494414Y792992D02*
D03*
X469414Y767992D02*
D03*
X399414D02*
D03*
X579414Y758992D02*
D03*
X572315Y637968D02*
D03*
X547328Y545591D02*
D03*
X506914Y686992D02*
D03*
X506688Y542677D02*
D03*
X414414Y758992D02*
D03*
X464414D02*
D03*
X469445Y513492D02*
D03*
X369414Y767992D02*
D03*
X329414Y783992D02*
D03*
X339414Y767992D02*
D03*
X384414Y758992D02*
D03*
X354414D02*
D03*
X257414Y778492D02*
D03*
X236414Y779492D02*
D03*
X207414Y778492D02*
D03*
X86914Y721992D02*
D03*
X282414Y683492D02*
D03*
X327872Y537135D02*
D03*
X201414Y550492D02*
D03*
X363664Y504742D02*
D03*
X86914Y624992D02*
D03*
X84414Y560992D02*
D03*
X64414Y515992D02*
D03*
X44414Y560992D02*
D03*
Y525992D02*
D03*
X579840Y495591D02*
D03*
X475229Y475408D02*
D03*
X557664Y473492D02*
D03*
X571712Y452677D02*
D03*
X502335Y451024D02*
D03*
X599164Y439492D02*
D03*
X607164Y415492D02*
D03*
X501914Y444167D02*
D03*
X491914D02*
D03*
X501862Y441118D02*
D03*
X491956D02*
D03*
X476914Y420992D02*
D03*
X466914Y410992D02*
D03*
X429568Y475408D02*
D03*
X409152Y477134D02*
D03*
X435242Y451024D02*
D03*
X337414Y459192D02*
D03*
X367538Y445510D02*
D03*
X352256Y432677D02*
D03*
X254720Y457421D02*
D03*
X315229Y451024D02*
D03*
X296418Y445510D02*
D03*
X409152Y432677D02*
D03*
X335414Y430992D02*
D03*
X376640Y421098D02*
D03*
X164414Y431492D02*
D03*
X325414Y430992D02*
D03*
X147414Y428492D02*
D03*
X88414Y427992D02*
D03*
X155414Y423492D02*
D03*
X671414Y405242D02*
D03*
X663414D02*
D03*
X667414D02*
D03*
X658414D02*
D03*
X671414Y379242D02*
D03*
X641414Y405242D02*
D03*
Y392242D02*
D03*
X621164Y408492D02*
D03*
X624414Y405242D02*
D03*
X615414D02*
D03*
X634164Y386492D02*
D03*
X615414Y379242D02*
D03*
X676414Y366242D02*
D03*
X681164Y192492D02*
D03*
X661664Y356492D02*
D03*
X658414Y341242D02*
D03*
X658164Y282542D02*
D03*
X654414Y190206D02*
D03*
X641414Y366242D02*
D03*
X622414Y341242D02*
D03*
X624414Y285743D02*
D03*
X630914Y95992D02*
D03*
X611164Y407492D02*
D03*
X607164Y403492D02*
D03*
Y391492D02*
D03*
Y379492D02*
D03*
X605414Y353242D02*
D03*
X602315Y377872D02*
D03*
X571712Y375591D02*
D03*
X599164Y367492D02*
D03*
X501914Y380992D02*
D03*
X491956Y370760D02*
D03*
X422616Y391529D02*
D03*
X481796Y390826D02*
D03*
X484621Y369744D02*
D03*
X481914Y387817D02*
D03*
X412315Y369744D02*
D03*
X311616Y391413D02*
D03*
X254429Y385992D02*
D03*
X491914Y367817D02*
D03*
X368512Y362677D02*
D03*
X475229Y361616D02*
D03*
X273490Y363492D02*
D03*
X336000Y362677D02*
D03*
X88414Y363992D02*
D03*
X531072Y315591D02*
D03*
X515367Y342392D02*
D03*
X467638Y293492D02*
D03*
X525720Y259650D02*
D03*
X613914Y188492D02*
D03*
Y138492D02*
D03*
X571712Y224307D02*
D03*
X498560Y221393D02*
D03*
X466048Y233071D02*
D03*
X449792Y264968D02*
D03*
Y209564D02*
D03*
X441664Y323742D02*
D03*
X445139Y300928D02*
D03*
X417280Y285591D02*
D03*
X394414Y299192D02*
D03*
X212315Y304720D02*
D03*
X323586Y301620D02*
D03*
X447414Y100492D02*
D03*
X434414Y202992D02*
D03*
X360485Y239696D02*
D03*
X84414Y235992D02*
D03*
Y270992D02*
D03*
X64414Y280992D02*
D03*
X44414Y235992D02*
D03*
X317414Y101492D02*
D03*
X630414Y349242D02*
D03*
X644864Y292932D02*
D03*
X496914Y430992D02*
D03*
X498560Y252138D02*
D03*
X496914Y410992D02*
D03*
X664422Y741092D02*
D03*
Y353484D02*
D03*
X654414Y767992D02*
D03*
X659414Y758992D02*
D03*
X873800Y367380D02*
D03*
X825800Y374062D02*
D03*
X692616Y339518D02*
D03*
X858772Y329104D02*
D03*
X656040Y471344D02*
D03*
X315426Y430958D02*
D03*
X301202Y324278D02*
D03*
X1133414Y343607D02*
D03*
X1160414Y384546D02*
D03*
X439414Y767992D02*
D03*
X449414D02*
D03*
X394420Y758872D02*
D03*
X404414Y650580D02*
D03*
X809710Y467026D02*
D03*
X707414Y409368D02*
D03*
X825712Y467026D02*
D03*
X711412Y405306D02*
D03*
X814790Y454072D02*
D03*
X865800Y447480D02*
D03*
X703538Y361362D02*
D03*
X1076410Y614600D02*
D03*
X1151414Y467367D02*
D03*
X605414Y489632D02*
D03*
X349414Y688689D02*
D03*
X881338Y571674D02*
D03*
X571901Y561461D02*
D03*
Y561260D02*
D03*
X1006914Y613842D02*
D03*
X828000Y462679D02*
D03*
X878346Y468529D02*
D03*
X709380Y387492D02*
D03*
X959414Y758992D02*
D03*
X746159Y297961D02*
D03*
X739383Y270317D02*
D03*
X680414Y366242D02*
D03*
X611164Y387492D02*
D03*
X658164Y257142D02*
D03*
X501914Y375992D02*
D03*
X497290Y378492D02*
D03*
X166914Y433674D02*
D03*
X954414Y767993D02*
D03*
X389414Y780716D02*
D03*
X729414Y758992D02*
D03*
X821902Y427910D02*
D03*
X964414Y767993D02*
D03*
X701664Y391492D02*
D03*
X699414Y389242D02*
D03*
X687664Y395492D02*
D03*
X601414Y389242D02*
D03*
X610320Y659515D02*
D03*
X668664Y269842D02*
D03*
X491914Y375992D02*
D03*
X626414Y345242D02*
D03*
Y341167D02*
D03*
X1124416Y516596D02*
D03*
X504746Y369744D02*
D03*
X496914Y375992D02*
D03*
X669248Y640122D02*
D03*
X496914Y370992D02*
D03*
X403060Y369744D02*
D03*
X619414Y758992D02*
D03*
X599414Y769286D02*
D03*
X878625Y367380D02*
D03*
X557664Y482492D02*
D03*
X556694Y394128D02*
D03*
X1115414Y343582D02*
D03*
X644356Y465550D02*
D03*
X591164Y465492D02*
D03*
X444414Y758992D02*
D03*
X707414Y390318D02*
D03*
X881800Y427910D02*
D03*
X719540Y373300D02*
D03*
X1181312Y425298D02*
D03*
X611336Y395492D02*
D03*
X501914Y370992D02*
D03*
X642414Y345242D02*
D03*
X498560Y346595D02*
D03*
X604414Y767992D02*
D03*
X618414Y341242D02*
D03*
X881800Y347880D02*
D03*
X744414Y767992D02*
D03*
X646414Y473742D02*
D03*
X1169414Y343607D02*
D03*
X1178414Y355857D02*
D03*
X597112Y481504D02*
D03*
X381466Y780970D02*
D03*
X1196414Y484806D02*
D03*
X724414Y767992D02*
D03*
X881800Y466980D02*
D03*
X686414Y461742D02*
D03*
X849414Y758992D02*
D03*
X727664Y453492D02*
D03*
X171914Y440492D02*
D03*
X273490Y369992D02*
D03*
X580164Y282542D02*
D03*
X506914Y375992D02*
D03*
X505974Y361616D02*
D03*
X949414Y747641D02*
D03*
X361074Y198294D02*
D03*
X360328Y331752D02*
D03*
X818292Y414487D02*
D03*
X161914Y406492D02*
D03*
X181414Y423492D02*
D03*
X1224919Y456612D02*
D03*
X459414Y767993D02*
D03*
X879414Y758992D02*
D03*
X934414Y767993D02*
D03*
X899414Y758992D02*
D03*
X315414Y383992D02*
D03*
X340414Y437992D02*
D03*
X325414Y383992D02*
D03*
X347914Y428492D02*
D03*
Y418492D02*
D03*
X300914Y398492D02*
D03*
X865800Y473480D02*
D03*
X873800Y466980D02*
D03*
X817800D02*
D03*
X889800Y360880D02*
D03*
X833800Y466980D02*
D03*
X857800Y347880D02*
D03*
X889800Y440980D02*
D03*
Y373880D02*
D03*
X833800Y453979D02*
D03*
X817800Y440980D02*
D03*
X887600Y397680D02*
D03*
X833800Y440980D02*
D03*
X873800Y414979D02*
D03*
X833800Y427980D02*
D03*
X273490Y382992D02*
D03*
X1033163Y250492D02*
D03*
X1125665D02*
D03*
X1100164D02*
D03*
X577046Y329104D02*
D03*
X89390Y378492D02*
D03*
X1107398Y25320D02*
D03*
X935948Y284908D02*
D03*
X731478Y351492D02*
D03*
X1092158Y348662D02*
D03*
X1174414Y389810D02*
D03*
X352764Y247824D02*
D03*
X231860Y403272D02*
D03*
X824414Y216582D02*
D03*
X525818Y381682D02*
D03*
X668740Y244522D02*
D03*
X1254414Y490140D02*
D03*
X1097914Y313142D02*
D03*
X521420Y241332D02*
D03*
X907914Y113872D02*
D03*
X1106382Y356028D02*
D03*
X790914Y47164D02*
D03*
X1307042Y709992D02*
D03*
X1357842Y416226D02*
D03*
X317458Y52498D02*
D03*
X549868Y183562D02*
D03*
X38058Y475408D02*
D03*
X909532Y459152D02*
D03*
X466048Y201342D02*
D03*
X1101302Y25432D02*
D03*
X356066Y407336D02*
D03*
X361146Y447976D02*
D03*
X831808Y256460D02*
D03*
X228304Y768270D02*
D03*
X1257512Y661474D02*
D03*
X387562Y587168D02*
D03*
X84414Y534590D02*
D03*
X623528Y561006D02*
D03*
X866352Y566602D02*
D03*
X497544Y285924D02*
D03*
X694414Y597582D02*
D03*
X1238414Y778938D02*
D03*
X209000Y283492D02*
D03*
X490178Y70786D02*
D03*
X377214Y240392D02*
D03*
X171914Y406492D02*
D03*
X437336Y133492D02*
D03*
X174414Y396414D02*
D03*
X1194414Y223992D02*
D03*
X275929Y341959D02*
D03*
X88414Y393492D02*
D03*
X658076Y163492D02*
D03*
X419820Y496998D02*
D03*
X921470Y256206D02*
D03*
X656548Y503602D02*
D03*
X1097414Y465424D02*
D03*
X949272Y473492D02*
D03*
X704414Y272716D02*
D03*
X1086824Y483282D02*
D03*
X1137930Y293492D02*
D03*
X867904Y516048D02*
D03*
X1124414Y355774D02*
D03*
X1212554Y411612D02*
D03*
X1198584Y649144D02*
D03*
X814914Y193468D02*
D03*
X682202Y397430D02*
D03*
X511260Y293492D02*
D03*
X429414Y187118D02*
D03*
X453602Y370502D02*
D03*
X219668Y423846D02*
D03*
X431504Y233492D02*
D03*
X1004274Y253492D02*
D03*
X1251162Y389810D02*
D03*
X955914Y526870D02*
D03*
X809456Y250110D02*
D03*
X44408Y270938D02*
D03*
X1317456Y393492D02*
D03*
X1147784Y544496D02*
D03*
X528104Y350590D02*
D03*
X424414Y180028D02*
D03*
X464414Y184883D02*
D03*
X506434Y459152D02*
D03*
X604478Y163492D02*
D03*
X1134414Y722804D02*
D03*
X1021914Y633142D02*
D03*
X1114414Y687752D02*
D03*
X500338Y207692D02*
D03*
X603716Y617902D02*
D03*
X479002Y183492D02*
D03*
X237702Y323492D02*
D03*
X764414Y463724D02*
D03*
X904414Y259254D02*
D03*
X373592Y496236D02*
D03*
X364702Y287142D02*
D03*
X427623Y301926D02*
D03*
X404580Y274442D02*
D03*
X511260Y391588D02*
D03*
X351240Y471598D02*
D03*
X531914Y467534D02*
D03*
X235416Y376602D02*
D03*
X330414Y378634D02*
D03*
X366734Y299894D02*
D03*
X307044Y287142D02*
D03*
Y373300D02*
D03*
X225510Y363140D02*
D03*
X537422Y573492D02*
D03*
X579840Y511476D02*
D03*
X424414Y226292D02*
D03*
X508895Y383206D02*
D03*
X1116288Y612060D02*
D03*
X1088970Y668702D02*
D03*
X656548Y503492D02*
D03*
X1212808Y438612D02*
D03*
X1176994Y513492D02*
D03*
X1205414Y363492D02*
D03*
X268944Y376492D02*
D03*
X474414Y125317D02*
D03*
X418864Y499792D02*
D03*
X410770Y453995D02*
D03*
X1101414Y98726D02*
D03*
X1290914Y98799D02*
D03*
X757914Y95932D02*
D03*
X1371304Y201088D02*
D03*
X874414Y246716D02*
D03*
X439383Y513492D02*
D03*
X915671Y571461D02*
D03*
X136414Y583492D02*
D03*
X1154414Y303443D02*
D03*
X364448Y436546D02*
D03*
X299668Y423338D02*
D03*
X874414Y246554D02*
D03*
X654414Y220268D02*
D03*
X703284Y739822D02*
D03*
X698714Y619492D02*
D03*
X704414Y263444D02*
D03*
X174414Y396492D02*
D03*
X434414Y758992D02*
D03*
X819445Y293492D02*
D03*
X949383Y470317D02*
D03*
X1189948Y320214D02*
D03*
X1101278D02*
D03*
X1097914Y312340D02*
D03*
X1044170Y338992D02*
D03*
X1257978Y295322D02*
D03*
X422914Y191492D02*
D03*
X152612Y583492D02*
D03*
X338714Y206317D02*
D03*
X430914Y191492D02*
D03*
X340995Y406267D02*
D03*
X464914Y158492D02*
D03*
X108162Y398492D02*
D03*
X373684Y482012D02*
D03*
X380958Y209724D02*
D03*
X1357914Y200834D02*
D03*
X1258020Y100758D02*
D03*
X506960Y720010D02*
D03*
X640800Y686992D02*
D03*
X441664Y703500D02*
D03*
X282698Y716454D02*
D03*
X1390914Y560700D02*
D03*
X284414Y76882D02*
D03*
X1239732Y676992D02*
D03*
X973032Y719992D02*
D03*
X690838Y173910D02*
D03*
X754338D02*
D03*
X330414Y437992D02*
D03*
X205588Y325929D02*
D03*
X414414Y75866D02*
D03*
X938488Y33448D02*
D03*
X1121368Y25828D02*
D03*
X597914Y71548D02*
D03*
X588730Y218614D02*
D03*
X561298Y363492D02*
D03*
X1253194Y261540D02*
D03*
X1205414Y343607D02*
D03*
X1225000Y366612D02*
D03*
X1275670Y261461D02*
D03*
X521420Y250110D02*
D03*
X904414Y160486D02*
D03*
X764414Y163992D02*
D03*
X173414Y418492D02*
D03*
X147414D02*
D03*
X1075648Y434877D02*
D03*
X1068909Y447612D02*
D03*
X1142414Y355857D02*
D03*
X1139869Y369744D02*
D03*
X1148800Y668987D02*
D03*
X1004414Y383992D02*
D03*
X254720Y430281D02*
D03*
X1148800Y434877D02*
D03*
X1059392Y539358D02*
D03*
X277414Y483492D02*
D03*
X307414Y223492D02*
D03*
X340414Y390992D02*
D03*
X961413Y183492D02*
D03*
X872448Y190579D02*
D03*
X1221952Y605037D02*
D03*
X969414Y746934D02*
D03*
X483914Y158492D02*
D03*
X664414Y138492D02*
D03*
X1124416Y645232D02*
D03*
X401024Y368236D02*
D03*
X345414Y383992D02*
D03*
X409152Y450209D02*
D03*
X376640Y425232D02*
D03*
X335414Y383992D02*
D03*
X320414Y390992D02*
D03*
D102*
X844000Y640000D02*
D03*
X721318Y360672D02*
D03*
X590173Y519523D02*
D03*
X591760Y517935D02*
D03*
X590000Y522525D02*
D03*
X305266Y347780D02*
D03*
X621888Y498014D02*
D03*
X590000Y640000D02*
D03*
X733677Y543059D02*
D03*
X590000Y386000D02*
D03*
X436076Y494966D02*
D03*
X415248Y469385D02*
D03*
X701252Y542972D02*
D03*
X690076Y444166D02*
D03*
X1024340Y532812D02*
D03*
X265134Y332914D02*
D03*
X316188Y480234D02*
D03*
X717000Y259000D02*
D03*
X1225000Y513000D02*
D03*
X181706Y405420D02*
D03*
X759222Y484806D02*
D03*
X1273768Y742616D02*
D03*
X1194012Y747823D02*
D03*
X1352000Y640000D02*
D03*
X1361398Y605964D02*
D03*
X1323806Y588184D02*
D03*
X1225000Y640000D02*
D03*
X1051264Y788082D02*
D03*
X1170644Y713914D02*
D03*
X998940Y715184D02*
D03*
X918930Y645588D02*
D03*
X1342475Y513000D02*
D03*
X1248114Y488108D02*
D03*
X1164802Y491664D02*
D03*
X1083776Y549068D02*
D03*
X1098000Y513000D02*
D03*
X1374352Y448484D02*
D03*
X1157436Y422068D02*
D03*
X1038564Y436292D02*
D03*
X970492Y548306D02*
D03*
X957919Y463470D02*
D03*
X951569Y463328D02*
D03*
X844000Y519350D02*
D03*
Y516175D02*
D03*
X834348Y563546D02*
D03*
X802090Y788590D02*
D03*
X773896Y627554D02*
D03*
X760688Y484806D02*
D03*
X734018Y679624D02*
D03*
X991320Y412924D02*
D03*
X1225000Y386000D02*
D03*
X1098000Y384476D02*
D03*
X971000Y386000D02*
D03*
X1251162Y360346D02*
D03*
X1225000Y340280D02*
D03*
X1212046Y289734D02*
D03*
X1352000Y255825D02*
D03*
X1321520Y144954D02*
D03*
X1158706Y238172D02*
D03*
X1174708Y74850D02*
D03*
X1134576Y299640D02*
D03*
X972778Y71548D02*
D03*
X863558Y173910D02*
D03*
X806662Y266366D02*
D03*
X812250Y265350D02*
D03*
X817584Y111426D02*
D03*
X809075Y265350D02*
D03*
X743670Y163750D02*
D03*
X717000Y132000D02*
D03*
X692108Y281352D02*
D03*
X627338Y571674D02*
D03*
X524468Y760904D02*
D03*
X579840Y539343D02*
D03*
X504148Y649144D02*
D03*
X466302Y549322D02*
D03*
X343874Y768778D02*
D03*
X385022Y749220D02*
D03*
X295614Y788082D02*
D03*
X313902Y691562D02*
D03*
X234146Y559990D02*
D03*
X336000Y513000D02*
D03*
X86826Y673528D02*
D03*
X586317Y490902D02*
D03*
X603462Y425370D02*
D03*
X227796Y467026D02*
D03*
X119846Y445436D02*
D03*
X663406Y227504D02*
D03*
X666200Y101520D02*
D03*
X622258Y224710D02*
D03*
X209000Y386000D02*
D03*
X585174Y305482D02*
D03*
X496782Y276526D02*
D03*
X590000Y132000D02*
D03*
X531072Y214550D02*
D03*
X463000Y259000D02*
D03*
X480780Y176704D02*
D03*
X477478Y74088D02*
D03*
X122894Y339518D02*
D03*
X197062Y336597D02*
D03*
X430742Y255952D02*
D03*
X365210Y279066D02*
D03*
X342096Y225599D02*
D03*
X338032Y75358D02*
D03*
X75142Y178482D02*
D03*
D103*
X1202392Y450220D02*
D03*
X1205414Y466597D02*
D03*
X1088414Y356627D02*
D03*
X87644Y383492D02*
D03*
Y413492D02*
D03*
X696894Y407492D02*
D03*
Y399492D02*
D03*
Y395492D02*
D03*
Y383492D02*
D03*
Y375492D02*
D03*
X599934Y415492D02*
D03*
X708894D02*
D03*
X696894Y371492D02*
D03*
X609414Y440972D02*
D03*
X696894Y443492D02*
D03*
X708894Y427492D02*
D03*
X659894Y343492D02*
D03*
X708894Y439492D02*
D03*
X632934Y471492D02*
D03*
X599934Y451492D02*
D03*
X708894D02*
D03*
X589414Y436972D02*
D03*
X700894Y464492D02*
D03*
X699414Y467972D02*
D03*
X667894Y331492D02*
D03*
X640934D02*
D03*
X589414Y448972D02*
D03*
X707414Y465972D02*
D03*
X679894Y483492D02*
D03*
X628934Y331492D02*
D03*
Y483492D02*
D03*
X691894D02*
D03*
X601414Y472972D02*
D03*
X707414D02*
D03*
X597414D02*
D03*
X711414Y471012D02*
D03*
X707414Y463012D02*
D03*
X858414Y399463D02*
D03*
X845460Y425040D02*
D03*
X805384Y467992D02*
D03*
X887444D02*
D03*
X813384Y337992D02*
D03*
X879444D02*
D03*
X813384Y474492D02*
D03*
X879444D02*
D03*
X805384Y337992D02*
D03*
X887444D02*
D03*
X802414Y471522D02*
D03*
X890414D02*
D03*
X476914Y390992D02*
D03*
X466914Y400992D02*
D03*
X486914Y420992D02*
D03*
X471914Y390992D02*
D03*
X466914Y395992D02*
D03*
X486914Y415992D02*
D03*
X466914Y390992D02*
D03*
X491914D02*
D03*
X466914Y420993D02*
D03*
X476914Y380992D02*
D03*
X481914D02*
D03*
X456914Y400992D02*
D03*
Y410992D02*
D03*
X501914Y405992D02*
D03*
X481914Y425992D02*
D03*
X471914Y380992D02*
D03*
X456914Y395992D02*
D03*
Y415992D02*
D03*
X501914Y400992D02*
D03*
X476914Y425992D02*
D03*
X496914Y390993D02*
D03*
X466914Y380992D02*
D03*
X456914Y390992D02*
D03*
X491914Y385992D02*
D03*
X456914Y420992D02*
D03*
X501914Y395992D02*
D03*
X471914Y430992D02*
D03*
X506914Y415992D02*
D03*
X476914Y375992D02*
D03*
X481914D02*
D03*
X476914Y430992D02*
D03*
X481914D02*
D03*
X451914Y400992D02*
D03*
Y410992D02*
D03*
X471914Y375992D02*
D03*
X476914Y435992D02*
D03*
X506914Y410992D02*
D03*
X461914Y380992D02*
D03*
X456914Y385992D02*
D03*
Y425992D02*
D03*
X501914Y390992D02*
D03*
X466914Y430992D02*
D03*
X506914Y420992D02*
D03*
X451914Y395992D02*
D03*
Y415992D02*
D03*
X466914Y375992D02*
D03*
X471914Y435992D02*
D03*
X511914Y415992D02*
D03*
X451914Y390992D02*
D03*
Y420992D02*
D03*
X456914Y380992D02*
D03*
Y430992D02*
D03*
X506914Y425992D02*
D03*
X461914Y375992D02*
D03*
X466914Y435992D02*
D03*
X511914Y420992D02*
D03*
X476914Y370992D02*
D03*
X481914D02*
D03*
X446914Y400992D02*
D03*
Y410992D02*
D03*
X511914D02*
D03*
X481914Y440992D02*
D03*
X481914Y435992D02*
D03*
X451914Y385992D02*
D03*
Y425992D02*
D03*
X471914Y370992D02*
D03*
X446914Y395992D02*
D03*
Y415992D02*
D03*
X516914Y410992D02*
D03*
X476914Y440992D02*
D03*
X466914Y370992D02*
D03*
X446914Y390992D02*
D03*
Y420992D02*
D03*
X516914Y415992D02*
D03*
X471914Y440992D02*
D03*
X456914Y375992D02*
D03*
X461914Y430992D02*
D03*
X511914Y425992D02*
D03*
X501914Y430992D02*
D03*
X451914Y380992D02*
D03*
Y430992D02*
D03*
X461914Y370992D02*
D03*
X446914Y385992D02*
D03*
Y425992D02*
D03*
X466914Y440992D02*
D03*
X516914Y420992D02*
D03*
X451914Y375992D02*
D03*
Y435992D02*
D03*
X456914Y370992D02*
D03*
X446914Y380992D02*
D03*
Y430992D02*
D03*
X461914Y435992D02*
D03*
X516914Y425992D02*
D03*
Y380992D02*
D03*
X446914Y435992D02*
D03*
X516914Y430992D02*
D03*
X506914Y440992D02*
D03*
X456914Y435992D02*
D03*
X446914Y440992D02*
D03*
X516914Y435992D02*
D03*
X234584Y383242D02*
D03*
D104*
X1206819Y429612D02*
D03*
X1106414Y485467D02*
D03*
X1196414Y376794D02*
D03*
X244414Y761642D02*
D03*
X1023832Y679815D02*
D03*
X1039314Y615992D02*
D03*
X974274Y620992D02*
D03*
X130564Y550492D02*
D03*
D105*
X430914Y191492D02*
D03*
X422914D02*
D03*
Y198492D02*
D03*
X430914D02*
D03*
D106*
X672980Y504748D02*
X673476Y504252D01*
X672980Y504748D02*
Y506550D01*
X660110Y503180D02*
X661472Y501818D01*
Y499732D02*
Y501818D01*
X657403Y495664D02*
X661472Y499732D01*
X654705Y495664D02*
X657403D01*
X652078Y493037D02*
X654705Y495664D01*
X668732Y501272D02*
X671112Y503652D01*
X675896D01*
X668732Y496542D02*
Y501272D01*
X670333Y509024D02*
X676029D01*
X678276Y506777D01*
X668086Y511271D02*
X670333Y509024D01*
X635741Y454532D02*
X636345Y453928D01*
Y364161D02*
Y453928D01*
X626414Y345242D02*
Y348956D01*
X625481Y349889D02*
X626414Y348956D01*
X624623Y349889D02*
X625481D01*
X620290Y345556D02*
X624623Y349889D01*
X620290Y336930D02*
Y345556D01*
X657503Y477694D02*
X658947D01*
X653889Y481308D02*
X657503Y477694D01*
X659429Y479067D02*
X659547Y478949D01*
X659429Y479067D02*
Y480570D01*
X659547Y480688D02*
Y484310D01*
Y477445D02*
Y478949D01*
X659429Y480570D02*
X659547Y480688D01*
X658889Y474845D02*
X660604Y473130D01*
X659547Y484310D02*
X662414Y487177D01*
X658889Y474845D02*
Y476790D01*
X659193Y477094D02*
X659196D01*
X659547Y477445D01*
X658889Y476790D02*
X659193Y477094D01*
X655094Y482820D02*
X657672Y480242D01*
X655094Y482820D02*
Y485345D01*
X654860Y485580D02*
X655094Y485345D01*
X651907Y482958D02*
X652759Y483810D01*
X653389Y484440D02*
X654528Y485580D01*
X653389Y484074D02*
Y484440D01*
X653126Y483810D02*
X653389Y484074D01*
X652759Y483810D02*
X653126D01*
X654528Y485580D02*
X654860D01*
X655732Y466776D02*
X657304Y468348D01*
X660110D01*
X546806Y431080D02*
X556694D01*
X525431Y452456D02*
X546806Y431080D01*
X715906Y345242D02*
X720258Y340890D01*
X801735Y428044D02*
Y429871D01*
Y427144D02*
Y428044D01*
X801584Y430022D02*
X801735Y429871D01*
X795800Y420283D02*
X802742Y427225D01*
X675896Y503652D02*
X678276Y506032D01*
Y506777D01*
X668732Y490209D02*
X669534Y491011D01*
Y495740D01*
X702446Y520517D02*
X788335Y606406D01*
X790569D01*
X759698Y423924D02*
X761865D01*
X758166Y422392D02*
X759698Y423924D01*
X758166Y420695D02*
Y422392D01*
X755314Y417843D02*
X758166Y420695D01*
X761865Y423924D02*
X763065Y422724D01*
X765402D01*
X659705Y454798D02*
X659781Y454874D01*
X659705Y450369D02*
Y454798D01*
X656414Y447078D02*
X659705Y450369D01*
X656414Y436542D02*
Y447078D01*
Y436542D02*
X656509Y436447D01*
Y410068D02*
Y436447D01*
X652444Y406003D02*
X656509Y410068D01*
X668593Y487048D02*
X668732Y487187D01*
Y496542D02*
X669534Y495740D01*
X668732Y487187D02*
Y490209D01*
X668593Y478335D02*
Y487048D01*
X666414Y476156D02*
X668593Y478335D01*
X663804Y473542D02*
X664414D01*
X663392Y473130D02*
X663804Y473542D01*
X660604Y473130D02*
X663392D01*
X662414Y487177D02*
Y490141D01*
X614514Y419369D02*
Y433115D01*
X617853Y436454D01*
X620106D02*
X622264Y438612D01*
Y443664D01*
X629926Y451326D01*
X617853Y436454D02*
X620106D01*
X666414Y475492D02*
Y476156D01*
X870868Y441880D02*
X873309Y439439D01*
X848727Y441880D02*
X870868D01*
X865800Y437080D02*
Y440980D01*
Y437080D02*
X870670Y432209D01*
X801865Y428044D02*
X815700Y441880D01*
X801735Y428044D02*
X801865D01*
X803267Y419683D02*
X809355Y425771D01*
Y425806D01*
X749430Y390390D02*
X755314Y396274D01*
Y417843D01*
X765402Y422724D02*
X777221Y410905D01*
X794866D01*
X796250Y412290D01*
Y412662D01*
X793701Y415211D02*
X796250Y412662D01*
X785830Y415211D02*
X793701D01*
X783283Y417758D02*
X785830Y415211D01*
X783283Y417758D02*
Y418504D01*
X784462Y419683D01*
X803267D01*
X614514Y419369D02*
X614778Y419105D01*
X652422Y367704D02*
X653884Y366242D01*
X700314Y345242D02*
X715906D01*
X815700Y441880D02*
X848727D01*
X802742Y427225D02*
Y427422D01*
X809800Y434479D01*
X734414Y363492D02*
X735240Y364318D01*
Y367290D01*
X643748Y367704D02*
X652422D01*
X444414Y758992D02*
X459800Y743606D01*
Y718322D02*
Y743606D01*
X533200Y563860D02*
X533500D01*
X532966Y563626D02*
X533200Y563860D01*
X532966Y563294D02*
Y563626D01*
Y563294D02*
X534380Y561880D01*
X820180Y636016D02*
X903002Y718838D01*
X803970Y619806D02*
X819653D01*
X820180Y620333D01*
Y636016D01*
X790569Y606406D02*
X803970Y619806D01*
X668086Y512234D02*
X676369Y520517D01*
X668086Y511271D02*
Y512234D01*
X676369Y520517D02*
X702446D01*
X434414Y304758D02*
X450873D01*
X454121Y301510D01*
X470580D01*
D108*
X616383Y492608D02*
X620830D01*
X614414Y494577D02*
X616383Y492608D01*
X669698Y432031D02*
X670912Y430817D01*
X669698Y432031D02*
Y440783D01*
X669703Y440788D01*
Y449540D01*
X760782Y369468D02*
Y421308D01*
X789685Y340565D02*
Y341964D01*
Y340565D02*
X792550Y337700D01*
X786458Y343792D02*
X787857D01*
X789685Y341964D01*
X760782Y369468D02*
X786458Y343792D01*
X670912Y426384D02*
Y430817D01*
X669646Y425492D02*
X670020D01*
X670912Y426384D01*
X612744Y469822D02*
X614414Y471492D01*
X612744Y454645D02*
Y469822D01*
X606733Y448633D02*
X612744Y454645D01*
X605423Y448633D02*
X606733D01*
X603275Y446486D02*
X605423Y448633D01*
X584797Y446486D02*
X603275D01*
X567593Y463690D02*
X584797Y446486D01*
X563595Y463690D02*
X567593D01*
X561967Y462062D02*
X563595Y463690D01*
X561967Y461867D02*
Y462062D01*
X560340Y460240D02*
X561967Y461867D01*
X667532Y525382D02*
X677428Y535278D01*
Y544011D01*
X687324Y553907D01*
X676414Y373492D02*
Y379242D01*
D109*
X680613Y457401D02*
X683468Y454546D01*
X680414Y457401D02*
X680613D01*
X623722Y400488D02*
X624250Y399960D01*
X613526Y400488D02*
X623722D01*
X608723Y395684D02*
X613526Y400488D01*
X600837Y395684D02*
X608723D01*
X667532Y513990D02*
X695556Y542014D01*
X704936D01*
X774414Y611492D01*
X373396Y430384D02*
X374670Y431658D01*
X348098Y430384D02*
X373396D01*
X346824Y429110D02*
X348098Y430384D01*
X289960Y429110D02*
X346824D01*
X600050Y263670D02*
X601810D01*
X599060Y262680D02*
X600050Y263670D01*
X1140875Y277530D02*
X1194414Y223992D01*
X1060400Y277530D02*
X1140875D01*
D122*
X716709Y397699D02*
X719033Y400023D01*
X716593Y397699D02*
X716709D01*
X668569Y362653D02*
Y363215D01*
X660809Y370413D02*
X665714Y365509D01*
X666275D01*
X668569Y362653D02*
X669680Y361542D01*
X666275Y365509D02*
X668569Y363215D01*
X611291Y332651D02*
X619947Y323995D01*
X611291Y332651D02*
Y344017D01*
X707414Y390318D02*
X723350D01*
X738626Y416262D02*
X740191D01*
X731306Y408943D02*
X738626Y416262D01*
X741453Y419089D02*
X778976Y456612D01*
X741453Y417525D02*
Y419089D01*
X740191Y416262D02*
X741453Y417525D01*
X730044Y407238D02*
X731306Y408500D01*
X719033Y400023D02*
X719339D01*
X731306Y408500D02*
Y408943D01*
X720179Y400863D02*
X723227D01*
X729601Y407238D02*
X730044D01*
X719339Y400023D02*
X720179Y400863D01*
X723227D02*
X729601Y407238D01*
X778976Y456612D02*
X812250D01*
X730598Y395305D02*
Y398084D01*
X723350Y390318D02*
X725844Y392812D01*
X786571Y451278D02*
X809366D01*
X725844Y392812D02*
X728105D01*
X758744Y426229D02*
X761523D01*
X786571Y451278D01*
X730598Y398084D02*
X758744Y426229D01*
X728105Y392812D02*
X730598Y395305D01*
X826789Y451278D02*
X868384D01*
X824447Y451375D02*
X826693D01*
X821848Y451278D02*
X824350D01*
X826693Y451375D02*
X826789Y451278D01*
X824350D02*
X824447Y451375D01*
X809366Y451278D02*
X810675Y449969D01*
X820539D02*
X821848Y451278D01*
X810675Y449969D02*
X820539D01*
X854668Y353288D02*
Y355588D01*
X854150Y352770D02*
X854668Y353288D01*
X854150Y349848D02*
Y352770D01*
X848649Y344346D02*
X854150Y349848D01*
X818440Y344346D02*
X848649D01*
X784803Y338910D02*
X786564Y340671D01*
X778580Y338910D02*
X784803D01*
X822288Y350830D02*
X846818D01*
X669680Y351822D02*
Y361542D01*
X628952Y461688D02*
Y465538D01*
X632569Y389727D02*
Y402122D01*
X652414Y390492D02*
X652736Y390170D01*
Y387014D02*
Y390170D01*
X650414Y384692D02*
X652736Y387014D01*
X648404Y388935D02*
X648695Y388644D01*
X648404Y388935D02*
Y396033D01*
X649873Y397502D01*
X660809Y370413D02*
Y381847D01*
X661454Y382492D01*
X793320Y326250D02*
Y328518D01*
X798147Y333345D01*
X799933D01*
X802009Y335422D01*
Y339390D01*
X806915Y344296D01*
Y351558D01*
X812272Y356915D01*
X815068D01*
X817108Y354875D01*
X818243D01*
X822288Y350830D01*
X644487Y329337D02*
X644757D01*
X641888Y326738D02*
X644487Y329337D01*
X638732Y326738D02*
X641888D01*
X636731Y328739D02*
X638732Y326738D01*
X630954Y328739D02*
X636731D01*
X630332Y328117D02*
X630954Y328739D01*
X630332Y328117D02*
X630332D01*
X626210Y323995D02*
X630332Y328117D01*
X619947Y323995D02*
X626210D01*
X596135Y510115D02*
Y513088D01*
X594542Y514682D02*
X596135Y513088D01*
X594542Y514682D02*
Y517729D01*
X594316Y517955D02*
X594542Y517729D01*
X594316Y517955D02*
Y538656D01*
X599267Y515627D02*
Y546659D01*
Y507576D02*
X600145Y508454D01*
Y514749D01*
X599267Y515627D02*
X600145Y514749D01*
X599267Y502837D02*
Y507576D01*
X598063Y501633D02*
X599267Y502837D01*
X398484Y747442D02*
X599267Y546659D01*
X598063Y493248D02*
Y501633D01*
X618802Y371213D02*
Y386043D01*
X617444Y366087D02*
X627133Y356398D01*
X618802Y386043D02*
X622019Y389260D01*
X617444Y369855D02*
X618802Y371213D01*
X617444Y366087D02*
Y369855D01*
X630414Y375178D02*
Y387572D01*
X632569Y389727D01*
X631303Y403384D02*
X631307D01*
X630414Y404274D02*
Y418004D01*
Y404274D02*
X631303Y403384D01*
X631307D02*
X632569Y402122D01*
X630290Y356398D02*
X632414Y358522D01*
X627133Y356398D02*
X630290D01*
X622019Y389260D02*
Y393321D01*
X620330Y395010D02*
X622019Y393321D01*
X620330Y395010D02*
Y397875D01*
X541740Y508682D02*
X541740Y508682D01*
X541740Y507583D02*
Y508682D01*
Y507583D02*
X564517Y484806D01*
Y480234D02*
Y484806D01*
X545750Y509244D02*
Y510343D01*
Y509244D02*
X568393Y486601D01*
X543401Y512692D02*
X545750Y510343D01*
X542302Y512692D02*
X543401D01*
X404414Y650580D02*
X542302Y512692D01*
X568393Y486601D02*
X569288D01*
X570967Y484922D01*
X592709Y342168D02*
Y397631D01*
X581193Y409148D02*
X592709Y397631D01*
X581193Y409148D02*
Y413632D01*
X510671Y484154D02*
X581193Y413632D01*
X507826Y484154D02*
X510671D01*
X484330Y507650D02*
X507826Y484154D01*
X625124Y454170D02*
Y457860D01*
X628952Y461688D01*
X394420Y671724D02*
X588006Y478138D01*
X599267Y483659D02*
Y492044D01*
X597112Y481504D02*
X599267Y483659D01*
X598063Y493248D02*
X599267Y492044D01*
X725914Y416021D02*
X726217D01*
X730269Y420074D02*
Y476061D01*
X726217Y416021D02*
X730269Y420074D01*
X719414Y486917D02*
X730269Y476061D01*
X570967Y484027D02*
Y484922D01*
Y484027D02*
X582888Y472106D01*
X394420Y671724D02*
Y758872D01*
X582888Y472106D02*
X590762D01*
X593302Y469566D01*
X871432Y454326D02*
Y456180D01*
X868384Y451278D02*
X871432Y454326D01*
X624414Y369178D02*
X630414Y375178D01*
X812250Y456612D02*
X814790Y454072D01*
X398484Y747442D02*
Y763952D01*
X381466Y780970D02*
X398484Y763952D01*
M02*
