%FSTAX23Y23*%
%MOIN*%
%SFA1B1*%

%IPPOS*%
%ADD12C,0.007874*%
%ADD13C,0.003937*%
%ADD14C,0.005000*%
%ADD15C,0.010000*%
%ADD16C,0.006000*%
%ADD95C,0.055118*%
%ADD96C,0.112205*%
%ADD97C,0.089764*%
%ADD98C,0.031496*%
%ADD99R,0.055118X0.055118*%
%ADD100C,0.000394*%
%ADD101C,0.003937*%
%ADD102C,0.001969*%
%ADD103C,0.010000*%
%ADD104C,0.050000*%
%ADD105C,0.015748*%
%ADD106C,0.001575*%
%ADD108C,0.008000*%
%ADD109C,0.004000*%
%ADD122C,0.015000*%
%LNmain_board-1*%
%LPD*%
G54D12*
X03144Y01484D02*
X0315Y0149D01*
X03158D02*
X03202Y01533D01*
X0315Y0149D02*
X03158D01*
X03202Y01533D02*
Y01557D01*
X02792Y01226D02*
X02898Y01332D01*
X02732Y01226D02*
X02792D01*
X0271Y01218D02*
X02724D01*
X02732Y01226*
X0436Y0197D02*
X04426D01*
X04282Y01892D02*
X0436Y0197D01*
X0392Y01892D02*
X04282D01*
X03814Y01786D02*
X0392Y01892D01*
X03202Y01557D02*
X03245Y016D01*
G54D13*
X0252Y01842D02*
X02522Y01845D01*
X02519Y01855D02*
X02522Y01852D01*
Y01845D02*
Y01852D01*
X0252Y01809D02*
Y01842D01*
X02566Y01944D02*
X02572D01*
X02574Y01946*
X02564Y01938D02*
Y01942D01*
X0256Y01934D02*
X02564Y01938D01*
Y01942D02*
X02566Y01944D01*
X02574Y01946D02*
X02582D01*
X02825Y01559D02*
X02829Y01555D01*
X0282Y0155D02*
Y01556D01*
X02822Y01559*
X02829Y01555D02*
X02832D01*
X02808Y01538D02*
X0282Y0155D01*
X02822Y01559D02*
X02825D01*
X02808Y01535D02*
Y01538D01*
X02794Y0152D02*
X02808Y01535D01*
X02832Y01555D02*
X02851Y01574D01*
X028Y01552D02*
X0282Y01573D01*
Y01581*
X028Y01548D02*
Y01552D01*
X02841Y01589D02*
X02938D01*
X02822Y01583D02*
X02835D01*
X02841Y01589*
X02806Y01547D02*
Y01547D01*
X0278Y01562D02*
X02795Y01547D01*
Y01546D02*
X02798Y01543D01*
X028D02*
X028Y01543D01*
X02805Y01548D02*
X02806Y01547D01*
X028Y01543D02*
X02802D01*
X02795Y01546D02*
Y01547D01*
X02798Y01543D02*
X028D01*
X02802D02*
X02806Y01547D01*
X0282Y01587D02*
X0282Y01587D01*
X0282Y01581D02*
X02822Y01583D01*
X0282Y01587D02*
X02824D01*
X02786Y01587D02*
X0282D01*
X02824Y01587D02*
X02842Y01606D01*
X02629Y01425D02*
Y01427D01*
X02611Y01444D02*
X02629Y01427D01*
X02582Y01946D02*
X02583Y01945D01*
X02587*
X02606Y01926*
X02588Y01894D02*
X02621D01*
X02585Y01889D02*
X02589Y01885D01*
X02597Y0188D02*
Y01881D01*
Y0188D02*
X02606Y0187D01*
X02589Y01885D02*
X02593D01*
X02597Y01881*
X02549Y01894D02*
Y01919D01*
X0256Y0193*
Y01934*
X02603Y01813D02*
X02614D01*
X02619Y0181D02*
X02619Y0181D01*
X02597Y01807D02*
X02603Y01813D01*
X02618Y0181D02*
X02619D01*
X0261Y01797D02*
X0261Y01796D01*
X02619Y0181D02*
X02638D01*
X02614Y01813D02*
X02618Y0181D01*
X02562Y01818D02*
X02574Y01807D01*
Y01773D02*
Y01807D01*
X02499Y01754D02*
Y01755D01*
X02496Y01758D02*
X02499Y01755D01*
X02494Y01758D02*
X02496D01*
X02499Y01754D02*
X02501Y01751D01*
X02491Y01761D02*
X02494Y01758D01*
X02606Y0187D02*
X02624D01*
X02585Y01892D02*
X02588Y01894D01*
X02585Y01889D02*
Y01892D01*
X02639Y01875D02*
X02653Y01862D01*
X02624Y0187D02*
X02629Y01875D01*
X02639*
X0262Y01772D02*
X02637Y01789D01*
X02699*
X02727Y01817*
X02759*
X02774Y01832*
Y01834*
X02786Y01846*
X02804*
X02839Y01881*
X03208*
X03231Y01859*
X03397*
X03456Y018*
Y01787D02*
Y018D01*
Y01787D02*
X03501Y01741D01*
X03504*
X03512Y01733*
Y0173D02*
Y01733D01*
Y0173D02*
X0352Y01722D01*
X03123Y01372D02*
X03129Y01378D01*
X03122Y01372D02*
X03123D01*
X03116Y01366D02*
X03122Y01372D01*
X02998Y01366D02*
X03116D01*
X03123Y01385D02*
X03125Y01387D01*
X03129*
X02888Y01385D02*
X03123D01*
X03129Y01387D02*
X03172Y01429D01*
X0313Y01382D02*
X03132Y01381D01*
X03127Y01382D02*
X0313D01*
X03125Y01381D02*
X03127Y01382D01*
X03132Y01381D02*
X03203D01*
X02896D02*
X03125D01*
X02804Y01359D02*
X02848D01*
X03058Y0158D02*
X03172Y01693D01*
X03188*
X03003Y0158D02*
X03058D01*
X03138Y01695D02*
X0314Y01697D01*
X03092Y01648D02*
X03138Y01694D01*
X0314Y01697D02*
X03141D01*
X03138Y01694D02*
Y01695D01*
X03141Y01697D02*
X03149Y01705D01*
X02939Y01588D02*
X03035D01*
X03092Y01644D02*
Y01648D01*
X03035Y01588D02*
X03092Y01644D01*
X03149Y01705D02*
X03232D01*
X03032Y01606D02*
X03187Y01761D01*
X02828Y01623D02*
X03035D01*
X0325Y01838*
X02842Y01606D02*
X03032D01*
X02851Y01574D02*
X03021D01*
X02789Y0152D02*
X02794D01*
X02783Y01511D02*
X02792Y01502D01*
X03232Y01705D02*
X03283Y01757D01*
X0278Y01562D02*
Y01588D01*
X02825Y01633*
X02958*
X02961Y01631*
X0303*
X02785Y01586D02*
X02786Y01587D01*
X02593Y0185D02*
X02597Y01853D01*
X02617*
X02634Y01871*
X02653Y01854D02*
Y01862D01*
X02606Y01926D02*
X02641D01*
X0287Y01514D02*
X02871Y01515D01*
X02954*
X03162Y01552D02*
X03172D01*
X03211Y0159*
Y01599*
X03249Y01638*
X03329*
X03368Y01677*
X02866Y01508D02*
Y01511D01*
Y01508D02*
X02872Y01503D01*
X03087Y01513D02*
X0311D01*
X02974Y01505D02*
X03079D01*
X02971Y01503D02*
X02974Y01505D01*
X02839Y01513D02*
X02864D01*
X02866Y01511*
X02872Y01503D02*
X02971D01*
X03079Y01505D02*
X03087Y01513D01*
X0311D02*
X03235Y01638D01*
X02811Y01485D02*
X02839Y01513D01*
X02873Y0151D02*
X03077D01*
X03107Y0154*
X0315Y01542D02*
X03156D01*
X03159Y01545*
X03161Y01557D02*
X03245Y01641D01*
X03158Y0155D02*
X03159Y01549D01*
X0316Y01557D02*
X03161D01*
X03159Y01545D02*
Y01549D01*
X03158Y0155D02*
Y01554D01*
X0316Y01557*
X0333Y01633D02*
X03331D01*
X03373Y01675*
X03372Y0168D02*
Y01691D01*
X03329Y01632D02*
X0333Y01633D01*
X03372Y0168D02*
X03373Y01679D01*
Y01675D02*
Y01679D01*
X03266Y01632D02*
X03329D01*
X03372Y01691D02*
X03377Y01696D01*
X03384*
X03374Y01703D02*
X03387D01*
X03236Y01703D02*
X03374D01*
X03384Y01696D02*
X03406Y01674D01*
X03387Y01703D02*
X03412D01*
X03374D02*
X03374Y01703D01*
X03387D02*
X03387Y01703D01*
X03406Y01674D02*
X03454D01*
X03464Y01684*
X03227Y01499D02*
X03377Y01648D01*
Y01654*
X03227Y01491D02*
Y01499D01*
X02973Y01498D02*
X02976Y01501D01*
X0297Y01498D02*
X02973D01*
X02949Y01477D02*
X0297Y01498D01*
X02976Y01501D02*
X03081D01*
X02818Y01477D02*
X02949D01*
X02811Y0147D02*
X02818Y01477D01*
X02811Y0147D02*
Y0147D01*
X02847Y01454D02*
X03086D01*
X02832Y01469D02*
X02847Y01454D01*
X03086D02*
X03173Y01542D01*
X0314Y01478D02*
X03141Y01477D01*
X03147*
X03147Y01478*
X03152*
X03138D02*
X0314D01*
X03138Y01524D02*
X03139D01*
X03213Y01527D02*
X03238D01*
X03168Y01483D02*
X03213Y01527D01*
X03083Y01339D02*
X03086D01*
X02831Y01245D02*
X03042D01*
X03052Y01255*
X03233*
X03243Y01266*
X02546Y01838D02*
Y01855D01*
Y01838D02*
X02549Y01835D01*
X02543Y0181D02*
X02549Y01817D01*
Y01858D02*
Y01875D01*
X02546Y01855D02*
X02549Y01858D01*
X02546Y01879D02*
X02549Y01875D01*
X02546Y01879D02*
Y01891D01*
X02549Y01894*
X02549Y01817D02*
Y01835D01*
X0261Y01761D02*
X0262Y01752D01*
X02622*
X02631Y01746D02*
X02644Y01759D01*
X02622Y01752D02*
X02627Y01746D01*
X02631*
X02681Y01656D02*
Y01685D01*
Y01656D02*
X02683Y01654D01*
Y01578D02*
Y01654D01*
X0261Y01761D02*
Y01796D01*
X02644Y01929D02*
X02669D01*
X02641Y01926D02*
X02644Y01929D01*
X0239Y01784D02*
Y01804D01*
X02389Y01805D02*
X0239Y01804D01*
X02621Y01894D02*
X02623Y01896D01*
X02635Y01894D02*
X02636D01*
X02633Y01896D02*
X02635Y01894D01*
X02623Y01896D02*
X02633D01*
X02574Y01773D02*
X0258Y01767D01*
X02588*
X02648Y01759D02*
X02651Y01756D01*
Y01752D02*
Y01756D01*
X02644Y01759D02*
X02648D01*
X02807Y0149D02*
X0281Y01493D01*
X02801Y0149D02*
X02807D01*
X02792Y015D02*
X02801Y0149D01*
X02792Y015D02*
Y01502D01*
X02783Y01511D02*
X02783D01*
X0278Y01514D02*
X02783Y01511D01*
X0278Y01514D02*
Y01518D01*
X02783Y01521*
X02788*
X02789Y0152*
X02804Y01498D02*
X02855Y01548D01*
X02804Y01498D02*
X02804D01*
X02803Y01485D02*
X02811D01*
X0289Y01563D02*
X03059D01*
X0291Y01721D02*
X03096D01*
X03187Y01812*
X02638Y0181D02*
X02638Y0181D01*
X02597Y01775D02*
Y01807D01*
X02638Y0181D02*
X02658D01*
X02663Y01815*
X02832Y01416D02*
Y01427D01*
X02825Y01434D02*
X02832Y01427D01*
X02825Y01434D02*
Y01445D01*
X03081Y01501D02*
X03081Y01501D01*
X03108*
X03235Y01638D02*
Y01684D01*
X03175Y01542D02*
X03266Y01632D01*
X03173Y01542D02*
X03175D01*
X03062Y01548D02*
X03184Y01671D01*
X03196*
X02855Y01548D02*
X03062D01*
X03474Y01719D02*
X03501Y01691D01*
X03273Y01719D02*
X03474D01*
X0327Y01716D02*
X03273Y01719D01*
X03196Y01671D02*
X03225Y017D01*
X03233*
X02574Y01502D02*
Y01509D01*
Y01502D02*
X02589Y01488D01*
X02592*
X02614Y01467*
Y0146D02*
Y01467D01*
X02695Y01426D02*
X02697Y01428D01*
Y01455*
X02704Y01463*
X02709*
X02717Y0147*
X02724*
X02655Y01653D02*
Y0167D01*
X02659Y01675*
X02611Y01462D02*
X02614Y0146D01*
Y0145D02*
Y0146D01*
X02611Y01448D02*
X02614Y0145D01*
X02611Y01444D02*
Y01448D01*
X02683Y01406D02*
Y01497D01*
X02681Y015D02*
Y01576D01*
Y015D02*
X02683Y01497D01*
X02546Y0126D02*
X02597Y01312D01*
X03203Y01381D02*
X03206Y01384D01*
X03402*
X03413Y01394*
X03439Y01453D02*
X03458Y01471D01*
X03426Y01453D02*
X03439D01*
X03233Y01429D02*
X03233Y0143D01*
X03059Y01563D02*
X03079Y01582D01*
X03029Y01592D02*
X03083Y01646D01*
X03087*
X03004Y01592D02*
X03029D01*
X03157Y01483D02*
X03168D01*
X03152Y01478D02*
X03157Y01483D01*
X03132Y01483D02*
X03138Y01478D01*
X03122Y01483D02*
X03132D01*
X03057Y01419D02*
X03122Y01483D01*
X03173Y01478D02*
X03217Y01523D01*
X03243Y01556D02*
X033Y01613D01*
Y0162*
X03159Y01478D02*
X03173D01*
X0324Y01523D02*
X03243Y01525D01*
Y01556*
X03217Y01523D02*
X0324D01*
X0311Y01429D02*
X03159Y01478D01*
X02856Y01407D02*
X03143D01*
X03227Y01491*
X03078Y01429D02*
X0311D01*
X028Y01355D02*
X02804Y01359D01*
X02924Y01464D02*
X03077D01*
X03138Y01524*
X03136Y01529D02*
X03136D01*
X03108Y01501D02*
X03136Y01529D01*
X03136D02*
X0315Y01542D01*
X02875Y01359D02*
X02896Y01381D01*
X02867Y01364D02*
X02888Y01385D01*
X02651Y01752D02*
X02657Y01746D01*
X02658*
X02683Y01721*
Y01687D02*
Y01721D01*
X02681Y01685D02*
X02683Y01687D01*
X02681Y01576D02*
X02683Y01578D01*
Y01406D02*
X02707Y01382D01*
X02539Y01563D02*
X02561Y01585D01*
X02501Y01789D02*
X02503D01*
X02491Y01779D02*
X02501Y01789D01*
X02491Y01761D02*
Y01779D01*
X02501Y0172D02*
Y01751D01*
Y0172D02*
X02525Y01696D01*
X02527*
X02533Y0169*
X03119Y01172D02*
X03161Y01131D01*
X03533*
X02521Y01805D02*
Y01808D01*
X0252Y01809D02*
X02521Y01808D01*
X02519Y01804D02*
X02521Y01805D01*
X02518Y01804D02*
X02519D01*
X025Y01261D02*
Y01268D01*
X02565Y01703D02*
Y01731D01*
X0255Y01746D02*
X02565Y01731D01*
X0255Y01746D02*
Y01774D01*
X02639Y0184D02*
X02653Y01854D01*
X03418Y01486D02*
X03465Y01533D01*
X03418Y01413D02*
Y01486D01*
X03412Y01416D02*
X03413Y01415D01*
X03369Y01416D02*
X03412D01*
X03364Y01412D02*
X03369Y01416D01*
X03413Y01409D02*
X03418Y01413D01*
X03413Y01394D02*
Y01409D01*
X03458Y01471D02*
X03471D01*
X02565Y0162D02*
Y01685D01*
X02561Y01585D02*
Y01617D01*
X02565Y0162*
X026Y01612D02*
X02602D01*
X02609Y01619*
X02503Y01789D02*
X02518Y01804D01*
X02504Y02695D02*
X02665D01*
X02315Y02506D02*
X02504Y02695D01*
X01956Y02506D02*
X02315D01*
X01857Y02407D02*
X01956Y02506D01*
X02524Y01498D02*
Y01505D01*
X02517Y01492D02*
X02524Y01498D01*
X02517Y0149D02*
Y01492D01*
X02511Y01484D02*
X02517Y0149D01*
X02494Y01484D02*
X02511D01*
X02487Y01491D02*
X02494Y01484D01*
X02487Y01491D02*
Y01505D01*
X02505Y01523*
Y01531*
X02537Y01563*
X02539*
X02565Y01685D02*
X02571Y01692D01*
X02578*
X02609Y01619D02*
Y01661D01*
X02578Y01692D02*
X02609Y01661D01*
X02565Y01692D02*
X02571D01*
X02534Y01723D02*
X02565Y01692D01*
X02534Y01723D02*
Y0173D01*
X02509Y01754D02*
X02534Y0173D01*
X02509Y01754D02*
X02543Y01788D01*
Y0181*
X02669Y01929D02*
X02801Y02061D01*
X02938Y01589D02*
X02939Y01588D01*
X0288Y01692D02*
X0291Y01721D01*
X028Y01595D02*
X02828Y01623D01*
X02848Y01359D02*
X02853Y01364D01*
X02867*
X03172Y01429D02*
X03233D01*
X02855Y01359D02*
X02875D01*
X03369Y01841D02*
X03408D01*
X03412Y01703D02*
X03416Y01699D01*
X03283Y01757D02*
X03284D01*
X03369Y01841*
X03233Y017D02*
X03236Y01703D01*
X02498Y0126D02*
X025Y01261D01*
X02498Y0126D02*
X02546D01*
X02429Y01743D02*
X0243Y01742D01*
X02414Y01743D02*
X02429D01*
X02407Y0175D02*
X02414Y01743D01*
X02407Y0175D02*
Y01768D01*
X0239Y01784D02*
X02407Y01768D01*
X02673Y01895D02*
X02694D01*
X02656Y01896D02*
X02672D01*
X02637Y01893D02*
X02653D01*
X02694Y01895D02*
X02723Y01925D01*
X02672Y01896D02*
X02673Y01895D01*
X02653Y01893D02*
X02656Y01896D01*
X02897Y01747D02*
X03062D01*
X02877Y01692D02*
X0288D01*
X02871Y01698D02*
X02877Y01692D01*
X02785Y01611D02*
X02837Y01663D01*
X02841Y01661D02*
Y01685D01*
X02837Y01687D02*
X02897Y01747D01*
X02774Y01604D02*
X02784D01*
X02841Y01661*
Y01685D02*
X02855Y01698D01*
X02871*
X02837Y01663D02*
Y01687D01*
X03075Y01332D02*
X03083Y01339D01*
X03075Y01285D02*
Y01332D01*
X03049Y01259D02*
X03075Y01285D01*
X02636Y01894D02*
X02637Y01893D01*
X02633Y0184D02*
X02639D01*
X02723Y01925D02*
X02789D01*
X02738Y01852D02*
X02769D01*
X02588Y01767D02*
X02597Y01775D01*
X04284Y01914D02*
X04285Y01915D01*
X03066Y01914D02*
X04284D01*
X02663Y01815D02*
Y01819D01*
X02668Y01824*
X02672*
X02697Y01848*
X02735*
X02738Y01852*
X03688Y01557D02*
X03745Y01614D01*
X04076*
X04265Y01155D02*
X0448D01*
X04135Y01025D02*
X04265Y01155D01*
X04082Y01025D02*
X04135D01*
X04046Y0099D02*
X04082Y01025D01*
X03884Y0099D02*
X04046D01*
X0382Y01054D02*
X03884Y0099D01*
X03748Y01054D02*
X0382D01*
X03141Y01826D02*
X03175D01*
X03062Y01747D02*
X03141Y01826D01*
X03175D02*
X03187Y01838D01*
X0404Y01529D02*
X04047Y01522D01*
X04191*
X03245Y01641D02*
Y01662D01*
X03464Y01684D02*
X03471D01*
G54D14*
X02451Y01464D02*
X02477D01*
X02494Y0145D02*
X02508Y01436D01*
X02491Y0145D02*
X02494D01*
X02477Y01464D02*
X02491Y0145D01*
X02508Y01436D02*
X02523D01*
X02424Y0133D02*
D01*
X02423Y01331D02*
X02424Y0133D01*
X02417Y01346D02*
X0243Y01333D01*
X02304Y01062D02*
X0243Y01188D01*
Y01333*
X02417Y01346D02*
Y01358D01*
X024Y01331D02*
X02423D01*
X02383Y01348D02*
X024Y01331D01*
X02359Y01348D02*
X02383D01*
X02198Y01361D02*
X02202Y01357D01*
X02605Y01794D02*
Y01799D01*
Y01794D02*
X02605Y01794D01*
Y01759D02*
Y01794D01*
X02612Y01802D02*
X0262D01*
X02608Y01802D02*
X02612D01*
X02605Y01799D02*
X02608Y01802D01*
X02612D02*
X02612Y01802D01*
X02627Y01513D02*
Y01523D01*
X02668Y01564*
Y01649*
X02674Y01655*
Y01688*
X02673Y01689D02*
X02674Y01688D01*
X02673Y01689D02*
Y017D01*
X02644Y0173D02*
X02673Y017D01*
X02636Y0173D02*
X02644D01*
X0262Y01746D02*
X02636Y0173D01*
X02617Y01746D02*
X0262D01*
X02605Y01759D02*
X02617Y01746D01*
X0262Y01802D02*
X02627Y01794D01*
X02639*
X0241Y01366D02*
X02417Y01359D01*
X02421Y01355*
Y01349D02*
X02432Y01338D01*
X02421Y01349D02*
Y01355D01*
X02517Y01374D02*
X02528Y01386D01*
X02517Y01374D02*
Y01374D01*
X02448Y01461D02*
X02451Y01464D01*
X02523Y01436D02*
X02531Y01429D01*
Y01409D02*
Y01429D01*
X02528Y01406D02*
X02531Y01409D01*
X02528Y01386D02*
Y01406D01*
X02476Y01331D02*
Y01346D01*
X02444Y01299D02*
X02476Y01331D01*
X02444Y01284D02*
Y01299D01*
X02523Y01427D02*
X02525D01*
X02526Y01325D02*
Y01356D01*
X02509Y01413D02*
X02523Y01427D01*
X02086Y01361D02*
X02086Y01361D01*
X02198*
X02526Y01356D02*
X02529Y01359D01*
X01936Y01696D02*
Y01727D01*
X01918Y01744D02*
X01936Y01727D01*
X02461Y01338D02*
X02466Y01343D01*
X02432Y01338D02*
X02461D01*
X01916Y01767D02*
X01918Y01765D01*
Y01744D02*
Y01765D01*
G54D15*
X02466Y01865D02*
Y01868D01*
X02458Y01857D02*
X02466Y01865D01*
Y01868D02*
X02564Y01967D01*
X0258Y01424D02*
Y01435D01*
X02484Y01318D02*
X02484Y01318D01*
X02484Y01312D02*
Y01318D01*
Y01312D02*
X02484Y01312D01*
Y01318D02*
Y01348D01*
Y01311D02*
Y01312D01*
X02489Y01353D02*
Y01389D01*
X02484Y01311D02*
X02495Y013D01*
X02484Y01348D02*
X02489Y01353D01*
X02462Y01416D02*
X02489Y01389D01*
X01929Y00278D02*
X02491Y00839D01*
X02495Y01275D02*
Y013D01*
X01614Y01299D02*
X01617Y01302D01*
X0169*
X01728Y01352D02*
X01811Y01435D01*
X02669Y01915D02*
X02671Y01916D01*
X02599Y01915D02*
X02669D01*
X02671Y01916D02*
X02679D01*
X02919Y02156*
X02416Y01931D02*
X02428Y01943D01*
Y02047D02*
X02733Y02352D01*
X02428Y01943D02*
Y02047D01*
X02416Y01766D02*
Y01931D01*
X02388Y01874D02*
X02398Y01864D01*
X02327Y01874D02*
X02388D01*
X02324Y01871D02*
X02327Y01874D01*
X02145Y01876D02*
X02148Y01879D01*
X0215*
X02145Y01875D02*
Y01876D01*
X02082Y01812D02*
X02145Y01875D01*
X0215Y01879D02*
X02269Y01998D01*
X02378*
X02082Y01786D02*
Y01812D01*
X01703Y01783D02*
X02054D01*
X02063Y01774D02*
X02071D01*
X02054Y01783D02*
X02063Y01774D01*
X02038Y0175D02*
X02062D01*
X02071Y01774D02*
X02082Y01786D01*
X02062Y0175D02*
X02106Y01794D01*
X01994Y01707D02*
X02038Y0175D01*
X02106Y01794D02*
X02247D01*
X02819Y01334D02*
X02836Y01351D01*
X0277Y01334D02*
X02819D01*
X02763Y01341D02*
Y01342D01*
Y01341D02*
X0277Y01334D01*
X02836Y01351D02*
X03088D01*
X03377Y01517D02*
Y01523D01*
X0339Y01536*
Y01679*
X02623Y01939D02*
X02727Y02043D01*
Y02066*
X02882Y02205D02*
X02958D01*
X0338Y02627*
Y02629*
X03579Y02828*
X03381Y01688D02*
X0339Y01679D01*
X03323Y01371D02*
X03342Y01351D01*
X03172Y01371D02*
X03323D01*
X03342Y01351D02*
X03568D01*
X03135Y01355D02*
X03149Y01369D01*
X0317D02*
X03172Y01371D01*
X03568Y01351D02*
X03618Y01402D01*
X03149Y01369D02*
X0317D01*
X03088Y01351D02*
X03091Y01355D01*
X03135*
X02564Y02163D02*
X02791Y0239D01*
X02564Y01967D02*
Y02163D01*
X02791Y0239D02*
Y0283D01*
X0219Y02494D02*
X0269D01*
X01652Y01956D02*
X0219Y02494D01*
X02777Y01474D02*
Y01506D01*
X02655Y01821D02*
X02665Y01832D01*
X02655Y01817D02*
Y01821D01*
X02455Y01653D02*
Y0169D01*
X02448Y01631D02*
X02457Y0164D01*
X02456Y01817D02*
X02456D01*
X02451Y01836D02*
X02458Y01843D01*
Y01857*
X02466Y017D02*
Y01807D01*
X02455Y01653D02*
X02457Y01651D01*
X02455Y0169D02*
X02466Y017D01*
X02457Y0164D02*
Y01651D01*
X02451Y01822D02*
X02456Y01817D01*
X02451Y01822D02*
Y01836D01*
X02456Y01817D02*
X02466Y01807D01*
X02592Y01474D02*
X02595D01*
X02275Y01646D02*
X02403D01*
X02413Y01652D02*
X02414Y01653D01*
X02413Y01647D02*
Y01652D01*
Y01647D02*
X02414Y01646D01*
Y01653D02*
Y01715D01*
Y01545D02*
Y01646D01*
X02581Y01463D02*
X02592Y01474D01*
X02582Y01437D02*
Y01451D01*
X02581Y01452D02*
X02582Y01451D01*
X02581Y01452D02*
Y01463D01*
X02587Y01397D02*
X02597D01*
X0258Y01405D02*
X02587Y01397D01*
X0258Y01405D02*
Y01424D01*
Y01435D02*
X02582Y01437D01*
X02597Y01397D02*
X02608Y01386D01*
Y01334D02*
Y01386D01*
X02599Y01573D02*
Y01598D01*
Y01573D02*
X026Y01572D01*
X03203Y01391D02*
X03233Y01422D01*
X03203Y01391D02*
X03203D01*
X03233Y01422D02*
X03236D01*
X033Y01526D02*
X033Y01526D01*
Y01497D02*
Y01526D01*
X03236Y01422D02*
X03245Y01431D01*
Y01442*
X02745Y01359D02*
X02763Y01342D01*
X02745Y01359D02*
Y01359D01*
X0287Y01274D02*
X02913Y01317D01*
X0304*
X0231Y02058D02*
Y02064D01*
X02303Y02046D02*
Y0205D01*
X0231Y02058*
Y02064D02*
X02454Y02208D01*
X02397Y0212D02*
X02559Y02282D01*
X02397Y02011D02*
Y0212D01*
X02724Y01651D02*
X02746D01*
X03711Y01223D02*
Y01226D01*
X03714Y0123D02*
X03718D01*
X03562Y01074D02*
X03711Y01223D01*
X03718Y0123D02*
X0432Y01832D01*
X03711Y01226D02*
X03714Y0123D01*
X0243Y01438D02*
X02452Y01416D01*
X0243Y01438D02*
Y0162D01*
X02608Y01334D02*
X02617Y01325D01*
X02008Y01395D02*
X02031D01*
X01779Y01166D02*
X02008Y01395D01*
X02031D02*
X02153Y01517D01*
X02324Y01871D02*
X02324D01*
X02491Y00839D02*
Y0127D01*
X02495Y01275*
X02779Y02868D02*
X03548D01*
X03551Y02872*
X04681*
X02701Y0279D02*
X02779Y02868D01*
X02586Y02041D02*
Y02055D01*
X02689Y02158*
X02255Y02009D02*
X02267D01*
X02303Y02046*
X02133Y01887D02*
X02255Y02009D01*
X02588Y01609D02*
X02599Y01598D01*
X02588Y01609D02*
Y01667D01*
X01964Y01834D02*
X02338Y02208D01*
X01808Y03005D02*
Y03023D01*
X01808Y03023D02*
X01808Y03023D01*
X0226Y01808D02*
X02263Y01811D01*
X02264*
X0226Y01807D02*
Y01808D01*
X02264Y01811D02*
X02324Y01871D01*
X02247Y01794D02*
X0226Y01807D01*
X02387Y02D02*
X02397Y02011D01*
X0238Y02D02*
X02387D01*
X02378Y01998D02*
X0238Y02D01*
X04003Y02529D02*
X04319Y02845D01*
X04466*
X03245Y01442D02*
X033Y01497D01*
X02153Y01517D02*
Y01524D01*
X02275Y01646*
X01682Y01029D02*
X02229Y01576D01*
X02452Y01416D02*
X02462D01*
X02416Y01766D02*
X02438Y01745D01*
Y01738D02*
Y01745D01*
X02414Y01715D02*
X02438Y01738D01*
X04681Y02872D02*
X04875Y03066D01*
X02731Y01856D02*
X0286Y01985D01*
X02705Y01438D02*
Y01452D01*
X02707Y01454*
Y0141D02*
Y01436D01*
X02705Y01438D02*
X02707Y01436D01*
X0286Y01985D02*
X02895D01*
X02909Y01999*
X03817*
X02919Y02156D02*
X03128D01*
X03817Y01999D02*
X04237Y02419D01*
X02669Y01832D02*
X02693Y01856D01*
X02665Y01832D02*
X02669D01*
X02693Y01856D02*
X02731D01*
X03618Y01402D02*
Y01649D01*
X03674Y01705*
X03647Y01589D02*
X03685Y01627D01*
Y01812*
X03674Y01896D02*
X0368Y01902D01*
X03685Y01812D02*
X03737Y01864D01*
X03647Y01404D02*
Y01589D01*
X0368Y01902D02*
X04278D01*
X03674Y01705D02*
Y01896D01*
X01314Y014D02*
X01598Y01684D01*
X01604D02*
X01703Y01783D01*
X01598Y01684D02*
X01604D01*
X01107Y014D02*
X01314D01*
X02952Y01027D02*
X03502D01*
X02887Y00962D02*
X02952Y01027D01*
X03502D02*
X03515Y0104D01*
X03174Y01074D02*
X03562D01*
X04479Y01273D02*
X04671D01*
X04684Y0126*
X02707Y0141D02*
X02714Y01403D01*
X0108Y01245D02*
X0121D01*
X01554Y01589D02*
X01827D01*
X0121Y01245D02*
X01554Y01589D01*
X027Y01086D02*
Y01222D01*
X02709Y01295D02*
X02717Y01288D01*
Y01239D02*
Y01288D01*
X027Y01222D02*
X02717Y01239D01*
X027Y01086D02*
X02733Y01053D01*
X02709Y01338D02*
X02729Y01357D01*
X02733Y01053D02*
X03153D01*
X02709Y01295D02*
Y01338D01*
X02729Y01425D02*
X02777Y01474D01*
X02729Y01357D02*
Y01425D01*
X01994Y01125D02*
X02414Y01545D01*
X01958Y01125D02*
X01994D01*
X02715Y0166D02*
X02724Y01651D01*
X02707Y01592D02*
Y01608D01*
Y01592D02*
X02712Y01587D01*
Y01572D02*
Y01587D01*
X01965Y01707D02*
X01994D01*
X01964Y01684D02*
Y01706D01*
X01965Y01707*
X01963Y01683D02*
X01964Y01684D01*
X01921Y01683D02*
X01963D01*
X01827Y01589D02*
X01921Y01683D01*
X04343Y02428D02*
X04623D01*
X03921Y02006D02*
X04343Y02428D01*
X03004Y02179D02*
X03204Y02378D01*
X0285Y02179D02*
X03004D01*
X01621Y01834D02*
X01964D01*
X01451Y01664D02*
X01621Y01834D01*
X01237Y01664D02*
X01451D01*
X03143Y02171D02*
X03194D01*
X03128Y02156D02*
X03143Y02171D01*
X01682Y00744D02*
Y01029D01*
X01048Y00461D02*
X01399D01*
X01682Y00744*
X01003Y00416D02*
X01048Y00461D01*
X00997Y00416D02*
X01003D01*
X00765Y00185D02*
X00997Y00416D01*
X01417Y01166D02*
X01779D01*
X03153Y01053D02*
X03174Y01074D01*
X01469Y00791D02*
X01552D01*
X01453Y00806D02*
X01469Y00791D01*
X01432Y00806D02*
X01453D01*
X0141Y00785D02*
X01432Y00806D01*
X0141Y00776D02*
Y00785D01*
Y00776D02*
X01433Y00753D01*
X01665*
X01421Y0078D02*
X01664D01*
X01665Y00781*
X0243Y0162D02*
X02442Y01631D01*
X02448*
X00351Y0149D02*
Y01493D01*
X00377Y01519*
X02003Y01435D02*
X0207Y01502D01*
X01811Y01435D02*
X02003D01*
X02632Y00962D02*
X02887D01*
X03515Y0104D02*
X03595D01*
X03866Y01311*
X04028*
X04246Y01529*
X04538*
X04938Y01929*
X01696Y00753D02*
X01699Y00757D01*
X01859*
X02052Y0095*
X03913Y00206D02*
X05345Y01638D01*
X01249Y00206D02*
X03913D01*
X02701Y02475D02*
Y0279D01*
X02559Y02333D02*
X02701Y02475D01*
X02559Y02282D02*
Y02333D01*
X00822Y01116D02*
X01107Y014D01*
X0349Y01247D02*
X03647Y01404D01*
X03136Y01247D02*
X0349D01*
X02962Y01073D02*
X03136Y01247D01*
X02773Y01073D02*
X02962D01*
X03953Y00998D02*
X04332Y01376D01*
X04767*
X04925Y01534*
X04023Y02492D02*
X04172D01*
X04387Y02707*
X01778Y02049D02*
X02124Y02395D01*
X02339*
X02376Y02432*
X00926Y01482D02*
X00934Y0149D01*
X013*
X0343Y00958D02*
X03442Y0097D01*
X02915Y00958D02*
X0343D01*
X02824Y00867D02*
X02915Y00958D01*
X02576Y00867D02*
X02824D01*
X00425Y01568D02*
X00576D01*
X00754Y01747*
X01129*
X01279Y01897*
X01471*
X05082Y00527D02*
X05346Y0079D01*
X05082Y00526D02*
Y00527D01*
X04952Y00396D02*
X05082Y00526D01*
X00596Y01519D02*
X00676Y016D01*
X00377Y01519D02*
X00596D01*
G54D16*
X02611Y01943D02*
X02638Y01969D01*
X02642Y01974D02*
X02661Y01992D01*
X02638Y01969D02*
X0264D01*
X02642Y01972D02*
Y01974D01*
X0264Y01969D02*
X02642Y01972D01*
X02155Y01872D02*
Y01872D01*
X02091Y01808D02*
X02152Y01869D01*
X02153D02*
X02155Y01872D01*
Y01872D02*
X02194Y01911D01*
X02152Y01869D02*
X02153D01*
X02194Y01911D02*
X02347D01*
X02607Y01828D02*
X0262Y01816D01*
X0262Y01816D02*
Y01816D01*
X0262D02*
X0262D01*
X02661Y01996D02*
X02661Y01996D01*
Y02013*
X02661Y01992D02*
Y01996D01*
X02661Y02013D02*
X02766Y02119D01*
X02631Y01935D02*
X02771Y02074D01*
X02629Y01752D02*
X02648Y01772D01*
X02711*
X0273Y01791*
X02792*
X02877Y01876*
X02222Y01817D02*
X02257D01*
X0226Y0182*
X0259Y01828D02*
X02607D01*
X03283Y02078D02*
X03437D01*
X03571Y02212*
X03016Y02052D02*
X03778D01*
X01968Y01404D02*
X02028D01*
X01805Y01241D02*
X01968Y01404D01*
X01912Y0197D02*
X02015D01*
X01785Y01843D02*
X01912Y0197D01*
X01632Y01843D02*
X01785D01*
X0163Y01845D02*
X01632Y01843D01*
X0163Y01845D02*
Y02736D01*
X01729Y02836*
X01548Y02456D02*
X0163Y02538D01*
X02771Y02114D02*
X02773Y02116D01*
Y02122*
X02771Y02074D02*
Y02114D01*
Y02124D02*
Y02208D01*
Y02124D02*
X02773Y02122D01*
X02341Y02216D02*
X02347Y02211D01*
X02324Y02216D02*
X02333D01*
X02334Y02216*
X02347Y02204D02*
Y02211D01*
X02345Y02159D02*
Y02203D01*
X02334Y02216D02*
X02341D01*
X02345Y02203D02*
X02347Y02204D01*
X02347Y01911D02*
X0235Y01915D01*
X02297Y02057D02*
Y02111D01*
X02345Y02159*
X0232Y02212D02*
X02324Y02216D01*
X02302Y02212D02*
X0232D01*
X01789Y02848D02*
Y02988D01*
X01733Y02792D02*
X01789Y02848D01*
X01733Y02652D02*
Y02792D01*
Y02652D02*
X01736Y02649D01*
Y0253D02*
Y02649D01*
X01714Y02508D02*
X01736Y0253D01*
X01714Y02398D02*
Y02508D01*
X0226Y0182D02*
X02261D01*
X02325Y01885*
X02348*
X0237Y01907*
Y01978*
X02384Y01992*
X0279Y01969D02*
Y01975D01*
X02901Y02086*
X03232*
X02869Y02044D02*
X02888Y02064D01*
X03004*
X03778Y02052D02*
X04155Y02428D01*
X03004Y02064D02*
X03016Y02052D01*
X04155Y02428D02*
X04241D01*
X04246Y02423*
Y02411D02*
Y02423D01*
X04229Y02394D02*
X04246Y02411D01*
X04229Y02382D02*
Y02394D01*
Y02382D02*
X04232Y02379D01*
X04275*
X04476Y0258*
Y02587*
X04522Y02633*
X04426Y0254D02*
Y0268D01*
X04391Y02716D02*
X04426Y0268D01*
X0426Y02716D02*
X04391D01*
X04064Y0252D02*
X0426Y02716D01*
X03933Y0252D02*
X04064D01*
X03889Y02565D02*
X03933Y0252D01*
X03815Y02565D02*
X03889D01*
X03165Y02554D02*
X03174Y02563D01*
X02939Y02554D02*
X03165D01*
X02496Y02465D02*
X02648D01*
X02417Y02386D02*
X02496Y02465D01*
X02266Y02386D02*
X02417D01*
X02067Y02188D02*
X02266Y02386D01*
X01548Y01816D02*
Y02456D01*
X0171Y01241D02*
X01805D01*
X01363Y01626D02*
X01389D01*
X0136Y01623D02*
X01363Y01626D01*
X0136Y01536D02*
Y01623D01*
X0121Y01036D02*
X01433Y0126D01*
X0121Y00879D02*
Y01036D01*
G54D95*
X00765Y00185D03*
X00607D03*
X00844Y00314D03*
X00765D03*
X00607D03*
X00529D03*
X00844Y00185D03*
G54D96*
X00168Y0178D03*
Y01337D03*
G54D97*
X00326Y0178D03*
Y01337D03*
G54D98*
X04381Y01044D03*
X04117D03*
G54D99*
X00529Y00185D03*
G54D100*
X04232Y01762D03*
X02745Y01832D03*
X02697Y0176D03*
X02801Y01822D03*
X02503Y01849D03*
X02518Y01847D03*
X02655Y01932D03*
X02649Y01994D03*
X02626Y02012D03*
X02598Y01998D03*
X02567Y01941D03*
X02457Y01804D03*
X02438Y01782D03*
X02638Y01973D03*
X02476Y01832D03*
X02478Y01858D03*
X02824Y01549D03*
X02824Y01555D03*
X02824Y0158D03*
X02805Y01548D03*
X02505Y01433D03*
X0249Y01315D03*
X02485Y01461D03*
X02444Y01457D03*
X02619Y0143D03*
X0258Y01424D03*
X02629Y01425D03*
X02424Y0133D03*
X02359Y01348D03*
X02212Y0136D03*
X02202Y01357D03*
X02442Y01326D03*
X01961Y01405D03*
X0202Y01408D03*
X01484Y00761D03*
X01614Y01299D03*
X0169Y01302D03*
X01971Y01295D03*
X02805Y01547D03*
X02589Y01929D03*
X02734Y01941D03*
X02578Y01935D03*
X02726Y01946D03*
X02597Y01891D03*
X02594Y0188D03*
X0257Y01906D03*
X02568Y01926D03*
X02597Y01875D03*
X02555Y01922D03*
X02528Y01893D03*
X02418Y01947D03*
X02404Y01893D03*
X02151Y01873D03*
X02362Y01881D03*
X02678Y018D03*
X02695Y01784D03*
X0262Y01816D03*
X02618Y01807D03*
X0261Y01797D03*
X02562Y01818D03*
X02446Y0175D03*
X02589Y0189D03*
X02623Y01874D03*
Y01839D03*
X02598Y01843D03*
X02622Y01831D03*
X02481Y01809D03*
X02614Y01842D03*
X02607Y01934D03*
X02068Y01781D03*
X01875Y01811D03*
X02104Y01667D03*
X01966Y01659D03*
X0257Y01832D03*
X0256Y01837D03*
X0262Y01772D03*
X0352Y01722D03*
X04091Y0187D03*
X02562Y01807D03*
X03219Y01463D03*
X03245Y01404D03*
X0331Y01436D03*
X03215Y01364D03*
X03247Y01396D03*
X0339Y01378D03*
X03129Y01378D03*
X02998Y01366D03*
X02749Y01345D03*
X02772Y0134D03*
X02816Y01353D03*
X02793Y0132D03*
X02777Y01327D03*
X02852Y01336D03*
X02838Y01371D03*
X02835Y01342D03*
X03377Y01474D03*
X03155Y01693D03*
X03141Y01694D03*
X03164Y01675D03*
X03172Y01719D03*
X0291Y01647D03*
X0287Y01611D03*
X02853Y01562D03*
X02867Y01559D03*
X0324Y01733D03*
X03251Y01768D03*
X03238Y01729D03*
X028Y01543D03*
X0303Y01631D03*
X0338Y01785D03*
X02672Y01857D03*
X02593Y0185D03*
X02634Y01871D03*
X02568Y01856D03*
X02727Y02066D03*
X02882Y02205D03*
X03579Y02828D03*
X02631Y01935D03*
X02611Y01943D03*
X0367Y02907D03*
X0287Y01514D03*
X02954Y01515D03*
X03162Y01552D03*
X03368Y01677D03*
X02873Y0151D03*
X03435Y01678D03*
X03426Y01671D03*
X0341Y01659D03*
X03335Y01611D03*
X03255Y016D03*
X0297Y01505D03*
X02881Y01482D03*
X02863Y01483D03*
X02822Y01455D03*
X02801Y0143D03*
X02839Y01426D03*
X0298Y01451D03*
X03063Y01484D03*
X03142Y01499D03*
X03225Y0153D03*
X03144Y01484D03*
X03139Y01524D03*
X03222Y01355D03*
X03096Y01341D03*
X03065Y01334D03*
X03005Y01337D03*
X03333Y01381D03*
X03086Y01339D03*
X0312Y01329D03*
X02946Y01342D03*
X02831Y01245D03*
X03243Y01266D03*
X02549Y01854D03*
X02627Y01513D03*
X02639Y01794D03*
X02679Y02203D03*
X02629Y01752D03*
X02636Y0168D03*
X02621Y01975D03*
X02609Y01314D03*
X02607Y01929D03*
X02668Y01958D03*
X03571Y03069D03*
X02628Y02068D03*
X02554Y02068D03*
X02505Y01952D03*
X02578Y02059D03*
X02389Y01805D03*
X02628Y01884D03*
X02877Y01876D03*
X02584Y01777D03*
X02982Y01903D03*
X01955Y01902D03*
X02282Y03038D03*
X02222Y01817D03*
X03274Y01345D03*
X02533Y01623D03*
X03021Y01574D03*
X02841Y01545D03*
X03427Y01701D03*
X03054Y0152D03*
X02863Y0151D03*
X02886Y01499D03*
X02858Y01522D03*
X03012Y01713D03*
X031Y01852D03*
X0259Y01828D03*
X0267Y0185D03*
X03283Y02078D03*
X03571Y02212D03*
X0387Y02389D03*
X02647Y01935D03*
X03034Y0207D03*
X02458Y01824D03*
X02597Y0212D03*
X02752Y02744D03*
X02937Y02966D03*
X02978Y01446D03*
X02832Y01416D03*
X02825Y01445D03*
X03107Y0154D03*
X03245Y01571D03*
X0322Y01565D03*
X03178Y01549D03*
X03364Y01716D03*
X03195Y01674D03*
X03186Y01676D03*
X0295Y01536D03*
X0327Y01716D03*
X02574Y01509D03*
X02595Y01474D03*
X02724Y0147D03*
X02655Y01653D03*
X0245Y01649D03*
X0242Y0165D03*
X02469Y01903D03*
X02437Y01911D03*
X02445Y01928D03*
X02441Y0192D03*
X02572Y02614D03*
X02518Y02851D03*
X02695Y02812D03*
X02736Y02173D03*
X02633Y01557D03*
X0256Y01514D03*
X02594Y01458D03*
X02593Y0141D03*
X02706Y01886D03*
X02645Y01566D03*
X02553Y0153D03*
X02611Y01462D03*
X02998Y01311D03*
X03122Y01317D03*
X03487Y01504D03*
X03513Y01514D03*
X03794Y01278D03*
X01494Y01724D03*
X02479Y0177D03*
X02694Y0169D03*
X027Y01643D03*
X02617Y01325D03*
X0251Y01316D03*
X02801Y01273D03*
X02731Y01262D03*
X02764Y01301D03*
X02937Y01288D03*
X02892Y01311D03*
X03195Y01349D03*
X03203Y01391D03*
X03228Y01378D03*
X03442Y0143D03*
X03347Y01447D03*
X03426Y01453D03*
X033Y01526D03*
X03233Y0143D03*
X03217Y01423D03*
X0306Y01619D03*
X03079Y01582D03*
X03238Y01527D03*
X03057Y01419D03*
X03078Y01429D03*
X0287Y01274D03*
X0304Y01317D03*
X02924Y01464D03*
X03329Y01441D03*
X02945Y01397D03*
X03093Y01378D03*
X02406Y01354D03*
X02422Y01417D03*
X02191Y01982D03*
X02339Y0212D03*
X02394Y02271D03*
X02289Y03008D03*
X02487Y01285D03*
X0241Y01366D03*
X0265Y0166D03*
X02755Y01677D03*
X0254Y01931D03*
X02707Y01382D03*
X0271Y01383D03*
X03145Y0132D03*
X03717Y01224D03*
X02504Y01926D03*
X02733Y01352D03*
X03639Y01875D03*
X0241Y01508D03*
X02643Y01544D03*
X02696Y01696D03*
X02592Y01572D03*
X02557Y01585D03*
X02604Y01505D03*
X02597Y01312D03*
X02677Y01259D03*
X02676Y01272D03*
X03233Y01241D03*
X02533Y0169D03*
X03119Y01172D03*
X03533Y01131D03*
X03442Y01746D03*
X03438Y0173D03*
X02851Y01528D03*
X0289Y01563D03*
X02891Y01431D03*
X02193Y01431D03*
X02448Y01461D03*
X02444Y01284D03*
X02505Y01328D03*
X02534Y01447D03*
X02481Y01589D03*
X02473Y01608D03*
X02481Y01579D03*
X02365Y01557D03*
X02299Y01552D03*
X02489Y01411D03*
X02442Y01566D03*
X02525Y01427D03*
D03*
X02444Y0147D03*
X02518Y01807D03*
X02574Y01873D03*
X02649Y01942D03*
X02379Y01824D03*
X02706Y0218D03*
X02836Y02809D03*
X0208Y02056D03*
X02222Y0189D03*
X02135Y01814D03*
X02489Y01277D03*
X025Y01268D03*
X02312Y01409D03*
X02413Y01456D03*
X02565Y01703D03*
X0255Y01774D03*
X02646Y01864D03*
X02827Y02089D03*
X03533Y02874D03*
X02665Y01893D03*
X03501Y03005D03*
X03443Y03161D03*
X01906Y01998D03*
X02518Y02026D03*
X02586Y02041D03*
X02689Y02158D03*
X02725Y02207D03*
X02619Y02179D03*
X0259Y02176D03*
X02379Y02033D03*
X02297Y02048D03*
X02015Y0197D03*
X03415Y0148D03*
X03413Y01415D03*
X03364Y01412D03*
X03168Y01375D03*
X02093Y01509D03*
X02241Y0146D03*
X02572Y01612D03*
X02562Y0165D03*
X02442Y02866D03*
X02954Y02964D03*
X0291Y03058D03*
X02766Y02119D03*
X03496Y02932D03*
X02103Y02212D03*
Y02206D03*
X02261Y01915D03*
X02297Y02057D03*
X02302Y02212D03*
X01876Y02838D03*
X0235Y01881D03*
X01808Y03005D03*
X01714Y02398D03*
X02266Y01805D03*
X02384Y01992D03*
X0279Y01969D03*
X03232Y02086D03*
X0368Y02247D03*
X0235Y01915D03*
X02598Y01975D03*
X02665Y02695D03*
X01857Y02407D03*
X0149Y01868D03*
X02091Y01808D03*
X02869Y02044D03*
X03815Y02565D03*
X03174Y02563D03*
X02939Y02554D03*
X02648Y02465D03*
X02067Y02188D03*
X01548Y01816D03*
X01729Y02836D03*
X02524Y01505D03*
X02801Y02061D03*
X03506Y02925D03*
X028Y01604D03*
X02843Y01586D03*
X02941Y01724D03*
X02839Y01619D03*
X0321Y01802D03*
X03219Y01824D03*
X034Y01525D03*
X03238Y017D03*
X03317Y01627D03*
X03238Y01697D03*
X033Y0162D03*
X03087Y01646D03*
X03004Y01592D03*
X02694Y01521D03*
X02714Y01509D03*
X02646Y01329D03*
X02028Y01404D03*
X0171Y01241D03*
X01396Y01206D03*
X01852Y01187D03*
X01926Y01213D03*
X02Y01202D03*
X02101Y01213D03*
X0243Y01742D03*
X0235Y02028D03*
X03555Y0283D03*
X03554Y02865D03*
X03542Y02847D03*
X02857Y01691D03*
X02916Y01708D03*
X02911Y01697D03*
X03312Y01826D03*
X033Y01621D03*
X03049Y01259D03*
X0292Y01213D03*
X02607Y01887D03*
X02857Y01723D03*
X02883Y01708D03*
X02995Y01658D03*
X02769Y01852D03*
X02898Y01332D03*
X02794Y01698D03*
X02832Y01916D03*
X02812Y01961D03*
X02944Y02053D03*
X02789Y01925D03*
X02656Y02235D03*
X02653Y02132D03*
X02272Y01977D03*
X03142Y01588D03*
X03155Y01601D03*
X0315Y0162D03*
X03133Y01623D03*
X03125Y01667D03*
X03133Y01601D03*
X03133Y01559D03*
X02814Y01952D03*
X02986Y01794D03*
X04285Y01915D03*
X03066Y01914D03*
X02633Y0184D03*
X02398Y01495D03*
X0227Y01602D03*
X02592Y02859D03*
X02771Y02208D03*
X03556Y02828D03*
X03543Y02897D03*
X04169Y02096D03*
X03501Y01691D03*
X03694Y0167D03*
X0325Y01488D03*
X03319Y01485D03*
X03483Y01477D03*
X03503Y01744D03*
X02333Y0171D03*
X03167Y02999D03*
X03048Y02407D03*
X03072Y02837D03*
X04269Y02466D03*
X03927Y02587D03*
X02825Y01429D03*
X03666Y01718D03*
X03551Y01692D03*
X013Y01718D03*
X01088Y01622D03*
X01422Y01535D03*
X01379Y01624D03*
X01389Y01626D03*
X0136Y01536D03*
X0164Y01623D03*
X01198Y01627D03*
X0115Y01627D03*
X01057Y01507D03*
X00909Y01194D03*
X01119Y01411D03*
Y01419D03*
X01097Y01473D03*
X00874Y01581D03*
X00676Y01615D03*
X0086Y01625D03*
X00719Y01576D03*
X00768D03*
X00795Y01513D03*
X00637Y01575D03*
X02576Y01336D03*
X02482Y01422D03*
X02458Y01453D03*
X02481Y01645D03*
X02434Y0184D03*
X02466Y01984D03*
X02534Y01272D03*
X02509Y01413D03*
X02512Y01335D03*
X0268Y02839D03*
X0296Y02147D03*
X03009Y01984D03*
X03083Y01956D03*
X03324Y01945D03*
X03688Y01557D03*
X04076Y01614D03*
X04279Y01599D03*
X04479Y01273D03*
X03748Y01054D03*
X03581Y01106D03*
X02714Y01403D03*
X02679Y01243D03*
X02592Y01505D03*
X03275Y01794D03*
X03173Y01823D03*
X03311Y01675D03*
X03188Y01693D03*
X03003Y0158D03*
X02715Y01652D03*
X0404Y01529D03*
X04191Y01522D03*
X01672Y00656D03*
X01747Y00704D03*
X01474Y01541D03*
X02177Y01269D03*
X02089Y0118D03*
X02086Y01361D03*
X02641Y01177D03*
X03458Y01692D03*
X03597Y01715D03*
X0372Y01758D03*
X0408Y01887D03*
X04426Y0197D03*
X03814Y01786D03*
X03245Y016D03*
X03125Y01481D03*
X0271Y01218D03*
X023Y00976D03*
X02042Y01449D03*
X01959Y01558D03*
X02526Y01325D03*
X02536Y01341D03*
X01935Y01501D03*
X0196Y01597D03*
X02456Y01288D03*
X02021Y01046D03*
X02495Y01351D03*
X02715Y0166D03*
X02712Y01572D03*
X03503Y01565D03*
X03542Y01557D03*
X03487Y01573D03*
X0343Y01126D03*
X0349Y01121D03*
X03481Y01087D03*
X04162Y01515D03*
X04874Y0175D03*
X04694Y01619D03*
X04786Y0176D03*
X04433Y02361D03*
X04602Y02702D03*
X03324Y03005D03*
X01326Y01305D03*
X02929Y0179D03*
X04457Y02542D03*
X04051Y00991D03*
X02601Y01546D03*
X02304Y01062D03*
X02657Y01463D03*
X02701Y01305D03*
X02706Y01347D03*
X02718Y0132D03*
X02297Y02864D03*
X03202Y01445D03*
X03105Y01401D03*
X02711Y01281D03*
X02701Y01337D03*
X03616Y02824D03*
X0272Y01814D03*
X03251Y01437D03*
X02718Y01336D03*
X03212Y01308D03*
X03255Y01298D03*
X02255Y00849D03*
X01552Y00791D03*
X01433Y0126D03*
X01916Y01767D03*
X03885Y01416D03*
X03556Y01339D03*
X02358Y01034D03*
X01893Y00969D03*
X01562Y00918D03*
X01736Y00964D03*
X01728Y00857D03*
X01158Y01311D03*
X00677Y01435D03*
G54D101*
X02694Y01754D03*
X02832Y01821D03*
X02518Y01847D03*
X02424Y01828D03*
X02017Y01871D03*
X02639Y02014D03*
X02577Y01954D03*
X02821Y01565D03*
X028Y01548D03*
X02604Y01419D03*
X01728Y01352D03*
X01962Y01259D03*
X028Y01516D03*
X02809Y01525D03*
X02565Y01896D03*
X0256Y0188D03*
X02599Y01915D03*
X02383Y01865D03*
X02329Y019D03*
X02646Y01754D03*
X02604Y01808D03*
X02494Y01753D03*
X02544Y01899D03*
X02554Y01877D03*
X02519Y01855D03*
X02529Y01865D03*
X02567Y01878D03*
X02637Y01866D03*
X02687Y01832D03*
X02606Y01818D03*
X03471Y01761D03*
X04252Y01797D03*
X04497Y01889D03*
X03248Y01423D03*
X02809Y01367D03*
X02793D03*
X02777Y0132D03*
X03388Y01365D03*
X03377Y01517D03*
X03378Y01498D03*
X03377Y01445D03*
X03155Y01712D03*
X03173Y01711D03*
X02835Y01564D03*
X02666Y01993D03*
X02809Y02157D03*
X03698Y02988D03*
X03612Y02915D03*
X02573Y02383D03*
X03076Y01519D03*
X03154Y01547D03*
X03251Y01633D03*
X03381Y01688D03*
X0344Y01684D03*
X03377Y01654D03*
X03188Y01574D03*
X028Y01453D03*
X034Y01451D03*
X03377Y01395D03*
X03338Y01367D03*
X03219Y0134D03*
X03119Y01362D03*
X02592Y01865D03*
X02639Y01339D03*
X02592Y01374D03*
X02637Y01371D03*
X02657Y01692D03*
X02669Y01686D03*
X02647Y01783D03*
X027Y02257D03*
X03718Y03023D03*
X03639Y03071D03*
X05013Y02795D03*
X05017Y0243D03*
X02443Y01759D03*
X02446Y01775D03*
X02422Y01703D03*
X02406Y01698D03*
X0239Y01683D03*
Y0173D03*
X02352Y01678D03*
X02422Y01748D03*
X02393Y01841D03*
X02398Y01864D03*
X02424Y01817D03*
X0269Y02494D03*
X02791Y0283D03*
X02625Y01757D03*
X02438Y01703D03*
X0256Y01754D03*
X02576Y01753D03*
X0395Y02425D03*
X0232Y01791D03*
X02101Y01774D03*
X02808Y01572D03*
X02816Y0158D03*
X02777Y01506D03*
X02804Y01498D03*
X02803Y01485D03*
X02811Y0147D03*
X02785Y01516D03*
X0232Y01691D03*
X02474Y01703D03*
X02568Y01848D03*
X02592Y01839D03*
X02573Y01849D03*
X02655Y01817D03*
X0339Y0206D03*
X03233D03*
X03114D03*
X02452Y0181D03*
X02815Y01455D03*
X02792Y01441D03*
X03052Y01679D03*
X03156Y01685D03*
X0281Y01493D03*
X02692Y01441D03*
X02656Y01623D03*
X02422Y01653D03*
X02403Y01646D03*
X02463Y01656D03*
X0245Y01969D03*
X02463Y02044D03*
X02517Y02988D03*
X02702Y01865D03*
X02689Y01679D03*
X02659Y01675D03*
X02629Y01539D03*
X02542Y01543D03*
X02593Y01544D03*
X0254D03*
X02541Y01493D03*
X02562D03*
X02542Y01521D03*
X02576Y01493D03*
X02571Y01487D03*
X0259Y01439D03*
X02574Y01441D03*
X02567Y01384D03*
X02542Y01419D03*
X03503Y01497D03*
X02694Y01544D03*
X02678Y01493D03*
X02694D03*
X02581Y01703D03*
X02473Y01746D03*
X02383Y01756D03*
X02015Y01716D03*
X02707Y0169D03*
X02617Y01492D03*
X026Y01572D03*
X03193Y01414D03*
X03157Y01497D03*
X03219Y01518D03*
X028Y01355D03*
X02757Y01359D03*
X0344Y01515D03*
X034Y01488D03*
X03367Y01455D03*
X0344Y01497D03*
X03282Y01523D03*
X0245Y01374D03*
X0239Y01446D03*
X02314Y01478D03*
X02479Y02988D03*
X0241Y02644D03*
X023Y03023D03*
X0234D03*
X01834Y01354D03*
X01642Y0137D03*
X02663Y01544D03*
X02694Y01652D03*
X02746Y01651D03*
X02718Y0139D03*
X03559Y01098D03*
X02452Y01521D03*
X02699Y01591D03*
X02678Y01595D03*
X02707Y01623D03*
X02678Y01696D03*
X02733Y01833D03*
X0254Y01642D03*
X02546Y01607D03*
X02525Y01652D03*
X04037Y0141D03*
X0266Y01608D03*
X02663Y01595D03*
X02496Y01742D03*
X02525Y01703D03*
X02582Y01595D03*
X03188Y0171D03*
X0232Y01391D03*
X02352Y0139D03*
X02015Y01475D03*
X02517Y01374D03*
X02492Y01595D03*
X02509Y01595D03*
X02481Y01359D03*
X02533Y0139D03*
X02513Y0139D03*
X02502Y0136D03*
X025Y01403D03*
X02499Y01421D03*
X02441Y01444D03*
X02434Y0139D03*
X02452Y01493D03*
X02458D03*
X02509Y01754D03*
X02418Y03023D03*
X02152Y01962D03*
X0256Y01327D03*
X02552Y01316D03*
X02567Y01336D03*
X02445Y01623D03*
X02648Y01856D03*
X03471Y02704D03*
X02353Y01312D03*
X02309Y01295D03*
X02282Y01355D03*
X02298Y01621D03*
X01901Y01967D03*
X0232Y01563D03*
X03421Y0141D03*
X03413Y01432D03*
X02832Y01323D03*
X03471Y01471D03*
X02657Y01419D03*
X02591Y01493D03*
X02656Y01403D03*
X02627Y01493D03*
X02556Y01595D03*
X02607Y01523D03*
X026Y01612D03*
X02541Y01595D03*
X02547Y01623D03*
X02443Y0169D03*
X02471Y01662D03*
X02486Y01817D03*
X02496Y01809D03*
X02507Y01804D03*
X02503Y01789D03*
X02513Y0188D03*
Y01864D03*
X03481Y03023D03*
X03442D03*
X03403D03*
X03363D03*
X02338Y02208D03*
X02418Y02072D03*
X02304Y01839D03*
X01789Y02988D03*
X02442Y01979D03*
X0241Y02108D03*
X02314Y01882D03*
X02297Y01871D03*
X0336Y02382D03*
X02364Y0197D03*
X04003Y02529D03*
X01383Y01795D03*
X01167Y01718D03*
X012Y01844D03*
X02832Y01628D03*
X03408Y01633D03*
X034Y0154D03*
Y01514D03*
X03282Y01659D03*
Y01446D03*
X03188Y01659D03*
X02714Y01493D03*
X02729D03*
Y01541D03*
X02406Y0167D03*
X0239Y01777D03*
X02637Y01899D03*
X02746Y0132D03*
X02725Y01295D03*
X02639Y01847D03*
X02746Y01887D03*
X02986Y01473D03*
X03371Y01295D03*
X02777Y01349D03*
X02789D03*
X02922Y01327D03*
X02855Y01359D03*
X03431Y01374D03*
X0283Y01768D03*
X02864Y01749D03*
X0276Y01785D03*
X02832Y01723D03*
X02723Y01696D03*
X02707Y01742D03*
Y01726D03*
X02656Y01729D03*
X02656Y01754D03*
X02566Y01367D03*
X02544Y01374D03*
X0267Y0139D03*
X02715Y01419D03*
X02695Y01426D03*
X02712Y01441D03*
X02765Y01491D03*
X02759Y01514D03*
X02733Y01441D03*
X02707Y01454D03*
X02832Y01611D03*
X02762Y01937D03*
X02804Y02029D03*
X02832Y02988D03*
X02634Y02136D03*
X02812Y03023D03*
X02336Y0181D03*
X03274Y01393D03*
X03119Y01455D03*
X03156Y01659D03*
Y01633D03*
X03471Y01813D03*
X03377D03*
X03503D03*
X04462Y0184D03*
X02422Y01544D03*
X02438D03*
X02654Y01507D03*
X02656Y01572D03*
X03728Y02704D03*
X0358Y02954D03*
X03422Y02988D03*
X02544Y01833D03*
X02702Y01844D03*
X04208Y01549D03*
X03465Y01533D03*
X03471Y01497D03*
Y01736D03*
X02336Y01676D03*
X0232Y0168D03*
Y01845D03*
X02342Y01767D03*
X02334Y0177D03*
X0245Y01865D03*
X02528Y0188D03*
X02335Y01864D03*
Y01848D03*
X03324Y03019D03*
X03383Y02988D03*
X02856Y01407D03*
X03416Y01699D03*
X03494Y01795D03*
X0343D03*
X03718Y01744D03*
X01261Y01724D03*
X00874Y015D03*
X01378Y01551D03*
X0193Y01623D03*
X00913Y01455D03*
X01393Y0123D03*
X02194Y00722D03*
X01185Y01608D03*
X0256Y0131D03*
X02464Y01432D03*
X02456Y0144D03*
X02489Y01441D03*
X02471Y01493D03*
Y01595D03*
X02492Y01493D03*
X02496Y01608D03*
Y01639D03*
X02486Y01699D03*
X02509Y01703D03*
X0245Y01847D03*
X02497Y01376D03*
X03377Y01864D03*
X03277Y01498D03*
X02762Y01446D03*
X02753Y01437D03*
X02707Y01521D03*
X02525Y01493D03*
X02358Y01519D03*
X02237Y01593D03*
X0246Y01373D03*
X0344Y01864D03*
X03408Y01841D03*
X03396Y01812D03*
X03379Y01734D03*
X03462Y01667D03*
X03408Y0171D03*
X03408Y01736D03*
Y01684D03*
X03421Y01659D03*
X03377Y0171D03*
X03289Y01614D03*
X02759Y01623D03*
X01448Y0108D03*
X01526Y00943D03*
X01474Y0152D03*
X02547Y01793D03*
X02656Y01454D03*
X02841Y01485D03*
X04497Y02031D03*
X04074Y01872D03*
X03503Y0171D03*
X03219Y01548D03*
X02321Y00962D03*
X02509Y01489D03*
X02476Y01346D03*
X02497Y01336D03*
X01956Y01578D03*
Y01637D03*
X0195Y0171D03*
X01936Y01696D03*
X02562Y01441D03*
X02542Y01434D03*
X02729Y01659D03*
X02707Y01675D03*
X02715Y01595D03*
X02704Y01572D03*
X02729Y01595D03*
X02707Y01608D03*
X02336Y01791D03*
X03374Y01537D03*
X03291Y0154D03*
X03367Y01551D03*
X03245Y01662D03*
X03188Y01633D03*
X03503Y01548D03*
X0353Y01585D03*
X03503Y01446D03*
X0344Y01471D03*
X03503Y01523D03*
X03471Y01574D03*
X0344D03*
X03852Y01864D03*
X0481Y01833D03*
X03285Y03087D03*
X02957Y01628D03*
X03018Y02057D03*
X02241Y02988D03*
X03619D03*
X0108Y01245D03*
X02134Y01942D03*
X04622Y01871D03*
X04584Y01841D03*
X04568Y01888D03*
X0256Y01833D03*
X04369Y01818D03*
X02408Y02063D03*
X01503Y03019D03*
X02604Y0169D03*
Y01659D03*
X036Y03023D03*
X02656Y01742D03*
X02663Y01703D03*
X04623Y02428D03*
Y02428D03*
X03921Y02006D03*
X03177Y02435D03*
X03204Y02378D03*
X0285Y02179D03*
X03761Y01982D03*
X03188Y01736D03*
X028Y01579D03*
X02769Y01485D03*
X02656Y01521D03*
X02663Y01493D03*
X02588Y01667D03*
X02793Y01415D03*
X02496Y01505D03*
X0297Y03023D03*
X0356D03*
X02438Y01595D03*
X04084Y01431D03*
X04269Y01265D03*
X04072Y01418D03*
X0234Y0221D03*
Y02206D03*
X01237Y01664D03*
Y01575D03*
X02154Y01157D03*
X01995Y0146D03*
X03471Y01523D03*
X0346Y01386D03*
X03194Y02171D03*
X04368Y01958D03*
X0444Y01481D03*
X01373Y03039D03*
X0169Y03023D03*
X02372Y01777D03*
X02229Y01576D03*
X04397Y00958D03*
X04133Y00958D03*
Y00958D03*
X03187Y01761D03*
X02785Y01586D03*
X02778Y01462D03*
X02753Y01422D03*
X03501Y02988D03*
X01711Y01528D03*
X01711Y0151D03*
X02029Y01312D03*
X02028Y01312D03*
X02537Y03023D03*
X02556Y02988D03*
X02434Y01359D03*
X02922Y02427D03*
X0267Y01819D03*
Y01817D03*
X0267Y01817D03*
X01261Y01655D03*
X01266Y01197D03*
X03009Y01942D03*
X03521Y03023D03*
X04533Y01352D03*
X02529Y01849D03*
X03187Y01812D03*
X02774Y01604D03*
X01356Y01942D03*
X0256Y01703D03*
X03969Y02655D03*
X04952Y00653D03*
X03955Y02464D03*
X0239Y01698D03*
X03219Y01684D03*
X02746Y01812D03*
X03282Y01395D03*
X0132Y01457D03*
X01864Y01775D03*
X05308Y02703D03*
X05507Y02688D03*
X05395Y02596D03*
X05357Y02643D03*
X05145Y02665D03*
X04926Y03098D03*
X04792D03*
X04874Y02949D03*
X04778Y02765D03*
X05507Y02456D03*
X04906Y02548D03*
X05255Y02479D03*
X05092Y02287D03*
X04906Y02391D03*
X0481Y02258D03*
X0465Y02271D03*
X04292Y03106D03*
X0456D03*
X03934Y03122D03*
X03993Y02478D03*
X03983Y02492D03*
X03969Y0269D03*
X03875Y03071D03*
X03836Y03023D03*
X03855Y02988D03*
X03895Y0294D03*
X0449Y02384D03*
X04234D03*
X04623Y02309D03*
X04362Y02254D03*
X0417Y02228D03*
X04003Y02416D03*
X03918Y02444D03*
X03946Y02228D03*
X04746Y02013D03*
X05346Y01893D03*
X04674Y0184D03*
X0417Y02069D03*
X04522Y01833D03*
X04234D03*
X04013Y01982D03*
X0465Y01782D03*
X04822Y01655D03*
X04256Y01726D03*
Y01655D03*
X03954Y01744D03*
X04208Y01691D03*
X03658Y01951D03*
X036Y02065D03*
X03508Y0206D03*
X03466Y01885D03*
X03401Y02171D03*
X03471Y01787D03*
X03503Y01761D03*
Y01659D03*
X03408Y01787D03*
X03377Y01761D03*
X0344Y01659D03*
Y0171D03*
X03295Y02435D03*
X03168Y02265D03*
X03338Y02018D03*
X03029Y03122D03*
X02989Y02988D03*
X03048Y02316D03*
X02954Y02256D03*
X03316Y01871D03*
X03282Y01864D03*
X03338Y01821D03*
X03282Y01812D03*
X03219Y01864D03*
X03138Y01839D03*
X03156Y01812D03*
X02891Y03023D03*
X02812Y0227D03*
X02783Y02704D03*
X02694Y03023D03*
X02769Y01875D03*
X02816Y01865D03*
X03251Y01787D03*
X03326Y01732D03*
X03282Y01761D03*
X03188Y01787D03*
X0297Y01758D03*
X03219Y0171D03*
Y01659D03*
X03178Y0165D03*
X02816Y0179D03*
X02762Y01777D03*
X02729Y01754D03*
X02762Y01683D03*
Y0173D03*
X02753Y01691D03*
X02832Y01676D03*
X02694Y01703D03*
X05476Y01637D03*
X04822Y01585D03*
X04256D03*
X0441Y01541D03*
X04462D03*
X04208Y0162D03*
X04099Y01588D03*
X03626Y01647D03*
Y0153D03*
X04285Y01519D03*
X04774Y01478D03*
X05056Y01429D03*
X04656Y01455D03*
X0385Y01506D03*
X03718Y01511D03*
X04256Y01443D03*
X04208Y01478D03*
X03462Y01642D03*
X03498Y01578D03*
X03408Y01574D03*
X03338Y01596D03*
X04674Y01352D03*
X04553Y01295D03*
X0472Y0126D03*
X04226Y01295D03*
X04108Y01414D03*
X0369Y01401D03*
X04006Y0137D03*
X03882Y01321D03*
X03786Y01191D03*
X05476Y01047D03*
X04702Y01114D03*
X04544Y01063D03*
X05082Y00653D03*
X04167Y00986D03*
X04466Y00356D03*
X03704Y00377D03*
X03503Y01395D03*
X03471Y0142D03*
X0344Y01344D03*
X034Y01412D03*
X03658Y01243D03*
X03504Y01295D03*
X0353Y01231D03*
X03442Y01089D03*
X03338Y01204D03*
X03434Y00854D03*
X03274Y01627D03*
X03259Y01565D03*
X03282Y01497D03*
X03219D03*
X02845Y01647D03*
X02762Y01588D03*
X02707Y01639D03*
X02714Y01544D03*
X03156Y01449D03*
X03259Y01412D03*
X03156Y01395D03*
X03283Y00702D03*
X03113Y00377D03*
X03107Y01155D03*
X03029Y01076D03*
X02826Y01203D03*
X03009Y00877D03*
X02858Y0077D03*
X0277Y01389D03*
X02707Y0147D03*
X02727Y01305D03*
X02773Y00906D03*
X02683Y01305D03*
X0269Y00545D03*
X02655Y03023D03*
X02635Y02988D03*
X02674D03*
X02634Y02625D03*
X02553Y02191D03*
X02547Y01809D03*
X02458Y03023D03*
X0241Y02519D03*
X02399Y02988D03*
X02496Y01777D03*
X02678Y01754D03*
X02643Y01703D03*
X02627D03*
X02592D03*
X02547Y01742D03*
X02541Y01703D03*
X02678Y01652D03*
X02627D03*
X02604Y01623D03*
Y01639D03*
X02458Y01703D03*
X02438Y01652D03*
X02445Y01639D03*
X02222Y03023D03*
X02182Y03086D03*
X01946Y03122D03*
X01848Y03023D03*
X01572D03*
X02281Y02988D03*
X02253Y02511D03*
X02154Y02147D03*
X01995Y02704D03*
X01994Y02136D03*
X01631Y02988D03*
X01828D03*
X01848Y02021D03*
X01454Y03023D03*
X01296Y03086D03*
X01336Y03023D03*
X01513Y02988D03*
X01395D03*
X01013Y03064D03*
X0093Y03068D03*
X00816Y03064D03*
X00342Y02842D03*
X01111Y0269D03*
X0129Y02114D03*
X00792Y02167D03*
X01431Y01987D03*
X00342Y0246D03*
X00332Y02208D03*
X00253Y02031D03*
X00174Y02208D03*
Y0207D03*
X02282Y01951D03*
X0187Y01871D03*
X02195Y01864D03*
X0225Y01782D03*
X01977Y01775D03*
X02358Y0173D03*
X0239Y01635D03*
X01976Y01748D03*
X01936D03*
X01975Y01736D03*
X01936D03*
X01877Y01657D03*
X01838Y01618D03*
X01691Y01871D03*
X0161Y01878D03*
X01713Y01775D03*
X01328Y01807D03*
X01447Y01753D03*
X01386Y01703D03*
X01002Y018D03*
X01241Y01775D03*
X01167Y01753D03*
X0161Y01703D03*
X0132Y01696D03*
X01482Y01657D03*
X00647Y01698D03*
X01281Y01696D03*
X0058Y01686D03*
X00348Y01685D03*
X00611Y01667D03*
X02643Y01595D03*
X02611D03*
X02627D03*
X02592D03*
X02643Y01493D03*
X02525Y01595D03*
Y01544D03*
X02445Y01608D03*
X02458Y01595D03*
X02422D03*
X02496Y01521D03*
X02422Y01493D03*
X02663Y01441D03*
X02681Y00757D03*
X02604Y01403D03*
X02592Y01343D03*
X02591Y01112D03*
X02576Y00748D03*
X02525Y01441D03*
X0245Y01343D03*
X02458Y01124D03*
X02483Y00377D03*
X02406Y01604D03*
X0239Y01588D03*
Y01541D03*
Y01494D03*
X02383Y0139D03*
X02371Y01487D03*
X0225Y01478D03*
X02358Y01446D03*
X01976Y01499D03*
X01936Y01459D03*
X01663Y01541D03*
X01896Y01538D03*
X01907Y01455D03*
X01897Y01526D03*
X01623Y01455D03*
X01226Y0154D03*
X01001Y01519D03*
X01936Y01448D03*
X0145Y01427D03*
X0187Y01423D03*
X01076Y01431D03*
X01322Y01427D03*
X00348Y01433D03*
X0209Y01242D03*
X02029Y01348D03*
X01841Y01155D03*
X02069Y01022D03*
X02416Y00742D03*
Y00545D03*
X0225Y00883D03*
X01962Y00871D03*
X01834Y00917D03*
X0177Y01043D03*
Y00825D03*
X01738Y01274D03*
X01752Y01184D03*
X01642Y01124D03*
X01552Y01177D03*
X00835Y01199D03*
X01273Y01187D03*
X01761Y00395D03*
X0171Y00799D03*
X01419Y00943D03*
X00332Y00929D03*
Y01066D03*
X00253Y01106D03*
X00174Y00929D03*
X01249Y00399D03*
X02481Y01374D03*
X02538Y01153D03*
X01956Y01696D03*
X01962Y00992D03*
X01956Y01618D03*
X02615Y02917D03*
Y01391D03*
X02576Y03023D03*
X02596Y02988D03*
X0344Y01446D03*
X03251Y01472D03*
X02726Y01336D03*
X0338Y01295D03*
X01241Y01696D03*
X01417Y01166D03*
X01185Y01276D03*
X04462Y01352D03*
X04568Y01513D03*
X01729Y03023D03*
X01769D03*
X01552Y02987D03*
X01592Y02561D03*
X03187Y01838D03*
X02785Y01611D03*
X0325Y01838D03*
X028Y01595D03*
X03207Y01787D03*
X03408Y01761D03*
X02769Y01422D03*
X04237Y02419D03*
X04533Y0184D03*
X02383Y01927D03*
X01375Y02711D03*
X03469Y0225D03*
X02251Y0221D03*
Y02209D03*
X03964Y02416D03*
X03259Y01821D03*
X03458Y01844D03*
X02792Y01525D03*
X03777Y02988D03*
X0291Y01064D03*
X02678Y01441D03*
X02406Y01525D03*
X02591Y01012D03*
X01976Y0148D03*
X01957Y0149D03*
X00657Y01707D03*
X03757Y03023D03*
X01533Y03073D03*
X02871Y02988D03*
X03235Y01684D03*
X03796Y03023D03*
X02762Y01541D03*
X02753Y01532D03*
X02707Y01557D03*
X02367Y01532D03*
X02632Y01062D03*
X01936Y0148D03*
X02466Y01359D03*
Y01343D03*
X04426Y02033D03*
X01987Y01455D03*
X01956Y0148D03*
X02634Y0252D03*
X01956Y0146D03*
X01586Y01455D03*
X02438Y02988D03*
X02359Y03028D03*
X03459Y01446D03*
X02195Y01899D03*
X02191Y01551D03*
X04391Y01352D03*
X02536Y01832D03*
X02327Y01832D03*
X01749Y02988D03*
X02785Y01536D03*
X03471Y01684D03*
X02832Y01469D03*
X0465Y01674D03*
X02406Y01557D03*
X01976Y0146D03*
X02529Y01359D03*
X01962Y01364D03*
X02379Y03023D03*
X02434Y01343D03*
X03471Y01369D03*
X0293Y03023D03*
X02544Y01865D03*
X04603Y01352D03*
X04639Y01401D03*
X0235Y01895D03*
X0471Y01908D03*
X02852Y03023D03*
X03471Y01838D03*
X02702Y01817D03*
X03344Y02988D03*
X02864Y01785D03*
X00676Y01734D03*
X01076Y01456D03*
X02284Y01112D03*
X01995Y0148D03*
X01992Y01423D03*
X03737Y02943D03*
X01421Y0078D03*
X01418Y01306D03*
X03221Y01631D03*
X00637Y016D03*
X00714Y01667D03*
X04822Y01797D03*
X01808Y03023D03*
X03462Y02988D03*
X03678Y03023D03*
X03541Y02988D03*
X01241Y01511D03*
X0134Y01724D03*
X01281Y01511D03*
X01369Y01686D03*
Y01647D03*
X01184Y01568D03*
X03408Y01864D03*
X0344Y01838D03*
X03219D03*
X03503Y0142D03*
X03282Y01838D03*
X03377Y01369D03*
X03503Y01736D03*
Y01471D03*
X03282Y01787D03*
X03219Y01736D03*
X03494Y01565D03*
X03282Y01736D03*
X0344Y01633D03*
X03282Y01684D03*
X01076Y01507D03*
X04067Y00986D03*
X04431D03*
X04331D03*
X02271Y01295D03*
X00351Y0149D03*
X04359Y00099D03*
X03684Y01121D03*
X02879Y01383D03*
X04299Y01372D03*
X04623Y01534D03*
X01388Y00975D03*
X00912Y01587D03*
X03245Y00852D03*
X0207Y01502D03*
X02632Y00962D03*
X04938Y01929D03*
X04322Y01232D03*
X02052Y0095D03*
X03574Y00448D03*
X04355Y01401D03*
X03113Y00185D03*
X05145Y02795D03*
X05345Y01638D03*
X01249Y00206D03*
X02164Y00722D03*
X00149Y01871D03*
X0358Y01807D03*
X01834Y00792D03*
X04335Y001D03*
X01401Y01603D03*
X01421Y01763D03*
X03274Y01009D03*
X00898Y03024D03*
X0495Y02604D03*
X01525Y02311D03*
X00332Y02104D03*
X02133Y01887D03*
X02454Y02208D03*
X0341Y0223D03*
X01958Y01125D03*
X02733Y02352D03*
X04875Y03066D03*
X00822Y01116D03*
X01929Y00278D03*
X01485Y00946D03*
X00676Y016D03*
X01721Y00525D03*
X00686Y0156D03*
X04702Y00881D03*
X01086Y01346D03*
X00348Y01549D03*
X0259Y00643D03*
X01652Y01956D03*
X02584Y01982D03*
X0432Y01832D03*
X03737Y01864D03*
X02773Y01073D03*
X04278Y01902D03*
X02745Y01359D03*
X0448Y01155D03*
X03416Y02031D03*
X04426Y014D03*
X04773Y0162D03*
X04718Y02555D03*
X03208Y00761D03*
X02685Y01564D03*
X02012Y01155D03*
X0169Y00736D03*
X01785Y01458D03*
X00864Y01668D03*
X01698Y00919D03*
X03953Y00998D03*
X04925Y01534D03*
X03763Y02074D03*
X03186Y00984D03*
X00174Y01066D03*
X05186Y01549D03*
X04518Y02143D03*
X02079Y0138D03*
X0167Y00708D03*
X01828Y00727D03*
X01993Y01807D03*
X02379Y00643D03*
X04466Y02845D03*
X04023Y02492D03*
X04387Y02707D03*
X01969Y00817D03*
X01778Y02049D03*
X02376Y02432D03*
X01885Y00722D03*
X00935Y01273D03*
X03009Y01825D03*
X0356Y0102D03*
X0147Y01953D03*
X01435Y0113D03*
X01683Y01188D03*
X02012Y01541D03*
X01382Y01856D03*
X02094Y0184D03*
X00926Y01482D03*
X013Y0149D03*
X01208Y0113D03*
Y01469D03*
X00887Y01429D03*
X02282Y02013D03*
X0167Y0089D03*
X02003Y01508D03*
X04394Y02409D03*
X04287Y02632D03*
X02584Y01982D03*
X04774Y01726D03*
X04633Y02021D03*
X04745Y01431D03*
X01058Y01482D03*
X01867Y00493D03*
X01649Y01967D03*
X01617Y01787D03*
X04336Y00388D03*
X05082Y00388D03*
X02983Y00377D03*
X05398Y00791D03*
X03442Y00971D03*
X01729Y02021D03*
X03605Y02249D03*
X00537Y02297D03*
X04544Y01194D03*
X01434Y01718D03*
X01179Y01666D03*
X03442Y0097D03*
X02576Y00867D03*
X02768Y02912D03*
X0275Y02438D03*
X02773Y01037D03*
X00686Y0156D03*
X0171Y02988D03*
X03226Y01155D03*
X03737Y01851D03*
X04684Y0126D03*
X04335D03*
X04322Y01229D03*
X0411Y01334D03*
X04952Y01162D03*
X01665Y00753D03*
X006Y02297D03*
X01333Y00812D03*
X01696Y00753D03*
X01342Y01599D03*
X0183Y00623D03*
X00425Y01568D03*
X01471Y01897D03*
X01499Y00825D03*
X05346Y0079D03*
X04952Y00396D03*
X01995Y02834D03*
X02522Y02704D03*
X01738Y02769D03*
X01112Y0282D03*
X05476Y02207D03*
X01119Y00302D03*
X0488Y02665D03*
X0383Y02834D03*
X02719Y00684D03*
X02969D03*
X013Y01724D03*
X00809Y01283D03*
X01631Y00298D03*
X03694Y00131D03*
X04414Y00101D03*
X02353Y00281D03*
X02209Y01431D03*
X04745Y01352D03*
X04822Y01443D03*
X05022Y01029D03*
X02052Y00984D03*
X0356Y00631D03*
X03009Y00645D03*
X00682Y01647D03*
X0058D03*
X04234Y01712D03*
X04208Y01762D03*
X04497Y01401D03*
X04487Y01455D03*
X04522Y02633D03*
X03954Y01511D03*
X01002Y01694D03*
X04522Y01712D03*
X0417Y02123D03*
X01092Y01903D03*
X0121Y00879D03*
X0134Y01539D03*
X03785Y00722D03*
X03434Y0075D03*
X0481Y02382D03*
X03816Y0294D03*
X01905Y00623D03*
X02615Y00545D03*
X04426Y0254D03*
X01578Y01449D03*
X01359Y01511D03*
X0161Y01772D03*
X01482Y01674D03*
X0132Y01511D03*
X01261Y01539D03*
G54D102*
X03322Y02519D03*
X02839Y01419D03*
X02323Y02045D03*
X02329Y02039D03*
X02322Y02057D03*
X01201Y01369D03*
X02448Y0196D03*
X02322Y02519D03*
X02888Y02138D03*
X02322Y01519D03*
X01716Y01948D03*
X01634Y01847D03*
X0276Y02137D03*
X02716Y01748D03*
X04032Y02097D03*
X01043Y0131D03*
X01244Y0189D03*
X02822Y01019D03*
X04822Y02019D03*
X00715Y01596D03*
X02989Y01908D03*
X05014Y02923D03*
X047Y02944D03*
X05322Y02519D03*
X05359Y02385D03*
X05211Y02315D03*
X04822Y02519D03*
X04138Y03102D03*
X04608Y0281D03*
X03932Y02815D03*
X03617Y02541D03*
X05285Y02019D03*
X04913Y01921D03*
X04585Y01935D03*
X04266Y02161D03*
X04322Y02019D03*
X0541Y01765D03*
X04556Y01661D03*
X04088Y01717D03*
X0382Y02158D03*
X03771Y01824D03*
X03746Y01824D03*
X03322Y02044D03*
Y02032D03*
X03284Y02218D03*
X03157Y03104D03*
X03046Y0247D03*
X02994Y01908D03*
X02889Y02675D03*
X03902Y01625D03*
X04822Y01519D03*
X04322Y01513D03*
X03822Y01519D03*
X04925Y01418D03*
X04822Y01339D03*
X04771Y0114D03*
X05322Y01007D03*
X05202Y0057D03*
X04561Y00937D03*
X04624Y00294D03*
X04466Y01179D03*
X03829Y00281D03*
X03399Y00684D03*
X03175Y01048D03*
X03197Y01044D03*
X03218Y00438D03*
X03185Y01044D03*
X02927Y00644D03*
X02822Y00519D03*
X02724Y01107D03*
X02469Y0225D03*
X02064Y02995D03*
X02282Y02123D03*
X01984Y02555D03*
X01835Y02162D03*
X01353Y03026D03*
X01515Y02949D03*
X01163Y03102D03*
X01235Y02722D03*
X00921Y02204D03*
X01322Y02019D03*
X00341Y02651D03*
X02308Y01932D03*
X02375Y01674D03*
X00896Y01838D03*
X00471Y01753D03*
X02611Y00895D03*
X02622Y00399D03*
X02449Y00884D03*
X00822Y01519D03*
X02303Y01202D03*
X01955Y01088D03*
X02322Y00519D03*
X0209Y00844D03*
X01822Y01019D03*
X01892Y00695D03*
X01879Y00291D03*
X00483Y01336D03*
X00775Y01325D03*
X01695Y01007D03*
X01437Y01098D03*
X01346Y00888D03*
X0133Y00296D03*
X00295Y00702D03*
G54D103*
X04733Y01772D03*
X04745Y01836D03*
X04285Y01404D03*
X00345Y01509D03*
Y01627D03*
X02743Y01604D03*
Y01572D03*
Y01557D03*
Y01509D03*
Y01478D03*
X02361Y01635D03*
X0279D03*
X02743Y01462D03*
X02399Y01736D03*
X02743Y01746D03*
X0279Y01683D03*
X02598Y01352D03*
X0279Y0173D03*
X02491Y01856D03*
X02361Y01777D03*
X0279D03*
X0232Y0172D03*
X02759Y01828D03*
X02753Y01842D03*
X02629Y01305D03*
X02523D03*
X0232Y01767D03*
X02785Y01834D03*
X02676Y01903D03*
X02476Y01305D03*
Y01903D03*
X02723D03*
X02367Y01862D03*
X02785D03*
X02352D03*
X028Y01854D03*
X02785Y01822D03*
X03379Y01572D03*
X03328Y01673D03*
X0317Y01842D03*
X03493D03*
X03202Y0133D03*
X03462D03*
X03202Y01868D03*
X03462D03*
X0317Y0133D03*
X03493D03*
X03159Y01856D03*
X03505D03*
X01877Y01539D03*
X01838Y01578D03*
X01916Y01657D03*
X01857Y01539D03*
X01838Y01559D03*
X01916Y01637D03*
X01838Y01539D03*
X01936D03*
X01838Y01657D03*
X01877Y01499D03*
X01897D03*
X01798Y01578D03*
Y01618D03*
X01976Y01598D03*
X01897Y01677D03*
X01857Y01499D03*
X01798Y01559D03*
Y01637D03*
X01976Y01578D03*
X01877Y01677D03*
X01956Y01539D03*
X01838Y01499D03*
X01798Y01539D03*
X01936Y01519D03*
X01798Y01657D03*
X01976Y01559D03*
X01857Y01696D03*
X01995Y01637D03*
X01877Y0148D03*
X01897D03*
X01877Y01696D03*
X01897D03*
X01779Y01578D03*
Y01618D03*
X01857Y0148D03*
X01877Y01716D03*
X01995Y01618D03*
X01818Y01499D03*
X01798Y01519D03*
Y01677D03*
X01976Y01539D03*
X01838Y01696D03*
X01995Y01657D03*
X01779Y01559D03*
Y01637D03*
X01838Y0148D03*
X01857Y01716D03*
X02015Y01637D03*
X01779Y01539D03*
Y01657D03*
X01798Y01499D03*
Y01696D03*
X01995Y01677D03*
X01818Y0148D03*
X01838Y01716D03*
X02015Y01657D03*
X01877Y0146D03*
X01897D03*
X01759Y01578D03*
Y01618D03*
X02015D03*
X01897Y01736D03*
Y01716D03*
X01779Y01519D03*
Y01677D03*
X01857Y0146D03*
X01759Y01559D03*
Y01637D03*
X02035Y01618D03*
X01877Y01736D03*
X01838Y0146D03*
X01759Y01539D03*
Y01657D03*
X02035Y01637D03*
X01857Y01736D03*
X01798Y0148D03*
X01818Y01696D03*
X02015Y01677D03*
X01976Y01696D03*
X01779Y01499D03*
Y01696D03*
X01818Y0146D03*
X01759Y01519D03*
Y01677D03*
X01838Y01736D03*
X02035Y01657D03*
X01779Y0148D03*
Y01716D03*
X01798Y0146D03*
X01759Y01499D03*
Y01696D03*
X01818Y01716D03*
X02035Y01677D03*
Y01499D03*
X01759Y01716D03*
X02035Y01696D03*
X01995Y01736D03*
X01798Y01716D03*
X01759Y01736D03*
X02035Y01716D03*
X00923Y01508D03*
G54D104*
X04751Y01691D03*
X04355Y01911D03*
X0471Y01483D03*
X00962Y02998D03*
X0403Y02676D03*
X04091Y02425D03*
X03835Y02444D03*
X00514Y02167D03*
G54D105*
X01696Y00753D03*
X01665D03*
Y00781D03*
X01696D03*
G54D106*
X02828Y0179D02*
X02929D01*
X02805Y01767D02*
X02828Y0179D01*
X02704Y01767D02*
X02805D01*
X02697Y0176D02*
X02704Y01767D01*
X02649Y01994D02*
Y02003D01*
X02648Y02004D02*
X02649Y02003D01*
X02643Y02004D02*
X02648D01*
X02634Y02012D02*
X02643Y02004D01*
X02626Y02012D02*
X02634D01*
X02457Y01801D02*
Y01804D01*
X02438Y01782D02*
X02457Y01801D01*
X02578Y01959D02*
Y02059D01*
X02565Y01947D02*
X02568Y0195D01*
X02577*
X0258Y01953*
X02578Y01959D02*
X0258Y01956D01*
X02564Y01947D02*
X02565D01*
X0258Y01953D02*
Y01956D01*
X0256Y01939D02*
Y01943D01*
X02556Y01935D02*
X0256Y01939D01*
Y01943D02*
X02564Y01947D01*
X02556Y01932D02*
Y01935D01*
X02824Y01549D02*
Y01555D01*
X02824Y01555*
X02505Y01433D02*
X02507Y01431D01*
Y01422D02*
Y01431D01*
X02504Y01419D02*
X02507Y01422D01*
X02504Y0139D02*
Y01419D01*
Y0139D02*
X02505Y01388D01*
Y01359D02*
Y01388D01*
X02504Y01357D02*
X02505Y01359D01*
X02504Y01328D02*
Y01357D01*
X0249Y01315D02*
X02504Y01328D01*
X02483Y01478D02*
X02514Y01447D01*
X02534*
X02483Y01478D02*
Y01587D01*
X028Y01497D02*
Y01516D01*
X02589Y01927D02*
Y01929D01*
Y01927D02*
X02594Y01923D01*
Y01921D02*
Y01923D01*
X02592Y0192D02*
X02594Y01921D01*
X02592Y01912D02*
Y0192D01*
Y01912D02*
X02596Y01908D01*
X02672*
X02674Y0191*
X02682*
X02713Y01941*
X02734*
X02589Y0189D02*
X0259Y01889D01*
X02598D02*
X02613Y01874D01*
X0259Y01889D02*
X02598D01*
X02509Y01885D02*
X02556Y01932D01*
X02613Y01874D02*
X02623D01*
X02598Y01843D02*
X02609D01*
X02622Y01831*
X02618Y01934D02*
X02623Y01939D01*
X02607Y01934D02*
X02618D01*
X02037Y01811D02*
X02068Y01781D01*
X01875Y01811D02*
X02037D01*
X01996Y01667D02*
X02104D01*
X01988Y01659D02*
X01996Y01667D01*
X01966Y01659D02*
X01988D01*
X03143Y01693D02*
X03155D01*
X03141Y01694D02*
X03143Y01693D01*
X0318Y01728D02*
X03188Y01736D01*
X0318Y01726D02*
Y01728D01*
X03172Y01719D02*
X0318Y01726D01*
X02831Y01552D02*
X02862D01*
X02881Y0157*
X03062*
X03238Y01729D02*
Y01756D01*
X03251Y01768*
X02795Y01516D02*
X02831Y01552D01*
X02607Y01929D02*
X02632D01*
X02639Y01936*
X02647*
X0339Y01695D02*
X03422D01*
X03374Y01698D02*
X03376Y017D01*
X03372Y01696D02*
X03374Y01698D01*
X03385Y017D02*
X0339Y01695D01*
X03353Y01696D02*
X03372D01*
X03376Y017D02*
X03385D01*
X02647Y01936D02*
X02668Y01958D01*
X02505Y02019D02*
X02554Y02068D01*
X02505Y01952D02*
Y02019D01*
X02525Y01623D02*
X02533D01*
X02493Y01592D02*
X02525Y01623D01*
X0248Y01592D02*
X02493D01*
X02473Y01598D02*
X0248Y01592D01*
X02456Y01598D02*
X02473D01*
X02453Y01595D02*
X02456Y01598D01*
X02438Y01595D02*
X02453D01*
X02803Y01494D02*
X02806D01*
X028Y01497D02*
X02803Y01494D01*
X02785Y01516D02*
X02795D01*
X03062Y0157D02*
X03113Y01622D01*
X03422Y01695D02*
X03427Y01701D01*
X03338Y01681D02*
X03353Y01696D01*
X03277Y01681D02*
X03338D01*
X03271Y01688D02*
X03277Y01681D01*
X03234Y01688D02*
X03271D01*
X03066Y0152D02*
X03234Y01688D01*
X03054Y0152D02*
X03066D01*
X02458Y01824D02*
X02459Y01823D01*
X02479*
X02509Y01853*
Y01885*
X03194Y01674D02*
X03195D01*
X03193Y01674D02*
X03194Y01674D01*
X0318Y01674D02*
X03193D01*
X03128Y01622D02*
X0318Y01674D01*
X03113Y01622D02*
X03128D01*
X02806Y01494D02*
X02848Y01536D01*
X0295*
X02448Y01646D02*
X0245Y01649D01*
X02436Y01646D02*
X02448D01*
X02433Y0165D02*
X02436Y01646D01*
X0242Y0165D02*
X02433D01*
X03364Y01479D02*
X034Y01514D01*
X03364Y01475D02*
Y01479D01*
X03329Y01441D02*
X03364Y01475D01*
X03442Y01734D02*
Y01746D01*
X03438Y0173D02*
X03442Y01734D01*
X02481Y01589D02*
X02483Y01587D01*
X02649Y01942D02*
X02816Y02109D01*
X01935Y01501D02*
X01946Y01512D01*
X02046*
X02049Y01509*
X02093*
X02103Y02206D02*
Y02212D01*
X01852Y01187D02*
X01879Y01213D01*
X01926*
X03554Y0283D02*
X03555Y0283D01*
X03554Y0283D02*
Y02865D01*
X0351Y02847D02*
X03542D01*
X02816Y02153D02*
X0351Y02847D01*
X02816Y02109D02*
Y02153D01*
G54D108*
X02404Y01932D02*
X02418Y01947D01*
X02404Y01893D02*
Y01932D01*
X02438Y01725D02*
X02451Y01738D01*
X02444Y01759D02*
X02451Y01752D01*
X02443Y01759D02*
X02444D01*
X02451Y01738D02*
Y01752D01*
X02562Y01782D02*
Y01807D01*
X03195Y01311D02*
X03197Y01313D01*
X03185Y01311D02*
X03195D01*
X03183Y01313D02*
X03185Y01311D01*
X03197Y01313D02*
X03363D01*
X03136D02*
X03183D01*
X0312Y01329D02*
X03136Y01313D01*
X02624Y01887D02*
X02626Y01889D01*
X02607Y01887D02*
X02624D01*
X02626Y01889D02*
X0263D01*
X02633Y01886D02*
X02706D01*
X0263Y01889D02*
X02633Y01886D01*
X02438Y01652D02*
Y01703D01*
X02567Y0177D02*
X02577Y0176D01*
X02583*
X02643Y01568D02*
X02645Y01566D01*
X02643Y01568D02*
Y01578D01*
X02641Y01556D02*
X02647D01*
X02604Y01572D02*
X02624D01*
X02641Y01556*
X02647D02*
X02656Y01564D01*
X02592Y01543D02*
X02593Y01544D01*
X02592Y01543D02*
X02592Y01543D01*
X02592Y01538D02*
Y01543D01*
X026Y0157D02*
Y01572D01*
Y01568D02*
Y0157D01*
X02592Y0156D02*
X026Y01568D01*
X02602Y0157D02*
X02604Y01572D01*
X0251Y01316D02*
X02512Y01317D01*
Y01335*
X02592Y01544D02*
Y0156D01*
X02617Y01739D02*
X0265Y01706D01*
X02645Y01624D02*
X0265Y0162D01*
Y01584D02*
Y0162D01*
X02645Y01624D02*
Y0169D01*
X0265Y01694*
X02643Y01578D02*
X0265Y01584D01*
X02656Y01564D02*
Y01572D01*
X02592Y01538D02*
X02607Y01523D01*
X02438Y01703D02*
Y01725D01*
X02857Y01691D02*
X02868D01*
X02875Y01685*
X02884*
X02907Y01708*
X02916*
X02912Y01697D02*
X0295Y01658D01*
X02911Y01697D02*
X02912D01*
X0295Y01658D02*
X02995D01*
X03363Y01313D02*
X0338Y01295D01*
X02583Y0176D02*
X02604Y01739D01*
X02567Y0177D02*
Y01777D01*
X02562Y01782D02*
X02567Y01777D01*
X02707Y0147D02*
Y01521D01*
X02604Y01739D02*
X02617D01*
X0265Y01694D02*
Y01706D01*
G54D109*
X02556Y01542D02*
X02589Y01509D01*
X02552Y01542D02*
X02556D01*
X02496Y01505D02*
X02515D01*
X02552Y01542*
X0268Y01258D02*
Y0126D01*
X02679Y01257D02*
X0268Y01258D01*
X02679Y01243D02*
Y01257D01*
Y01261D02*
X0268Y0126D01*
X02312Y01353D02*
X02353Y01312D01*
X02312Y01353D02*
Y01409D01*
X02679Y01261D02*
Y01302D01*
X02675Y01306D02*
X02679Y01302D01*
X0364Y01692D02*
X03666Y01718D01*
X03551Y01692D02*
X0364D01*
X02589Y01504D02*
Y01509D01*
Y01504D02*
X02675Y01418D01*
Y01306D02*
Y01418D01*
X01893Y00969D02*
X02297D01*
X02358Y01029*
Y01034*
X03885Y01442D02*
X03954Y01511D01*
X03885Y01416D02*
Y01442D01*
G54D122*
X02476Y01832D02*
X02478Y01834D01*
Y01858*
X02578Y01935D02*
X02579Y01935D01*
Y019D02*
Y01935D01*
X02575Y01896D02*
X02579Y019D01*
X02581Y0186D02*
X02583Y01859D01*
X02579Y01824D02*
Y01835D01*
X02575Y01885D02*
X02581Y01878D01*
Y01838D02*
Y01843D01*
X02583Y01845D02*
Y01859D01*
X02581Y01877D02*
Y01878D01*
Y01877D02*
X02582Y01876D01*
Y0187D02*
Y01876D01*
X02581Y0186D02*
Y01869D01*
X02579Y01835D02*
X02581Y01838D01*
X02575Y01885D02*
Y01896D01*
X02579Y01824D02*
X02584Y01818D01*
Y01777D02*
Y01818D01*
X03208Y01355D02*
X03222D01*
X03206Y01357D02*
X03208Y01355D01*
X03192Y01357D02*
X03206D01*
X03178Y01343D02*
X03192Y01357D01*
X03143Y01343D02*
X03178D01*
X03141Y01341D02*
X03143Y01343D01*
X03115Y01341D02*
X03141D01*
X03114Y01341D02*
X03115Y01341D01*
X03096Y01341D02*
X03114D01*
X03009Y01334D02*
X03065D01*
X03005Y01337D02*
X03009Y01334D01*
X02581Y01869D02*
X02582Y0187D01*
X02581Y01843D02*
X02583Y01845D01*
X02445Y01912D02*
X02466Y01933D01*
X02432Y01899D02*
X02435Y01902D01*
X02445Y01907D02*
Y01912D01*
X02435Y01902D02*
X0244D01*
X02445Y01907*
X02594Y01458D02*
X026Y01452D01*
Y01435D02*
Y01452D01*
X02593Y01428D02*
X026Y01435D01*
X02593Y0141D02*
Y01428D01*
X02553Y01519D02*
Y0153D01*
X02552Y01518D02*
X02553Y01519D01*
X02572Y01541D02*
X02602Y0151D01*
X02572Y01541D02*
Y01612D01*
X02552Y01439D02*
X02552Y01439D01*
X02556Y01332D02*
Y01377D01*
Y01332D02*
X0256Y01327D01*
X02552Y01381D02*
X02556Y01377D01*
X02552Y01439D02*
Y01518D01*
X02552Y01381D02*
Y01439D01*
X02479Y01757D02*
Y01769D01*
X02479Y0177D02*
X02479Y01769D01*
X02399Y01361D02*
X02406Y01354D01*
X02399Y01361D02*
Y01377D01*
X02422Y01401*
Y01417*
X02339Y0212D02*
X02394Y02174D01*
Y02271*
X02602Y01507D02*
X02604Y01505D01*
X02602Y01507D02*
Y0151D01*
X02509Y01659D02*
Y01689D01*
X025Y01649D02*
X02509Y01659D01*
X02481Y01645D02*
X02488D01*
X02492Y01649*
X025*
X02499Y01699D02*
X02509Y01689D01*
X02466Y01933D02*
Y01984D01*
X02432Y01872D02*
Y01899D01*
X02207Y0189D02*
X02222D01*
X02171Y01854D02*
X02207Y0189D01*
X02171Y0185D02*
Y01854D01*
X02135Y01814D02*
X02171Y0185D01*
X02836Y01999D02*
X02889D01*
X02812Y01975D02*
X02836Y01999D01*
X02812Y01961D02*
Y01975D01*
X02889Y01999D02*
X02944Y02053D01*
X02484Y01716D02*
Y01753D01*
X02499Y01699D02*
Y01701D01*
X02484Y01716D02*
X02499Y01701D01*
X02479Y01757D02*
X02484Y01753D01*
X02482Y01422D02*
Y01428D01*
X02458Y01453D02*
X02482Y01428D01*
X02434Y0184D02*
Y0187D01*
X02432Y01872D02*
X02434Y0187D01*
M02*