%FSTAX23Y23*%
%MOIN*%
%SFA1B1*%

%IPPOS*%
%ADD101C,0.003937*%
%ADD112C,0.040000*%
%ADD114C,0.036220*%
%ADD115C,0.075590*%
%ADD116C,0.060630*%
%ADD117C,0.032283*%
%ADD118C,0.001181*%
%ADD119C,0.002362*%
%ADD120C,0.028787*%
%ADD121C,0.008661*%
%LNmain_board-1*%
%LPD*%
G54D101*
X02694Y01754D03*
X02832Y01821D03*
X02518Y01847D03*
X02424Y01828D03*
X02017Y01871D03*
X02639Y02014D03*
X02577Y01954D03*
X02821Y01565D03*
X028Y01548D03*
X02604Y01419D03*
X01728Y01352D03*
X01962Y01259D03*
X028Y01516D03*
X02809Y01525D03*
X02565Y01896D03*
X0256Y0188D03*
X02599Y01915D03*
X02383Y01865D03*
X02329Y019D03*
X02646Y01754D03*
X02604Y01808D03*
X02494Y01753D03*
X02544Y01899D03*
X02554Y01877D03*
X02519Y01855D03*
X02529Y01865D03*
X02567Y01878D03*
X02637Y01866D03*
X02687Y01832D03*
X02606Y01818D03*
X03471Y01761D03*
X04252Y01797D03*
X04497Y01889D03*
X03248Y01423D03*
X02809Y01367D03*
X02793D03*
X02777Y0132D03*
X03388Y01365D03*
X03377Y01517D03*
X03378Y01498D03*
X03377Y01445D03*
X03155Y01712D03*
X03173Y01711D03*
X02835Y01564D03*
X02666Y01993D03*
X02809Y02157D03*
X03698Y02988D03*
X03612Y02915D03*
X02573Y02383D03*
X03076Y01519D03*
X03154Y01547D03*
X03251Y01633D03*
X03381Y01688D03*
X0344Y01684D03*
X03377Y01654D03*
X03188Y01574D03*
X028Y01453D03*
X034Y01451D03*
X03377Y01395D03*
X03338Y01367D03*
X03219Y0134D03*
X03119Y01362D03*
X02592Y01865D03*
X02639Y01339D03*
X02592Y01374D03*
X02637Y01371D03*
X02657Y01692D03*
X02669Y01686D03*
X02647Y01783D03*
X027Y02257D03*
X03718Y03023D03*
X03639Y03071D03*
X05013Y02795D03*
X05017Y0243D03*
X02443Y01759D03*
X02446Y01775D03*
X02422Y01703D03*
X02406Y01698D03*
X0239Y01683D03*
Y0173D03*
X02352Y01678D03*
X02422Y01748D03*
X02393Y01841D03*
X02398Y01864D03*
X02424Y01817D03*
X0269Y02494D03*
X02625Y01757D03*
X02438Y01703D03*
X0256Y01754D03*
X02576Y01753D03*
X0395Y02425D03*
X0232Y01791D03*
X02101Y01774D03*
X02808Y01572D03*
X02816Y0158D03*
X02804Y01498D03*
X02803Y01485D03*
X02811Y0147D03*
X02785Y01516D03*
X0232Y01691D03*
X02474Y01703D03*
X02568Y01848D03*
X02592Y01839D03*
X02573Y01849D03*
X02655Y01817D03*
X0339Y0206D03*
X03233D03*
X03114D03*
X02452Y0181D03*
X02815Y01455D03*
X02792Y01441D03*
X03052Y01679D03*
X03156Y01685D03*
X0281Y01493D03*
X02692Y01441D03*
X02656Y01623D03*
X02422Y01653D03*
X02463Y01656D03*
X0245Y01969D03*
X02463Y02044D03*
X02517Y02988D03*
X02702Y01865D03*
X02689Y01679D03*
X02659Y01675D03*
X02629Y01539D03*
X02542Y01543D03*
X02593Y01544D03*
X0254D03*
X02541Y01493D03*
X02562D03*
X02542Y01521D03*
X02576Y01493D03*
X02571Y01487D03*
X0259Y01439D03*
X02574Y01441D03*
X02567Y01384D03*
X02542Y01419D03*
X03503Y01497D03*
X02694Y01544D03*
X02678Y01493D03*
X02694D03*
X02581Y01703D03*
X02473Y01746D03*
X02383Y01756D03*
X02015Y01716D03*
X02707Y0169D03*
X02617Y01492D03*
X026Y01572D03*
X03193Y01414D03*
X03157Y01497D03*
X03219Y01518D03*
X028Y01355D03*
X02757Y01359D03*
X0344Y01515D03*
X034Y01488D03*
X03367Y01455D03*
X0344Y01497D03*
X03282Y01523D03*
X0245Y01374D03*
X0239Y01446D03*
X02314Y01478D03*
X02479Y02988D03*
X0241Y02644D03*
X023Y03023D03*
X0234D03*
X01834Y01354D03*
X01642Y0137D03*
X02663Y01544D03*
X02694Y01652D03*
X02746Y01651D03*
X02718Y0139D03*
X03559Y01098D03*
X02452Y01521D03*
X02699Y01591D03*
X02678Y01595D03*
X02707Y01623D03*
X02678Y01696D03*
X02733Y01833D03*
X0254Y01642D03*
X02546Y01607D03*
X02525Y01652D03*
X04037Y0141D03*
X0266Y01608D03*
X02663Y01595D03*
X02496Y01742D03*
X02525Y01703D03*
X02582Y01595D03*
X03188Y0171D03*
X0232Y01391D03*
X02352Y0139D03*
X02015Y01475D03*
X02517Y01374D03*
X02492Y01595D03*
X02509Y01595D03*
X02481Y01359D03*
X02533Y0139D03*
X02513Y0139D03*
X02502Y0136D03*
X025Y01403D03*
X02499Y01421D03*
X02441Y01444D03*
X02434Y0139D03*
X02452Y01493D03*
X02458D03*
X02509Y01754D03*
X02418Y03023D03*
X02152Y01962D03*
X0256Y01327D03*
X02552Y01316D03*
X02567Y01336D03*
X02445Y01623D03*
X02648Y01856D03*
X03471Y02704D03*
X02353Y01312D03*
X02309Y01295D03*
X02282Y01355D03*
X02298Y01621D03*
X01901Y01967D03*
X0232Y01563D03*
X03421Y0141D03*
X03413Y01432D03*
X02832Y01323D03*
X03471Y01471D03*
X02657Y01419D03*
X02591Y01493D03*
X02656Y01403D03*
X02627Y01493D03*
X02556Y01595D03*
X02607Y01523D03*
X026Y01612D03*
X02541Y01595D03*
X02547Y01623D03*
X02443Y0169D03*
X02471Y01662D03*
X02486Y01817D03*
X02496Y01809D03*
X02507Y01804D03*
X02513Y0188D03*
Y01864D03*
X03481Y03023D03*
X03442D03*
X03403D03*
X03363D03*
X02338Y02208D03*
X02418Y02072D03*
X02304Y01839D03*
X01789Y02988D03*
X02442Y01979D03*
X0241Y02108D03*
X02314Y01882D03*
X02297Y01871D03*
X0336Y02382D03*
X02364Y0197D03*
X04003Y02529D03*
X01383Y01795D03*
X01167Y01718D03*
X012Y01844D03*
X02832Y01628D03*
X03408Y01633D03*
X034Y0154D03*
Y01514D03*
X03282Y01659D03*
Y01446D03*
X03188Y01659D03*
X02714Y01493D03*
X02729D03*
Y01541D03*
X02406Y0167D03*
X0239Y01777D03*
X02637Y01899D03*
X02746Y0132D03*
X02725Y01295D03*
X02639Y01847D03*
X02746Y01887D03*
X02986Y01473D03*
X03371Y01295D03*
X02777Y01349D03*
X02789D03*
X02922Y01327D03*
X02855Y01359D03*
X03431Y01374D03*
X0283Y01768D03*
X02864Y01749D03*
X0276Y01785D03*
X02832Y01723D03*
X02723Y01696D03*
X02707Y01742D03*
Y01726D03*
X02656Y01729D03*
X02656Y01754D03*
X02566Y01367D03*
X02544Y01374D03*
X0267Y0139D03*
X02715Y01419D03*
X02695Y01426D03*
X02712Y01441D03*
X02765Y01491D03*
X02759Y01514D03*
X02733Y01441D03*
X02707Y01454D03*
X02832Y01611D03*
X02762Y01937D03*
X02804Y02029D03*
X02832Y02988D03*
X02634Y02136D03*
X02812Y03023D03*
X02336Y0181D03*
X03274Y01393D03*
X03119Y01455D03*
X03156Y01659D03*
Y01633D03*
X03471Y01813D03*
X03377D03*
X03503D03*
X04462Y0184D03*
X02422Y01544D03*
X02438D03*
X02654Y01507D03*
X02656Y01572D03*
X03728Y02704D03*
X0358Y02954D03*
X03422Y02988D03*
X02544Y01833D03*
X02702Y01844D03*
X04208Y01549D03*
X03465Y01533D03*
X03471Y01497D03*
Y01736D03*
X02336Y01676D03*
X0232Y0168D03*
Y01845D03*
X02342Y01767D03*
X02334Y0177D03*
X0245Y01865D03*
X02528Y0188D03*
X02335Y01864D03*
Y01848D03*
X03324Y03019D03*
X03383Y02988D03*
X02856Y01407D03*
X03416Y01699D03*
X03494Y01795D03*
X0343D03*
X03718Y01744D03*
X01261Y01724D03*
X00874Y015D03*
X01378Y01551D03*
X0193Y01623D03*
X00913Y01455D03*
X01393Y0123D03*
X02194Y00722D03*
X01185Y01608D03*
X00617Y01784D03*
X0256Y0131D03*
X02464Y01432D03*
X02456Y0144D03*
X02489Y01441D03*
X02471Y01493D03*
Y01595D03*
X02492Y01493D03*
X02496Y01608D03*
Y01639D03*
X02486Y01699D03*
X02509Y01703D03*
X0245Y01847D03*
X02497Y01376D03*
X03377Y01864D03*
X03277Y01498D03*
X02762Y01446D03*
X02753Y01437D03*
X02707Y01521D03*
X02525Y01493D03*
X02358Y01519D03*
X02237Y01593D03*
X0246Y01373D03*
X0344Y01864D03*
X03408Y01841D03*
X03396Y01812D03*
X03379Y01734D03*
X03462Y01667D03*
X03408Y0171D03*
X03408Y01736D03*
Y01684D03*
X03421Y01659D03*
X03377Y0171D03*
X03289Y01614D03*
X02759Y01623D03*
X01448Y0108D03*
X01526Y00943D03*
X01474Y0152D03*
X02547Y01793D03*
X02656Y01454D03*
X02841Y01485D03*
X04497Y02031D03*
X04074Y01872D03*
X03503Y0171D03*
X03219Y01548D03*
X02321Y00962D03*
X02509Y01489D03*
X02476Y01346D03*
X02497Y01336D03*
X01956Y01578D03*
Y01637D03*
X0195Y0171D03*
X01936Y01696D03*
X02562Y01441D03*
X02542Y01434D03*
X02729Y01659D03*
X02707Y01675D03*
X02715Y01595D03*
X02704Y01572D03*
X02729Y01595D03*
X02707Y01608D03*
X02336Y01791D03*
X03374Y01537D03*
X03291Y0154D03*
X03367Y01551D03*
X03245Y01662D03*
X03188Y01633D03*
X03503Y01548D03*
X0353Y01585D03*
X03503Y01446D03*
X0344Y01471D03*
X03503Y01523D03*
X03471Y01574D03*
X0344D03*
X03852Y01864D03*
X0481Y01833D03*
X03285Y03087D03*
X0297Y01638D03*
X02957Y01628D03*
X03018Y02057D03*
X02241Y02988D03*
X03619D03*
X0108Y01245D03*
X02134Y01942D03*
X04622Y01871D03*
X04584Y01841D03*
X04568Y01888D03*
X0256Y01833D03*
X04369Y01818D03*
X02408Y02063D03*
X01503Y03019D03*
X02604Y0169D03*
Y01659D03*
X036Y03023D03*
X02656Y01742D03*
X02663Y01703D03*
X04623Y02428D03*
Y02428D03*
X03921Y02006D03*
X03177Y02435D03*
X03204Y02378D03*
X0285Y02179D03*
X03761Y01982D03*
X03188Y01736D03*
X028Y01579D03*
X02769Y01485D03*
X02656Y01521D03*
X02663Y01493D03*
X02588Y01667D03*
X02793Y01415D03*
X02496Y01505D03*
X0297Y03023D03*
X0356D03*
X02438Y01595D03*
X04084Y01431D03*
X04269Y01257D03*
X04269Y01265D03*
X04072Y01418D03*
X0234Y0221D03*
Y02206D03*
X01237Y01575D03*
X02154Y01157D03*
X01995Y0146D03*
X03471Y01523D03*
X0346Y01386D03*
X03194Y02171D03*
X04368Y01958D03*
X0444Y01481D03*
X0252Y01903D03*
X01373Y03039D03*
X0169Y03023D03*
X02372Y01777D03*
X04397Y00958D03*
X04133Y00958D03*
Y00958D03*
X03187Y01761D03*
X02785Y01586D03*
X02778Y01462D03*
X02753Y01422D03*
X03501Y02988D03*
X01711Y01528D03*
X01711Y0151D03*
X02029Y01312D03*
X02028Y01312D03*
X02537Y03023D03*
X02556Y02988D03*
X02434Y01359D03*
X02922Y02427D03*
X0267Y01819D03*
Y01817D03*
X0267Y01817D03*
X01261Y01655D03*
X01266Y01197D03*
X03009Y01942D03*
X03521Y03023D03*
X04533Y01352D03*
X02529Y01849D03*
X01679Y0233D03*
X03187Y01812D03*
X02774Y01604D03*
X01356Y01942D03*
X0256Y01703D03*
X03969Y02655D03*
X04952Y00653D03*
X03955Y02464D03*
X0239Y01698D03*
X03219Y01684D03*
X02746Y01812D03*
X03282Y01395D03*
X0132Y01457D03*
X01864Y01775D03*
X05308Y02703D03*
X05507Y02688D03*
X05395Y02596D03*
X05357Y02643D03*
X05145Y02665D03*
X04926Y03098D03*
X04792D03*
X04874Y02949D03*
X04778Y02765D03*
X05507Y02456D03*
X04906Y02548D03*
X05255Y02479D03*
X05092Y02287D03*
X04906Y02391D03*
X0481Y02258D03*
X0465Y02271D03*
X04292Y03106D03*
X0456D03*
X03934Y03122D03*
X03993Y02478D03*
X03983Y02492D03*
X03969Y0269D03*
X03875Y03071D03*
X03836Y03023D03*
X03855Y02988D03*
X03895Y0294D03*
X0449Y02384D03*
X04234D03*
X04623Y02309D03*
X04362Y02254D03*
X0417Y02228D03*
X04003Y02416D03*
X03918Y02444D03*
X03946Y02228D03*
X04746Y02013D03*
X05346Y01893D03*
X04674Y0184D03*
X0417Y02069D03*
X04522Y01833D03*
X04234D03*
X04013Y01982D03*
X0465Y01782D03*
X04822Y01655D03*
X04256Y01726D03*
Y01655D03*
X03954Y01744D03*
X04208Y01691D03*
X03658Y01951D03*
X036Y02065D03*
X03508Y0206D03*
X03466Y01885D03*
X03401Y02171D03*
X03471Y01787D03*
X03503Y01761D03*
Y01659D03*
X03408Y01787D03*
X03377Y01761D03*
X0344Y01659D03*
Y0171D03*
X03295Y02435D03*
X03168Y02265D03*
X03338Y02018D03*
X03029Y03122D03*
X02989Y02988D03*
X03048Y02316D03*
X02954Y02256D03*
X03316Y01871D03*
X03282Y01864D03*
X03338Y01821D03*
X03282Y01812D03*
X03219Y01864D03*
X03138Y01839D03*
X03156Y01812D03*
X02891Y03023D03*
X02812Y0227D03*
X02783Y02704D03*
X02694Y03023D03*
X02769Y01875D03*
X02816Y01865D03*
X03251Y01787D03*
X03326Y01732D03*
X03282Y01761D03*
X03188Y01787D03*
X0297Y01758D03*
X03219Y0171D03*
Y01659D03*
X03178Y0165D03*
X02816Y0179D03*
X02762Y01777D03*
X02729Y01754D03*
X02762Y01683D03*
Y0173D03*
X02753Y01691D03*
X02832Y01676D03*
X02694Y01703D03*
X05476Y01637D03*
X04822Y01585D03*
X04256D03*
X0441Y01541D03*
X04462D03*
X04208Y0162D03*
X04099Y01588D03*
X03626Y01647D03*
Y0153D03*
X04285Y01519D03*
X04774Y01478D03*
X05056Y01429D03*
X04656Y01455D03*
X0385Y01506D03*
X03718Y01511D03*
X04256Y01443D03*
X04208Y01478D03*
X03462Y01642D03*
X03498Y01578D03*
X03408Y01574D03*
X03338Y01596D03*
X04674Y01352D03*
X04553Y01295D03*
X0472Y0126D03*
X04226Y01295D03*
X04108Y01414D03*
X0369Y01401D03*
X04006Y0137D03*
X03882Y01321D03*
X03786Y01191D03*
X05476Y01047D03*
X04702Y01114D03*
X04544Y01063D03*
X05082Y00653D03*
X04167Y00986D03*
X04466Y00356D03*
X03704Y00377D03*
X03503Y01395D03*
X03471Y0142D03*
X0344Y01344D03*
X034Y01412D03*
X03658Y01243D03*
X03504Y01295D03*
X0353Y01231D03*
X03442Y01089D03*
X03338Y01204D03*
X03434Y00854D03*
X03274Y01627D03*
X03259Y01565D03*
X03282Y01497D03*
X03219D03*
X02845Y01647D03*
X02762Y01588D03*
X02707Y01639D03*
X02714Y01544D03*
X03156Y01449D03*
X03259Y01412D03*
X03156Y01395D03*
X03283Y00702D03*
X03113Y00377D03*
X03107Y01155D03*
X03029Y01076D03*
X02826Y01203D03*
X03009Y00877D03*
X02858Y0077D03*
X0277Y01389D03*
X02707Y0147D03*
X02727Y01305D03*
X02773Y00906D03*
X02683Y01305D03*
X0269Y00545D03*
X02655Y03023D03*
X02635Y02988D03*
X02674D03*
X02634Y02625D03*
X02553Y02191D03*
X02547Y01809D03*
X02458Y03023D03*
X0241Y02519D03*
X02399Y02988D03*
X02496Y01777D03*
X02678Y01754D03*
X02643Y01703D03*
X02627D03*
X02592D03*
X02547Y01742D03*
X02541Y01703D03*
X02678Y01652D03*
X02627D03*
X02604Y01623D03*
Y01639D03*
X02458Y01703D03*
X02438Y01652D03*
X02445Y01639D03*
X02222Y03023D03*
X02182Y03086D03*
X01946Y03122D03*
X01848Y03023D03*
X01572D03*
X02281Y02988D03*
X02253Y02511D03*
X02154Y02147D03*
X01995Y02704D03*
X01994Y02136D03*
X01631Y02988D03*
X01828D03*
X01848Y02021D03*
X01454Y03023D03*
X01296Y03086D03*
X01336Y03023D03*
X01513Y02988D03*
X01395D03*
X01013Y03064D03*
X0093Y03068D03*
X00816Y03064D03*
X00342Y02842D03*
X01111Y0269D03*
X0129Y02114D03*
X00792Y02167D03*
X01431Y01987D03*
X00342Y0246D03*
X00332Y02208D03*
X00253Y02031D03*
X00174Y02208D03*
Y0207D03*
X02282Y01951D03*
X0187Y01871D03*
X02195Y01864D03*
X0225Y01782D03*
X01977Y01775D03*
X02358Y0173D03*
X0239Y01635D03*
X01976Y01748D03*
X01936D03*
X01975Y01736D03*
X01936D03*
X01877Y01657D03*
X01838Y01618D03*
X01691Y01871D03*
X0161Y01878D03*
X01713Y01775D03*
X01328Y01807D03*
X01447Y01753D03*
X01386Y01703D03*
X01002Y018D03*
X01241Y01775D03*
X01167Y01753D03*
X0161Y01703D03*
X0132Y01696D03*
X01482Y01657D03*
X00647Y01698D03*
X01281Y01696D03*
X0058Y01686D03*
X00348Y01685D03*
X00611Y01667D03*
X02643Y01595D03*
X02611D03*
X02627D03*
X02592D03*
X02643Y01493D03*
X02525Y01595D03*
Y01544D03*
X02445Y01608D03*
X02458Y01595D03*
X02422D03*
X02496Y01521D03*
X02422Y01493D03*
X02663Y01441D03*
X02681Y00757D03*
X02604Y01403D03*
X02592Y01343D03*
X02591Y01112D03*
X02576Y00748D03*
X02525Y01441D03*
X0245Y01343D03*
X02458Y01124D03*
X02483Y00377D03*
X02406Y01604D03*
X0239Y01588D03*
Y01541D03*
Y01494D03*
X02383Y0139D03*
X02371Y01487D03*
X0225Y01478D03*
X02358Y01446D03*
X01976Y01499D03*
X01936Y01459D03*
X01663Y01541D03*
X01896Y01538D03*
X01907Y01455D03*
X01897Y01526D03*
X01623Y01455D03*
X01226Y0154D03*
X01001Y01519D03*
X01936Y01448D03*
X0145Y01427D03*
X0187Y01423D03*
X01076Y01431D03*
X01322Y01427D03*
X00348Y01433D03*
X0209Y01242D03*
X02029Y01348D03*
X01841Y01155D03*
X02069Y01022D03*
X02416Y00742D03*
Y00545D03*
X0225Y00883D03*
X01962Y00871D03*
X01834Y00917D03*
X0177Y01043D03*
Y00825D03*
X01738Y01274D03*
X01752Y01184D03*
X01642Y01124D03*
X01552Y01177D03*
X00835Y01199D03*
X01273Y01187D03*
X01761Y00395D03*
X0171Y00799D03*
X01419Y00943D03*
X00332Y00929D03*
Y01066D03*
X00253Y01106D03*
X00174Y00929D03*
X01249Y00399D03*
X02481Y01374D03*
X02538Y01153D03*
X01956Y01696D03*
X01962Y00992D03*
X01956Y01618D03*
X02615Y02917D03*
Y01391D03*
X02576Y03023D03*
X02596Y02988D03*
X0344Y01446D03*
X03251Y01472D03*
X02726Y01336D03*
X0338Y01295D03*
X02582Y01855D03*
X01241Y01696D03*
X01185Y01276D03*
X04462Y01352D03*
X04568Y01513D03*
X01729Y03023D03*
X01769D03*
X01552Y02987D03*
X01592Y02561D03*
X03187Y01838D03*
X02785Y01611D03*
X0325Y01838D03*
X028Y01595D03*
X03207Y01787D03*
X03408Y01761D03*
X02769Y01422D03*
X04237Y02419D03*
X04533Y0184D03*
X02383Y01927D03*
X01375Y02711D03*
X03469Y0225D03*
X02251Y0221D03*
Y02209D03*
X03964Y02416D03*
X03259Y01821D03*
X03458Y01844D03*
X02792Y01525D03*
X03777Y02988D03*
X02937Y01173D03*
X0291Y01064D03*
X02678Y01441D03*
X02406Y01525D03*
X02591Y01012D03*
X01976Y0148D03*
X01957Y0149D03*
X00657Y01707D03*
X03757Y03023D03*
X01533Y03073D03*
X02871Y02988D03*
X03235Y01684D03*
X03796Y03023D03*
X02762Y01541D03*
X02753Y01532D03*
X02707Y01557D03*
X02367Y01532D03*
X02402Y02596D03*
X02632Y01062D03*
X01936Y0148D03*
X02466Y01359D03*
Y01343D03*
X04426Y02033D03*
X01987Y01455D03*
X01956Y0148D03*
X02634Y0252D03*
X01956Y0146D03*
X01586Y01455D03*
X02438Y02988D03*
X02359Y03028D03*
X02745Y01367D03*
X03459Y01446D03*
X02195Y01899D03*
X02191Y01551D03*
X04391Y01352D03*
X02536Y01832D03*
X02327Y01832D03*
X01749Y02988D03*
X02785Y01536D03*
X03471Y01684D03*
X02832Y01469D03*
X0465Y01674D03*
X02406Y01557D03*
X01976Y0146D03*
X02529Y01359D03*
X01962Y01364D03*
X02379Y03023D03*
X02434Y01343D03*
X03471Y01369D03*
X0293Y03023D03*
X02544Y01865D03*
X04603Y01352D03*
X04639Y01401D03*
X0235Y01895D03*
X01501Y03074D03*
X0471Y01908D03*
X02852Y03023D03*
X03471Y01838D03*
X02702Y01817D03*
X03344Y02988D03*
X02864Y01785D03*
X00676Y01734D03*
X01076Y01456D03*
X02284Y01112D03*
X01995Y0148D03*
X01992Y01423D03*
X03737Y02943D03*
X01421Y0078D03*
X01418Y01306D03*
X03221Y01631D03*
X00637Y016D03*
X00714Y01667D03*
X04822Y01797D03*
X01808Y03023D03*
X03462Y02988D03*
X03678Y03023D03*
X03541Y02988D03*
X01241Y01511D03*
X0134Y01724D03*
X01281Y01511D03*
X01369Y01686D03*
Y01647D03*
X01184Y01568D03*
X03408Y01864D03*
X0344Y01838D03*
X03219D03*
X03503Y0142D03*
X03282Y01838D03*
X03377Y01369D03*
X03503Y01736D03*
Y01471D03*
X03282Y01787D03*
X03219Y01736D03*
X03494Y01565D03*
X03282Y01736D03*
X0344Y01633D03*
X03282Y01684D03*
X01076Y01507D03*
X04067Y00986D03*
X04431D03*
X04331D03*
X02271Y01295D03*
X00351Y0149D03*
X04359Y00099D03*
X03684Y01121D03*
X02879Y01383D03*
X04299Y01372D03*
X04623Y01534D03*
X01388Y00975D03*
X00912Y01587D03*
X03245Y00852D03*
X00951Y00905D03*
X03936Y00722D03*
X0207Y01502D03*
X02632Y00962D03*
X04938Y01929D03*
X04322Y01232D03*
X02052Y0095D03*
X03574Y00448D03*
X04355Y01401D03*
X03113Y00185D03*
X05145Y02795D03*
X05345Y01638D03*
X01249Y00206D03*
X03957Y00347D03*
X02683Y00722D03*
X02164Y00722D03*
X00149Y01871D03*
X0171Y00732D03*
X03469Y00823D03*
X0358Y01807D03*
X04789Y01222D03*
X01834Y00792D03*
X04335Y001D03*
X01401Y01603D03*
X01421Y01763D03*
X03274Y01009D03*
X00898Y03024D03*
X0495Y02604D03*
X01525Y02311D03*
X00332Y02104D03*
X02454Y02208D03*
X0341Y0223D03*
X01958Y01125D03*
X02733Y02352D03*
X04875Y03066D03*
X00822Y01116D03*
X01929Y00278D03*
X01485Y00946D03*
X00676Y016D03*
X01721Y00525D03*
X00686Y0156D03*
X04702Y00881D03*
X01086Y01346D03*
X00348Y01549D03*
X0259Y00643D03*
X01652Y01956D03*
X03627Y01008D03*
X02584Y01982D03*
X0432Y01832D03*
X03737Y01864D03*
X02773Y01073D03*
X04278Y01902D03*
X0448Y01155D03*
X03416Y02031D03*
X04426Y014D03*
X04773Y0162D03*
X04718Y02555D03*
X03208Y00761D03*
X02685Y01564D03*
X00637Y01721D03*
X02012Y01155D03*
X0169Y00736D03*
X01785Y01458D03*
X00864Y01668D03*
X01698Y00919D03*
X03953Y00998D03*
X04925Y01534D03*
X03763Y02074D03*
X03186Y00984D03*
X03854Y0103D03*
X00174Y01066D03*
X01482Y01557D03*
X05186Y01549D03*
X04518Y02143D03*
X01184Y01549D03*
X02079Y0138D03*
X0167Y00708D03*
X01828Y00727D03*
X01993Y01807D03*
X02379Y00643D03*
X04466Y02845D03*
X04023Y02492D03*
X04387Y02707D03*
X01969Y00817D03*
X02376Y02432D03*
X01885Y00722D03*
X00935Y01273D03*
X03009Y01825D03*
X0356Y0102D03*
X0147Y01953D03*
X01435Y0113D03*
X01683Y01188D03*
X01592Y0108D03*
X02012Y01541D03*
X01382Y01856D03*
X02094Y0184D03*
X00926Y01482D03*
X013Y0149D03*
X01443Y0118D03*
X01208Y0113D03*
Y01469D03*
X00887Y01429D03*
X02115Y02257D03*
X02282Y02013D03*
X0167Y0089D03*
X02003Y01508D03*
X04394Y02409D03*
X04287Y02632D03*
X02584Y01982D03*
X04774Y01726D03*
X04633Y02021D03*
X04745Y01431D03*
X01058Y01482D03*
X01867Y00493D03*
X01649Y01967D03*
X01617Y01787D03*
X04336Y00388D03*
X05082Y00388D03*
X02983Y00377D03*
X05398Y00791D03*
X03442Y00971D03*
X01729Y02021D03*
X03605Y02249D03*
X00537Y02297D03*
X04544Y01194D03*
X01434Y01718D03*
X01179Y01666D03*
X03442Y0097D03*
X02576Y00867D03*
X02768Y02912D03*
X0275Y02438D03*
X02773Y01037D03*
X00686Y0156D03*
X0171Y02988D03*
X03226Y01155D03*
X03737Y01851D03*
X04684Y0126D03*
X04335D03*
X04322Y01229D03*
X0411Y01334D03*
X04952Y01162D03*
X01665Y00753D03*
X006Y02297D03*
X01333Y00812D03*
X01696Y00753D03*
X01342Y01599D03*
X0183Y00623D03*
X00425Y01568D03*
X01471Y01897D03*
X01499Y00825D03*
X05346Y0079D03*
X04952Y00396D03*
X01995Y02834D03*
X02522Y02704D03*
X01738Y02769D03*
X01112Y0282D03*
X05476Y02207D03*
X02483Y00185D03*
X01119Y00302D03*
X0488Y02665D03*
X0383Y02834D03*
X02719Y00684D03*
X02969D03*
X013Y01724D03*
X00809Y01283D03*
X01631Y00298D03*
X03694Y00131D03*
X04414Y00101D03*
X02353Y00281D03*
X02317Y0086D03*
X02209Y01431D03*
X04933Y01029D03*
X04745Y01352D03*
X04822Y01443D03*
X05022Y01029D03*
X02052Y00984D03*
X0356Y00631D03*
X03009Y00645D03*
X00682Y01647D03*
X0058D03*
X04234Y01712D03*
X04208Y01762D03*
X04497Y01401D03*
X04487Y01455D03*
X04522Y02633D03*
X03954Y01511D03*
X01002Y01694D03*
X04522Y01712D03*
X0417Y02123D03*
X01092Y01903D03*
X0121Y00879D03*
X0134Y01539D03*
X03785Y00722D03*
X03434Y0075D03*
X0481Y02382D03*
X03816Y0294D03*
X01905Y00623D03*
X02615Y00545D03*
X04426Y0254D03*
X01578Y01449D03*
X01359Y01511D03*
X0161Y01772D03*
X01482Y01674D03*
X0132Y01511D03*
X01261Y01539D03*
G54D112*
X00017Y00407D02*
Y02848D01*
Y00407D02*
X00411Y00013D01*
X04938*
X05607Y00683*
Y02809*
X05174Y03242D02*
X05607Y02809D01*
X00411Y03242D02*
X05174D01*
X00017Y02848D02*
X00411Y03242D01*
G54D114*
X00765Y00185D03*
X00607D03*
X00844Y00314D03*
X00765D03*
X00607D03*
X00529D03*
X00844Y00185D03*
X00529D03*
G54D115*
X00168Y0178D03*
Y01337D03*
G54D116*
X00326Y0178D03*
Y01337D03*
G54D117*
X04381Y01044D03*
X04117D03*
G54D118*
X04232Y01762D03*
X02745Y01832D03*
X02743Y01817D03*
X02639Y01815D03*
X02801Y01822D03*
X02503Y01849D03*
X02518Y01847D03*
X02655Y01932D03*
X02652Y01953D03*
X02651Y01985D03*
X02598Y01998D03*
X02598Y01981D03*
X02604Y01967D03*
X02665Y01942D03*
X02638Y01973D03*
X02824Y01549D03*
X02805Y01548D03*
X02502Y01789D03*
X0249Y01315D03*
X02485Y018D03*
X02485Y01461D03*
X02444Y01457D03*
X02619Y0143D03*
X0258Y01424D03*
X02424Y0133D03*
X02212Y0136D03*
X01961Y01405D03*
X01484Y00761D03*
X01971Y01295D03*
X02805Y01547D03*
X02734Y01941D03*
X02726Y01946D03*
X02597Y01891D03*
X02574Y01894D03*
X0257Y01906D03*
X02568Y01926D03*
X02566Y01901D03*
X02555Y01922D03*
X02528Y01893D03*
X02562Y01932D03*
X02444Y01939D03*
X02151Y01873D03*
X0269Y01789D03*
X02446Y0175D03*
X02581Y01837D03*
X02622Y01831D03*
X02434Y01742D03*
X02617Y01844D03*
X02614Y01842D03*
X02501Y01724D03*
X02191Y01697D03*
X0257Y01832D03*
X0256Y01837D03*
X02554Y01793D03*
X04091Y0187D03*
X02562Y01807D03*
X02636Y01769D03*
X03219Y01463D03*
X03245Y01404D03*
X0331Y01436D03*
X03215Y01364D03*
X03247Y01396D03*
X02749Y01345D03*
X02772Y0134D03*
X02816Y01353D03*
X02793Y0132D03*
X02777Y01327D03*
X02831Y01345D03*
X02852Y01336D03*
X03304Y01384D03*
X03377Y01474D03*
X03383Y01482D03*
X03377Y01515D03*
X03156Y01681D03*
X03164Y01675D03*
X0291Y01647D03*
X0287Y01611D03*
X02853Y01562D03*
X02867Y01559D03*
X0324Y01733D03*
X03251Y01768D03*
X0338Y01785D03*
X02672Y01857D03*
X0367Y02907D03*
X02816Y01431D03*
X03006Y01569D03*
X03435Y01678D03*
X03426Y01671D03*
X0341Y01659D03*
X03335Y01611D03*
X03255Y016D03*
X0297Y01505D03*
X02881Y01482D03*
X02863Y01483D03*
X02822Y01455D03*
X02801Y0143D03*
X02839Y01426D03*
X0298Y01451D03*
X03063Y01484D03*
X03142Y01499D03*
X03225Y0153D03*
X03395Y01437D03*
X03364Y01399D03*
X03333Y01381D03*
X02768Y01319D03*
X02549Y01854D03*
X02536Y01848D03*
X02597Y0179D03*
X02568Y01358D03*
X02661Y01355D03*
X02679Y02203D03*
X02636Y01385D03*
X02636Y01675D03*
X02621Y01975D03*
X02609Y01314D03*
X02615Y01864D03*
X03571Y03069D03*
X03496Y02591D03*
X03869Y02555D03*
X02438Y01724D03*
X02628Y01884D03*
X02982Y01903D03*
X02418Y01856D03*
X02206Y01811D03*
X01955Y01902D03*
X02282Y03038D03*
X03274Y01345D03*
X02841Y01545D03*
X02863Y0151D03*
X02886Y01499D03*
X02858Y01522D03*
X03012Y01713D03*
X031Y01852D03*
X02312Y0171D03*
X02534Y01748D03*
X0387Y02389D03*
X02647Y01935D03*
X03034Y0207D03*
X02418Y0184D03*
X02597Y0212D03*
X02752Y02744D03*
X02937Y02966D03*
X02978Y01446D03*
X02832Y01416D03*
X03234Y01554D03*
X03156Y01744D03*
X03236Y01729D03*
X03251Y01719D03*
X03186Y01676D03*
X0248Y01776D03*
X02437Y01911D03*
X02445Y01928D03*
X02441Y0192D03*
X02572Y02614D03*
X02518Y02851D03*
X02695Y02812D03*
X02736Y02173D03*
X02568Y01537D03*
X0256Y01514D03*
X02558Y01564D03*
X02998Y01311D03*
X03122Y01317D03*
X03487Y01504D03*
X03746Y01455D03*
X03794Y01278D03*
X01494Y01724D03*
X02694Y0169D03*
X027Y01643D03*
X02617Y01325D03*
X02801Y01273D03*
X02731Y01262D03*
X02753Y01305D03*
X03123Y01284D03*
X02892Y01311D03*
X02945Y01268D03*
X03195Y01349D03*
X03228Y01378D03*
X03442Y0143D03*
X03432Y0146D03*
X03217Y01423D03*
X0306Y01619D03*
X03238Y01527D03*
X02917Y01523D03*
X02945Y01397D03*
X03093Y01378D03*
X02927Y01381D03*
X02584Y01333D03*
X02538Y01296D03*
X02191Y01982D03*
X02184Y02099D03*
X02346Y02008D03*
X02289Y03008D03*
X02487Y01285D03*
X02341Y01998D03*
X02755Y01677D03*
X0254Y01931D03*
X03717Y01224D03*
X02504Y01926D03*
X02733Y01352D03*
X03639Y01875D03*
X02696Y01696D03*
X02533Y01623D03*
X02531Y01639D03*
X02677Y01259D03*
X02676Y01272D03*
X03233Y01241D03*
X02603Y01582D03*
X03533Y01131D03*
X03133Y01654D03*
X02891Y01431D03*
X02894Y01446D03*
X03133Y01489D03*
X02209Y01372D03*
X02193Y01431D03*
X02333Y01347D03*
X02444Y01284D03*
X02505Y01328D03*
X0245Y01649D03*
X02473Y01608D03*
X02481Y01579D03*
X02457Y01574D03*
X02299Y01552D03*
X02489Y01411D03*
X02442Y01566D03*
X02518Y01807D03*
X02574Y01873D03*
X02628Y02068D03*
X02836Y02809D03*
X02845Y02974D03*
X02132Y02002D03*
X02489Y01277D03*
X02413Y01456D03*
X02422Y01639D03*
X02646Y01864D03*
X02655Y01872D03*
X02827Y02089D03*
X03533Y02874D03*
X02665Y01893D03*
X03501Y03005D03*
X03443Y03161D03*
X02566Y01281D03*
X01906Y01998D03*
X02518Y02026D03*
X02725Y02207D03*
X0259Y02176D03*
X02619Y02179D03*
X02379Y02033D03*
X02297Y02048D03*
X03415Y0148D03*
X03168Y01375D03*
X02816Y01305D03*
X02241Y0146D03*
X02562Y0165D03*
X02466Y01764D03*
X02461Y01788D03*
X02442Y02866D03*
X02954Y02964D03*
X0291Y03058D03*
X03496Y02932D03*
X02365Y0183D03*
X0181Y02828D03*
Y02826D03*
X021Y02219D03*
X02261Y01915D03*
X02337Y01833D03*
X01876Y02838D03*
X0235Y01881D03*
X01808Y03005D03*
X02438Y01793D03*
X02693Y0198D03*
X02656Y02078D03*
X02598Y01975D03*
X03281Y02638D03*
X01504Y01818D03*
X02628Y02023D03*
X01729Y02836D03*
X0256Y01521D03*
X03506Y02925D03*
X028Y01604D03*
X02843Y01586D03*
X02941Y01724D03*
X02839Y01619D03*
X02857Y01637D03*
X0321Y01802D03*
X03219Y01824D03*
X02816Y01604D03*
X034Y01525D03*
X03238Y017D03*
X03317Y01627D03*
X03238Y01697D03*
X03377Y01412D03*
X033Y0162D03*
X02694Y01521D03*
X02529Y01346D03*
X02271Y01355D03*
X01396Y01206D03*
X0171Y01199D03*
X02358Y01245D03*
X0235Y02028D03*
X02623Y01872D03*
X02857Y01691D03*
X03408Y01864D03*
X03341Y01759D03*
X0292Y01213D03*
X02607Y01887D03*
X02857Y01723D03*
X02883Y01708D03*
X02656Y01718D03*
X03039Y02268D03*
X03373Y02547D03*
X0349Y02634D03*
X02656Y02235D03*
X02653Y02132D03*
X02336Y0181D03*
X02268Y01834D03*
X02267Y01839D03*
X02236Y01904D03*
X02239Y01935D03*
X02272Y01977D03*
X02294Y01785D03*
X03155Y01601D03*
X0315Y0162D03*
X03133Y01623D03*
X03125Y01667D03*
X03133Y01601D03*
X03142Y01588D03*
X03133Y01559D03*
X02814Y01952D03*
X02986Y01794D03*
X0369Y01808D03*
X0227Y01602D03*
X02623Y01368D03*
X02592Y02859D03*
X02607Y01872D03*
X03556Y02828D03*
X03543Y02897D03*
X04169Y02096D03*
X04273Y01554D03*
X0325Y01488D03*
X03319Y01485D03*
X03483Y01477D03*
X03503Y01744D03*
X03167Y02999D03*
X03048Y02407D03*
X03072Y02837D03*
X04269Y02466D03*
X03927Y02587D03*
X02832Y01509D03*
X01504Y01699D03*
X01475Y01699D03*
X01141Y01689D03*
X013Y01718D03*
X01088Y01622D03*
X01422Y01535D03*
X0164Y01623D03*
X01575Y01621D03*
X01265Y01635D03*
X01198Y01627D03*
X0115Y01627D03*
X01057Y01507D03*
X00909Y01194D03*
X01119Y01411D03*
Y01419D03*
X01097Y01473D03*
X00874Y01581D03*
X00847Y01514D03*
X01405Y01038D03*
X01527Y0102D03*
X01725Y01005D03*
X00676Y01615D03*
X0086Y01625D03*
X00719Y01576D03*
X00768D03*
X00795Y01513D03*
X00637Y01575D03*
X02576Y01336D03*
X02534Y01272D03*
X02512Y01335D03*
X0268Y02839D03*
X0296Y02147D03*
X03009Y01984D03*
X03083Y01956D03*
X03324Y01945D03*
X03243Y01173D03*
X03252Y01138D03*
X03319Y0103D03*
X02743Y01445D03*
X04279Y01599D03*
X04479Y01273D03*
X03581Y01106D03*
X02714Y01403D03*
X02679Y01243D03*
X02592Y01505D03*
X03275Y01794D03*
X03173Y01823D03*
X03311Y01675D03*
X03255Y01609D03*
X03188Y01693D03*
X02715Y01652D03*
X03683Y01588D03*
X01672Y00656D03*
X0171Y0063D03*
X01731Y0069D03*
X01747Y00704D03*
X01428Y01528D03*
X01813Y01437D03*
X02125Y01454D03*
X02177Y01269D03*
X02089Y0118D03*
X02086Y01361D03*
X02641Y01177D03*
X03449Y01681D03*
X03458Y01692D03*
X03597Y01715D03*
X0372Y01758D03*
X0408Y01887D03*
X04426Y0197D03*
X03125Y01481D03*
X03066Y01417D03*
X02927Y01397D03*
X023Y00976D03*
X02143Y01094D03*
X0205Y01246D03*
X02042Y01449D03*
X01959Y01558D03*
X01935Y01501D03*
X0196Y01597D03*
X02061Y01677D03*
X0207Y01556D03*
X02373Y01463D03*
X02456Y01288D03*
X02021Y01046D03*
X02495Y01351D03*
X02715Y0166D03*
X02309Y01785D03*
X02252Y0181D03*
X03503Y01565D03*
X03542Y01557D03*
X03503Y01463D03*
X03519Y01537D03*
X03487Y01573D03*
X0343Y01126D03*
X0349Y01121D03*
X03481Y01087D03*
X04162Y01515D03*
X04874Y0175D03*
X04694Y01619D03*
X04602Y02702D03*
X03324Y03005D03*
X01326Y01305D03*
X04457Y02542D03*
X04482Y02266D03*
X04356Y02296D03*
X04051Y00991D03*
X02601Y01546D03*
X02304Y01062D03*
X02663Y0147D03*
X02657Y01463D03*
X02701Y01305D03*
X0295Y01341D03*
X02706Y01347D03*
X02718Y0132D03*
X02297Y02864D03*
X03202Y01445D03*
X03105Y01401D03*
X02711Y01281D03*
X02701Y01337D03*
X03616Y02824D03*
X0272Y01814D03*
X03251Y01437D03*
X02718Y01336D03*
X02892Y02501D03*
X02864Y0283D03*
X03212Y01308D03*
X03255Y01298D03*
X02255Y00849D03*
X01552Y00791D03*
X03556Y01339D03*
X02889Y01131D03*
X02369Y01038D03*
X01562Y00918D03*
X01736Y00964D03*
X01728Y00857D03*
X04174Y01092D03*
X00677Y01435D03*
X04733Y01772D03*
X04745Y01836D03*
X04285Y01404D03*
X00345Y01509D03*
Y01627D03*
X02743Y01604D03*
Y01572D03*
Y01557D03*
Y01509D03*
Y01478D03*
X02361Y01635D03*
X0279D03*
X02743Y01462D03*
X02399Y01736D03*
X02743Y01746D03*
X0279Y01683D03*
X02598Y01352D03*
X0279Y0173D03*
X02491Y01856D03*
X02361Y01777D03*
X0279D03*
X0232Y0172D03*
X02759Y01828D03*
X02753Y01842D03*
X02629Y01305D03*
X02523D03*
X0232Y01767D03*
X02785Y01834D03*
X02676Y01903D03*
X02476Y01305D03*
Y01903D03*
X02723D03*
X02367Y01862D03*
X02785D03*
X02352D03*
X028Y01854D03*
X02785Y01822D03*
X03379Y01572D03*
X03328Y01673D03*
X0317Y01842D03*
X03493D03*
X03202Y0133D03*
X03462D03*
X03202Y01868D03*
X03462D03*
X0317Y0133D03*
X03493D03*
X03159Y01856D03*
X03505D03*
X01877Y01539D03*
X01838Y01578D03*
X01916Y01657D03*
X01857Y01539D03*
X01838Y01559D03*
X01916Y01637D03*
X01838Y01539D03*
X01936D03*
X01838Y01657D03*
X01877Y01499D03*
X01897D03*
X01798Y01578D03*
Y01618D03*
X01976Y01598D03*
X01897Y01677D03*
X01857Y01499D03*
X01798Y01559D03*
Y01637D03*
X01976Y01578D03*
X01877Y01677D03*
X01956Y01539D03*
X01838Y01499D03*
X01798Y01539D03*
X01936Y01519D03*
X01798Y01657D03*
X01976Y01559D03*
X01857Y01696D03*
X01995Y01637D03*
X01877Y0148D03*
X01897D03*
X01877Y01696D03*
X01897D03*
X01779Y01578D03*
Y01618D03*
X01857Y0148D03*
X01877Y01716D03*
X01995Y01618D03*
X01818Y01499D03*
X01798Y01519D03*
Y01677D03*
X01976Y01539D03*
X01838Y01696D03*
X01995Y01657D03*
X01779Y01559D03*
Y01637D03*
X01838Y0148D03*
X01857Y01716D03*
X02015Y01637D03*
X01779Y01539D03*
Y01657D03*
X01798Y01499D03*
Y01696D03*
X01995Y01677D03*
X01818Y0148D03*
X01838Y01716D03*
X02015Y01657D03*
X01877Y0146D03*
X01897D03*
X01759Y01578D03*
Y01618D03*
X02015D03*
X01897Y01736D03*
Y01716D03*
X01779Y01519D03*
Y01677D03*
X01857Y0146D03*
X01759Y01559D03*
Y01637D03*
X02035Y01618D03*
X01877Y01736D03*
X01838Y0146D03*
X01759Y01539D03*
Y01657D03*
X02035Y01637D03*
X01857Y01736D03*
X01798Y0148D03*
X01818Y01696D03*
X02015Y01677D03*
X01976Y01696D03*
X01779Y01499D03*
Y01696D03*
X01818Y0146D03*
X01759Y01519D03*
Y01677D03*
X01838Y01736D03*
X02035Y01657D03*
X01779Y0148D03*
Y01716D03*
X01798Y0146D03*
X01759Y01499D03*
Y01696D03*
X01818Y01716D03*
X02035Y01677D03*
Y01499D03*
X01759Y01716D03*
X02035Y01696D03*
X01995Y01736D03*
X01798Y01716D03*
X01759Y01736D03*
X02035Y01716D03*
X00923Y01508D03*
G54D119*
X03322Y02519D03*
X02839Y01419D03*
X02323Y02045D03*
X02329Y02039D03*
X02322Y02057D03*
X01201Y01369D03*
X02448Y0196D03*
X02322Y02519D03*
X02888Y02138D03*
X02322Y01519D03*
X01716Y01948D03*
X01634Y01847D03*
X0276Y02137D03*
X02716Y01748D03*
X04032Y02097D03*
X01043Y0131D03*
X01244Y0189D03*
X02822Y01019D03*
X04822Y02019D03*
X00715Y01596D03*
X02989Y01908D03*
X05014Y02923D03*
X047Y02944D03*
X05322Y02519D03*
X05359Y02385D03*
X05211Y02315D03*
X04822Y02519D03*
X04138Y03102D03*
X04608Y0281D03*
X03932Y02815D03*
X03617Y02541D03*
X05285Y02019D03*
X04913Y01921D03*
X04585Y01935D03*
X04266Y02161D03*
X04322Y02019D03*
X0541Y01765D03*
X04556Y01661D03*
X04088Y01717D03*
X0382Y02158D03*
X03771Y01824D03*
X03746Y01824D03*
X03322Y02044D03*
Y02032D03*
X03284Y02218D03*
X03157Y03104D03*
X03046Y0247D03*
X02994Y01908D03*
X02889Y02675D03*
X03902Y01625D03*
X04822Y01519D03*
X04322Y01513D03*
X03822Y01519D03*
X04925Y01418D03*
X04822Y01339D03*
X04771Y0114D03*
X05322Y01007D03*
X05202Y0057D03*
X04561Y00937D03*
X04624Y00294D03*
X04466Y01179D03*
X03829Y00281D03*
X03399Y00684D03*
X03175Y01048D03*
X03197Y01044D03*
X03218Y00438D03*
X03185Y01044D03*
X02927Y00644D03*
X02822Y00519D03*
X02724Y01107D03*
X02469Y0225D03*
X02064Y02995D03*
X02282Y02123D03*
X01984Y02555D03*
X01835Y02162D03*
X01353Y03026D03*
X01515Y02949D03*
X01163Y03102D03*
X01235Y02722D03*
X00921Y02204D03*
X01322Y02019D03*
X00341Y02651D03*
X02308Y01932D03*
X02375Y01674D03*
X00896Y01838D03*
X00471Y01753D03*
X02611Y00895D03*
X02622Y00399D03*
X02449Y00884D03*
X00822Y01519D03*
X02303Y01202D03*
X01955Y01088D03*
X02322Y00519D03*
X0209Y00844D03*
X01822Y01019D03*
X01892Y00695D03*
X01879Y00291D03*
X00483Y01336D03*
X00775Y01325D03*
X01695Y01007D03*
X01437Y01098D03*
X01346Y00888D03*
X0133Y00296D03*
X00295Y00702D03*
G54D120*
X04751Y01691D03*
X04355Y01911D03*
X0471Y01483D03*
X00962Y02998D03*
X0403Y02676D03*
X04091Y02425D03*
X03835Y02444D03*
X00514Y02167D03*
G54D121*
X01696Y00753D03*
X01665D03*
Y00781D03*
X01696D03*
M02*