%FSTAX23Y23*%
%MOIN*%
%SFA1B1*%

%IPPOS*%
%ADD10C,0.009843*%
%ADD12C,0.007874*%
%ADD17C,0.005905*%
%ADD18C,0.000394*%
%LNmain_board-1*%
%LPD*%
G54D10*
X0212Y01982D02*
D01*
X0212Y01982*
X0212Y01982*
X0212Y01983*
X0212Y01983*
X0212Y01983*
X0212Y01984*
X0212Y01984*
X02119Y01984*
X02119Y01985*
X02119Y01985*
X02119Y01985*
X02119Y01985*
X02118Y01986*
X02118Y01986*
X02118Y01986*
X02117Y01986*
X02117Y01986*
X02117Y01986*
X02116Y01987*
X02116Y01987*
X02116Y01987*
X02115Y01987*
X02115*
X02115Y01987*
X02114Y01987*
X02114Y01987*
X02114Y01986*
X02113Y01986*
X02113Y01986*
X02113Y01986*
X02113Y01986*
X02112Y01986*
X02112Y01985*
X02112Y01985*
X02112Y01985*
X02111Y01985*
X02111Y01984*
X02111Y01984*
X02111Y01984*
X02111Y01983*
X02111Y01983*
X0211Y01983*
X0211Y01982*
X0211Y01982*
X0211Y01982*
X0211Y01981*
X0211Y01981*
X0211Y01981*
X02111Y0198*
X02111Y0198*
X02111Y0198*
X02111Y01979*
X02111Y01979*
X02111Y01979*
X02112Y01979*
X02112Y01978*
X02112Y01978*
X02112Y01978*
X02113Y01978*
X02113Y01977*
X02113Y01977*
X02113Y01977*
X02114Y01977*
X02114Y01977*
X02114Y01977*
X02115Y01977*
X02115Y01977*
X02115*
X02116Y01977*
X02116Y01977*
X02116Y01977*
X02117Y01977*
X02117Y01977*
X02117Y01977*
X02118Y01977*
X02118Y01978*
X02118Y01978*
X02119Y01978*
X02119Y01978*
X02119Y01979*
X02119Y01979*
X02119Y01979*
X0212Y01979*
X0212Y0198*
X0212Y0198*
X0212Y0198*
X0212Y01981*
X0212Y01981*
X0212Y01981*
X0212Y01982*
X04337Y01554D02*
D01*
X04337Y01554*
X04337Y01554*
X04337Y01555*
X04337Y01555*
X04336Y01555*
X04336Y01556*
X04336Y01556*
X04336Y01556*
X04336Y01556*
X04336Y01557*
X04335Y01557*
X04335Y01557*
X04335Y01557*
X04335Y01558*
X04334Y01558*
X04334Y01558*
X04334Y01558*
X04333Y01558*
X04333Y01558*
X04333Y01558*
X04332Y01558*
X04332Y01559*
X04332*
X04331Y01558*
X04331Y01558*
X04331Y01558*
X0433Y01558*
X0433Y01558*
X0433Y01558*
X04329Y01558*
X04329Y01558*
X04329Y01557*
X04329Y01557*
X04328Y01557*
X04328Y01557*
X04328Y01556*
X04328Y01556*
X04327Y01556*
X04327Y01556*
X04327Y01555*
X04327Y01555*
X04327Y01555*
X04327Y01554*
X04327Y01554*
X04327Y01554*
X04327Y01553*
X04327Y01553*
X04327Y01553*
X04327Y01552*
X04327Y01552*
X04327Y01552*
X04327Y01551*
X04328Y01551*
X04328Y01551*
X04328Y0155*
X04328Y0155*
X04329Y0155*
X04329Y0155*
X04329Y0155*
X04329Y01549*
X0433Y01549*
X0433Y01549*
X0433Y01549*
X04331Y01549*
X04331Y01549*
X04331Y01549*
X04332Y01549*
X04332*
X04332Y01549*
X04333Y01549*
X04333Y01549*
X04333Y01549*
X04334Y01549*
X04334Y01549*
X04334Y01549*
X04335Y0155*
X04335Y0155*
X04335Y0155*
X04335Y0155*
X04336Y0155*
X04336Y01551*
X04336Y01551*
X04336Y01551*
X04336Y01552*
X04336Y01552*
X04337Y01552*
X04337Y01553*
X04337Y01553*
X04337Y01553*
X04337Y01554*
G54D12*
X01291Y01341D02*
Y01391D01*
X01341Y01341D02*
Y01391D01*
X02669Y01234D02*
Y01284D01*
X02719Y01234D02*
Y01284D01*
X02518Y01437D02*
Y01471D01*
X02563Y01437D02*
Y01471D01*
X02436Y01739D02*
Y01773D01*
X0248Y01739D02*
Y01773D01*
X0264Y01632D02*
Y01666D01*
X02685Y01632D02*
Y01666D01*
X02236Y01864D02*
Y01914D01*
X02286Y01864D02*
Y01914D01*
X01558Y01485D02*
Y01519D01*
X01602Y01485D02*
Y01519D01*
X00949Y01401D02*
X01005D01*
X00949Y0146D02*
X01005D01*
X00872Y01169D02*
X00922D01*
X00872Y01219D02*
X00922D01*
X02598Y01172D02*
X02632D01*
X02598Y01217D02*
X02632D01*
X02882Y01605D02*
X02924D01*
X02882Y0165D02*
X02924D01*
X03576Y01566D02*
Y0161D01*
X03623Y01566D02*
Y0161D01*
X02632Y01925D02*
Y01959D01*
X02677Y01925D02*
Y01959D01*
X02357Y01689D02*
Y01723D01*
X02401Y01689D02*
Y01723D01*
X04598Y01695D02*
Y01745D01*
X04648Y01695D02*
Y01745D01*
X04601Y01571D02*
Y01605D01*
X04645Y01571D02*
Y01605D01*
X03583Y01763D02*
X03617D01*
X03583Y01807D02*
X03617D01*
X01907Y01839D02*
X01957D01*
X01907Y01889D02*
X01957D01*
X02486Y01967D02*
X02536D01*
X02486Y01918D02*
X02536D01*
X0276Y01862D02*
X02809D01*
X0276Y01912D02*
X02809D01*
X03417Y01298D02*
X03467D01*
X03417Y01248D02*
X03467D01*
X01727Y0184D02*
X01771D01*
X01727Y01887D02*
X01771D01*
X01567Y01617D02*
Y01666D01*
X01617Y01617D02*
Y01666D01*
X01277Y01721D02*
X01327D01*
X01277Y0177D02*
X01327D01*
X04419Y01408D02*
X04453D01*
X04419Y01453D02*
X04453D01*
X02063Y02002D02*
X02087D01*
X02063Y01961D02*
X02087D01*
X01649Y01742D02*
Y01767D01*
X01692Y01742D02*
Y01767D01*
X04197Y01747D02*
Y01797D01*
X04246Y01747D02*
Y01797D01*
X04762Y01747D02*
Y01797D01*
X04811Y01747D02*
Y01797D01*
X04482Y01747D02*
Y01797D01*
X04531Y01747D02*
Y01797D01*
X02097Y01645D02*
X0213D01*
X02097Y01689D02*
X0213D01*
X0099Y01563D02*
X0104D01*
X0099Y01613D02*
X0104D01*
X04526Y01497D02*
Y01522D01*
X04484Y01497D02*
Y01522D01*
X04172Y01369D02*
Y01394D01*
X04129Y01369D02*
Y01394D01*
X04307Y01488D02*
Y01531D01*
X04388Y01488D02*
Y01531D01*
X00821Y01422D02*
Y01463D01*
X00867Y01422D02*
Y01463D01*
X02197Y01695D02*
Y01745D01*
X02246Y01695D02*
Y01745D01*
X0166Y01406D02*
X01709D01*
X0166Y01455D02*
X01709D01*
X01502Y01406D02*
X01552D01*
X01502Y01455D02*
X01552D01*
X02222Y01298D02*
X02272D01*
X02222Y01248D02*
X02272D01*
X02852Y01406D02*
X02902D01*
X02852Y01455D02*
X02902D01*
X02762Y01248D02*
X02812D01*
X02762Y01298D02*
X02812D01*
X02959Y01288D02*
X03008D01*
X02959Y01337D02*
X03008D01*
X02994Y0151D02*
Y0156D01*
X02945Y0151D02*
Y0156D01*
X03285Y01298D02*
X03335D01*
X03285Y01248D02*
X03335D01*
X01337Y01143D02*
Y01167D01*
X01295Y01143D02*
Y01167D01*
X01097Y01414D02*
Y01448D01*
X01141Y01414D02*
Y01448D01*
X0185Y0161D02*
Y01644D01*
X01806Y0161D02*
Y01644D01*
X01907Y01406D02*
X01957D01*
X01907Y01455D02*
X01957D01*
X01948Y01615D02*
Y01649D01*
X01992Y01615D02*
Y01649D01*
X04693Y01407D02*
X04736D01*
X04693Y01454D02*
X04736D01*
X02394Y01892D02*
Y01942D01*
X02443Y01892D02*
Y01942D01*
X01968Y01295D02*
Y01329D01*
X01924Y01295D02*
Y01329D01*
X02458Y01524D02*
X02508D01*
X02458Y01574D02*
X02508D01*
X01212Y01313D02*
Y01363D01*
X01262Y01313D02*
Y01363D01*
X0165Y01527D02*
X01712D01*
X0165Y01585D02*
X01712D01*
X02015Y01299D02*
Y0136D01*
X02072Y01299D02*
Y0136D01*
X01447Y01533D02*
Y01589D01*
X01506Y01533D02*
Y01589D01*
X01886Y01536D02*
Y01586D01*
X01936Y01536D02*
Y01586D01*
X01999Y01613D02*
X02083D01*
X01999Y01529D02*
X02083D01*
X01331Y01617D02*
Y01666D01*
X0138Y01617D02*
Y01666D01*
X01778Y0177D02*
X01827D01*
X01778Y01721D02*
X01827D01*
X01816Y0114D02*
Y01165D01*
X01773Y0114D02*
Y01165D01*
X02644Y01822D02*
X02758D01*
X02644Y01747D02*
X02758D01*
X02472Y01629D02*
X02587D01*
X02472Y01704D02*
X02587D01*
X02564Y01519D02*
X02619D01*
X02564Y01578D02*
X02619D01*
X02723Y01642D02*
X02772D01*
X02723Y01692D02*
X02772D01*
X02408Y01445D02*
X02457D01*
X02408Y01495D02*
X02457D01*
X02604Y01445D02*
X02654D01*
X02604Y01495D02*
X02654D01*
X02537Y01327D02*
X02587D01*
X02537Y01377D02*
X02587D01*
X02329Y01563D02*
X02379D01*
X02329Y01613D02*
X02379D01*
X03403Y01406D02*
X03453D01*
X03403Y01455D02*
X03453D01*
X02485Y01795D02*
X0254D01*
X02485Y01854D02*
X0254D01*
X03285Y01406D02*
X03335D01*
X03285Y01455D02*
X03335D01*
X03116Y01484D02*
X03166D01*
X03116Y01534D02*
X03166D01*
X03299Y0151D02*
Y0156D01*
X03349Y0151D02*
Y0156D01*
X03156Y01406D02*
X03205D01*
X03156Y01455D02*
X03205D01*
X03223Y01492D02*
Y01526D01*
X03267Y01492D02*
Y01526D01*
X03496Y01498D02*
Y01548D01*
X03546Y01498D02*
Y01548D01*
X03403Y01524D02*
X03453D01*
X03403Y01574D02*
X03453D01*
X0234Y01799D02*
X0239D01*
X0234Y01849D02*
X0239D01*
X03156Y01327D02*
X03205D01*
X03156Y01377D02*
X03205D01*
X03206Y01799D02*
X03256D01*
X03206Y01849D02*
X03256D01*
X03511Y01615D02*
Y0167D01*
X03452Y01615D02*
Y0167D01*
X03352Y01839D02*
X03402D01*
X03352Y01889D02*
X03402D01*
X03325Y01603D02*
X03374D01*
X03325Y01652D02*
X03374D01*
X03142Y01563D02*
Y01613D01*
X03191Y01563D02*
Y01613D01*
X02691Y01504D02*
Y01538D01*
X02736Y01504D02*
Y01538D01*
X03299Y01735D02*
Y01784D01*
X03349Y01735D02*
Y01784D01*
X02275Y01392D02*
Y01441D01*
X02325Y01392D02*
Y01441D01*
X03242Y01677D02*
X03297D01*
X03242Y01736D02*
X03297D01*
X03417Y01735D02*
Y01784D01*
X03467Y01735D02*
Y01784D01*
X03088Y01642D02*
X03138D01*
X03088Y01692D02*
X03138D01*
X03142Y01735D02*
Y01784D01*
X03191Y01735D02*
Y01784D01*
G54D17*
X04103Y0157D02*
X04119D01*
X02174Y01881D02*
X0219D01*
X04054Y01423D02*
Y01438D01*
X02844Y01767D02*
X02859D01*
X0122Y0158D02*
Y01596D01*
X01338Y01462D02*
Y01478D01*
X01171Y01736D02*
X01187D01*
X01451D02*
X01467D01*
G54D18*
X03177Y0149D02*
X03179Y01492D01*
X03183*
X03185Y0149*
Y01482*
X03183Y0148*
X03179*
X03177Y01482*
X03174Y0148D02*
X0317D01*
X03172*
Y01492*
X03174Y0149*
X03164D02*
X03162Y01492D01*
X03158*
X03156Y0149*
Y01482*
X03158Y0148*
X03162*
X03164Y01482*
Y0149*
X03146Y0148D02*
Y01492D01*
X03152Y01486*
X03144*
X03329Y01602D02*
X03331Y01604D01*
X03335*
X03337Y01602*
Y01594*
X03335Y01592*
X03331*
X03329Y01594*
X03326Y01592D02*
X03322D01*
X03324*
Y01604*
X03326Y01602*
X03316D02*
X03314Y01604D01*
X0331*
X03308Y01602*
Y01594*
X0331Y01592*
X03314*
X03316Y01594*
Y01602*
X03304D02*
X03302Y01604D01*
X03298*
X03296Y01602*
Y016*
X03298Y01598*
X033*
X03298*
X03296Y01596*
Y01594*
X03298Y01592*
X03302*
X03304Y01594*
X03138Y01568D02*
X0314Y0157D01*
X03144*
X03146Y01568*
Y0156*
X03144Y01558*
X0314*
X03138Y0156*
X03135Y01558D02*
X03131D01*
X03133*
Y0157*
X03135Y01568*
X03125D02*
X03123Y0157D01*
X03119*
X03117Y01568*
Y0156*
X03119Y01558*
X03123*
X03125Y0156*
Y01568*
X03105Y01558D02*
X03113D01*
X03105Y01566*
Y01568*
X03107Y0157*
X03111*
X03113Y01568*
X03303Y0149D02*
X03305Y01492D01*
X03309*
X03311Y0149*
Y01482*
X03309Y0148*
X03305*
X03303Y01482*
X033Y0148D02*
X03296D01*
X03298*
Y01492*
X033Y0149*
X0329D02*
X03288Y01492D01*
X03284*
X03282Y0149*
Y01482*
X03284Y0148*
X03288*
X0329Y01482*
Y0149*
X03278Y0148D02*
X03274D01*
X03276*
Y01492*
X03278Y0149*
X03425D02*
X03427Y01492D01*
X03431*
X03433Y0149*
Y01482*
X03431Y0148*
X03427*
X03425Y01482*
X03422Y0148D02*
X03418D01*
X0342*
Y01492*
X03422Y0149*
X03412D02*
X0341Y01492D01*
X03406*
X03404Y0149*
Y01482*
X03406Y0148*
X0341*
X03412Y01482*
Y0149*
X034D02*
X03398Y01492D01*
X03394*
X03392Y0149*
Y01482*
X03394Y0148*
X03398*
X034Y01482*
Y0149*
X025Y01888D02*
X02502Y0189D01*
X02506*
X02508Y01888*
Y0188*
X02506Y01878*
X02502*
X025Y0188*
X02497D02*
X02495Y01878D01*
X02491*
X02489Y0188*
Y01888*
X02491Y0189*
X02495*
X02497Y01888*
Y01886*
X02495Y01884*
X02489*
X02485Y0188D02*
X02483Y01878D01*
X02479*
X02477Y0188*
Y01888*
X02479Y0189*
X02483*
X02485Y01888*
Y01886*
X02483Y01884*
X02477*
X04323Y01596D02*
Y01594D01*
X04319Y0159*
X04315Y01594*
Y01596*
X04319Y0159D02*
Y01584D01*
X04304D02*
X04312D01*
X04304Y01592*
Y01594*
X04306Y01596*
X0431*
X04312Y01594*
X02006Y01649D02*
Y01647D01*
X02002Y01643*
X01998Y01647*
Y01649*
X02002Y01643D02*
Y01637D01*
X01995D02*
X01991D01*
X01993*
Y01649*
X01995Y01647*
X02463Y01801D02*
Y01813D01*
X02457*
X02455Y01811*
Y01807*
X02457Y01805*
X02463*
X02459D02*
X02455Y01801D01*
X02452Y01813D02*
X02444D01*
Y01811*
X02452Y01803*
Y01801*
X0244Y01811D02*
X02438Y01813D01*
X02434*
X02432Y01811*
Y01809*
X02434Y01807*
X02432Y01805*
Y01803*
X02434Y01801*
X02438*
X0244Y01803*
Y01805*
X02438Y01807*
X0244Y01809*
Y01811*
X02438Y01807D02*
X02434D01*
X02668Y01694D02*
Y01706D01*
X02662*
X0266Y01704*
Y017*
X02662Y01698*
X02668*
X02664D02*
X0266Y01694D01*
X02657Y01706D02*
X02649D01*
Y01704*
X02657Y01696*
Y01694*
X02645Y01706D02*
X02637D01*
Y01704*
X02645Y01696*
Y01694*
X01975Y01677D02*
Y01689D01*
X01969*
X01967Y01687*
Y01683*
X01969Y01681*
X01975*
X01971D02*
X01967Y01677D01*
X01956Y01689D02*
X0196Y01687D01*
X01964Y01683*
Y01679*
X01962Y01677*
X01958*
X01956Y01679*
Y01681*
X01958Y01683*
X01964*
X01952Y01687D02*
X0195Y01689D01*
X01946*
X01944Y01687*
Y01685*
X01946Y01683*
X01944Y01681*
Y01679*
X01946Y01677*
X0195*
X01952Y01679*
Y01681*
X0195Y01683*
X01952Y01685*
Y01687*
X0195Y01683D02*
X01946D01*
X0181Y01469D02*
Y01481D01*
X01804*
X01802Y01479*
Y01475*
X01804Y01473*
X0181*
X01806D02*
X01802Y01469D01*
X01791Y01481D02*
X01795Y01479D01*
X01799Y01475*
Y01471*
X01797Y01469*
X01793*
X01791Y01471*
Y01473*
X01793Y01475*
X01799*
X01787Y01481D02*
X01779D01*
Y01479*
X01787Y01471*
Y01469*
X02037Y01784D02*
Y01796D01*
X02031*
X02029Y01794*
Y0179*
X02031Y01788*
X02037*
X02033D02*
X02029Y01784D01*
X02018Y01796D02*
X02022Y01794D01*
X02026Y0179*
Y01786*
X02024Y01784*
X0202*
X02018Y01786*
Y01788*
X0202Y0179*
X02026*
X02006Y01796D02*
X0201Y01794D01*
X02014Y0179*
Y01786*
X02012Y01784*
X02008*
X02006Y01786*
Y01788*
X02008Y0179*
X02014*
X00877Y01686D02*
Y01698D01*
X00871*
X00869Y01696*
Y01692*
X00871Y0169*
X00877*
X00873D02*
X00869Y01686D01*
X00858Y01698D02*
X00862Y01696D01*
X00866Y01692*
Y01688*
X00864Y01686*
X0086*
X00858Y01688*
Y0169*
X0086Y01692*
X00866*
X00846Y01698D02*
X00854D01*
Y01692*
X0085Y01694*
X00848*
X00846Y01692*
Y01688*
X00848Y01686*
X00852*
X00854Y01688*
X03606Y01831D02*
Y01843D01*
X036*
X03598Y01841*
Y01837*
X036Y01835*
X03606*
X03602D02*
X03598Y01831D01*
X03587Y01843D02*
X03591Y01841D01*
X03595Y01837*
Y01833*
X03593Y01831*
X03589*
X03587Y01833*
Y01835*
X03589Y01837*
X03595*
X03583Y01841D02*
X03581Y01843D01*
X03577*
X03575Y01841*
Y01839*
X03577Y01837*
X03579*
X03577*
X03575Y01835*
Y01833*
X03577Y01831*
X03581*
X03583Y01833*
X02384Y01751D02*
Y01763D01*
X02378*
X02376Y01761*
Y01757*
X02378Y01755*
X02384*
X0238D02*
X02376Y01751D01*
X02365Y01763D02*
X02369Y01761D01*
X02373Y01757*
Y01753*
X02371Y01751*
X02367*
X02365Y01753*
Y01755*
X02367Y01757*
X02373*
X02353Y01751D02*
X02361D01*
X02353Y01759*
Y01761*
X02355Y01763*
X02359*
X02361Y01761*
X02656Y01987D02*
Y01999D01*
X0265*
X02648Y01997*
Y01993*
X0265Y01991*
X02656*
X02652D02*
X02648Y01987D01*
X02637Y01999D02*
X02641Y01997D01*
X02645Y01993*
Y01989*
X02643Y01987*
X02639*
X02637Y01989*
Y01991*
X02639Y01993*
X02645*
X02633Y01987D02*
X02629D01*
X02631*
Y01999*
X02633Y01997*
X0101Y01637D02*
Y01649D01*
X01004*
X01002Y01647*
Y01643*
X01004Y01641*
X0101*
X01006D02*
X01002Y01637D01*
X00991Y01649D02*
X00999D01*
Y01643*
X00995Y01645*
X00993*
X00991Y01643*
Y01639*
X00993Y01637*
X00997*
X00999Y01639*
X00987D02*
X00985Y01637D01*
X00981*
X00979Y01639*
Y01647*
X00981Y01649*
X00985*
X00987Y01647*
Y01645*
X00985Y01643*
X00979*
X0212Y01713D02*
Y01725D01*
X02114*
X02112Y01723*
Y01719*
X02114Y01717*
X0212*
X02116D02*
X02112Y01713D01*
X02101Y01725D02*
X02109D01*
Y01719*
X02105Y01721*
X02103*
X02101Y01719*
Y01715*
X02103Y01713*
X02107*
X02109Y01715*
X02097Y01725D02*
X02089D01*
Y01723*
X02097Y01715*
Y01713*
X02635Y01926D02*
Y01938D01*
X02629*
X02627Y01936*
Y01932*
X02629Y0193*
X02635*
X02631D02*
X02627Y01926D01*
X02616Y01938D02*
X02624D01*
Y01932*
X0262Y01934*
X02618*
X02616Y01932*
Y01928*
X02618Y01926*
X02622*
X02624Y01928*
X02604Y01938D02*
X02608Y01936D01*
X02612Y01932*
Y01928*
X0261Y01926*
X02606*
X02604Y01928*
Y0193*
X02606Y01932*
X02612*
X00848Y01494D02*
Y01506D01*
X00842*
X0084Y01504*
Y015*
X00842Y01498*
X00848*
X00844D02*
X0084Y01494D01*
X00829Y01506D02*
X00837D01*
Y015*
X00833Y01502*
X00831*
X00829Y015*
Y01496*
X00831Y01494*
X00835*
X00837Y01496*
X00817Y01506D02*
X00825D01*
Y015*
X00821Y01502*
X00819*
X00817Y015*
Y01496*
X00819Y01494*
X00823*
X00825Y01496*
X02798Y01422D02*
Y01434D01*
X02792*
X0279Y01432*
Y01428*
X02792Y01426*
X02798*
X02794D02*
X0279Y01422D01*
X02779Y01434D02*
X02787D01*
Y01428*
X02783Y0143*
X02781*
X02779Y01428*
Y01424*
X02781Y01422*
X02785*
X02787Y01424*
X02769Y01422D02*
Y01434D01*
X02775Y01428*
X02767*
X02829Y01581D02*
Y01593D01*
X02823*
X02821Y01591*
Y01587*
X02823Y01585*
X02829*
X02825D02*
X02821Y01581D01*
X0281Y01593D02*
X02818D01*
Y01587*
X02814Y01589*
X02812*
X0281Y01587*
Y01583*
X02812Y01581*
X02816*
X02818Y01583*
X02806Y01591D02*
X02804Y01593D01*
X028*
X02798Y01591*
Y01589*
X028Y01587*
X02802*
X028*
X02798Y01585*
Y01583*
X028Y01581*
X02804*
X02806Y01583*
X02707Y01421D02*
Y01433D01*
X02701*
X02699Y01431*
Y01427*
X02701Y01425*
X02707*
X02703D02*
X02699Y01421D01*
X02688Y01433D02*
X02696D01*
Y01427*
X02692Y01429*
X0269*
X02688Y01427*
Y01423*
X0269Y01421*
X02694*
X02696Y01423*
X02676Y01421D02*
X02684D01*
X02676Y01429*
Y01431*
X02678Y01433*
X02682*
X02684Y01431*
X02618Y01241D02*
Y01253D01*
X02612*
X0261Y01251*
Y01247*
X02612Y01245*
X02618*
X02614D02*
X0261Y01241D01*
X02599Y01253D02*
X02607D01*
Y01247*
X02603Y01249*
X02601*
X02599Y01247*
Y01243*
X02601Y01241*
X02605*
X02607Y01243*
X02595Y01241D02*
X02591D01*
X02593*
Y01253*
X02595Y01251*
X01522Y0148D02*
Y01492D01*
X01516*
X01514Y0149*
Y01486*
X01516Y01484*
X01522*
X01518D02*
X01514Y0148D01*
X01505D02*
Y01492D01*
X01511Y01486*
X01503*
X01499Y01492D02*
X01491D01*
Y0149*
X01499Y01482*
Y0148*
X02242Y01322D02*
Y01334D01*
X02236*
X02234Y01332*
Y01328*
X02236Y01326*
X02242*
X02238D02*
X02234Y01322D01*
X02225D02*
Y01334D01*
X02231Y01328*
X02223*
X02211Y01334D02*
X02215Y01332D01*
X02219Y01328*
Y01324*
X02217Y01322*
X02213*
X02211Y01324*
Y01326*
X02213Y01328*
X02219*
X01928Y01824D02*
Y01836D01*
X01922*
X0192Y01834*
Y0183*
X01922Y01828*
X01928*
X01924D02*
X0192Y01824D01*
X01911D02*
Y01836D01*
X01917Y0183*
X01909*
X01899Y01824D02*
Y01836D01*
X01905Y0183*
X01897*
X02076Y01469D02*
Y01481D01*
X0207*
X02068Y01479*
Y01475*
X0207Y01473*
X02076*
X02072D02*
X02068Y01469D01*
X02059D02*
Y01481D01*
X02065Y01475*
X02057*
X02053Y01479D02*
X02051Y01481D01*
X02047*
X02045Y01479*
Y01477*
X02047Y01475*
X02049*
X02047*
X02045Y01473*
Y01471*
X02047Y01469*
X02051*
X02053Y01471*
X02719Y01566D02*
Y01578D01*
X02713*
X02711Y01576*
Y01572*
X02713Y0157*
X02719*
X02715D02*
X02711Y01566D01*
X02702D02*
Y01578D01*
X02708Y01572*
X027*
X02696Y01576D02*
X02694Y01578D01*
X0269*
X02688Y01576*
Y01568*
X0269Y01566*
X02694*
X02696Y01568*
Y01576*
X03251Y01554D02*
Y01566D01*
X03245*
X03243Y01564*
Y0156*
X03245Y01558*
X03251*
X03247D02*
X03243Y01554D01*
X0324Y01564D02*
X03238Y01566D01*
X03234*
X03232Y01564*
Y01562*
X03234Y0156*
X03236*
X03234*
X03232Y01558*
Y01556*
X03234Y01554*
X03238*
X0324Y01556*
X03228D02*
X03226Y01554D01*
X03222*
X0322Y01556*
Y01564*
X03222Y01566*
X03226*
X03228Y01564*
Y01562*
X03226Y0156*
X0322*
X02546Y01499D02*
Y01511D01*
X0254*
X02538Y01509*
Y01505*
X0254Y01503*
X02546*
X02542D02*
X02538Y01499D01*
X02535Y01509D02*
X02533Y01511D01*
X02529*
X02527Y01509*
Y01507*
X02529Y01505*
X02531*
X02529*
X02527Y01503*
Y01501*
X02529Y01499*
X02533*
X02535Y01501*
X02523Y01511D02*
X02515D01*
Y01509*
X02523Y01501*
Y01499*
X01581Y01547D02*
Y01559D01*
X01575*
X01573Y01557*
Y01553*
X01575Y01551*
X01581*
X01577D02*
X01573Y01547D01*
X0157Y01557D02*
X01568Y01559D01*
X01564*
X01562Y01557*
Y01555*
X01564Y01553*
X01566*
X01564*
X01562Y01551*
Y01549*
X01564Y01547*
X01568*
X0157Y01549*
X01558Y01547D02*
X01554D01*
X01556*
Y01559*
X01558Y01557*
X01947Y01358D02*
Y0137D01*
X01941*
X01939Y01368*
Y01364*
X01941Y01362*
X01947*
X01943D02*
X01939Y01358D01*
X01928D02*
X01936D01*
X01928Y01366*
Y01368*
X0193Y0137*
X01934*
X01936Y01368*
X01924Y01358D02*
X0192D01*
X01922*
Y0137*
X01924Y01368*
X0124Y01395D02*
Y01407D01*
X01234*
X01232Y01405*
Y01401*
X01234Y01399*
X0124*
X01236D02*
X01232Y01395D01*
X01221D02*
X01229D01*
X01221Y01403*
Y01405*
X01223Y01407*
X01227*
X01229Y01405*
X01217D02*
X01215Y01407D01*
X01211*
X01209Y01405*
Y01397*
X01211Y01395*
X01215*
X01217Y01397*
Y01405*
X02414Y01351D02*
Y01363D01*
X02408*
X02406Y01361*
Y01357*
X02408Y01355*
X02414*
X0241D02*
X02406Y01351D01*
X02403D02*
X02399D01*
X02401*
Y01363*
X02403Y01361*
X02393Y01353D02*
X02391Y01351D01*
X02387*
X02385Y01353*
Y01361*
X02387Y01363*
X02391*
X02393Y01361*
Y01359*
X02391Y01357*
X02385*
X01912Y01618D02*
Y0163D01*
X01906*
X01904Y01628*
Y01624*
X01906Y01622*
X01912*
X01908D02*
X01904Y01618D01*
X01901D02*
X01897D01*
X01899*
Y0163*
X01901Y01628*
X01891D02*
X01889Y0163D01*
X01885*
X01883Y01628*
Y01626*
X01885Y01624*
X01883Y01622*
Y0162*
X01885Y01618*
X01889*
X01891Y0162*
Y01622*
X01889Y01624*
X01891Y01626*
Y01628*
X01889Y01624D02*
X01885D01*
X01831Y01672D02*
Y01684D01*
X01825*
X01823Y01682*
Y01678*
X01825Y01676*
X01831*
X01827D02*
X01823Y01672D01*
X0182D02*
X01816D01*
X01818*
Y01684*
X0182Y01682*
X0181Y01684D02*
X01802D01*
Y01682*
X0181Y01674*
Y01672*
X01925Y0148D02*
Y01492D01*
X01919*
X01917Y0149*
Y01486*
X01919Y01484*
X01925*
X01921D02*
X01917Y0148D01*
X01914D02*
X0191D01*
X01912*
Y01492*
X01914Y0149*
X01896Y01492D02*
X019Y0149D01*
X01904Y01486*
Y01482*
X01902Y0148*
X01898*
X01896Y01482*
Y01484*
X01898Y01486*
X01904*
X01123Y01476D02*
Y01488D01*
X01117*
X01115Y01486*
Y01482*
X01117Y0148*
X01123*
X01119D02*
X01115Y01476D01*
X01112D02*
X01108D01*
X0111*
Y01488*
X01112Y01486*
X01094Y01488D02*
X01102D01*
Y01482*
X01098Y01484*
X01096*
X01094Y01482*
Y01478*
X01096Y01476*
X011*
X01102Y01478*
X04627Y01633D02*
Y01645D01*
X04621*
X04619Y01643*
Y01639*
X04621Y01637*
X04627*
X04623D02*
X04619Y01633D01*
X04616D02*
X04612D01*
X04614*
Y01645*
X04616Y01643*
X046Y01633D02*
Y01645D01*
X04606Y01639*
X04598*
X02898Y01674D02*
Y01686D01*
X02892*
X0289Y01684*
Y0168*
X02892Y01678*
X02898*
X02894D02*
X0289Y01674D01*
X02887D02*
X02883D01*
X02885*
Y01686*
X02887Y01684*
X02877Y01674D02*
X02873D01*
X02875*
Y01686*
X02877Y01684*
X02064Y01903D02*
Y01915D01*
X02058*
X02056Y01913*
Y01909*
X02058Y01907*
X02064*
X0206D02*
X02056Y01903D01*
X02045Y01915D02*
X02049Y01913D01*
X02053Y01909*
Y01905*
X02051Y01903*
X02047*
X02045Y01905*
Y01907*
X02047Y01909*
X02053*
X04431Y01477D02*
Y01489D01*
X04425*
X04423Y01487*
Y01483*
X04425Y01481*
X04431*
X04427D02*
X04423Y01477D01*
X04412Y01489D02*
X0442D01*
Y01483*
X04416Y01485*
X04414*
X04412Y01483*
Y01479*
X04414Y01477*
X04418*
X0442Y01479*
X02494Y01991D02*
Y02003D01*
X02488*
X02486Y02001*
Y01997*
X02488Y01995*
X02494*
X0249D02*
X02486Y01991D01*
X02477D02*
Y02003D01*
X02483Y01997*
X02475*
X02239Y01584D02*
Y01596D01*
X02233*
X02231Y01594*
Y0159*
X02233Y01588*
X02239*
X02235D02*
X02231Y01584D01*
X02228Y01594D02*
X02226Y01596D01*
X02222*
X0222Y01594*
Y01592*
X02222Y0159*
X02224*
X02222*
X0222Y01588*
Y01586*
X02222Y01584*
X02226*
X02228Y01586*
X02768Y01936D02*
Y01948D01*
X02762*
X0276Y01946*
Y01942*
X02762Y0194*
X02768*
X02764D02*
X0276Y01936D01*
X02749D02*
X02757D01*
X02749Y01944*
Y01946*
X02751Y01948*
X02755*
X02757Y01946*
X03421Y01322D02*
Y01334D01*
X03415*
X03413Y01332*
Y01328*
X03415Y01326*
X03421*
X03417D02*
X03413Y01322D01*
X0341D02*
X03406D01*
X03408*
Y01334*
X0341Y01332*
X02066Y02039D02*
Y02027D01*
X02058*
X02055D02*
X02051D01*
X02053*
Y02039*
X02055Y02037*
X04222Y01839D02*
X04224Y01841D01*
X04228*
X0423Y01839*
Y01831*
X04228Y01829*
X04224*
X04222Y01831*
X04219Y01829D02*
X04215D01*
X04217*
Y01841*
X04219Y01839*
X04201Y01841D02*
X04209D01*
Y01835*
X04205Y01837*
X04203*
X04201Y01835*
Y01831*
X04203Y01829*
X04207*
X04209Y01831*
X04197Y01829D02*
X04193D01*
X04195*
Y01841*
X04197Y01839*
X04511D02*
X04513Y01841D01*
X04517*
X04519Y01839*
Y01831*
X04517Y01829*
X04513*
X04511Y01831*
X04508Y01829D02*
X04504D01*
X04506*
Y01841*
X04508Y01839*
X0449Y01841D02*
X04498D01*
Y01835*
X04494Y01837*
X04492*
X0449Y01835*
Y01831*
X04492Y01829*
X04496*
X04498Y01831*
X04486Y01839D02*
X04484Y01841D01*
X0448*
X04478Y01839*
Y01831*
X0448Y01829*
X04484*
X04486Y01831*
Y01839*
X04628Y01787D02*
X0463Y01789D01*
X04634*
X04636Y01787*
Y01779*
X04634Y01777*
X0463*
X04628Y01779*
X04625Y01777D02*
X04621D01*
X04623*
Y01789*
X04625Y01787*
X04609Y01777D02*
Y01789D01*
X04615Y01783*
X04607*
X04603Y01779D02*
X04601Y01777D01*
X04597*
X04595Y01779*
Y01787*
X04597Y01789*
X04601*
X04603Y01787*
Y01785*
X04601Y01783*
X04595*
X01766Y00934D02*
X01768Y00936D01*
X01772*
X01774Y00934*
Y00926*
X01772Y00924*
X01768*
X01766Y00926*
X01763Y00924D02*
X01759D01*
X01761*
Y00936*
X01763Y00934*
X01753D02*
X01751Y00936D01*
X01747*
X01745Y00934*
Y00932*
X01747Y0093*
X01749*
X01747*
X01745Y00928*
Y00926*
X01747Y00924*
X01751*
X01753Y00926*
X01741Y00924D02*
X01737D01*
X01739*
Y00936*
X01741Y00934*
X04716Y01488D02*
X04718Y0149D01*
X04722*
X04724Y01488*
Y0148*
X04722Y01478*
X04718*
X04716Y0148*
X04713Y01478D02*
X04709D01*
X04711*
Y0149*
X04713Y01488*
X04703D02*
X04701Y0149D01*
X04697*
X04695Y01488*
Y01486*
X04697Y01484*
X04699*
X04697*
X04695Y01482*
Y0148*
X04697Y01478*
X04701*
X04703Y0148*
X04691Y01488D02*
X04689Y0149D01*
X04685*
X04683Y01488*
Y0148*
X04685Y01478*
X04689*
X04691Y0148*
Y01488*
X01194Y01802D02*
X01196Y01804D01*
X012*
X01202Y01802*
Y01794*
X012Y01792*
X01196*
X01194Y01794*
X01191Y01792D02*
X01187D01*
X01189*
Y01804*
X01191Y01802*
X01173Y01792D02*
X01181D01*
X01173Y018*
Y01802*
X01175Y01804*
X01179*
X01181Y01802*
X01169Y01794D02*
X01167Y01792D01*
X01163*
X01161Y01794*
Y01802*
X01163Y01804*
X01167*
X01169Y01802*
Y018*
X01167Y01798*
X01161*
X01474Y01802D02*
X01476Y01804D01*
X0148*
X01482Y01802*
Y01794*
X0148Y01792*
X01476*
X01474Y01794*
X01471Y01792D02*
X01467D01*
X01469*
Y01804*
X01471Y01802*
X01453Y01792D02*
X01461D01*
X01453Y018*
Y01802*
X01455Y01804*
X01459*
X01461Y01802*
X01449D02*
X01447Y01804D01*
X01443*
X01441Y01802*
Y018*
X01443Y01798*
X01441Y01796*
Y01794*
X01443Y01792*
X01447*
X01449Y01794*
Y01796*
X01447Y01798*
X01449Y018*
Y01802*
X01447Y01798D02*
X01443D01*
X04513Y01562D02*
X04515Y01564D01*
X04519*
X04521Y01562*
Y01554*
X04519Y01552*
X04515*
X04513Y01554*
X0451Y01552D02*
X04506D01*
X04508*
Y01564*
X0451Y01562*
X04492Y01552D02*
X045D01*
X04492Y0156*
Y01562*
X04494Y01564*
X04498*
X045Y01562*
X04488Y01564D02*
X0448D01*
Y01562*
X04488Y01554*
Y01552*
X04159Y01434D02*
X04161Y01436D01*
X04165*
X04167Y01434*
Y01426*
X04165Y01424*
X04161*
X04159Y01426*
X04156Y01424D02*
X04152D01*
X04154*
Y01436*
X04156Y01434*
X04138Y01424D02*
X04146D01*
X04138Y01432*
Y01434*
X0414Y01436*
X04144*
X04146Y01434*
X04126Y01436D02*
X0413Y01434D01*
X04134Y0143*
Y01426*
X04132Y01424*
X04128*
X04126Y01426*
Y01428*
X04128Y0143*
X04134*
X02226Y01787D02*
X02228Y01789D01*
X02232*
X02234Y01787*
Y01779*
X02232Y01777*
X02228*
X02226Y01779*
X02223Y01777D02*
X02219D01*
X02221*
Y01789*
X02223Y01787*
X02205Y01777D02*
X02213D01*
X02205Y01785*
Y01787*
X02207Y01789*
X02211*
X02213Y01787*
X02193Y01789D02*
X02201D01*
Y01783*
X02197Y01785*
X02195*
X02193Y01783*
Y01779*
X02195Y01777*
X02199*
X02201Y01779*
X00975Y01494D02*
X00977Y01496D01*
X00981*
X00983Y01494*
Y01486*
X00981Y01484*
X00977*
X00975Y01486*
X00972Y01484D02*
X00968D01*
X0097*
Y01496*
X00972Y01494*
X00954Y01484D02*
X00962D01*
X00954Y01492*
Y01494*
X00956Y01496*
X0096*
X00962Y01494*
X00944Y01484D02*
Y01496D01*
X0095Y0149*
X00942*
X00894Y01253D02*
X00896Y01255D01*
X009*
X00902Y01253*
Y01245*
X009Y01243*
X00896*
X00894Y01245*
X00891Y01243D02*
X00887D01*
X00889*
Y01255*
X00891Y01253*
X00873Y01243D02*
X00881D01*
X00873Y01251*
Y01253*
X00875Y01255*
X00879*
X00881Y01253*
X00869D02*
X00867Y01255D01*
X00863*
X00861Y01253*
Y01251*
X00863Y01249*
X00865*
X00863*
X00861Y01247*
Y01245*
X00863Y01243*
X00867*
X00869Y01245*
X04791Y01839D02*
X04793Y01841D01*
X04797*
X04799Y01839*
Y01831*
X04797Y01829*
X04793*
X04791Y01831*
X04788Y01829D02*
X04784D01*
X04786*
Y01841*
X04788Y01839*
X0477Y01829D02*
X04778D01*
X0477Y01837*
Y01839*
X04772Y01841*
X04776*
X04778Y01839*
X04758Y01829D02*
X04766D01*
X04758Y01837*
Y01839*
X0476Y01841*
X04764*
X04766Y01839*
X01677Y0149D02*
X01679Y01492D01*
X01683*
X01685Y0149*
Y01482*
X01683Y0148*
X01679*
X01677Y01482*
X01674Y0148D02*
X0167D01*
X01672*
Y01492*
X01674Y0149*
X01656Y0148D02*
X01664D01*
X01656Y01488*
Y0149*
X01658Y01492*
X01662*
X01664Y0149*
X01652Y0148D02*
X01648D01*
X0165*
Y01492*
X01652Y0149*
X02362Y01883D02*
X02364Y01885D01*
X02368*
X0237Y01883*
Y01875*
X02368Y01873*
X02364*
X02362Y01875*
X02359Y01873D02*
X02355D01*
X02357*
Y01885*
X02359Y01883*
X02341Y01873D02*
X02349D01*
X02341Y01881*
Y01883*
X02343Y01885*
X02347*
X02349Y01883*
X02337D02*
X02335Y01885D01*
X02331*
X02329Y01883*
Y01875*
X02331Y01873*
X02335*
X02337Y01875*
Y01883*
X03175Y01411D02*
X03177Y01413D01*
X03181*
X03183Y01411*
Y01403*
X03181Y01401*
X03177*
X03175Y01403*
X03172Y01401D02*
X03168D01*
X0317*
Y01413*
X03172Y01411*
X03162Y01401D02*
X03158D01*
X0316*
Y01413*
X03162Y01411*
X03152Y01403D02*
X0315Y01401D01*
X03146*
X03144Y01403*
Y01411*
X03146Y01413*
X0315*
X03152Y01411*
Y01409*
X0315Y01407*
X03144*
X03226Y01883D02*
X03228Y01885D01*
X03232*
X03234Y01883*
Y01875*
X03232Y01873*
X03228*
X03226Y01875*
X03223Y01873D02*
X03219D01*
X03221*
Y01885*
X03223Y01883*
X03213Y01873D02*
X03209D01*
X03211*
Y01885*
X03213Y01883*
X03203D02*
X03201Y01885D01*
X03197*
X03195Y01883*
Y01881*
X03197Y01879*
X03195Y01877*
Y01875*
X03197Y01873*
X03201*
X03203Y01875*
Y01877*
X03201Y01879*
X03203Y01881*
Y01883*
X03201Y01879D02*
X03197D01*
X03344Y01686D02*
X03346Y01688D01*
X0335*
X03352Y01686*
Y01678*
X0335Y01676*
X03346*
X03344Y01678*
X03341Y01676D02*
X03337D01*
X03339*
Y01688*
X03341Y01686*
X03331Y01676D02*
X03327D01*
X03329*
Y01688*
X03331Y01686*
X03321Y01688D02*
X03313D01*
Y01686*
X03321Y01678*
Y01676*
X03372Y01923D02*
X03374Y01925D01*
X03378*
X0338Y01923*
Y01915*
X03378Y01913*
X03374*
X03372Y01915*
X03369Y01913D02*
X03365D01*
X03367*
Y01925*
X03369Y01923*
X03359Y01913D02*
X03355D01*
X03357*
Y01925*
X03359Y01923*
X03341Y01925D02*
X03345Y01923D01*
X03349Y01919*
Y01915*
X03347Y01913*
X03343*
X03341Y01915*
Y01917*
X03343Y01919*
X03349*
X03479Y01709D02*
X03481Y01711D01*
X03485*
X03487Y01709*
Y01701*
X03485Y01699*
X03481*
X03479Y01701*
X03476Y01699D02*
X03472D01*
X03474*
Y01711*
X03476Y01709*
X03466Y01699D02*
X03462D01*
X03464*
Y01711*
X03466Y01709*
X03448Y01711D02*
X03456D01*
Y01705*
X03452Y01707*
X0345*
X03448Y01705*
Y01701*
X0345Y01699*
X03454*
X03456Y01701*
X03305Y01332D02*
X03307Y01334D01*
X03311*
X03313Y01332*
Y01324*
X03311Y01322*
X03307*
X03305Y01324*
X03302Y01322D02*
X03298D01*
X033*
Y01334*
X03302Y01332*
X03292Y01322D02*
X03288D01*
X0329*
Y01334*
X03292Y01332*
X03274Y01322D02*
X03282D01*
X03274Y0133*
Y01332*
X03276Y01334*
X0328*
X03282Y01332*
X02968Y01602D02*
X0297Y01604D01*
X02974*
X02976Y01602*
Y01594*
X02974Y01592*
X0297*
X02968Y01594*
X02965Y01592D02*
X02961D01*
X02963*
Y01604*
X02965Y01602*
X02955Y01592D02*
X02951D01*
X02953*
Y01604*
X02955Y01602*
X02945Y01592D02*
X02941D01*
X02943*
Y01604*
X02945Y01602*
X02872Y0149D02*
X02874Y01492D01*
X02878*
X0288Y0149*
Y01482*
X02878Y0148*
X02874*
X02872Y01482*
X02869Y0148D02*
X02865D01*
X02867*
Y01492*
X02869Y0149*
X02859Y0148D02*
X02855D01*
X02857*
Y01492*
X02859Y0149*
X02849D02*
X02847Y01492D01*
X02843*
X02841Y0149*
Y01482*
X02843Y0148*
X02847*
X02849Y01482*
Y0149*
X02783Y01332D02*
X02785Y01334D01*
X02789*
X02791Y01332*
Y01324*
X02789Y01322*
X02785*
X02783Y01324*
X0278Y01322D02*
X02776D01*
X02778*
Y01334*
X0278Y01332*
X0277D02*
X02768Y01334D01*
X02764*
X02762Y01332*
Y01324*
X02764Y01322*
X02768*
X0277Y01324*
Y01332*
X02758Y01324D02*
X02756Y01322D01*
X02752*
X0275Y01324*
Y01332*
X02752Y01334*
X02756*
X02758Y01332*
Y0133*
X02756Y01328*
X0275*
X0298Y01371D02*
X02982Y01373D01*
X02986*
X02988Y01371*
Y01363*
X02986Y01361*
X02982*
X0298Y01363*
X02977Y01361D02*
X02973D01*
X02975*
Y01373*
X02977Y01371*
X02967D02*
X02965Y01373D01*
X02961*
X02959Y01371*
Y01363*
X02961Y01361*
X02965*
X02967Y01363*
Y01371*
X02955D02*
X02953Y01373D01*
X02949*
X02947Y01371*
Y01369*
X02949Y01367*
X02947Y01365*
Y01363*
X02949Y01361*
X02953*
X02955Y01363*
Y01365*
X02953Y01367*
X02955Y01369*
Y01371*
X02953Y01367D02*
X02949D01*
X03161Y01655D02*
X03163Y01657D01*
X03167*
X03169Y01655*
Y01647*
X03167Y01645*
X03163*
X03161Y01647*
X03158Y01655D02*
X03156Y01657D01*
X03152*
X0315Y01655*
Y01653*
X03152Y01651*
X0315Y01649*
Y01647*
X03152Y01645*
X03156*
X03158Y01647*
Y01649*
X03156Y01651*
X03158Y01653*
Y01655*
X03156Y01651D02*
X03152D01*
X03146Y01655D02*
X03144Y01657D01*
X0314*
X03138Y01655*
Y01653*
X0314Y01651*
X03138Y01649*
Y01647*
X0314Y01645*
X03144*
X03146Y01647*
Y01649*
X03144Y01651*
X03146Y01653*
Y01655*
X03144Y01651D02*
X0314D01*
X031Y01726D02*
X03102Y01728D01*
X03106*
X03108Y01726*
Y01718*
X03106Y01716*
X03102*
X031Y01718*
X03097Y01726D02*
X03095Y01728D01*
X03091*
X03089Y01726*
Y01724*
X03091Y01722*
X03089Y0172*
Y01718*
X03091Y01716*
X03095*
X03097Y01718*
Y0172*
X03095Y01722*
X03097Y01724*
Y01726*
X03095Y01722D02*
X03091D01*
X03085Y01728D02*
X03077D01*
Y01726*
X03085Y01718*
Y01716*
X03161Y01826D02*
X03163Y01828D01*
X03167*
X03169Y01826*
Y01818*
X03167Y01816*
X03163*
X03161Y01818*
X03158Y01826D02*
X03156Y01828D01*
X03152*
X0315Y01826*
Y01824*
X03152Y01822*
X0315Y0182*
Y01818*
X03152Y01816*
X03156*
X03158Y01818*
Y0182*
X03156Y01822*
X03158Y01824*
Y01826*
X03156Y01822D02*
X03152D01*
X03138Y01828D02*
X03142Y01826D01*
X03146Y01822*
Y01818*
X03144Y01816*
X0314*
X03138Y01818*
Y0182*
X0314Y01822*
X03146*
X03319Y01826D02*
X03321Y01828D01*
X03325*
X03327Y01826*
Y01818*
X03325Y01816*
X03321*
X03319Y01818*
X03316Y01826D02*
X03314Y01828D01*
X0331*
X03308Y01826*
Y01824*
X0331Y01822*
X03308Y0182*
Y01818*
X0331Y01816*
X03314*
X03316Y01818*
Y0182*
X03314Y01822*
X03316Y01824*
Y01826*
X03314Y01822D02*
X0331D01*
X03296Y01828D02*
X03304D01*
Y01822*
X033Y01824*
X03298*
X03296Y01822*
Y01818*
X03298Y01816*
X03302*
X03304Y01818*
X03437Y01826D02*
X03439Y01828D01*
X03443*
X03445Y01826*
Y01818*
X03443Y01816*
X03439*
X03437Y01818*
X03434Y01826D02*
X03432Y01828D01*
X03428*
X03426Y01826*
Y01824*
X03428Y01822*
X03426Y0182*
Y01818*
X03428Y01816*
X03432*
X03434Y01818*
Y0182*
X03432Y01822*
X03434Y01824*
Y01826*
X03432Y01822D02*
X03428D01*
X03416Y01816D02*
Y01828D01*
X03422Y01822*
X03414*
X03257Y0177D02*
X03259Y01772D01*
X03263*
X03265Y0177*
Y01762*
X03263Y0176*
X03259*
X03257Y01762*
X03254Y0177D02*
X03252Y01772D01*
X03248*
X03246Y0177*
Y01768*
X03248Y01766*
X03246Y01764*
Y01762*
X03248Y0176*
X03252*
X03254Y01762*
Y01764*
X03252Y01766*
X03254Y01768*
Y0177*
X03252Y01766D02*
X03248D01*
X03242Y0177D02*
X0324Y01772D01*
X03236*
X03234Y0177*
Y01768*
X03236Y01766*
X03238*
X03236*
X03234Y01764*
Y01762*
X03236Y0176*
X0324*
X03242Y01762*
X03256Y01643D02*
X03258Y01645D01*
X03262*
X03264Y01643*
Y01635*
X03262Y01633*
X03258*
X03256Y01635*
X03253Y01643D02*
X03251Y01645D01*
X03247*
X03245Y01643*
Y01641*
X03247Y01639*
X03245Y01637*
Y01635*
X03247Y01633*
X03251*
X03253Y01635*
Y01637*
X03251Y01639*
X03253Y01641*
Y01643*
X03251Y01639D02*
X03247D01*
X03241Y01643D02*
X03239Y01645D01*
X03235*
X03233Y01643*
Y01635*
X03235Y01633*
X03239*
X03241Y01635*
Y01643*
X02295Y01483D02*
X02297Y01485D01*
X02301*
X02303Y01483*
Y01475*
X02301Y01473*
X02297*
X02295Y01475*
X02292Y01485D02*
X02284D01*
Y01483*
X02292Y01475*
Y01473*
X0228Y01475D02*
X02278Y01473D01*
X02274*
X02272Y01475*
Y01483*
X02274Y01485*
X02278*
X0228Y01483*
Y01481*
X02278Y01479*
X02272*
X03516Y0159D02*
X03518Y01592D01*
X03522*
X03524Y0159*
Y01582*
X03522Y0158*
X03518*
X03516Y01582*
X03513Y01592D02*
X03505D01*
Y0159*
X03513Y01582*
Y0158*
X03501Y0159D02*
X03499Y01592D01*
X03495*
X03493Y0159*
Y01588*
X03495Y01586*
X03493Y01584*
Y01582*
X03495Y0158*
X03499*
X03501Y01582*
Y01584*
X03499Y01586*
X03501Y01588*
Y0159*
X03499Y01586D02*
X03495D01*
X03415Y01608D02*
X03417Y0161D01*
X03421*
X03423Y01608*
Y016*
X03421Y01598*
X03417*
X03415Y016*
X03412Y0161D02*
X03404D01*
Y01608*
X03412Y016*
Y01598*
X034Y0161D02*
X03392D01*
Y01608*
X034Y016*
Y01598*
X02549Y01411D02*
X02551Y01413D01*
X02555*
X02557Y01411*
Y01403*
X02555Y01401*
X02551*
X02549Y01403*
X02546Y01413D02*
X02538D01*
Y01411*
X02546Y01403*
Y01401*
X02534Y01411D02*
X02532Y01413D01*
X02528*
X02526Y01411*
Y01403*
X02528Y01401*
X02532*
X02534Y01403*
Y01411*
X02419Y01529D02*
X02421Y01531D01*
X02425*
X02427Y01529*
Y01521*
X02425Y01519*
X02421*
X02419Y01521*
X02408Y01531D02*
X02412Y01529D01*
X02416Y01525*
Y01521*
X02414Y01519*
X0241*
X02408Y01521*
Y01523*
X0241Y01525*
X02416*
X02404Y01521D02*
X02402Y01519D01*
X02398*
X02396Y01521*
Y01529*
X02398Y01531*
X02402*
X02404Y01529*
Y01527*
X02402Y01525*
X02396*
X02616Y01529D02*
X02618Y01531D01*
X02622*
X02624Y01529*
Y01521*
X02622Y01519*
X02618*
X02616Y01521*
X02605Y01531D02*
X02609Y01529D01*
X02613Y01525*
Y01521*
X02611Y01519*
X02607*
X02605Y01521*
Y01523*
X02607Y01525*
X02613*
X02601Y01529D02*
X02599Y01531D01*
X02595*
X02593Y01529*
Y01527*
X02595Y01525*
X02593Y01523*
Y01521*
X02595Y01519*
X02599*
X02601Y01521*
Y01523*
X02599Y01525*
X02601Y01527*
Y01529*
X02599Y01525D02*
X02595D01*
X02341Y01647D02*
X02343Y01649D01*
X02347*
X02349Y01647*
Y01639*
X02347Y01637*
X02343*
X02341Y01639*
X0233Y01649D02*
X02334Y01647D01*
X02338Y01643*
Y01639*
X02336Y01637*
X02332*
X0233Y01639*
Y01641*
X02332Y01643*
X02338*
X02326Y01649D02*
X02318D01*
Y01647*
X02326Y01639*
Y01637*
X02734Y01726D02*
X02736Y01728D01*
X0274*
X02742Y01726*
Y01718*
X0274Y01716*
X02736*
X02734Y01718*
X02723Y01728D02*
X02727Y01726D01*
X02731Y01722*
Y01718*
X02729Y01716*
X02725*
X02723Y01718*
Y0172*
X02725Y01722*
X02731*
X02711Y01728D02*
X02715Y01726D01*
X02719Y01722*
Y01718*
X02717Y01716*
X02713*
X02711Y01718*
Y0172*
X02713Y01722*
X02719*
X02579Y01612D02*
X02581Y01614D01*
X02585*
X02587Y01612*
Y01604*
X02585Y01602*
X02581*
X02579Y01604*
X02568Y01614D02*
X02572Y01612D01*
X02576Y01608*
Y01604*
X02574Y01602*
X0257*
X02568Y01604*
Y01606*
X0257Y01608*
X02576*
X02556Y01614D02*
X02564D01*
Y01608*
X0256Y0161*
X02558*
X02556Y01608*
Y01604*
X02558Y01602*
X02562*
X02564Y01604*
X02472Y01742D02*
X02474Y01744D01*
X02478*
X0248Y01742*
Y01734*
X02478Y01732*
X02474*
X02472Y01734*
X02461Y01744D02*
X02465Y01742D01*
X02469Y01738*
Y01734*
X02467Y01732*
X02463*
X02461Y01734*
Y01736*
X02463Y01738*
X02469*
X02451Y01732D02*
Y01744D01*
X02457Y01738*
X02449*
X02644Y01861D02*
X02646Y01863D01*
X0265*
X02652Y01861*
Y01853*
X0265Y01851*
X02646*
X02644Y01853*
X02633Y01863D02*
X02637Y01861D01*
X02641Y01857*
Y01853*
X02639Y01851*
X02635*
X02633Y01853*
Y01855*
X02635Y01857*
X02641*
X02629Y01861D02*
X02627Y01863D01*
X02623*
X02621Y01861*
Y01859*
X02623Y01857*
X02625*
X02623*
X02621Y01855*
Y01853*
X02623Y01851*
X02627*
X02629Y01853*
X01307Y01433D02*
X01309Y01435D01*
X01313*
X01315Y01433*
Y01425*
X01313Y01423*
X01309*
X01307Y01425*
X01296Y01435D02*
X013Y01433D01*
X01304Y01429*
Y01425*
X01302Y01423*
X01298*
X01296Y01425*
Y01427*
X01298Y01429*
X01304*
X01292Y01423D02*
X01288D01*
X0129*
Y01435*
X01292Y01433*
X02689Y01326D02*
X02691Y01328D01*
X02695*
X02697Y01326*
Y01318*
X02695Y01316*
X02691*
X02689Y01318*
X02678Y01328D02*
X02686D01*
Y01322*
X02682Y01324*
X0268*
X02678Y01322*
Y01318*
X0268Y01316*
X02684*
X02686Y01318*
X02674D02*
X02672Y01316D01*
X02668*
X02666Y01318*
Y01326*
X02668Y01328*
X02672*
X02674Y01326*
Y01324*
X02672Y01322*
X02666*
X02256Y01956D02*
X02258Y01958D01*
X02262*
X02264Y01956*
Y01948*
X02262Y01946*
X02258*
X02256Y01948*
X02245Y01958D02*
X02253D01*
Y01952*
X02249Y01954*
X02247*
X02245Y01952*
Y01948*
X02247Y01946*
X02251*
X02253Y01948*
X02235Y01946D02*
Y01958D01*
X02241Y01952*
X02233*
X02466Y01608D02*
X02468Y0161D01*
X02472*
X02474Y01608*
Y016*
X02472Y01598*
X02468*
X02466Y016*
X02463Y01608D02*
X02461Y0161D01*
X02457*
X02455Y01608*
Y01606*
X02457Y01604*
X02459*
X02457*
X02455Y01602*
Y016*
X02457Y01598*
X02461*
X02463Y016*
X02451Y01598D02*
X02447D01*
X02449*
Y0161*
X02451Y01608*
X02413Y01984D02*
X02415Y01986D01*
X02419*
X02421Y01984*
Y01976*
X02419Y01974*
X02415*
X02413Y01976*
X02402Y01974D02*
X0241D01*
X02402Y01982*
Y01984*
X02404Y01986*
X02408*
X0241Y01984*
X02398D02*
X02396Y01986D01*
X02392*
X0239Y01984*
Y01982*
X02392Y0198*
X02394*
X02392*
X0239Y01978*
Y01976*
X02392Y01974*
X02396*
X02398Y01976*
X02034Y01401D02*
X02036Y01403D01*
X0204*
X02042Y01401*
Y01393*
X0204Y01391*
X02036*
X02034Y01393*
X02023Y01391D02*
X02031D01*
X02023Y01399*
Y01401*
X02025Y01403*
X02029*
X02031Y01401*
X02011Y01391D02*
X02019D01*
X02011Y01399*
Y01401*
X02013Y01403*
X02017*
X02019Y01401*
X0166Y01619D02*
X01662Y01621D01*
X01666*
X01668Y01619*
Y01611*
X01666Y01609*
X01662*
X0166Y01611*
X01649Y01609D02*
X01657D01*
X01649Y01617*
Y01619*
X01651Y01621*
X01655*
X01657Y01619*
X01645Y01609D02*
X01641D01*
X01643*
Y01621*
X01645Y01619*
X01789Y01805D02*
X01791Y01807D01*
X01795*
X01797Y01805*
Y01797*
X01795Y01795*
X01791*
X01789Y01797*
X01778Y01795D02*
X01786D01*
X01778Y01803*
Y01805*
X0178Y01807*
X01784*
X01786Y01805*
X01774D02*
X01772Y01807D01*
X01768*
X01766Y01805*
Y01797*
X01768Y01795*
X01772*
X01774Y01797*
Y01805*
X01348Y01708D02*
X0135Y0171D01*
X01354*
X01356Y01708*
Y017*
X01354Y01698*
X0135*
X01348Y017*
X01345Y01698D02*
X01341D01*
X01343*
Y0171*
X01345Y01708*
X01335Y017D02*
X01333Y01698D01*
X01329*
X01327Y017*
Y01708*
X01329Y0171*
X01333*
X01335Y01708*
Y01706*
X01333Y01704*
X01327*
X01622Y01365D02*
X01624Y01367D01*
X01628*
X0163Y01365*
Y01357*
X01628Y01355*
X01624*
X01622Y01357*
X01619Y01355D02*
X01615D01*
X01617*
Y01367*
X01619Y01365*
X01609D02*
X01607Y01367D01*
X01603*
X01601Y01365*
Y01363*
X01603Y01361*
X01601Y01359*
Y01357*
X01603Y01355*
X01607*
X01609Y01357*
Y01359*
X01607Y01361*
X01609Y01363*
Y01365*
X01607Y01361D02*
X01603D01*
X01842Y01365D02*
X01844Y01367D01*
X01848*
X0185Y01365*
Y01357*
X01848Y01355*
X01844*
X01842Y01357*
X01839Y01355D02*
X01835D01*
X01837*
Y01367*
X01839Y01365*
X01829Y01367D02*
X01821D01*
Y01365*
X01829Y01357*
Y01355*
X01464Y01627D02*
X01466Y01629D01*
X0147*
X01472Y01627*
Y01619*
X0147Y01617*
X01466*
X01464Y01619*
X01461Y01617D02*
X01457D01*
X01459*
Y01629*
X01461Y01627*
X01443Y01629D02*
X01447Y01627D01*
X01451Y01623*
Y01619*
X01449Y01617*
X01445*
X01443Y01619*
Y01621*
X01445Y01623*
X01451*
X01791Y01205D02*
X01793Y01207D01*
X01797*
X01799Y01205*
Y01197*
X01797Y01195*
X01793*
X01791Y01197*
X01788Y01195D02*
X01784D01*
X01786*
Y01207*
X01788Y01205*
X0177Y01207D02*
X01778D01*
Y01201*
X01774Y01203*
X01772*
X0177Y01201*
Y01197*
X01772Y01195*
X01776*
X01778Y01197*
X01312Y01207D02*
X01314Y01209D01*
X01318*
X0132Y01207*
Y01199*
X01318Y01197*
X01314*
X01312Y01199*
X01309Y01197D02*
X01305D01*
X01307*
Y01209*
X01309Y01207*
X01293Y01197D02*
Y01209D01*
X01299Y01203*
X01291*
X04114Y01637D02*
X04116Y01639D01*
X0412*
X04122Y01637*
Y01629*
X0412Y01627*
X04116*
X04114Y01629*
X04111Y01627D02*
X04107D01*
X04109*
Y01639*
X04111Y01637*
X04101D02*
X04099Y01639D01*
X04095*
X04093Y01637*
Y01635*
X04095Y01633*
X04097*
X04095*
X04093Y01631*
Y01629*
X04095Y01627*
X04099*
X04101Y01629*
X03594Y0165D02*
X03596Y01652D01*
X036*
X03602Y0165*
Y01642*
X036Y0164*
X03596*
X03594Y01642*
X03591Y0164D02*
X03587D01*
X03589*
Y01652*
X03591Y0165*
X03573Y0164D02*
X03581D01*
X03573Y01648*
Y0165*
X03575Y01652*
X03579*
X03581Y0165*
X01735Y01921D02*
X01737Y01923D01*
X01741*
X01743Y01921*
Y01913*
X01741Y01911*
X01737*
X01735Y01913*
X01732Y01911D02*
X01728D01*
X0173*
Y01923*
X01732Y01921*
X01722Y01911D02*
X01718D01*
X0172*
Y01923*
X01722Y01921*
X01584Y01708D02*
X01586Y0171D01*
X0159*
X01592Y01708*
Y017*
X0159Y01698*
X01586*
X01584Y017*
X01581Y01698D02*
X01577D01*
X01579*
Y0171*
X01581Y01708*
X01571D02*
X01569Y0171D01*
X01565*
X01563Y01708*
Y017*
X01565Y01698*
X01569*
X01571Y017*
Y01708*
X01277Y01805D02*
X01279Y01807D01*
X01283*
X01285Y01805*
Y01797*
X01283Y01795*
X01279*
X01277Y01797*
X01274D02*
X01272Y01795D01*
X01268*
X01266Y01797*
Y01805*
X01268Y01807*
X01272*
X01274Y01805*
Y01803*
X01272Y01801*
X01266*
X01313Y01519D02*
X01315Y01521D01*
X01319*
X01321Y01519*
Y01511*
X01319Y01509*
X01315*
X01313Y01511*
X0131Y01519D02*
X01308Y01521D01*
X01304*
X01302Y01519*
Y01517*
X01304Y01515*
X01302Y01513*
Y01511*
X01304Y01509*
X01308*
X0131Y01511*
Y01513*
X01308Y01515*
X0131Y01517*
Y01519*
X01308Y01515D02*
X01304D01*
X01195Y01637D02*
X01197Y01639D01*
X01201*
X01203Y01637*
Y01629*
X01201Y01627*
X01197*
X01195Y01629*
X01192Y01639D02*
X01184D01*
Y01637*
X01192Y01629*
Y01627*
X01657Y01807D02*
X01659Y01809D01*
X01663*
X01665Y01807*
Y01799*
X01663Y01797*
X01659*
X01657Y01799*
X01646Y01809D02*
X0165Y01807D01*
X01654Y01803*
Y01799*
X01652Y01797*
X01648*
X01646Y01799*
Y01801*
X01648Y01803*
X01654*
X0403Y01479D02*
X04032Y01481D01*
X04036*
X04038Y01479*
Y01471*
X04036Y01469*
X04032*
X0403Y01471*
X04019Y01481D02*
X04027D01*
Y01475*
X04023Y01477*
X04021*
X04019Y01475*
Y01471*
X04021Y01469*
X04025*
X04027Y01471*
X0348Y01395D02*
X03482Y01397D01*
X03486*
X03488Y01395*
Y01387*
X03486Y01385*
X03482*
X0348Y01387*
X03471Y01385D02*
Y01397D01*
X03477Y01391*
X03469*
X01907Y01923D02*
X01909Y01925D01*
X01913*
X01915Y01923*
Y01915*
X01913Y01913*
X01909*
X01907Y01915*
X01904Y01923D02*
X01902Y01925D01*
X01898*
X01896Y01923*
Y01921*
X01898Y01919*
X019*
X01898*
X01896Y01917*
Y01915*
X01898Y01913*
X01902*
X01904Y01915*
X02175Y01948D02*
X02177Y0195D01*
X02181*
X02183Y01948*
Y0194*
X02181Y01938*
X02177*
X02175Y0194*
X02164Y01938D02*
X02172D01*
X02164Y01946*
Y01948*
X02166Y0195*
X0217*
X02172Y01948*
X02841Y01834D02*
X02843Y01836D01*
X02847*
X02849Y01834*
Y01826*
X02847Y01824*
X02843*
X02841Y01826*
X02838Y01824D02*
X02834D01*
X02836*
Y01836*
X02838Y01834*
M02*