%FSTAX23Y23*%
%MOIN*%
%SFA1B1*%

%IPPOS*%
%ADD10C,0.009843*%
%ADD11C,0.011811*%
%ADD12C,0.007874*%
%ADD13C,0.003937*%
%ADD14C,0.005000*%
%ADD15C,0.010000*%
%ADD16C,0.006000*%
%ADD17C,0.005905*%
%ADD18C,0.000394*%
%LNmain_board-1*%
%LPD*%
G36*
X01249Y01503D02*
X01234D01*
Y01493*
X01249*
Y01503*
G37*
G36*
X01268Y01732D02*
X01253D01*
Y01742*
X01268*
Y01732*
G37*
G36*
X01405Y01615D02*
X01415D01*
Y016*
X01405*
Y01615*
G37*
G36*
X02824Y01925D02*
X02857Y01891D01*
Y01925*
X02824*
G37*
G54D10*
X02888Y01919D02*
D01*
X02888Y01919*
X02888Y01919*
X02888Y0192*
X02888Y0192*
X02888Y0192*
X02888Y01921*
X02887Y01921*
X02887Y01921*
X02887Y01922*
X02887Y01922*
X02887Y01922*
X02886Y01922*
X02886Y01923*
X02886Y01923*
X02885Y01923*
X02885Y01923*
X02885Y01923*
X02885Y01923*
X02884Y01924*
X02884Y01924*
X02884Y01924*
X02883Y01924*
X02883*
X02883Y01924*
X02882Y01924*
X02882Y01924*
X02881Y01923*
X02881Y01923*
X02881Y01923*
X02881Y01923*
X0288Y01923*
X0288Y01923*
X0288Y01922*
X02879Y01922*
X02879Y01922*
X02879Y01922*
X02879Y01921*
X02879Y01921*
X02879Y01921*
X02878Y0192*
X02878Y0192*
X02878Y0192*
X02878Y01919*
X02878Y01919*
X02878Y01919*
X02878Y01918*
X02878Y01918*
X02878Y01918*
X02878Y01917*
X02878Y01917*
X02879Y01917*
X02879Y01916*
X02879Y01916*
X02879Y01916*
X02879Y01916*
X02879Y01915*
X0288Y01915*
X0288Y01915*
X0288Y01915*
X02881Y01914*
X02881Y01914*
X02881Y01914*
X02881Y01914*
X02882Y01914*
X02882Y01914*
X02883Y01914*
X02883Y01914*
X02883*
X02884Y01914*
X02884Y01914*
X02884Y01914*
X02885Y01914*
X02885Y01914*
X02885Y01914*
X02885Y01914*
X02886Y01915*
X02886Y01915*
X02886Y01915*
X02887Y01915*
X02887Y01916*
X02887Y01916*
X02887Y01916*
X02887Y01916*
X02888Y01917*
X02888Y01917*
X02888Y01917*
X02888Y01918*
X02888Y01918*
X02888Y01918*
X02888Y01919*
X00907Y01507D02*
D01*
X00907Y01508*
X00907Y01508*
X00907Y01508*
X00907Y01509*
X00907Y01509*
X00907Y01509*
X00907Y0151*
X00907Y0151*
X00907Y0151*
X00906Y01511*
X00906Y01511*
X00906Y01511*
X00906Y01511*
X00905Y01511*
X00905Y01512*
X00905Y01512*
X00904Y01512*
X00904Y01512*
X00904Y01512*
X00903Y01512*
X00903Y01512*
X00903Y01512*
X00902*
X00902Y01512*
X00902Y01512*
X00901Y01512*
X00901Y01512*
X00901Y01512*
X009Y01512*
X009Y01512*
X009Y01511*
X00899Y01511*
X00899Y01511*
X00899Y01511*
X00899Y01511*
X00899Y0151*
X00898Y0151*
X00898Y0151*
X00898Y01509*
X00898Y01509*
X00898Y01509*
X00898Y01508*
X00898Y01508*
X00898Y01508*
X00898Y01507*
X00898Y01507*
X00898Y01507*
X00898Y01506*
X00898Y01506*
X00898Y01506*
X00898Y01505*
X00898Y01505*
X00898Y01505*
X00899Y01504*
X00899Y01504*
X00899Y01504*
X00899Y01504*
X00899Y01503*
X009Y01503*
X009Y01503*
X009Y01503*
X00901Y01503*
X00901Y01503*
X00901Y01503*
X00902Y01502*
X00902Y01502*
X00902Y01502*
X00903*
X00903Y01502*
X00903Y01502*
X00904Y01503*
X00904Y01503*
X00904Y01503*
X00905Y01503*
X00905Y01503*
X00905Y01503*
X00906Y01503*
X00906Y01504*
X00906Y01504*
X00906Y01504*
X00907Y01504*
X00907Y01505*
X00907Y01505*
X00907Y01505*
X00907Y01506*
X00907Y01506*
X00907Y01506*
X00907Y01507*
X00907Y01507*
X00907Y01507*
X00179Y01913D02*
D01*
X00179Y01913*
X00179Y01914*
X00179Y01914*
X00179Y01914*
X00179Y01915*
X00179Y01915*
X00179Y01915*
X00179Y01915*
X00178Y01916*
X00178Y01916*
X00178Y01916*
X00178Y01917*
X00177Y01917*
X00177Y01917*
X00177Y01917*
X00177Y01917*
X00176Y01917*
X00176Y01918*
X00176Y01918*
X00175Y01918*
X00175Y01918*
X00175Y01918*
X00174*
X00174Y01918*
X00174Y01918*
X00173Y01918*
X00173Y01918*
X00173Y01917*
X00172Y01917*
X00172Y01917*
X00172Y01917*
X00171Y01917*
X00171Y01917*
X00171Y01916*
X00171Y01916*
X0017Y01916*
X0017Y01915*
X0017Y01915*
X0017Y01915*
X0017Y01915*
X0017Y01914*
X0017Y01914*
X00169Y01914*
X00169Y01913*
X00169Y01913*
X00169Y01913*
X00169Y01912*
X0017Y01912*
X0017Y01911*
X0017Y01911*
X0017Y01911*
X0017Y01911*
X0017Y0191*
X0017Y0191*
X00171Y0191*
X00171Y01909*
X00171Y01909*
X00171Y01909*
X00172Y01909*
X00172Y01909*
X00172Y01908*
X00173Y01908*
X00173Y01908*
X00173Y01908*
X00174Y01908*
X00174Y01908*
X00174Y01908*
X00175*
X00175Y01908*
X00175Y01908*
X00176Y01908*
X00176Y01908*
X00176Y01908*
X00177Y01908*
X00177Y01909*
X00177Y01909*
X00177Y01909*
X00178Y01909*
X00178Y01909*
X00178Y0191*
X00178Y0191*
X00179Y0191*
X00179Y01911*
X00179Y01911*
X00179Y01911*
X00179Y01911*
X00179Y01912*
X00179Y01912*
X00179Y01913*
X00179Y01913*
X03425Y02265D02*
D01*
X03425Y02266*
X03425Y02266*
X03425Y02266*
X03425Y02267*
X03425Y02267*
X03425Y02267*
X03425Y02268*
X03425Y02268*
X03424Y02268*
X03424Y02268*
X03424Y02269*
X03424Y02269*
X03423Y02269*
X03423Y02269*
X03423Y02269*
X03423Y0227*
X03422Y0227*
X03422Y0227*
X03422Y0227*
X03421Y0227*
X03421Y0227*
X03421Y0227*
X0342*
X0342Y0227*
X0342Y0227*
X03419Y0227*
X03419Y0227*
X03419Y0227*
X03418Y0227*
X03418Y02269*
X03418Y02269*
X03417Y02269*
X03417Y02269*
X03417Y02269*
X03417Y02268*
X03416Y02268*
X03416Y02268*
X03416Y02268*
X03416Y02267*
X03416Y02267*
X03416Y02267*
X03416Y02266*
X03416Y02266*
X03416Y02266*
X03416Y02265*
X03416Y02265*
X03416Y02265*
X03416Y02264*
X03416Y02264*
X03416Y02264*
X03416Y02263*
X03416Y02263*
X03416Y02263*
X03416Y02262*
X03417Y02262*
X03417Y02262*
X03417Y02262*
X03417Y02261*
X03418Y02261*
X03418Y02261*
X03418Y02261*
X03419Y02261*
X03419Y02261*
X03419Y0226*
X0342Y0226*
X0342Y0226*
X0342Y0226*
X03421*
X03421Y0226*
X03421Y0226*
X03422Y0226*
X03422Y02261*
X03422Y02261*
X03423Y02261*
X03423Y02261*
X03423Y02261*
X03423Y02261*
X03424Y02262*
X03424Y02262*
X03424Y02262*
X03424Y02262*
X03425Y02263*
X03425Y02263*
X03425Y02263*
X03425Y02264*
X03425Y02264*
X03425Y02264*
X03425Y02265*
X03425Y02265*
X03425Y02265*
X01477Y0108D02*
D01*
X01477Y0108*
X01476Y01081*
X01476Y01081*
X01476Y01081*
X01476Y01082*
X01476Y01082*
X01476Y01082*
X01476Y01083*
X01476Y01083*
X01475Y01083*
X01475Y01083*
X01475Y01084*
X01475Y01084*
X01474Y01084*
X01474Y01084*
X01474Y01084*
X01473Y01085*
X01473Y01085*
X01473Y01085*
X01472Y01085*
X01472Y01085*
X01472Y01085*
X01471*
X01471Y01085*
X01471Y01085*
X0147Y01085*
X0147Y01085*
X0147Y01085*
X01469Y01084*
X01469Y01084*
X01469Y01084*
X01469Y01084*
X01468Y01084*
X01468Y01083*
X01468Y01083*
X01468Y01083*
X01467Y01083*
X01467Y01082*
X01467Y01082*
X01467Y01082*
X01467Y01081*
X01467Y01081*
X01467Y01081*
X01467Y0108*
X01467Y0108*
X01467Y0108*
X01467Y01079*
X01467Y01079*
X01467Y01079*
X01467Y01078*
X01467Y01078*
X01467Y01078*
X01467Y01077*
X01468Y01077*
X01468Y01077*
X01468Y01077*
X01468Y01076*
X01469Y01076*
X01469Y01076*
X01469Y01076*
X01469Y01076*
X0147Y01075*
X0147Y01075*
X0147Y01075*
X01471Y01075*
X01471Y01075*
X01471Y01075*
X01472*
X01472Y01075*
X01472Y01075*
X01473Y01075*
X01473Y01075*
X01473Y01075*
X01474Y01076*
X01474Y01076*
X01474Y01076*
X01475Y01076*
X01475Y01076*
X01475Y01077*
X01475Y01077*
X01476Y01077*
X01476Y01077*
X01476Y01078*
X01476Y01078*
X01476Y01078*
X01476Y01079*
X01476Y01079*
X01476Y01079*
X01477Y0108*
X01477Y0108*
X0488Y02964D02*
D01*
X0488Y02964*
X0488Y02965*
X0488Y02965*
X0488Y02965*
X0488Y02966*
X0488Y02966*
X04879Y02966*
X04879Y02967*
X04879Y02967*
X04879Y02967*
X04879Y02967*
X04878Y02968*
X04878Y02968*
X04878Y02968*
X04878Y02968*
X04877Y02968*
X04877Y02969*
X04877Y02969*
X04876Y02969*
X04876Y02969*
X04876Y02969*
X04875Y02969*
X04875*
X04875Y02969*
X04874Y02969*
X04874Y02969*
X04874Y02969*
X04873Y02969*
X04873Y02968*
X04873Y02968*
X04872Y02968*
X04872Y02968*
X04872Y02968*
X04872Y02967*
X04871Y02967*
X04871Y02967*
X04871Y02967*
X04871Y02966*
X04871Y02966*
X04871Y02966*
X0487Y02965*
X0487Y02965*
X0487Y02965*
X0487Y02964*
X0487Y02964*
X0487Y02964*
X0487Y02963*
X0487Y02963*
X0487Y02963*
X04871Y02962*
X04871Y02962*
X04871Y02962*
X04871Y02961*
X04871Y02961*
X04871Y02961*
X04872Y02961*
X04872Y0296*
X04872Y0296*
X04872Y0296*
X04873Y0296*
X04873Y0296*
X04873Y02959*
X04874Y02959*
X04874Y02959*
X04874Y02959*
X04875Y02959*
X04875Y02959*
X04875*
X04876Y02959*
X04876Y02959*
X04876Y02959*
X04877Y02959*
X04877Y02959*
X04877Y0296*
X04878Y0296*
X04878Y0296*
X04878Y0296*
X04878Y0296*
X04879Y02961*
X04879Y02961*
X04879Y02961*
X04879Y02961*
X04879Y02962*
X0488Y02962*
X0488Y02962*
X0488Y02963*
X0488Y02963*
X0488Y02963*
X0488Y02964*
X0488Y02964*
X00691Y01281D02*
D01*
X00691Y01281*
X00691Y01282*
X00691Y01282*
X00691Y01282*
X00691Y01283*
X00691Y01283*
X00691Y01283*
X0069Y01284*
X0069Y01284*
X0069Y01284*
X0069Y01284*
X00689Y01285*
X00689Y01285*
X00689Y01285*
X00689Y01285*
X00688Y01285*
X00688Y01286*
X00688Y01286*
X00687Y01286*
X00687Y01286*
X00687Y01286*
X00686Y01286*
X00686*
X00686Y01286*
X00685Y01286*
X00685Y01286*
X00685Y01286*
X00684Y01286*
X00684Y01285*
X00684Y01285*
X00683Y01285*
X00683Y01285*
X00683Y01285*
X00683Y01284*
X00682Y01284*
X00682Y01284*
X00682Y01284*
X00682Y01283*
X00682Y01283*
X00682Y01283*
X00681Y01282*
X00681Y01282*
X00681Y01282*
X00681Y01281*
X00681Y01281*
X00681Y01281*
X00681Y0128*
X00681Y0128*
X00681Y0128*
X00682Y01279*
X00682Y01279*
X00682Y01279*
X00682Y01278*
X00682Y01278*
X00682Y01278*
X00683Y01278*
X00683Y01277*
X00683Y01277*
X00683Y01277*
X00684Y01277*
X00684Y01277*
X00684Y01276*
X00685Y01276*
X00685Y01276*
X00685Y01276*
X00686Y01276*
X00686Y01276*
X00686*
X00687Y01276*
X00687Y01276*
X00687Y01276*
X00688Y01276*
X00688Y01276*
X00688Y01277*
X00689Y01277*
X00689Y01277*
X00689Y01277*
X00689Y01277*
X0069Y01278*
X0069Y01278*
X0069Y01278*
X0069Y01278*
X00691Y01279*
X00691Y01279*
X00691Y01279*
X00691Y0128*
X00691Y0128*
X00691Y0128*
X00691Y01281*
X00691Y01281*
X01116Y01116D02*
D01*
X01116Y01116*
X01116Y01116*
X01116Y01117*
X01116Y01117*
X01116Y01117*
X01116Y01118*
X01116Y01118*
X01116Y01118*
X01115Y01119*
X01115Y01119*
X01115Y01119*
X01115Y01119*
X01114Y01119*
X01114Y0112*
X01114Y0112*
X01114Y0112*
X01113Y0112*
X01113Y0112*
X01113Y0112*
X01112Y0112*
X01112Y01121*
X01112Y01121*
X01111*
X01111Y01121*
X01111Y0112*
X0111Y0112*
X0111Y0112*
X0111Y0112*
X01109Y0112*
X01109Y0112*
X01109Y0112*
X01108Y01119*
X01108Y01119*
X01108Y01119*
X01108Y01119*
X01107Y01119*
X01107Y01118*
X01107Y01118*
X01107Y01118*
X01107Y01117*
X01107Y01117*
X01107Y01117*
X01106Y01116*
X01106Y01116*
X01106Y01116*
X01106Y01115*
X01106Y01115*
X01107Y01115*
X01107Y01114*
X01107Y01114*
X01107Y01114*
X01107Y01113*
X01107Y01113*
X01107Y01113*
X01108Y01112*
X01108Y01112*
X01108Y01112*
X01108Y01112*
X01109Y01112*
X01109Y01111*
X01109Y01111*
X0111Y01111*
X0111Y01111*
X0111Y01111*
X01111Y01111*
X01111Y01111*
X01111Y01111*
X01112*
X01112Y01111*
X01112Y01111*
X01113Y01111*
X01113Y01111*
X01113Y01111*
X01114Y01111*
X01114Y01111*
X01114Y01112*
X01114Y01112*
X01115Y01112*
X01115Y01112*
X01115Y01112*
X01115Y01113*
X01116Y01113*
X01116Y01113*
X01116Y01114*
X01116Y01114*
X01116Y01114*
X01116Y01115*
X01116Y01115*
X01116Y01115*
X01116Y01116*
X03912Y00998D02*
D01*
X03912Y00998*
X03912Y00998*
X03911Y00999*
X03911Y00999*
X03911Y00999*
X03911Y01*
X03911Y01*
X03911Y01*
X03911Y01*
X0391Y01001*
X0391Y01001*
X0391Y01001*
X0391Y01001*
X03909Y01002*
X03909Y01002*
X03909Y01002*
X03908Y01002*
X03908Y01002*
X03908Y01002*
X03907Y01002*
X03907Y01002*
X03907Y01002*
X03906*
X03906Y01002*
X03906Y01002*
X03905Y01002*
X03905Y01002*
X03905Y01002*
X03904Y01002*
X03904Y01002*
X03904Y01002*
X03904Y01001*
X03903Y01001*
X03903Y01001*
X03903Y01001*
X03903Y01*
X03902Y01*
X03902Y01*
X03902Y01*
X03902Y00999*
X03902Y00999*
X03902Y00999*
X03902Y00998*
X03902Y00998*
X03902Y00998*
X03902Y00997*
X03902Y00997*
X03902Y00996*
X03902Y00996*
X03902Y00996*
X03902Y00995*
X03902Y00995*
X03902Y00995*
X03903Y00995*
X03903Y00994*
X03903Y00994*
X03903Y00994*
X03904Y00994*
X03904Y00993*
X03904Y00993*
X03904Y00993*
X03905Y00993*
X03905Y00993*
X03905Y00993*
X03906Y00993*
X03906Y00993*
X03906Y00993*
X03907*
X03907Y00993*
X03907Y00993*
X03908Y00993*
X03908Y00993*
X03908Y00993*
X03909Y00993*
X03909Y00993*
X03909Y00993*
X0391Y00994*
X0391Y00994*
X0391Y00994*
X0391Y00994*
X03911Y00995*
X03911Y00995*
X03911Y00995*
X03911Y00995*
X03911Y00996*
X03911Y00996*
X03911Y00996*
X03912Y00997*
X03912Y00997*
X03912Y00998*
X00337Y01224D02*
D01*
X00337Y01224*
X00337Y01225*
X00337Y01225*
X00337Y01225*
X00336Y01226*
X00336Y01226*
X00336Y01226*
X00336Y01226*
X00336Y01227*
X00336Y01227*
X00335Y01227*
X00335Y01228*
X00335Y01228*
X00335Y01228*
X00334Y01228*
X00334Y01228*
X00334Y01228*
X00333Y01229*
X00333Y01229*
X00333Y01229*
X00332Y01229*
X00332Y01229*
X00332*
X00331Y01229*
X00331Y01229*
X00331Y01229*
X0033Y01229*
X0033Y01228*
X0033Y01228*
X00329Y01228*
X00329Y01228*
X00329Y01228*
X00329Y01228*
X00328Y01227*
X00328Y01227*
X00328Y01227*
X00328Y01226*
X00327Y01226*
X00327Y01226*
X00327Y01226*
X00327Y01225*
X00327Y01225*
X00327Y01225*
X00327Y01224*
X00327Y01224*
X00327Y01224*
X00327Y01223*
X00327Y01223*
X00327Y01223*
X00327Y01222*
X00327Y01222*
X00327Y01222*
X00328Y01221*
X00328Y01221*
X00328Y01221*
X00328Y0122*
X00329Y0122*
X00329Y0122*
X00329Y0122*
X00329Y0122*
X0033Y01219*
X0033Y01219*
X0033Y01219*
X00331Y01219*
X00331Y01219*
X00331Y01219*
X00332Y01219*
X00332*
X00332Y01219*
X00333Y01219*
X00333Y01219*
X00333Y01219*
X00334Y01219*
X00334Y01219*
X00334Y0122*
X00335Y0122*
X00335Y0122*
X00335Y0122*
X00335Y0122*
X00336Y01221*
X00336Y01221*
X00336Y01221*
X00336Y01222*
X00336Y01222*
X00336Y01222*
X00337Y01223*
X00337Y01223*
X00337Y01223*
X00337Y01224*
X00337Y01224*
X04912Y01549D02*
D01*
X04912Y01549*
X04912Y01549*
X04911Y0155*
X04911Y0155*
X04911Y0155*
X04911Y01551*
X04911Y01551*
X04911Y01551*
X04911Y01552*
X0491Y01552*
X0491Y01552*
X0491Y01552*
X0491Y01553*
X04909Y01553*
X04909Y01553*
X04909Y01553*
X04908Y01553*
X04908Y01553*
X04908Y01553*
X04907Y01554*
X04907Y01554*
X04907Y01554*
X04906*
X04906Y01554*
X04906Y01554*
X04905Y01553*
X04905Y01553*
X04905Y01553*
X04904Y01553*
X04904Y01553*
X04904Y01553*
X04904Y01553*
X04903Y01552*
X04903Y01552*
X04903Y01552*
X04903Y01552*
X04902Y01551*
X04902Y01551*
X04902Y01551*
X04902Y0155*
X04902Y0155*
X04902Y0155*
X04902Y01549*
X04902Y01549*
X04902Y01549*
X04902Y01548*
X04902Y01548*
X04902Y01548*
X04902Y01547*
X04902Y01547*
X04902Y01547*
X04902Y01546*
X04902Y01546*
X04903Y01546*
X04903Y01546*
X04903Y01545*
X04903Y01545*
X04904Y01545*
X04904Y01545*
X04904Y01544*
X04904Y01544*
X04905Y01544*
X04905Y01544*
X04905Y01544*
X04906Y01544*
X04906Y01544*
X04906Y01544*
X04907*
X04907Y01544*
X04907Y01544*
X04908Y01544*
X04908Y01544*
X04908Y01544*
X04909Y01544*
X04909Y01544*
X04909Y01545*
X0491Y01545*
X0491Y01545*
X0491Y01545*
X0491Y01546*
X04911Y01546*
X04911Y01546*
X04911Y01546*
X04911Y01547*
X04911Y01547*
X04911Y01547*
X04911Y01548*
X04912Y01548*
X04912Y01548*
X04912Y01549*
X00817Y01903D02*
D01*
X00817Y01903*
X00817Y01904*
X00817Y01904*
X00817Y01904*
X00817Y01905*
X00817Y01905*
X00816Y01905*
X00816Y01906*
X00816Y01906*
X00816Y01906*
X00816Y01906*
X00815Y01907*
X00815Y01907*
X00815Y01907*
X00815Y01907*
X00814Y01907*
X00814Y01908*
X00814Y01908*
X00813Y01908*
X00813Y01908*
X00813Y01908*
X00812Y01908*
X00812*
X00812Y01908*
X00811Y01908*
X00811Y01908*
X00811Y01908*
X0081Y01908*
X0081Y01907*
X0081Y01907*
X00809Y01907*
X00809Y01907*
X00809Y01907*
X00809Y01906*
X00808Y01906*
X00808Y01906*
X00808Y01906*
X00808Y01905*
X00808Y01905*
X00808Y01905*
X00807Y01904*
X00807Y01904*
X00807Y01904*
X00807Y01903*
X00807Y01903*
X00807Y01903*
X00807Y01902*
X00807Y01902*
X00807Y01902*
X00808Y01901*
X00808Y01901*
X00808Y01901*
X00808Y019*
X00808Y019*
X00808Y019*
X00809Y019*
X00809Y01899*
X00809Y01899*
X00809Y01899*
X0081Y01899*
X0081Y01899*
X0081Y01898*
X00811Y01898*
X00811Y01898*
X00811Y01898*
X00812Y01898*
X00812Y01898*
X00812*
X00813Y01898*
X00813Y01898*
X00813Y01898*
X00814Y01898*
X00814Y01898*
X00814Y01899*
X00815Y01899*
X00815Y01899*
X00815Y01899*
X00815Y01899*
X00816Y019*
X00816Y019*
X00816Y019*
X00816Y019*
X00816Y01901*
X00817Y01901*
X00817Y01901*
X00817Y01902*
X00817Y01902*
X00817Y01902*
X00817Y01903*
X00817Y01903*
X00935Y00879D02*
D01*
X00935Y0088*
X00935Y0088*
X00935Y0088*
X00935Y00881*
X00935Y00881*
X00935Y00881*
X00935Y00882*
X00934Y00882*
X00934Y00882*
X00934Y00883*
X00934Y00883*
X00934Y00883*
X00933Y00883*
X00933Y00883*
X00933Y00884*
X00932Y00884*
X00932Y00884*
X00932Y00884*
X00931Y00884*
X00931Y00884*
X00931Y00884*
X0093Y00884*
X0093*
X0093Y00884*
X00929Y00884*
X00929Y00884*
X00929Y00884*
X00928Y00884*
X00928Y00884*
X00928Y00884*
X00928Y00883*
X00927Y00883*
X00927Y00883*
X00927Y00883*
X00926Y00883*
X00926Y00882*
X00926Y00882*
X00926Y00882*
X00926Y00881*
X00926Y00881*
X00926Y00881*
X00925Y0088*
X00925Y0088*
X00925Y0088*
X00925Y00879*
X00925Y00879*
X00925Y00879*
X00925Y00878*
X00926Y00878*
X00926Y00878*
X00926Y00877*
X00926Y00877*
X00926Y00877*
X00926Y00876*
X00926Y00876*
X00927Y00876*
X00927Y00876*
X00927Y00876*
X00928Y00875*
X00928Y00875*
X00928Y00875*
X00928Y00875*
X00929Y00875*
X00929Y00875*
X00929Y00875*
X0093Y00874*
X0093Y00874*
X0093*
X00931Y00874*
X00931Y00875*
X00931Y00875*
X00932Y00875*
X00932Y00875*
X00932Y00875*
X00933Y00875*
X00933Y00875*
X00933Y00876*
X00934Y00876*
X00934Y00876*
X00934Y00876*
X00934Y00876*
X00934Y00877*
X00935Y00877*
X00935Y00877*
X00935Y00878*
X00935Y00878*
X00935Y00878*
X00935Y00879*
X00935Y00879*
X00935Y00879*
X01841Y02257D02*
D01*
X01841Y02258*
X01841Y02258*
X01841Y02258*
X01841Y02259*
X0184Y02259*
X0184Y02259*
X0184Y0226*
X0184Y0226*
X0184Y0226*
X0184Y02261*
X01839Y02261*
X01839Y02261*
X01839Y02261*
X01839Y02261*
X01838Y02262*
X01838Y02262*
X01838Y02262*
X01837Y02262*
X01837Y02262*
X01837Y02262*
X01836Y02262*
X01836Y02262*
X01836*
X01835Y02262*
X01835Y02262*
X01835Y02262*
X01834Y02262*
X01834Y02262*
X01834Y02262*
X01833Y02262*
X01833Y02261*
X01833Y02261*
X01832Y02261*
X01832Y02261*
X01832Y02261*
X01832Y0226*
X01832Y0226*
X01831Y0226*
X01831Y02259*
X01831Y02259*
X01831Y02259*
X01831Y02258*
X01831Y02258*
X01831Y02258*
X01831Y02257*
X01831Y02257*
X01831Y02257*
X01831Y02256*
X01831Y02256*
X01831Y02256*
X01831Y02255*
X01831Y02255*
X01832Y02255*
X01832Y02254*
X01832Y02254*
X01832Y02254*
X01832Y02254*
X01833Y02253*
X01833Y02253*
X01833Y02253*
X01834Y02253*
X01834Y02253*
X01834Y02253*
X01835Y02253*
X01835Y02252*
X01835Y02252*
X01836Y02252*
X01836*
X01836Y02252*
X01837Y02252*
X01837Y02253*
X01837Y02253*
X01838Y02253*
X01838Y02253*
X01838Y02253*
X01839Y02253*
X01839Y02253*
X01839Y02254*
X01839Y02254*
X0184Y02254*
X0184Y02254*
X0184Y02255*
X0184Y02255*
X0184Y02255*
X0184Y02256*
X01841Y02256*
X01841Y02256*
X01841Y02257*
X01841Y02257*
X01841Y02257*
X01667Y02297D02*
D01*
X01667Y02297*
X01667Y02297*
X01667Y02298*
X01667Y02298*
X01667Y02298*
X01667Y02299*
X01667Y02299*
X01667Y02299*
X01667Y023*
X01666Y023*
X01666Y023*
X01666Y023*
X01666Y02301*
X01665Y02301*
X01665Y02301*
X01665Y02301*
X01664Y02301*
X01664Y02301*
X01664Y02301*
X01663Y02302*
X01663Y02302*
X01663Y02302*
X01662*
X01662Y02302*
X01662Y02302*
X01661Y02301*
X01661Y02301*
X01661Y02301*
X0166Y02301*
X0166Y02301*
X0166Y02301*
X0166Y02301*
X01659Y023*
X01659Y023*
X01659Y023*
X01659Y023*
X01658Y02299*
X01658Y02299*
X01658Y02299*
X01658Y02298*
X01658Y02298*
X01658Y02298*
X01658Y02297*
X01658Y02297*
X01658Y02297*
X01658Y02296*
X01658Y02296*
X01658Y02296*
X01658Y02295*
X01658Y02295*
X01658Y02295*
X01658Y02294*
X01658Y02294*
X01659Y02294*
X01659Y02294*
X01659Y02293*
X01659Y02293*
X0166Y02293*
X0166Y02293*
X0166Y02292*
X0166Y02292*
X01661Y02292*
X01661Y02292*
X01661Y02292*
X01662Y02292*
X01662Y02292*
X01662Y02292*
X01663*
X01663Y02292*
X01663Y02292*
X01664Y02292*
X01664Y02292*
X01664Y02292*
X01665Y02292*
X01665Y02292*
X01665Y02293*
X01666Y02293*
X01666Y02293*
X01666Y02293*
X01666Y02294*
X01667Y02294*
X01667Y02294*
X01667Y02294*
X01667Y02295*
X01667Y02295*
X01667Y02295*
X01667Y02296*
X01667Y02296*
X01667Y02296*
X01667Y02297*
X04069Y00722D02*
D01*
X04069Y00722*
X04069Y00723*
X04069Y00723*
X04069Y00723*
X04069Y00724*
X04069Y00724*
X04068Y00724*
X04068Y00725*
X04068Y00725*
X04068Y00725*
X04068Y00725*
X04067Y00726*
X04067Y00726*
X04067Y00726*
X04067Y00726*
X04066Y00726*
X04066Y00726*
X04066Y00727*
X04065Y00727*
X04065Y00727*
X04065Y00727*
X04064Y00727*
X04064*
X04064Y00727*
X04063Y00727*
X04063Y00727*
X04063Y00727*
X04062Y00726*
X04062Y00726*
X04062Y00726*
X04061Y00726*
X04061Y00726*
X04061Y00726*
X04061Y00725*
X0406Y00725*
X0406Y00725*
X0406Y00725*
X0406Y00724*
X0406Y00724*
X04059Y00724*
X04059Y00723*
X04059Y00723*
X04059Y00723*
X04059Y00722*
X04059Y00722*
X04059Y00722*
X04059Y00721*
X04059Y00721*
X04059Y00721*
X04059Y0072*
X0406Y0072*
X0406Y0072*
X0406Y00719*
X0406Y00719*
X0406Y00719*
X04061Y00718*
X04061Y00718*
X04061Y00718*
X04061Y00718*
X04062Y00718*
X04062Y00717*
X04062Y00717*
X04063Y00717*
X04063Y00717*
X04063Y00717*
X04064Y00717*
X04064Y00717*
X04064*
X04065Y00717*
X04065Y00717*
X04065Y00717*
X04066Y00717*
X04066Y00717*
X04066Y00717*
X04067Y00718*
X04067Y00718*
X04067Y00718*
X04067Y00718*
X04068Y00718*
X04068Y00719*
X04068Y00719*
X04068Y00719*
X04068Y0072*
X04069Y0072*
X04069Y0072*
X04069Y00721*
X04069Y00721*
X04069Y00721*
X04069Y00722*
X04069Y00722*
X02635Y00933D02*
D01*
X02635Y00934*
X02635Y00934*
X02635Y00934*
X02635Y00935*
X02635Y00935*
X02635Y00935*
X02634Y00936*
X02634Y00936*
X02634Y00936*
X02634Y00936*
X02634Y00937*
X02633Y00937*
X02633Y00937*
X02633Y00937*
X02633Y00938*
X02632Y00938*
X02632Y00938*
X02632Y00938*
X02631Y00938*
X02631Y00938*
X02631Y00938*
X0263Y00938*
X0263*
X0263Y00938*
X02629Y00938*
X02629Y00938*
X02629Y00938*
X02628Y00938*
X02628Y00938*
X02628Y00938*
X02627Y00937*
X02627Y00937*
X02627Y00937*
X02627Y00937*
X02626Y00936*
X02626Y00936*
X02626Y00936*
X02626Y00936*
X02626Y00935*
X02625Y00935*
X02625Y00935*
X02625Y00934*
X02625Y00934*
X02625Y00934*
X02625Y00933*
X02625Y00933*
X02625Y00933*
X02625Y00932*
X02625Y00932*
X02625Y00932*
X02626Y00931*
X02626Y00931*
X02626Y00931*
X02626Y0093*
X02626Y0093*
X02627Y0093*
X02627Y0093*
X02627Y00929*
X02627Y00929*
X02628Y00929*
X02628Y00929*
X02628Y00929*
X02629Y00929*
X02629Y00929*
X02629Y00928*
X0263Y00928*
X0263Y00928*
X0263*
X02631Y00928*
X02631Y00928*
X02631Y00929*
X02632Y00929*
X02632Y00929*
X02632Y00929*
X02633Y00929*
X02633Y00929*
X02633Y00929*
X02633Y0093*
X02634Y0093*
X02634Y0093*
X02634Y0093*
X02634Y00931*
X02634Y00931*
X02635Y00931*
X02635Y00932*
X02635Y00932*
X02635Y00932*
X02635Y00933*
X02635Y00933*
X02635Y00933*
X03565Y00612D02*
D01*
X03565Y00612*
X03565Y00612*
X03565Y00613*
X03565Y00613*
X03565Y00613*
X03565Y00614*
X03565Y00614*
X03564Y00614*
X03564Y00615*
X03564Y00615*
X03564Y00615*
X03563Y00615*
X03563Y00616*
X03563Y00616*
X03563Y00616*
X03562Y00616*
X03562Y00616*
X03562Y00616*
X03561Y00616*
X03561Y00617*
X03561Y00617*
X0356Y00617*
X0356*
X0356Y00617*
X03559Y00617*
X03559Y00616*
X03559Y00616*
X03558Y00616*
X03558Y00616*
X03558Y00616*
X03557Y00616*
X03557Y00616*
X03557Y00615*
X03557Y00615*
X03556Y00615*
X03556Y00615*
X03556Y00614*
X03556Y00614*
X03556Y00614*
X03556Y00613*
X03555Y00613*
X03555Y00613*
X03555Y00612*
X03555Y00612*
X03555Y00612*
X03555Y00611*
X03555Y00611*
X03555Y00611*
X03555Y0061*
X03556Y0061*
X03556Y0061*
X03556Y00609*
X03556Y00609*
X03556Y00609*
X03556Y00609*
X03557Y00608*
X03557Y00608*
X03557Y00608*
X03557Y00608*
X03558Y00607*
X03558Y00607*
X03558Y00607*
X03559Y00607*
X03559Y00607*
X03559Y00607*
X0356Y00607*
X0356Y00607*
X0356*
X03561Y00607*
X03561Y00607*
X03561Y00607*
X03562Y00607*
X03562Y00607*
X03562Y00607*
X03563Y00607*
X03563Y00608*
X03563Y00608*
X03563Y00608*
X03564Y00608*
X03564Y00609*
X03564Y00609*
X03564Y00609*
X03565Y00609*
X03565Y0061*
X03565Y0061*
X03565Y0061*
X03565Y00611*
X03565Y00611*
X03565Y00611*
X03565Y00612*
X01616Y00781D02*
D01*
X01616Y00781*
X01616Y00782*
X01616Y00782*
X01616Y00782*
X01616Y00783*
X01616Y00783*
X01616Y00783*
X01616Y00784*
X01615Y00784*
X01615Y00784*
X01615Y00784*
X01615Y00785*
X01614Y00785*
X01614Y00785*
X01614Y00785*
X01614Y00785*
X01613Y00786*
X01613Y00786*
X01613Y00786*
X01612Y00786*
X01612Y00786*
X01612Y00786*
X01611*
X01611Y00786*
X01611Y00786*
X0161Y00786*
X0161Y00786*
X0161Y00786*
X01609Y00785*
X01609Y00785*
X01609Y00785*
X01608Y00785*
X01608Y00785*
X01608Y00784*
X01608Y00784*
X01607Y00784*
X01607Y00784*
X01607Y00783*
X01607Y00783*
X01607Y00783*
X01607Y00782*
X01607Y00782*
X01606Y00782*
X01606Y00781*
X01606Y00781*
X01606Y00781*
X01606Y0078*
X01607Y0078*
X01607Y0078*
X01607Y00779*
X01607Y00779*
X01607Y00779*
X01607Y00778*
X01607Y00778*
X01608Y00778*
X01608Y00778*
X01608Y00777*
X01608Y00777*
X01609Y00777*
X01609Y00777*
X01609Y00777*
X0161Y00776*
X0161Y00776*
X0161Y00776*
X01611Y00776*
X01611Y00776*
X01611Y00776*
X01612*
X01612Y00776*
X01612Y00776*
X01613Y00776*
X01613Y00776*
X01613Y00776*
X01614Y00777*
X01614Y00777*
X01614Y00777*
X01614Y00777*
X01615Y00777*
X01615Y00778*
X01615Y00778*
X01615Y00778*
X01616Y00778*
X01616Y00779*
X01616Y00779*
X01616Y00779*
X01616Y0078*
X01616Y0078*
X01616Y0078*
X01616Y00781*
X01616Y00781*
X02219Y00722D02*
D01*
X02219Y00722*
X02219Y00723*
X02219Y00723*
X02218Y00723*
X02218Y00724*
X02218Y00724*
X02218Y00724*
X02218Y00725*
X02218Y00725*
X02217Y00725*
X02217Y00725*
X02217Y00726*
X02217Y00726*
X02216Y00726*
X02216Y00726*
X02216Y00726*
X02216Y00726*
X02215Y00727*
X02215Y00727*
X02215Y00727*
X02214Y00727*
X02214Y00727*
X02214*
X02213Y00727*
X02213Y00727*
X02213Y00727*
X02212Y00727*
X02212Y00726*
X02212Y00726*
X02211Y00726*
X02211Y00726*
X02211Y00726*
X0221Y00726*
X0221Y00725*
X0221Y00725*
X0221Y00725*
X0221Y00725*
X02209Y00724*
X02209Y00724*
X02209Y00724*
X02209Y00723*
X02209Y00723*
X02209Y00723*
X02209Y00722*
X02209Y00722*
X02209Y00722*
X02209Y00721*
X02209Y00721*
X02209Y00721*
X02209Y0072*
X02209Y0072*
X02209Y0072*
X0221Y00719*
X0221Y00719*
X0221Y00719*
X0221Y00718*
X0221Y00718*
X02211Y00718*
X02211Y00718*
X02211Y00718*
X02212Y00717*
X02212Y00717*
X02212Y00717*
X02213Y00717*
X02213Y00717*
X02213Y00717*
X02214Y00717*
X02214*
X02214Y00717*
X02215Y00717*
X02215Y00717*
X02215Y00717*
X02216Y00717*
X02216Y00717*
X02216Y00718*
X02216Y00718*
X02217Y00718*
X02217Y00718*
X02217Y00718*
X02217Y00719*
X02218Y00719*
X02218Y00719*
X02218Y0072*
X02218Y0072*
X02218Y0072*
X02218Y00721*
X02219Y00721*
X02219Y00721*
X02219Y00722*
X02219Y00722*
X00169Y02435D02*
D01*
X00169Y02436*
X00169Y02436*
X00169Y02437*
X00169Y02437*
X00169Y02437*
X00169Y02437*
X00169Y02438*
X00169Y02438*
X00168Y02438*
X00168Y02439*
X00168Y02439*
X00168Y02439*
X00168Y02439*
X00167Y0244*
X00167Y0244*
X00167Y0244*
X00166Y0244*
X00166Y0244*
X00166Y0244*
X00165Y0244*
X00165Y0244*
X00165Y0244*
X00164*
X00164Y0244*
X00164Y0244*
X00163Y0244*
X00163Y0244*
X00163Y0244*
X00162Y0244*
X00162Y0244*
X00162Y0244*
X00161Y02439*
X00161Y02439*
X00161Y02439*
X00161Y02439*
X00161Y02438*
X0016Y02438*
X0016Y02438*
X0016Y02437*
X0016Y02437*
X0016Y02437*
X0016Y02437*
X0016Y02436*
X0016Y02436*
X0016Y02435*
X0016Y02435*
X0016Y02435*
X0016Y02434*
X0016Y02434*
X0016Y02434*
X0016Y02433*
X0016Y02433*
X0016Y02433*
X00161Y02433*
X00161Y02432*
X00161Y02432*
X00161Y02432*
X00161Y02432*
X00162Y02431*
X00162Y02431*
X00162Y02431*
X00163Y02431*
X00163Y02431*
X00163Y02431*
X00164Y02431*
X00164Y02431*
X00164Y02431*
X00165*
X00165Y02431*
X00165Y02431*
X00166Y02431*
X00166Y02431*
X00166Y02431*
X00167Y02431*
X00167Y02431*
X00167Y02431*
X00168Y02432*
X00168Y02432*
X00168Y02432*
X00168Y02432*
X00168Y02433*
X00169Y02433*
X00169Y02433*
X00169Y02433*
X00169Y02434*
X00169Y02434*
X00169Y02434*
X00169Y02435*
X00169Y02435*
X00169Y02435*
X00717Y01618D02*
D01*
X00717Y01618*
X00717Y01618*
X00717Y01619*
X00716Y01619*
X00716Y01619*
X00716Y0162*
X00716Y0162*
X00716Y0162*
X00716Y0162*
X00716Y01621*
X00715Y01621*
X00715Y01621*
X00715Y01621*
X00715Y01622*
X00714Y01622*
X00714Y01622*
X00714Y01622*
X00713Y01622*
X00713Y01622*
X00713Y01622*
X00712Y01622*
X00712Y01622*
X00712*
X00711Y01622*
X00711Y01622*
X00711Y01622*
X0071Y01622*
X0071Y01622*
X0071Y01622*
X00709Y01622*
X00709Y01622*
X00709Y01621*
X00708Y01621*
X00708Y01621*
X00708Y01621*
X00708Y0162*
X00708Y0162*
X00707Y0162*
X00707Y0162*
X00707Y01619*
X00707Y01619*
X00707Y01619*
X00707Y01618*
X00707Y01618*
X00707Y01618*
X00707Y01617*
X00707Y01617*
X00707Y01617*
X00707Y01616*
X00707Y01616*
X00707Y01616*
X00707Y01615*
X00708Y01615*
X00708Y01615*
X00708Y01614*
X00708Y01614*
X00708Y01614*
X00709Y01614*
X00709Y01613*
X00709Y01613*
X0071Y01613*
X0071Y01613*
X0071Y01613*
X00711Y01613*
X00711Y01613*
X00711Y01613*
X00712Y01613*
X00712*
X00712Y01613*
X00713Y01613*
X00713Y01613*
X00713Y01613*
X00714Y01613*
X00714Y01613*
X00714Y01613*
X00715Y01613*
X00715Y01614*
X00715Y01614*
X00715Y01614*
X00716Y01614*
X00716Y01615*
X00716Y01615*
X00716Y01615*
X00716Y01616*
X00716Y01616*
X00716Y01616*
X00717Y01617*
X00717Y01617*
X00717Y01617*
X00717Y01618*
X04306Y00958D02*
D01*
X04306Y00958*
X04306Y00959*
X04306Y00959*
X04306Y00959*
X04306Y0096*
X04306Y0096*
X04306Y0096*
X04306Y00961*
X04305Y00961*
X04305Y00961*
X04305Y00962*
X04305Y00962*
X04304Y00962*
X04304Y00962*
X04304Y00962*
X04303Y00963*
X04303Y00963*
X04303Y00963*
X04303Y00963*
X04302Y00963*
X04302Y00963*
X04301Y00963*
X04301*
X04301Y00963*
X043Y00963*
X043Y00963*
X043Y00963*
X04299Y00963*
X04299Y00963*
X04299Y00962*
X04299Y00962*
X04298Y00962*
X04298Y00962*
X04298Y00962*
X04298Y00961*
X04297Y00961*
X04297Y00961*
X04297Y0096*
X04297Y0096*
X04297Y0096*
X04297Y00959*
X04297Y00959*
X04296Y00959*
X04296Y00958*
X04296Y00958*
X04296Y00958*
X04296Y00957*
X04297Y00957*
X04297Y00957*
X04297Y00956*
X04297Y00956*
X04297Y00956*
X04297Y00956*
X04297Y00955*
X04298Y00955*
X04298Y00955*
X04298Y00954*
X04298Y00954*
X04299Y00954*
X04299Y00954*
X04299Y00954*
X04299Y00954*
X043Y00953*
X043Y00953*
X043Y00953*
X04301Y00953*
X04301Y00953*
X04301*
X04302Y00953*
X04302Y00953*
X04303Y00953*
X04303Y00953*
X04303Y00954*
X04303Y00954*
X04304Y00954*
X04304Y00954*
X04304Y00954*
X04305Y00954*
X04305Y00955*
X04305Y00955*
X04305Y00955*
X04306Y00956*
X04306Y00956*
X04306Y00956*
X04306Y00956*
X04306Y00957*
X04306Y00957*
X04306Y00957*
X04306Y00958*
X04306Y00958*
X04042D02*
D01*
X04042Y00958*
X04042Y00959*
X04042Y00959*
X04042Y00959*
X04042Y0096*
X04042Y0096*
X04042Y0096*
X04042Y00961*
X04042Y00961*
X04041Y00961*
X04041Y00962*
X04041Y00962*
X04041Y00962*
X0404Y00962*
X0404Y00962*
X0404Y00963*
X04039Y00963*
X04039Y00963*
X04039Y00963*
X04038Y00963*
X04038Y00963*
X04038Y00963*
X04037*
X04037Y00963*
X04037Y00963*
X04036Y00963*
X04036Y00963*
X04036Y00963*
X04035Y00963*
X04035Y00962*
X04035Y00962*
X04035Y00962*
X04034Y00962*
X04034Y00962*
X04034Y00961*
X04034Y00961*
X04033Y00961*
X04033Y0096*
X04033Y0096*
X04033Y0096*
X04033Y00959*
X04033Y00959*
X04033Y00959*
X04033Y00958*
X04033Y00958*
X04033Y00958*
X04033Y00957*
X04033Y00957*
X04033Y00957*
X04033Y00956*
X04033Y00956*
X04033Y00956*
X04033Y00956*
X04034Y00955*
X04034Y00955*
X04034Y00955*
X04034Y00954*
X04035Y00954*
X04035Y00954*
X04035Y00954*
X04035Y00954*
X04036Y00954*
X04036Y00953*
X04036Y00953*
X04037Y00953*
X04037Y00953*
X04037Y00953*
X04038*
X04038Y00953*
X04038Y00953*
X04039Y00953*
X04039Y00953*
X04039Y00954*
X0404Y00954*
X0404Y00954*
X0404Y00954*
X04041Y00954*
X04041Y00954*
X04041Y00955*
X04041Y00955*
X04042Y00955*
X04042Y00956*
X04042Y00956*
X04042Y00956*
X04042Y00956*
X04042Y00957*
X04042Y00957*
X04042Y00957*
X04042Y00958*
X04042Y00958*
X04392Y02825D02*
D01*
X04392Y02826*
X04392Y02826*
X04392Y02826*
X04392Y02827*
X04392Y02827*
X04391Y02827*
X04391Y02828*
X04391Y02828*
X04391Y02828*
X04391Y02828*
X0439Y02829*
X0439Y02829*
X0439Y02829*
X0439Y02829*
X04389Y0283*
X04389Y0283*
X04389Y0283*
X04388Y0283*
X04388Y0283*
X04388Y0283*
X04387Y0283*
X04387Y0283*
X04387*
X04386Y0283*
X04386Y0283*
X04386Y0283*
X04385Y0283*
X04385Y0283*
X04385Y0283*
X04384Y0283*
X04384Y02829*
X04384Y02829*
X04384Y02829*
X04383Y02829*
X04383Y02828*
X04383Y02828*
X04383Y02828*
X04383Y02828*
X04382Y02827*
X04382Y02827*
X04382Y02827*
X04382Y02826*
X04382Y02826*
X04382Y02826*
X04382Y02825*
X04382Y02825*
X04382Y02825*
X04382Y02824*
X04382Y02824*
X04382Y02824*
X04382Y02823*
X04383Y02823*
X04383Y02823*
X04383Y02822*
X04383Y02822*
X04383Y02822*
X04384Y02822*
X04384Y02821*
X04384Y02821*
X04384Y02821*
X04385Y02821*
X04385Y02821*
X04385Y02821*
X04386Y0282*
X04386Y0282*
X04386Y0282*
X04387Y0282*
X04387*
X04387Y0282*
X04388Y0282*
X04388Y0282*
X04388Y02821*
X04389Y02821*
X04389Y02821*
X04389Y02821*
X0439Y02821*
X0439Y02821*
X0439Y02822*
X0439Y02822*
X04391Y02822*
X04391Y02822*
X04391Y02823*
X04391Y02823*
X04391Y02823*
X04392Y02824*
X04392Y02824*
X04392Y02824*
X04392Y02825*
X04392Y02825*
X04392Y02825*
X00412Y00185D02*
D01*
X00412Y00185*
X00412Y00185*
X00411Y00186*
X00411Y00186*
X00411Y00186*
X00411Y00187*
X00411Y00187*
X00411Y00187*
X00411Y00187*
X0041Y00188*
X0041Y00188*
X0041Y00188*
X0041Y00188*
X00409Y00189*
X00409Y00189*
X00409Y00189*
X00408Y00189*
X00408Y00189*
X00408Y00189*
X00407Y00189*
X00407Y00189*
X00407Y00189*
X00406*
X00406Y00189*
X00406Y00189*
X00405Y00189*
X00405Y00189*
X00405Y00189*
X00404Y00189*
X00404Y00189*
X00404Y00189*
X00404Y00188*
X00403Y00188*
X00403Y00188*
X00403Y00188*
X00403Y00187*
X00402Y00187*
X00402Y00187*
X00402Y00187*
X00402Y00186*
X00402Y00186*
X00402Y00186*
X00402Y00185*
X00402Y00185*
X00402Y00185*
X00402Y00184*
X00402Y00184*
X00402Y00183*
X00402Y00183*
X00402Y00183*
X00402Y00183*
X00402Y00182*
X00402Y00182*
X00403Y00182*
X00403Y00181*
X00403Y00181*
X00403Y00181*
X00404Y00181*
X00404Y0018*
X00404Y0018*
X00404Y0018*
X00405Y0018*
X00405Y0018*
X00405Y0018*
X00406Y0018*
X00406Y0018*
X00406Y0018*
X00407*
X00407Y0018*
X00407Y0018*
X00408Y0018*
X00408Y0018*
X00408Y0018*
X00409Y0018*
X00409Y0018*
X00409Y0018*
X0041Y00181*
X0041Y00181*
X0041Y00181*
X0041Y00181*
X00411Y00182*
X00411Y00182*
X00411Y00182*
X00411Y00183*
X00411Y00183*
X00411Y00183*
X00411Y00183*
X00412Y00184*
X00412Y00184*
X00412Y00185*
G54D11*
X02157Y0146D02*
D01*
X02157Y0146*
X02157Y01461*
X02157Y01461*
X02156Y01461*
X02156Y01461*
X02156Y01462*
X02156Y01462*
X02156Y01462*
X02156Y01462*
X02156Y01463*
X02156Y01463*
X02155Y01463*
X02155Y01463*
X02155Y01463*
X02155Y01464*
X02154Y01464*
X02154Y01464*
X02154Y01464*
X02154Y01464*
X02153Y01464*
X02153Y01464*
X02153Y01464*
X02153*
X02152Y01464*
X02152Y01464*
X02152Y01464*
X02151Y01464*
X02151Y01464*
X02151Y01464*
X02151Y01464*
X02151Y01463*
X0215Y01463*
X0215Y01463*
X0215Y01463*
X0215Y01463*
X0215Y01462*
X02149Y01462*
X02149Y01462*
X02149Y01462*
X02149Y01461*
X02149Y01461*
X02149Y01461*
X02149Y01461*
X02149Y0146*
X02149Y0146*
X02149Y0146*
X02149Y0146*
X02149Y01459*
X02149Y01459*
X02149Y01459*
X02149Y01458*
X02149Y01458*
X02149Y01458*
X0215Y01458*
X0215Y01458*
X0215Y01457*
X0215Y01457*
X0215Y01457*
X02151Y01457*
X02151Y01457*
X02151Y01457*
X02151Y01456*
X02151Y01456*
X02152Y01456*
X02152Y01456*
X02152Y01456*
X02153Y01456*
X02153*
X02153Y01456*
X02153Y01456*
X02154Y01456*
X02154Y01456*
X02154Y01456*
X02154Y01457*
X02155Y01457*
X02155Y01457*
X02155Y01457*
X02155Y01457*
X02156Y01457*
X02156Y01458*
X02156Y01458*
X02156Y01458*
X02156Y01458*
X02156Y01458*
X02156Y01459*
X02156Y01459*
X02157Y01459*
X02157Y0146*
X02157Y0146*
X02157Y0146*
G54D12*
X03566Y00093D02*
D01*
X03566Y00093*
X03566Y00094*
X03566Y00094*
X03566Y00094*
X03566Y00095*
X03566Y00095*
X03566Y00095*
X03565Y00095*
X03565Y00095*
X03565Y00096*
X03565Y00096*
X03565Y00096*
X03565Y00096*
X03564Y00096*
X03564Y00097*
X03564Y00097*
X03564Y00097*
X03563Y00097*
X03563Y00097*
X03563Y00097*
X03563Y00097*
X03562Y00097*
X03562*
X03562Y00097*
X03561Y00097*
X03561Y00097*
X03561Y00097*
X03561Y00097*
X0356Y00097*
X0356Y00097*
X0356Y00096*
X0356Y00096*
X0356Y00096*
X03559Y00096*
X03559Y00096*
X03559Y00095*
X03559Y00095*
X03559Y00095*
X03559Y00095*
X03558Y00095*
X03558Y00094*
X03558Y00094*
X03558Y00094*
X03558Y00093*
X03558Y00093*
X03558Y00093*
X03558Y00093*
X03558Y00092*
X03558Y00092*
X03558Y00092*
X03559Y00092*
X03559Y00091*
X03559Y00091*
X03559Y00091*
X03559Y00091*
X03559Y0009*
X0356Y0009*
X0356Y0009*
X0356Y0009*
X0356Y0009*
X0356Y0009*
X03561Y0009*
X03561Y00089*
X03561Y00089*
X03561Y00089*
X03562Y00089*
X03562Y00089*
X03562*
X03563Y00089*
X03563Y00089*
X03563Y00089*
X03563Y00089*
X03564Y0009*
X03564Y0009*
X03564Y0009*
X03564Y0009*
X03565Y0009*
X03565Y0009*
X03565Y0009*
X03565Y00091*
X03565Y00091*
X03565Y00091*
X03566Y00091*
X03566Y00092*
X03566Y00092*
X03566Y00092*
X03566Y00092*
X03566Y00093*
X03566Y00093*
X03566Y00093*
X01623Y00111D02*
D01*
X01623Y00111*
X01623Y00111*
X01623Y00112*
X01623Y00112*
X01623Y00112*
X01623Y00112*
X01623Y00113*
X01623Y00113*
X01622Y00113*
X01622Y00113*
X01622Y00114*
X01622Y00114*
X01622Y00114*
X01621Y00114*
X01621Y00114*
X01621Y00114*
X01621Y00115*
X0162Y00115*
X0162Y00115*
X0162Y00115*
X0162Y00115*
X01619Y00115*
X01619*
X01619Y00115*
X01619Y00115*
X01618Y00115*
X01618Y00115*
X01618Y00115*
X01618Y00114*
X01617Y00114*
X01617Y00114*
X01617Y00114*
X01617Y00114*
X01616Y00114*
X01616Y00113*
X01616Y00113*
X01616Y00113*
X01616Y00113*
X01616Y00112*
X01616Y00112*
X01615Y00112*
X01615Y00112*
X01615Y00111*
X01615Y00111*
X01615Y00111*
X01615Y00111*
X01615Y0011*
X01615Y0011*
X01615Y0011*
X01616Y0011*
X01616Y00109*
X01616Y00109*
X01616Y00109*
X01616Y00109*
X01616Y00108*
X01616Y00108*
X01617Y00108*
X01617Y00108*
X01617Y00108*
X01617Y00107*
X01618Y00107*
X01618Y00107*
X01618Y00107*
X01618Y00107*
X01619Y00107*
X01619Y00107*
X01619Y00107*
X01619*
X0162Y00107*
X0162Y00107*
X0162Y00107*
X0162Y00107*
X01621Y00107*
X01621Y00107*
X01621Y00107*
X01621Y00108*
X01622Y00108*
X01622Y00108*
X01622Y00108*
X01622Y00108*
X01622Y00109*
X01623Y00109*
X01623Y00109*
X01623Y00109*
X01623Y0011*
X01623Y0011*
X01623Y0011*
X01623Y0011*
X01623Y00111*
X01623Y00111*
X0353Y01314D02*
D01*
X0353Y01315*
X0353Y01315*
X0353Y01315*
X0353Y01315*
X0353Y01316*
X0353Y01316*
X0353Y01316*
X0353Y01316*
X03529Y01317*
X03529Y01317*
X03529Y01317*
X03529Y01317*
X03529Y01317*
X03528Y01318*
X03528Y01318*
X03528Y01318*
X03528Y01318*
X03527Y01318*
X03527Y01318*
X03527Y01318*
X03527Y01318*
X03526Y01318*
X03526*
X03526Y01318*
X03526Y01318*
X03525Y01318*
X03525Y01318*
X03525Y01318*
X03525Y01318*
X03524Y01318*
X03524Y01318*
X03524Y01317*
X03524Y01317*
X03523Y01317*
X03523Y01317*
X03523Y01317*
X03523Y01316*
X03523Y01316*
X03523Y01316*
X03523Y01316*
X03522Y01315*
X03522Y01315*
X03522Y01315*
X03522Y01315*
X03522Y01314*
X03522Y01314*
X03522Y01314*
X03522Y01314*
X03522Y01313*
X03523Y01313*
X03523Y01313*
X03523Y01313*
X03523Y01312*
X03523Y01312*
X03523Y01312*
X03523Y01312*
X03524Y01311*
X03524Y01311*
X03524Y01311*
X03524Y01311*
X03525Y01311*
X03525Y01311*
X03525Y01311*
X03525Y01311*
X03526Y01311*
X03526Y0131*
X03526Y0131*
X03526*
X03527Y0131*
X03527Y01311*
X03527Y01311*
X03527Y01311*
X03528Y01311*
X03528Y01311*
X03528Y01311*
X03528Y01311*
X03529Y01311*
X03529Y01311*
X03529Y01312*
X03529Y01312*
X03529Y01312*
X0353Y01312*
X0353Y01313*
X0353Y01313*
X0353Y01313*
X0353Y01313*
X0353Y01314*
X0353Y01314*
X0353Y01314*
X0353Y01314*
X04192Y01801D02*
D01*
X04192Y01801*
X04192Y01801*
X04191Y01801*
X04191Y01801*
X04191Y01801*
X0419Y01801*
X0419Y01801*
X0419Y01801*
X0419Y018*
X0419Y018*
X04189Y018*
X04189Y018*
X04189Y018*
X04189Y01799*
X04189Y01799*
X04189Y01799*
X04188Y01799*
X04188Y01798*
X04188Y01798*
X04188Y01798*
X04188Y01798*
X04188Y01797*
Y01797*
X04188Y01797*
X04188Y01797*
X04188Y01796*
X04188Y01796*
X04188Y01796*
X04189Y01795*
X04189Y01795*
X04189Y01795*
X04189Y01795*
X04189Y01795*
X04189Y01794*
X0419Y01794*
X0419Y01794*
X0419Y01794*
X0419Y01794*
X0419Y01794*
X04191Y01793*
X04191Y01793*
X04191Y01793*
X04192Y01793*
X04192Y01793*
X04192Y01793*
D01*
X04192Y01793*
X04193Y01793*
X04193Y01793*
X04193Y01793*
X04193Y01793*
X04194Y01794*
X04194Y01794*
X04194Y01794*
X04194Y01794*
X04195Y01794*
X04195Y01794*
X04195Y01795*
X04195Y01795*
X04195Y01795*
X04195Y01795*
X04196Y01795*
X04196Y01796*
X04196Y01796*
X04196Y01796*
X04196Y01797*
X04196Y01797*
X04196Y01797*
Y01797*
X04196Y01798*
X04196Y01798*
X04196Y01798*
X04196Y01798*
X04196Y01799*
X04196Y01799*
X04195Y01799*
X04195Y01799*
X04195Y018*
X04195Y018*
X04195Y018*
X04195Y018*
X04194Y018*
X04194Y01801*
X04194Y01801*
X04194Y01801*
X04193Y01801*
X04193Y01801*
X04193Y01801*
X04193Y01801*
X04192Y01801*
X04192Y01801*
X00871Y02998D02*
D01*
X00871Y02999*
X00871Y02999*
X00871Y02999*
X00871Y02999*
X00871Y03*
X00871Y03*
X00871Y03*
X00871Y03*
X0087Y03001*
X0087Y03001*
X0087Y03001*
X0087Y03001*
X0087Y03001*
X00869Y03002*
X00869Y03002*
X00869Y03002*
X00869Y03002*
X00868Y03002*
X00868Y03002*
X00868Y03002*
X00868Y03002*
X00867Y03002*
X00867*
X00867Y03002*
X00867Y03002*
X00866Y03002*
X00866Y03002*
X00866Y03002*
X00866Y03002*
X00865Y03002*
X00865Y03002*
X00865Y03001*
X00865Y03001*
X00864Y03001*
X00864Y03001*
X00864Y03001*
X00864Y03*
X00864Y03*
X00864Y03*
X00864Y03*
X00863Y02999*
X00863Y02999*
X00863Y02999*
X00863Y02999*
X00863Y02998*
X00863Y02998*
X00863Y02998*
X00863Y02997*
X00863Y02997*
X00864Y02997*
X00864Y02997*
X00864Y02996*
X00864Y02996*
X00864Y02996*
X00864Y02996*
X00864Y02996*
X00865Y02995*
X00865Y02995*
X00865Y02995*
X00865Y02995*
X00866Y02995*
X00866Y02995*
X00866Y02995*
X00866Y02994*
X00867Y02994*
X00867Y02994*
X00867Y02994*
X00867*
X00868Y02994*
X00868Y02994*
X00868Y02994*
X00868Y02995*
X00869Y02995*
X00869Y02995*
X00869Y02995*
X00869Y02995*
X0087Y02995*
X0087Y02995*
X0087Y02996*
X0087Y02996*
X0087Y02996*
X00871Y02996*
X00871Y02996*
X00871Y02997*
X00871Y02997*
X00871Y02997*
X00871Y02997*
X00871Y02998*
X00871Y02998*
X00871Y02998*
X04944Y00369D02*
D01*
X04944Y00369*
X04944Y00369*
X04944Y0037*
X04944Y0037*
X04944Y0037*
X04944Y0037*
X04944Y00371*
X04943Y00371*
X04943Y00371*
X04943Y00371*
X04943Y00371*
X04943Y00372*
X04943Y00372*
X04942Y00372*
X04942Y00372*
X04942Y00372*
X04942Y00372*
X04941Y00373*
X04941Y00373*
X04941Y00373*
X04941Y00373*
X0494Y00373*
X0494*
X0494Y00373*
X04939Y00373*
X04939Y00373*
X04939Y00373*
X04939Y00372*
X04938Y00372*
X04938Y00372*
X04938Y00372*
X04938Y00372*
X04937Y00372*
X04937Y00371*
X04937Y00371*
X04937Y00371*
X04937Y00371*
X04937Y00371*
X04937Y0037*
X04936Y0037*
X04936Y0037*
X04936Y0037*
X04936Y00369*
X04936Y00369*
X04936Y00369*
X04936Y00368*
X04936Y00368*
X04936Y00368*
X04936Y00368*
X04936Y00367*
X04937Y00367*
X04937Y00367*
X04937Y00367*
X04937Y00366*
X04937Y00366*
X04937Y00366*
X04937Y00366*
X04938Y00366*
X04938Y00365*
X04938Y00365*
X04938Y00365*
X04939Y00365*
X04939Y00365*
X04939Y00365*
X04939Y00365*
X0494Y00365*
X0494Y00365*
X0494*
X04941Y00365*
X04941Y00365*
X04941Y00365*
X04941Y00365*
X04942Y00365*
X04942Y00365*
X04942Y00365*
X04942Y00365*
X04943Y00366*
X04943Y00366*
X04943Y00366*
X04943Y00366*
X04943Y00366*
X04943Y00367*
X04944Y00367*
X04944Y00367*
X04944Y00367*
X04944Y00368*
X04944Y00368*
X04944Y00368*
X04944Y00368*
X04944Y00369*
X04328Y00072D02*
D01*
X04328Y00072*
X04328Y00072*
X04328Y00072*
X04328Y00073*
X04328Y00073*
X04328Y00073*
X04327Y00073*
X04327Y00074*
X04327Y00074*
X04327Y00074*
X04327Y00074*
X04327Y00074*
X04326Y00075*
X04326Y00075*
X04326Y00075*
X04326Y00075*
X04325Y00075*
X04325Y00075*
X04325Y00075*
X04325Y00075*
X04324Y00075*
X04324Y00075*
X04324*
X04324Y00075*
X04323Y00075*
X04323Y00075*
X04323Y00075*
X04322Y00075*
X04322Y00075*
X04322Y00075*
X04322Y00075*
X04322Y00075*
X04321Y00074*
X04321Y00074*
X04321Y00074*
X04321Y00074*
X04321Y00074*
X0432Y00073*
X0432Y00073*
X0432Y00073*
X0432Y00073*
X0432Y00072*
X0432Y00072*
X0432Y00072*
X0432Y00072*
X0432Y00071*
X0432Y00071*
X0432Y00071*
X0432Y0007*
X0432Y0007*
X0432Y0007*
X0432Y0007*
X04321Y00069*
X04321Y00069*
X04321Y00069*
X04321Y00069*
X04321Y00069*
X04322Y00068*
X04322Y00068*
X04322Y00068*
X04322Y00068*
X04322Y00068*
X04323Y00068*
X04323Y00068*
X04323Y00068*
X04324Y00068*
X04324Y00068*
X04324*
X04324Y00068*
X04325Y00068*
X04325Y00068*
X04325Y00068*
X04325Y00068*
X04326Y00068*
X04326Y00068*
X04326Y00068*
X04326Y00068*
X04327Y00069*
X04327Y00069*
X04327Y00069*
X04327Y00069*
X04327Y00069*
X04327Y0007*
X04328Y0007*
X04328Y0007*
X04328Y0007*
X04328Y00071*
X04328Y00071*
X04328Y00071*
X04328Y00072*
X02346Y00093D02*
D01*
X02346Y00093*
X02346Y00094*
X02346Y00094*
X02345Y00094*
X02345Y00095*
X02345Y00095*
X02345Y00095*
X02345Y00095*
X02345Y00095*
X02345Y00096*
X02345Y00096*
X02344Y00096*
X02344Y00096*
X02344Y00096*
X02344Y00097*
X02343Y00097*
X02343Y00097*
X02343Y00097*
X02343Y00097*
X02342Y00097*
X02342Y00097*
X02342Y00097*
X02342*
X02341Y00097*
X02341Y00097*
X02341Y00097*
X0234Y00097*
X0234Y00097*
X0234Y00097*
X0234Y00097*
X02339Y00096*
X02339Y00096*
X02339Y00096*
X02339Y00096*
X02339Y00096*
X02338Y00095*
X02338Y00095*
X02338Y00095*
X02338Y00095*
X02338Y00095*
X02338Y00094*
X02338Y00094*
X02338Y00094*
X02338Y00093*
X02338Y00093*
X02338Y00093*
X02338Y00093*
X02338Y00092*
X02338Y00092*
X02338Y00092*
X02338Y00092*
X02338Y00091*
X02338Y00091*
X02338Y00091*
X02339Y00091*
X02339Y0009*
X02339Y0009*
X02339Y0009*
X02339Y0009*
X0234Y0009*
X0234Y0009*
X0234Y0009*
X0234Y00089*
X02341Y00089*
X02341Y00089*
X02341Y00089*
X02342Y00089*
X02342*
X02342Y00089*
X02342Y00089*
X02343Y00089*
X02343Y00089*
X02343Y0009*
X02343Y0009*
X02344Y0009*
X02344Y0009*
X02344Y0009*
X02344Y0009*
X02345Y0009*
X02345Y00091*
X02345Y00091*
X02345Y00091*
X02345Y00091*
X02345Y00092*
X02345Y00092*
X02345Y00092*
X02346Y00092*
X02346Y00093*
X02346Y00093*
X02346Y00093*
X01111Y00115D02*
D01*
X01111Y00115*
X01111Y00115*
X01111Y00116*
X01111Y00116*
X01111Y00116*
X01111Y00116*
X01111Y00117*
X01111Y00117*
X01111Y00117*
X0111Y00117*
X0111Y00118*
X0111Y00118*
X0111Y00118*
X0111Y00118*
X01109Y00118*
X01109Y00118*
X01109Y00118*
X01109Y00119*
X01108Y00119*
X01108Y00119*
X01108Y00119*
X01108Y00119*
X01107*
X01107Y00119*
X01107Y00119*
X01106Y00119*
X01106Y00119*
X01106Y00118*
X01106Y00118*
X01105Y00118*
X01105Y00118*
X01105Y00118*
X01105Y00118*
X01105Y00118*
X01104Y00117*
X01104Y00117*
X01104Y00117*
X01104Y00117*
X01104Y00116*
X01104Y00116*
X01104Y00116*
X01104Y00116*
X01104Y00115*
X01104Y00115*
X01103Y00115*
X01104Y00115*
X01104Y00114*
X01104Y00114*
X01104Y00114*
X01104Y00113*
X01104Y00113*
X01104Y00113*
X01104Y00113*
X01104Y00113*
X01104Y00112*
X01105Y00112*
X01105Y00112*
X01105Y00112*
X01105Y00112*
X01105Y00111*
X01106Y00111*
X01106Y00111*
X01106Y00111*
X01106Y00111*
X01107Y00111*
X01107Y00111*
X01107Y00111*
X01108*
X01108Y00111*
X01108Y00111*
X01108Y00111*
X01109Y00111*
X01109Y00111*
X01109Y00111*
X01109Y00111*
X0111Y00112*
X0111Y00112*
X0111Y00112*
X0111Y00112*
X0111Y00112*
X01111Y00113*
X01111Y00113*
X01111Y00113*
X01111Y00113*
X01111Y00113*
X01111Y00114*
X01111Y00114*
X01111Y00114*
X01111Y00115*
X01111Y00115*
X03968Y02357D02*
D01*
X03968Y02357*
X03968Y02357*
X03968Y02358*
X03968Y02358*
X03967Y02358*
X03967Y02358*
X03967Y02359*
X03967Y02359*
X03967Y02359*
X03967Y02359*
X03967Y02359*
X03966Y0236*
X03966Y0236*
X03966Y0236*
X03966Y0236*
X03965Y0236*
X03965Y0236*
X03965Y0236*
X03965Y02361*
X03964Y02361*
X03964Y02361*
X03964Y02361*
X03964*
X03963Y02361*
X03963Y02361*
X03963Y02361*
X03963Y0236*
X03962Y0236*
X03962Y0236*
X03962Y0236*
X03962Y0236*
X03961Y0236*
X03961Y0236*
X03961Y02359*
X03961Y02359*
X03961Y02359*
X0396Y02359*
X0396Y02359*
X0396Y02358*
X0396Y02358*
X0396Y02358*
X0396Y02358*
X0396Y02357*
X0396Y02357*
X0396Y02357*
X0396Y02356*
X0396Y02356*
X0396Y02356*
X0396Y02356*
X0396Y02355*
X0396Y02355*
X0396Y02355*
X0396Y02355*
X03961Y02354*
X03961Y02354*
X03961Y02354*
X03961Y02354*
X03961Y02354*
X03962Y02353*
X03962Y02353*
X03962Y02353*
X03962Y02353*
X03963Y02353*
X03963Y02353*
X03963Y02353*
X03963Y02353*
X03964Y02353*
X03964*
X03964Y02353*
X03964Y02353*
X03965Y02353*
X03965Y02353*
X03965Y02353*
X03965Y02353*
X03966Y02353*
X03966Y02353*
X03966Y02354*
X03966Y02354*
X03967Y02354*
X03967Y02354*
X03967Y02354*
X03967Y02355*
X03967Y02355*
X03967Y02355*
X03967Y02355*
X03968Y02356*
X03968Y02356*
X03968Y02356*
X03968Y02356*
X03968Y02357*
X05338Y01353D02*
D01*
X05338Y01353*
X05338Y01354*
X05338Y01354*
X05338Y01354*
X05338Y01354*
X05337Y01355*
X05337Y01355*
X05337Y01355*
X05337Y01355*
X05337Y01356*
X05337Y01356*
X05336Y01356*
X05336Y01356*
X05336Y01356*
X05336Y01356*
X05336Y01357*
X05335Y01357*
X05335Y01357*
X05335Y01357*
X05334Y01357*
X05334Y01357*
X05334Y01357*
X05334*
X05333Y01357*
X05333Y01357*
X05333Y01357*
X05333Y01357*
X05332Y01357*
X05332Y01357*
X05332Y01356*
X05332Y01356*
X05331Y01356*
X05331Y01356*
X05331Y01356*
X05331Y01356*
X05331Y01355*
X0533Y01355*
X0533Y01355*
X0533Y01355*
X0533Y01354*
X0533Y01354*
X0533Y01354*
X0533Y01354*
X0533Y01353*
X0533Y01353*
X0533Y01353*
X0533Y01352*
X0533Y01352*
X0533Y01352*
X0533Y01352*
X0533Y01351*
X0533Y01351*
X0533Y01351*
X05331Y01351*
X05331Y0135*
X05331Y0135*
X05331Y0135*
X05331Y0135*
X05332Y0135*
X05332Y0135*
X05332Y01349*
X05332Y01349*
X05333Y01349*
X05333Y01349*
X05333Y01349*
X05333Y01349*
X05334Y01349*
X05334*
X05334Y01349*
X05334Y01349*
X05335Y01349*
X05335Y01349*
X05335Y01349*
X05336Y01349*
X05336Y0135*
X05336Y0135*
X05336Y0135*
X05336Y0135*
X05337Y0135*
X05337Y0135*
X05337Y01351*
X05337Y01351*
X05337Y01351*
X05337Y01351*
X05338Y01352*
X05338Y01352*
X05338Y01352*
X05338Y01352*
X05338Y01353*
X05338Y01353*
X05491Y02177D02*
D01*
X05491Y02178*
X05491Y02178*
X05491Y02178*
X05491Y02179*
X05491Y02179*
X05491Y02179*
X05491Y02179*
X05491Y0218*
X05491Y0218*
X0549Y0218*
X0549Y0218*
X0549Y0218*
X0549Y02181*
X0549Y02181*
X05489Y02181*
X05489Y02181*
X05489Y02181*
X05489Y02181*
X05488Y02181*
X05488Y02181*
X05488Y02181*
X05487Y02181*
X05487*
X05487Y02181*
X05487Y02181*
X05486Y02181*
X05486Y02181*
X05486Y02181*
X05486Y02181*
X05485Y02181*
X05485Y02181*
X05485Y02181*
X05485Y0218*
X05485Y0218*
X05484Y0218*
X05484Y0218*
X05484Y0218*
X05484Y02179*
X05484Y02179*
X05484Y02179*
X05484Y02179*
X05483Y02178*
X05483Y02178*
X05483Y02178*
X05483Y02177*
X05483Y02177*
X05483Y02177*
X05483Y02177*
X05484Y02176*
X05484Y02176*
X05484Y02176*
X05484Y02176*
X05484Y02175*
X05484Y02175*
X05484Y02175*
X05485Y02175*
X05485Y02174*
X05485Y02174*
X05485Y02174*
X05485Y02174*
X05486Y02174*
X05486Y02174*
X05486Y02174*
X05486Y02174*
X05487Y02174*
X05487Y02174*
X05487Y02173*
X05487*
X05488Y02174*
X05488Y02174*
X05488Y02174*
X05489Y02174*
X05489Y02174*
X05489Y02174*
X05489Y02174*
X0549Y02174*
X0549Y02174*
X0549Y02174*
X0549Y02175*
X0549Y02175*
X05491Y02175*
X05491Y02175*
X05491Y02176*
X05491Y02176*
X05491Y02176*
X05491Y02176*
X05491Y02177*
X05491Y02177*
X05491Y02177*
X05491Y02177*
X05338Y00762D02*
D01*
X05338Y00763*
X05338Y00763*
X05338Y00763*
X05338Y00764*
X05338Y00764*
X05337Y00764*
X05337Y00764*
X05337Y00765*
X05337Y00765*
X05337Y00765*
X05337Y00765*
X05336Y00765*
X05336Y00766*
X05336Y00766*
X05336Y00766*
X05336Y00766*
X05335Y00766*
X05335Y00766*
X05335Y00766*
X05334Y00766*
X05334Y00766*
X05334Y00766*
X05334*
X05333Y00766*
X05333Y00766*
X05333Y00766*
X05333Y00766*
X05332Y00766*
X05332Y00766*
X05332Y00766*
X05332Y00766*
X05331Y00766*
X05331Y00765*
X05331Y00765*
X05331Y00765*
X05331Y00765*
X0533Y00765*
X0533Y00764*
X0533Y00764*
X0533Y00764*
X0533Y00764*
X0533Y00763*
X0533Y00763*
X0533Y00763*
X0533Y00762*
X0533Y00762*
X0533Y00762*
X0533Y00762*
X0533Y00761*
X0533Y00761*
X0533Y00761*
X0533Y00761*
X0533Y0076*
X05331Y0076*
X05331Y0076*
X05331Y0076*
X05331Y0076*
X05331Y00759*
X05332Y00759*
X05332Y00759*
X05332Y00759*
X05332Y00759*
X05333Y00759*
X05333Y00759*
X05333Y00759*
X05333Y00759*
X05334Y00759*
X05334*
X05334Y00759*
X05334Y00759*
X05335Y00759*
X05335Y00759*
X05335Y00759*
X05336Y00759*
X05336Y00759*
X05336Y00759*
X05336Y00759*
X05336Y0076*
X05337Y0076*
X05337Y0076*
X05337Y0076*
X05337Y0076*
X05337Y00761*
X05337Y00761*
X05338Y00761*
X05338Y00761*
X05338Y00762*
X05338Y00762*
X05338Y00762*
X05338Y00762*
X02976Y00093D02*
D01*
X02976Y00093*
X02976Y00094*
X02975Y00094*
X02975Y00094*
X02975Y00095*
X02975Y00095*
X02975Y00095*
X02975Y00095*
X02975Y00095*
X02975Y00096*
X02974Y00096*
X02974Y00096*
X02974Y00096*
X02974Y00096*
X02974Y00097*
X02973Y00097*
X02973Y00097*
X02973Y00097*
X02973Y00097*
X02972Y00097*
X02972Y00097*
X02972Y00097*
X02971*
X02971Y00097*
X02971Y00097*
X02971Y00097*
X0297Y00097*
X0297Y00097*
X0297Y00097*
X0297Y00097*
X02969Y00096*
X02969Y00096*
X02969Y00096*
X02969Y00096*
X02969Y00096*
X02968Y00095*
X02968Y00095*
X02968Y00095*
X02968Y00095*
X02968Y00095*
X02968Y00094*
X02968Y00094*
X02968Y00094*
X02968Y00093*
X02968Y00093*
X02968Y00093*
X02968Y00093*
X02968Y00092*
X02968Y00092*
X02968Y00092*
X02968Y00092*
X02968Y00091*
X02968Y00091*
X02968Y00091*
X02969Y00091*
X02969Y0009*
X02969Y0009*
X02969Y0009*
X02969Y0009*
X0297Y0009*
X0297Y0009*
X0297Y0009*
X0297Y00089*
X02971Y00089*
X02971Y00089*
X02971Y00089*
X02971Y00089*
X02972*
X02972Y00089*
X02972Y00089*
X02973Y00089*
X02973Y00089*
X02973Y0009*
X02973Y0009*
X02974Y0009*
X02974Y0009*
X02974Y0009*
X02974Y0009*
X02974Y0009*
X02975Y00091*
X02975Y00091*
X02975Y00091*
X02975Y00091*
X02975Y00092*
X02975Y00092*
X02975Y00092*
X02975Y00092*
X02976Y00093*
X02976Y00093*
X02976Y00093*
X04865Y02807D02*
D01*
X04865Y02807*
X04864Y02807*
X04864Y02807*
X04864Y02808*
X04864Y02808*
X04864Y02808*
X04864Y02808*
X04864Y02809*
X04864Y02809*
X04864Y02809*
X04863Y02809*
X04863Y02809*
X04863Y0281*
X04863Y0281*
X04863Y0281*
X04862Y0281*
X04862Y0281*
X04862Y0281*
X04862Y0281*
X04861Y0281*
X04861Y0281*
X04861Y0281*
X0486*
X0486Y0281*
X0486Y0281*
X0486Y0281*
X04859Y0281*
X04859Y0281*
X04859Y0281*
X04859Y0281*
X04858Y0281*
X04858Y0281*
X04858Y02809*
X04858Y02809*
X04858Y02809*
X04857Y02809*
X04857Y02809*
X04857Y02808*
X04857Y02808*
X04857Y02808*
X04857Y02808*
X04857Y02807*
X04857Y02807*
X04857Y02807*
X04857Y02807*
X04857Y02806*
X04857Y02806*
X04857Y02806*
X04857Y02805*
X04857Y02805*
X04857Y02805*
X04857Y02805*
X04857Y02804*
X04857Y02804*
X04858Y02804*
X04858Y02804*
X04858Y02804*
X04858Y02803*
X04858Y02803*
X04859Y02803*
X04859Y02803*
X04859Y02803*
X04859Y02803*
X0486Y02803*
X0486Y02803*
X0486Y02803*
X0486Y02803*
X04861*
X04861Y02803*
X04861Y02803*
X04862Y02803*
X04862Y02803*
X04862Y02803*
X04862Y02803*
X04863Y02803*
X04863Y02803*
X04863Y02803*
X04863Y02804*
X04863Y02804*
X04864Y02804*
X04864Y02804*
X04864Y02804*
X04864Y02805*
X04864Y02805*
X04864Y02805*
X04864Y02805*
X04864Y02806*
X04864Y02806*
X04865Y02806*
X04865Y02807*
X03447Y02846D02*
D01*
X03447Y02846*
X03447Y02846*
X03447Y02847*
X03447Y02847*
X03447Y02847*
X03447Y02848*
X03447Y02848*
X03447Y02848*
X03446Y02848*
X03446Y02848*
X03446Y02849*
X03446Y02849*
X03446Y02849*
X03445Y02849*
X03445Y02849*
X03445Y02849*
X03445Y0285*
X03444Y0285*
X03444Y0285*
X03444Y0285*
X03444Y0285*
X03443Y0285*
X03443*
X03443Y0285*
X03443Y0285*
X03442Y0285*
X03442Y0285*
X03442Y0285*
X03442Y02849*
X03441Y02849*
X03441Y02849*
X03441Y02849*
X03441Y02849*
X0344Y02849*
X0344Y02848*
X0344Y02848*
X0344Y02848*
X0344Y02848*
X0344Y02848*
X0344Y02847*
X03439Y02847*
X03439Y02847*
X03439Y02846*
X03439Y02846*
X03439Y02846*
X03439Y02846*
X03439Y02845*
X03439Y02845*
X03439Y02845*
X0344Y02845*
X0344Y02844*
X0344Y02844*
X0344Y02844*
X0344Y02844*
X0344Y02843*
X0344Y02843*
X03441Y02843*
X03441Y02843*
X03441Y02843*
X03441Y02843*
X03442Y02842*
X03442Y02842*
X03442Y02842*
X03442Y02842*
X03443Y02842*
X03443Y02842*
X03443Y02842*
X03443*
X03444Y02842*
X03444Y02842*
X03444Y02842*
X03444Y02842*
X03445Y02842*
X03445Y02842*
X03445Y02843*
X03445Y02843*
X03446Y02843*
X03446Y02843*
X03446Y02843*
X03446Y02843*
X03446Y02844*
X03447Y02844*
X03447Y02844*
X03447Y02844*
X03447Y02845*
X03447Y02845*
X03447Y02845*
X03447Y02845*
X03447Y02846*
X03447Y02846*
X02502D02*
D01*
X02502Y02846*
X02502Y02846*
X02502Y02847*
X02502Y02847*
X02502Y02847*
X02502Y02848*
X02502Y02848*
X02502Y02848*
X02502Y02848*
X02501Y02848*
X02501Y02849*
X02501Y02849*
X02501Y02849*
X02501Y02849*
X025Y02849*
X025Y02849*
X025Y0285*
X025Y0285*
X02499Y0285*
X02499Y0285*
X02499Y0285*
X02499Y0285*
X02498*
X02498Y0285*
X02498Y0285*
X02497Y0285*
X02497Y0285*
X02497Y0285*
X02497Y02849*
X02496Y02849*
X02496Y02849*
X02496Y02849*
X02496Y02849*
X02496Y02849*
X02495Y02848*
X02495Y02848*
X02495Y02848*
X02495Y02848*
X02495Y02848*
X02495Y02847*
X02495Y02847*
X02495Y02847*
X02494Y02846*
X02494Y02846*
X02494Y02846*
X02494Y02846*
X02494Y02845*
X02495Y02845*
X02495Y02845*
X02495Y02845*
X02495Y02844*
X02495Y02844*
X02495Y02844*
X02495Y02844*
X02495Y02843*
X02496Y02843*
X02496Y02843*
X02496Y02843*
X02496Y02843*
X02496Y02843*
X02497Y02842*
X02497Y02842*
X02497Y02842*
X02497Y02842*
X02498Y02842*
X02498Y02842*
X02498Y02842*
X02499*
X02499Y02842*
X02499Y02842*
X02499Y02842*
X025Y02842*
X025Y02842*
X025Y02842*
X025Y02843*
X02501Y02843*
X02501Y02843*
X02501Y02843*
X02501Y02843*
X02501Y02843*
X02502Y02844*
X02502Y02844*
X02502Y02844*
X02502Y02844*
X02502Y02845*
X02502Y02845*
X02502Y02845*
X02502Y02845*
X02502Y02846*
X02502Y02846*
X01715D02*
D01*
X01715Y02846*
X01715Y02846*
X01715Y02847*
X01715Y02847*
X01715Y02847*
X01715Y02848*
X01714Y02848*
X01714Y02848*
X01714Y02848*
X01714Y02848*
X01714Y02849*
X01714Y02849*
X01713Y02849*
X01713Y02849*
X01713Y02849*
X01713Y02849*
X01712Y0285*
X01712Y0285*
X01712Y0285*
X01712Y0285*
X01711Y0285*
X01711Y0285*
X01711*
X01711Y0285*
X0171Y0285*
X0171Y0285*
X0171Y0285*
X01709Y0285*
X01709Y02849*
X01709Y02849*
X01709Y02849*
X01709Y02849*
X01708Y02849*
X01708Y02849*
X01708Y02848*
X01708Y02848*
X01708Y02848*
X01707Y02848*
X01707Y02848*
X01707Y02847*
X01707Y02847*
X01707Y02847*
X01707Y02846*
X01707Y02846*
X01707Y02846*
X01707Y02846*
X01707Y02845*
X01707Y02845*
X01707Y02845*
X01707Y02845*
X01707Y02844*
X01707Y02844*
X01708Y02844*
X01708Y02844*
X01708Y02843*
X01708Y02843*
X01708Y02843*
X01709Y02843*
X01709Y02843*
X01709Y02843*
X01709Y02842*
X01709Y02842*
X0171Y02842*
X0171Y02842*
X0171Y02842*
X01711Y02842*
X01711Y02842*
X01711*
X01711Y02842*
X01712Y02842*
X01712Y02842*
X01712Y02842*
X01712Y02842*
X01713Y02842*
X01713Y02843*
X01713Y02843*
X01713Y02843*
X01714Y02843*
X01714Y02843*
X01714Y02843*
X01714Y02844*
X01714Y02844*
X01714Y02844*
X01715Y02844*
X01715Y02845*
X01715Y02845*
X01715Y02845*
X01715Y02845*
X01715Y02846*
X01715Y02846*
X00831Y02832D02*
D01*
X00831Y02832*
X00831Y02833*
X00831Y02833*
X00831Y02833*
X00831Y02833*
X00831Y02834*
X00831Y02834*
X0083Y02834*
X0083Y02834*
X0083Y02835*
X0083Y02835*
X0083Y02835*
X0083Y02835*
X00829Y02835*
X00829Y02836*
X00829Y02836*
X00829Y02836*
X00828Y02836*
X00828Y02836*
X00828Y02836*
X00828Y02836*
X00827Y02836*
X00827*
X00827Y02836*
X00826Y02836*
X00826Y02836*
X00826Y02836*
X00826Y02836*
X00825Y02836*
X00825Y02836*
X00825Y02835*
X00825Y02835*
X00824Y02835*
X00824Y02835*
X00824Y02835*
X00824Y02834*
X00824Y02834*
X00824Y02834*
X00824Y02834*
X00823Y02833*
X00823Y02833*
X00823Y02833*
X00823Y02833*
X00823Y02832*
X00823Y02832*
X00823Y02832*
X00823Y02832*
X00823Y02831*
X00823Y02831*
X00823Y02831*
X00824Y02831*
X00824Y0283*
X00824Y0283*
X00824Y0283*
X00824Y0283*
X00824Y02829*
X00824Y02829*
X00825Y02829*
X00825Y02829*
X00825Y02829*
X00825Y02829*
X00826Y02828*
X00826Y02828*
X00826Y02828*
X00826Y02828*
X00827Y02828*
X00827Y02828*
X00827*
X00828Y02828*
X00828Y02828*
X00828Y02828*
X00828Y02828*
X00829Y02828*
X00829Y02829*
X00829Y02829*
X00829Y02829*
X0083Y02829*
X0083Y02829*
X0083Y02829*
X0083Y0283*
X0083Y0283*
X0083Y0283*
X00831Y0283*
X00831Y02831*
X00831Y02831*
X00831Y02831*
X00831Y02831*
X00831Y02832*
X00831Y02832*
X00831Y02832*
X00512Y02309D02*
D01*
X00512Y02309*
X00512Y02309*
X00512Y02309*
X00512Y0231*
X00512Y0231*
X00512Y0231*
X00512Y0231*
X00512Y02311*
X00511Y02311*
X00511Y02311*
X00511Y02311*
X00511Y02311*
X00511Y02312*
X0051Y02312*
X0051Y02312*
X0051Y02312*
X0051Y02312*
X00509Y02312*
X00509Y02312*
X00509Y02312*
X00509Y02312*
X00508Y02312*
X00508*
X00508Y02312*
X00508Y02312*
X00507Y02312*
X00507Y02312*
X00507Y02312*
X00506Y02312*
X00506Y02312*
X00506Y02312*
X00506Y02312*
X00506Y02311*
X00505Y02311*
X00505Y02311*
X00505Y02311*
X00505Y02311*
X00505Y0231*
X00505Y0231*
X00505Y0231*
X00504Y0231*
X00504Y02309*
X00504Y02309*
X00504Y02309*
X00504Y02309*
X00504Y02308*
X00504Y02308*
X00504Y02308*
X00504Y02307*
X00505Y02307*
X00505Y02307*
X00505Y02307*
X00505Y02306*
X00505Y02306*
X00505Y02306*
X00505Y02306*
X00506Y02306*
X00506Y02305*
X00506Y02305*
X00506Y02305*
X00506Y02305*
X00507Y02305*
X00507Y02305*
X00507Y02305*
X00508Y02305*
X00508Y02305*
X00508Y02305*
X00508*
X00509Y02305*
X00509Y02305*
X00509Y02305*
X00509Y02305*
X0051Y02305*
X0051Y02305*
X0051Y02305*
X0051Y02305*
X00511Y02305*
X00511Y02306*
X00511Y02306*
X00511Y02306*
X00511Y02306*
X00512Y02306*
X00512Y02307*
X00512Y02307*
X00512Y02307*
X00512Y02307*
X00512Y02308*
X00512Y02308*
X00512Y02308*
X00512Y02309*
X02824Y01925D02*
X02857Y01891D01*
Y01291D02*
Y01925D01*
X02294Y01291D02*
Y01925D01*
X02857*
X02294Y01291D02*
X02857D01*
X01259Y01875D02*
Y0191D01*
X01141Y01875D02*
X01169D01*
X0123D02*
X01259D01*
X01141D02*
Y0191D01*
X01193Y01931D02*
X01207D01*
X02289Y02518D02*
X02339D01*
X02289Y02469D02*
X02339D01*
X04806Y02415D02*
Y02465D01*
X04756Y02415D02*
Y02465D01*
X03109Y01193D02*
X03224D01*
X03109Y01117D02*
X03224D01*
X00942Y01528D02*
X00954D01*
X01048D02*
X0106D01*
Y0141D02*
Y0141D01*
Y01528D02*
Y01528D01*
X00942Y0141D02*
X00954D01*
X01048D02*
X0106D01*
X00942D02*
Y0141D01*
Y01528D02*
Y01528D01*
X03007Y01642D02*
Y01757D01*
X02932Y01642D02*
Y01757D01*
X00131Y02007D02*
Y02271D01*
X00366D02*
X00375D01*
X00209D02*
X00297D01*
X00131D02*
X0014D01*
X00375Y02007D02*
Y02271D01*
X00366Y02007D02*
X00375D01*
X00288D02*
X00297D01*
X00209D02*
X00219D01*
X00131D02*
X0014D01*
X03383Y0221D02*
Y02226D01*
X03186Y0221D02*
Y02226D01*
X03485Y02358D02*
X03635D01*
X03485Y02236D02*
X03635D01*
X0222Y02318D02*
X0237D01*
X0222Y02196D02*
X0237D01*
X01252Y01253D02*
X0138D01*
X01252Y01057D02*
X0138D01*
X04785Y03005D02*
Y03014D01*
X049Y03005D02*
X04934D01*
X04785D02*
X04819D01*
X04934D02*
Y03014D01*
X04831Y03084D02*
X04888D01*
X00629Y0134D02*
X00638D01*
X00734D02*
X00744D01*
Y01521*
X00629D02*
X00638D01*
X00734D02*
X00744D01*
X00629Y0134D02*
Y01521D01*
X01052Y01058D02*
Y01067D01*
Y01164D02*
Y01173D01*
X00871D02*
X01052D01*
X00871Y01058D02*
Y01067D01*
Y01164D02*
Y01173D01*
Y01058D02*
X01052D01*
X03848Y0094D02*
Y00949D01*
Y01046D02*
Y01055D01*
X03666D02*
X03848D01*
X03666Y0094D02*
Y00949D01*
Y01046D02*
Y01055D01*
Y0094D02*
X03848D01*
X01606Y01037D02*
Y01087D01*
X01656Y01037D02*
Y01087D01*
X04126Y01982D02*
Y02032D01*
X04176Y01982D02*
Y02032D01*
X04047Y01785D02*
Y01835D01*
X04097Y01785D02*
Y01835D01*
X0385Y01234D02*
Y01284D01*
X039Y01234D02*
Y01284D01*
X03649Y01309D02*
Y01364D01*
X03708Y01309D02*
Y01364D01*
X03179Y02473D02*
X03293D01*
X03179Y02397D02*
X03293D01*
X03897Y02019D02*
X04011D01*
X03897Y01944D02*
X04011D01*
X02498Y01957D02*
X02547D01*
X02498Y02007D02*
X02547D01*
X00366Y01129D02*
X00375D01*
X00288D02*
X00297D01*
X00209D02*
X00219D01*
X00131D02*
X0014D01*
X00131Y00866D02*
Y01129D01*
X00366Y00866D02*
X00375D01*
X00209D02*
X00297D01*
X00131D02*
X0014D01*
X00375D02*
Y01129D01*
X02867Y02464D02*
Y02514D01*
X02916Y02464D02*
Y02514D01*
X02594Y02554D02*
Y02588D01*
X02639Y02554D02*
Y02588D01*
X04401Y02455D02*
Y02504D01*
X04451Y02455D02*
Y02504D01*
X04966Y01597D02*
Y01606D01*
Y01491D02*
Y015D01*
Y01491D02*
X05147D01*
Y01597D02*
Y01606D01*
Y01491D02*
Y015D01*
X04966Y01606D02*
X05147D01*
X05006Y02282D02*
X05056D01*
X05006Y02232D02*
X05056D01*
X05168Y02478D02*
X05218D01*
X05168Y02428D02*
X05218D01*
X03925Y02642D02*
Y02703D01*
X03983Y02642D02*
Y02703D01*
X04751Y02166D02*
Y02222D01*
X0481Y02166D02*
Y02222D01*
X04722Y02673D02*
Y02728D01*
X04781Y02673D02*
Y02728D01*
X04495Y02669D02*
Y02703D01*
X04539Y02669D02*
Y02703D01*
X04265Y02669D02*
Y02703D01*
X04309Y02669D02*
Y02703D01*
X04247Y02437D02*
Y02471D01*
X04291Y02437D02*
Y02471D01*
X02193Y0154D02*
Y01601D01*
X0225Y0154D02*
Y01601D01*
X03885Y02136D02*
Y02191D01*
X03944Y02136D02*
Y02191D01*
X03086Y02318D02*
Y02433D01*
X03011Y02318D02*
Y02433D01*
X04323Y02168D02*
Y02217D01*
X04372Y02168D02*
Y02217D01*
X04139Y02157D02*
Y02191D01*
X04183Y02157D02*
Y02191D01*
X0259Y0205D02*
Y02099D01*
X0264Y0205D02*
Y02099D01*
X00871Y01951D02*
Y0196D01*
Y01846D02*
Y01855D01*
Y01846D02*
X01052D01*
Y01951D02*
Y0196D01*
Y01846D02*
Y01855D01*
X00871Y0196D02*
X01052D01*
X02486Y024D02*
X02536D01*
X02486Y02351D02*
X02536D01*
X02197Y01392D02*
Y01441D01*
X02246Y01392D02*
Y01441D01*
X02787Y01116D02*
Y01166D01*
X02837Y01116D02*
Y01166D01*
X02246Y00919D02*
Y00969D01*
X02197Y00919D02*
Y00969D01*
X02827Y00683D02*
Y00733D01*
X02876Y00683D02*
Y00733D01*
X02039Y01156D02*
Y01205D01*
X02089Y01156D02*
Y01205D01*
X00989Y00928D02*
Y00937D01*
Y00822D02*
Y00831D01*
Y00822D02*
X0117D01*
Y00928D02*
Y00937D01*
Y00822D02*
Y00831D01*
X00989Y00937D02*
X0117D01*
X02354Y02022D02*
Y02071D01*
X02404Y02022D02*
Y02071D01*
X02118Y02061D02*
Y02111D01*
X02168Y02061D02*
Y02111D01*
X01961Y0205D02*
Y02099D01*
X0201Y0205D02*
Y02099D01*
X0168Y01182D02*
Y01237D01*
X01739Y01182D02*
Y01237D01*
X02775Y02154D02*
Y02268D01*
X0285Y02154D02*
Y02268D01*
X04661Y02311D02*
Y02426D01*
X04586Y02311D02*
Y02426D01*
X01254Y02044D02*
Y02077D01*
X01299Y02044D02*
Y02077D01*
X01895Y02306D02*
Y02315D01*
Y022D02*
Y02209D01*
Y022D02*
X02076D01*
Y02306D02*
Y02315D01*
Y022D02*
Y02209D01*
X01895Y02315D02*
X02076D01*
X02236Y0205D02*
Y02099D01*
X02286Y0205D02*
Y02099D01*
X01569Y01807D02*
Y01841D01*
X01614Y01807D02*
Y01841D01*
X01449Y01589D02*
Y01638D01*
X01498Y01589D02*
Y01638D01*
X01603Y02239D02*
Y02248D01*
Y02345D02*
Y02354D01*
X01422D02*
X01603D01*
X01422Y02239D02*
Y02248D01*
Y02345D02*
Y02354D01*
Y02239D02*
X01603D01*
X02869Y01965D02*
Y01999D01*
X02913Y01965D02*
Y01999D01*
X0186Y00592D02*
X01874D01*
X01808Y00537D02*
Y00571D01*
X01898Y00537D02*
X01926D01*
X01808D02*
X01837D01*
X01926D02*
Y00571D01*
X04005Y00664D02*
Y00674D01*
Y0077D02*
Y00779D01*
X03824D02*
X04005D01*
X03824Y00664D02*
Y00674D01*
Y0077D02*
Y00779D01*
Y00664D02*
X04005D01*
X0338Y00784D02*
Y00818D01*
X03425Y00784D02*
Y00818D01*
X03811Y0142D02*
Y01469D01*
X03861Y0142D02*
Y01469D01*
X03732Y01105D02*
Y01154D01*
X03782Y01105D02*
Y01154D01*
X03496Y01144D02*
Y01194D01*
X03546Y01144D02*
Y01194D01*
X03294Y01112D02*
Y01167D01*
X03353Y01112D02*
Y01167D01*
X03392Y02098D02*
X03506D01*
X03392Y02023D02*
X03506D01*
X04582Y01065D02*
Y0118D01*
X04507Y01065D02*
Y0118D01*
X03116Y02098D02*
X03231D01*
X03116Y02023D02*
X03231D01*
X03739Y01901D02*
X03854D01*
X03739Y01826D02*
X03854D01*
X04913Y01971D02*
Y02021D01*
X04963Y01971D02*
Y02021D01*
X04449Y01965D02*
Y01999D01*
X04404Y01965D02*
Y01999D01*
X03133Y01314D02*
X03506D01*
X03133D02*
Y01893D01*
X03526*
Y01335D02*
Y01893D01*
X03506Y01314D02*
X03526Y01335D01*
X03614Y01864D02*
Y01914D01*
X03664Y01864D02*
Y01914D01*
X03299Y01931D02*
Y01981D01*
X03349Y01931D02*
Y01981D01*
X02984Y01971D02*
Y02021D01*
X03034Y01971D02*
Y02021D01*
X02902Y02169D02*
Y02219D01*
X02952Y02169D02*
Y02219D01*
X02672Y02169D02*
Y02219D01*
X02722Y02169D02*
Y02219D01*
X02465Y02219D02*
X0252D01*
X02465Y0216D02*
X0252D01*
X01843Y01117D02*
X01957D01*
X01843Y01193D02*
X01957D01*
X01731Y02059D02*
X01846D01*
X01731Y01984D02*
X01846D01*
X01944Y02976D02*
Y03011D01*
X01298Y02976D02*
X01944D01*
X01298D02*
Y03011D01*
X01326Y03125D02*
X01916D01*
X01928Y03011D02*
X01956D01*
Y0307*
X01287Y03011D02*
Y0307D01*
Y03011D02*
X01314D01*
X02912Y01114D02*
X03027D01*
X02912Y01039D02*
X03027D01*
X03609Y01151D02*
Y01207D01*
X03668Y01151D02*
Y01207D01*
X0281Y00908D02*
Y01022D01*
X02735Y00908D02*
Y01022D01*
X02121Y01089D02*
Y01123D01*
X02165Y01089D02*
Y01123D01*
X02372Y00576D02*
X02386D01*
X02438Y00597D02*
Y00631D01*
X0232D02*
X02349D01*
X0241D02*
X02438D01*
X0232Y00597D02*
Y00631D01*
X02372Y00773D02*
X02386D01*
X02438Y00794D02*
Y00828D01*
X0232D02*
X02349D01*
X0241D02*
X02438D01*
X0232Y00794D02*
Y00828D01*
X02613Y0075D02*
Y00865D01*
X02538Y0075D02*
Y00865D01*
X03405Y00973D02*
Y01087D01*
X0348Y00973D02*
Y01087D01*
X02212Y03125D02*
X02999D01*
X03039Y03011D02*
Y03074D01*
X03023Y03011D02*
X03039D01*
X03023Y02976D02*
Y03011D01*
X02188Y02976D02*
X03023D01*
X02188D02*
Y03011D01*
X02172D02*
X02188D01*
X02172D02*
Y03074D01*
X02646Y00576D02*
X0266D01*
X02712Y00597D02*
Y00631D01*
X02594D02*
X02622D01*
X02683D02*
X02712D01*
X02594Y00597D02*
Y00631D01*
X02514Y01187D02*
Y01221D01*
X02559Y01187D02*
Y01221D01*
X03932Y02976D02*
Y03011D01*
X03287Y02976D02*
X03932D01*
X03287D02*
Y03011D01*
X03314Y03125D02*
X03905D01*
X03916Y03011D02*
X03944D01*
Y0307*
X03275Y03011D02*
Y0307D01*
Y03011D02*
X03302D01*
X01409Y01341D02*
Y01391D01*
X01459Y01341D02*
Y01391D01*
X01921Y00908D02*
Y00958D01*
X01971Y00908D02*
Y00958D01*
X03503Y00671D02*
X03512D01*
X03608D02*
X03618D01*
Y00852*
X03503D02*
X03512D01*
X03608D02*
X03618D01*
X03503Y00671D02*
Y00852D01*
X03238Y00734D02*
X03252D01*
X03304Y00754D02*
Y00789D01*
X03186D02*
X03215D01*
X03276D02*
X03304D01*
X03186Y00754D02*
Y00789D01*
X02984Y01853D02*
Y01902D01*
X03034Y01853D02*
Y01902D01*
X01629Y00804D02*
Y00828D01*
Y00706D02*
Y00731D01*
X01728Y00706D02*
X01731D01*
X01629D02*
X01632D01*
X01731Y00804D02*
Y00828D01*
Y00706D02*
Y00731D01*
X01728Y00828D02*
X01731D01*
X01629D02*
X01632D01*
X01457Y00784D02*
X01491D01*
X01457Y00739D02*
X01491D01*
X02155Y00664D02*
Y00674D01*
Y0077D02*
Y00779D01*
X01974D02*
X02155D01*
X01974Y00664D02*
Y00674D01*
Y0077D02*
Y00779D01*
Y00664D02*
X02155D01*
X00844Y01248D02*
X00894D01*
X00844Y01298D02*
X00894D01*
X04903Y01137D02*
X05052D01*
X04903Y01015D02*
X05052D01*
X00121Y02525D02*
X00122D01*
X00207D02*
X00299D01*
X00384D02*
X00385D01*
Y02777*
X00121D02*
X00122D01*
X00207D02*
X00299D01*
X00384D02*
X00385D01*
X00121Y02525D02*
Y02777D01*
X05039Y0171D02*
Y0186D01*
X04916Y0171D02*
Y0186D01*
X04995Y02467D02*
Y02501D01*
X05039Y02467D02*
Y02501D01*
X04534Y01996D02*
X04583D01*
X04534Y02046D02*
X04583D01*
X01682Y00907D02*
Y00931D01*
X01304Y00852D02*
X01328D01*
X02722Y02466D02*
X02745D01*
X04718Y01933D02*
Y01976D01*
X04765Y01933D02*
Y01976D01*
X02748Y01971D02*
Y02021D01*
X02798Y01971D02*
Y02021D01*
X01735Y00593D02*
Y00643D01*
X01685Y00593D02*
Y00643D01*
X01935Y01918D02*
X01985D01*
X01935Y01967D02*
X01985D01*
X01055Y01262D02*
Y01312D01*
X01105Y01262D02*
Y01312D01*
X04261Y01302D02*
Y01304D01*
Y01243D02*
Y01245D01*
Y01243D02*
X0433D01*
Y01302D02*
Y01304D01*
Y01243D02*
Y01245D01*
X04261Y01304D02*
X0433D01*
X04466Y01298D02*
X04516D01*
X04466Y01248D02*
X04516D01*
X0414Y01298D02*
X0419D01*
X0414Y01248D02*
X0419D01*
X00086Y01735D02*
X0011D01*
X00086Y01383D02*
Y01735D01*
Y01383D02*
X0011D01*
X0432Y01009D02*
Y01098D01*
X04442Y01009D02*
Y01098D01*
X0432D02*
X04442D01*
X04056Y01009D02*
Y01098D01*
X04178Y01009D02*
Y01098D01*
X04056D02*
X04178D01*
X0427Y03119D02*
Y03143D01*
Y02946D02*
Y02971D01*
X045Y02946D02*
X04583D01*
X0427D02*
X04353D01*
X04583Y03119D02*
Y03143D01*
Y02946D02*
Y02971D01*
X0427Y03143D02*
X04583D01*
X03189Y01019D02*
X03286D01*
X03189Y0095D02*
X03286D01*
X0043Y001D02*
Y0032D01*
Y001D02*
X00942D01*
Y0032*
X00886D02*
X00942D01*
X0065D02*
X00723D01*
X0043D02*
X00486D01*
X0158Y01183D02*
Y01206D01*
X01355Y01812D02*
Y01836D01*
X02041Y00994D02*
X02064D01*
G54D13*
X01336Y02956D02*
D01*
X01336Y02956*
X01336Y02956*
X01335Y02956*
X01335Y02956*
X01335Y02956*
X01335Y02956*
X01335Y02956*
X01335Y02956*
X01335Y02956*
X01335Y02956*
X01334Y02956*
X01334Y02956*
X01334Y02955*
X01334Y02955*
X01334Y02955*
X01334Y02955*
X01334Y02955*
X01334Y02955*
X01334Y02955*
X01334Y02955*
X01334Y02954*
X01334Y02954*
Y02954*
X01334Y02954*
X01334Y02954*
X01334Y02954*
X01334Y02954*
X01334Y02953*
X01334Y02953*
X01334Y02953*
X01334Y02953*
X01334Y02953*
X01334Y02953*
X01334Y02953*
X01335Y02953*
X01335Y02953*
X01335Y02953*
X01335Y02952*
X01335Y02952*
X01335Y02952*
X01335Y02952*
X01335Y02952*
X01336Y02952*
X01336Y02952*
X01336Y02952*
D01*
X01336Y02952*
X01336Y02952*
X01336Y02952*
X01336Y02952*
X01336Y02952*
X01337Y02952*
X01337Y02952*
X01337Y02953*
X01337Y02953*
X01337Y02953*
X01337Y02953*
X01337Y02953*
X01337Y02953*
X01337Y02953*
X01337Y02953*
X01338Y02953*
X01338Y02953*
X01338Y02954*
X01338Y02954*
X01338Y02954*
X01338Y02954*
X01338Y02954*
Y02954*
X01338Y02954*
X01338Y02955*
X01338Y02955*
X01338Y02955*
X01338Y02955*
X01338Y02955*
X01337Y02955*
X01337Y02955*
X01337Y02955*
X01337Y02956*
X01337Y02956*
X01337Y02956*
X01337Y02956*
X01337Y02956*
X01337Y02956*
X01337Y02956*
X01336Y02956*
X01336Y02956*
X01336Y02956*
X01336Y02956*
X01336Y02956*
X01336Y02956*
X02222Y02954D02*
D01*
X02222Y02954*
X02222Y02954*
X02222Y02954*
X02222Y02954*
X02222Y02954*
X02222Y02954*
X02223Y02954*
X02223Y02954*
X02223Y02955*
X02223Y02955*
X02223Y02955*
X02223Y02955*
X02223Y02955*
X02223Y02955*
X02223Y02955*
X02223Y02955*
X02223Y02955*
X02223Y02956*
X02224Y02956*
X02224Y02956*
X02224Y02956*
X02224Y02956*
Y02956*
X02224Y02956*
X02224Y02957*
X02224Y02957*
X02223Y02957*
X02223Y02957*
X02223Y02957*
X02223Y02957*
X02223Y02957*
X02223Y02957*
X02223Y02957*
X02223Y02958*
X02223Y02958*
X02223Y02958*
X02223Y02958*
X02223Y02958*
X02222Y02958*
X02222Y02958*
X02222Y02958*
X02222Y02958*
X02222Y02958*
X02222Y02958*
X02222Y02958*
D01*
X02221Y02958*
X02221Y02958*
X02221Y02958*
X02221Y02958*
X02221Y02958*
X02221Y02958*
X02221Y02958*
X02221Y02958*
X0222Y02958*
X0222Y02958*
X0222Y02958*
X0222Y02957*
X0222Y02957*
X0222Y02957*
X0222Y02957*
X0222Y02957*
X0222Y02957*
X0222Y02957*
X0222Y02957*
X0222Y02957*
X0222Y02956*
X0222Y02956*
Y02956*
X0222Y02956*
X0222Y02956*
X0222Y02956*
X0222Y02956*
X0222Y02955*
X0222Y02955*
X0222Y02955*
X0222Y02955*
X0222Y02955*
X0222Y02955*
X0222Y02955*
X0222Y02955*
X0222Y02955*
X02221Y02954*
X02221Y02954*
X02221Y02954*
X02221Y02954*
X02221Y02954*
X02221Y02954*
X02221Y02954*
X02221Y02954*
X02222Y02954*
X03324Y02956D02*
D01*
X03324Y02956*
X03324Y02956*
X03324Y02956*
X03323Y02956*
X03323Y02956*
X03323Y02956*
X03323Y02956*
X03323Y02956*
X03323Y02956*
X03323Y02956*
X03323Y02956*
X03323Y02956*
X03322Y02955*
X03322Y02955*
X03322Y02955*
X03322Y02955*
X03322Y02955*
X03322Y02955*
X03322Y02955*
X03322Y02955*
X03322Y02954*
X03322Y02954*
Y02954*
X03322Y02954*
X03322Y02954*
X03322Y02954*
X03322Y02954*
X03322Y02953*
X03322Y02953*
X03322Y02953*
X03322Y02953*
X03322Y02953*
X03323Y02953*
X03323Y02953*
X03323Y02953*
X03323Y02953*
X03323Y02953*
X03323Y02952*
X03323Y02952*
X03323Y02952*
X03323Y02952*
X03324Y02952*
X03324Y02952*
X03324Y02952*
X03324Y02952*
D01*
X03324Y02952*
X03324Y02952*
X03324Y02952*
X03325Y02952*
X03325Y02952*
X03325Y02952*
X03325Y02952*
X03325Y02953*
X03325Y02953*
X03325Y02953*
X03325Y02953*
X03325Y02953*
X03326Y02953*
X03326Y02953*
X03326Y02953*
X03326Y02953*
X03326Y02953*
X03326Y02954*
X03326Y02954*
X03326Y02954*
X03326Y02954*
X03326Y02954*
Y02954*
X03326Y02954*
X03326Y02955*
X03326Y02955*
X03326Y02955*
X03326Y02955*
X03326Y02955*
X03326Y02955*
X03326Y02955*
X03326Y02955*
X03325Y02956*
X03325Y02956*
X03325Y02956*
X03325Y02956*
X03325Y02956*
X03325Y02956*
X03325Y02956*
X03325Y02956*
X03325Y02956*
X03324Y02956*
X03324Y02956*
X03324Y02956*
X03324Y02956*
X05348Y02501D02*
D01*
X05348Y02501*
X05348Y02501*
X05348Y02501*
X05348Y02501*
X05348Y02501*
X05348Y02501*
X05348Y02501*
X05348Y025*
X05348Y025*
X05348Y025*
X05348Y025*
X05348Y025*
X05348Y025*
X05348Y025*
X05349Y025*
X05349Y025*
X05349Y025*
X05349Y025*
X05349Y025*
X05349Y02499*
X05349Y02499*
X05349Y02499*
X0535*
X0535Y02499*
X0535Y02499*
X0535Y025*
X0535Y025*
X0535Y025*
X0535Y025*
X05351Y025*
X05351Y025*
X05351Y025*
X05351Y025*
X05351Y025*
X05351Y025*
X05351Y025*
X05351Y025*
X05351Y02501*
X05351Y02501*
X05351Y02501*
X05351Y02501*
X05351Y02501*
X05352Y02501*
X05352Y02501*
X05352Y02501*
D01*
X05352Y02502*
X05352Y02502*
X05351Y02502*
X05351Y02502*
X05351Y02502*
X05351Y02502*
X05351Y02502*
X05351Y02502*
X05351Y02503*
X05351Y02503*
X05351Y02503*
X05351Y02503*
X05351Y02503*
X05351Y02503*
X05351Y02503*
X0535Y02503*
X0535Y02503*
X0535Y02503*
X0535Y02503*
X0535Y02503*
X0535Y02503*
X0535Y02503*
X05349*
X05349Y02503*
X05349Y02503*
X05349Y02503*
X05349Y02503*
X05349Y02503*
X05349Y02503*
X05349Y02503*
X05348Y02503*
X05348Y02503*
X05348Y02503*
X05348Y02503*
X05348Y02503*
X05348Y02503*
X05348Y02502*
X05348Y02502*
X05348Y02502*
X05348Y02502*
X05348Y02502*
X05348Y02502*
X05348Y02502*
X05348Y02502*
X05348Y02501*
X0041Y01685D02*
D01*
X0041Y01684*
X0041Y01684*
X0041Y01684*
X0041Y01684*
X0041Y01684*
X0041Y01684*
X0041Y01684*
X0041Y01683*
X0041Y01683*
X0041Y01683*
X0041Y01683*
X0041Y01683*
X0041Y01683*
X0041Y01683*
X00411Y01683*
X00411Y01683*
X00411Y01683*
X00411Y01683*
X00411Y01683*
X00411Y01683*
X00411Y01683*
X00411Y01683*
X00412*
X00412Y01683*
X00412Y01683*
X00412Y01683*
X00412Y01683*
X00412Y01683*
X00412Y01683*
X00413Y01683*
X00413Y01683*
X00413Y01683*
X00413Y01683*
X00413Y01683*
X00413Y01683*
X00413Y01683*
X00413Y01683*
X00413Y01684*
X00413Y01684*
X00413Y01684*
X00413Y01684*
X00413Y01684*
X00414Y01684*
X00414Y01684*
X00414Y01685*
D01*
X00414Y01685*
X00414Y01685*
X00413Y01685*
X00413Y01685*
X00413Y01685*
X00413Y01685*
X00413Y01685*
X00413Y01686*
X00413Y01686*
X00413Y01686*
X00413Y01686*
X00413Y01686*
X00413Y01686*
X00413Y01686*
X00413Y01686*
X00412Y01686*
X00412Y01686*
X00412Y01686*
X00412Y01686*
X00412Y01686*
X00412Y01686*
X00412Y01686*
X00411*
X00411Y01686*
X00411Y01686*
X00411Y01686*
X00411Y01686*
X00411Y01686*
X00411Y01686*
X00411Y01686*
X0041Y01686*
X0041Y01686*
X0041Y01686*
X0041Y01686*
X0041Y01686*
X0041Y01686*
X0041Y01686*
X0041Y01685*
X0041Y01685*
X0041Y01685*
X0041Y01685*
X0041Y01685*
X0041Y01685*
X0041Y01685*
X0041Y01685*
X0422Y01876D02*
X04255D01*
X0422Y01825D02*
Y01876D01*
Y01364D02*
Y01415D01*
Y01364D02*
X04255D01*
X0481D02*
Y01415D01*
X04775Y01364D02*
X0481D01*
X04775Y01876D02*
X0481D01*
Y01825D02*
Y01876D01*
X05553Y02442D02*
Y02702D01*
X05376Y02442D02*
Y02474D01*
Y02442D02*
X05504D01*
X05376Y02702D02*
X05504D01*
X05376Y02671D02*
Y02702D01*
G54D14*
X01668Y0134D02*
X02125D01*
Y01856*
X01668D02*
X02125D01*
X01668Y0134D02*
Y01856D01*
X03737Y00151D02*
Y00348D01*
X03541Y00151D02*
Y00348D01*
X01794Y00169D02*
Y00366D01*
X01598Y00169D02*
Y00366D01*
X03591Y02147D02*
Y02158D01*
Y02042D02*
Y02053D01*
Y02042D02*
X03772D01*
Y02147D02*
Y02158D01*
Y02042D02*
Y02053D01*
X03591Y02158D02*
X03772D01*
X00852Y03122D02*
X00977D01*
X01021Y03043D02*
Y03053D01*
X00984Y03043D02*
X01021D01*
X00808D02*
Y03053D01*
Y03043D02*
X00845D01*
X04998Y01222D02*
X05009D01*
X05103D02*
X05114D01*
Y01403*
X04998D02*
X05009D01*
X05103D02*
X05114D01*
X04998Y01222D02*
Y01403D01*
X02951Y00671D02*
X02962D01*
X03056D02*
X03067D01*
Y00852*
X02951D02*
X02962D01*
X03056D02*
X03067D01*
X02951Y00671D02*
Y00852D01*
X0366Y01537D02*
X0367D01*
X03765D02*
X03776D01*
Y01718*
X0366D02*
X0367D01*
X03765D02*
X03776D01*
X0366Y01537D02*
Y01718D01*
X04001D02*
X04012D01*
X03896D02*
X03907D01*
X03896Y01537D02*
Y01718D01*
X04001Y01537D02*
X04012D01*
X03896D02*
X03907D01*
X04012D02*
Y01718D01*
X04918Y00427D02*
Y00623D01*
X05115Y00427D02*
Y00623D01*
X04302Y00129D02*
Y00326D01*
X04499Y00129D02*
Y00326D01*
X0232Y00151D02*
Y00348D01*
X02517Y00151D02*
Y00348D01*
X01086Y00173D02*
Y0037D01*
X01283Y00173D02*
Y0037D01*
X04052Y02502D02*
Y02513D01*
X03934Y02502D02*
Y02513D01*
X04052Y02395D02*
Y02407D01*
X03934Y02395D02*
Y02407D01*
X04041Y02513D02*
X04052D01*
X03934D02*
X03946D01*
X04041Y02395D02*
X04052D01*
X03934D02*
X03946D01*
X01422Y02068D02*
Y02079D01*
Y01963D02*
Y01974D01*
Y01963D02*
X01603D01*
Y02068D02*
Y02079D01*
Y01963D02*
Y01974D01*
X01422Y02079D02*
X01603D01*
X04749Y01088D02*
X0476D01*
X04644D02*
X04655D01*
X04644Y00907D02*
Y01088D01*
X04749Y00907D02*
X0476D01*
X04644D02*
X04655D01*
X0476D02*
Y01088D01*
X05312Y01411D02*
Y01608D01*
X05509Y01411D02*
Y01608D01*
Y01923D02*
Y0212D01*
X05312Y01923D02*
Y0212D01*
Y0082D02*
Y01017D01*
X05509Y0082D02*
Y01017D01*
X0295Y00151D02*
Y00348D01*
X03147Y00151D02*
Y00348D01*
X04918Y02828D02*
X05115D01*
X04918Y02631D02*
X05115D01*
X03501Y02868D02*
X03698D01*
X03501Y02671D02*
X03698D01*
X02556Y02868D02*
X02753D01*
X02556Y02671D02*
X02753D01*
X01769Y02868D02*
X01966D01*
X01769Y02671D02*
X01966D01*
X00885Y02854D02*
X01082D01*
X00885Y02657D02*
X01082D01*
X00566Y0233D02*
X00763D01*
X00566Y02133D02*
X00763D01*
G54D15*
X03258Y02281D02*
X03311D01*
X03258Y02155D02*
X03311D01*
G54D16*
X01175Y01733D02*
X01209D01*
X01406Y01699D02*
Y01733D01*
X01372Y01502D02*
X01406D01*
X01175D02*
Y01536D01*
Y01699D02*
Y01733D01*
X01372D02*
X01406D01*
Y01502D02*
Y01536D01*
X01175Y01502D02*
X01209D01*
G54D17*
X02686Y0074D02*
X02702D01*
X04702Y01265D02*
Y01281D01*
X03985Y01352D02*
X04001D01*
G54D18*
X02284Y01968D02*
Y01958D01*
X02286Y01956*
X0229*
X02292Y01958*
Y01968*
X02296Y01956D02*
X023D01*
X02298*
Y01968*
X02296Y01966*
X01153Y01643D02*
Y01633D01*
X01155Y01631*
X01159*
X01161Y01633*
Y01643*
X01165Y01641D02*
X01167Y01643D01*
X01171*
X01173Y01641*
Y01639*
X01171Y01637*
X01169*
X01171*
X01173Y01635*
Y01633*
X01171Y01631*
X01167*
X01165Y01633*
X01149Y01728D02*
X01157Y0172D01*
X01149D02*
X01157Y01728D01*
X01149Y01724D02*
X01157D01*
X01153Y0172D02*
Y01728D01*
X01141Y0199D02*
Y01998D01*
X01139Y02*
X01135*
X01133Y01998*
Y0199*
X01135Y01988*
X01139*
X01137Y01992D02*
X01141Y01988D01*
X01139D02*
X01141Y0199D01*
X01145Y01988D02*
X01149D01*
X01147*
Y02*
X01145Y01998*
X01658Y01899D02*
Y01889D01*
X0166Y01887*
X01664*
X01666Y01889*
Y01899*
X01678D02*
X0167D01*
Y01893*
X01674Y01895*
X01676*
X01678Y01893*
Y01889*
X01676Y01887*
X01672*
X0167Y01889*
X03166Y02326D02*
X03174Y02314D01*
Y02326D02*
X03166Y02314D01*
X03178D02*
X03182D01*
X0318*
Y02326*
X03178Y02324*
X00819Y02897D02*
Y02887D01*
X00821Y02885*
X00825*
X00827Y02887*
Y02897*
X00839Y02885D02*
X00831D01*
X00839Y02893*
Y02895*
X00837Y02897*
X00833*
X00831Y02895*
X00851Y02897D02*
X00847Y02895D01*
X00843Y02891*
Y02887*
X00845Y02885*
X00849*
X00851Y02887*
Y02889*
X00849Y02891*
X00843*
X005Y02373D02*
Y02363D01*
X00502Y02361*
X00506*
X00508Y02363*
Y02373*
X0052Y02361D02*
X00512D01*
X0052Y02369*
Y02371*
X00518Y02373*
X00514*
X00512Y02371*
X00532Y02373D02*
X00524D01*
Y02367*
X00528Y02369*
X0053*
X00532Y02367*
Y02363*
X0053Y02361*
X00526*
X00524Y02363*
X02491Y02911D02*
Y02901D01*
X02493Y02899*
X02497*
X02499Y02901*
Y02911*
X02511Y02899D02*
X02503D01*
X02511Y02907*
Y02909*
X02509Y02911*
X02505*
X02503Y02909*
X02521Y02899D02*
Y02911D01*
X02515Y02905*
X02523*
X01703Y02911D02*
Y02901D01*
X01705Y02899*
X01709*
X01711Y02901*
Y02911*
X01723Y02899D02*
X01715D01*
X01723Y02907*
Y02909*
X01721Y02911*
X01717*
X01715Y02909*
X01727D02*
X01729Y02911D01*
X01733*
X01735Y02909*
Y02907*
X01733Y02905*
X01731*
X01733*
X01735Y02903*
Y02901*
X01733Y02899*
X01729*
X01727Y02901*
X0353Y00418D02*
Y00408D01*
X03532Y00406*
X03536*
X03538Y00408*
Y00418*
X0355Y00406D02*
X03542D01*
X0355Y00414*
Y00416*
X03548Y00418*
X03544*
X03542Y00416*
X03562Y00406D02*
X03554D01*
X03562Y00414*
Y00416*
X0356Y00418*
X03556*
X03554Y00416*
X01587Y00436D02*
Y00426D01*
X01589Y00424*
X01593*
X01595Y00426*
Y00436*
X01607Y00424D02*
X01599D01*
X01607Y00432*
Y00434*
X01605Y00436*
X01601*
X01599Y00434*
X01611Y00424D02*
X01615D01*
X01613*
Y00436*
X01611Y00434*
X04853Y02871D02*
Y02861D01*
X04855Y02859*
X04859*
X04861Y02861*
Y02871*
X04873Y02859D02*
X04865D01*
X04873Y02867*
Y02869*
X04871Y02871*
X04867*
X04865Y02869*
X04877D02*
X04879Y02871D01*
X04883*
X04885Y02869*
Y02861*
X04883Y02859*
X04879*
X04877Y02861*
Y02869*
X03435Y02911D02*
Y02901D01*
X03437Y02899*
X03441*
X03443Y02901*
Y02911*
X03447Y02899D02*
X03451D01*
X03449*
Y02911*
X03447Y02909*
X03457Y02901D02*
X03459Y02899D01*
X03463*
X03465Y02901*
Y02909*
X03463Y02911*
X03459*
X03457Y02909*
Y02907*
X03459Y02905*
X03465*
X05301Y01088D02*
Y01078D01*
X05303Y01076*
X05307*
X05309Y01078*
Y01088*
X05313Y01076D02*
X05317D01*
X05315*
Y01088*
X05313Y01086*
X05323D02*
X05325Y01088D01*
X05329*
X05331Y01086*
Y01084*
X05329Y01082*
X05331Y0108*
Y01078*
X05329Y01076*
X05325*
X05323Y01078*
Y0108*
X05325Y01082*
X05323Y01084*
Y01086*
X05325Y01082D02*
X05329D01*
X02939Y00418D02*
Y00408D01*
X02941Y00406*
X02945*
X02947Y00408*
Y00418*
X02951Y00406D02*
X02955D01*
X02953*
Y00418*
X02951Y00416*
X02961Y00418D02*
X02969D01*
Y00416*
X02961Y00408*
Y00406*
X04292Y01154D02*
Y01144D01*
X04294Y01142*
X04298*
X043Y01144*
Y01154*
X04304Y01142D02*
X04308D01*
X04306*
Y01154*
X04304Y01152*
X04322Y01154D02*
X04318Y01152D01*
X04314Y01148*
Y01144*
X04316Y01142*
X0432*
X04322Y01144*
Y01146*
X0432Y01148*
X04314*
X04028Y01154D02*
Y01144D01*
X0403Y01142*
X04034*
X04036Y01144*
Y01154*
X0404Y01142D02*
X04044D01*
X04042*
Y01154*
X0404Y01152*
X04058Y01154D02*
X0405D01*
Y01148*
X04054Y0115*
X04056*
X04058Y01148*
Y01144*
X04056Y01142*
X04052*
X0405Y01144*
X05301Y01678D02*
Y01668D01*
X05303Y01666*
X05307*
X05309Y01668*
Y01678*
X05313Y01666D02*
X05317D01*
X05315*
Y01678*
X05313Y01676*
X05329Y01666D02*
Y01678D01*
X05323Y01672*
X05331*
X05301Y02218D02*
Y02208D01*
X05303Y02206*
X05307*
X05309Y02208*
Y02218*
X05313Y02206D02*
X05317D01*
X05315*
Y02218*
X05313Y02216*
X05323D02*
X05325Y02218D01*
X05329*
X05331Y02216*
Y02214*
X05329Y02212*
X05327*
X05329*
X05331Y0221*
Y02208*
X05329Y02206*
X05325*
X05323Y02208*
X03909Y0257D02*
Y0256D01*
X03911Y02558*
X03915*
X03917Y0256*
Y0257*
X03921Y02558D02*
X03925D01*
X03923*
Y0257*
X03921Y02568*
X03939Y02558D02*
X03931D01*
X03939Y02566*
Y02568*
X03937Y0257*
X03933*
X03931Y02568*
X04908Y00694D02*
Y00684D01*
X0491Y00682*
X04914*
X04916Y00684*
Y00694*
X0492Y00682D02*
X04924D01*
X04922*
Y00694*
X0492Y00692*
X0493Y00682D02*
X04934D01*
X04932*
Y00694*
X0493Y00692*
X04292Y00397D02*
Y00387D01*
X04294Y00385*
X04298*
X043Y00387*
Y00397*
X04304Y00385D02*
X04308D01*
X04306*
Y00397*
X04304Y00395*
X04314D02*
X04316Y00397D01*
X0432*
X04322Y00395*
Y00387*
X0432Y00385*
X04316*
X04314Y00387*
Y00395*
X02309Y00418D02*
Y00408D01*
X02311Y00406*
X02315*
X02317Y00408*
Y00418*
X02321Y00408D02*
X02323Y00406D01*
X02327*
X02329Y00408*
Y00416*
X02327Y00418*
X02323*
X02321Y00416*
Y00414*
X02323Y00412*
X02329*
X01075Y0044D02*
Y0043D01*
X01077Y00428*
X01081*
X01083Y0043*
Y0044*
X01087Y00438D02*
X01089Y0044D01*
X01093*
X01095Y00438*
Y00436*
X01093Y00434*
X01095Y00432*
Y0043*
X01093Y00428*
X01089*
X01087Y0043*
Y00432*
X01089Y00434*
X01087Y00436*
Y00438*
X01089Y00434D02*
X01093D01*
X01602Y00864D02*
Y00854D01*
X01604Y00852*
X01608*
X0161Y00854*
Y00864*
X01614D02*
X01622D01*
Y00862*
X01614Y00854*
Y00852*
X00893Y01574D02*
Y01564D01*
X00895Y01562*
X00899*
X00901Y01564*
Y01574*
X00913D02*
X00909Y01572D01*
X00905Y01568*
Y01564*
X00907Y01562*
X00911*
X00913Y01564*
Y01566*
X00911Y01568*
X00905*
X0309Y01964D02*
Y01954D01*
X03092Y01952*
X03096*
X03098Y01954*
Y01964*
X03108Y01952D02*
Y01964D01*
X03102Y01958*
X0311*
X01148Y01774D02*
Y01764D01*
X0115Y01762*
X01154*
X01156Y01764*
Y01774*
X0116Y01772D02*
X01162Y01774D01*
X01166*
X01168Y01772*
Y0177*
X01166Y01768*
X01164*
X01166*
X01168Y01766*
Y01764*
X01166Y01762*
X01162*
X0116Y01764*
X01178Y01299D02*
Y01289D01*
X0118Y01287*
X01184*
X01186Y01289*
Y01299*
X01198Y01287D02*
X0119D01*
X01198Y01295*
Y01297*
X01196Y01299*
X01192*
X0119Y01297*
X00405Y00382D02*
X00403Y00384D01*
X00399*
X00397Y00382*
Y0038*
X00399Y00378*
X00403*
X00405Y00376*
Y00374*
X00403Y00372*
X00399*
X00397Y00374*
X00409Y00384D02*
Y00372D01*
X00413Y00376*
X00417Y00372*
Y00384*
X00427Y00372D02*
Y00384D01*
X00421Y00378*
X00429*
X00121Y02878D02*
X00119Y0288D01*
X00115*
X00113Y02878*
Y02876*
X00115Y02874*
X00119*
X00121Y02872*
Y0287*
X00119Y02868*
X00115*
X00113Y0287*
X00125Y0288D02*
Y02868D01*
X00129Y02872*
X00133Y02868*
Y0288*
X00137Y02878D02*
X00139Y0288D01*
X00143*
X00145Y02878*
Y02876*
X00143Y02874*
X00141*
X00143*
X00145Y02872*
Y0287*
X00143Y02868*
X00139*
X00137Y0287*
X00131Y02374D02*
X00129Y02376D01*
X00125*
X00123Y02374*
Y02372*
X00125Y0237*
X00129*
X00131Y02368*
Y02366*
X00129Y02364*
X00125*
X00123Y02366*
X00135Y02376D02*
Y02364D01*
X00139Y02368*
X00143Y02364*
Y02376*
X00155Y02364D02*
X00147D01*
X00155Y02372*
Y02374*
X00153Y02376*
X00149*
X00147Y02374*
X00131Y01264D02*
X00129Y01266D01*
X00125*
X00123Y01264*
Y01262*
X00125Y0126*
X00129*
X00131Y01258*
Y01256*
X00129Y01254*
X00125*
X00123Y01256*
X00135Y01266D02*
Y01254D01*
X00139Y01258*
X00143Y01254*
Y01266*
X00147Y01254D02*
X00151D01*
X00149*
Y01266*
X00147Y01264*
X01449Y00808D02*
Y0082D01*
X01455*
X01457Y00818*
Y00814*
X01455Y00812*
X01449*
X01453D02*
X01457Y00808D01*
X01461Y0082D02*
X01469D01*
Y00818*
X01461Y0081*
Y00808*
X01473Y0081D02*
X01475Y00808D01*
X01479*
X01481Y0081*
Y00818*
X01479Y0082*
X01475*
X01473Y00818*
Y00816*
X01475Y00814*
X01481*
X01051Y01344D02*
Y01356D01*
X01057*
X01059Y01354*
Y0135*
X01057Y01348*
X01051*
X01055D02*
X01059Y01344D01*
X01063Y01356D02*
X01071D01*
Y01354*
X01063Y01346*
Y01344*
X01083Y01356D02*
X01079Y01354D01*
X01075Y0135*
Y01346*
X01077Y01344*
X01081*
X01083Y01346*
Y01348*
X01081Y0135*
X01075*
X01923Y01991D02*
Y02003D01*
X01929*
X01931Y02001*
Y01997*
X01929Y01995*
X01923*
X01927D02*
X01931Y01991D01*
X01935Y02003D02*
X01943D01*
Y02001*
X01935Y01993*
Y01991*
X01955Y02003D02*
X01947D01*
Y01997*
X01951Y01999*
X01953*
X01955Y01997*
Y01993*
X01953Y01991*
X01949*
X01947Y01993*
X01681Y00675D02*
Y00687D01*
X01687*
X01689Y00685*
Y00681*
X01687Y00679*
X01681*
X01685D02*
X01689Y00675D01*
X01693Y00687D02*
X01701D01*
Y00685*
X01693Y00677*
Y00675*
X01711D02*
Y00687D01*
X01705Y00681*
X01713*
X04394Y00828D02*
Y0084D01*
X044*
X04402Y00838*
Y00834*
X044Y00832*
X04394*
X04398D02*
X04402Y00828D01*
X04406Y0084D02*
X04414D01*
Y00838*
X04406Y0083*
Y00828*
X04418Y00838D02*
X0442Y0084D01*
X04424*
X04426Y00838*
Y00836*
X04424Y00834*
X04422*
X04424*
X04426Y00832*
Y0083*
X04424Y00828*
X0442*
X04418Y0083*
X02744Y02053D02*
Y02065D01*
X0275*
X02752Y02063*
Y02059*
X0275Y02057*
X02744*
X02748D02*
X02752Y02053D01*
X02756Y02065D02*
X02764D01*
Y02063*
X02756Y02055*
Y02053*
X02776D02*
X02768D01*
X02776Y02061*
Y02063*
X02774Y02065*
X0277*
X02768Y02063*
X01809Y00909D02*
Y00921D01*
X01815*
X01817Y00919*
Y00915*
X01815Y00913*
X01809*
X01813D02*
X01817Y00909D01*
X01821Y00921D02*
X01829D01*
Y00919*
X01821Y00911*
Y00909*
X01833D02*
X01837D01*
X01835*
Y00921*
X01833Y00919*
X04991Y02529D02*
Y02541D01*
X04997*
X04999Y02539*
Y02535*
X04997Y02533*
X04991*
X04995D02*
X04999Y02529D01*
X05003Y02541D02*
X05011D01*
Y02539*
X05003Y02531*
Y02529*
X05015Y02539D02*
X05017Y02541D01*
X05021*
X05023Y02539*
Y02531*
X05021Y02529*
X05017*
X05015Y02531*
Y02539*
X0487Y01308D02*
Y0132D01*
X04876*
X04878Y01318*
Y01314*
X04876Y01312*
X0487*
X04874D02*
X04878Y01308D01*
X0489Y0132D02*
X04886Y01318D01*
X04882Y01314*
Y0131*
X04884Y01308*
X04888*
X0489Y0131*
Y01312*
X04888Y01314*
X04882*
X04894Y0131D02*
X04896Y01308D01*
X049*
X04902Y0131*
Y01318*
X049Y0132*
X04896*
X04894Y01318*
Y01316*
X04896Y01314*
X04902*
X00832Y01322D02*
Y01334D01*
X00838*
X0084Y01332*
Y01328*
X00838Y01326*
X00832*
X00836D02*
X0084Y01322D01*
X00852Y01334D02*
X00848Y01332D01*
X00844Y01328*
Y01324*
X00846Y01322*
X0085*
X00852Y01324*
Y01326*
X0085Y01328*
X00844*
X00862Y01322D02*
Y01334D01*
X00856Y01328*
X00864*
X0298Y01934D02*
Y01946D01*
X02986*
X02988Y01944*
Y0194*
X02986Y01938*
X0298*
X02984D02*
X02988Y01934D01*
X03Y01946D02*
X02996Y01944D01*
X02992Y0194*
Y01936*
X02994Y01934*
X02998*
X03Y01936*
Y01938*
X02998Y0194*
X02992*
X03004Y01944D02*
X03006Y01946D01*
X0301*
X03012Y01944*
Y01936*
X0301Y01934*
X03006*
X03004Y01936*
Y01944*
X04752Y02497D02*
Y02509D01*
X04758*
X0476Y02507*
Y02503*
X04758Y02501*
X04752*
X04756D02*
X0476Y02497D01*
X04772Y02509D02*
X04764D01*
Y02503*
X04768Y02505*
X0477*
X04772Y02503*
Y02499*
X0477Y02497*
X04766*
X04764Y02499*
X04776Y02507D02*
X04778Y02509D01*
X04782*
X04784Y02507*
Y02505*
X04782Y02503*
X04784Y02501*
Y02499*
X04782Y02497*
X04778*
X04776Y02499*
Y02501*
X04778Y02503*
X04776Y02505*
Y02507*
X04778Y02503D02*
X04782D01*
X01917Y0099D02*
Y01002D01*
X01923*
X01925Y01*
Y00996*
X01923Y00994*
X01917*
X01921D02*
X01925Y0099D01*
X01937Y01002D02*
X01929D01*
Y00996*
X01933Y00998*
X01935*
X01937Y00996*
Y00992*
X01935Y0099*
X01931*
X01929Y00992*
X01941Y01D02*
X01943Y01002D01*
X01947*
X01949Y01*
Y00992*
X01947Y0099*
X01943*
X01941Y00992*
Y01*
X01405Y01423D02*
Y01435D01*
X01411*
X01413Y01433*
Y01429*
X01411Y01427*
X01405*
X01409D02*
X01413Y01423D01*
X01423D02*
Y01435D01*
X01417Y01429*
X01425*
X01429Y01425D02*
X01431Y01423D01*
X01435*
X01437Y01425*
Y01433*
X01435Y01435*
X01431*
X01429Y01433*
Y01431*
X01431Y01429*
X01437*
X0251Y01249D02*
Y01261D01*
X02516*
X02518Y01259*
Y01255*
X02516Y01253*
X0251*
X02514D02*
X02518Y01249D01*
X02528D02*
Y01261D01*
X02522Y01255*
X0253*
X02534Y01259D02*
X02536Y01261D01*
X0254*
X02542Y01259*
Y01257*
X0254Y01255*
X02542Y01253*
Y01251*
X0254Y01249*
X02536*
X02534Y01251*
Y01253*
X02536Y01255*
X02534Y01257*
Y01259*
X02536Y01255D02*
X0254D01*
X02117Y01151D02*
Y01163D01*
X02123*
X02125Y01161*
Y01157*
X02123Y01155*
X02117*
X02121D02*
X02125Y01151D01*
X02135D02*
Y01163D01*
X02129Y01157*
X02137*
X02149Y01163D02*
X02141D01*
Y01157*
X02145Y01159*
X02147*
X02149Y01157*
Y01153*
X02147Y01151*
X02143*
X02141Y01153*
X044Y02027D02*
Y02039D01*
X04406*
X04408Y02037*
Y02033*
X04406Y02031*
X044*
X04404D02*
X04408Y02027D01*
X04418D02*
Y02039D01*
X04412Y02033*
X0442*
X04432Y02027D02*
X04424D01*
X04432Y02035*
Y02037*
X0443Y02039*
X04426*
X04424Y02037*
X04909Y02053D02*
Y02065D01*
X04915*
X04917Y02063*
Y02059*
X04915Y02057*
X04909*
X04913D02*
X04917Y02053D01*
X04927D02*
Y02065D01*
X04921Y02059*
X04929*
X04933Y02053D02*
X04937D01*
X04935*
Y02065*
X04933Y02063*
X03377Y00846D02*
Y00858D01*
X03383*
X03385Y00856*
Y00852*
X03383Y0085*
X03377*
X03381D02*
X03385Y00846D01*
X03389Y00856D02*
X03391Y00858D01*
X03395*
X03397Y00856*
Y00854*
X03395Y00852*
X03393*
X03395*
X03397Y0085*
Y00848*
X03395Y00846*
X03391*
X03389Y00848*
X03401Y00856D02*
X03403Y00858D01*
X03407*
X03409Y00856*
Y00854*
X03407Y00852*
X03409Y0085*
Y00848*
X03407Y00846*
X03403*
X03401Y00848*
Y0085*
X03403Y00852*
X03401Y00854*
Y00856*
X03403Y00852D02*
X03407D01*
X02865Y02027D02*
Y02039D01*
X02871*
X02873Y02037*
Y02033*
X02871Y02031*
X02865*
X02869D02*
X02873Y02027D01*
X02877Y02037D02*
X02879Y02039D01*
X02883*
X02885Y02037*
Y02035*
X02883Y02033*
X02881*
X02883*
X02885Y02031*
Y02029*
X02883Y02027*
X02879*
X02877Y02029*
X02897Y02039D02*
X02893Y02037D01*
X02889Y02033*
Y02029*
X02891Y02027*
X02895*
X02897Y02029*
Y02031*
X02895Y02033*
X02889*
X01445Y0167D02*
Y01682D01*
X01451*
X01453Y0168*
Y01676*
X01451Y01674*
X01445*
X01449D02*
X01453Y0167D01*
X01457Y0168D02*
X01459Y01682D01*
X01463*
X01465Y0168*
Y01678*
X01463Y01676*
X01461*
X01463*
X01465Y01674*
Y01672*
X01463Y0167*
X01459*
X01457Y01672*
X01477Y01682D02*
X01469D01*
Y01676*
X01473Y01678*
X01475*
X01477Y01676*
Y01672*
X01475Y0167*
X01471*
X01469Y01672*
X01566Y01869D02*
Y01881D01*
X01572*
X01574Y01879*
Y01875*
X01572Y01873*
X01566*
X0157D02*
X01574Y01869D01*
X01578Y01879D02*
X0158Y01881D01*
X01584*
X01586Y01879*
Y01877*
X01584Y01875*
X01582*
X01584*
X01586Y01873*
Y01871*
X01584Y01869*
X0158*
X01578Y01871*
X01596Y01869D02*
Y01881D01*
X0159Y01875*
X01598*
X02232Y02131D02*
Y02143D01*
X02238*
X0224Y02141*
Y02137*
X02238Y02135*
X02232*
X02236D02*
X0224Y02131D01*
X02244Y02141D02*
X02246Y02143D01*
X0225*
X02252Y02141*
Y02139*
X0225Y02137*
X02248*
X0225*
X02252Y02135*
Y02133*
X0225Y02131*
X02246*
X02244Y02133*
X02256Y02141D02*
X02258Y02143D01*
X02262*
X02264Y02141*
Y02139*
X02262Y02137*
X0226*
X02262*
X02264Y02135*
Y02133*
X02262Y02131*
X02258*
X02256Y02133*
X01251Y02106D02*
Y02118D01*
X01257*
X01259Y02116*
Y02112*
X01257Y0211*
X01251*
X01255D02*
X01259Y02106D01*
X01263Y02116D02*
X01265Y02118D01*
X01269*
X01271Y02116*
Y02114*
X01269Y02112*
X01267*
X01269*
X01271Y0211*
Y02108*
X01269Y02106*
X01265*
X01263Y02108*
X01283Y02106D02*
X01275D01*
X01283Y02114*
Y02116*
X01281Y02118*
X01277*
X01275Y02116*
X04135Y02219D02*
Y02231D01*
X04141*
X04143Y02229*
Y02225*
X04141Y02223*
X04135*
X04139D02*
X04143Y02219D01*
X04147Y02229D02*
X04149Y02231D01*
X04153*
X04155Y02229*
Y02227*
X04153Y02225*
X04151*
X04153*
X04155Y02223*
Y02221*
X04153Y02219*
X04149*
X04147Y02221*
X04159Y02229D02*
X04161Y02231D01*
X04165*
X04167Y02229*
Y02221*
X04165Y02219*
X04161*
X04159Y02221*
Y02229*
X04243Y02499D02*
Y02511D01*
X04249*
X04251Y02509*
Y02505*
X04249Y02503*
X04243*
X04247D02*
X04251Y02499D01*
X04263D02*
X04255D01*
X04263Y02507*
Y02509*
X04261Y02511*
X04257*
X04255Y02509*
X04267Y02501D02*
X04269Y02499D01*
X04273*
X04275Y02501*
Y02509*
X04273Y02511*
X04269*
X04267Y02509*
Y02507*
X04269Y02505*
X04275*
X04261Y02731D02*
Y02743D01*
X04267*
X04269Y02741*
Y02737*
X04267Y02735*
X04261*
X04265D02*
X04269Y02731D01*
X04281D02*
X04273D01*
X04281Y02739*
Y02741*
X04279Y02743*
X04275*
X04273Y02741*
X04285D02*
X04287Y02743D01*
X04291*
X04293Y02741*
Y02739*
X04291Y02737*
X04293Y02735*
Y02733*
X04291Y02731*
X04287*
X04285Y02733*
Y02735*
X04287Y02737*
X04285Y02739*
Y02741*
X04287Y02737D02*
X04291D01*
X04491Y02731D02*
Y02743D01*
X04497*
X04499Y02741*
Y02737*
X04497Y02735*
X04491*
X04495D02*
X04499Y02731D01*
X04511D02*
X04503D01*
X04511Y02739*
Y02741*
X04509Y02743*
X04505*
X04503Y02741*
X04515Y02743D02*
X04523D01*
Y02741*
X04515Y02733*
Y02731*
X04398Y02536D02*
Y02548D01*
X04404*
X04406Y02546*
Y02542*
X04404Y0254*
X04398*
X04402D02*
X04406Y02536D01*
X04418D02*
X0441D01*
X04418Y02544*
Y02546*
X04416Y02548*
X04412*
X0441Y02546*
X0443Y02548D02*
X04426Y02546D01*
X04422Y02542*
Y02538*
X04424Y02536*
X04428*
X0443Y02538*
Y0254*
X04428Y02542*
X04422*
X02363Y02636D02*
Y02648D01*
X02369*
X02371Y02646*
Y02642*
X02369Y0264*
X02363*
X02367D02*
X02371Y02636D01*
X02383D02*
X02375D01*
X02383Y02644*
Y02646*
X02381Y02648*
X02377*
X02375Y02646*
X02395Y02648D02*
X02387D01*
Y02642*
X02391Y02644*
X02393*
X02395Y02642*
Y02638*
X02393Y02636*
X02389*
X02387Y02638*
X0259Y02616D02*
Y02628D01*
X02596*
X02598Y02626*
Y02622*
X02596Y0262*
X0259*
X02594D02*
X02598Y02616D01*
X0261D02*
X02602D01*
X0261Y02624*
Y02626*
X02608Y02628*
X02604*
X02602Y02626*
X0262Y02616D02*
Y02628D01*
X02614Y02622*
X02622*
X02863Y02546D02*
Y02558D01*
X02869*
X02871Y02556*
Y02552*
X02869Y0255*
X02863*
X02867D02*
X02871Y02546D01*
X02883D02*
X02875D01*
X02883Y02554*
Y02556*
X02881Y02558*
X02877*
X02875Y02556*
X02887D02*
X02889Y02558D01*
X02893*
X02895Y02556*
Y02554*
X02893Y02552*
X02891*
X02893*
X02895Y0255*
Y02548*
X02893Y02546*
X02889*
X02887Y02548*
X02486Y02031D02*
Y02043D01*
X02492*
X02494Y02041*
Y02037*
X02492Y02035*
X02486*
X0249D02*
X02494Y02031D01*
X02506D02*
X02498D01*
X02506Y02039*
Y02041*
X02504Y02043*
X025*
X02498Y02041*
X02518Y02031D02*
X0251D01*
X02518Y02039*
Y02041*
X02516Y02043*
X02512*
X0251Y02041*
X03186Y00848D02*
Y00856D01*
X03184Y00858*
X0318*
X03178Y00856*
Y00848*
X0318Y00846*
X03184*
X03182Y0085D02*
X03186Y00846D01*
X03184D02*
X03186Y00848D01*
X03198Y00858D02*
X03194Y00856D01*
X0319Y00852*
Y00848*
X03192Y00846*
X03196*
X03198Y00848*
Y0085*
X03196Y00852*
X0319*
X02594Y00691D02*
Y00699D01*
X02592Y00701*
X02588*
X02586Y00699*
Y00691*
X02588Y00689*
X02592*
X0259Y00693D02*
X02594Y00689D01*
X02592D02*
X02594Y00691D01*
X02606Y00701D02*
X02598D01*
Y00695*
X02602Y00697*
X02604*
X02606Y00695*
Y00691*
X02604Y00689*
X026*
X02598Y00691*
X0232Y00888D02*
Y00896D01*
X02318Y00898*
X02314*
X02312Y00896*
Y00888*
X02314Y00886*
X02318*
X02316Y0089D02*
X0232Y00886D01*
X02318D02*
X0232Y00888D01*
X0233Y00886D02*
Y00898D01*
X02324Y00892*
X02332*
X0232Y00691D02*
Y00699D01*
X02318Y00701*
X02314*
X02312Y00699*
Y00691*
X02314Y00689*
X02318*
X02316Y00693D02*
X0232Y00689D01*
X02318D02*
X0232Y00691D01*
X02324Y00699D02*
X02326Y00701D01*
X0233*
X02332Y00699*
Y00697*
X0233Y00695*
X02328*
X0233*
X02332Y00693*
Y00691*
X0233Y00689*
X02326*
X02324Y00691*
X01808Y00652D02*
Y0066D01*
X01806Y00662*
X01802*
X018Y0066*
Y00652*
X01802Y0065*
X01806*
X01804Y00654D02*
X01808Y0065D01*
X01806D02*
X01808Y00652D01*
X0182Y0065D02*
X01812D01*
X0182Y00658*
Y0066*
X01818Y00662*
X01814*
X01812Y0066*
X03175Y01055D02*
Y01043D01*
X03183*
X03187Y01055D02*
X03195D01*
Y01053*
X03187Y01045*
Y01043*
X04248Y0134D02*
Y01328D01*
X04256*
X04268Y0134D02*
X04264Y01338D01*
X0426Y01334*
Y0133*
X04262Y01328*
X04266*
X04268Y0133*
Y01332*
X04266Y01334*
X0426*
X04909Y01916D02*
Y01904D01*
X04917*
X04929Y01916D02*
X04921D01*
Y0191*
X04925Y01912*
X04927*
X04929Y0191*
Y01906*
X04927Y01904*
X04923*
X04921Y01906*
X04879Y01177D02*
Y01165D01*
X04887*
X04897D02*
Y01177D01*
X04891Y01171*
X04899*
X02197Y02359D02*
Y02347D01*
X02205*
X02209Y02357D02*
X02211Y02359D01*
X02215*
X02217Y02357*
Y02355*
X02215Y02353*
X02213*
X02215*
X02217Y02351*
Y02349*
X02215Y02347*
X02211*
X02209Y02349*
X03462Y02398D02*
Y02386D01*
X0347*
X03482D02*
X03474D01*
X03482Y02394*
Y02396*
X0348Y02398*
X03476*
X03474Y02396*
X04261Y03183D02*
X04257D01*
X04259*
Y03173*
X04257Y03171*
X04255*
X04253Y03173*
X04265Y03181D02*
X04267Y03183D01*
X04271*
X04273Y03181*
Y03179*
X04271Y03177*
X04273Y03175*
Y03173*
X04271Y03171*
X04267*
X04265Y03173*
Y03175*
X04267Y03177*
X04265Y03179*
Y03181*
X04267Y03177D02*
X04271D01*
X00052Y01909D02*
X00048D01*
X0005*
Y01899*
X00048Y01897*
X00046*
X00044Y01899*
X00056Y01909D02*
X00064D01*
Y01907*
X00056Y01899*
Y01897*
X0079Y03176D02*
X00786D01*
X00788*
Y03166*
X00786Y03164*
X00784*
X00782Y03166*
X00802Y03176D02*
X00798Y03174D01*
X00794Y0317*
Y03166*
X00796Y03164*
X008*
X00802Y03166*
Y03168*
X008Y0317*
X00794*
X05313Y02776D02*
X05309D01*
X05311*
Y02766*
X05309Y02764*
X05307*
X05305Y02766*
X05325Y02776D02*
X05317D01*
Y0277*
X05321Y02772*
X05323*
X05325Y0277*
Y02766*
X05323Y02764*
X05319*
X05317Y02766*
X03241Y03199D02*
X03237D01*
X03239*
Y03189*
X03237Y03187*
X03235*
X03233Y03189*
X03251Y03187D02*
Y03199D01*
X03245Y03193*
X03253*
X02139Y03199D02*
X02135D01*
X02137*
Y03189*
X02135Y03187*
X02133*
X02131Y03189*
X02143Y03197D02*
X02145Y03199D01*
X02149*
X02151Y03197*
Y03195*
X02149Y03193*
X02147*
X02149*
X02151Y03191*
Y03189*
X02149Y03187*
X02145*
X02143Y03189*
X01253Y03199D02*
X01249D01*
X01251*
Y03189*
X01249Y03187*
X01247*
X01245Y03189*
X01265Y03187D02*
X01257D01*
X01265Y03195*
Y03197*
X01263Y03199*
X01259*
X01257Y03197*
X04769Y03136D02*
X04765D01*
X04767*
Y03126*
X04765Y03124*
X04763*
X04761Y03126*
X04773Y03124D02*
X04777D01*
X04775*
Y03136*
X04773Y03134*
X04639Y01149D02*
Y01137D01*
X04645*
X04647Y01139*
Y01147*
X04645Y01149*
X04639*
X04651Y01137D02*
X04655D01*
X04653*
Y01149*
X04651Y01147*
X04661D02*
X04663Y01149D01*
X04667*
X04669Y01147*
Y01145*
X04667Y01143*
X04669Y01141*
Y01139*
X04667Y01137*
X04663*
X04661Y01139*
Y01141*
X04663Y01143*
X04661Y01145*
Y01147*
X04663Y01143D02*
X04667D01*
X01394Y02116D02*
Y02104D01*
X014*
X01402Y02106*
Y02114*
X014Y02116*
X01394*
X01406Y02104D02*
X0141D01*
X01408*
Y02116*
X01406Y02114*
X01416Y02116D02*
X01424D01*
Y02114*
X01416Y02106*
Y02104*
X03891Y01779D02*
Y01767D01*
X03897*
X03899Y01769*
Y01777*
X03897Y01779*
X03891*
X03903Y01767D02*
X03907D01*
X03905*
Y01779*
X03903Y01777*
X03921Y01779D02*
X03917Y01777D01*
X03913Y01773*
Y01769*
X03915Y01767*
X03919*
X03921Y01769*
Y01771*
X03919Y01773*
X03913*
X03655Y01779D02*
Y01767D01*
X03661*
X03663Y01769*
Y01777*
X03661Y01779*
X03655*
X03667Y01767D02*
X03671D01*
X03669*
Y01779*
X03667Y01777*
X03685Y01779D02*
X03677D01*
Y01773*
X03681Y01775*
X03683*
X03685Y01773*
Y01769*
X03683Y01767*
X03679*
X03677Y01769*
X02946Y00913D02*
Y00901D01*
X02952*
X02954Y00903*
Y00911*
X02952Y00913*
X02946*
X02958Y00901D02*
X02962D01*
X0296*
Y00913*
X02958Y00911*
X02974Y00901D02*
Y00913D01*
X02968Y00907*
X02976*
X04993Y01464D02*
Y01452D01*
X04999*
X05001Y01454*
Y01462*
X04999Y01464*
X04993*
X05005Y01452D02*
X05009D01*
X05007*
Y01464*
X05005Y01462*
X05015D02*
X05017Y01464D01*
X05021*
X05023Y01462*
Y0146*
X05021Y01458*
X05019*
X05021*
X05023Y01456*
Y01454*
X05021Y01452*
X05017*
X05015Y01454*
X01928Y00819D02*
Y00807D01*
X01934*
X01936Y00809*
Y00817*
X01934Y00819*
X01928*
X0194Y00807D02*
X01944D01*
X01942*
Y00819*
X0194Y00817*
X01958Y00807D02*
X0195D01*
X01958Y00815*
Y00817*
X01956Y00819*
X01952*
X0195Y00817*
X03562Y02195D02*
Y02183D01*
X03568*
X0357Y02185*
Y02193*
X03568Y02195*
X03562*
X03574Y02183D02*
X03578D01*
X03576*
Y02195*
X03574Y02193*
X03584Y02183D02*
X03588D01*
X03586*
Y02195*
X03584Y02193*
X03495Y00929D02*
Y00917D01*
X03501*
X03503Y00919*
Y00927*
X03501Y00929*
X03495*
X03507Y00917D02*
X03511D01*
X03509*
Y00929*
X03507Y00927*
X03517D02*
X03519Y00929D01*
X03523*
X03525Y00927*
Y00919*
X03523Y00917*
X03519*
X03517Y00919*
Y00927*
X03779Y00819D02*
Y00807D01*
X03785*
X03787Y00809*
Y00817*
X03785Y00819*
X03779*
X03791Y00809D02*
X03793Y00807D01*
X03797*
X03799Y00809*
Y00817*
X03797Y00819*
X03793*
X03791Y00817*
Y00815*
X03793Y00813*
X03799*
X01377Y02394D02*
Y02382D01*
X01383*
X01385Y02384*
Y02392*
X01383Y02394*
X01377*
X01389Y02392D02*
X01391Y02394D01*
X01395*
X01397Y02392*
Y0239*
X01395Y02388*
X01397Y02386*
Y02384*
X01395Y02382*
X01391*
X01389Y02384*
Y02386*
X01391Y02388*
X01389Y0239*
Y02392*
X01391Y02388D02*
X01395D01*
X01826Y02355D02*
Y02343D01*
X01832*
X01834Y02345*
Y02353*
X01832Y02355*
X01826*
X01838D02*
X01846D01*
Y02353*
X01838Y02345*
Y02343*
X0092Y00977D02*
Y00965D01*
X00926*
X00928Y00967*
Y00975*
X00926Y00977*
X0092*
X0094D02*
X00936Y00975D01*
X00932Y00971*
Y00967*
X00934Y00965*
X00938*
X0094Y00967*
Y00969*
X00938Y00971*
X00932*
X00802Y02001D02*
Y01989D01*
X00808*
X0081Y01991*
Y01999*
X00808Y02001*
X00802*
X00822D02*
X00814D01*
Y01995*
X00818Y01997*
X0082*
X00822Y01995*
Y01991*
X0082Y01989*
X00816*
X00814Y01991*
X04897Y01646D02*
Y01634D01*
X04903*
X04905Y01636*
Y01644*
X04903Y01646*
X04897*
X04915Y01634D02*
Y01646D01*
X04909Y0164*
X04917*
X03621Y01095D02*
Y01083D01*
X03627*
X03629Y01085*
Y01093*
X03627Y01095*
X03621*
X03633Y01093D02*
X03635Y01095D01*
X03639*
X03641Y01093*
Y01091*
X03639Y01089*
X03637*
X03639*
X03641Y01087*
Y01085*
X03639Y01083*
X03635*
X03633Y01085*
X00826Y01213D02*
Y01201D01*
X00832*
X00834Y01203*
Y01211*
X00832Y01213*
X00826*
X00846Y01201D02*
X00838D01*
X00846Y01209*
Y01211*
X00844Y01213*
X0084*
X00838Y01211*
X00621Y01599D02*
Y01587D01*
X00627*
X00629Y01589*
Y01597*
X00627Y01599*
X00621*
X00633Y01587D02*
X00637D01*
X00635*
Y01599*
X00633Y01597*
X02036Y01073D02*
X02034Y01075D01*
X0203*
X02028Y01073*
Y01065*
X0203Y01063*
X02034*
X02036Y01065*
X0204Y01063D02*
X02044D01*
X02042*
Y01075*
X0204Y01073*
X02056Y01063D02*
Y01075D01*
X0205Y01069*
X02058*
X02062Y01073D02*
X02064Y01075D01*
X02068*
X0207Y01073*
Y01071*
X02068Y01069*
X0207Y01067*
Y01065*
X02068Y01063*
X02064*
X02062Y01065*
Y01067*
X02064Y01069*
X02062Y01071*
Y01073*
X02064Y01069D02*
X02068D01*
X01754Y01042D02*
X01752Y01044D01*
X01748*
X01746Y01042*
Y01034*
X01748Y01032*
X01752*
X01754Y01034*
X01758Y01032D02*
X01762D01*
X0176*
Y01044*
X01758Y01042*
X01774Y01032D02*
Y01044D01*
X01768Y01038*
X01776*
X0178Y01044D02*
X01788D01*
Y01042*
X0178Y01034*
Y01032*
X0154Y01249D02*
X01538Y01251D01*
X01534*
X01532Y01249*
Y01241*
X01534Y01239*
X01538*
X0154Y01241*
X01544Y01239D02*
X01548D01*
X01546*
Y01251*
X01544Y01249*
X0156Y01239D02*
Y01251D01*
X01554Y01245*
X01562*
X01574Y01251D02*
X0157Y01249D01*
X01566Y01245*
Y01241*
X01568Y01239*
X01572*
X01574Y01241*
Y01243*
X01572Y01245*
X01566*
X01315Y01879D02*
X01313Y01881D01*
X01309*
X01307Y01879*
Y01871*
X01309Y01869*
X01313*
X01315Y01871*
X01319Y01869D02*
X01323D01*
X01321*
Y01881*
X01319Y01879*
X01335Y01869D02*
Y01881D01*
X01329Y01875*
X01337*
X01349Y01881D02*
X01341D01*
Y01875*
X01345Y01877*
X01347*
X01349Y01875*
Y01871*
X01347Y01869*
X01343*
X01341Y01871*
X04463Y01332D02*
X04461Y01334D01*
X04457*
X04455Y01332*
Y01324*
X04457Y01322*
X04461*
X04463Y01324*
X04467Y01322D02*
X04471D01*
X04469*
Y01334*
X04467Y01332*
X04483Y01322D02*
Y01334D01*
X04477Y01328*
X04485*
X04495Y01322D02*
Y01334D01*
X04489Y01328*
X04497*
X04674Y01322D02*
X04672Y01324D01*
X04668*
X04666Y01322*
Y01314*
X04668Y01312*
X04672*
X04674Y01314*
X04678Y01312D02*
X04682D01*
X0468*
Y01324*
X04678Y01322*
X04694Y01312D02*
Y01324D01*
X04688Y01318*
X04696*
X047Y01322D02*
X04702Y01324D01*
X04706*
X04708Y01322*
Y0132*
X04706Y01318*
X04704*
X04706*
X04708Y01316*
Y01314*
X04706Y01312*
X04702*
X047Y01314*
X04136Y01332D02*
X04134Y01334D01*
X0413*
X04128Y01332*
Y01324*
X0413Y01322*
X04134*
X04136Y01324*
X0414Y01322D02*
X04144D01*
X04142*
Y01334*
X0414Y01332*
X04156Y01322D02*
Y01334D01*
X0415Y01328*
X04158*
X0417Y01322D02*
X04162D01*
X0417Y0133*
Y01332*
X04168Y01334*
X04164*
X04162Y01332*
X03983Y01418D02*
X03981Y0142D01*
X03977*
X03975Y01418*
Y0141*
X03977Y01408*
X03981*
X03983Y0141*
X03987Y01408D02*
X03991D01*
X03989*
Y0142*
X03987Y01418*
X04003Y01408D02*
Y0142D01*
X03997Y01414*
X04005*
X04009Y01408D02*
X04013D01*
X04011*
Y0142*
X04009Y01418*
X00996Y018D02*
X00994Y01802D01*
X0099*
X00988Y018*
Y01792*
X0099Y0179*
X00994*
X00996Y01792*
X01Y0179D02*
X01004D01*
X01002*
Y01802*
X01Y018*
X01016Y0179D02*
Y01802D01*
X0101Y01796*
X01018*
X01022Y018D02*
X01024Y01802D01*
X01028*
X0103Y018*
Y01792*
X01028Y0179*
X01024*
X01022Y01792*
Y018*
X01457Y00962D02*
X01455Y00964D01*
X01451*
X01449Y00962*
Y00954*
X01451Y00952*
X01455*
X01457Y00954*
X01461Y00952D02*
X01465D01*
X01463*
Y00964*
X01461Y00962*
X01471D02*
X01473Y00964D01*
X01477*
X01479Y00962*
Y0096*
X01477Y00958*
X01475*
X01477*
X01479Y00956*
Y00954*
X01477Y00952*
X01473*
X01471Y00954*
X01483D02*
X01485Y00952D01*
X01489*
X01491Y00954*
Y00962*
X01489Y00964*
X01485*
X01483Y00962*
Y0096*
X01485Y00958*
X01491*
X04722Y02016D02*
X0472Y02018D01*
X04716*
X04714Y02016*
Y02008*
X04716Y02006*
X0472*
X04722Y02008*
X04726Y02006D02*
X0473D01*
X04728*
Y02018*
X04726Y02016*
X04736D02*
X04738Y02018D01*
X04742*
X04744Y02016*
Y02014*
X04742Y02012*
X0474*
X04742*
X04744Y0201*
Y02008*
X04742Y02006*
X04738*
X04736Y02008*
X04748Y02016D02*
X0475Y02018D01*
X04754*
X04756Y02016*
Y02014*
X04754Y02012*
X04756Y0201*
Y02008*
X04754Y02006*
X0475*
X04748Y02008*
Y0201*
X0475Y02012*
X04748Y02014*
Y02016*
X0475Y02012D02*
X04754D01*
X02683Y00806D02*
X02681Y00808D01*
X02677*
X02675Y00806*
Y00798*
X02677Y00796*
X02681*
X02683Y00798*
X02687Y00796D02*
X02691D01*
X02689*
Y00808*
X02687Y00806*
X02697D02*
X02699Y00808D01*
X02703*
X02705Y00806*
Y00804*
X02703Y00802*
X02701*
X02703*
X02705Y008*
Y00798*
X02703Y00796*
X02699*
X02697Y00798*
X02709Y00808D02*
X02717D01*
Y00806*
X02709Y00798*
Y00796*
X01642Y00974D02*
X0164Y00976D01*
X01636*
X01634Y00974*
Y00966*
X01636Y00964*
X0164*
X01642Y00966*
X01646Y00964D02*
X0165D01*
X01648*
Y00976*
X01646Y00974*
X01656D02*
X01658Y00976D01*
X01662*
X01664Y00974*
Y00972*
X01662Y0097*
X0166*
X01662*
X01664Y00968*
Y00966*
X01662Y00964*
X01658*
X01656Y00966*
X01676Y00976D02*
X01672Y00974D01*
X01668Y0097*
Y00966*
X0167Y00964*
X01674*
X01676Y00966*
Y00968*
X01674Y0097*
X01668*
X013Y0093D02*
X01298Y00932D01*
X01294*
X01292Y0093*
Y00922*
X01294Y0092*
X01298*
X013Y00922*
X01304Y0092D02*
X01308D01*
X01306*
Y00932*
X01304Y0093*
X01314D02*
X01316Y00932D01*
X0132*
X01322Y0093*
Y00928*
X0132Y00926*
X01318*
X0132*
X01322Y00924*
Y00922*
X0132Y0092*
X01316*
X01314Y00922*
X01334Y00932D02*
X01326D01*
Y00926*
X0133Y00928*
X01332*
X01334Y00926*
Y00922*
X01332Y0092*
X01328*
X01326Y00922*
X02717Y02544D02*
X02715Y02546D01*
X02711*
X02709Y02544*
Y02536*
X02711Y02534*
X02715*
X02717Y02536*
X02721Y02534D02*
X02725D01*
X02723*
Y02546*
X02721Y02544*
X02731D02*
X02733Y02546D01*
X02737*
X02739Y02544*
Y02542*
X02737Y0254*
X02735*
X02737*
X02739Y02538*
Y02536*
X02737Y02534*
X02733*
X02731Y02536*
X02749Y02534D02*
Y02546D01*
X02743Y0254*
X02751*
X04507Y00916D02*
X04505Y00914D01*
Y0091*
X04507Y00908*
X04515*
X04517Y0091*
Y00914*
X04515Y00916*
X04517Y0092D02*
Y00924D01*
Y00922*
X04505*
X04507Y0092*
Y0093D02*
X04505Y00932D01*
Y00936*
X04507Y00938*
X04509*
X04511Y00936*
Y00934*
Y00936*
X04513Y00938*
X04515*
X04517Y00936*
Y00932*
X04515Y0093*
X04507Y00942D02*
X04505Y00944D01*
Y00948*
X04507Y0095*
X04509*
X04511Y00948*
Y00946*
Y00948*
X04513Y0095*
X04515*
X04517Y00948*
Y00944*
X04515Y00942*
X0453Y0208D02*
X04528Y02082D01*
X04524*
X04522Y0208*
Y02072*
X04524Y0207*
X04528*
X0453Y02072*
X04534Y0207D02*
X04538D01*
X04536*
Y02082*
X04534Y0208*
X04544D02*
X04546Y02082D01*
X0455*
X04552Y0208*
Y02078*
X0455Y02076*
X04548*
X0455*
X04552Y02074*
Y02072*
X0455Y0207*
X04546*
X04544Y02072*
X04564Y0207D02*
X04556D01*
X04564Y02078*
Y0208*
X04562Y02082*
X04558*
X04556Y0208*
X02539Y00919D02*
X02537Y00921D01*
X02533*
X02531Y00919*
Y00911*
X02533Y00909*
X02537*
X02539Y00911*
X02543Y00909D02*
X02547D01*
X02545*
Y00921*
X02543Y00919*
X02553Y00909D02*
X02557D01*
X02555*
Y00921*
X02553Y00919*
X02569Y00909D02*
Y00921D01*
X02563Y00915*
X02571*
X03405Y01141D02*
X03403Y01143D01*
X03399*
X03397Y01141*
Y01133*
X03399Y01131*
X03403*
X03405Y01133*
X03409Y01131D02*
X03413D01*
X03411*
Y01143*
X03409Y01141*
X03419Y01131D02*
X03423D01*
X03421*
Y01143*
X03419Y01141*
X03429D02*
X03431Y01143D01*
X03435*
X03437Y01141*
Y01139*
X03435Y01137*
X03433*
X03435*
X03437Y01135*
Y01133*
X03435Y01131*
X03431*
X03429Y01133*
X03614Y01245D02*
X03612Y01247D01*
X03608*
X03606Y01245*
Y01237*
X03608Y01235*
X03612*
X03614Y01237*
X03618Y01235D02*
X03622D01*
X0362*
Y01247*
X03618Y01245*
X03628D02*
X0363Y01247D01*
X03634*
X03636Y01245*
Y01237*
X03634Y01235*
X0363*
X03628Y01237*
Y01245*
X0364Y01247D02*
X03648D01*
Y01245*
X0364Y01237*
Y01235*
X03094Y01231D02*
X03092Y01233D01*
X03088*
X03086Y01231*
Y01223*
X03088Y01221*
X03092*
X03094Y01223*
X03098Y01221D02*
X03102D01*
X031*
Y01233*
X03098Y01231*
X03108D02*
X0311Y01233D01*
X03114*
X03116Y01231*
Y01223*
X03114Y01221*
X0311*
X03108Y01223*
Y01231*
X03128Y01233D02*
X03124Y01231D01*
X0312Y01227*
Y01223*
X03122Y01221*
X03126*
X03128Y01223*
Y01225*
X03126Y01227*
X0312*
X02735Y01076D02*
X02733Y01078D01*
X02729*
X02727Y01076*
Y01068*
X02729Y01066*
X02733*
X02735Y01068*
X02739Y01066D02*
X02743D01*
X02741*
Y01078*
X02739Y01076*
X02749D02*
X02751Y01078D01*
X02755*
X02757Y01076*
Y01068*
X02755Y01066*
X02751*
X02749Y01068*
Y01076*
X02769Y01078D02*
X02761D01*
Y01072*
X02765Y01074*
X02767*
X02769Y01072*
Y01068*
X02767Y01066*
X02763*
X02761Y01068*
X02932Y0181D02*
X0293Y01812D01*
X02926*
X02924Y0181*
Y01802*
X02926Y018*
X0293*
X02932Y01802*
X02936D02*
X02938Y018D01*
X02942*
X02944Y01802*
Y0181*
X02942Y01812*
X02938*
X02936Y0181*
Y01808*
X02938Y01806*
X02944*
X02948Y0181D02*
X0295Y01812D01*
X02954*
X02956Y0181*
Y01808*
X02954Y01806*
X02956Y01804*
Y01802*
X02954Y018*
X0295*
X02948Y01802*
Y01804*
X0295Y01806*
X02948Y01808*
Y0181*
X0295Y01806D02*
X02954D01*
X02897Y01152D02*
X02895Y01154D01*
X02891*
X02889Y01152*
Y01144*
X02891Y01142*
X02895*
X02897Y01144*
X02901D02*
X02903Y01142D01*
X02907*
X02909Y01144*
Y01152*
X02907Y01154*
X02903*
X02901Y01152*
Y0115*
X02903Y01148*
X02909*
X02913Y01154D02*
X02921D01*
Y01152*
X02913Y01144*
Y01142*
X03618Y01956D02*
X03616Y01958D01*
X03612*
X0361Y01956*
Y01948*
X03612Y01946*
X03616*
X03618Y01948*
X03622D02*
X03624Y01946D01*
X03628*
X0363Y01948*
Y01956*
X03628Y01958*
X03624*
X03622Y01956*
Y01954*
X03624Y01952*
X0363*
X03642Y01958D02*
X03638Y01956D01*
X03634Y01952*
Y01948*
X03636Y01946*
X0364*
X03642Y01948*
Y0195*
X0364Y01952*
X03634*
X03303Y02023D02*
X03301Y02025D01*
X03297*
X03295Y02023*
Y02015*
X03297Y02013*
X03301*
X03303Y02015*
X03307D02*
X03309Y02013D01*
X03313*
X03315Y02015*
Y02023*
X03313Y02025*
X03309*
X03307Y02023*
Y02021*
X03309Y02019*
X03315*
X03327Y02025D02*
X03319D01*
Y02019*
X03323Y02021*
X03325*
X03327Y02019*
Y02015*
X03325Y02013*
X03321*
X03319Y02015*
X02988Y02063D02*
X02986Y02065D01*
X02982*
X0298Y02063*
Y02055*
X02982Y02053*
X02986*
X02988Y02055*
X02992D02*
X02994Y02053D01*
X02998*
X03Y02055*
Y02063*
X02998Y02065*
X02994*
X02992Y02063*
Y02061*
X02994Y02059*
X03*
X0301Y02053D02*
Y02065D01*
X03004Y02059*
X03012*
X02907Y02261D02*
X02905Y02263D01*
X02901*
X02899Y02261*
Y02253*
X02901Y02251*
X02905*
X02907Y02253*
X02911D02*
X02913Y02251D01*
X02917*
X02919Y02253*
Y02261*
X02917Y02263*
X02913*
X02911Y02261*
Y02259*
X02913Y02257*
X02919*
X02923Y02261D02*
X02925Y02263D01*
X02929*
X02931Y02261*
Y02259*
X02929Y02257*
X02927*
X02929*
X02931Y02255*
Y02253*
X02929Y02251*
X02925*
X02923Y02253*
X02677Y02261D02*
X02675Y02263D01*
X02671*
X02669Y02261*
Y02253*
X02671Y02251*
X02675*
X02677Y02253*
X02681D02*
X02683Y02251D01*
X02687*
X02689Y02253*
Y02261*
X02687Y02263*
X02683*
X02681Y02261*
Y02259*
X02683Y02257*
X02689*
X02701Y02251D02*
X02693D01*
X02701Y02259*
Y02261*
X02699Y02263*
X02695*
X02693Y02261*
X02465Y02253D02*
X02463Y02255D01*
X02459*
X02457Y02253*
Y02245*
X02459Y02243*
X02463*
X02465Y02245*
X02469D02*
X02471Y02243D01*
X02475*
X02477Y02245*
Y02253*
X02475Y02255*
X02471*
X02469Y02253*
Y02251*
X02471Y02249*
X02477*
X02481Y02243D02*
X02485D01*
X02483*
Y02255*
X02481Y02253*
X01827Y01231D02*
X01825Y01233D01*
X01821*
X01819Y01231*
Y01223*
X01821Y01221*
X01825*
X01827Y01223*
X01831D02*
X01833Y01221D01*
X01837*
X01839Y01223*
Y01231*
X01837Y01233*
X01833*
X01831Y01231*
Y01229*
X01833Y01227*
X01839*
X01843Y01231D02*
X01845Y01233D01*
X01849*
X01851Y01231*
Y01223*
X01849Y01221*
X01845*
X01843Y01223*
Y01231*
X01716Y02097D02*
X01714Y02099D01*
X0171*
X01708Y02097*
Y02089*
X0171Y02087*
X01714*
X01716Y02089*
X0172Y02097D02*
X01722Y02099D01*
X01726*
X01728Y02097*
Y02095*
X01726Y02093*
X01728Y02091*
Y02089*
X01726Y02087*
X01722*
X0172Y02089*
Y02091*
X01722Y02093*
X0172Y02095*
Y02097*
X01722Y02093D02*
X01726D01*
X01732Y02089D02*
X01734Y02087D01*
X01738*
X0174Y02089*
Y02097*
X01738Y02099*
X01734*
X01732Y02097*
Y02095*
X01734Y02093*
X0174*
X03101Y02136D02*
X03099Y02138D01*
X03095*
X03093Y02136*
Y02128*
X03095Y02126*
X03099*
X03101Y02128*
X03105Y02136D02*
X03107Y02138D01*
X03111*
X03113Y02136*
Y02134*
X03111Y02132*
X03113Y0213*
Y02128*
X03111Y02126*
X03107*
X03105Y02128*
Y0213*
X03107Y02132*
X03105Y02134*
Y02136*
X03107Y02132D02*
X03111D01*
X03125Y02126D02*
X03117D01*
X03125Y02134*
Y02136*
X03123Y02138*
X03119*
X03117Y02136*
X03724Y01939D02*
X03722Y01941D01*
X03718*
X03716Y01939*
Y01931*
X03718Y01929*
X03722*
X03724Y01931*
X03728Y01939D02*
X0373Y01941D01*
X03734*
X03736Y01939*
Y01937*
X03734Y01935*
X03736Y01933*
Y01931*
X03734Y01929*
X0373*
X03728Y01931*
Y01933*
X0373Y01935*
X03728Y01937*
Y01939*
X0373Y01935D02*
X03734D01*
X0374Y01929D02*
X03744D01*
X03742*
Y01941*
X0374Y01939*
X03815Y01511D02*
X03813Y01513D01*
X03809*
X03807Y01511*
Y01503*
X03809Y01501*
X03813*
X03815Y01503*
X03819Y01513D02*
X03827D01*
Y01511*
X03819Y01503*
Y01501*
X03839Y01513D02*
X03835Y01511D01*
X03831Y01507*
Y01503*
X03833Y01501*
X03837*
X03839Y01503*
Y01505*
X03837Y01507*
X03831*
X03736Y01196D02*
X03734Y01198D01*
X0373*
X03728Y01196*
Y01188*
X0373Y01186*
X03734*
X03736Y01188*
X0374Y01198D02*
X03748D01*
Y01196*
X0374Y01188*
Y01186*
X0376Y01198D02*
X03752D01*
Y01192*
X03756Y01194*
X03758*
X0376Y01192*
Y01188*
X03758Y01186*
X03754*
X03752Y01188*
X035Y01236D02*
X03498Y01238D01*
X03494*
X03492Y01236*
Y01228*
X03494Y01226*
X03498*
X035Y01228*
X03504Y01238D02*
X03512D01*
Y01236*
X03504Y01228*
Y01226*
X03522D02*
Y01238D01*
X03516Y01232*
X03524*
X03299Y01205D02*
X03297Y01207D01*
X03293*
X03291Y01205*
Y01197*
X03293Y01195*
X03297*
X03299Y01197*
X03303Y01207D02*
X03311D01*
Y01205*
X03303Y01197*
Y01195*
X03315Y01205D02*
X03317Y01207D01*
X03321*
X03323Y01205*
Y01203*
X03321Y01201*
X03319*
X03321*
X03323Y01199*
Y01197*
X03321Y01195*
X03317*
X03315Y01197*
X03376Y02136D02*
X03374Y02138D01*
X0337*
X03368Y02136*
Y02128*
X0337Y02126*
X03374*
X03376Y02128*
X0338Y02138D02*
X03388D01*
Y02136*
X0338Y02128*
Y02126*
X034D02*
X03392D01*
X034Y02134*
Y02136*
X03398Y02138*
X03394*
X03392Y02136*
X04507Y01234D02*
X04505Y01236D01*
X04501*
X04499Y01234*
Y01226*
X04501Y01224*
X04505*
X04507Y01226*
X04511Y01236D02*
X04519D01*
Y01234*
X04511Y01226*
Y01224*
X04523D02*
X04527D01*
X04525*
Y01236*
X04523Y01234*
X02358Y02113D02*
X02356Y02115D01*
X02352*
X0235Y02113*
Y02105*
X02352Y02103*
X02356*
X02358Y02105*
X0237Y02115D02*
X02366Y02113D01*
X02362Y02109*
Y02105*
X02364Y02103*
X02368*
X0237Y02105*
Y02107*
X02368Y02109*
X02362*
X02382Y02103D02*
X02374D01*
X02382Y02111*
Y02113*
X0238Y02115*
X02376*
X02374Y02113*
X02122Y02153D02*
X0212Y02155D01*
X02116*
X02114Y02153*
Y02145*
X02116Y02143*
X0212*
X02122Y02145*
X02134Y02155D02*
X0213Y02153D01*
X02126Y02149*
Y02145*
X02128Y02143*
X02132*
X02134Y02145*
Y02147*
X02132Y02149*
X02126*
X02138Y02153D02*
X0214Y02155D01*
X02144*
X02146Y02153*
Y02145*
X02144Y02143*
X0214*
X02138Y02145*
Y02153*
X01965Y02141D02*
X01963Y02143D01*
X01959*
X01957Y02141*
Y02133*
X01959Y02131*
X01963*
X01965Y02133*
X01977Y02143D02*
X01969D01*
Y02137*
X01973Y02139*
X01975*
X01977Y02137*
Y02133*
X01975Y02131*
X01971*
X01969Y02133*
X01981Y02141D02*
X01983Y02143D01*
X01987*
X01989Y02141*
Y02139*
X01987Y02137*
X01989Y02135*
Y02133*
X01987Y02131*
X01983*
X01981Y02133*
Y02135*
X01983Y02137*
X01981Y02139*
Y02141*
X01983Y02137D02*
X01987D01*
X01684Y01275D02*
X01682Y01277D01*
X01678*
X01676Y01275*
Y01267*
X01678Y01265*
X01682*
X01684Y01267*
X01696Y01277D02*
X01688D01*
Y01271*
X01692Y01273*
X01694*
X01696Y01271*
Y01267*
X01694Y01265*
X0169*
X01688Y01267*
X017Y01277D02*
X01708D01*
Y01275*
X017Y01267*
Y01265*
X02775Y02322D02*
X02773Y02324D01*
X02769*
X02767Y02322*
Y02314*
X02769Y02312*
X02773*
X02775Y02314*
X02787Y02324D02*
X02779D01*
Y02318*
X02783Y0232*
X02785*
X02787Y02318*
Y02314*
X02785Y02312*
X02781*
X02779Y02314*
X02799Y02324D02*
X02795Y02322D01*
X02791Y02318*
Y02314*
X02793Y02312*
X02797*
X02799Y02314*
Y02316*
X02797Y02318*
X02791*
X04586Y0248D02*
X04584Y02482D01*
X0458*
X04578Y0248*
Y02472*
X0458Y0247*
X04584*
X04586Y02472*
X04598Y02482D02*
X0459D01*
Y02476*
X04594Y02478*
X04596*
X04598Y02476*
Y02472*
X04596Y0247*
X04592*
X0459Y02472*
X0461Y02482D02*
X04602D01*
Y02476*
X04606Y02478*
X04608*
X0461Y02476*
Y02472*
X04608Y0247*
X04604*
X04602Y02472*
X02483Y02434D02*
X02481Y02436D01*
X02477*
X02475Y02434*
Y02426*
X02477Y02424*
X02481*
X02483Y02426*
X02495Y02436D02*
X02487D01*
Y0243*
X02491Y02432*
X02493*
X02495Y0243*
Y02426*
X02493Y02424*
X02489*
X02487Y02426*
X02499Y02434D02*
X02501Y02436D01*
X02505*
X02507Y02434*
Y02432*
X02505Y0243*
X02503*
X02505*
X02507Y02428*
Y02426*
X02505Y02424*
X02501*
X02499Y02426*
X02201Y01483D02*
X02199Y01485D01*
X02195*
X02193Y01483*
Y01475*
X02195Y01473*
X02199*
X02201Y01475*
X02213Y01485D02*
X02205D01*
Y01479*
X02209Y01481*
X02211*
X02213Y01479*
Y01475*
X02211Y01473*
X02207*
X02205Y01475*
X02225Y01473D02*
X02217D01*
X02225Y01481*
Y01483*
X02223Y01485*
X02219*
X02217Y01483*
X02791Y01208D02*
X02789Y0121D01*
X02785*
X02783Y01208*
Y012*
X02785Y01198*
X02789*
X02791Y012*
X02803Y0121D02*
X02795D01*
Y01204*
X02799Y01206*
X02801*
X02803Y01204*
Y012*
X02801Y01198*
X02797*
X02795Y012*
X02807Y01198D02*
X02811D01*
X02809*
Y0121*
X02807Y01208*
X02201Y01011D02*
X02199Y01013D01*
X02195*
X02193Y01011*
Y01003*
X02195Y01001*
X02199*
X02201Y01003*
X02213Y01013D02*
X02205D01*
Y01007*
X02209Y01009*
X02211*
X02213Y01007*
Y01003*
X02211Y01001*
X02207*
X02205Y01003*
X02217Y01011D02*
X02219Y01013D01*
X02223*
X02225Y01011*
Y01003*
X02223Y01001*
X02219*
X02217Y01003*
Y01011*
X02831Y00775D02*
X02829Y00777D01*
X02825*
X02823Y00775*
Y00767*
X02825Y00765*
X02829*
X02831Y00767*
X02841Y00765D02*
Y00777D01*
X02835Y00771*
X02843*
X02847Y00767D02*
X02849Y00765D01*
X02853*
X02855Y00767*
Y00775*
X02853Y00777*
X02849*
X02847Y00775*
Y00773*
X02849Y00771*
X02855*
X02043Y01247D02*
X02041Y01249D01*
X02037*
X02035Y01247*
Y01239*
X02037Y01237*
X02041*
X02043Y01239*
X02053Y01237D02*
Y01249D01*
X02047Y01243*
X02055*
X02059Y01247D02*
X02061Y01249D01*
X02065*
X02067Y01247*
Y01245*
X02065Y01243*
X02067Y01241*
Y01239*
X02065Y01237*
X02061*
X02059Y01239*
Y01241*
X02061Y01243*
X02059Y01245*
Y01247*
X02061Y01243D02*
X02065D01*
X02595Y02141D02*
X02593Y02143D01*
X02589*
X02587Y02141*
Y02133*
X02589Y02131*
X02593*
X02595Y02133*
X02605Y02131D02*
Y02143D01*
X02599Y02137*
X02607*
X02611Y02143D02*
X02619D01*
Y02141*
X02611Y02133*
Y02131*
X0463Y02271D02*
X04628Y02273D01*
X04624*
X04622Y02271*
Y02263*
X04624Y02261*
X04628*
X0463Y02263*
X0464Y02261D02*
Y02273D01*
X04634Y02267*
X04642*
X04654Y02273D02*
X0465Y02271D01*
X04646Y02267*
Y02263*
X04648Y02261*
X04652*
X04654Y02263*
Y02265*
X04652Y02267*
X04646*
X04455Y02384D02*
X04453Y02386D01*
X04449*
X04447Y02384*
Y02376*
X04449Y02374*
X04453*
X04455Y02376*
X04465Y02374D02*
Y02386D01*
X04459Y0238*
X04467*
X04479Y02386D02*
X04471D01*
Y0238*
X04475Y02382*
X04477*
X04479Y0238*
Y02376*
X04477Y02374*
X04473*
X04471Y02376*
X04225Y02384D02*
X04223Y02386D01*
X04219*
X04217Y02384*
Y02376*
X04219Y02374*
X04223*
X04225Y02376*
X04235Y02374D02*
Y02386D01*
X04229Y0238*
X04237*
X04247Y02374D02*
Y02386D01*
X04241Y0238*
X04249*
X02197Y01641D02*
X02195Y01643D01*
X02191*
X02189Y01641*
Y01633*
X02191Y01631*
X02195*
X02197Y01633*
X02207Y01631D02*
Y01643D01*
X02201Y01637*
X02209*
X02213Y01641D02*
X02215Y01643D01*
X02219*
X02221Y01641*
Y01639*
X02219Y01637*
X02217*
X02219*
X02221Y01635*
Y01633*
X02219Y01631*
X02215*
X02213Y01633*
X03889Y02229D02*
X03887Y02231D01*
X03883*
X03881Y02229*
Y02221*
X03883Y02219*
X03887*
X03889Y02221*
X03899Y02219D02*
Y02231D01*
X03893Y02225*
X03901*
X03913Y02219D02*
X03905D01*
X03913Y02227*
Y02229*
X03911Y02231*
X03907*
X03905Y02229*
X03011Y02486D02*
X03009Y02488D01*
X03005*
X03003Y02486*
Y02478*
X03005Y02476*
X03009*
X03011Y02478*
X03021Y02476D02*
Y02488D01*
X03015Y02482*
X03023*
X03027Y02476D02*
X03031D01*
X03029*
Y02488*
X03027Y02486*
X04327Y02259D02*
X04325Y02261D01*
X04321*
X04319Y02259*
Y02251*
X04321Y02249*
X04325*
X04327Y02251*
X04337Y02249D02*
Y02261D01*
X04331Y02255*
X04339*
X04343Y02259D02*
X04345Y02261D01*
X04349*
X04351Y02259*
Y02251*
X04349Y02249*
X04345*
X04343Y02251*
Y02259*
X05002Y02316D02*
X05Y02318D01*
X04996*
X04994Y02316*
Y02308*
X04996Y02306*
X05*
X05002Y02308*
X05006Y02316D02*
X05008Y02318D01*
X05012*
X05014Y02316*
Y02314*
X05012Y02312*
X0501*
X05012*
X05014Y0231*
Y02308*
X05012Y02306*
X05008*
X05006Y02308*
X05018D02*
X0502Y02306D01*
X05024*
X05026Y02308*
Y02316*
X05024Y02318*
X0502*
X05018Y02316*
Y02314*
X0502Y02312*
X05026*
X05165Y02512D02*
X05163Y02514D01*
X05159*
X05157Y02512*
Y02504*
X05159Y02502*
X05163*
X05165Y02504*
X05169Y02512D02*
X05171Y02514D01*
X05175*
X05177Y02512*
Y0251*
X05175Y02508*
X05173*
X05175*
X05177Y02506*
Y02504*
X05175Y02502*
X05171*
X05169Y02504*
X05181Y02512D02*
X05183Y02514D01*
X05187*
X05189Y02512*
Y0251*
X05187Y02508*
X05189Y02506*
Y02504*
X05187Y02502*
X05183*
X05181Y02504*
Y02506*
X05183Y02508*
X05181Y0251*
Y02512*
X05183Y02508D02*
X05187D01*
X04894Y02391D02*
X04892Y02393D01*
X04888*
X04886Y02391*
Y02383*
X04888Y02381*
X04892*
X04894Y02383*
X04898Y02391D02*
X049Y02393D01*
X04904*
X04906Y02391*
Y02389*
X04904Y02387*
X04902*
X04904*
X04906Y02385*
Y02383*
X04904Y02381*
X049*
X04898Y02383*
X0491Y02393D02*
X04918D01*
Y02391*
X0491Y02383*
Y02381*
X03929Y02743D02*
X03927Y02745D01*
X03923*
X03921Y02743*
Y02735*
X03923Y02733*
X03927*
X03929Y02735*
X03933Y02743D02*
X03935Y02745D01*
X03939*
X03941Y02743*
Y02741*
X03939Y02739*
X03937*
X03939*
X03941Y02737*
Y02735*
X03939Y02733*
X03935*
X03933Y02735*
X03953Y02745D02*
X03949Y02743D01*
X03945Y02739*
Y02735*
X03947Y02733*
X03951*
X03953Y02735*
Y02737*
X03951Y02739*
X03945*
X04755Y0226D02*
X04753Y02262D01*
X04749*
X04747Y0226*
Y02252*
X04749Y0225*
X04753*
X04755Y02252*
X04759Y0226D02*
X04761Y02262D01*
X04765*
X04767Y0226*
Y02258*
X04765Y02256*
X04763*
X04765*
X04767Y02254*
Y02252*
X04765Y0225*
X04761*
X04759Y02252*
X04779Y02262D02*
X04771D01*
Y02256*
X04775Y02258*
X04777*
X04779Y02256*
Y02252*
X04777Y0225*
X04773*
X04771Y02252*
X04726Y02766D02*
X04724Y02768D01*
X0472*
X04718Y02766*
Y02758*
X0472Y02756*
X04724*
X04726Y02758*
X0473Y02766D02*
X04732Y02768D01*
X04736*
X04738Y02766*
Y02764*
X04736Y02762*
X04734*
X04736*
X04738Y0276*
Y02758*
X04736Y02756*
X04732*
X0473Y02758*
X04748Y02756D02*
Y02768D01*
X04742Y02762*
X0475*
X05237Y02733D02*
X05235Y02735D01*
X05231*
X05229Y02733*
Y02725*
X05231Y02723*
X05235*
X05237Y02725*
X05241Y02733D02*
X05243Y02735D01*
X05247*
X05249Y02733*
Y02731*
X05247Y02729*
X05245*
X05247*
X05249Y02727*
Y02725*
X05247Y02723*
X05243*
X05241Y02725*
X05253Y02733D02*
X05255Y02735D01*
X05259*
X05261Y02733*
Y02731*
X05259Y02729*
X05257*
X05259*
X05261Y02727*
Y02725*
X05259Y02723*
X05255*
X05253Y02725*
X04894Y02548D02*
X04892Y0255D01*
X04888*
X04886Y02548*
Y0254*
X04888Y02538*
X04892*
X04894Y0254*
X04898Y02548D02*
X049Y0255D01*
X04904*
X04906Y02548*
Y02546*
X04904Y02544*
X04902*
X04904*
X04906Y02542*
Y0254*
X04904Y02538*
X049*
X04898Y0254*
X04918Y02538D02*
X0491D01*
X04918Y02546*
Y02548*
X04916Y0255*
X04912*
X0491Y02548*
X0161Y01129D02*
X01608Y01131D01*
X01604*
X01602Y01129*
Y01121*
X01604Y01119*
X01608*
X0161Y01121*
X01614Y01129D02*
X01616Y01131D01*
X0162*
X01622Y01129*
Y01127*
X0162Y01125*
X01618*
X0162*
X01622Y01123*
Y01121*
X0162Y01119*
X01616*
X01614Y01121*
X01626Y01129D02*
X01628Y01131D01*
X01632*
X01634Y01129*
Y01121*
X01632Y01119*
X01628*
X01626Y01121*
Y01129*
X0413Y02074D02*
X04128Y02076D01*
X04124*
X04122Y02074*
Y02066*
X04124Y02064*
X04128*
X0413Y02066*
X04142Y02064D02*
X04134D01*
X04142Y02072*
Y02074*
X0414Y02076*
X04136*
X04134Y02074*
X04146Y02066D02*
X04148Y02064D01*
X04152*
X04154Y02066*
Y02074*
X04152Y02076*
X04148*
X04146Y02074*
Y02072*
X04148Y0207*
X04154*
X04051Y01877D02*
X04049Y01879D01*
X04045*
X04043Y01877*
Y01869*
X04045Y01867*
X04049*
X04051Y01869*
X04063Y01867D02*
X04055D01*
X04063Y01875*
Y01877*
X04061Y01879*
X04057*
X04055Y01877*
X04067D02*
X04069Y01879D01*
X04073*
X04075Y01877*
Y01875*
X04073Y01873*
X04075Y01871*
Y01869*
X04073Y01867*
X04069*
X04067Y01869*
Y01871*
X04069Y01873*
X04067Y01875*
Y01877*
X04069Y01873D02*
X04073D01*
X03854Y01326D02*
X03852Y01328D01*
X03848*
X03846Y01326*
Y01318*
X03848Y01316*
X03852*
X03854Y01318*
X03866Y01316D02*
X03858D01*
X03866Y01324*
Y01326*
X03864Y01328*
X0386*
X03858Y01326*
X0387Y01328D02*
X03878D01*
Y01326*
X0387Y01318*
Y01316*
X03653Y01402D02*
X03651Y01404D01*
X03647*
X03645Y01402*
Y01394*
X03647Y01392*
X03651*
X03653Y01394*
X03665Y01392D02*
X03657D01*
X03665Y014*
Y01402*
X03663Y01404*
X03659*
X03657Y01402*
X03677Y01404D02*
X03673Y01402D01*
X03669Y01398*
Y01394*
X03671Y01392*
X03675*
X03677Y01394*
Y01396*
X03675Y01398*
X03669*
X03163Y02511D02*
X03161Y02513D01*
X03157*
X03155Y02511*
Y02503*
X03157Y02501*
X03161*
X03163Y02503*
X03175Y02501D02*
X03167D01*
X03175Y02509*
Y02511*
X03173Y02513*
X03169*
X03167Y02511*
X03187Y02513D02*
X03179D01*
Y02507*
X03183Y02509*
X03185*
X03187Y02507*
Y02503*
X03185Y02501*
X03181*
X03179Y02503*
X03881Y02057D02*
X03879Y02059D01*
X03875*
X03873Y02057*
Y02049*
X03875Y02047*
X03879*
X03881Y02049*
X03893Y02047D02*
X03885D01*
X03893Y02055*
Y02057*
X03891Y02059*
X03887*
X03885Y02057*
X03903Y02047D02*
Y02059D01*
X03897Y02053*
X03905*
X04149Y01959D02*
Y01947D01*
X04155*
X04157Y01949*
Y01951*
X04155Y01953*
X04149*
X04155*
X04157Y01955*
Y01957*
X04155Y01959*
X04149*
X04169Y01947D02*
X04161D01*
X04169Y01955*
Y01957*
X04167Y01959*
X04163*
X04161Y01957*
X02275Y012D02*
Y01188D01*
X02281*
X02283Y0119*
Y01192*
X02281Y01194*
X02275*
X02281*
X02283Y01196*
Y01198*
X02281Y012*
X02275*
X02287Y01188D02*
X02291D01*
X02289*
Y012*
X02287Y01198*
X00582Y0176D02*
X0059Y01752D01*
X00582D02*
X0059Y0176D01*
X00582Y01756D02*
X0059D01*
X00586Y01752D02*
Y0176D01*
M02*