%FSTAX23Y23*%
%MOIN*%
%SFA1B1*%

%IPPOS*%
%AMD59*
4,1,8,-0.009800,0.008400,-0.009800,-0.008400,-0.007400,-0.010800,0.007400,-0.010800,0.009800,-0.008400,0.009800,0.008400,0.007400,0.010800,-0.007400,0.010800,-0.009800,0.008400,0.0*
1,1,0.004921,-0.007400,0.008400*
1,1,0.004921,-0.007400,-0.008400*
1,1,0.004921,0.007400,-0.008400*
1,1,0.004921,0.007400,0.008400*
%
%AMD60*
4,1,8,-0.008400,-0.009800,0.008400,-0.009800,0.010800,-0.007400,0.010800,0.007400,0.008400,0.009800,-0.008400,0.009800,-0.010800,0.007400,-0.010800,-0.007400,-0.008400,-0.009800,0.0*
1,1,0.004921,-0.008400,-0.007400*
1,1,0.004921,0.008400,-0.007400*
1,1,0.004921,0.008400,0.007400*
1,1,0.004921,-0.008400,0.007400*
%
%ADD28R,0.018216X0.021815*%
%ADD29R,0.021815X0.018216*%
%ADD32R,0.049417X0.043551*%
%ADD33R,0.018216X0.021815*%
%ADD34R,0.023866X0.024728*%
%ADD35R,0.012598X0.014173*%
%ADD36R,0.021815X0.018216*%
%ADD37R,0.026067X0.025968*%
%ADD41R,0.010342X0.013941*%
%ADD45R,0.014173X0.012598*%
%ADD57R,0.015882X0.018768*%
G04~CAMADD=59~8~0.0~0.0~216.5~196.9~24.6~0.0~15~0.0~0.0~0.0~0.0~0~0.0~0.0~0.0~0.0~0~0.0~0.0~0.0~90.0~196.0~216.0*
%ADD59D59*%
G04~CAMADD=60~8~0.0~0.0~216.5~196.9~24.6~0.0~15~0.0~0.0~0.0~0.0~0~0.0~0.0~0.0~0.0~0~0.0~0.0~0.0~180.0~216.0~196.0*
%ADD60D60*%
%ADD61R,0.024728X0.023866*%
%ADD62R,0.017716X0.021654*%
%ADD81R,0.013941X0.010342*%
%ADD83R,0.017716X0.013780*%
%ADD129R,0.021654X0.017716*%
%ADD130R,0.018768X0.015882*%
%ADD131R,0.025968X0.026067*%
%ADD132R,0.011811X0.009843*%
%ADD133R,0.019685X0.015748*%
%ADD134R,0.017878X0.014279*%
%ADD135R,0.014279X0.017878*%
%ADD136R,0.011811X0.009843*%
%ADD137R,0.013780X0.017716*%
%ADD138R,0.029527X0.055118*%
%LNmain_board-1*%
%LPD*%
G54D28*
X01911Y01575D03*
X01237Y01324D03*
X01911Y01547D03*
X01237Y01352D03*
G54D29*
X02771Y01887D03*
X03456Y01273D03*
X02497Y01942D03*
X01918Y01431D03*
X02261Y01273D03*
X03428D03*
X01541Y01431D03*
X02525Y01942D03*
X02799Y01887D03*
X01946Y01431D03*
X01029Y01588D03*
X01001D03*
X01513Y01431D03*
X02233Y01273D03*
G54D32*
X02668Y01785D03*
X02562Y01667D03*
X02733Y01785D03*
X02497Y01667D03*
G54D33*
X02694Y01245D03*
X01316Y01352D03*
X02261Y01875D03*
X01592Y01627D03*
X01355D03*
X04786Y01786D03*
X04506D03*
X04623Y01734D03*
X04221Y01786D03*
X03442Y01773D03*
X03324D03*
X03166D03*
X03521Y01537D03*
X03324Y01549D03*
X03166Y01602D03*
X0297Y01521D03*
X02694Y01273D03*
X02418Y01931D03*
X02261Y01903D03*
X02222Y01734D03*
X01592Y01655D03*
X01355D03*
X023Y01431D03*
X01316Y0138D03*
X03324Y01521D03*
X04623Y01706D03*
X04221Y01758D03*
X04786D03*
X04506D03*
X02222Y01706D03*
X0297Y01549D03*
X02418Y01903D03*
X03521Y01509D03*
X03166Y01574D03*
X03324Y01746D03*
X023Y01403D03*
X03442Y01746D03*
X03166D03*
G54D34*
X01476Y01546D03*
X03481Y01627D03*
X01476Y01576D03*
X03481Y01658D03*
G54D35*
X01614Y01299D03*
X01834D03*
X03245Y01577D03*
X01834Y01321D03*
X01614D03*
X01749Y00868D03*
Y0089D03*
X03245Y01599D03*
G54D36*
X01946Y01864D03*
X02497Y01549D03*
X02761Y01667D03*
X02643Y0147D03*
X02368Y01588D03*
X02446Y0147D03*
X02576Y01352D03*
X01789Y01746D03*
X03363Y01864D03*
X03217Y01824D03*
X03099Y01667D03*
X02733D03*
X03335Y01627D03*
X03414Y01549D03*
Y01431D03*
X03296D03*
X03324Y01273D03*
X03127Y01509D03*
X03166Y01431D03*
X02863D03*
X03166Y01352D03*
X0297Y01312D03*
X02773Y01273D03*
X02351Y01824D03*
X01918Y01864D03*
X01816Y01746D03*
X01288D03*
X02469Y01549D03*
X02615Y0147D03*
X02418D03*
X02548Y01352D03*
X0234Y01588D03*
X0167Y01431D03*
X00883Y01194D03*
X03194Y01431D03*
X03324D03*
X03155Y01509D03*
X03442Y01431D03*
X00911Y01194D03*
X01316Y01746D03*
X01698Y01431D03*
X02891D03*
X02801Y01273D03*
X02998Y01312D03*
X03296Y01273D03*
X03442Y01549D03*
X02379Y01824D03*
X03194Y01352D03*
X03245Y01824D03*
X03391Y01864D03*
X03363Y01627D03*
X03127Y01667D03*
G54D37*
X02044Y01312D03*
Y01348D03*
G54D41*
X02663Y01659D03*
X03245Y01519D03*
X02714Y01531D03*
X01946Y01302D03*
X02458Y01766D03*
X02655Y01952D03*
X0158Y01512D03*
X01946Y01322D03*
X02379Y01716D03*
X02541Y01464D03*
X01828Y01617D03*
X01119Y01421D03*
X02541Y01444D03*
X02458Y01746D03*
X02663Y01639D03*
X0158Y01492D03*
X02655Y01932D03*
X02379Y01696D03*
X04623Y01578D03*
Y01598D03*
X01119Y01441D03*
X01828Y01637D03*
X0197Y01622D03*
Y01642D03*
X03245Y01499D03*
X02714Y01511D03*
G54D45*
X03503Y01352D03*
X03481D03*
G54D57*
X036Y016D03*
Y01576D03*
G54D59*
X04072Y01431D03*
X01237Y01588D03*
X01355Y0147D03*
X04037Y01431D03*
X01202Y01588D03*
X0132Y0147D03*
G54D60*
X04111Y01553D03*
X02852Y01749D03*
X04111Y01588D03*
X02182Y01864D03*
X01459Y01753D03*
X01179D03*
X02182Y01899D03*
X02852Y01785D03*
X01179Y01718D03*
X01459D03*
G54D61*
X02607Y01549D03*
X03254Y01706D03*
X02497Y01824D03*
X02576Y01549D03*
X00962Y01431D03*
X02528Y01824D03*
X00992Y01431D03*
X03285Y01706D03*
G54D62*
X02816Y01541D03*
X02694Y01381D03*
X02816Y01511D03*
X02694Y01352D03*
G54D81*
X04426Y01431D03*
X02625Y01194D03*
X02605D03*
X02103Y01667D03*
X0361Y01785D03*
X0359D03*
X04446Y01431D03*
X02124Y01667D03*
G54D83*
X02261Y01549D03*
X02235D03*
G54D129*
X02064Y01864D03*
X02433Y01312D03*
X02623Y01887D03*
X02025Y01746D03*
X01828Y01431D03*
X02404Y01312D03*
X02064Y01431D03*
X02094Y01864D03*
X02653Y01887D03*
X02787Y01383D03*
X02816D03*
X02094Y01431D03*
X01946Y01785D03*
X01916D03*
X02054Y01746D03*
X01798Y01431D03*
G54D130*
X01762Y01864D03*
X04702Y01431D03*
X01737Y01864D03*
X04727Y01431D03*
G54D131*
X01699Y01556D03*
X01663D03*
G54D132*
X04505Y01519D03*
X04151Y01391D03*
X0167Y01746D03*
X01795Y01162D03*
X01316Y01164D03*
X0167Y01764D03*
X04505Y015D03*
X04151Y01373D03*
X01316Y01146D03*
X01795Y01143D03*
G54D133*
X04363Y01523D03*
X04332Y01496D03*
Y01523D03*
X04363Y01496D03*
G54D134*
X02891Y01627D03*
X02915D03*
G54D135*
X00844Y01455D03*
Y01431D03*
G54D136*
X02064Y01982D03*
X02086D03*
G54D137*
X0086Y01624D03*
Y0165D03*
G54D138*
X0207Y01571D03*
X02013D03*
M02*