%FSTAX23Y23*%
%MOIN*%
%SFA1B1*%

%IPPOS*%
%AMD47*
4,1,8,-0.016500,0.004000,-0.016500,-0.004000,-0.015200,-0.005300,0.015200,-0.005300,0.016500,-0.004000,0.016500,0.004000,0.015200,0.005300,-0.015200,0.005300,-0.016500,0.004000,0.0*
1,1,0.002661,-0.015200,0.004000*
1,1,0.002661,-0.015200,-0.004000*
1,1,0.002661,0.015200,-0.004000*
1,1,0.002661,0.015200,0.004000*
%
%AMD55*
4,1,8,-0.005300,0.015200,-0.005300,-0.015200,-0.004000,-0.016500,0.004000,-0.016500,0.005300,-0.015200,0.005300,0.015200,0.004000,0.016500,-0.004000,0.016500,-0.005300,0.015200,0.0*
1,1,0.002661,-0.004000,0.015200*
1,1,0.002661,-0.004000,-0.015200*
1,1,0.002661,0.004000,-0.015200*
1,1,0.002661,0.004000,0.015200*
%
%AMD59*
4,1,8,-0.009800,0.008400,-0.009800,-0.008400,-0.007400,-0.010800,0.007400,-0.010800,0.009800,-0.008400,0.009800,0.008400,0.007400,0.010800,-0.007400,0.010800,-0.009800,0.008400,0.0*
1,1,0.004921,-0.007400,0.008400*
1,1,0.004921,-0.007400,-0.008400*
1,1,0.004921,0.007400,-0.008400*
1,1,0.004921,0.007400,0.008400*
%
%AMD60*
4,1,8,-0.008400,-0.009800,0.008400,-0.009800,0.010800,-0.007400,0.010800,0.007400,0.008400,0.009800,-0.008400,0.009800,-0.010800,0.007400,-0.010800,-0.007400,-0.008400,-0.009800,0.0*
1,1,0.004921,-0.008400,-0.007400*
1,1,0.004921,0.008400,-0.007400*
1,1,0.004921,0.008400,0.007400*
1,1,0.004921,-0.008400,0.007400*
%
%AMD66*
4,1,8,0.013000,-0.011700,0.013000,0.011700,0.009800,0.015000,-0.009800,0.015000,-0.013000,0.011700,-0.013000,-0.011700,-0.009800,-0.015000,0.009800,-0.015000,0.013000,-0.011700,0.0*
1,1,0.006496,0.009800,-0.011700*
1,1,0.006496,0.009800,0.011700*
1,1,0.006496,-0.009800,0.011700*
1,1,0.006496,-0.009800,-0.011700*
%
%AMD72*
4,1,8,0.011600,0.005800,-0.011600,0.005800,-0.017300,0.000000,-0.017300,0.000000,-0.011600,-0.005800,0.011600,-0.005800,0.017300,0.000000,0.017300,0.000000,0.011600,0.005800,0.0*
1,1,0.011512,0.011600,0.000000*
1,1,0.011512,-0.011600,0.000000*
1,1,0.011512,-0.011600,0.000000*
1,1,0.011512,0.011600,0.000000*
%
%AMD73*
4,1,8,-0.011700,-0.013000,0.011700,-0.013000,0.015000,-0.009800,0.015000,0.009800,0.011700,0.013000,-0.011700,0.013000,-0.015000,0.009800,-0.015000,-0.009800,-0.011700,-0.013000,0.0*
1,1,0.006496,-0.011700,-0.009800*
1,1,0.006496,0.011700,-0.009800*
1,1,0.006496,0.011700,0.009800*
1,1,0.006496,-0.011700,0.009800*
%
%AMD75*
4,1,8,0.002000,0.011800,-0.002000,0.011800,-0.003900,0.009800,-0.003900,-0.009800,-0.002000,-0.011800,0.002000,-0.011800,0.003900,-0.009800,0.003900,0.009800,0.002000,0.011800,0.0*
1,1,0.003937,0.002000,0.009800*
1,1,0.003937,-0.002000,0.009800*
1,1,0.003937,-0.002000,-0.009800*
1,1,0.003937,0.002000,-0.009800*
%
%AMD80*
4,1,8,0.018700,0.007900,-0.018700,0.007900,-0.020700,0.005900,-0.020700,-0.005900,-0.018700,-0.007900,0.018700,-0.007900,0.020700,-0.005900,0.020700,0.005900,0.018700,0.007900,0.0*
1,1,0.003937,0.018700,0.005900*
1,1,0.003937,-0.018700,0.005900*
1,1,0.003937,-0.018700,-0.005900*
1,1,0.003937,0.018700,-0.005900*
%
%ADD19C,0.015748*%
%ADD20R,0.036732X0.068228*%
%ADD21R,0.057087X0.059055*%
%ADD22R,0.057087X0.059055*%
%ADD23R,0.059055X0.057087*%
%ADD24R,0.059055X0.057087*%
%ADD25C,0.009843*%
%ADD26R,0.011811X0.031496*%
%ADD27C,0.013386*%
%ADD28R,0.018216X0.021815*%
%ADD29R,0.021815X0.018216*%
%ADD30R,0.019685X0.044291*%
%ADD31R,0.043551X0.049417*%
%ADD32R,0.049417X0.043551*%
%ADD33R,0.018216X0.021815*%
%ADD34R,0.023866X0.024728*%
%ADD35R,0.012598X0.014173*%
%ADD36R,0.021815X0.018216*%
%ADD37R,0.026067X0.025968*%
%ADD38R,0.025591X0.027559*%
%ADD39R,0.061216X0.090795*%
%ADD40C,0.013780*%
%ADD41R,0.010342X0.013941*%
%ADD42R,0.070866X0.047244*%
%ADD43R,0.051181X0.023622*%
%ADD44R,0.031496X0.035433*%
%ADD45R,0.014173X0.012598*%
%ADD46R,0.035433X0.059055*%
G04~CAMADD=47~8~0.0~0.0~106.3~330.7~13.3~0.0~15~0.0~0.0~0.0~0.0~0~0.0~0.0~0.0~0.0~0~0.0~0.0~0.0~90.0~330.0~106.0*
%ADD47D47*%
%ADD48R,0.031496X0.027559*%
%ADD49R,0.059055X0.035433*%
%ADD50R,0.033465X0.023622*%
%ADD51R,0.047244X0.066929*%
%ADD52R,0.019685X0.043307*%
%ADD53R,0.062992X0.118110*%
%ADD54R,0.015748X0.031496*%
G04~CAMADD=55~8~0.0~0.0~330.7~106.3~13.3~0.0~15~0.0~0.0~0.0~0.0~0~0.0~0.0~0.0~0.0~0~0.0~0.0~0.0~90.0~106.0~330.0*
%ADD55D55*%
%ADD56R,0.027559X0.027559*%
%ADD57R,0.015882X0.018768*%
%ADD58R,0.044291X0.019685*%
G04~CAMADD=59~8~0.0~0.0~216.5~196.9~24.6~0.0~15~0.0~0.0~0.0~0.0~0~0.0~0.0~0.0~0.0~0~0.0~0.0~0.0~90.0~196.0~216.0*
%ADD59D59*%
G04~CAMADD=60~8~0.0~0.0~216.5~196.9~24.6~0.0~15~0.0~0.0~0.0~0.0~0~0.0~0.0~0.0~0.0~0~0.0~0.0~0.0~180.0~216.0~196.0*
%ADD60D60*%
%ADD61R,0.024728X0.023866*%
%ADD62R,0.017716X0.021654*%
%ADD63R,0.055118X0.062992*%
%ADD64R,0.039370X0.125984*%
%ADD65R,0.039370X0.039370*%
G04~CAMADD=66~8~0.0~0.0~299.2~260.0~32.5~0.0~15~0.0~0.0~0.0~0.0~0~0.0~0.0~0.0~0.0~0~0.0~0.0~0.0~270.0~261.0~300.0*
%ADD66D66*%
%ADD67R,0.027559X0.011811*%
%ADD68R,0.059055X0.059055*%
%ADD69R,0.043307X0.023622*%
%ADD70R,0.037401X0.017716*%
%ADD71R,0.135827X0.171259*%
G04~CAMADD=72~8~0.0~0.0~346.9~115.2~57.6~0.0~15~0.0~0.0~0.0~0.0~0~0.0~0.0~0.0~0.0~0~0.0~0.0~0.0~0.0~346.9~115.2*
%ADD72D72*%
G04~CAMADD=73~8~0.0~0.0~299.2~260.0~32.5~0.0~15~0.0~0.0~0.0~0.0~0~0.0~0.0~0.0~0.0~0~0.0~0.0~0.0~180.0~300.0~260.0*
%ADD73D73*%
%ADD74R,0.021260X0.022835*%
G04~CAMADD=75~8~0.0~0.0~78.7~236.2~19.7~0.0~15~0.0~0.0~0.0~0.0~0~0.0~0.0~0.0~0.0~0~0.0~0.0~0.0~0.0~78.7~236.2*
%ADD75D75*%
%ADD76R,0.011811X0.027559*%
%ADD77R,0.034685X0.011516*%
%ADD78R,0.066929X0.098425*%
%ADD79R,0.098425X0.066929*%
G04~CAMADD=80~8~0.0~0.0~413.4~157.5~19.7~0.0~15~0.0~0.0~0.0~0.0~0~0.0~0.0~0.0~0.0~0~0.0~0.0~0.0~0.0~413.4~157.5*
%ADD80D80*%
%ADD81R,0.013941X0.010342*%
%ADD82R,0.090795X0.061216*%
%ADD83R,0.017716X0.013780*%
%ADD84R,0.043307X0.011811*%
%ADD85R,0.039370X0.216535*%
%ADD86R,0.043547X0.037724*%
%LNmain_board-1*%
%LPD*%
G36*
X0121Y01555D02*
X01186D01*
Y01543*
X0121*
Y01555*
G37*
G36*
X01228Y01537D02*
X01216D01*
Y01513*
X01228*
Y01537*
G37*
G36*
X0121Y01574D02*
X01186D01*
Y01562*
X0121*
Y01574*
G37*
G36*
Y01594D02*
X01186D01*
Y01582*
X0121*
Y01594*
G37*
G36*
Y01614D02*
X01186D01*
Y01602*
X0121*
Y01614*
G37*
G36*
X01247Y01537D02*
X01235D01*
Y01513*
X01247*
Y01537*
G37*
G36*
X01267D02*
X01255D01*
Y01513*
X01267*
Y01537*
G37*
G36*
X01287D02*
X01275D01*
Y01513*
X01287*
Y01537*
G37*
G36*
X01306D02*
X01294D01*
Y01513*
X01306*
Y01537*
G37*
G36*
X01326D02*
X01314D01*
Y01513*
X01326*
Y01537*
G37*
G36*
X0121Y01633D02*
X01186D01*
Y01622*
X0121*
Y01633*
G37*
G36*
Y01653D02*
X01186D01*
Y01641*
X0121*
Y01653*
G37*
G36*
Y01673D02*
X01186D01*
Y01661*
X0121*
Y01673*
G37*
G36*
Y01692D02*
X01186D01*
Y01681*
X0121*
Y01692*
G37*
G36*
X01228Y01722D02*
X01216D01*
Y01698*
X01228*
Y01722*
G37*
G36*
X01247D02*
X01235D01*
Y01698*
X01247*
Y01722*
G37*
G36*
X01267D02*
X01255D01*
Y01698*
X01267*
Y01722*
G37*
G36*
X01287D02*
X01275D01*
Y01698*
X01287*
Y01722*
G37*
G36*
X01306D02*
X01294D01*
Y01698*
X01306*
Y01722*
G37*
G36*
X01326D02*
X01314D01*
Y01698*
X01326*
Y01722*
G37*
G36*
X01365Y01698D02*
X01353D01*
Y01722*
X01365*
Y01698*
G37*
G36*
X01346D02*
X01334D01*
Y01722*
X01346*
Y01698*
G37*
G36*
X01395Y01681D02*
X01371D01*
Y01692*
X01395*
Y01681*
G37*
G36*
Y01661D02*
X01371D01*
Y01673*
X01395*
Y01661*
G37*
G36*
Y01641D02*
X01371D01*
Y01653*
X01395*
Y01641*
G37*
G36*
Y01622D02*
X01371D01*
Y01633*
X01395*
Y01622*
G37*
G36*
Y01602D02*
X01371D01*
Y01614*
X01395*
Y01602*
G37*
G36*
Y01582D02*
X01371D01*
Y01594*
X01395*
Y01582*
G37*
G36*
Y01562D02*
X01371D01*
Y01574*
X01395*
Y01562*
G37*
G36*
Y01543D02*
X01371D01*
Y01555*
X01395*
Y01543*
G37*
G36*
X01365Y01513D02*
X01353D01*
Y01537*
X01365*
Y01513*
G37*
G36*
X01346D02*
X01334D01*
Y01537*
X01346*
Y01513*
G37*
G36*
X04419Y00994D02*
X04421D01*
X04424Y00992*
X04426Y0099*
X04427Y00987*
Y00986*
Y00984*
X04426Y00981*
X04424Y00979*
X04421Y00978*
X04408*
X04405Y00979*
X04403Y00981*
X04402Y00984*
Y00986*
Y00987*
X04403Y0099*
X04405Y00992*
X04408Y00994*
X0441*
X04419*
G37*
G36*
X04353D02*
X04354D01*
X04357Y00992*
X04359Y0099*
X0436Y00987*
Y00986*
Y00984*
X04359Y00981*
X04357Y00979*
X04354Y00978*
X04341*
X04338Y00979*
X04336Y00981*
X04335Y00984*
Y00986*
Y00987*
X04336Y0099*
X04338Y00992*
X04341Y00994*
X04343*
X04353*
G37*
G36*
X04156D02*
X04157D01*
X0416Y00992*
X04162Y0099*
X04164Y00987*
Y00986*
Y00984*
X04162Y00981*
X0416Y00979*
X04157Y00978*
X04144*
X04141Y00979*
X04139Y00981*
X04138Y00984*
Y00986*
Y00987*
X04139Y0099*
X04141Y00992*
X04144Y00994*
X04146*
X04156*
G37*
G36*
X04089D02*
X0409D01*
X04093Y00992*
X04095Y0099*
X04097Y00987*
Y00986*
Y00984*
X04095Y00981*
X04093Y00979*
X0409Y00978*
X04077*
X04074Y00979*
X04072Y00981*
X04071Y00984*
Y00986*
Y00987*
X04072Y0099*
X04074Y00992*
X04077Y00994*
X04079*
X04089*
G37*
G36*
X04424Y00965D02*
X04426Y00963D01*
X04427Y0096*
Y00958*
Y00957*
X04426Y00954*
X04424Y00951*
X04421Y0095*
X04408*
X04405Y00951*
X04403Y00954*
X04402Y00957*
Y00958*
Y0096*
X04403Y00963*
X04405Y00965*
X04408Y00966*
X04421*
X04424Y00965*
G37*
G36*
X04357D02*
X04359Y00963D01*
X0436Y0096*
Y00958*
Y00957*
X04359Y00954*
X04357Y00951*
X04354Y0095*
X04341*
X04338Y00951*
X04336Y00954*
X04335Y00957*
Y00958*
Y0096*
X04336Y00963*
X04338Y00965*
X04341Y00966*
X04354*
X04357Y00965*
G37*
G36*
X0416D02*
X04162Y00963D01*
X04164Y0096*
Y00958*
Y00957*
X04162Y00954*
X0416Y00951*
X04157Y0095*
X04144*
X04141Y00951*
X04139Y00954*
X04138Y00957*
Y00958*
Y0096*
X04139Y00963*
X04141Y00965*
X04144Y00966*
X04157*
X0416Y00965*
G37*
G36*
X04093D02*
X04095Y00963D01*
X04097Y0096*
Y00958*
Y00957*
X04095Y00954*
X04093Y00951*
X0409Y0095*
X04077*
X04074Y00951*
X04072Y00954*
X04071Y00957*
Y00958*
Y0096*
X04072Y00963*
X04074Y00965*
X04077Y00966*
X0409*
X04093Y00965*
G37*
G54D19*
X04357Y01065D02*
D01*
X04356Y01063*
X04355Y01061*
X04354Y01059*
X04353Y01057*
X04352Y01055*
X04351Y01054*
Y01034D02*
D01*
X04352Y01032*
X04353Y0103*
X04354Y01028*
X04355Y01026*
X04357Y01024*
X04357Y01023*
X04374Y01013D02*
D01*
X04377Y01013*
X04379Y01013*
X04381Y01012*
X04383Y01013*
X04385Y01013*
X04388Y01013*
X04388Y01013*
X04405Y01023D02*
D01*
X04406Y01025*
X04407Y01027*
X04409Y01029*
X0441Y0103*
X0441Y01033*
X04411Y01034*
Y01054D02*
D01*
X0441Y01056*
X04409Y01058*
X04408Y0106*
X04407Y01062*
X04406Y01064*
X04405Y01065*
X04388Y01075D02*
D01*
X04385Y01075*
X04383Y01075*
X04381Y01076*
X04379Y01075*
X04377Y01075*
X04375Y01075*
X04374Y01075*
X04094Y01065D02*
D01*
X04092Y01063*
X04091Y01061*
X0409Y01059*
X04089Y01057*
X04088Y01055*
X04087Y01054*
Y01034D02*
D01*
X04088Y01032*
X04089Y0103*
X0409Y01028*
X04091Y01026*
X04093Y01024*
X04094Y01023*
X04111Y01013D02*
D01*
X04113Y01013*
X04115Y01013*
X04117Y01012*
X04119Y01013*
X04122Y01013*
X04124Y01013*
X04124Y01013*
X04141Y01023D02*
D01*
X04142Y01025*
X04144Y01027*
X04145Y01029*
X04146Y0103*
X04147Y01033*
X04147Y01034*
Y01054D02*
D01*
X04146Y01056*
X04145Y01058*
X04144Y0106*
X04143Y01062*
X04142Y01064*
X04141Y01065*
X04124Y01075D02*
D01*
X04122Y01075*
X0412Y01075*
X04117Y01076*
X04115Y01075*
X04113Y01075*
X04111Y01075*
X04111Y01075*
G54D20*
X01001Y01469D03*
G54D21*
X03763Y021D03*
G54D22*
X036Y021D03*
X01595Y02021D03*
X01431D03*
G54D23*
X05056Y01394D03*
X03009Y00843D03*
Y0068D03*
X03954Y01546D03*
Y01709D03*
G54D24*
X05056Y01231D03*
X03718Y01709D03*
Y01546D03*
X04702Y00916D03*
Y01079D03*
G54D25*
X0267Y01368D03*
X02655Y01383D03*
Y01368D03*
X02623Y01383D03*
X02607D03*
Y01368D03*
X02702Y01305D03*
X02686Y01368D03*
Y0132D03*
X0267D03*
Y01336D03*
Y01352D03*
X02655Y01336D03*
Y01305D03*
Y01352D03*
X02639Y01305D03*
Y0132D03*
X02623Y01368D03*
Y01352D03*
Y01336D03*
Y0132D03*
X02607Y01305D03*
Y0132D03*
Y01336D03*
Y01352D03*
X02592Y0132D03*
Y01305D03*
X02576Y01352D03*
Y0132D03*
X02513Y01383D03*
X02481D03*
X02466D03*
X02399Y01368D03*
Y01352D03*
Y01336D03*
Y01305D03*
X02383Y01352D03*
Y01305D03*
Y0132D03*
X0256Y01383D03*
X02576D03*
X02529D03*
X02576Y01336D03*
X0256Y01368D03*
Y01352D03*
Y01336D03*
Y0132D03*
Y01305D03*
X02544Y0132D03*
Y01305D03*
X02529Y01368D03*
Y01336D03*
X02513D03*
Y0132D03*
Y01305D03*
X02497Y0132D03*
Y01305D03*
X02481Y0132D03*
X02466Y01305D03*
Y0132D03*
X0245D03*
Y01305D03*
X02418Y01368D03*
X02352D03*
X02367D03*
X02336Y01383D03*
Y01368D03*
X02434Y01352D03*
Y01336D03*
Y0132D03*
X02418Y01352D03*
Y01336D03*
Y01305D03*
Y0132D03*
X02367Y01352D03*
Y01336D03*
Y0132D03*
X02352Y01336D03*
Y01305D03*
X02336Y01352D03*
Y01336D03*
Y01305D03*
Y0132D03*
X0232Y01336D03*
Y0132D03*
Y01352D03*
X02753Y01368D03*
X02718D03*
X02832Y01352D03*
Y01336D03*
Y0132D03*
X02816Y01336D03*
Y0132D03*
Y01305D03*
X028D03*
Y01336D03*
Y01352D03*
X02785D03*
Y0132D03*
Y01336D03*
X02769Y0132D03*
X02753D03*
Y01336D03*
Y01352D03*
Y01305D03*
X02733Y01368D03*
Y0132D03*
Y01352D03*
Y01336D03*
X02718Y0132D03*
Y01336D03*
Y01352D03*
X02702Y01336D03*
X02832Y01383D03*
X02816Y01368D03*
X028Y01383D03*
Y01368D03*
X02785D03*
X02718Y01824D03*
X02769Y01812D03*
X02785D03*
X02607Y01824D03*
X0256D03*
X02576D03*
Y0184D03*
X02607D03*
X0267D03*
Y01824D03*
X02655D03*
X02623D03*
X02655Y0184D03*
X028Y01903D03*
X02816D03*
X02753D03*
X02733D03*
X02769Y01887D03*
X02785D03*
X02816D03*
X02832D03*
X02733D03*
X02753Y01872D03*
X02785D03*
X028D03*
X02733D03*
X02718D03*
X02832Y01844D03*
X02753Y01852D03*
X02785Y01844D03*
X028D03*
X02816D03*
X02733Y01856D03*
X02718D03*
X02769Y01828D03*
X02718Y0184D03*
X02702Y01903D03*
X02686D03*
X02655D03*
X02639D03*
X02607D03*
X02592D03*
X0256D03*
X02702Y01887D03*
X02686D03*
X02655D03*
X02639D03*
X02623D03*
X02592D03*
X02607D03*
X02686Y01872D03*
X02655D03*
X02623D03*
X02607D03*
X02576D03*
X02686Y01856D03*
X02655D03*
X02623D03*
X02576D03*
X02607D03*
X02623Y0184D03*
X02816Y01828D03*
X028D03*
X02816Y01812D03*
X028D03*
X02529Y01824D03*
X02399Y01872D03*
X02434Y01856D03*
X02418Y01872D03*
Y01856D03*
Y0184D03*
X02383Y01816D03*
X02399Y01848D03*
Y01816D03*
X0256Y01887D03*
Y01872D03*
Y01856D03*
Y0184D03*
X02544Y01903D03*
Y01887D03*
Y01872D03*
X02529Y01887D03*
Y01872D03*
Y01856D03*
Y0184D03*
X02513Y01887D03*
Y01903D03*
Y01872D03*
Y01856D03*
Y0184D03*
X02497Y01903D03*
Y01887D03*
Y01872D03*
X02481D03*
Y01856D03*
X02466Y01887D03*
Y01903D03*
Y01872D03*
Y01856D03*
X0245Y01903D03*
Y01887D03*
X02434Y01872D03*
X02513Y01824D03*
X02466Y0184D03*
Y01824D03*
X02481Y0184D03*
X02399Y01903D03*
Y01887D03*
X02383D03*
Y01903D03*
X02418Y01887D03*
Y01903D03*
X02367Y01887D03*
Y01872D03*
X02352Y01832D03*
X02367Y01848D03*
X02352Y01887D03*
Y01903D03*
Y01872D03*
Y01848D03*
X02367Y01816D03*
X02352D03*
X02336Y01903D03*
X0232Y01832D03*
X02336Y01887D03*
Y01832D03*
X0232Y01887D03*
X02336Y01816D03*
Y01852D03*
Y01872D03*
X02832Y01797D03*
X028Y01793D03*
X02816Y01777D03*
X028D03*
X02816Y01761D03*
X028D03*
X02832Y01746D03*
X028D03*
X02816Y0173D03*
X02714Y01809D03*
X02785Y01793D03*
X02769D03*
X02753D03*
X02694D03*
X02729D03*
X02785Y01761D03*
X02769D03*
X02714D03*
X02753D03*
X02785Y01746D03*
X02769D03*
X02753D03*
X02729Y01742D03*
X02694D03*
X028Y0173D03*
X02816Y01714D03*
X028D03*
X02785D03*
X02769D03*
X02832Y01698D03*
X028D03*
X02785D03*
X02816Y01683D03*
X028D03*
X02816Y01667D03*
X028D03*
X02785D03*
X02832Y01651D03*
X028D03*
X02785D03*
X02816Y01635D03*
X028D03*
X02769D03*
X02816Y0162D03*
X028D03*
X02785D03*
X02832Y01604D03*
X028D03*
X02785D03*
X02753Y01714D03*
X02714Y0171D03*
X02729D03*
X02769Y01698D03*
X02729Y0169D03*
X02753Y01667D03*
X02714Y01659D03*
X02753Y01651D03*
X02694Y01639D03*
X02729D03*
X02769Y0162D03*
X02714Y01608D03*
X02729D03*
X02769Y01604D03*
X02753D03*
X02663Y01809D03*
Y01793D03*
X02643D03*
X02678Y01777D03*
X02663D03*
Y01761D03*
X02643D03*
X02663Y01742D03*
X02678Y01726D03*
X02663D03*
X02643D03*
X02663Y0171D03*
X02592Y01809D03*
X02611Y01793D03*
X02592D03*
X02611Y01777D03*
Y01761D03*
X02592D03*
X02576D03*
X02611Y01742D03*
X02576D03*
X02611Y01726D03*
X02592D03*
X02611Y0171D03*
X0256D03*
X02694Y0169D03*
X02663D03*
X02643D03*
X02611D03*
X02678Y01675D03*
X02663D03*
X02611D03*
X02663Y01659D03*
X02643D03*
X02678Y01623D03*
X02627D03*
X02643Y01608D03*
X02627D03*
X02611D03*
Y01659D03*
X02592Y0169D03*
Y01659D03*
Y01623D03*
Y01608D03*
X02576D03*
X0256Y01809D03*
X02541Y01761D03*
Y01777D03*
X02525D03*
Y01761D03*
X02509Y01809D03*
Y01761D03*
Y01793D03*
X02489D03*
X02458D03*
Y01761D03*
X02438Y01793D03*
Y01777D03*
X02399Y01793D03*
Y01761D03*
X02383Y01793D03*
Y01761D03*
X02367Y01793D03*
Y01761D03*
X02352Y01793D03*
Y01761D03*
Y01777D03*
X02336Y01797D03*
Y01761D03*
Y01777D03*
X0232Y01797D03*
Y01777D03*
X0256Y01726D03*
X02541D03*
X02525D03*
Y0171D03*
Y01675D03*
X02509Y01726D03*
Y01675D03*
X02489Y01742D03*
Y01726D03*
Y0171D03*
X02474Y01726D03*
Y01675D03*
X02458Y0169D03*
X02438Y01726D03*
X0256Y01675D03*
Y01659D03*
X02541Y01675D03*
Y01608D03*
Y01623D03*
X02525Y01659D03*
Y01623D03*
X02509D03*
Y01608D03*
X02489Y01675D03*
Y01659D03*
Y01623D03*
X02474D03*
Y01608D03*
X02438Y01675D03*
Y01623D03*
Y01742D03*
X02399Y01746D03*
Y01714D03*
Y01698D03*
Y01667D03*
X02383Y01746D03*
Y01714D03*
Y01698D03*
X02367Y01746D03*
Y01714D03*
Y01698D03*
X02352Y01746D03*
Y01714D03*
Y01698D03*
Y01683D03*
X02336Y01746D03*
Y0173D03*
Y01714D03*
Y01698D03*
Y01683D03*
X0232Y01746D03*
Y0173D03*
Y01698D03*
Y01683D03*
X02422Y01639D03*
X02399Y01651D03*
Y0162D03*
X02383Y01667D03*
Y01651D03*
Y0162D03*
Y01604D03*
X02367Y01667D03*
Y01651D03*
Y0162D03*
Y01604D03*
X02352Y01667D03*
Y01651D03*
Y01635D03*
Y01604D03*
Y0162D03*
X02336Y01667D03*
Y01651D03*
Y0162D03*
Y01604D03*
X0232Y01651D03*
Y01635D03*
Y01604D03*
X02832Y01557D03*
X02816Y01541D03*
Y01588D03*
Y01572D03*
Y01525D03*
X028Y01572D03*
Y01557D03*
Y01588D03*
Y01541D03*
Y01525D03*
X02785Y01572D03*
Y01557D03*
Y01525D03*
X02769Y01541D03*
X02753Y01572D03*
Y01557D03*
Y01525D03*
X02729Y01557D03*
Y01572D03*
X02714Y01557D03*
X02832Y01462D03*
Y01509D03*
X02816Y01494D03*
Y01478D03*
X028Y01462D03*
Y01494D03*
Y01509D03*
Y01478D03*
X02785Y01462D03*
Y01478D03*
Y01509D03*
X02769Y01478D03*
Y01509D03*
X02753Y01462D03*
Y01509D03*
Y01478D03*
X02729Y01505D03*
Y0147D03*
Y01521D03*
X02714Y01505D03*
Y01454D03*
X02694Y01572D03*
Y01521D03*
X02678Y01588D03*
Y01537D03*
X02663Y01557D03*
Y01572D03*
Y01537D03*
X02643Y01572D03*
Y01537D03*
X02611Y01557D03*
Y01572D03*
Y01537D03*
X02592Y01572D03*
Y01537D03*
X02694Y0147D03*
X02678Y01486D03*
X02663Y01521D03*
Y01505D03*
Y01486D03*
Y0147D03*
X02643Y01505D03*
Y0147D03*
X02611Y01521D03*
Y01505D03*
X02592D03*
X02832Y01415D03*
X02816Y01446D03*
Y01431D03*
X028Y01446D03*
Y01431D03*
Y01415D03*
X02785Y01431D03*
Y01415D03*
X02769D03*
X02753Y01431D03*
Y01415D03*
X02729Y01419D03*
X02714Y01403D03*
X02694Y01419D03*
X02678Y01403D03*
Y01435D03*
X02643D03*
Y01419D03*
X02627Y01435D03*
X02611D03*
X02592Y01403D03*
X0256Y01521D03*
X02541Y01557D03*
Y01572D03*
X02525D03*
Y01521D03*
X02509Y01572D03*
Y01557D03*
Y01521D03*
X02489Y01572D03*
X02474D03*
Y01557D03*
X02458Y01572D03*
X0256Y01505D03*
X02541D03*
Y0147D03*
Y01454D03*
X02525Y01505D03*
Y01454D03*
X02509Y01505D03*
Y01454D03*
Y0147D03*
X02489Y01505D03*
Y01454D03*
X02474Y01521D03*
Y01505D03*
Y01454D03*
Y0147D03*
X02438Y01572D03*
Y01588D03*
Y01557D03*
X02399Y01572D03*
Y01557D03*
Y01525D03*
X02383Y01572D03*
Y01557D03*
Y01525D03*
X02367Y01572D03*
Y01557D03*
Y01525D03*
X02352Y01572D03*
Y01557D03*
Y01541D03*
Y01525D03*
X02336Y01572D03*
Y01588D03*
Y01557D03*
Y01541D03*
Y01525D03*
X0232Y01588D03*
Y01541D03*
X02438Y01505D03*
Y01454D03*
X02422Y01521D03*
Y01505D03*
X02399Y01509D03*
Y01462D03*
Y01478D03*
X02383Y01509D03*
Y01478D03*
Y01462D03*
X02367Y01509D03*
Y01478D03*
Y01462D03*
X02352Y01509D03*
Y01494D03*
Y01478D03*
Y01462D03*
X02336Y01478D03*
Y01462D03*
Y01494D03*
X0232Y01509D03*
Y01494D03*
Y01462D03*
X02576Y01403D03*
Y01435D03*
X0256Y01419D03*
X02541Y01403D03*
X02509Y01435D03*
X02474Y01419D03*
X02458D03*
X02438Y01403D03*
Y01419D03*
X02422Y01435D03*
X02399Y01431D03*
Y01415D03*
X02383D03*
Y01431D03*
X02367Y01415D03*
Y01431D03*
X02352Y01415D03*
Y01431D03*
X02336Y01446D03*
Y01415D03*
Y01431D03*
X0232Y01415D03*
Y01446D03*
X02383D03*
X02422Y01403D03*
Y01419D03*
X02438Y01435D03*
X02458Y01403D03*
Y01435D03*
X02474Y01403D03*
Y01435D03*
X02489Y01403D03*
Y01435D03*
Y01419D03*
X02509Y01403D03*
Y01419D03*
X02525D03*
Y01403D03*
Y01435D03*
X02541Y01419D03*
Y01435D03*
X0256D03*
Y01403D03*
X02336Y01509D03*
X02352Y01446D03*
X02383Y01494D03*
X02422Y01454D03*
Y01486D03*
Y0147D03*
X02438Y01486D03*
Y0147D03*
Y01521D03*
X0232Y01557D03*
X02352Y01588D03*
X02383Y01541D03*
Y01588D03*
X02422Y01537D03*
Y01557D03*
Y01572D03*
Y01588D03*
X02438Y01537D03*
X02458Y01454D03*
Y0147D03*
Y01486D03*
Y01505D03*
Y01521D03*
X02474Y01486D03*
X02489Y0147D03*
Y01486D03*
Y01521D03*
X02509Y01486D03*
X02525Y0147D03*
Y01486D03*
X02541D03*
Y01521D03*
X0256Y01454D03*
Y0147D03*
Y01486D03*
X02458Y01537D03*
Y01588D03*
Y01557D03*
X02474Y01537D03*
Y01588D03*
X02489Y01537D03*
Y01557D03*
Y01588D03*
X02509Y01537D03*
Y01588D03*
X02525Y01537D03*
Y01557D03*
Y01588D03*
X02541Y01537D03*
Y01588D03*
X0256Y01537D03*
Y01572D03*
Y01557D03*
Y01588D03*
X02576Y01557D03*
Y01419D03*
X02592Y01435D03*
Y01419D03*
X02611Y01403D03*
Y01419D03*
X02627D03*
Y01403D03*
Y01454D03*
X02643D03*
Y01403D03*
X02663Y01435D03*
Y01403D03*
Y01419D03*
X02678D03*
X02694Y01435D03*
Y01454D03*
Y01403D03*
X02714Y01419D03*
Y01435D03*
X02729Y01403D03*
Y01454D03*
Y01435D03*
X02769Y01431D03*
Y01446D03*
X02816Y01415D03*
X02832Y01446D03*
X02576Y01454D03*
Y0147D03*
Y01486D03*
Y01505D03*
Y01521D03*
X02592Y0147D03*
Y01454D03*
Y01486D03*
Y01521D03*
X02611Y01454D03*
Y0147D03*
Y01486D03*
X02627Y0147D03*
Y01486D03*
Y01505D03*
X02643Y01486D03*
X02663Y01454D03*
X02678Y0147D03*
Y01454D03*
Y01505D03*
X02694Y01486D03*
X02576Y01537D03*
Y01572D03*
Y01588D03*
X02592D03*
Y01557D03*
X02611Y01588D03*
X02627Y01521D03*
Y01537D03*
Y01572D03*
Y01557D03*
X02643Y01521D03*
Y01588D03*
Y01557D03*
X02678Y01521D03*
Y01572D03*
Y01557D03*
X02694Y01537D03*
Y01588D03*
Y01505D03*
X02714Y01486D03*
Y01521D03*
Y0147D03*
X02729Y01486D03*
X02769Y01494D03*
Y01462D03*
Y01525D03*
X02816Y01509D03*
Y01462D03*
X02832Y01494D03*
X02694Y01557D03*
X02714Y01537D03*
Y01588D03*
Y01572D03*
X02729Y01588D03*
Y01537D03*
X02769Y01557D03*
Y01572D03*
Y01588D03*
X02816Y01557D03*
X02832Y01541D03*
Y01588D03*
X02336Y01635D03*
X02383D03*
X02399Y01604D03*
X02422Y01608D03*
Y01623D03*
Y01659D03*
X02438Y01639D03*
Y01608D03*
Y01659D03*
X02352Y0173D03*
X02383Y01683D03*
Y0173D03*
X02422Y01675D03*
Y0169D03*
Y0171D03*
Y01726D03*
Y01742D03*
X02458Y01659D03*
Y01623D03*
Y01608D03*
Y01639D03*
Y01675D03*
X02474Y01639D03*
Y01659D03*
X02489Y01608D03*
Y01639D03*
X02509Y01659D03*
Y01639D03*
X02525Y01608D03*
Y01639D03*
X02541Y01659D03*
Y01639D03*
X0256Y01623D03*
X02438Y0171D03*
Y0169D03*
X02458Y0171D03*
Y01726D03*
Y01742D03*
X02474Y0169D03*
Y0171D03*
Y01742D03*
X02489Y0169D03*
X02509D03*
Y0171D03*
Y01742D03*
X02525Y0169D03*
Y01742D03*
X02541Y0169D03*
Y0171D03*
Y01742D03*
X0256D03*
X02383Y01777D03*
X02422D03*
Y01761D03*
Y01793D03*
Y01809D03*
X02438Y01761D03*
Y01809D03*
X02458Y01777D03*
Y01809D03*
X02474Y01761D03*
Y01793D03*
Y01777D03*
Y01809D03*
X02489Y01761D03*
Y01777D03*
Y01809D03*
X02509Y01777D03*
X02525Y01793D03*
Y01809D03*
X02541Y01793D03*
Y01809D03*
X0256Y01761D03*
Y01793D03*
Y01608D03*
Y01639D03*
Y0169D03*
X02576Y01675D03*
Y01639D03*
Y01623D03*
Y01659D03*
X02592Y01639D03*
Y01675D03*
X02611Y01623D03*
X02627Y01588D03*
X02663D03*
Y01608D03*
X02678D03*
X02643Y01623D03*
X02694D03*
X02663D03*
X02611Y01639D03*
X02627D03*
X02643D03*
X02678D03*
X02663D03*
X02627Y01659D03*
X02678D03*
X02627Y01675D03*
X02643D03*
X02627Y0169D03*
X02678D03*
X02576D03*
Y0171D03*
X02592D03*
X02576Y01726D03*
X02627D03*
X02592Y01742D03*
X02627Y01761D03*
X02576Y01777D03*
X0256D03*
X02592D03*
X02576Y01793D03*
Y01809D03*
X02611D03*
X02627Y0171D03*
X02643D03*
X02678D03*
X02694Y01726D03*
X02627Y01742D03*
X02643D03*
X02678D03*
Y01761D03*
X02627Y01777D03*
X02643D03*
X02627Y01793D03*
X02678D03*
X02627Y01809D03*
X02643D03*
X02678D03*
X02694Y01608D03*
X02753Y0162D03*
X02729Y01623D03*
X02714D03*
Y01639D03*
X02729Y01659D03*
X02694D03*
X02769Y01667D03*
X02729Y01675D03*
X02714D03*
X02694D03*
X02769Y01683D03*
X02714Y0169D03*
X02753Y01698D03*
X02694Y0171D03*
X02729Y01726D03*
X02714D03*
X02816Y01604D03*
X02832Y01635D03*
X02769Y01651D03*
X02816D03*
X02832Y01683D03*
X02816Y01698D03*
X02769Y0173D03*
X02714Y01742D03*
X02694Y01761D03*
X02729D03*
X02694Y01777D03*
X02729D03*
X02714D03*
X02769D03*
X02714Y01793D03*
X02694Y01809D03*
X02729D03*
X02832Y0173D03*
X02816Y01746D03*
X02832Y01777D03*
X02816Y01797D03*
X0232Y01903D03*
Y01852D03*
X02434Y01887D03*
X02481Y01824D03*
X0245Y0184D03*
Y01872D03*
X02481Y01887D03*
X02497Y0184D03*
X02544D03*
X02383Y01872D03*
X02434Y01824D03*
Y0184D03*
X02383Y01832D03*
X02832Y01828D03*
X02639Y0184D03*
X0267Y01856D03*
X02592Y01872D03*
X02639D03*
X0267D03*
X02576Y01887D03*
X0267D03*
X02733Y0184D03*
X02769Y01844D03*
X02702Y01872D03*
X02816D03*
X02718Y01887D03*
X028D03*
X02753D03*
X02769Y01903D03*
X02832D03*
X02592Y0184D03*
X02753Y01812D03*
X02702Y0184D03*
X02686D03*
X02816Y01383D03*
X02702Y0132D03*
X02733Y01305D03*
X02769D03*
Y01368D03*
X028Y0132D03*
X02816Y01352D03*
X02832Y01305D03*
X02702Y01383D03*
X02718D03*
X02769D03*
X0232Y01305D03*
X02352Y0132D03*
Y01352D03*
X0245Y01336D03*
X02434Y01368D03*
X0232Y01383D03*
X02352D03*
X02383D03*
X02434D03*
X0245Y01368D03*
X02497Y01336D03*
X02529Y0132D03*
X02544Y01336D03*
Y01368D03*
X02399Y0132D03*
X02383Y01368D03*
X02497D03*
X02576D03*
X02592Y01336D03*
Y01368D03*
X02639Y01336D03*
X02655Y0132D03*
X02686Y01336D03*
Y01305D03*
Y01352D03*
X02702Y01368D03*
X02639D03*
X0267Y01383D03*
X02702Y01824D03*
X02466Y01352D03*
X02529D03*
X02466Y01336D03*
X02513Y01352D03*
X02481D03*
Y01336D03*
Y01368D03*
X02466D03*
X02513D03*
G54D26*
X02241Y03005D03*
X03619D03*
X01474D03*
X01493D03*
X01651D03*
X036D03*
X03324D03*
X0356D03*
X0297D03*
X0232D03*
X0295D03*
X0358D03*
X01355D03*
X0169D03*
X03501D03*
X02556D03*
X02537D03*
X01907D03*
X01887D03*
X01867D03*
X03718D03*
X03521D03*
X01611D03*
X03422D03*
X03895D03*
X03875D03*
X03855D03*
X03836D03*
X02989D03*
X02891D03*
X02694D03*
X02674D03*
X02655D03*
X02635D03*
X02517D03*
X02458D03*
X02399D03*
X0234D03*
X02281D03*
X02222D03*
X01848D03*
X01828D03*
X01631D03*
X01572D03*
X01513D03*
X01395D03*
X01454D03*
X01336D03*
X02615D03*
X02576D03*
X02478D03*
X023D03*
X02497D03*
X02261D03*
X02596D03*
X01729D03*
X01769D03*
X01552D03*
X01592D03*
X01789D03*
X02911D03*
X01375D03*
X01434D03*
X03777D03*
X03757D03*
X01533D03*
X02871D03*
X03796D03*
X02438D03*
X02418D03*
X02359D03*
X0167D03*
X01749D03*
X03698D03*
X02379D03*
X03442D03*
X0293D03*
X01415D03*
X02852D03*
X03659D03*
X03363D03*
X03344D03*
X02832D03*
X02812D03*
X03403D03*
X0171D03*
X01808D03*
X02714D03*
X02733D03*
X02753D03*
X02773D03*
X02792D03*
X03383D03*
X03462D03*
X03481D03*
X03541D03*
X03639D03*
X03678D03*
X03737D03*
X03816D03*
G54D27*
X03219Y01386D03*
X03188Y01744D03*
Y01693D03*
X03219Y01514D03*
X03251Y01386D03*
X03471Y01514D03*
X03408Y01437D03*
X03471Y01386D03*
X03188Y01437D03*
Y0177D03*
X0344Y01821D03*
X03282Y01668D03*
X03471Y01744D03*
X03251Y0154D03*
X03188Y01719D03*
Y01386D03*
X03219Y01412D03*
X03408Y0154D03*
X03219Y01821D03*
X03188D03*
X03251Y0177D03*
X03219D03*
Y01693D03*
X03408Y01668D03*
X0344Y01693D03*
X03503Y01821D03*
X0344Y01872D03*
X03377D03*
X03471Y01795D03*
X03377Y01821D03*
X03408Y01795D03*
X03503Y01719D03*
Y0177D03*
Y01668D03*
X0344Y01719D03*
X03377Y0177D03*
Y01719D03*
X0344Y01668D03*
X03282Y01872D03*
Y01821D03*
X03219Y01872D03*
X03156Y01821D03*
X03251Y01795D03*
X03282Y0177D03*
X03188Y01795D03*
X03156Y0177D03*
X03282Y01719D03*
X03219D03*
Y01668D03*
X03156Y01719D03*
Y01668D03*
X03471Y01642D03*
X03408D03*
X03471Y01565D03*
X03408D03*
X03503Y0154D03*
X0344D03*
X03503Y01488D03*
Y01437D03*
X0344Y01488D03*
X03377D03*
Y01437D03*
X03471Y01412D03*
X03503Y01386D03*
X03408Y01412D03*
X03377Y01386D03*
X0344Y01335D03*
X03251Y01642D03*
Y01565D03*
X03188Y01642D03*
Y01565D03*
X03219Y0154D03*
Y01488D03*
X03156Y0154D03*
X03282Y01488D03*
Y01437D03*
Y01386D03*
X03251Y01412D03*
X03188D03*
X03156Y01386D03*
Y01488D03*
Y01437D03*
X03219Y01335D03*
X0344Y01437D03*
X03251Y01463D03*
X03188Y01847D03*
X03251D03*
X03219Y01795D03*
X03408Y0177D03*
X03251Y01668D03*
X03188Y0154D03*
X03377D03*
X03188Y01463D03*
X0344Y01514D03*
X03408Y01463D03*
Y0136D03*
X03219Y01437D03*
X03251Y01514D03*
Y01821D03*
X0344Y0177D03*
X03408Y01514D03*
X03471Y0154D03*
X0344Y01412D03*
X03251Y0136D03*
X03408Y01744D03*
X03251Y01693D03*
X03408D03*
X03188Y0136D03*
X03408Y01386D03*
X03471Y01463D03*
Y01437D03*
X03251D03*
X03377Y01668D03*
X03188Y01514D03*
X03408Y01821D03*
X0344Y01795D03*
X03471Y01693D03*
Y01821D03*
Y01668D03*
Y0136D03*
X0344Y01386D03*
X03251Y01744D03*
X03471Y01847D03*
X03408D03*
X03471Y0177D03*
X03188Y01668D03*
X03282Y0154D03*
X03503Y01335D03*
X03471D03*
X03408D03*
X03377D03*
X03282D03*
X03251D03*
X03188D03*
X03156D03*
X03503Y0136D03*
X0344D03*
X03377D03*
X03282D03*
X03219D03*
X03156D03*
X03503Y01412D03*
X03377D03*
X03282D03*
X03156D03*
X03503Y01463D03*
X0344D03*
X03377D03*
X03282D03*
X03219D03*
X03156D03*
X03471Y01488D03*
X03408D03*
X03251D03*
X03188D03*
X03503Y01514D03*
X03377D03*
X03282D03*
X03156D03*
X03503Y01565D03*
X0344D03*
X03377D03*
X03282D03*
X03219D03*
X03156D03*
X03503Y01642D03*
X0344D03*
X03377D03*
X03282D03*
X03219D03*
X03156D03*
X03503Y01693D03*
X03377D03*
X03282D03*
X03156D03*
X03471Y01719D03*
X03408D03*
X03251D03*
X03503Y01744D03*
X0344D03*
X03377D03*
X03282D03*
X03219D03*
X03156D03*
X03503Y01795D03*
X03377D03*
X03282D03*
X03156D03*
X03503Y01847D03*
X0344D03*
X03377D03*
X03282D03*
X03219D03*
X03156D03*
X03503Y01872D03*
X03471D03*
X03408D03*
X03251D03*
X03188D03*
X03156D03*
G54D28*
X0108Y01273D03*
X02892Y02475D03*
X03009Y01892D03*
X01434Y0138D03*
X01946Y00919D03*
Y00947D03*
X02773Y01982D03*
X02261Y02088D03*
X02892Y02503D03*
X04781Y02426D03*
Y02454D03*
X04426Y02494D03*
Y02466D03*
X02261Y0206D03*
X01474Y01627D03*
Y016D03*
X04938Y0201D03*
Y01982D03*
X01434Y01352D03*
X03009Y01864D03*
X02773Y0201D03*
X0171Y00604D03*
Y00632D03*
X0108Y01301D03*
G54D29*
X01974Y01942D03*
X02509Y01982D03*
X02537D03*
X00855Y01273D03*
X00883D03*
X01946Y01942D03*
G54D30*
X04639Y01864D03*
X04603D03*
X04568D03*
X04391D03*
X04426D03*
X04533Y01376D03*
X04674Y01864D03*
Y01376D03*
X04462D03*
X04568D03*
X04533Y01864D03*
X04497D03*
X04391Y01376D03*
X04462Y01864D03*
X04603Y01376D03*
X04639D03*
X0471Y01864D03*
X04285Y01376D03*
X0432D03*
X04355D03*
X04426D03*
X04497D03*
X0471D03*
X04745D03*
Y01864D03*
X04355D03*
X0432D03*
X04285D03*
G54D31*
X04623Y02401D03*
X02812Y02179D03*
X03048Y02408D03*
X04623Y02336D03*
X03048Y02343D03*
X02812Y02244D03*
X0297Y01732D03*
X04544Y0109D03*
X03442Y01063D03*
X02773Y00933D03*
X02576Y00775D03*
X0297Y01667D03*
X04544Y01155D03*
X02773Y00998D03*
X02576Y0084D03*
X03442Y00998D03*
G54D32*
X03204Y02435D03*
X03921Y01982D03*
X03986D03*
X03829Y01864D03*
X03481Y0206D03*
X03269Y02435D03*
X03206Y0206D03*
X03134Y01155D03*
X03002Y01076D03*
X01821Y02021D03*
X01867Y01155D03*
X02937Y01076D03*
X03199Y01155D03*
X03416Y0206D03*
X03141D03*
X03764Y01864D03*
X01932Y01155D03*
X01756Y02021D03*
G54D33*
X04151Y01993D03*
X04072Y01796D03*
X03875Y01245D03*
X02379Y02033D03*
X02143Y02072D03*
X01985Y0206D03*
X01631Y01048D03*
X02812Y01127D03*
X02852Y00694D03*
X02222Y01403D03*
Y00958D03*
X02064Y01166D03*
X04348Y02207D03*
X04151Y02021D03*
X04072Y01824D03*
X03639Y01903D03*
X03324Y0197D03*
X03009Y0201D03*
X02927Y02208D03*
X02697D03*
X03836Y01458D03*
X03875Y01273D03*
X03757Y01144D03*
X03521Y01183D03*
X02852Y00722D03*
X02812Y01155D03*
X02615Y02088D03*
X02379Y0206D03*
X02143Y021D03*
X01985Y02088D03*
X02222Y01431D03*
X02064Y01194D03*
X02222Y0093D03*
X01631Y01076D03*
X04348Y02179D03*
X02615Y0206D03*
X03836Y01431D03*
X03757Y01116D03*
X03521Y01155D03*
X03639Y01875D03*
X03324Y01942D03*
X03009Y01982D03*
X02927Y0218D03*
X02697D03*
G54D34*
X03678Y01321D03*
X0171Y01194D03*
X03915Y02148D03*
X04752Y02685D03*
X04781Y02179D03*
X04752Y02716D03*
X04781Y02209D03*
X03915Y02179D03*
X03678Y01352D03*
X03639Y01194D03*
X03324Y01155D03*
X0171Y01225D03*
X03324Y01124D03*
X03639Y01164D03*
G54D35*
X04229Y02319D03*
X04459D03*
X04635Y02205D03*
X04899Y02483D03*
Y02325D03*
Y02505D03*
Y02347D03*
X04229Y02341D03*
X04459D03*
X04635Y02227D03*
X01001Y01757D03*
Y01735D03*
G54D36*
X02497Y02375D03*
X05179Y02453D03*
X05017Y02257D03*
X05207Y02453D03*
X05045Y02257D03*
X04544Y02021D03*
X04505Y01273D03*
X04179D03*
X02525Y02375D03*
X023Y02494D03*
X02328D03*
X04572Y02021D03*
X04477Y01273D03*
X04151D03*
G54D37*
X02222Y01553D03*
X03954Y02655D03*
Y0269D03*
X02222Y01588D03*
G54D38*
X04269Y01273D03*
X04322D03*
G54D39*
X0234Y02257D03*
X03516Y02297D03*
X02251Y02257D03*
X03605Y02297D03*
X05022Y01076D03*
X04933D03*
G54D40*
X01985Y0147D03*
Y01726D03*
X01966Y01706D03*
Y01686D03*
X01946Y01726D03*
X01926Y01509D03*
X02005Y01706D03*
X01966Y01726D03*
X01946Y01706D03*
Y01627D03*
X01926Y01726D03*
X01887Y01647D03*
X01946Y01588D03*
X01848Y01608D03*
X01907Y01549D03*
X01966Y01509D03*
X01926Y0147D03*
X01946Y01686D03*
Y01608D03*
X01966Y0149D03*
X02005D03*
X01926D03*
X01946D03*
Y0147D03*
X01966D03*
X01985Y0149D03*
X02025Y0147D03*
Y0149D03*
Y01509D03*
Y01529D03*
Y01549D03*
Y01568D03*
Y01588D03*
Y01608D03*
Y01627D03*
Y01647D03*
Y01667D03*
Y01686D03*
Y01706D03*
Y01726D03*
X02005Y0147D03*
Y01509D03*
Y01529D03*
Y01549D03*
Y01568D03*
Y01588D03*
Y01608D03*
Y01627D03*
Y01647D03*
Y01667D03*
Y01686D03*
Y01726D03*
X01985Y01509D03*
Y01529D03*
Y01549D03*
Y01568D03*
Y01588D03*
Y01608D03*
Y01627D03*
Y01647D03*
Y01667D03*
Y01686D03*
Y01706D03*
X01966Y01529D03*
X01946Y01509D03*
Y01549D03*
Y01568D03*
Y01647D03*
X01926Y01549D03*
Y01647D03*
Y01686D03*
Y01706D03*
X01907Y0147D03*
Y0149D03*
Y01509D03*
Y01647D03*
Y01686D03*
Y01706D03*
Y01726D03*
X01887Y0147D03*
Y0149D03*
Y01509D03*
Y01549D03*
Y01686D03*
Y01706D03*
Y01726D03*
X01867Y0147D03*
Y0149D03*
Y01509D03*
Y01549D03*
Y01647D03*
Y01686D03*
Y01706D03*
Y01726D03*
X01848Y0147D03*
Y0149D03*
Y01509D03*
Y01549D03*
Y01568D03*
Y01588D03*
Y01627D03*
Y01647D03*
Y01686D03*
Y01706D03*
Y01726D03*
X01828Y0147D03*
Y0149D03*
Y01509D03*
Y01686D03*
Y01706D03*
Y01726D03*
X01808Y0147D03*
Y0149D03*
Y01509D03*
Y01529D03*
Y01549D03*
Y01568D03*
Y01588D03*
Y01608D03*
Y01627D03*
Y01647D03*
Y01667D03*
Y01686D03*
Y01706D03*
Y01726D03*
X01789Y0147D03*
Y0149D03*
Y01509D03*
Y01529D03*
Y01549D03*
Y01568D03*
Y01588D03*
Y01608D03*
Y01627D03*
Y01647D03*
Y01667D03*
Y01686D03*
Y01706D03*
Y01726D03*
X01769Y0147D03*
Y0149D03*
Y01509D03*
Y01529D03*
Y01549D03*
Y01568D03*
Y01588D03*
Y01608D03*
Y01627D03*
Y01647D03*
Y01667D03*
Y01686D03*
Y01706D03*
Y01726D03*
G54D41*
X02143Y01116D03*
X04161Y02184D03*
X03403Y00811D03*
X02617Y02581D03*
X01277Y02071D03*
X01592Y01834D03*
X02537Y01194D03*
X04269Y02444D03*
X04426Y01992D03*
X02617Y02561D03*
X04269Y02464D03*
X02891Y01972D03*
X04287Y02696D03*
X04517D03*
Y02676D03*
X04287D03*
X04161Y02164D03*
X01277Y0205D03*
X01592Y01814D03*
X02891Y01992D03*
X03403Y00791D03*
X04426Y01972D03*
X02143Y01096D03*
X02537Y01214D03*
X05017Y02494D03*
Y02474D03*
G54D42*
X03206Y02171D03*
X03363D03*
X03206Y02265D03*
X03363D03*
G54D43*
X01212Y0118D03*
X0142Y0123D03*
X01212D03*
Y0108D03*
Y0113D03*
X0142Y0118D03*
Y0113D03*
Y0108D03*
G54D44*
X01237Y01942D03*
X03283Y00722D03*
X0269Y00564D03*
X02416D03*
Y00761D03*
X01163Y01942D03*
X012Y01864D03*
X01867Y00525D03*
X03245Y00801D03*
X0183Y00604D03*
X01905D03*
X02379Y00643D03*
X02342Y00564D03*
X02379Y0084D03*
X02342Y00761D03*
X02653Y00643D03*
X02615Y00564D03*
X03208Y00722D03*
G54D45*
X05242Y0269D03*
X05264D03*
X01463Y00919D03*
X01485D03*
G54D46*
X04952Y00622D03*
X05346Y01925D03*
X05476Y01606D03*
Y01015D03*
X05082Y00622D03*
X04466Y00324D03*
X03704Y00346D03*
X03113D03*
X02483D03*
X01761Y00364D03*
X01249Y00368D03*
X03574Y00346D03*
X03704Y00153D03*
X03574D03*
X01631Y00364D03*
X01761Y00171D03*
X01631D03*
X04952Y00429D03*
X05082D03*
X04336Y00131D03*
X04466D03*
X04336Y00324D03*
X02353Y00153D03*
X02483D03*
X02353Y00346D03*
X01119Y00175D03*
X01249D03*
X01119Y00368D03*
X05346Y01413D03*
X05476D03*
X05346Y01606D03*
X05476Y02118D03*
X05346D03*
X05476Y01925D03*
X05346Y00822D03*
X05476D03*
X05346Y01015D03*
X02983Y00153D03*
X03113D03*
X02983Y00346D03*
G54D47*
X03937Y02464D03*
Y02444D03*
Y02425D03*
X0405D03*
Y02444D03*
Y02464D03*
Y02484D03*
X03937D03*
G54D48*
X05525Y02688D03*
Y02456D03*
G54D49*
X05113Y02665D03*
X03696Y02704D03*
X02751D03*
X01964D03*
X0108Y0269D03*
X00761Y02167D03*
X0492Y02795D03*
Y02665D03*
X05113Y02795D03*
X03503Y02834D03*
Y02704D03*
X03696Y02834D03*
X02558D03*
Y02704D03*
X02751Y02834D03*
X01771D03*
Y02704D03*
X01964Y02834D03*
X00887Y0282D03*
Y0269D03*
X0108Y0282D03*
X00568Y02297D03*
Y02167D03*
X00761Y02297D03*
G54D50*
X05376Y02643D03*
Y02596D03*
Y02501D03*
Y02549D03*
G54D51*
X04926Y03062D03*
X04792D03*
X01013Y031D03*
X00816D03*
G54D52*
X04844Y03007D03*
X0093Y03045D03*
X04875Y03007D03*
X00867Y03045D03*
X00899D03*
X00962D03*
G54D53*
X0456Y03045D03*
X04292D03*
G54D54*
X03934Y03104D03*
X03285D03*
X03029D03*
X02182D03*
X01946D03*
X01296D03*
G54D55*
X03983Y02511D03*
X04003Y02398D03*
X03964D03*
X03983D03*
X04023D03*
Y02511D03*
X04003D03*
X03964D03*
G54D56*
X03993Y02454D03*
G54D57*
X04741Y01967D03*
Y01942D03*
G54D58*
X04798Y01655D03*
X04232Y01797D03*
Y01726D03*
Y01691D03*
Y01655D03*
X04798Y01585D03*
X04232D03*
Y0162D03*
Y01549D03*
X04798Y01478D03*
X04232D03*
Y01443D03*
Y01762D03*
Y01514D03*
X04798Y01443D03*
Y01514D03*
Y01549D03*
Y0162D03*
Y01691D03*
Y01726D03*
Y01762D03*
Y01797D03*
G54D59*
X0472Y01273D03*
X04684D03*
G54D60*
X03993Y0137D03*
X02694Y00757D03*
Y00722D03*
X03993Y01334D03*
G54D61*
X02508Y02189D03*
X02477D03*
G54D62*
X02382Y02566D03*
X01828Y0087D03*
X02382Y02596D03*
X01552Y00761D03*
Y00791D03*
X01828Y0084D03*
G54D63*
X00342Y02809D03*
Y02494D03*
X00165Y02809D03*
Y02494D03*
G54D64*
X00332Y02273D03*
X00174D03*
Y02005D03*
X00332Y01131D03*
X00174Y00864D03*
X00332D03*
Y02005D03*
X00174Y01131D03*
G54D65*
X00253Y02009D03*
Y01127D03*
G54D66*
X01328Y01824D03*
X01552Y01194D03*
X0171Y00919D03*
X01655D03*
X01607Y01194D03*
X01383Y01824D03*
G54D67*
X00596Y01686D03*
Y01667D03*
X00698Y01686D03*
Y01647D03*
Y01667D03*
X00596Y01647D03*
G54D68*
X00647Y01667D03*
G54D69*
X00371Y01685D03*
Y01433D03*
Y01653D03*
Y01464D03*
G54D70*
X02611Y01112D03*
Y01012D03*
Y01062D03*
X02304D03*
Y01012D03*
Y01112D03*
X02611Y00962D03*
X02304D03*
G54D71*
X02458Y01037D03*
G54D72*
X01057Y01431D03*
Y01456D03*
X00945Y01482D03*
Y01456D03*
Y01431D03*
X01057Y01482D03*
Y01507D03*
G54D73*
X02052Y01022D03*
X01316Y00824D03*
Y00879D03*
X02733Y02438D03*
Y02494D03*
X02052Y00967D03*
G54D74*
X01762Y00995D03*
Y00964D03*
G54D75*
X0171Y00812D03*
X0169D03*
X0167D03*
X01651D03*
X0171Y00722D03*
X0169D03*
X0167D03*
X01651D03*
G54D76*
X00657Y01718D03*
X00676D03*
X00637D03*
X00617D03*
Y01616D03*
X00637D03*
X00657D03*
X00676D03*
G54D77*
X00945Y01507D03*
G54D78*
X00686Y01509D03*
Y01352D03*
X0356Y0084D03*
Y00683D03*
G54D79*
X00883Y01116D03*
X01041D03*
X03678Y00998D03*
X03836D03*
X05135Y01549D03*
X04978D03*
X01041Y01903D03*
X00883D03*
X01159Y00879D03*
X01001D03*
X02064Y02257D03*
X01907D03*
X01434Y02297D03*
X01592D03*
X03836Y00722D03*
X03993D03*
X01985D03*
X02143D03*
G54D80*
X01707Y00781D03*
Y00753D03*
X01654D03*
Y00781D03*
G54D81*
X01484Y00761D03*
X01464D03*
G54D82*
X04978Y01741D03*
Y01829D03*
G54D83*
X04886Y01273D03*
X04912D03*
G54D84*
X00371Y01608D03*
Y01568D03*
Y01549D03*
Y01509D03*
Y0149D03*
Y01529D03*
Y01588D03*
Y01627D03*
G54D85*
X04466Y02956D03*
X04387D03*
G54D86*
X03264Y00984D03*
X03211D03*
M02*